<svg width="25" height="25" viewBox="0 0 25 25" fill="none"><path d="M3.89506 23.4167H20.8534C21.2789 23.4167 21.6243 23.118 21.6243 22.75V11.3433C21.6243 10.9753 21.2789 10.6767 20.8534 10.6767H20.488C20.488 9.99001 20.488 9.01801 20.488 9.00468C20.4402 5.18801 16.8011 2.08334 12.375 2.08334C7.93577 2.08334 4.29667 5.19734 4.26121 9.03001V10.6767H3.89583C3.47033 10.6767 3.125 10.9753 3.125 11.3433V22.75C3.12423 23.118 3.46879 23.4167 3.89506 23.4167ZM20.0826 22.0833H4.6659V12.01H20.0826V22.0833ZM5.80211 9.03534C5.83063 5.93734 8.77829 3.41668 12.3743 3.41668C15.9594 3.41668 18.9078 5.93001 18.9456 9.01601C18.9456 9.05934 18.9456 10.004 18.9456 10.6767H5.80133L5.80211 9.03534Z" fill="#ffffff"></path><path d="M10.6912 19.8467C10.6912 20.2146 11.0365 20.5133 11.462 20.5133H13.2827C13.7082 20.5133 14.0536 20.2146 14.0536 19.8467V17.6926C14.6818 17.2573 15.0564 16.6 15.0564 15.896C15.0564 14.6187 13.8524 13.5793 12.3724 13.5793C10.8924 13.5793 9.68832 14.6187 9.68832 15.896C9.68832 16.6 10.0629 17.2573 10.6912 17.6926V19.8467ZM12.3731 14.9133C13.0029 14.9133 13.5155 15.3547 13.5155 15.8967C13.5155 16.2506 13.2858 16.5793 12.915 16.7533C12.6668 16.87 12.5126 17.0946 12.5126 17.3387V19.18H12.2337V17.3387C12.2337 17.0946 12.0795 16.8693 11.8313 16.7533C11.4613 16.5793 11.2307 16.2506 11.2307 15.8967C11.23 15.354 11.7426 14.9133 12.3731 14.9133Z" fill="#ffffff"></path></svg>