<?xml version="1.0" standalone="no"?>
<!DOCTYPE svg PUBLIC "-//W3C//DTD SVG 20010904//EN"
 "http://www.w3.org/TR/2001/REC-SVG-20010904/DTD/svg10.dtd">
<svg version="1.0" xmlns="http://www.w3.org/2000/svg"
 width="1273.000000pt" height="429.000000pt" viewBox="0 0 1273.000000 429.000000"
 preserveAspectRatio="xMidYMid meet">
<metadata>
Created by potrace 1.16, written by Peter Selinger 2001-2019
</metadata>
<g transform="translate(0.000000,429.000000) scale(0.100000,-0.100000)"
fill="#000000" stroke="none">
<path d="M3725 4266 c-40 -19 -233 -207 -982 -957 -763 -765 -936 -943 -955
-984 l-23 -50 -3 -1015 c-2 -721 0 -1030 8 -1067 14 -66 57 -124 117 -160 44
-26 58 -28 165 -32 139 -4 197 11 253 66 80 77 75 3 75 1058 l0 940 884 885
c829 831 884 888 896 933 17 64 7 148 -23 200 -34 57 -146 163 -199 187 -62
28 -149 26 -213 -4z"/>
<path d="M4931 4277 c-48 -18 -108 -72 -134 -120 l-22 -42 -3 -1945 c-2 -2139
-6 -2005 59 -2083 53 -64 97 -81 231 -85 143 -5 198 10 257 69 78 78 72 -106
69 2090 l-3 1966 -30 49 c-19 30 -49 60 -79 79 -48 29 -54 30 -180 32 -86 2
-143 -2 -165 -10z"/>
<path d="M6150 4274 c-57 -25 -99 -63 -125 -114 -23 -45 -25 -61 -25 -177 0
-146 12 -185 75 -246 74 -72 -33 -68 1595 -65 l1465 3 45 25 c53 30 105 96
121 153 6 24 9 88 7 152 -3 88 -8 118 -26 151 -27 53 -90 107 -141 122 -28 9
-418 12 -1497 12 -1274 -1 -1463 -3 -1494 -16z"/>
<path d="M10071 4277 c-48 -18 -108 -72 -134 -120 l-22 -42 0 -1970 0 -1970
22 -40 c25 -47 64 -86 113 -111 26 -13 64 -19 148 -22 142 -5 187 7 252 65 88
79 81 -123 78 2094 l-3 1966 -30 49 c-19 30 -49 60 -79 79 -48 29 -54 30 -180
32 -86 2 -143 -2 -165 -10z"/>
<path d="M11045 4275 c-51 -18 -127 -99 -143 -152 -7 -22 -12 -89 -12 -149 0
-88 4 -118 21 -154 25 -55 62 -95 114 -123 40 -22 44 -22 770 -25 793 -3 775
-4 849 53 19 15 46 50 61 78 23 47 25 62 25 179 0 117 -2 133 -25 178 -14 27
-40 60 -58 74 -76 58 -43 56 -834 56 -598 -1 -735 -3 -768 -15z"/>
<path d="M255 4238 c-31 -8 -62 -33 -136 -107 -79 -79 -98 -104 -109 -144 -17
-64 -8 -147 24 -200 13 -23 289 -306 613 -628 555 -554 591 -588 642 -604 65
-21 141 -16 197 13 47 25 175 153 200 202 25 48 25 161 0 215 -13 27 -213 234
-615 636 -541 541 -601 598 -645 613 -55 18 -111 19 -171 4z"/>
<path d="M7490 3294 c-46 -20 -96 -69 -123 -119 l-22 -40 0 -1480 0 -1480 22
-40 c25 -47 64 -86 113 -111 45 -24 240 -32 306 -14 59 17 138 88 159 143 14
38 15 186 13 1518 l-3 1476 -30 49 c-19 30 -49 60 -79 79 -48 29 -53 30 -185
32 -105 2 -144 -1 -171 -13z"/>
<path d="M11062 2445 c-59 -18 -106 -57 -139 -113 -27 -45 -28 -52 -28 -188 0
-139 0 -141 30 -190 19 -30 49 -60 79 -79 l49 -30 436 -3 c278 -2 449 1 471 7
52 16 110 68 136 125 21 45 24 66 24 174 0 141 -15 187 -80 246 -70 63 -96 66
-539 65 -301 0 -406 -4 -439 -14z"/>
</g>
</svg>
