<svg width="512" height="512" viewBox="0 0 512 512" fill="none" xmlns="http://www.w3.org/2000/svg">
<g clip-path="url(#clip0)">
<ellipse cx="254.5" cy="211" rx="180.5" ry="172" fill="white"/>
<path d="M256.001 0C139.061 0 43.9238 95.137 43.9238 212.077C43.9238 268.725 65.9838 321.982 106.04 362.038L256.001 512L405.962 362.039C446.019 321.983 468.078 268.726 468.078 212.078C468.078 95.137 372.94 0 256.001 0V0ZM256.001 379.154C163.874 379.154 88.9238 304.204 88.9238 212.077C88.9238 119.95 163.874 45 256.001 45C348.128 45 423.078 119.951 423.078 212.077C423.078 304.203 348.127 379.154 256.001 379.154Z" fill="black"/>
<path d="M377.563 296.209C372.5 296.209 369.125 292.839 369.125 287.784V178.253C369.125 173.197 372.5 169.827 377.563 169.827C382.625 169.827 386 173.197 386 178.253V287.784C386 292.839 382.625 296.209 377.563 296.209Z" fill="black"/>
<path d="M251 254.079C249.313 254.079 248.469 254.079 246.782 253.237L120.219 185.833C117.688 184.148 116 181.621 116 178.25C116 174.88 117.688 172.353 120.219 170.667L246.782 103.264C249.313 101.579 251.844 101.579 254.375 103.264L380.938 170.667C383.47 172.353 385.157 174.88 385.157 178.25C385.157 181.621 383.47 184.148 380.938 185.833L254.375 253.237C253.532 254.079 252.688 254.079 251 254.079Z" fill="black"/>
<path d="M262.825 267.563C259.45 270.091 255.231 270.933 251.012 270.933C246.793 270.933 242.574 270.091 239.199 267.563L166.637 229.648V262.508C166.637 288.627 207.981 313.06 251.012 313.06C294.043 313.06 335.387 288.627 335.387 262.508V229.648L262.825 267.563Z" fill="black"/>
</g>
<defs>
<clipPath id="clip0">
<rect width="512" height="512" fill="white"/>
</clipPath>
</defs>
</svg>
