<svg width="330" height="248" viewBox="0 0 330 248" fill="none" xmlns="http://www.w3.org/2000/svg">
<path d="M299 24.8925C299 86.7484 223.84 213.284 178 213.284C132.16 213.284 29.5 258.14 29.5 196.284C29.5 134.428 77.1604 54.2837 123 54.2837C168.84 54.2837 299 -36.9634 299 24.8925Z" fill="#F2F9FF" fill-opacity="0.5"/>
<path d="M213.057 61.38C214.914 61.38 216.419 59.8748 216.419 58.0181C216.419 56.1614 214.914 54.6562 213.057 54.6562C211.2 54.6562 209.695 56.1614 209.695 58.0181C209.695 59.8748 211.2 61.38 213.057 61.38Z" fill="#EC615B"/>
<path d="M216.624 52.0588C217.49 52.0588 218.192 51.357 218.192 50.4913C218.192 49.6256 217.49 48.9238 216.624 48.9238C215.758 48.9238 215.057 49.6256 215.057 50.4913C215.057 51.357 215.758 52.0588 216.624 52.0588Z" fill="#EC615B"/>
<path d="M113.851 31.6609C114.739 31.6609 115.46 30.9406 115.46 30.0521C115.46 29.1636 114.739 28.4434 113.851 28.4434C112.962 28.4434 112.242 29.1636 112.242 30.0521C112.242 30.9406 112.962 31.6609 113.851 31.6609Z" fill="#EC615B"/>
<path d="M219.121 219.945C220.625 219.945 221.843 218.726 221.843 217.223C221.843 215.719 220.625 214.5 219.121 214.5C217.617 214.5 216.398 215.719 216.398 217.223C216.398 218.726 217.617 219.945 219.121 219.945Z" fill="#EC615B"/>
<path d="M95.2269 229.268C95.9217 229.268 96.485 228.705 96.485 228.01C96.485 227.315 95.9217 226.752 95.2269 226.752C94.532 226.752 93.9688 227.315 93.9688 228.01C93.9688 228.705 94.532 229.268 95.2269 229.268Z" fill="#EC615B"/>
<path d="M110.942 136.331C111.66 136.331 112.241 135.749 112.241 135.032C112.241 134.314 111.66 133.732 110.942 133.732C110.224 133.732 109.643 134.314 109.643 135.032C109.643 135.749 110.224 136.331 110.942 136.331Z" fill="#EC615B"/>
<path d="M113.5 142.952C114.195 142.952 114.758 142.388 114.758 141.694C114.758 140.999 114.195 140.436 113.5 140.436C112.805 140.436 112.242 140.999 112.242 141.694C112.242 142.388 112.805 142.952 113.5 142.952Z" fill="#11345C"/>
<path d="M111.994 178.015C113.292 178.015 114.345 176.962 114.345 175.664C114.345 174.365 113.292 173.312 111.994 173.312C110.695 173.312 109.643 174.365 109.643 175.664C109.643 176.962 110.695 178.015 111.994 178.015Z" fill="#11345C"/>
<path d="M211.18 44.386C212 44.386 212.665 43.7212 212.665 42.901C212.665 42.0809 212 41.416 211.18 41.416C210.36 41.416 209.695 42.0809 209.695 42.901C209.695 43.7212 210.36 44.386 211.18 44.386Z" fill="#11345C"/>
<path d="M154.688 46.9855C155.406 46.9855 155.987 46.4037 155.987 45.6861C155.987 44.9685 155.406 44.3867 154.688 44.3867C153.97 44.3867 153.389 44.9685 153.389 45.6861C153.389 46.4037 153.97 46.9855 154.688 46.9855Z" fill="#11345C"/>
<path d="M38.8377 148.624C39.3844 148.624 39.8277 148.181 39.8277 147.635C39.8277 147.088 39.3844 146.645 38.8377 146.645C38.2909 146.645 37.8477 147.088 37.8477 147.635C37.8477 148.181 38.2909 148.624 38.8377 148.624Z" fill="#11345C"/>
<path d="M215.676 226.753C217.043 226.753 218.151 225.645 218.151 224.278C218.151 222.911 217.043 221.803 215.676 221.803C214.309 221.803 213.201 222.911 213.201 224.278C213.201 225.645 214.309 226.753 215.676 226.753Z" fill="#11345C"/>
<path d="M242.18 14.8507C242.898 14.8507 243.48 14.269 243.48 13.5513C243.48 12.8337 242.898 12.252 242.18 12.252C241.463 12.252 240.881 12.8337 240.881 13.5513C240.881 14.269 241.463 14.8507 242.18 14.8507Z" fill="#11345C"/>
<path d="M115.934 71.9624C115.728 70.6837 115.542 68.1261 117.584 68.3324C118.326 68.4149 118.739 69.0749 119.564 68.7861C121.111 68.2499 120.76 66.2493 121.4 65.0943C122.451 63.238 124.493 65.9399 126.061 65.053C126.576 64.7643 126.7 64.228 126.68 63.6711C126.638 61.588 128.474 61.7324 129.98 62.1449C130.371 62.248 130.536 61.6499 130.145 61.5468C128.618 61.1343 126.081 60.9899 126.02 63.1968C125.999 63.733 126.288 64.2693 125.504 64.5993C125.256 64.7024 124.844 64.5786 124.617 64.5168C124.081 64.3518 123.606 63.9805 123.05 63.8361C122.328 63.6299 121.626 63.7743 121.131 64.3518C120.513 65.0943 120.533 66.1049 120.245 66.9711C119.935 67.8993 119.337 68.4355 118.326 67.9818C117.914 67.7961 117.543 67.6311 117.068 67.693C114.944 67.9818 115.047 70.5599 115.315 72.1274C115.398 72.5193 115.996 72.3543 115.934 71.9624Z" fill="#11345C"/>
<path d="M118.367 73.1575C118.532 71.8787 119.563 71.3218 120.76 71.3218C121.399 71.3218 122.038 71.425 122.657 71.1981C124.06 70.6618 123.792 69.1356 124.122 67.9393C124.74 65.6706 127.607 67.0731 129.195 66.7018C130.268 66.4337 131.175 65.3612 130.722 64.2268C130.577 63.8556 129.979 64.0206 130.123 64.3918C130.825 66.1037 128.432 66.2068 127.422 66.0831C126.679 66.0006 125.957 65.8768 125.215 66.0625C124.039 66.3718 123.585 67.2381 123.42 68.3518C123.276 69.3831 123.297 70.5175 121.956 70.6825C121.234 70.765 120.512 70.5587 119.79 70.7237C118.635 70.9918 117.893 71.9612 117.748 73.1162C117.687 73.5493 118.305 73.5493 118.367 73.1575Z" fill="#11345C"/>
<path d="M160.978 22.5024C160.256 23.4099 159.493 24.5237 159.844 25.7406C160.133 26.7306 160.916 27.1018 161.865 27.0399C162.422 26.9987 162.999 26.8543 163.453 27.3493C163.804 27.7206 163.577 28.5043 163.474 28.9168C163.309 29.5562 162.999 30.1749 163.061 30.8556C163.164 31.7837 163.907 32.5056 164.856 32.2993C165.248 32.2168 165.083 31.6187 164.691 31.7012C162.896 32.1137 164.134 29.1231 164.216 28.4012C164.278 27.8031 164.175 27.1431 163.721 26.7099C163.268 26.2768 162.711 26.3181 162.133 26.3799C161.226 26.4831 160.38 26.1943 160.339 25.1012C160.318 24.2762 160.896 23.5337 161.391 22.9149C161.679 22.6468 161.226 22.1931 160.978 22.5024Z" fill="#11345C"/>
<path d="M165.846 22.1932C164.877 22.6057 164.258 23.6163 164.506 24.6682C164.63 25.1426 164.918 25.5963 165.331 25.8851C165.826 26.2563 166.403 26.1738 166.898 26.4832C167.826 27.0401 167.084 28.1332 167.125 28.9995C167.146 29.4326 167.249 29.8245 167.62 30.0926C168.177 30.5257 169.002 30.3813 169.229 29.6801C169.353 29.3088 168.755 29.1438 168.631 29.5151C167.847 29.412 167.579 29.0613 167.806 28.4632C167.847 28.257 167.888 28.0507 167.93 27.8445C167.971 27.6382 167.991 27.432 167.991 27.2257C167.991 26.7926 167.868 26.3388 167.538 26.0295C167.043 25.5757 166.28 25.7613 165.743 25.3901C164.65 24.627 165.042 23.1832 166.156 22.7088C166.527 22.5645 166.197 22.0488 165.846 22.1932Z" fill="#11345C"/>
<path d="M30.9794 144.108C30.5051 143.365 30.5051 142.458 30.9794 141.694C31.4538 140.952 32.1138 140.931 32.8769 140.643C33.9288 140.209 33.9494 139.116 33.8876 138.126C33.8669 137.776 33.8463 137.404 33.9494 137.054C34.2176 136.229 34.9188 136.456 35.5582 136.559C35.9294 136.621 36.2801 136.559 36.5894 136.353C36.9813 136.084 37.2288 135.61 37.3526 135.156C37.4557 134.785 37.4763 134.393 37.5588 134.022C37.6001 133.754 37.6826 133.506 37.8063 133.279C38.1363 132.764 38.5282 132.723 39.0026 133.176C39.1057 133.568 39.7038 133.403 39.6007 133.011C39.2294 131.671 37.5794 132.269 37.1669 133.218C36.9813 133.651 36.9607 134.125 36.8576 134.579C36.7957 134.847 36.7544 135.136 36.6101 135.383C36.3007 135.94 35.7232 135.837 35.1869 135.775C34.5476 135.713 34.0526 135.651 33.6401 136.249C33.1657 136.93 33.2894 137.734 33.2894 138.518C33.3101 139.467 33.1038 139.838 32.1757 140.148C31.8044 140.271 31.4951 140.333 31.1651 140.581C29.9688 141.426 29.6594 143.179 30.4432 144.396C30.6494 144.747 31.1857 144.438 30.9794 144.108Z" fill="#EC615B"/>
<path d="M33.5574 145.532C32.6911 145.408 33.0211 144.459 33.413 144.088C33.7018 143.82 34.0936 143.655 34.4649 143.469C34.9186 143.242 35.3724 142.974 35.7024 142.582C36.5893 141.469 35.3105 139.984 36.548 139.097C37.7855 138.231 41.1061 137.839 40.1368 135.529C39.9924 135.157 39.4561 135.487 39.6005 135.838C40.3018 137.509 36.8986 138.004 36.0324 138.705C35.723 138.952 35.4549 139.282 35.3311 139.674C35.0836 140.541 35.8055 141.427 35.1661 142.252C34.4236 143.16 32.8355 143.16 32.4643 144.439C32.2374 145.161 32.6293 146.027 33.413 146.151C33.7843 146.192 33.9493 145.594 33.5574 145.532Z" fill="#EC615B"/>
<path d="M259.65 97.5974C259.382 97.123 259.423 96.6074 259.712 96.1537C260.165 95.4937 260.702 95.638 261.403 95.6999C261.877 95.7412 262.31 95.8443 262.764 95.5762C263.569 95.0812 263.445 94.0499 263.589 93.2662C263.919 91.4305 265.507 93.1012 266.58 92.5237C266.972 92.3174 267.116 91.9255 267.199 91.513C267.343 90.7087 267.384 88.3162 268.931 89.2855C269.261 89.4918 269.591 88.9555 269.24 88.7493C267.859 87.9037 266.745 89.3062 266.621 90.6055C266.539 91.348 266.621 92.0699 265.631 91.9668C265.28 91.9255 264.93 91.7399 264.579 91.6987C264.022 91.6368 263.527 91.8018 263.218 92.2968C262.867 92.8743 262.991 93.5962 262.847 94.2149C262.537 95.6174 261.341 94.8337 260.372 94.9987C259.072 95.2255 258.474 96.793 259.093 97.8862C259.299 98.2574 259.835 97.948 259.65 97.5974Z" fill="#EC615B"/>
<path d="M262.721 98.8971C262.371 97.9483 263.464 96.8965 264.413 97.3915C264.536 97.4533 264.701 97.4533 264.784 97.3502C265.258 96.8346 265.382 96.2365 265.588 95.5765C265.96 94.3802 266.846 94.2152 267.919 93.8852C268.971 93.5552 270.146 92.689 269.713 91.4515C269.569 91.0802 268.971 91.2452 269.115 91.6165C269.713 93.2458 266.785 93.3696 265.918 93.9677C264.866 94.7102 265.176 96.0508 264.371 96.9171C264.495 96.8965 264.619 96.8758 264.743 96.8758C263.361 96.154 261.608 97.5771 262.144 99.0827C262.268 99.4333 262.866 99.289 262.721 98.8971Z" fill="#EC615B"/>
<path d="M179.418 104.302C179.459 104.302 179.913 105.416 180.099 105.56C180.387 105.787 180.738 105.808 181.089 105.746C181.707 105.643 182.099 105.189 182.635 104.9C183.79 104.24 183.79 105.375 184.244 106.014C184.76 106.777 185.317 106.406 185.915 106.035C186.307 105.787 186.678 105.622 187.029 105.973C187.214 106.158 187.338 106.468 187.482 106.695C187.709 107.025 187.957 107.293 188.328 107.458C188.679 107.623 189.009 107.087 188.637 106.922C187.792 106.55 187.689 105.148 186.678 105.003C186.204 104.942 185.997 105.21 185.626 105.416C185.172 105.684 184.904 105.87 184.615 105.354C184.492 105.148 184.471 104.859 184.327 104.653C183.667 103.56 182.635 104.158 181.81 104.694C181.666 104.797 181.522 104.9 181.357 104.983C181.006 104.88 180.635 104.777 180.284 104.673C180.14 104.529 180.14 104.178 180.016 103.993C179.81 103.704 179.604 103.622 179.274 103.683C178.861 103.766 179.026 104.364 179.418 104.302Z" fill="#EC615B"/>
<path d="M184.265 102.321C184.884 101.352 186.307 103.373 186.884 103.621C187.235 103.765 187.565 103.765 187.936 103.662C188.101 103.621 188.246 103.538 188.39 103.476C188.947 103.249 189.421 103.394 189.875 103.786C190.535 104.343 190.721 105.085 191.669 105.291C192.226 105.415 192.742 105.25 192.989 104.714C193.154 104.363 192.618 104.033 192.453 104.404C191.876 105.642 190.288 103.208 189.875 102.94C189.112 102.445 188.638 102.858 187.874 103.023C186.658 103.27 186.266 101.909 185.255 101.579C184.657 101.373 184.079 101.476 183.749 102.033C183.502 102.363 184.038 102.672 184.265 102.321Z" fill="#EC615B"/>
<path d="M261.339 138.373C272.291 138.373 283.243 138.373 294.215 138.373C294.607 138.373 294.607 137.754 294.215 137.754C283.263 137.754 272.311 137.754 261.339 137.754C260.947 137.754 260.947 138.373 261.339 138.373Z" fill="#837B7B"/>
<path d="M270.312 138.229C270.312 141.426 270.312 144.603 270.312 147.799C270.312 148.191 270.931 148.191 270.931 147.799C270.931 144.603 270.931 141.426 270.931 138.229C270.931 137.838 270.312 137.838 270.312 138.229Z" fill="#837B7B"/>
<path d="M285.615 137.919C285.615 133.464 285.615 129.009 285.615 124.554C285.615 124.162 284.996 124.162 284.996 124.554C284.996 129.009 284.996 133.464 284.996 137.919C284.996 138.331 285.615 138.331 285.615 137.919Z" fill="#837B7B"/>
<path d="M278.335 124.802C282.481 124.802 286.626 124.802 290.772 124.802C291.164 124.802 291.164 124.184 290.772 124.184C286.626 124.184 282.481 124.184 278.335 124.184C277.943 124.184 277.943 124.802 278.335 124.802Z" fill="#837B7B"/>
<path d="M270.188 50.5322C270.188 54.3891 270.188 58.246 270.188 62.0822C270.188 62.4741 270.806 62.4741 270.806 62.0822C270.806 58.2253 270.806 54.3684 270.806 50.5322C270.806 50.1403 270.188 50.1403 270.188 50.5322Z" fill="#837B7B"/>
<path d="M260.555 62.9684C268.001 62.9684 275.426 62.9684 282.872 62.9684C283.264 62.9684 283.264 62.3496 282.872 62.3496C275.426 62.3496 268.001 62.3496 260.555 62.3496C260.143 62.3496 260.143 62.9684 260.555 62.9684Z" fill="#837B7B"/>
<path d="M282.666 62.8857C282.666 65.4432 282.666 68.0007 282.666 70.5582C282.666 70.9501 283.285 70.9501 283.285 70.5582C283.285 68.0007 283.285 65.4432 283.285 62.8857C283.285 62.4938 282.666 62.4938 282.666 62.8857Z" fill="#837B7B"/>
<path d="M75.5283 38.5074C82.8089 38.5074 90.1101 38.5074 97.3908 38.5074C97.7826 38.5074 97.7826 37.8887 97.3908 37.8887C90.1101 37.8887 82.8089 37.8887 75.5283 37.8887C75.1364 37.8887 75.1158 38.5074 75.5283 38.5074Z" fill="#837B7B"/>
<path d="M96.4844 38.4461C96.4844 40.4261 96.4844 42.4061 96.4844 44.3861C96.4844 44.778 97.1031 44.778 97.1031 44.3861C97.1031 42.4061 97.1031 40.4261 97.1031 38.4461C97.1031 38.0336 96.4844 38.0336 96.4844 38.4461Z" fill="#837B7B"/>
<path d="M89.8629 37.9505C89.8629 34.7742 89.8629 31.6186 89.8629 28.4423C89.8629 28.0505 89.2441 28.0505 89.2441 28.4423C89.2441 31.6186 89.2441 34.7742 89.2441 37.9505C89.2441 38.363 89.8629 38.363 89.8629 37.9505Z" fill="#837B7B"/>
<path d="M32.2783 102.074C37.3108 102.074 42.3433 102.074 47.3758 102.074C47.7677 102.074 47.7677 101.455 47.3758 101.455C42.3433 101.455 37.3108 101.455 32.2783 101.455C31.8864 101.455 31.8864 102.074 32.2783 102.074Z" fill="#837B7B"/>
<path d="M41.498 95.8662C41.498 97.7224 41.498 99.5787 41.498 101.435C41.498 101.827 42.1168 101.827 42.1168 101.435C42.1168 99.5787 42.1168 97.7224 42.1168 95.8662C42.1168 95.4743 41.498 95.4743 41.498 95.8662Z" fill="#837B7B"/>
<path d="M37.868 96.1754C40.5492 96.1754 43.2305 96.1754 45.9117 96.1754C46.3036 96.1754 46.3036 95.5566 45.9117 95.5566C43.2305 95.5566 40.5492 95.5566 37.868 95.5566C37.4555 95.5566 37.4555 96.1754 37.868 96.1754Z" fill="#837B7B"/>
<path d="M128.7 226.216C135.424 226.216 142.148 226.216 148.871 226.216C149.263 226.216 149.263 225.598 148.871 225.598C142.148 225.598 135.424 225.598 128.7 225.598C128.287 225.598 128.287 226.216 128.7 226.216Z" fill="#837B7B"/>
<path d="M141.117 225.597C141.117 224.153 141.117 222.709 141.117 221.245C141.117 220.853 140.498 220.853 140.498 221.245C140.498 222.689 140.498 224.133 140.498 225.597C140.498 226.009 141.117 226.009 141.117 225.597Z" fill="#837B7B"/>
<path d="M139.239 221.265C142.024 221.265 144.829 221.265 147.613 221.265C148.005 221.265 148.005 220.646 147.613 220.646C144.829 220.646 142.024 220.646 139.239 220.646C138.847 220.646 138.847 221.265 139.239 221.265Z" fill="#837B7B"/>
<path d="M32.7529 215.367C39.4766 215.367 46.2004 215.367 52.9242 215.367C53.316 215.367 53.316 214.748 52.9242 214.748C46.2004 214.748 39.4766 214.748 32.7529 214.748C32.361 214.748 32.361 215.367 32.7529 215.367Z" fill="#837B7B"/>
<path d="M42.0762 207.282C42.0762 209.654 42.0762 212.047 42.0762 214.418C42.0762 214.81 42.6949 214.81 42.6949 214.418C42.6949 212.047 42.6949 209.654 42.6949 207.282C42.6949 206.89 42.0762 206.89 42.0762 207.282Z" fill="#837B7B"/>
<path d="M42.0751 206.354C39.3938 206.354 36.692 206.354 34.0107 206.354C33.6188 206.354 33.6188 206.972 34.0107 206.972C36.692 206.972 39.3938 206.972 42.0751 206.972C42.4669 206.972 42.4669 206.354 42.0751 206.354Z" fill="#837B7B"/>
<path d="M256.968 197.217C256.287 196.537 256.452 195.217 257.504 194.99C258.061 194.866 258.597 195.217 259.133 195.279C259.546 195.341 259.979 195.299 260.247 194.928C260.66 194.392 260.33 193.773 260.309 193.175C260.268 191.298 262.495 191.422 263.609 192.082C263.856 192.226 264.125 191.979 264.063 191.731C263.526 189.153 266.476 187.379 268.497 189.091C268.807 189.339 269.24 188.906 268.93 188.658C266.435 186.554 262.784 188.699 263.465 191.917C263.609 191.793 263.774 191.69 263.918 191.566C262.97 190.989 261.753 190.7 260.742 191.339C260.371 191.566 260.041 191.917 259.876 192.329C259.752 192.618 259.69 192.886 259.711 193.196C259.731 193.752 259.917 193.711 259.505 194.247C259.051 194.846 259.01 194.577 258.37 194.433C258.143 194.371 257.937 194.33 257.69 194.351C257.174 194.371 256.7 194.619 256.37 194.99C255.648 195.794 255.833 196.929 256.555 197.651C256.823 197.939 257.256 197.506 256.968 197.217Z" fill="#837B7B"/>
<path d="M260.988 197.835C260.761 195.958 263.834 195.937 264.701 194.638C264.928 194.308 265.01 193.937 265.154 193.586C265.423 192.947 265.897 192.534 266.598 192.349C267.733 192.06 268.908 192.575 269.939 193.009C270.311 193.153 270.476 192.555 270.104 192.41C268.207 191.627 265.649 191.029 264.598 193.339C264.226 194.164 264.103 194.617 263.236 195.05C262.721 195.298 262.185 195.442 261.69 195.731C260.906 196.185 260.287 196.886 260.39 197.835C260.431 198.227 261.05 198.227 260.988 197.835Z" fill="#837B7B"/>
<path d="M172.281 137.858C172.693 138.889 173.106 139.941 173.518 140.972C173.56 140.848 173.621 140.745 173.663 140.621C173.436 140.766 173.209 140.91 172.982 141.075C172.631 140.25 172.776 140.044 173.436 140.415C173.828 140.662 174.013 141.199 174.096 141.632C174.281 142.622 174.075 143.653 173.745 144.602C173.663 144.849 173.91 145.014 174.116 144.973C175.354 144.726 175.849 146.211 175.601 147.139C175.416 147.819 175.045 148.417 174.673 149.016C174.467 149.346 175.003 149.655 175.21 149.325C175.87 148.294 176.633 147.015 176.179 145.736C175.828 144.787 174.962 144.189 173.951 144.375C174.075 144.499 174.199 144.622 174.323 144.746C174.735 143.55 175.003 142.044 174.488 140.827C174.137 140.023 173.333 139.404 172.425 139.672C171.724 139.879 171.373 140.58 171.703 141.261C172.26 142.395 173.23 141.632 173.951 141.157C174.055 141.096 174.137 140.931 174.096 140.807C173.683 139.776 173.271 138.724 172.858 137.693C172.735 137.342 172.136 137.486 172.281 137.858Z" fill="#837B7B"/>
<path d="M50.304 40.2811C49.9121 39.2911 51.2321 39.023 51.8508 39.3736C52.3252 39.6418 52.6346 40.1161 52.9233 40.5493C53.1915 40.9411 53.4802 41.3743 53.6246 41.828C53.7896 42.2199 53.769 42.5911 53.5627 42.9624C52.8408 43.2924 52.4696 43.2099 52.449 42.7355C52.2633 42.0549 52.9852 41.6011 53.604 41.6218C54.2433 41.6424 54.8415 42.0136 55.2746 42.4674C56.0171 43.2511 56.2852 44.2824 56.1821 45.3343C56.3677 45.2724 56.574 45.2311 56.7596 45.1693C56.3471 44.5711 56.739 43.9318 57.2958 43.6224C57.7702 43.3749 58.3065 43.4368 58.7602 43.6843C59.5027 44.0761 60.0183 44.798 60.4927 45.458C60.7196 45.788 61.2558 45.4786 61.029 45.1486C60.2452 44.0555 59.0696 42.5293 57.5227 42.8799C56.3883 43.1274 55.4808 44.4474 56.2233 45.4786C56.409 45.7468 56.7596 45.623 56.8008 45.3136C56.9865 43.3543 55.5427 40.673 53.2327 41.003C52.4077 41.1268 51.8096 41.7043 51.8096 42.5499C51.8096 43.2099 52.2221 43.8905 52.9233 43.9318C53.7483 43.9936 54.3052 43.1893 54.3465 42.4468C54.4083 41.4155 53.604 40.3018 52.9852 39.5386C52.4077 38.858 51.5621 38.2805 50.6546 38.6311C49.9121 38.8993 49.4171 39.6418 49.7265 40.4049C49.8502 40.8174 50.4483 40.6524 50.304 40.2811Z" fill="#837B7B"/>
<path d="M158.957 70.5369C158.091 70.0213 158.709 68.4951 159.679 69.1344C160.607 69.7532 159.369 70.8051 158.771 70.0832C158.524 69.7738 158.091 70.2069 158.338 70.5163C158.813 71.0938 159.72 71.0526 160.256 70.5782C160.875 70.0213 160.71 69.1138 160.071 68.6601C159.431 68.2063 158.503 68.2888 158.111 69.0313C157.719 69.7326 157.988 70.6813 158.668 71.0732C158.978 71.2588 159.287 70.7432 158.957 70.5369Z" fill="#837B7B"/>
<path d="M224.667 25.4309C224.214 24.7915 224.997 23.8221 225.719 24.1109C225.657 24.0696 225.596 24.0078 225.534 23.9665C225.926 24.6471 225.348 25.5753 224.585 25.534C224.688 25.6165 224.791 25.6784 224.874 25.7609C224.75 25.4103 224.606 25.039 224.482 24.6884C224.337 24.3171 223.739 24.4821 223.884 24.8534C224.007 25.204 224.152 25.5753 224.276 25.9259C224.317 26.0703 224.42 26.1528 224.564 26.1528C225.224 26.194 225.802 25.7815 226.091 25.204C226.317 24.7503 226.441 23.8015 225.884 23.5128C224.667 22.9146 223.409 24.7296 224.131 25.7403C224.358 26.0703 224.894 25.7609 224.667 25.4309Z" fill="#837B7B"/>
<path d="M241.457 56.1005C241.354 55.6262 241.705 55.1105 242.179 55.0074C242.612 54.9249 243.004 55.2755 243.107 55.6674C243.375 56.5955 242.158 57.0287 241.581 56.3893C241.313 56.1005 240.88 56.5337 241.148 56.8224C242.22 58.0187 244.283 56.8431 243.623 55.3168C243.334 54.6362 242.612 54.203 241.89 54.4299C241.127 54.6774 240.673 55.4818 240.838 56.2655C240.962 56.6574 241.56 56.4924 241.457 56.1005Z" fill="#837B7B"/>
<path d="M174.509 226.813C173.725 226.442 173.787 225.37 174.509 224.957C175.21 224.565 175.87 224.916 176.509 225.205C177.046 225.452 177.664 225.679 178.139 225.205C178.572 224.792 178.489 224.153 178.51 223.617C178.593 221.533 180.614 221.946 181.996 222.462C182.367 222.606 182.532 222.008 182.161 221.863C180.944 221.389 179.253 220.935 178.283 222.132C177.994 222.482 177.912 222.895 177.891 223.328C177.871 223.617 177.994 224.256 177.829 224.524C177.376 225.205 176.757 224.586 176.283 224.38C175.375 223.988 174.076 224.091 173.519 225.04C173.044 225.844 173.333 226.937 174.179 227.329C174.55 227.515 174.859 226.978 174.509 226.813Z" fill="#837B7B"/>
<path d="M184.492 178.2C183.873 185.77 184.203 193.36 185.482 200.846C185.544 201.238 186.142 201.073 186.08 200.681C184.822 193.256 184.492 185.708 185.111 178.2C185.152 177.808 184.533 177.808 184.492 178.2Z" fill="#837B7B"/>
<path d="M184.905 178.675C188.122 179.789 191.443 180.531 194.825 180.903C198.001 181.233 201.652 181.583 204.704 180.387C205.076 180.243 204.911 179.644 204.539 179.789C201.57 180.965 197.96 180.614 194.825 180.284C191.505 179.933 188.225 179.17 185.07 178.077C184.678 177.933 184.533 178.531 184.905 178.675Z" fill="#837B7B"/>
<path d="M189.814 179.52C188.741 177.85 187.854 176.076 187.236 174.179C186.947 173.271 186.699 172.364 186.514 171.435C186.411 170.879 186.308 170.322 186.246 169.765C186.246 169.703 186.019 168.239 186.452 168.445C186.658 168.548 187.009 168.362 186.906 168.094C185.771 165.227 185.153 162.216 185.091 159.122C184.988 159.225 184.884 159.329 184.781 159.432C184.946 159.494 185.091 159.555 185.256 159.617C185.462 159.865 185.854 159.597 185.771 159.308C185.359 157.988 185.091 156.627 185.008 155.224C184.988 154.894 185.049 151.182 185.276 151.244C185.524 151.305 185.689 151.079 185.648 150.872C185.256 148.542 185.07 146.17 185.173 143.819C185.214 142.643 185.318 141.488 185.503 140.333C185.668 139.281 185.751 138.002 186.576 137.239C186.411 137.219 186.246 137.198 186.081 137.177C187.813 140.436 188.783 144.004 189.669 147.552C190.536 151.037 191.299 154.564 191.959 158.112C193.299 165.434 194.145 172.838 194.516 180.284C194.537 180.675 195.156 180.675 195.135 180.284C194.764 172.797 193.918 165.33 192.557 157.947C191.876 154.275 191.093 150.625 190.185 146.995C189.298 143.509 188.329 140.044 186.617 136.847C186.514 136.662 186.266 136.662 186.122 136.785C185.421 137.425 185.214 138.27 185.049 139.157C184.823 140.415 184.658 141.715 184.575 142.994C184.41 145.675 184.575 148.356 185.029 151.017C185.153 150.893 185.276 150.769 185.4 150.645C184.204 150.315 184.348 152.894 184.328 153.471C184.245 155.492 184.554 157.514 185.153 159.452C185.318 159.349 185.503 159.246 185.668 159.143C185.4 158.834 185.173 158.73 184.761 158.772C184.596 158.792 184.451 158.895 184.451 159.081C184.513 162.216 185.132 165.289 186.287 168.218C186.431 168.094 186.596 167.991 186.741 167.867C184.678 166.877 185.874 171.539 186.039 172.24C186.658 174.921 187.772 177.479 189.257 179.789C189.504 180.16 190.041 179.85 189.814 179.52Z" fill="#837B7B"/>
<path d="M193.092 158.916C192.907 157.596 192.866 156.255 193.031 154.935C193.072 154.605 193.856 150.728 194.247 150.893C194.454 150.996 194.701 150.872 194.722 150.625C194.846 147.985 195.671 145.633 196.64 143.2C197.609 140.786 198.558 138.456 200.167 136.373C200.022 136.373 199.878 136.373 199.734 136.373C200.909 137.713 200.765 139.755 200.827 141.426C200.909 143.303 200.971 145.18 200.992 147.056C201.033 150.748 200.971 154.44 200.806 158.132C200.455 165.681 199.61 173.209 198.331 180.655C198.269 181.046 198.867 181.211 198.929 180.82C200.27 173.065 201.115 165.206 201.466 157.328C201.631 153.368 201.672 149.408 201.59 145.448C201.549 143.468 201.507 141.488 201.363 139.508C201.28 138.208 201.074 136.93 200.167 135.919C200.064 135.795 199.837 135.795 199.734 135.919C198.146 137.981 197.156 140.25 196.207 142.663C195.155 145.262 194.268 147.778 194.124 150.625C194.289 150.542 194.433 150.439 194.598 150.356C193.34 149.8 192.927 152.481 192.762 153.203C192.309 155.141 192.267 157.101 192.556 159.06C192.536 159.473 193.134 159.308 193.092 158.916Z" fill="#837B7B"/>
<path d="M185.771 201.363C192.227 203.446 199.218 203.343 205.612 201.074C205.983 200.95 205.818 200.352 205.447 200.476C199.157 202.703 192.288 202.806 185.936 200.764C185.544 200.641 185.379 201.239 185.771 201.363Z" fill="#837B7B"/>
<path d="M204.622 180.181C204.869 183.522 205.137 186.863 205.364 190.204C205.591 193.608 205.673 197.052 205.117 200.434C205.055 200.826 205.653 200.991 205.715 200.599C206.272 197.279 206.23 193.938 206.003 190.596C205.777 187.131 205.508 183.646 205.24 180.181C205.22 179.789 204.601 179.789 204.622 180.181Z" fill="#837B7B"/>
<path d="M94.5449 206.661C98.7524 204.413 102.981 202.165 107.188 199.917C109.168 200.247 111.891 200.68 115.149 201.133C121.667 202.041 132.165 203.505 145.447 203.897C158.73 204.289 168.692 203.443 172.487 203.072C181.624 202.206 187.151 201.03 191.668 199.813C195.772 198.7 199.155 197.483 201.568 196.555C203.548 197.215 205.755 198.102 208.106 199.318C209.447 200.02 210.684 200.742 211.777 201.463C207.9 202.577 202.682 204 196.474 205.444C183.397 208.496 173.374 209.94 171.27 210.25C159.246 211.961 142.106 214.375 120.553 211.879C113.85 211.075 104.919 209.61 94.5449 206.661Z" fill="white"/>
<path d="M94.3184 206.682C94.4215 207.549 94.5452 208.394 94.6484 209.26C96.1952 209.694 98.464 210.312 101.269 210.931C106.631 212.127 112.076 212.952 119.192 213.509C145.468 215.572 166.465 213.736 166.465 213.736C176.963 212.808 187.152 211.859 200.31 208.023C205.26 206.579 209.303 205.115 212.19 203.98C211.963 203.011 211.737 202.042 211.51 201.072C210.705 201.402 209.509 201.877 208.045 202.413C198.103 206.043 189.915 207.239 182.614 208.126C166.568 210.106 158.545 211.075 146.768 211.261C133.361 211.488 115.376 210.684 94.3184 206.682Z" fill="#161616"/>
<path d="M94.1738 207.075C94.1738 207.735 94.1738 208.395 94.1738 209.055C94.1738 209.447 94.7925 209.447 94.7925 209.055C94.7925 208.395 94.7925 207.735 94.7925 207.075C94.7925 206.663 94.1738 206.663 94.1738 207.075Z" fill="#161616"/>
<path d="M94.4018 209.631C109.809 213.797 125.896 214.333 141.757 214.56C156.999 214.767 172.344 214.107 187.359 211.322C195.815 209.755 204.147 207.465 212.191 204.351C212.562 204.207 212.397 203.608 212.026 203.753C197.836 209.26 182.759 212.065 167.6 213.24C152.317 214.416 136.889 214.148 121.606 213.22C112.469 212.642 103.415 211.446 94.5668 209.053C94.1749 208.93 94.0099 209.528 94.4018 209.631Z" fill="#161616"/>
<path d="M212.191 203.919C212.314 203.053 212.355 202.166 212.273 201.3C212.232 200.908 211.613 200.908 211.654 201.3C211.716 202.125 211.716 202.95 211.592 203.754C211.53 204.125 212.129 204.311 212.191 203.919Z" fill="#161616"/>
<path d="M94.6684 207.013C98.9996 204.951 103.248 202.744 107.415 200.351C107.765 200.145 107.456 199.629 107.105 199.815C102.939 202.187 98.6902 204.414 94.359 206.477C93.9877 206.642 94.2971 207.178 94.6684 207.013Z" fill="#161616"/>
<path d="M107.251 200.062C131.857 204.744 157.432 205.61 182.244 202.062C188.844 201.114 195.403 199.649 201.508 196.927C201.879 196.762 201.549 196.226 201.198 196.391C195.712 198.824 189.855 200.247 183.935 201.176C177.913 202.124 171.828 202.702 165.744 203.094C153.39 203.877 140.973 203.671 128.66 202.496C121.524 201.815 114.45 200.784 107.416 199.464C107.025 199.402 106.86 200 107.251 200.062Z" fill="#161616"/>
<path d="M201.382 196.824C205.054 198.02 208.498 199.691 211.715 201.815C212.045 202.042 212.355 201.506 212.025 201.279C208.766 199.134 205.26 197.443 201.547 196.226C201.155 196.102 200.99 196.7 201.382 196.824Z" fill="#161616"/>
<path d="M94.7099 206.683C101.991 209.137 109.581 210.292 117.212 210.911C124.946 211.53 132.742 211.715 140.497 211.715C155.904 211.715 171.352 210.663 186.532 207.9C195.154 206.332 203.692 204.208 212.004 201.423C212.376 201.3 212.211 200.702 211.839 200.825C197.216 205.693 182.016 208.539 166.671 209.942C151.408 211.344 135.981 211.427 120.677 210.519C111.932 209.983 103.166 208.89 94.8337 206.085C94.5037 205.961 94.3387 206.559 94.7099 206.683Z" fill="#161616"/>
<path d="M106.59 88.8937C131.794 83.0569 157.74 81.7781 183.521 81.5306C190.823 81.4481 198.124 81.4687 205.425 81.4687C205.817 81.4687 205.817 80.85 205.425 80.85C179.561 80.8087 153.574 80.7881 127.896 84.3562C120.677 85.3669 113.52 86.6456 106.425 88.2956C106.033 88.3987 106.198 88.9969 106.59 88.8937Z" fill="#161616"/>
<path d="M206.705 80.9111C206.973 90.5017 207.138 101.619 207.076 113.973C207.035 121.15 206.973 117.727 206.334 147.592C205.963 164.793 205.86 171.269 204.643 181.21C203.859 187.687 202.91 193.008 202.209 196.617C207.53 198.102 212.604 199.505 217.059 200.742C223.948 202.66 225.783 203.176 228.526 203.568C232.775 204.145 237.952 204.228 243.933 203.011C246.14 184.944 247.357 169.537 248.058 157.739C250.575 116.283 248.223 97.1842 247.316 90.4811C246.078 81.4473 244.552 74.0223 243.376 68.8867C238.963 69.7323 235.374 70.6398 232.858 71.3205C224.216 73.6923 217.368 76.4767 211.635 78.828C209.51 79.7148 207.798 80.4367 206.705 80.9111Z" fill="white"/>
<path d="M64.5162 69.2578C64.3512 71.0316 64.1656 73.2178 64.0006 75.1153C60.5768 114.158 58.865 133.69 58.3081 146.251C57.7306 159.74 57.6893 179.292 60.5562 203.609C60.7831 204.104 61.1956 204.785 61.9381 205.342C62.9075 206.063 63.7943 206.043 65.5475 206.538C66.9293 206.93 67.6512 207.322 68.3112 207.569C70.2087 208.312 74.4575 209.157 79.8612 208.951C87.6162 208.642 93.5768 206.27 97.9493 204.475C102.054 202.805 105.333 201.01 107.602 199.649C106.323 188.161 105.374 176.033 104.838 163.308C103.745 136.248 104.838 111.395 107.086 89.2435C106.137 88.8722 104.756 88.3566 103.126 87.6966C100.321 86.5622 93.5975 83.8191 81.7587 78.0441C77.0768 75.7753 71.2193 72.8259 64.5162 69.2578Z" fill="white"/>
<path d="M243.252 68.8047C243.499 70.1659 243.829 72.0428 244.201 74.2909C244.716 77.4878 245.871 85.0572 246.717 94.9984C247.583 105.352 247.789 114.262 247.81 121.357C247.872 135.753 247.336 146.313 245.933 170.94C245.5 178.612 244.861 189.853 244.056 203.568C244.902 203.507 245.727 203.465 246.573 203.403C246.985 199.98 247.542 194.885 247.975 188.657C248.305 184.16 248.45 180.881 248.594 177.354C249.316 161.184 249.439 161.37 249.687 154.77C250.182 141.755 250.079 131.752 249.996 122.76C249.934 116.552 249.749 110.673 249.378 98.9172C249.109 90.9147 248.841 83.8197 247.026 74.6003C246.552 72.2491 246.098 70.2897 245.768 68.9491C244.923 68.9078 244.098 68.8666 243.252 68.8047Z" fill="#161616"/>
<path d="M61.3603 69.6289C61.2159 70.3508 60.989 71.4645 60.7622 72.8258C60.1022 76.7652 59.9372 79.7352 59.8753 80.7045C59.4215 87.717 58.514 91.1408 57.194 106.713C56.9465 109.559 56.7609 112.055 56.3897 117.066C55.6265 127.296 55.2553 132.411 54.9872 138.186C54.6984 144.642 54.6572 149.2 54.5953 158.316C54.5334 166.195 54.4922 171.888 54.6984 179.333C54.8634 185.273 55.1934 193.338 55.9978 202.949C57.6684 203.444 59.3184 203.939 60.989 204.434C60.9684 203.506 60.9065 201.835 60.7828 199.752C60.2878 190.491 59.4834 186.738 59.2978 179.024C59.2359 176.652 59.2772 175.085 59.2978 172.836C59.5247 156.708 59.2565 149.345 59.4009 138.867C59.6484 121.769 60.8034 108.404 61.7934 97.0189C62.7215 86.2527 63.7734 77.0333 64.6809 69.8145C63.5465 69.7527 62.4534 69.6908 61.3603 69.6289Z" fill="#161616"/>
<path d="M206.209 81.2627C206.972 96.4014 206.869 111.581 206.662 126.72C206.435 141.529 206.332 156.379 205.198 171.167C204.559 179.582 203.548 187.976 201.98 196.288C201.898 196.68 202.496 196.845 202.579 196.453C205.322 181.913 206.332 167.125 206.786 152.357C207.26 137.28 207.467 122.162 207.446 107.065C207.425 98.4639 207.281 89.8633 206.848 81.2627C206.807 80.8708 206.188 80.8708 206.209 81.2627Z" fill="#161616"/>
<path d="M206.973 81.2629C218.42 75.5911 230.568 71.5073 243.108 69.0942C243.5 69.0117 243.335 68.4136 242.943 68.4961C230.362 70.9298 218.152 75.0548 206.664 80.7267C206.313 80.9123 206.623 81.4486 206.973 81.2629Z" fill="#161616"/>
<path d="M242.9 68.9081C246.304 86.0475 247.335 103.558 247.314 121.007C247.273 138.456 246.242 155.863 245.396 173.291C244.901 183.336 244.406 193.359 243.911 203.404C243.89 203.796 244.509 203.796 244.53 203.404C245.417 185.625 246.345 167.846 247.149 150.047C247.933 132.598 248.428 115.108 247.252 97.68C246.592 87.9656 245.417 78.2925 243.519 68.7638C243.416 68.3513 242.818 68.5163 242.9 68.9081Z" fill="#161616"/>
<path d="M202.084 196.411C203.012 197.484 204.662 197.69 205.962 198.082C207.735 198.618 209.53 199.154 211.303 199.691C214.892 200.763 218.46 201.897 222.09 202.805C229.185 204.537 236.466 204.888 243.664 203.651C244.056 203.589 243.891 202.991 243.499 203.052C236.404 204.269 229.227 203.919 222.255 202.207C218.935 201.402 215.676 200.371 212.417 199.381C210.767 198.886 209.117 198.391 207.467 197.896C206.642 197.649 205.817 197.401 204.992 197.154C204.126 196.886 203.157 196.7 202.538 195.978C202.249 195.689 201.816 196.122 202.084 196.411Z" fill="#161616"/>
<path d="M243.314 68.9282C244.077 69.1138 244.84 69.2994 245.624 69.485C246.016 69.5882 246.181 68.99 245.789 68.8869C245.026 68.7013 244.263 68.5157 243.479 68.3301C243.087 68.2476 242.922 68.8457 243.314 68.9282Z" fill="#161616"/>
<path d="M245.582 69.2792C247.645 77.6117 248.202 86.3155 248.8 94.8749C249.418 103.62 249.748 112.385 249.893 121.172C250.14 138.6 249.542 156.028 248.552 173.436C247.995 183.294 247.294 193.153 246.572 203.012C246.552 203.404 247.17 203.404 247.191 203.012C248.49 185.481 249.666 167.949 250.223 150.377C250.78 132.846 250.738 115.273 249.625 97.7417C249.027 88.213 248.49 78.4367 246.201 69.1348C246.077 68.7223 245.479 68.8873 245.582 69.2792Z" fill="#161616"/>
<path d="M244.241 203.753C245.149 203.67 246.036 203.588 246.943 203.505C247.335 203.464 247.335 202.845 246.943 202.887C246.036 202.969 245.149 203.052 244.241 203.134C243.849 203.175 243.849 203.794 244.241 203.753Z" fill="#161616"/>
<path d="M106.57 89.0791C105.188 103.372 104.363 117.707 104.095 132.062C103.826 146.478 104.115 160.916 104.981 175.312C105.456 183.397 106.136 191.461 106.961 199.505C107.003 199.897 107.621 199.897 107.58 199.505C106.095 185.233 105.167 170.898 104.796 156.543C104.425 142.127 104.61 127.689 105.373 113.293C105.806 105.208 106.405 97.1434 107.168 89.0791C107.23 88.6872 106.611 88.6872 106.57 89.0791Z" fill="#161616"/>
<path d="M64.9081 69.7526C78.2938 77.1982 92.195 83.7157 106.467 89.2638C106.839 89.4082 107.004 88.81 106.632 88.6657C92.4013 83.1382 78.5619 76.6413 65.2175 69.2163C64.8669 69.0101 64.5575 69.5463 64.9081 69.7526Z" fill="#161616"/>
<path d="M64.2679 69.6084C61.9786 87.0571 60.3904 104.609 59.5242 122.202C58.6579 139.795 58.5342 157.409 59.1117 175.002C59.4417 184.881 59.9986 194.761 60.7823 204.62C60.8236 205.011 61.4423 205.011 61.4011 204.62C59.9986 187.068 59.3385 169.454 59.3798 151.861C59.421 134.247 60.2048 116.654 61.6898 99.1021C62.5354 89.2434 63.6079 79.4259 64.8867 69.6084C64.9279 69.2165 64.3092 69.2165 64.2679 69.6084Z" fill="#161616"/>
<path d="M60.7615 205.011C72.2497 211.26 86.0065 209.92 97.6803 204.97C101.187 203.485 104.569 201.69 107.828 199.731C108.158 199.525 107.848 198.989 107.518 199.195C96.649 205.774 83.9028 210.374 71.0534 207.981C67.5678 207.342 64.1853 206.166 61.0709 204.475C60.7409 204.289 60.4109 204.825 60.7615 205.011Z" fill="#161616"/>
<path d="M56.2027 203.3C57.6465 203.98 59.1315 204.558 60.6371 205.074C61.0084 205.197 61.1734 204.599 60.8021 204.475C59.3377 203.98 57.9146 203.424 56.5121 202.764C56.1409 202.599 55.8315 203.135 56.2027 203.3Z" fill="#161616"/>
<path d="M60.9475 69.7536C58.72 87.0373 56.8637 104.362 55.6469 121.749C54.4506 139.054 53.8731 156.399 54.2444 173.745C54.4506 183.562 54.9456 193.38 55.7913 203.156C55.8325 203.548 56.4513 203.548 56.41 203.156C54.925 185.81 54.4919 168.403 54.9044 150.995C55.2963 133.65 56.4925 116.325 58.2044 99.0411C59.1738 89.2648 60.3081 79.4886 61.5663 69.7329C61.6281 69.3617 61.0094 69.3617 60.9475 69.7536Z" fill="#161616"/>
<path d="M61.2973 70.1857C62.4935 69.9382 63.6898 69.8557 64.9273 69.9175C65.3192 69.9382 65.3192 69.3194 64.9273 69.2988C63.6485 69.2369 62.3904 69.34 61.1323 69.5875C60.7404 69.67 60.9054 70.2682 61.2973 70.1857Z" fill="#161616"/>
<path d="M214.108 82.665C214.974 106.59 214.933 130.536 213.943 154.461C213.675 161.164 213.324 167.846 212.891 174.549C212.871 174.941 213.489 174.941 213.51 174.549C215.015 150.666 215.593 126.72 215.242 102.774C215.139 96.0712 214.974 89.3681 214.727 82.665C214.706 82.2731 214.087 82.2731 214.108 82.665Z" fill="#161616"/>
<path d="M224.111 74.0849C224.936 90.7293 225.349 107.415 225.328 124.08C225.328 140.745 224.916 157.431 224.091 174.075C223.637 183.501 223.039 192.906 222.317 202.311C222.296 202.702 222.915 202.702 222.936 202.311C224.214 185.687 225.081 169.042 225.555 152.377C226.009 135.712 226.071 119.027 225.72 102.362C225.514 92.9362 225.184 83.5105 224.73 74.0849C224.709 73.693 224.091 73.693 224.111 74.0849Z" fill="#161616"/>
<path d="M236.116 70.4136C237.271 87.7179 237.973 105.064 238.158 122.43C238.344 139.858 238.055 157.265 237.271 174.673C236.838 184.429 236.24 194.184 235.477 203.919C235.456 204.311 236.075 204.311 236.096 203.919C237.416 186.615 238.282 169.269 238.633 151.924C238.983 134.516 238.86 117.088 238.241 99.6598C237.89 89.9042 237.395 80.1486 236.735 70.3929C236.715 70.0011 236.096 70.0011 236.116 70.4136Z" fill="#161616"/>
<path d="M211.984 182.282C211.509 187.686 210.643 193.048 209.385 198.328C209.302 198.72 209.88 198.885 209.983 198.493C211.262 193.152 212.128 187.748 212.602 182.282C212.644 181.89 212.025 181.89 211.984 182.282Z" fill="#161616"/>
<path d="M71.6731 73.7749C69.1981 91.0792 68.1462 108.569 67.9812 126.039C67.8369 143.611 68.5587 161.163 69.6312 178.694C70.2294 188.615 70.9306 198.515 71.6319 208.436C71.6525 208.827 72.2712 208.827 72.2506 208.436C71.0131 190.966 69.7756 173.497 69.095 156.007C68.4144 138.558 68.3112 121.068 69.3219 103.619C69.8994 93.6986 70.8481 83.778 72.2506 73.9399C72.3331 73.5686 71.735 73.383 71.6731 73.7749Z" fill="#161616"/>
<path d="M83.5313 79.5511C81.9638 96.278 80.9119 113.067 80.5613 129.876C80.2313 146.665 80.6232 163.454 82.0051 180.201C82.7682 189.503 83.8407 198.764 85.2432 207.983C85.305 208.375 85.9032 208.21 85.8413 207.818C83.3251 191.194 81.8813 174.406 81.345 157.596C80.8088 141.014 81.1182 124.39 82.0257 107.828C82.5413 98.4024 83.2632 88.9768 84.1501 79.5718C84.1913 79.1593 83.5726 79.1593 83.5313 79.5511Z" fill="#161616"/>
<path d="M95.4115 84.4801C93.3902 100.093 92.2146 115.809 91.9052 131.546C91.5958 147.283 92.1321 163.041 93.514 178.716C94.2977 187.461 95.329 196.164 96.6284 204.848C96.6902 205.239 97.2884 205.074 97.2265 204.683C94.8958 189.131 93.4108 173.477 92.7715 157.781C92.1321 142.127 92.359 126.431 93.4108 110.777C94.009 101.991 94.8752 93.2045 96.0096 84.4595C96.0921 84.0883 95.4733 84.0883 95.4115 84.4801Z" fill="#161616"/>
<path opacity="0.12" d="M231.496 71.8151C233.785 81.1582 235.642 92.1101 236.26 104.382C237.807 135.608 230.465 161.121 224.071 177.498C219.554 184.737 215.058 191.976 210.541 199.216C214.934 201.113 221.452 203.32 229.578 203.98C235.188 204.434 240.055 204.021 243.85 203.403C243.892 202.495 244.572 188.697 244.614 187.789C246.862 141.569 247.006 138.413 247.089 135.237C247.46 122.305 247.398 103.743 245.191 80.5807C244.428 76.6413 243.665 72.702 242.902 68.7832C239.127 69.7732 235.312 70.7838 231.496 71.8151Z" fill="#3F3F3F"/>
<path opacity="0.13" d="M87.5547 81.9004C87.0184 84.1485 86.214 87.5104 85.2653 91.6148C81.0578 109.93 77.964 123.398 76.314 135.794C73.3853 157.635 70.5597 178.797 82.6047 196.163C86.1109 201.216 89.9472 204.619 92.5047 206.64C90.0297 207.61 86.9565 208.497 83.3678 208.93C73.3853 210.105 65.3828 206.867 61.4641 204.928C59.9791 191.254 58.9478 176.61 58.6178 161.121C57.8753 126.842 60.6597 96.0285 64.9084 69.5254C72.4366 73.6504 79.9853 77.7754 87.5547 81.9004Z" fill="#3F3F3F"/>
<path d="M65.9177 59.7099C65.6495 59.9162 65.8558 60.7205 66.227 62.1024C66.3714 62.6387 66.5158 63.0512 66.5983 63.3193C66.4333 64.433 66.2889 65.5468 66.1239 66.6605C65.7939 66.7018 64.9483 66.8874 64.1645 67.568C63.4427 68.2074 63.1539 68.9499 63.0508 69.2799C63.7108 69.3418 64.5152 69.4862 65.3814 69.7543C66.6395 70.1462 67.6295 70.6824 68.3514 71.1362C68.3514 71.3837 68.3927 71.858 68.7227 72.2087C69.0114 72.4974 69.362 72.5387 69.5683 72.5799C70.3108 72.7037 71.1977 72.8687 72.332 73.1162C72.827 73.4049 73.652 73.8793 74.6627 74.4362C78.0864 76.2924 79.3239 76.6018 82.7477 78.4168C84.9545 79.5924 84.7689 79.6337 86.3158 80.3762C88.6877 81.5312 90.7295 82.2118 92.1114 82.6037C92.6889 81.9643 93.617 80.7268 94.1327 78.9324C94.5452 77.5093 94.5245 76.2718 94.442 75.4674C94.7927 75.653 95.3495 75.8593 95.9889 75.7768C97.6389 75.5912 98.6908 73.7143 99.0208 72.3737C99.3095 71.198 99.0414 70.4555 98.8145 69.0737C98.2989 65.9799 97.8452 63.2162 99.1239 61.463C100.196 59.9987 102.403 59.318 104.177 57.3587C104.342 57.173 104.651 56.8224 104.548 56.6574C104.363 56.348 102.919 56.8843 102.218 57.1937C101.764 57.3999 98.3608 58.9674 97.3295 62.5149C97.1645 63.0718 97.1439 64.6805 97.1233 67.8774C97.1027 70.208 97.1439 71.528 96.2158 72.2912C95.7414 72.683 95.0402 72.9099 94.4008 72.7655C93.452 72.5593 92.9983 71.6312 92.5858 71.0124C91.5133 69.383 89.987 68.7024 88.1102 67.7743C86.6458 67.0524 85.3877 66.7843 82.8508 66.2274C80.4583 65.7118 79.7364 65.7737 78.7052 65.0105C77.5502 64.1443 76.9108 62.9274 76.5808 62.2468C76.2508 61.6074 75.7352 60.5968 75.5083 59.153C75.3845 58.3074 75.4052 57.7093 75.1989 57.668C74.8277 57.5855 74.642 59.2974 73.3839 59.8955C72.6208 60.2668 72.1258 59.9162 70.7852 59.9574C69.9189 59.978 68.9289 60.1637 67.8152 60.6587C67.4439 60.3905 66.2889 59.4418 65.9177 59.7099Z" fill="black"/>
<path d="M66.5359 66.496C66.1028 63.0928 69.1966 59.9991 72.6203 60.3497C75.8584 60.6797 78.0035 64.6191 77.9003 67.5685C77.8797 67.9604 78.4985 67.9604 78.5191 67.5685C78.6222 64.3097 76.1884 60.0197 72.6203 59.731C68.8666 59.4216 65.4428 62.7422 65.9172 66.496C65.9791 66.8672 66.5978 66.8878 66.5359 66.496Z" fill="black"/>
<path d="M66.474 68.64C67.7322 71.0944 70.434 72.8269 73.2597 72.4556C75.8378 72.105 78.0241 70.0219 78.4159 67.4438C78.4778 67.0519 77.8797 66.8869 77.8178 67.2788C77.4672 69.63 75.5284 71.5275 73.1772 71.8369C70.599 72.1875 68.1653 70.5788 67.0103 68.3306C66.8247 67.98 66.2884 68.2894 66.474 68.64Z" fill="black"/>
<path d="M68.7014 71.6306C68.6395 70.8469 70.867 70.5169 71.4239 70.3932C72.4345 70.1663 73.4658 70.0425 74.4971 70.0425C76.4152 70.0425 78.2508 70.5375 79.8802 71.5481C80.2102 71.7544 80.5402 71.2181 80.1896 71.0119C78.0858 69.7125 75.6314 69.2588 73.1977 69.4857C71.9189 69.6094 70.6608 69.8775 69.4439 70.29C68.7839 70.5169 68.0002 70.8056 68.062 71.6306C68.1033 72.0225 68.7427 72.0225 68.7014 71.6306Z" fill="black"/>
<path d="M77.5702 64.496C78.8696 66.0635 80.9733 66.4347 82.8502 66.8472C85.3458 67.4247 87.9239 67.9404 90.1102 69.3222C94.627 72.1685 95.4727 78.3766 91.9045 82.3573C91.6364 82.646 92.0695 83.0998 92.3377 82.7904C95.5139 79.2635 95.5964 73.8598 92.317 70.3535C90.5845 68.4972 88.1095 67.5279 85.6964 66.8885C83.2421 66.2491 79.7152 66.146 77.9827 64.0422C77.7558 63.7535 77.3227 64.1866 77.5702 64.496Z" fill="black"/>
<path d="M92.008 75.2825C90.9767 73.9213 89.1617 73.4469 87.5736 74.1069C85.6142 74.9113 85.5111 77.3244 85.738 79.16C85.7792 79.5519 86.398 79.5519 86.3567 79.16C86.1711 77.7163 86.1505 75.4888 87.6355 74.7669C88.9142 74.1275 90.5848 74.4575 91.4511 75.6125C91.6986 75.9219 92.2348 75.6125 92.008 75.2825Z" fill="black"/>
<path d="M86.2743 78.8712C85.14 78.005 83.9643 77.2625 82.5 77.6543C82.335 77.6956 82.2525 77.8812 82.2937 78.0256C82.665 79.4693 84.9337 80.0675 86.13 80.5831C87.9656 81.3875 89.8425 82.0681 91.74 82.6662C92.1112 82.79 92.2762 82.1918 91.905 82.0681C90.3787 81.5937 88.8937 81.0781 87.4087 80.4593C86.6043 80.1293 85.8206 79.7787 85.0368 79.4075C84.3356 79.0775 83.0775 78.6856 82.8712 77.8606C82.8093 77.9843 82.7268 78.1081 82.665 78.2318C83.9437 77.8812 84.9956 78.6443 85.9443 79.3868C86.2743 79.655 86.5837 79.1187 86.2743 78.8712Z" fill="black"/>
<path d="M68.1461 71.5691C68.9505 72.8891 70.5798 73.116 72.003 73.3222C74.1067 73.6316 76.2105 73.6316 78.3142 73.4047C78.7061 73.3635 78.7061 72.7447 78.3142 72.786C76.623 72.9716 74.9317 73.0128 73.2405 72.8478C71.8173 72.7035 69.528 72.621 68.6617 71.2597C68.4761 70.9091 67.9398 71.2185 68.1461 71.5691Z" fill="black"/>
<path d="M63.3392 69.4645C63.6073 68.0208 64.8654 67.2783 66.2679 67.2164C66.1648 67.1339 66.0617 67.072 65.9792 66.9895C66.0823 67.4845 66.2267 67.9589 66.4329 68.4127C66.5773 68.7839 67.1754 68.6189 67.0311 68.2477C66.8454 67.7733 66.7011 67.3195 66.5773 66.8245C66.5567 66.7008 66.4123 66.5977 66.2886 66.5977C64.6386 66.6802 63.0711 67.5877 62.7617 69.2995C62.6792 69.6914 63.2773 69.8564 63.3392 69.4645Z" fill="black"/>
<path d="M66.9291 63.0716C66.6197 62.1848 66.3929 61.2566 66.3104 60.3079C66.3104 60.2254 66.2897 60.1429 66.2897 60.0604C66.2691 59.8748 66.2897 59.8954 66.3722 60.1223C66.5579 60.246 66.7435 60.3904 66.9291 60.5348C67.2385 60.8029 67.5272 61.0916 67.7747 61.401C68.0429 61.7104 68.476 61.2566 68.2079 60.9679C67.8572 60.5554 66.3929 58.8641 65.7741 59.5241C65.4647 59.8541 65.6916 60.6173 65.7535 60.9885C65.8566 61.7516 66.0629 62.5148 66.3104 63.2366C66.4754 63.6079 67.0735 63.4635 66.9291 63.0716Z" fill="black"/>
<path d="M73.899 60.1847C74.0847 59.8547 74.2703 59.5247 74.4766 59.1947C74.5591 59.0503 74.6416 58.9266 74.7034 58.7822C74.8272 58.5759 74.8272 58.3903 75.0747 58.4522C75.3634 58.5141 75.2603 59.1947 75.2603 59.4422C75.2603 59.8341 75.2809 60.2259 75.2809 60.6178C75.2809 61.0097 75.8997 61.0097 75.8997 60.6178C75.8997 59.9784 75.9203 59.3391 75.8791 58.6997C75.8584 58.2872 75.7141 57.8334 75.2603 57.6891C74.8478 57.5653 74.5591 57.8334 74.3528 58.1428C74.0022 58.6997 73.6928 59.2978 73.3628 59.8547C73.1565 60.2259 73.6928 60.5353 73.899 60.1847Z" fill="black"/>
<path d="M93.6587 73.6735C93.7825 75.241 95.5356 75.7566 96.7525 74.9935C98.5468 73.8797 98.9387 71.3635 98.7118 69.466C98.4025 66.8672 97.7837 64.4541 98.6706 61.876C99.5162 59.4216 101.62 57.421 104.281 57.256C104.672 57.2353 104.672 56.6166 104.281 56.6372C100.651 56.8641 98.1756 59.9578 97.66 63.3816C97.3506 65.4235 97.8043 67.321 98.0725 69.3216C98.2375 70.6416 98.155 71.8997 97.5568 73.1166C97.2887 73.6322 96.9175 74.1479 96.4225 74.4778C95.6593 74.9522 94.3393 74.8078 94.2568 73.6941C94.2568 73.2816 93.6381 73.261 93.6587 73.6735Z" fill="black"/>
<path d="M93.9872 74.7861C94.6265 76.498 96.854 75.7349 97.8234 74.7449C99.4115 73.1361 99.0609 70.4549 98.9372 68.413C98.9165 68.0212 98.2978 68.0212 98.3184 68.413C98.4009 69.7124 98.5247 71.1149 98.2978 72.4143C98.1947 73.033 97.9678 73.6105 97.5553 74.1055C97.1015 74.6624 95.1215 76.0649 94.5853 74.6211C94.4409 74.2499 93.8428 74.4149 93.9872 74.7861Z" fill="black"/>
<path d="M104.301 56.6161C101.949 57.5236 99.5775 58.8023 98.6288 61.2773C97.5357 64.1235 98.3194 67.2173 98.2575 70.1667C98.2575 70.5585 98.8763 70.5585 98.8763 70.1667C98.9382 67.5885 98.3194 64.9485 98.9382 62.391C99.6188 59.5861 101.949 58.1836 104.466 57.2142C104.837 57.0698 104.672 56.4717 104.301 56.6161Z" fill="black"/>
<path d="M103.826 56.9667C101.66 57.9567 99.6799 59.6892 98.6693 61.8961C98.133 63.0511 98.2155 64.3298 98.2155 65.5879C98.2155 67.1967 98.2774 68.8261 98.4011 70.4348C98.4218 70.8267 99.0405 70.8267 99.0199 70.4348C98.9374 69.1354 98.8755 67.8567 98.8549 66.5573C98.8343 65.1961 98.6486 63.5873 99.1643 62.3086C100.051 60.1429 102.052 58.4723 104.135 57.5029C104.506 57.3379 104.197 56.8017 103.826 56.9667Z" fill="black"/>
<path d="M67.7537 64.4328C68.3312 65.4435 69.7955 65.0929 69.9399 63.9791C69.9605 63.7728 69.6512 63.7935 69.6305 63.9791C69.5274 64.8247 68.4549 64.9897 68.0218 64.2885C67.9187 64.1028 67.6505 64.2678 67.7537 64.4328Z" fill="white"/>
<path d="M72.1248 63.6298C72.7641 64.7229 74.3935 64.2898 74.4141 63.0316C74.4141 62.8254 74.1047 62.8254 74.1047 63.0316C74.0841 64.001 72.8879 64.3104 72.3929 63.4854C72.2898 63.2998 72.0216 63.4441 72.1248 63.6298Z" fill="white"/>
<path d="M70.8884 64.9899C71.0327 65.588 70.909 66.1861 70.5377 66.6811C70.414 66.8461 70.6821 66.9905 70.8058 66.8461C71.2183 66.2892 71.3421 65.588 71.1977 64.9074C71.1359 64.7217 70.8265 64.8042 70.8884 64.9899Z" fill="white"/>
<path d="M71.0117 64.9691C70.9498 65.7529 71.383 66.4954 72.1048 66.8254C72.2905 66.9079 72.4348 66.6398 72.2698 66.5573C71.6511 66.2685 71.2592 65.6498 71.3211 64.9691C71.3211 64.7629 71.0117 64.7629 71.0117 64.9691Z" fill="white"/>
<path d="M65.9791 66.804C67.7941 66.6596 68.9491 68.1446 70.1659 69.2377C70.3103 69.3615 70.5372 69.1552 70.3928 69.0108C69.1141 67.8558 67.8766 66.3502 65.9791 66.474C65.7934 66.4946 65.7934 66.804 65.9791 66.804Z" fill="white"/>
<path d="M69.3611 70.4349C71.6918 68.9499 74.4555 68.4549 77.1574 69.0531C77.343 69.0943 77.4255 68.8056 77.2399 68.7643C74.4555 68.1662 71.6093 68.6612 69.2168 70.1874C69.0311 70.2699 69.1961 70.5381 69.3611 70.4349Z" fill="white"/>
<path d="M75.2193 73.2608C77.1374 73.3846 78.9524 72.7864 80.4168 71.5283C80.5612 71.4046 80.3549 71.1777 80.1899 71.3014C78.7874 72.4977 77.0549 73.0752 75.2193 72.9514C75.0337 72.9514 75.0337 73.2608 75.2193 73.2608Z" fill="white"/>
<path d="M74.6615 58.6165C74.2078 59.3797 74.1047 60.2665 74.3728 61.1121C74.4347 61.2978 74.7234 61.2153 74.6615 61.0296C74.414 60.2665 74.4965 59.4621 74.909 58.7815C75.0328 58.5959 74.7647 58.4309 74.6615 58.6165Z" fill="white"/>
<path d="M66.4947 60.5355C66.9897 60.8448 67.2991 61.3192 67.4229 61.8761C67.4641 62.0617 67.7529 61.9792 67.7116 61.7936C67.5672 61.1542 67.196 60.618 66.6391 60.2673C66.4741 60.1642 66.3297 60.4323 66.4947 60.5355Z" fill="white"/>
<path d="M77.4051 63.8337C77.797 64.308 78.2508 64.7205 78.7664 65.0299C78.9314 65.1331 79.0964 64.8649 78.9314 64.7618C78.4364 64.4524 77.9826 64.0605 77.632 63.6068C77.4876 63.4624 77.2814 63.6893 77.4051 63.8337Z" fill="white"/>
<path d="M90.1308 73.9613C89.6977 72.8682 87.6145 73.6107 86.9339 74.0438C85.717 74.8482 85.1808 76.3538 85.6345 77.7356C85.6964 77.9213 85.9852 77.8388 85.9233 77.6531C85.5726 76.56 85.8614 75.3844 86.7277 74.58C87.0989 74.2294 87.5939 73.9819 88.0889 73.8582C88.4395 73.755 89.6358 73.5282 89.8214 74.0232C89.9039 74.2294 90.1927 74.1469 90.1308 73.9613Z" fill="white"/>
<path d="M85.883 77.7561C84.2742 77.0755 82.5624 77.0136 80.8917 77.5292C80.7061 77.5911 80.7886 77.8798 80.9742 77.8179C82.6036 77.3023 84.233 77.3848 85.8005 78.0448C85.9861 78.1273 86.0686 77.8179 85.883 77.7561Z" fill="white"/>
<path d="M142.541 163.534C141.695 165.556 141.695 167.061 141.571 170.939C141.427 175.724 141.014 180.488 140.973 185.253C140.932 189.274 140.87 195.359 140.705 203.279C147.305 203.65 154.606 203.733 162.526 203.341C170.075 202.969 177.046 202.206 183.337 201.258C180.367 191.213 178.408 183.891 177.005 178.219C176.263 175.188 175.169 170.65 172.158 165.349C170.508 162.441 168.796 160.255 167.538 158.791C167.208 158.502 159.928 152.376 151.513 155.264C151.1 155.429 144.974 157.656 142.541 163.534Z" fill="#EC615B"/>
<path d="M154.689 175.559C156.071 178.014 157.453 180.468 158.814 182.922C159 183.273 159.536 182.964 159.35 182.613C157.968 180.159 156.586 177.704 155.225 175.25C155.039 174.899 154.503 175.209 154.689 175.559Z" fill="#C64F4F"/>
<path d="M154.523 175.435C157.699 179.395 159.535 183.912 160.525 188.862C161.453 193.544 162.051 198.287 162.402 203.052C162.422 203.444 163.041 203.444 163.02 203.052C162.649 198.164 162.03 193.276 161.082 188.47C160.092 183.499 158.153 178.962 154.977 175.002C154.729 174.672 154.275 175.126 154.523 175.435Z" fill="#C64F4F"/>
<path opacity="0.19" d="M159.494 154.789C160.216 156.233 161.247 158.357 162.402 160.915C165.764 168.381 169.25 176.26 171.106 185.953C171.869 189.872 172.591 195.544 172.282 202.619C174.014 202.536 175.85 202.392 177.768 202.185C179.686 201.979 181.522 201.732 183.254 201.443C182.718 199.628 181.852 196.74 180.882 193.172C178.18 183.19 177.809 180.075 175.499 173.496C173.787 168.608 172.199 165.287 169.91 162.111C167.847 159.244 165.909 157.45 163.454 156.192C161.928 155.408 160.505 155.016 159.494 154.789Z" fill="#3F3F3F"/>
<path opacity="0.11" d="M154.564 175.662C155.369 178.673 156.07 182.262 156.4 186.305C156.978 193.296 156.235 199.257 155.328 203.712C157.699 203.568 160.051 203.423 162.423 203.279C162.175 198.597 161.639 194.658 161.123 191.667C159.824 184.056 158.463 181.231 157.369 179.416C156.338 177.745 155.307 176.487 154.564 175.662Z" fill="#3F3F3F"/>
<path d="M128.142 128.39C127.462 128.844 127.049 129.71 126.245 131.422C125.585 132.825 125.275 133.918 124.78 135.547C123.419 140.167 123.564 139.383 123.089 141.136C122.47 143.467 121.357 147.551 120.738 152.934C120.14 158.152 120.264 162.174 120.284 163.143C120.511 169.269 121.584 173.827 122.305 176.756C123.584 182.015 125.296 186.388 128.699 195.112C129.442 196.989 130.06 198.536 130.494 199.608C130.184 199.649 129.689 199.711 129.091 199.794C125.977 200.165 125.544 200.083 124.285 200.351C122.677 200.701 121.233 201.052 120.676 202.269C120.429 202.826 120.325 203.609 120.635 203.878C121.027 204.208 121.79 203.465 123.11 203.032C124.224 202.681 125.214 202.702 125.894 202.805C125.358 203.857 125.049 204.806 124.863 205.486C124.409 207.054 124.059 208.333 124.636 209.24C124.925 209.694 125.482 210.106 125.935 209.983C126.183 209.921 126.41 209.694 127.029 208.064C127.627 206.435 127.668 205.919 128.163 205.28C128.596 204.744 129.091 204.455 129.421 204.29C129.256 204.806 129.07 205.569 128.988 206.497C128.947 207.054 128.885 207.569 128.988 208.229C129.07 208.828 129.256 210.106 130.205 210.808C130.37 210.931 131.05 211.447 131.463 211.179C131.814 210.973 131.71 210.395 131.855 208.539C131.979 206.971 132.102 206.538 132.205 206.291C132.474 205.569 132.886 205.053 133.195 204.744C133.092 206.229 133.113 207.466 133.154 208.374C133.237 209.838 133.381 210.498 133.855 210.911C134.124 211.138 134.577 211.364 134.949 211.199C135.32 211.034 135.444 210.519 135.547 209.879C136 207.466 135.732 206.765 136.248 205.548C136.454 205.074 136.681 204.496 137.238 204.084C138.414 203.218 140.084 203.733 140.311 203.795C141.301 204.104 141.672 204.641 142.167 204.414C142.58 204.228 142.807 203.63 142.827 203.135C142.848 201.918 141.507 200.99 140.352 200.227C139.775 199.835 138.909 199.319 137.754 198.907C136.743 196.906 135.464 193.998 134.412 190.306C133.711 187.831 133.381 185.934 133.072 184.139C131.979 177.849 132.37 175.436 131.154 169.186C130.865 167.681 130.576 166.484 130.411 165.804C130.494 164.773 130.638 163.164 130.844 161.204C131.525 154.811 131.979 150.81 133.36 146.107C134.454 142.415 135.567 139.383 135.567 139.383C136.97 135.609 137.424 135.093 137.259 133.876C136.681 130.04 130.679 126.699 128.142 128.39Z" fill="white"/>
<path d="M126.555 130.35C122.884 138.827 120.574 147.882 120.079 157.122C119.563 166.547 121.192 175.767 124.245 184.677C125.977 189.771 128.081 194.721 130.226 199.671C130.391 200.042 130.907 199.712 130.762 199.362C127.05 190.782 123.42 182.078 121.687 172.879C119.976 163.804 120.326 154.42 122.306 145.407C123.42 140.353 125.029 135.424 127.091 130.68C127.236 130.309 126.72 129.979 126.555 130.35Z" fill="#161616"/>
<path d="M134.249 142.127C131.65 149.985 130.289 158.215 130.145 166.485C130.145 166.877 130.763 166.877 130.763 166.485C130.908 158.256 132.269 150.109 134.847 142.292C134.971 141.921 134.373 141.756 134.249 142.127Z" fill="#161616"/>
<path d="M127.979 162.73C129.814 165.288 130.557 168.34 130.99 171.393C131.444 174.507 131.65 177.663 132.104 180.777C133.011 187.109 134.496 193.42 137.487 199.092C137.672 199.443 138.209 199.134 138.023 198.783C134.909 192.884 133.444 186.305 132.578 179.746C131.815 173.992 132.042 167.33 128.515 162.421C128.288 162.112 127.752 162.421 127.979 162.73Z" fill="#161616"/>
<path d="M130.143 199.381C128.225 199.484 126.307 199.67 124.43 200.021C123.089 200.289 121.666 200.722 120.738 201.794C120.202 202.434 119.521 203.96 120.697 204.393C121.212 204.579 121.666 204.228 122.099 203.981C123.172 203.362 124.285 202.723 125.564 203.073C125.956 203.176 126.121 202.578 125.729 202.475C124.677 202.186 123.729 202.434 122.78 202.908C122.491 203.053 122.223 203.197 121.955 203.362C121.79 203.444 121.645 203.548 121.48 203.651C121.295 203.321 121.089 202.991 120.903 202.661C120.944 202.145 121.975 201.547 122.347 201.341C123.357 200.804 124.533 200.619 125.647 200.454C127.152 200.227 128.658 200.083 130.164 200C130.555 199.979 130.555 199.361 130.143 199.381Z" fill="#161616"/>
<path d="M128.452 201.217C126.823 201.485 125.482 202.599 124.863 204.105C124.203 205.672 123.646 208.003 124.409 209.612C124.987 210.829 126.41 211.262 126.946 209.777C127.276 208.849 127.214 207.838 127.544 206.91C127.957 205.755 128.658 204.765 129.689 204.084C130.02 203.857 129.71 203.321 129.38 203.548C128.411 204.187 127.689 205.054 127.214 206.105C126.967 206.642 126.781 207.199 126.658 207.776C126.554 208.25 126.493 210.643 125.358 209.942C124.719 209.55 124.657 208.292 124.678 207.652C124.719 206.704 124.966 205.61 125.276 204.703C125.791 203.177 127.008 202.084 128.596 201.815C129.009 201.754 128.844 201.155 128.452 201.217Z" fill="#161616"/>
<path d="M130.39 202.742C129.112 203.567 128.658 205.362 128.534 206.805C128.41 208.352 128.843 210.023 129.998 211.116C130.679 211.755 131.731 212.085 131.917 210.889C132.226 208.889 131.422 206.063 133.608 204.867C133.958 204.681 133.649 204.145 133.298 204.33C132.515 204.764 132.02 205.465 131.71 206.31C131.277 207.548 131.525 208.806 131.339 210.085C131.257 210.662 131.092 211.281 130.452 210.683C130.225 210.477 130.019 210.209 129.854 209.94C129.462 209.322 129.235 208.62 129.173 207.899C129.029 206.455 129.4 204.145 130.72 203.279C131.03 203.052 130.72 202.515 130.39 202.742Z" fill="#161616"/>
<path d="M133.32 204.394C132.928 205.879 132.557 207.425 132.805 208.972C132.908 209.715 133.341 211.53 134.289 211.715C135.362 211.922 135.795 210.024 135.898 209.323C136.125 207.797 135.836 205.961 137.033 204.785C137.321 204.497 136.888 204.064 136.599 204.352C135.156 205.775 135.651 207.838 135.218 209.653C135.073 210.313 134.661 211.303 133.98 210.54C133.609 210.148 133.506 209.385 133.423 208.869C133.217 207.425 133.568 205.982 133.939 204.579C134.021 204.187 133.423 204.022 133.32 204.394Z" fill="#161616"/>
<path d="M137.775 199.444C138.992 199.939 140.25 200.475 141.199 201.424C141.632 201.857 142.168 202.517 142.292 203.136C142.601 204.848 141.322 203.755 140.848 203.548C139.549 202.971 136.97 203.383 136.228 204.703C136.042 205.054 136.579 205.363 136.764 205.013C137.156 204.291 138.229 204.105 138.971 204.002C139.425 203.94 139.94 203.899 140.374 204.023C140.869 204.167 141.178 204.6 141.652 204.745C142.333 204.951 142.849 204.477 142.952 203.817C143.137 202.744 142.209 201.548 141.487 200.847C140.477 199.877 139.177 199.341 137.899 198.825C137.569 198.702 137.424 199.3 137.775 199.444Z" fill="#161616"/>
<path opacity="0.13" d="M133.609 135.466C131.237 135.61 129.814 141.674 129.03 145.036C128.143 148.81 127.339 154.007 127.504 161.577C127.648 168.342 128.515 173.498 128.803 175.292C130.103 183.006 132.145 189.482 134.145 194.556C134.805 196.412 135.445 198.269 136.105 200.104C135.733 201.631 135.362 203.198 135.012 204.827C134.558 206.972 134.145 209.076 133.815 211.097C134.207 211.139 134.743 211.118 135.115 210.747C135.589 210.272 135.527 209.509 135.548 208.849C135.568 208.231 135.63 205.24 136.971 204.126C137.796 203.446 139.116 203.446 140.023 203.776C140.952 204.126 141.364 204.807 141.983 204.601C142.457 204.456 142.787 203.879 142.849 203.425C143.055 201.919 140.168 200.372 139.693 200.125C138.765 199.63 138.332 199.568 137.734 198.949C136.992 198.166 136.744 197.237 136.641 196.825C134.929 190.307 134.083 190.72 132.928 183.233C132.062 177.582 132.619 177.912 131.732 173.416C131.113 170.239 130.598 168.94 130.433 166.197C130.247 163.186 130.598 160.834 130.969 158.751C132.516 150.233 135.486 139.921 136.208 137.466C135.548 136.435 134.64 135.404 133.609 135.466Z" fill="#3F3F3F"/>
<path d="M175.703 50.6756C175.064 50.655 174.569 51.81 174.445 52.1193C174.26 52.5731 173.971 53.46 174.177 54.7181C174.177 54.7181 174.301 55.5843 174.713 60.8231C174.816 61.9987 174.837 63.7106 174.528 65.8556C173.703 68.1243 172.919 69.8981 172.383 71.0531C170.568 74.9306 169.351 76.4774 166.814 81.3862C165.865 83.2218 165.783 83.5106 164.669 85.7793C161.885 91.4099 159.843 94.9368 157.76 98.7112C155.924 102.011 153.346 106.858 150.314 113.087C150.17 113.623 149.448 116.49 151.118 119.006C152.892 121.667 156.605 122.863 160.193 121.708C160.75 120.924 161.534 119.707 162.256 118.119C162.957 116.572 163.287 115.376 163.514 114.613C163.741 113.85 164.648 111.272 166.484 106.074C167.061 104.466 167.763 102.547 169.186 98.7937C171.351 93.0393 172.424 90.1724 173.146 88.3781C174.775 84.2943 176.013 81.4687 178.446 75.9824C179.725 73.0949 181.293 69.6093 183.108 65.6493C184.16 65.0512 185.603 64.1231 187.15 62.7824C189.378 60.8643 190.491 59.235 192.636 56.1412C194.018 54.12 195.07 52.3462 194.781 50.5725C194.74 50.325 194.637 49.6031 194.245 49.5C193.75 49.3556 193.131 50.3456 192.451 51.2118C191.75 52.0987 190.698 53.2537 189.13 54.45C189.666 52.965 190.203 51.81 190.574 51.0468C191.42 49.3143 192.121 48.2006 192.554 46.2825C193.028 44.2406 192.595 43.8693 192.471 43.7662C191.915 43.3537 190.966 44.1375 190.409 43.6837C189.914 43.2506 190.347 42.3018 189.955 42.075C189.563 41.8481 188.697 42.5287 188.078 43.2506C187.006 44.4881 186.758 45.6843 186.366 46.8393C185.995 47.9737 185.315 49.5206 184.036 51.2325C183.726 51.2737 183.314 51.2943 183.128 51.0468C182.922 50.7581 183.211 50.2837 183.479 49.5206C183.541 49.335 183.5 49.4381 183.933 47.5406C184.098 46.8187 184.407 45.4781 184.655 44.4056C185.005 42.8587 185.17 42.2193 184.84 41.5387C184.778 41.3943 184.51 40.8375 184.118 40.8168C183.665 40.7962 183.314 41.5181 183.046 42.075C181.953 44.3231 181.396 45.4575 181.251 45.8493C180.53 47.8087 179.56 50.7993 179.416 51.8306C179.395 51.9543 179.354 52.3875 179.148 52.9443C179.045 53.2125 178.983 53.3156 178.921 53.4806C178.405 54.6356 178.838 55.3987 178.302 55.8112C178.24 55.8525 177.931 56.0793 177.683 55.9968C177.415 55.9143 177.291 55.5637 177.147 54.3881C176.941 52.7793 177.065 52.305 176.693 51.6037C176.446 51.2943 176.136 50.6962 175.703 50.6756Z" fill="white"/>
<path d="M174.715 60.2239C174.859 58.7183 174.632 57.2539 174.55 55.7483C174.508 55.0264 174.508 54.2839 174.611 53.562C174.673 53.1495 174.756 52.737 174.88 52.3451C175.086 51.747 175.106 51.252 175.766 51.2314C176.385 51.2108 176.344 51.582 176.447 52.0976C176.55 52.5514 176.571 53.0258 176.591 53.4795C176.633 54.1189 176.653 54.7789 176.798 55.3976C176.942 56.037 177.334 56.5733 178.056 56.3464C178.427 56.2226 178.283 55.6245 177.891 55.7483C177.169 55.9545 177.231 53.5208 177.19 53.1083C177.128 52.4483 177.066 51.7676 176.818 51.1489C176.468 50.2826 175.663 49.8495 174.983 50.6539C174.096 51.6851 173.91 53.5414 173.91 54.8201C173.91 56.6351 174.261 58.4089 174.096 60.2239C174.075 60.6158 174.694 60.6158 174.715 60.2239Z" fill="#161616"/>
<path d="M178.303 56.0994C179.335 54.0988 179.644 51.83 180.242 49.685C180.881 47.375 181.686 45.1063 182.882 43.0438C183.15 42.59 183.418 41.9507 183.81 41.6C184.573 40.8988 184.573 42.2394 184.511 42.8169C184.388 44.0957 184.058 45.395 183.769 46.6532C183.501 47.8082 183.13 48.9219 182.861 50.0769C182.717 50.7163 182.717 51.2732 183.171 51.7682C183.439 52.0569 183.872 51.6238 183.604 51.335C183.088 50.7782 183.625 49.6644 183.79 49.0663C183.975 48.3857 184.161 47.705 184.305 47.0244C184.594 45.7663 184.883 44.4875 185.068 43.1882C185.171 42.5075 185.316 41.3113 184.718 40.7957C184.202 40.3625 183.686 40.775 183.336 41.1875C181.83 43.0644 180.902 45.5394 180.16 47.8082C179.314 50.4275 179.046 53.3563 177.767 55.8107C177.581 56.1407 178.118 56.45 178.303 56.0994Z" fill="#161616"/>
<path d="M183.315 51.83C183.934 51.8919 184.16 51.4382 184.449 50.9432C184.903 50.1594 185.315 49.3344 185.707 48.53C186.47 46.9625 187.007 45.2507 187.935 43.7863C188.141 43.4563 188.389 43.0438 188.719 42.7963C188.987 42.4869 189.337 42.3838 189.791 42.5282C189.853 42.8169 189.894 43.1057 189.894 43.3944C189.915 44.405 189.585 45.4157 189.234 46.3644C188.533 48.2413 187.749 50.0975 186.986 51.9744C186.842 52.3457 187.44 52.5107 187.584 52.1394C188.017 51.0669 192.472 41.6619 189.564 41.6C188.987 41.5794 188.327 42.3013 187.997 42.6932C187.419 43.3738 187.007 44.1575 186.635 44.9619C186.202 45.9313 185.81 46.9007 185.357 47.8494C185.089 48.4269 184.779 49.025 184.49 49.5819C184.305 49.9532 183.851 51.2319 183.335 51.1907C182.923 51.17 182.923 51.7888 183.315 51.83Z" fill="#161616"/>
<path d="M190.616 44.2404C190.843 43.0442 192.143 43.8692 192.308 44.6323C192.452 45.2717 192.204 45.911 191.998 46.5092C191.689 47.4167 191.338 48.3035 190.967 49.1698C190.245 50.861 189.399 52.4698 188.451 54.0579C188.244 54.4085 188.781 54.7179 188.987 54.3673C189.874 52.9029 190.658 51.3767 191.359 49.8298C191.957 48.4892 192.679 47.0042 192.906 45.5398C193.05 44.6117 192.782 43.4154 191.751 43.0854C190.988 42.8379 190.163 43.3123 190.018 44.096C189.956 44.4673 190.554 44.6323 190.616 44.2404Z" fill="#161616"/>
<path d="M189.42 54.6139C190.204 53.727 190.967 52.8401 191.751 51.9532C192.163 51.4789 192.535 50.9632 192.988 50.5507C193.133 50.427 193.277 50.3239 193.401 50.2001C193.751 50.3239 194.102 50.4476 194.473 50.5714C194.576 50.757 194.329 51.2932 194.267 51.4582C193.628 53.4176 192.7 55.2739 191.606 57.0063C189.4 60.492 186.368 63.4207 182.82 65.5451C182.469 65.7513 182.799 66.2876 183.129 66.0813C187.543 63.4413 191.173 59.5638 193.463 54.9645C194.02 53.8507 194.556 52.6751 194.906 51.4789C195.113 50.7776 195.236 49.8289 194.432 49.4576C193.648 49.0864 192.823 49.8082 192.328 50.3239C191.153 51.5407 190.08 52.902 188.966 54.1807C188.719 54.4695 189.152 54.9026 189.42 54.6139Z" fill="#161616"/>
<path d="M174.178 59.5849C174.322 61.4824 174.466 63.4212 174.157 65.3187C173.848 67.1956 173.064 68.928 172.198 70.6193C170.444 74.043 168.609 77.4255 166.814 80.8287C163.226 87.6349 159.637 94.4205 156.048 101.227C153.986 105.125 151.923 109.044 149.861 112.942C149.675 113.292 150.211 113.602 150.397 113.251C157.801 99.2055 165.35 85.2218 172.631 71.0937C173.497 69.423 174.301 67.7112 174.652 65.8755C175.064 63.7924 174.92 61.6887 174.755 59.5849C174.776 59.193 174.157 59.193 174.178 59.5849Z" fill="#161616"/>
<path d="M182.778 65.4023C176.178 79.3448 170.424 93.6173 165.35 108.178C163.865 112.407 162.38 116.635 160.586 120.739C160.421 121.11 160.957 121.42 161.122 121.048C164.195 114.057 166.443 106.735 169.083 99.5985C171.785 92.256 174.714 84.9754 177.828 77.7979C179.602 73.7348 181.417 69.7129 183.315 65.7117C183.48 65.361 182.943 65.0517 182.778 65.4023Z" fill="#161616"/>
<path opacity="0.1" d="M192.101 43.9935C191.256 43.8697 190.121 47.3347 189.461 49.0672C187.461 54.3885 185.769 55.0072 181.479 62.226C179.891 64.8866 177.705 68.8878 175.498 74.106C168.898 88.0072 162.319 101.929 155.719 115.83C157.328 117.79 158.916 119.77 160.524 121.729C161.329 119.44 162.504 116.078 163.969 112.015C166.629 104.693 170.074 95.2672 174.941 83.7997C176.88 79.2622 179.561 73.1366 183.006 65.9385C183.954 65.3403 185.274 64.4122 186.718 63.1335C188.657 61.4422 191.214 59.1528 192.968 55.4197C193.524 54.2647 194.226 52.491 194.597 50.1603C194.329 50.0366 193.937 49.8922 193.504 49.9747C192.761 50.1191 192.369 50.841 192.06 51.336C190.864 53.1716 189.111 54.3885 188.884 54.2441C188.76 54.141 189.111 53.5428 190.059 51.6041C191.998 47.6235 191.194 48.6753 191.957 47.3347C192.39 46.5716 192.823 45.9116 192.679 45.066C192.679 44.6947 192.452 44.0553 192.101 43.9935Z" fill="#3F3F3F"/>
<path opacity="0.13" d="M190.843 58.0586C189.812 58.7186 188.348 59.688 186.677 60.9667C184.759 62.4105 182.696 63.978 180.964 65.958C178.613 68.6392 177.581 71.2998 176.963 72.8467C171.291 87.3255 164.546 103.042 162.628 107.414C161.576 109.807 159.926 113.416 157.74 117.747C158.73 119.047 159.741 120.346 160.731 121.645C163.577 112.962 166.856 103.867 170.61 94.4411C174.653 84.3142 178.84 74.8473 183.047 66.0405C184.181 65.2773 185.46 64.308 186.76 63.0498C188.595 61.2967 189.915 59.523 190.843 58.0586Z" fill="#3F3F3F"/>
<path d="M136.001 117.768C135.238 118.284 133.526 119.48 131.773 121.419C129.958 123.419 128.906 125.296 128.04 126.884C127.359 128.101 126.864 129.174 126.514 129.957C127.05 130.989 127.916 132.577 129.112 134.474C131.237 137.836 132.887 139.651 135.733 143.302C136.929 144.828 138.662 147.117 140.724 150.005C141.054 151.552 141.343 153.181 141.591 154.893C142.086 158.399 142.271 161.658 142.271 164.587C143.034 165.412 144.354 166.608 146.293 167.454C149.511 168.877 152.439 168.464 153.966 168.217C157.348 167.701 159.658 166.195 161.246 165.144C164.134 163.246 166.093 160.977 167.392 159.1C167.124 155.883 166.774 152.562 166.341 149.118C165.969 146.189 165.557 143.343 165.103 140.579C165.062 138.414 164.856 135.464 164.154 132.04C163.577 129.174 162.876 125.832 160.792 121.872C158.194 116.943 154.956 113.952 153.697 112.859C152.584 111.89 151.573 111.168 150.831 110.652C147.819 112.57 145.221 113.767 143.447 114.489C140.147 115.85 138.6 116.056 136.001 117.768Z" fill="white"/>
<path d="M126.843 130.039C127.483 127.605 129.256 125.336 130.783 123.356C132.391 121.294 134.206 119.417 136.372 117.911C136.702 117.685 136.393 117.148 136.063 117.375C133.835 118.922 131.958 120.84 130.308 122.965C128.72 125.006 126.926 127.316 126.266 129.853C126.163 130.266 126.761 130.41 126.843 130.039Z" fill="#161616"/>
<path d="M126.39 130.245C130.639 137.67 135.671 144.641 141.385 151.014C141.653 151.303 142.086 150.87 141.818 150.581C136.146 144.249 131.155 137.319 126.926 129.935C126.72 129.585 126.184 129.894 126.39 130.245Z" fill="#161616"/>
<path d="M143.839 114.777C146.149 113.148 148.686 111.931 151.388 111.147C151.78 111.044 151.615 110.446 151.223 110.549C148.459 111.353 145.881 112.591 143.53 114.241C143.2 114.468 143.509 115.004 143.839 114.777Z" fill="#161616"/>
<path d="M150.872 111.312C160.731 118.18 164.959 130.225 164.485 141.878C164.464 142.27 165.083 142.27 165.104 141.878C165.599 129.977 161.226 117.767 151.182 110.776C150.872 110.549 150.563 111.085 150.872 111.312Z" fill="#161616"/>
<path d="M140.044 149.798C141.116 152.005 141.24 154.748 141.467 157.141C141.714 159.574 141.797 162.029 141.797 164.483C141.797 164.875 142.416 164.875 142.416 164.483C142.436 161.761 142.313 159.038 142.003 156.336C141.756 154.047 141.591 151.572 140.58 149.468C140.394 149.117 139.879 149.427 140.044 149.798Z" fill="#161616"/>
<path d="M142.189 164.607C145.283 168.402 150.563 169.474 155.162 168.298C157.72 167.638 160.092 166.38 162.216 164.813C164.341 163.245 166.362 161.43 167.558 159.038C167.744 158.687 167.207 158.378 167.022 158.728C165.867 161.018 163.928 162.771 161.886 164.277C159.906 165.741 157.699 166.937 155.307 167.618C150.811 168.876 145.634 167.907 142.602 164.173C142.375 163.864 141.942 164.297 142.189 164.607Z" fill="#161616"/>
<path d="M164.712 140.95C165.722 146.993 166.712 153.036 167.063 159.141C167.083 159.533 167.702 159.533 167.681 159.141C167.31 152.974 166.32 146.869 165.31 140.785C165.248 140.393 164.65 140.558 164.712 140.95Z" fill="#161616"/>
<path opacity="0.13" d="M144.623 113.952C146.912 116.654 150.047 120.861 152.667 126.554C156.503 134.886 157.266 142.084 157.844 148.21C158.297 152.871 158.545 159.368 157.637 167.123C159.391 166.36 161.866 165.04 164.258 162.75C165.578 161.472 166.568 160.193 167.311 159.079C166.63 153.325 165.949 147.55 165.269 141.795C165.392 137.052 164.65 133.215 163.949 130.617C161.783 122.573 157.617 117.396 156.214 115.767C154.296 113.519 152.419 111.869 151.037 110.775C148.892 111.848 146.768 112.9 144.623 113.952Z" fill="#3F3F3F"/>
<path opacity="0.14" d="M159.987 121.171C159.616 121.274 160.482 124.636 161.307 129.606C161.307 129.606 162.565 137.155 162.833 144.456C163.019 149.282 162.771 156.336 160.606 165.102C161.596 164.607 162.813 163.885 164.071 162.874C165.597 161.637 166.69 160.337 167.432 159.306C167.164 150.994 166.463 146.684 165.803 144.25C165.679 143.776 165.349 142.662 165.081 141.094C164.586 138.166 164.834 136.907 164.566 134.474C164.359 132.535 163.968 131.256 163.246 128.884C162.153 125.316 160.399 121.047 159.987 121.171Z" fill="#3F3F3F"/>
<path d="M135.712 83.8391C134.351 84.6022 132.619 85.7572 130.948 87.5103C127.483 91.2022 126.369 95.3272 125.977 97.3691C125.668 97.3278 124.822 97.2659 124.142 97.8022C123.131 98.5859 123.111 100.133 123.502 101.04C123.647 101.37 123.853 101.638 124.286 102.175C124.802 102.814 125.132 103.206 125.668 103.433C125.895 103.536 126.411 103.68 127.153 103.515C127.38 104.196 127.751 105.145 128.308 106.238C129.03 107.64 130.123 109.723 132.309 111.538C132.949 112.075 133.939 112.776 135.279 113.415C135.774 114.055 136.682 115.395 136.785 117.21C136.991 120.407 134.661 123.068 132.454 124.243C128.617 126.285 124.451 124.243 122.925 123.48C122.1 123.068 117.954 120.923 116.222 116.22C114.118 110.548 116.861 104.877 118.491 101.494C120.141 98.0909 120.904 98.3178 122.162 94.9972C123.832 90.6041 122.946 89.0572 124.864 85.6953C125.606 84.3753 127.112 81.7353 130.267 80.4978C132.969 79.4459 135.465 79.9822 136.537 80.2916C137.424 79.7553 138.992 78.9922 140.972 78.9922C145.674 78.9922 148.686 83.4472 149.407 84.5197C151.552 87.6753 150.418 88.6447 152.336 93.0791C154.749 98.6684 157.1 98.3384 159.266 103.577C160.318 106.135 162.071 110.363 160.132 114.405C158.132 118.572 153.574 119.788 152.996 119.933C151.944 120.201 149.119 120.902 146.293 119.397C146.025 119.252 142.477 117.313 142.189 113.993C142.086 112.776 142.436 111.642 142.519 111.394C142.952 110.053 143.694 109.187 143.921 108.898C144.808 107.805 145.881 105.784 146.623 101.762C146.974 101.742 147.551 101.659 148.129 101.329C149.346 100.628 149.923 99.2047 149.861 97.9672C149.84 97.6784 149.758 96.0284 148.562 95.4716C148.067 95.2447 147.551 95.3066 147.262 95.3684C143.426 91.4909 139.569 87.6753 135.712 83.8391Z" fill="#11345C"/>
<path d="M135.713 83.8184C133.424 85.159 131.836 86.644 130.825 87.7371C127.463 91.3877 126.391 95.2034 126.164 96.0902C126.02 96.6471 125.916 97.1009 125.875 97.4309C125.648 97.3484 125.133 97.204 124.617 97.4309C123.833 97.7815 123.668 98.7302 123.586 99.2046C123.38 100.298 123.792 101.164 123.957 101.494C124.184 101.968 124.555 102.731 125.442 103.123C126.164 103.453 126.845 103.33 127.133 103.268C127.422 104.01 127.835 105.041 128.474 106.217C129.443 108.073 130.351 109.785 132.104 111.311C132.785 111.91 133.898 112.735 135.507 113.374C135.837 113.89 136.291 114.694 136.538 115.746C136.745 116.571 136.786 117.272 136.765 117.808C137.301 118.076 138.312 118.489 139.57 118.468C141.983 118.427 143.571 116.921 143.943 116.55C143.551 115.375 143.2 113.931 143.056 112.26C142.994 111.497 142.973 110.775 142.973 110.115C143.613 109.435 144.396 108.465 145.036 107.166C146.17 104.918 146.356 102.835 146.376 101.618C146.665 101.659 147.243 101.721 147.861 101.473C148.728 101.123 149.12 100.36 149.346 99.9265C149.408 99.8234 150.275 98.0496 149.491 96.2965C149.305 95.9046 148.996 95.1827 148.377 95.1209C147.923 95.0796 147.552 95.4302 147.408 95.5746C146.562 94.564 144.974 92.6871 142.746 90.109C140.828 87.8609 139.611 86.4584 137.57 85.0146C136.827 84.4784 136.167 84.0865 135.713 83.8184Z" fill="white"/>
<path d="M132.866 105.702C132.66 106.177 133.629 107.022 134.083 107.373C135.032 108.074 136.043 108.177 136.414 108.198C136.847 108.239 138.27 108.342 139.569 107.414C139.879 107.187 140.745 106.589 141.075 105.476C141.302 104.671 141.24 103.557 140.807 103.372C140.477 103.248 140.168 103.661 139.466 104.156C138.229 105.001 136.95 105.207 135.857 105.372C134.001 105.661 133.073 105.29 132.866 105.702Z" fill="black"/>
<path d="M126.328 100.938C127.071 104.032 128.267 107.063 130.247 109.58C132 111.828 134.599 113.993 137.631 113.705C140.436 113.437 142.725 111.25 144.21 109.023C145.963 106.424 146.809 103.31 146.726 100.175C146.706 99.7829 146.087 99.7829 146.108 100.175C146.19 103.042 145.448 105.847 143.942 108.28C142.519 110.57 140.168 112.983 137.301 113.107C134.269 113.23 131.773 110.755 130.165 108.445C128.556 106.135 127.566 103.475 126.906 100.752C126.823 100.381 126.225 100.546 126.328 100.938Z" fill="#161616"/>
<path d="M135.093 113.415C135.96 114.735 136.393 116.179 136.393 117.767C136.393 118.159 137.011 118.159 137.011 117.767C137.011 116.096 136.537 114.508 135.63 113.105C135.423 112.755 134.887 113.064 135.093 113.415Z" fill="#161616"/>
<path d="M136.682 118.015C139.198 119.459 142.457 118.757 144.168 116.447C144.416 116.138 143.88 115.829 143.632 116.138C142.106 118.18 139.177 118.757 136.991 117.479C136.64 117.293 136.331 117.829 136.682 118.015Z" fill="#161616"/>
<path d="M142.621 110.651C142.642 112.528 142.93 114.384 143.529 116.179C143.652 116.55 144.25 116.385 144.127 116.014C143.57 114.261 143.26 112.487 143.24 110.651C143.24 110.239 142.621 110.239 142.621 110.651Z" fill="#161616"/>
<path d="M126.948 102.896C126.68 103.185 126.02 103.082 125.71 102.917C125.463 102.793 125.236 102.607 125.05 102.422C124.638 102.03 124.308 101.556 124.101 101.04C123.689 100.071 123.503 97.2861 125.339 97.7811C125.731 97.8843 125.896 97.2861 125.504 97.183C123.235 96.5849 122.885 99.5961 123.462 101.102C123.916 102.319 125.999 104.835 127.401 103.329C127.649 103.041 127.216 102.607 126.948 102.896Z" fill="#161616"/>
<path d="M147.675 95.6786C147.922 94.8536 148.995 96.4417 149.119 96.7305C149.366 97.3905 149.449 98.1123 149.346 98.8136C149.181 100.216 148.067 101.557 146.52 101.165C146.128 101.062 145.963 101.66 146.355 101.763C148.851 102.402 150.191 99.8036 149.964 97.6792C149.861 96.7511 149.49 95.5548 148.603 95.0598C148.026 94.7505 147.283 94.833 147.077 95.493C146.953 95.9055 147.551 96.0498 147.675 95.6786Z" fill="#161616"/>
<path d="M129.155 91.3054C129.835 90.0061 131.032 89.1604 132.475 88.9542C132.867 88.8923 132.702 88.2942 132.31 88.356C130.722 88.5829 129.361 89.5729 128.619 90.9961C128.433 91.3467 128.969 91.6561 129.155 91.3054Z" fill="#161616"/>
<path d="M138.682 88.1295C140.415 87.717 142.147 88.5832 142.931 90.1507C143.116 90.5013 143.632 90.192 143.467 89.8414C142.56 88.0057 140.497 87.057 138.517 87.5314C138.125 87.6345 138.29 88.2326 138.682 88.1295Z" fill="#161616"/>
<path d="M134.186 90.6659C134.578 92.8522 134.681 95.1003 134.454 97.3278C134.372 98.0084 134.042 98.9778 134.351 99.6584C134.681 100.401 135.568 101.04 136.125 101.618C136.393 101.907 136.847 101.473 136.558 101.185C136.187 100.793 135.816 100.422 135.444 100.03C134.867 99.4316 134.805 99.2459 134.929 98.3797C135.032 97.5959 135.135 96.7916 135.176 95.9872C135.259 94.1516 135.114 92.3159 134.784 90.5216C134.722 90.1091 134.124 90.2741 134.186 90.6659Z" fill="#161616"/>
<path d="M131.587 95.9661C131.278 95.4711 131.133 94.9349 131.175 94.3574C131.175 94.2336 131.257 93.6974 131.36 93.6768C131.422 93.6768 131.525 94.3986 131.546 94.4811C131.587 94.7492 131.608 95.038 131.608 95.3061C131.608 95.3886 131.587 96.0692 131.587 95.6567C131.566 95.0586 131.608 94.4605 131.628 93.8624C131.422 93.883 131.216 93.9242 131.03 93.9449C131.133 94.5842 131.195 95.2236 131.195 95.8836C131.401 95.8836 131.608 95.8836 131.814 95.8836C131.814 95.8011 131.814 95.7186 131.814 95.6361C131.814 95.2442 131.195 95.2442 131.195 95.6361C131.195 95.7186 131.195 95.8011 131.195 95.8836C131.195 96.2755 131.814 96.2755 131.814 95.8836C131.814 95.1824 131.752 94.4811 131.628 93.7799C131.566 93.4293 131.03 93.5324 131.03 93.8624C131.01 94.5224 130.927 95.2442 131.01 95.9042C131.051 96.2136 131.195 96.5023 131.546 96.5642C132.577 96.7705 132.268 94.7492 132.185 94.2542C132.123 93.8624 132.061 93.2643 131.69 93.0374C131.381 92.8518 131.051 93.0374 130.865 93.3261C130.35 94.1924 130.638 95.4711 131.113 96.2548C131.257 96.6055 131.793 96.2961 131.587 95.9661Z" fill="#161616"/>
<path d="M141.116 94.8724C140.807 94.3774 140.663 93.8411 140.704 93.2636C140.704 93.1399 140.786 92.6036 140.889 92.583C140.951 92.583 141.054 93.3049 141.075 93.3874C141.116 93.6555 141.137 93.9443 141.137 94.2124C141.137 94.2949 141.116 94.9755 141.116 94.563C141.096 93.9649 141.137 93.3668 141.158 92.7686C140.951 92.7893 140.745 92.8305 140.559 92.8511C140.663 93.4905 140.724 94.1299 140.724 94.7899C140.931 94.7899 141.137 94.7899 141.343 94.7899C141.343 94.7074 141.343 94.6249 141.343 94.5424C141.343 94.1505 140.724 94.1505 140.724 94.5424C140.724 94.6249 140.724 94.7074 140.724 94.7899C140.724 95.1818 141.343 95.1818 141.343 94.7899C141.343 94.0886 141.281 93.3874 141.158 92.6861C141.096 92.3355 140.559 92.4386 140.559 92.7686C140.539 93.4286 140.456 94.1505 140.539 94.8105C140.58 95.1199 140.724 95.4086 141.075 95.4705C142.106 95.6768 141.797 93.6555 141.714 93.1605C141.653 92.7686 141.591 92.1705 141.219 91.9436C140.91 91.758 140.58 91.9436 140.394 92.2324C139.879 93.0986 140.168 94.3774 140.642 95.1611C140.786 95.5324 141.323 95.223 141.116 94.8724Z" fill="#161616"/>
<path d="M128.536 97.8648C128.928 97.8648 128.928 97.2461 128.536 97.2461C128.144 97.2461 128.144 97.8648 128.536 97.8648Z" fill="#161616"/>
<path d="M130.97 98.3179C130.99 98.3179 131.011 98.3179 131.052 98.3179C131.217 98.3179 131.361 98.1736 131.361 98.0086C131.361 97.8436 131.217 97.6992 131.052 97.6992C131.031 97.6992 131.011 97.6992 130.97 97.6992C130.805 97.6992 130.66 97.8436 130.66 98.0086C130.66 98.1736 130.784 98.3179 130.97 98.3179Z" fill="#161616"/>
<path d="M129.524 100.216C129.916 100.216 129.916 99.5977 129.524 99.5977C129.132 99.5977 129.112 100.216 129.524 100.216Z" fill="#161616"/>
<path d="M141.241 97.5543C141.262 97.5543 141.282 97.5543 141.324 97.5543C141.489 97.5543 141.633 97.4099 141.633 97.2449C141.633 97.0799 141.489 96.9355 141.324 96.9355C141.303 96.9355 141.282 96.9355 141.241 96.9355C141.076 96.9355 140.932 97.0799 140.932 97.2449C140.932 97.4099 141.055 97.5543 141.241 97.5543Z" fill="#161616"/>
<path d="M143.509 96.0289C143.901 96.0289 143.901 95.4102 143.509 95.4102C143.117 95.4102 143.117 96.0289 143.509 96.0289Z" fill="#161616"/>
<path d="M143.2 97.6989C143.221 97.6989 143.241 97.6989 143.283 97.6989C143.448 97.6989 143.592 97.5545 143.592 97.3895C143.592 97.2245 143.448 97.0801 143.283 97.0801C143.262 97.0801 143.241 97.0801 143.2 97.0801C143.035 97.0801 142.891 97.2245 142.891 97.3895C142.911 97.5545 143.035 97.6989 143.2 97.6989Z" fill="#161616"/>
<path d="M133.382 106.176C133.052 105.702 132.516 105.021 132.743 104.403C133.011 103.701 133.856 103.804 134.413 103.887C135.094 103.99 135.651 104.114 136.311 103.908C136.847 103.743 137.321 103.392 137.816 103.124C138.992 102.464 140.374 102.402 140.745 103.949C141.797 108.177 134.331 109.373 133.176 105.661C133.052 105.289 132.454 105.434 132.578 105.826C134.001 110.384 142.828 108.693 141.281 103.639C141.013 102.794 140.374 102.072 139.466 101.969C137.981 101.824 137.012 103.309 135.589 103.413C134.537 103.495 133.258 102.691 132.413 103.681C131.649 104.568 132.268 105.702 132.825 106.486C133.073 106.816 133.609 106.506 133.382 106.176Z" fill="#161616"/>
<path d="M132.186 105.001C132.64 106.259 134.909 105.867 135.899 105.723C137.796 105.434 139.529 104.609 140.993 103.392C141.303 103.145 140.869 102.691 140.56 102.959C139.488 103.867 138.25 104.526 136.889 104.898C136.291 105.063 133.135 105.764 132.805 104.856C132.64 104.465 132.042 104.63 132.186 105.001Z" fill="#161616"/>
<path d="M135.857 114.054C138.27 114.673 141.488 113.146 142.849 111.146C143.076 110.816 142.539 110.506 142.313 110.836C141.116 112.59 138.126 113.992 136.022 113.456C135.63 113.353 135.465 113.951 135.857 114.054Z" fill="#161616"/>
<path d="M136.084 114.24C138.229 115.581 141.756 113.683 142.787 111.641C142.973 111.291 142.436 110.981 142.251 111.332C141.385 113.064 138.229 114.859 136.393 113.725C136.043 113.498 135.733 114.034 136.084 114.24Z" fill="#161616"/>
<path opacity="0.2" d="M144.644 92.3789C144.788 93.1214 144.974 94.297 145.097 95.7202C145.386 99.5152 145.881 105.868 142.045 110.096C141.22 111.003 139.467 112.612 136.229 113.52C137.26 113.478 138.518 113.355 139.879 113.004C140.56 112.839 141.179 112.633 141.735 112.406C141.818 114.241 141.88 116.077 141.962 117.913C142.664 117.459 143.344 117.026 144.045 116.572C143.097 114.468 143.097 112.839 143.22 111.808C143.406 110.364 143.942 109.188 144.479 108.013C144.953 106.981 145.448 106.156 145.84 105.579C145.881 106.012 145.984 106.466 146.273 106.899C147.531 108.776 151.47 108.961 153.945 107.353C156.235 105.868 157.349 102.856 156.771 99.7627C157.163 100.093 157.575 100.485 157.967 100.959C158.277 101.33 159.081 102.403 160.195 106.177C160.545 107.353 160.71 107.951 160.814 108.549C160.937 109.374 161.164 110.941 160.731 112.715C159.989 115.768 157.782 117.521 157.122 118.016C156.647 118.366 155.204 119.418 153.038 119.913C152.007 120.14 148.913 120.883 146.005 119.191C144.912 118.552 144.314 118.078 143.984 117.5C143.633 116.861 143.592 116.263 143.55 115.809C143.365 112.983 143.282 111.56 143.468 110.591C144.025 107.786 145.283 107.497 145.984 104.3C146.232 103.145 146.294 102.176 146.314 101.557C146.582 101.598 146.995 101.64 147.49 101.516C148.521 101.248 149.037 100.402 149.222 100.093C149.965 98.917 150.295 96.8133 149.14 95.8439C148.975 95.6995 148.397 95.2664 147.284 95.3489C146.438 94.3589 145.551 93.3689 144.644 92.3789Z" fill="#3F3F3F"/>
<path opacity="0.13" d="M134.867 99.0605C135.919 99.3699 136.992 99.6999 138.043 100.009C137.775 100.257 137.507 100.484 137.218 100.731C136.95 100.958 136.703 101.144 136.435 101.35C136.105 101.102 135.63 100.669 135.259 100.009C135.053 99.6587 134.929 99.3287 134.867 99.0605Z" fill="#3F3F3F"/>
<path opacity="0.16" d="M118.326 101.639C116.078 109.579 117.748 115.994 121.11 117.396C123.75 118.489 128.515 116.943 129.401 114.241C129.525 113.89 129.649 113.271 129.175 111.374C128.762 109.703 127.916 107.187 126.019 104.32C125.689 104.114 125.256 103.784 124.843 103.289C124.121 102.402 123.915 101.453 123.853 100.999C124.451 101.618 125.318 102.402 125.875 102.154C126.411 101.907 126.741 101.164 126.555 100.422C126.741 101.371 127.03 102.67 127.566 104.176C128.267 106.176 128.968 108.115 130.598 109.951C131.34 110.796 132.805 112.178 135.28 113.168C135.692 113.684 136.455 114.798 136.703 116.427C136.744 116.674 136.888 117.809 136.517 119.232C136.435 119.562 135.94 121.356 134.31 122.903C132.413 124.718 130.144 125.048 129.401 125.151C123.812 125.894 119.481 121.006 118.718 120.16C117.955 119.294 116.696 117.85 115.975 115.623C114.82 112.075 115.706 108.878 116.346 106.548C116.944 104.361 117.748 102.711 118.326 101.639Z" fill="#3F3F3F"/>
</svg>
