<svg width="330" height="270" viewBox="0 0 330 270" fill="none" xmlns="http://www.w3.org/2000/svg">
<path d="M299.5 53.5058C299.5 115.362 224.34 241.897 178.5 241.897C132.66 241.897 30 286.753 30 224.897C30 163.041 77.6604 82.897 123.5 82.897C169.34 82.897 299.5 -8.3501 299.5 53.5058Z" fill="#F2F9FF" fill-opacity="0.5"/>
<path d="M213.557 89.9933C215.414 89.9933 216.919 88.4881 216.919 86.6314C216.919 84.7747 215.414 83.2695 213.557 83.2695C211.7 83.2695 210.195 84.7747 210.195 86.6314C210.195 88.4881 211.7 89.9933 213.557 89.9933Z" fill="#EC615B"/>
<path d="M217.124 80.6721C217.99 80.6721 218.692 79.9703 218.692 79.1046C218.692 78.2389 217.99 77.5371 217.124 77.5371C216.258 77.5371 215.557 78.2389 215.557 79.1046C215.557 79.9703 216.258 80.6721 217.124 80.6721Z" fill="#EC615B"/>
<path d="M114.351 60.2741C115.239 60.2741 115.96 59.5538 115.96 58.6653C115.96 57.7768 115.239 57.0566 114.351 57.0566C113.462 57.0566 112.742 57.7768 112.742 58.6653C112.742 59.5538 113.462 60.2741 114.351 60.2741Z" fill="#EC615B"/>
<path d="M219.621 248.558C221.125 248.558 222.343 247.339 222.343 245.836C222.343 244.332 221.125 243.113 219.621 243.113C218.117 243.113 216.898 244.332 216.898 245.836C216.898 247.339 218.117 248.558 219.621 248.558Z" fill="#EC615B"/>
<path d="M95.7268 257.881C96.4216 257.881 96.9849 257.318 96.9849 256.623C96.9849 255.928 96.4216 255.365 95.7268 255.365C95.0319 255.365 94.4688 255.928 94.4688 256.623C94.4688 257.318 95.0319 257.881 95.7268 257.881Z" fill="#EC615B"/>
<path d="M111.442 164.944C112.16 164.944 112.741 164.362 112.741 163.645C112.741 162.927 112.16 162.345 111.442 162.345C110.724 162.345 110.143 162.927 110.143 163.645C110.143 164.362 110.724 164.944 111.442 164.944Z" fill="#EC615B"/>
<path d="M114 171.565C114.695 171.565 115.258 171.001 115.258 170.307C115.258 169.612 114.695 169.049 114 169.049C113.305 169.049 112.742 169.612 112.742 170.307C112.742 171.001 113.305 171.565 114 171.565Z" fill="#11345C"/>
<path d="M112.494 206.628C113.792 206.628 114.845 205.575 114.845 204.277C114.845 202.978 113.792 201.925 112.494 201.925C111.195 201.925 110.143 202.978 110.143 204.277C110.143 205.575 111.195 206.628 112.494 206.628Z" fill="#11345C"/>
<path d="M211.68 72.9993C212.5 72.9993 213.165 72.3345 213.165 71.5143C213.165 70.6942 212.5 70.0293 211.68 70.0293C210.86 70.0293 210.195 70.6942 210.195 71.5143C210.195 72.3345 210.86 72.9993 211.68 72.9993Z" fill="#11345C"/>
<path d="M155.188 75.5988C155.906 75.5988 156.487 75.017 156.487 74.2994C156.487 73.5818 155.906 73 155.188 73C154.47 73 153.889 73.5818 153.889 74.2994C153.889 75.017 154.47 75.5988 155.188 75.5988Z" fill="#11345C"/>
<path d="M39.3377 177.237C39.8844 177.237 40.3277 176.794 40.3277 176.248C40.3277 175.701 39.8844 175.258 39.3377 175.258C38.7909 175.258 38.3477 175.701 38.3477 176.248C38.3477 176.794 38.7909 177.237 39.3377 177.237Z" fill="#11345C"/>
<path d="M216.176 255.366C217.543 255.366 218.651 254.258 218.651 252.891C218.651 251.524 217.543 250.416 216.176 250.416C214.809 250.416 213.701 251.524 213.701 252.891C213.701 254.258 214.809 255.366 216.176 255.366Z" fill="#11345C"/>
<path d="M242.68 43.4639C243.398 43.4639 243.98 42.8822 243.98 42.1645C243.98 41.4469 243.398 40.8652 242.68 40.8652C241.963 40.8652 241.381 41.4469 241.381 42.1645C241.381 42.8822 241.963 43.4639 242.68 43.4639Z" fill="#11345C"/>
<path d="M116.434 100.576C116.228 99.2969 116.042 96.7393 118.084 96.9456C118.826 97.0281 119.239 97.6881 120.064 97.3993C121.611 96.8631 121.26 94.8625 121.9 93.7075C122.951 91.8512 124.993 94.5531 126.561 93.6662C127.076 93.3775 127.2 92.8412 127.18 92.2843C127.138 90.2012 128.974 90.3456 130.48 90.7581C130.871 90.8612 131.036 90.2631 130.645 90.16C129.118 89.7475 126.581 89.6031 126.52 91.81C126.499 92.3462 126.788 92.8825 126.004 93.2125C125.756 93.3156 125.344 93.1918 125.117 93.13C124.581 92.965 124.106 92.5937 123.55 92.4493C122.828 92.2431 122.126 92.3875 121.631 92.965C121.013 93.7075 121.033 94.7181 120.745 95.5843C120.435 96.5125 119.837 97.0487 118.826 96.595C118.414 96.4093 118.043 96.2443 117.568 96.3062C115.444 96.595 115.547 99.1731 115.815 100.741C115.898 101.133 116.496 100.968 116.434 100.576Z" fill="#11345C"/>
<path d="M118.867 101.771C119.032 100.492 120.063 99.9351 121.26 99.9351C121.899 99.9351 122.538 100.038 123.157 99.8114C124.56 99.2751 124.292 97.7489 124.622 96.5526C125.24 94.2839 128.107 95.6864 129.695 95.3151C130.768 95.047 131.675 93.9745 131.222 92.8401C131.077 92.4689 130.479 92.6339 130.623 93.0051C131.325 94.717 128.932 94.8201 127.922 94.6964C127.179 94.6139 126.457 94.4901 125.715 94.6758C124.539 94.9851 124.085 95.8514 123.92 96.9651C123.776 97.9964 123.797 99.1308 122.456 99.2958C121.734 99.3783 121.012 99.172 120.29 99.337C119.135 99.6051 118.393 100.574 118.248 101.729C118.187 102.163 118.805 102.163 118.867 101.771Z" fill="#11345C"/>
<path d="M161.478 51.1157C160.756 52.0232 159.993 53.137 160.344 54.3539C160.633 55.3439 161.416 55.7151 162.365 55.6532C162.922 55.612 163.499 55.4676 163.953 55.9626C164.304 56.3339 164.077 57.1176 163.974 57.5301C163.809 58.1695 163.499 58.7882 163.561 59.4689C163.664 60.397 164.407 61.1189 165.356 60.9126C165.748 60.8301 165.583 60.232 165.191 60.3145C163.396 60.727 164.634 57.7364 164.716 57.0145C164.778 56.4164 164.675 55.7564 164.221 55.3232C163.768 54.8901 163.211 54.9314 162.633 54.9932C161.726 55.0964 160.88 54.8076 160.839 53.7145C160.818 52.8895 161.396 52.147 161.891 51.5282C162.179 51.2601 161.726 50.8064 161.478 51.1157Z" fill="#11345C"/>
<path d="M166.346 50.8065C165.377 51.219 164.758 52.2296 165.006 53.2815C165.13 53.7559 165.418 54.2096 165.831 54.4984C166.326 54.8696 166.903 54.7871 167.398 55.0965C168.326 55.6534 167.584 56.7465 167.625 57.6128C167.646 58.0459 167.749 58.4378 168.12 58.7059C168.677 59.139 169.502 58.9946 169.729 58.2934C169.853 57.9221 169.255 57.7571 169.131 58.1284C168.347 58.0253 168.079 57.6746 168.306 57.0765C168.347 56.8703 168.388 56.664 168.43 56.4578C168.471 56.2515 168.491 56.0453 168.491 55.839C168.491 55.4059 168.368 54.9521 168.038 54.6428C167.543 54.189 166.78 54.3746 166.243 54.0034C165.15 53.2403 165.542 51.7965 166.656 51.3221C167.027 51.1778 166.697 50.6621 166.346 50.8065Z" fill="#11345C"/>
<path d="M31.4794 172.721C31.0051 171.978 31.0051 171.071 31.4794 170.307C31.9538 169.565 32.6138 169.544 33.3769 169.256C34.4288 168.822 34.4494 167.729 34.3876 166.739C34.3669 166.389 34.3463 166.017 34.4494 165.667C34.7176 164.842 35.4188 165.069 36.0582 165.172C36.4294 165.234 36.7801 165.172 37.0894 164.966C37.4813 164.697 37.7288 164.223 37.8526 163.769C37.9557 163.398 37.9763 163.006 38.0588 162.635C38.1001 162.367 38.1826 162.119 38.3063 161.892C38.6363 161.377 39.0282 161.336 39.5026 161.789C39.6057 162.181 40.2038 162.016 40.1007 161.624C39.7294 160.284 38.0794 160.882 37.6669 161.831C37.4813 162.264 37.4607 162.738 37.3576 163.192C37.2957 163.46 37.2544 163.749 37.1101 163.996C36.8007 164.553 36.2232 164.45 35.6869 164.388C35.0476 164.326 34.5526 164.264 34.1401 164.862C33.6657 165.543 33.7894 166.347 33.7894 167.131C33.8101 168.08 33.6038 168.451 32.6757 168.761C32.3044 168.884 31.9951 168.946 31.6651 169.194C30.4688 170.039 30.1594 171.792 30.9432 173.009C31.1494 173.36 31.6857 173.051 31.4794 172.721Z" fill="#EC615B"/>
<path d="M34.0574 174.145C33.1911 174.021 33.5211 173.072 33.913 172.701C34.2018 172.433 34.5936 172.268 34.9649 172.082C35.4186 171.855 35.8724 171.587 36.2024 171.195C37.0893 170.082 35.8105 168.597 37.048 167.71C38.2855 166.844 41.6061 166.452 40.6368 164.142C40.4924 163.77 39.9561 164.1 40.1005 164.451C40.8018 166.122 37.3986 166.617 36.5324 167.318C36.223 167.565 35.9549 167.895 35.8311 168.287C35.5836 169.154 36.3055 170.04 35.6661 170.865C34.9236 171.773 33.3355 171.773 32.9643 173.052C32.7374 173.774 33.1293 174.64 33.913 174.764C34.2843 174.805 34.4493 174.207 34.0574 174.145Z" fill="#EC615B"/>
<path d="M260.15 126.211C259.882 125.736 259.923 125.221 260.212 124.767C260.665 124.107 261.202 124.251 261.903 124.313C262.377 124.354 262.81 124.458 263.264 124.189C264.069 123.694 263.945 122.663 264.089 121.879C264.419 120.044 266.007 121.714 267.08 121.137C267.472 120.931 267.616 120.539 267.699 120.126C267.843 119.322 267.884 116.929 269.431 117.899C269.761 118.105 270.091 117.569 269.74 117.363C268.359 116.517 267.245 117.919 267.121 119.219C267.039 119.961 267.121 120.683 266.131 120.58C265.78 120.539 265.43 120.353 265.079 120.312C264.522 120.25 264.027 120.415 263.718 120.91C263.367 121.488 263.491 122.209 263.347 122.828C263.037 124.231 261.841 123.447 260.872 123.612C259.572 123.839 258.974 125.406 259.593 126.499C259.799 126.871 260.335 126.561 260.15 126.211Z" fill="#EC615B"/>
<path d="M263.221 127.51C262.871 126.562 263.964 125.51 264.913 126.005C265.036 126.067 265.201 126.067 265.284 125.963C265.758 125.448 265.882 124.85 266.088 124.19C266.46 122.993 267.346 122.828 268.419 122.498C269.471 122.168 270.646 121.302 270.213 120.065C270.069 119.693 269.471 119.858 269.615 120.23C270.213 121.859 267.285 121.983 266.418 122.581C265.366 123.323 265.676 124.664 264.871 125.53C264.995 125.51 265.119 125.489 265.243 125.489C263.861 124.767 262.108 126.19 262.644 127.696C262.768 128.047 263.366 127.902 263.221 127.51Z" fill="#EC615B"/>
<path d="M179.918 132.915C179.959 132.915 180.413 134.029 180.599 134.173C180.887 134.4 181.238 134.421 181.589 134.359C182.207 134.256 182.599 133.802 183.135 133.513C184.29 132.853 184.29 133.988 184.744 134.627C185.26 135.39 185.817 135.019 186.415 134.648C186.807 134.4 187.178 134.235 187.529 134.586C187.714 134.771 187.838 135.081 187.982 135.308C188.209 135.638 188.457 135.906 188.828 136.071C189.179 136.236 189.509 135.7 189.137 135.535C188.292 135.163 188.189 133.761 187.178 133.616C186.704 133.555 186.497 133.823 186.126 134.029C185.672 134.297 185.404 134.483 185.115 133.967C184.992 133.761 184.971 133.472 184.827 133.266C184.167 132.173 183.135 132.771 182.31 133.307C182.166 133.41 182.022 133.513 181.857 133.596C181.506 133.493 181.135 133.39 180.784 133.286C180.64 133.142 180.64 132.791 180.516 132.606C180.31 132.317 180.104 132.235 179.774 132.296C179.361 132.379 179.526 132.977 179.918 132.915Z" fill="#EC615B"/>
<path d="M184.765 130.934C185.384 129.965 186.807 131.986 187.384 132.234C187.735 132.378 188.065 132.378 188.436 132.275C188.601 132.234 188.746 132.151 188.89 132.089C189.447 131.862 189.921 132.007 190.375 132.399C191.035 132.956 191.221 133.698 192.169 133.904C192.726 134.028 193.242 133.863 193.489 133.327C193.654 132.976 193.118 132.646 192.953 133.017C192.376 134.255 190.788 131.821 190.375 131.553C189.612 131.058 189.138 131.471 188.374 131.636C187.158 131.883 186.766 130.522 185.755 130.192C185.157 129.986 184.579 130.089 184.249 130.646C184.002 130.976 184.538 131.285 184.765 130.934Z" fill="#EC615B"/>
<path d="M261.839 166.986C272.791 166.986 283.743 166.986 294.715 166.986C295.107 166.986 295.107 166.367 294.715 166.367C283.763 166.367 272.811 166.367 261.839 166.367C261.447 166.367 261.447 166.986 261.839 166.986Z" fill="#837B7B"/>
<path d="M270.812 166.842C270.812 170.039 270.812 173.216 270.812 176.412C270.812 176.804 271.431 176.804 271.431 176.412C271.431 173.216 271.431 170.039 271.431 166.842C271.431 166.451 270.812 166.451 270.812 166.842Z" fill="#837B7B"/>
<path d="M286.115 166.532C286.115 162.077 286.115 157.622 286.115 153.167C286.115 152.775 285.496 152.775 285.496 153.167C285.496 157.622 285.496 162.077 285.496 166.532C285.496 166.944 286.115 166.944 286.115 166.532Z" fill="#837B7B"/>
<path d="M278.835 153.415C282.981 153.415 287.126 153.415 291.272 153.415C291.664 153.415 291.664 152.797 291.272 152.797C287.126 152.797 282.981 152.797 278.835 152.797C278.443 152.797 278.443 153.415 278.835 153.415Z" fill="#837B7B"/>
<path d="M270.688 79.1455C270.688 83.0024 270.688 86.8593 270.688 90.6955C270.688 91.0874 271.306 91.0874 271.306 90.6955C271.306 86.8386 271.306 82.9817 271.306 79.1455C271.306 78.7536 270.688 78.7536 270.688 79.1455Z" fill="#837B7B"/>
<path d="M261.055 91.5817C268.501 91.5817 275.926 91.5817 283.372 91.5817C283.764 91.5817 283.764 90.9629 283.372 90.9629C275.926 90.9629 268.501 90.9629 261.055 90.9629C260.643 90.9629 260.643 91.5817 261.055 91.5817Z" fill="#837B7B"/>
<path d="M283.166 91.499C283.166 94.0565 283.166 96.614 283.166 99.1715C283.166 99.5634 283.785 99.5634 283.785 99.1715C283.785 96.614 283.785 94.0565 283.785 91.499C283.785 91.1071 283.166 91.1071 283.166 91.499Z" fill="#837B7B"/>
<path d="M76.0283 67.1207C83.3089 67.1207 90.6101 67.1207 97.8908 67.1207C98.2826 67.1207 98.2826 66.502 97.8908 66.502C90.6101 66.502 83.3089 66.502 76.0283 66.502C75.6364 66.502 75.6158 67.1207 76.0283 67.1207Z" fill="#837B7B"/>
<path d="M96.9844 67.0594C96.9844 69.0394 96.9844 71.0194 96.9844 72.9994C96.9844 73.3913 97.6031 73.3913 97.6031 72.9994C97.6031 71.0194 97.6031 69.0394 97.6031 67.0594C97.6031 66.6469 96.9844 66.6469 96.9844 67.0594Z" fill="#837B7B"/>
<path d="M90.3629 66.5638C90.3629 63.3875 90.3629 60.2319 90.3629 57.0556C90.3629 56.6638 89.7441 56.6638 89.7441 57.0556C89.7441 60.2319 89.7441 63.3875 89.7441 66.5638C89.7441 66.9763 90.3629 66.9763 90.3629 66.5638Z" fill="#837B7B"/>
<path d="M32.7783 130.687C37.8108 130.687 42.8433 130.687 47.8758 130.687C48.2677 130.687 48.2677 130.068 47.8758 130.068C42.8433 130.068 37.8108 130.068 32.7783 130.068C32.3864 130.068 32.3864 130.687 32.7783 130.687Z" fill="#837B7B"/>
<path d="M41.998 124.479C41.998 126.336 41.998 128.192 41.998 130.048C41.998 130.44 42.6168 130.44 42.6168 130.048C42.6168 128.192 42.6168 126.336 42.6168 124.479C42.6168 124.088 41.998 124.088 41.998 124.479Z" fill="#837B7B"/>
<path d="M38.368 124.789C41.0492 124.789 43.7305 124.789 46.4117 124.789C46.8036 124.789 46.8036 124.17 46.4117 124.17C43.7305 124.17 41.0492 124.17 38.368 124.17C37.9555 124.17 37.9555 124.789 38.368 124.789Z" fill="#837B7B"/>
<path d="M129.2 254.829C135.924 254.829 142.648 254.829 149.371 254.829C149.763 254.829 149.763 254.211 149.371 254.211C142.648 254.211 135.924 254.211 129.2 254.211C128.787 254.211 128.787 254.829 129.2 254.829Z" fill="#837B7B"/>
<path d="M141.617 254.21C141.617 252.766 141.617 251.322 141.617 249.858C141.617 249.466 140.998 249.466 140.998 249.858C140.998 251.302 140.998 252.746 140.998 254.21C140.998 254.622 141.617 254.622 141.617 254.21Z" fill="#837B7B"/>
<path d="M139.739 249.878C142.524 249.878 145.329 249.878 148.113 249.878C148.505 249.878 148.505 249.259 148.113 249.259C145.329 249.259 142.524 249.259 139.739 249.259C139.347 249.259 139.347 249.878 139.739 249.878Z" fill="#837B7B"/>
<path d="M33.2529 243.98C39.9766 243.98 46.7004 243.98 53.4242 243.98C53.816 243.98 53.816 243.361 53.4242 243.361C46.7004 243.361 39.9766 243.361 33.2529 243.361C32.861 243.361 32.861 243.98 33.2529 243.98Z" fill="#837B7B"/>
<path d="M42.5762 235.895C42.5762 238.267 42.5762 240.66 42.5762 243.031C42.5762 243.423 43.1949 243.423 43.1949 243.031C43.1949 240.66 43.1949 238.267 43.1949 235.895C43.1949 235.503 42.5762 235.503 42.5762 235.895Z" fill="#837B7B"/>
<path d="M42.5751 234.967C39.8938 234.967 37.192 234.967 34.5107 234.967C34.1188 234.967 34.1188 235.585 34.5107 235.585C37.192 235.585 39.8938 235.585 42.5751 235.585C42.9669 235.585 42.9669 234.967 42.5751 234.967Z" fill="#837B7B"/>
<path d="M257.468 225.83C256.787 225.15 256.952 223.83 258.004 223.603C258.561 223.479 259.097 223.83 259.633 223.892C260.046 223.954 260.479 223.912 260.747 223.541C261.16 223.005 260.83 222.386 260.809 221.788C260.768 219.911 262.995 220.035 264.109 220.695C264.356 220.839 264.625 220.592 264.563 220.344C264.026 217.766 266.976 215.992 268.997 217.704C269.307 217.952 269.74 217.519 269.43 217.271C266.935 215.167 263.284 217.312 263.965 220.53C264.109 220.406 264.274 220.303 264.418 220.179C263.47 219.602 262.253 219.313 261.242 219.952C260.871 220.179 260.541 220.53 260.376 220.942C260.252 221.231 260.19 221.499 260.211 221.809C260.231 222.365 260.417 222.324 260.005 222.86C259.551 223.459 259.51 223.19 258.87 223.046C258.643 222.984 258.437 222.943 258.19 222.964C257.674 222.984 257.2 223.232 256.87 223.603C256.148 224.407 256.333 225.542 257.055 226.264C257.323 226.552 257.756 226.119 257.468 225.83Z" fill="#837B7B"/>
<path d="M261.488 226.448C261.261 224.571 264.334 224.55 265.201 223.251C265.428 222.921 265.51 222.55 265.654 222.199C265.923 221.56 266.397 221.147 267.098 220.962C268.233 220.673 269.408 221.188 270.439 221.622C270.811 221.766 270.976 221.168 270.604 221.023C268.707 220.24 266.149 219.642 265.098 221.952C264.726 222.777 264.603 223.23 263.736 223.663C263.221 223.911 262.685 224.055 262.19 224.344C261.406 224.798 260.787 225.499 260.89 226.448C260.931 226.84 261.55 226.84 261.488 226.448Z" fill="#837B7B"/>
<path d="M172.781 166.471C173.193 167.502 173.606 168.554 174.018 169.585C174.06 169.461 174.121 169.358 174.163 169.234C173.936 169.379 173.709 169.523 173.482 169.688C173.131 168.863 173.276 168.657 173.936 169.028C174.328 169.275 174.513 169.812 174.596 170.245C174.781 171.235 174.575 172.266 174.245 173.215C174.163 173.462 174.41 173.627 174.616 173.586C175.854 173.339 176.349 174.824 176.101 175.752C175.916 176.432 175.545 177.03 175.173 177.629C174.967 177.959 175.503 178.268 175.71 177.938C176.37 176.907 177.133 175.628 176.679 174.349C176.328 173.4 175.462 172.802 174.451 172.988C174.575 173.112 174.699 173.235 174.823 173.359C175.235 172.163 175.503 170.657 174.988 169.44C174.637 168.636 173.833 168.017 172.925 168.285C172.224 168.492 171.873 169.193 172.203 169.874C172.76 171.008 173.73 170.245 174.451 169.77C174.555 169.709 174.637 169.544 174.596 169.42C174.183 168.389 173.771 167.337 173.358 166.306C173.235 165.955 172.636 166.099 172.781 166.471Z" fill="#837B7B"/>
<path d="M50.804 68.8944C50.4121 67.9044 51.7321 67.6363 52.3508 67.9869C52.8252 68.2551 53.1346 68.7294 53.4233 69.1626C53.6915 69.5544 53.9802 69.9876 54.1246 70.4413C54.2896 70.8332 54.269 71.2044 54.0627 71.5757C53.3408 71.9057 52.9696 71.8232 52.949 71.3488C52.7633 70.6682 53.4852 70.2144 54.104 70.2351C54.7433 70.2557 55.3415 70.6269 55.7746 71.0807C56.5171 71.8644 56.7852 72.8957 56.6821 73.9476C56.8677 73.8857 57.074 73.8444 57.2596 73.7826C56.8471 73.1844 57.239 72.5451 57.7958 72.2357C58.2702 71.9882 58.8065 72.0501 59.2602 72.2976C60.0027 72.6894 60.5183 73.4113 60.9927 74.0713C61.2196 74.4013 61.7558 74.0919 61.529 73.7619C60.7452 72.6688 59.5696 71.1426 58.0227 71.4932C56.8883 71.7407 55.9808 73.0607 56.7233 74.0919C56.909 74.3601 57.2596 74.2363 57.3008 73.9269C57.4865 71.9676 56.0427 69.2863 53.7327 69.6163C52.9077 69.7401 52.3096 70.3176 52.3096 71.1632C52.3096 71.8232 52.7221 72.5038 53.4233 72.5451C54.2483 72.6069 54.8052 71.8026 54.8465 71.0601C54.9083 70.0288 54.104 68.9151 53.4852 68.1519C52.9077 67.4713 52.0621 66.8938 51.1546 67.2444C50.4121 67.5126 49.9171 68.2551 50.2265 69.0182C50.3502 69.4307 50.9483 69.2657 50.804 68.8944Z" fill="#837B7B"/>
<path d="M159.457 99.1502C158.591 98.6346 159.209 97.1084 160.179 97.7477C161.107 98.3665 159.869 99.4184 159.271 98.6965C159.024 98.3871 158.591 98.8202 158.838 99.1296C159.313 99.7071 160.22 99.6659 160.756 99.1915C161.375 98.6346 161.21 97.7271 160.571 97.2734C159.931 96.8196 159.003 96.9021 158.611 97.6446C158.219 98.3459 158.488 99.2946 159.168 99.6865C159.478 99.8721 159.787 99.3565 159.457 99.1502Z" fill="#837B7B"/>
<path d="M225.167 54.0442C224.714 53.4048 225.497 52.4354 226.219 52.7242C226.157 52.6829 226.096 52.6211 226.034 52.5798C226.426 53.2604 225.848 54.1886 225.085 54.1473C225.188 54.2298 225.291 54.2917 225.374 54.3742C225.25 54.0236 225.106 53.6523 224.982 53.3017C224.837 52.9304 224.239 53.0954 224.384 53.4667C224.507 53.8173 224.652 54.1886 224.776 54.5392C224.817 54.6836 224.92 54.7661 225.064 54.7661C225.724 54.8073 226.302 54.3948 226.591 53.8173C226.817 53.3636 226.941 52.4148 226.384 52.1261C225.167 51.5279 223.909 53.3429 224.631 54.3536C224.858 54.6836 225.394 54.3742 225.167 54.0442Z" fill="#837B7B"/>
<path d="M241.957 84.7138C241.854 84.2395 242.205 83.7238 242.679 83.6207C243.112 83.5382 243.504 83.8888 243.607 84.2807C243.875 85.2088 242.658 85.642 242.081 85.0026C241.813 84.7138 241.38 85.147 241.648 85.4357C242.72 86.632 244.783 85.4564 244.123 83.9301C243.834 83.2495 243.112 82.8163 242.39 83.0432C241.627 83.2907 241.173 84.0951 241.338 84.8788C241.462 85.2707 242.06 85.1057 241.957 84.7138Z" fill="#837B7B"/>
<path d="M175.009 255.426C174.225 255.055 174.287 253.983 175.009 253.57C175.71 253.178 176.37 253.529 177.009 253.818C177.546 254.065 178.164 254.292 178.639 253.818C179.072 253.405 178.989 252.766 179.01 252.23C179.093 250.146 181.114 250.559 182.496 251.075C182.867 251.219 183.032 250.621 182.661 250.476C181.444 250.002 179.753 249.548 178.783 250.745C178.494 251.095 178.412 251.508 178.391 251.941C178.371 252.23 178.494 252.869 178.329 253.137C177.876 253.818 177.257 253.199 176.783 252.993C175.875 252.601 174.576 252.704 174.019 253.653C173.544 254.457 173.833 255.55 174.679 255.942C175.05 256.128 175.359 255.591 175.009 255.426Z" fill="#837B7B"/>
<path d="M184.992 206.813C184.373 214.383 184.703 221.973 185.982 229.459C186.044 229.851 186.642 229.686 186.58 229.294C185.322 221.869 184.992 214.321 185.611 206.813C185.652 206.421 185.033 206.421 184.992 206.813Z" fill="#837B7B"/>
<path d="M185.405 207.288C188.622 208.402 191.943 209.144 195.325 209.516C198.501 209.846 202.152 210.196 205.204 209C205.576 208.856 205.411 208.257 205.039 208.402C202.07 209.578 198.46 209.227 195.325 208.897C192.005 208.546 188.725 207.783 185.57 206.69C185.178 206.546 185.033 207.144 185.405 207.288Z" fill="#837B7B"/>
<path d="M190.314 208.133C189.241 206.463 188.354 204.689 187.736 202.792C187.447 201.884 187.199 200.977 187.014 200.048C186.911 199.492 186.808 198.935 186.746 198.378C186.746 198.316 186.519 196.852 186.952 197.058C187.158 197.161 187.509 196.975 187.406 196.707C186.271 193.84 185.653 190.829 185.591 187.735C185.488 187.838 185.384 187.942 185.281 188.045C185.446 188.107 185.591 188.168 185.756 188.23C185.962 188.478 186.354 188.21 186.271 187.921C185.859 186.601 185.591 185.24 185.508 183.837C185.488 183.507 185.549 179.795 185.776 179.857C186.024 179.918 186.189 179.692 186.148 179.485C185.756 177.155 185.57 174.783 185.673 172.432C185.714 171.256 185.818 170.101 186.003 168.946C186.168 167.894 186.251 166.615 187.076 165.852C186.911 165.832 186.746 165.811 186.581 165.79C188.313 169.049 189.283 172.617 190.169 176.165C191.036 179.65 191.799 183.177 192.459 186.725C193.799 194.047 194.645 201.451 195.016 208.897C195.037 209.288 195.656 209.288 195.635 208.897C195.264 201.41 194.418 193.943 193.057 186.56C192.376 182.888 191.593 179.238 190.685 175.608C189.798 172.122 188.829 168.657 187.117 165.46C187.014 165.275 186.766 165.275 186.622 165.398C185.921 166.038 185.714 166.883 185.549 167.77C185.323 169.028 185.158 170.328 185.075 171.607C184.91 174.288 185.075 176.969 185.529 179.63C185.653 179.506 185.776 179.382 185.9 179.258C184.704 178.928 184.848 181.507 184.828 182.084C184.745 184.105 185.054 186.127 185.653 188.065C185.818 187.962 186.003 187.859 186.168 187.756C185.9 187.447 185.673 187.343 185.261 187.385C185.096 187.405 184.951 187.508 184.951 187.694C185.013 190.829 185.632 193.902 186.787 196.831C186.931 196.707 187.096 196.604 187.241 196.48C185.178 195.49 186.374 200.152 186.539 200.853C187.158 203.534 188.272 206.092 189.757 208.402C190.004 208.773 190.541 208.463 190.314 208.133Z" fill="#837B7B"/>
<path d="M193.592 187.529C193.407 186.209 193.366 184.868 193.531 183.548C193.572 183.218 194.356 179.341 194.747 179.506C194.954 179.609 195.201 179.485 195.222 179.238C195.346 176.598 196.171 174.246 197.14 171.813C198.109 169.399 199.058 167.069 200.667 164.986C200.522 164.986 200.378 164.986 200.234 164.986C201.409 166.326 201.265 168.368 201.327 170.039C201.409 171.916 201.471 173.793 201.492 175.669C201.533 179.361 201.471 183.053 201.306 186.745C200.955 194.294 200.11 201.822 198.831 209.268C198.769 209.659 199.367 209.824 199.429 209.433C200.77 201.678 201.615 193.819 201.966 185.941C202.131 181.981 202.172 178.021 202.09 174.061C202.049 172.081 202.007 170.101 201.863 168.121C201.78 166.821 201.574 165.543 200.667 164.532C200.564 164.408 200.337 164.408 200.234 164.532C198.646 166.594 197.656 168.863 196.707 171.276C195.655 173.875 194.768 176.391 194.624 179.238C194.789 179.155 194.933 179.052 195.098 178.969C193.84 178.413 193.427 181.094 193.262 181.816C192.809 183.754 192.767 185.714 193.056 187.673C193.036 188.086 193.634 187.921 193.592 187.529Z" fill="#837B7B"/>
<path d="M186.271 229.976C192.727 232.059 199.718 231.956 206.112 229.687C206.483 229.563 206.318 228.965 205.947 229.089C199.657 231.316 192.788 231.419 186.436 229.377C186.044 229.254 185.879 229.852 186.271 229.976Z" fill="#837B7B"/>
<path d="M205.122 208.794C205.369 212.135 205.637 215.476 205.864 218.817C206.091 222.221 206.173 225.665 205.617 229.047C205.555 229.439 206.153 229.604 206.215 229.212C206.772 225.892 206.73 222.551 206.503 219.209C206.277 215.744 206.008 212.259 205.74 208.794C205.72 208.402 205.101 208.402 205.122 208.794Z" fill="#837B7B"/>
<path d="M95.0449 235.274C99.2524 233.026 103.481 230.778 107.688 228.53C109.668 228.86 112.391 229.293 115.649 229.746C122.167 230.654 132.665 232.118 145.947 232.51C159.23 232.902 169.192 232.056 172.987 231.685C182.124 230.819 187.651 229.643 192.168 228.426C196.272 227.313 199.655 226.096 202.068 225.168C204.048 225.828 206.255 226.715 208.606 227.931C209.947 228.633 211.184 229.355 212.277 230.076C208.4 231.19 203.182 232.613 196.974 234.057C183.897 237.109 173.874 238.553 171.77 238.863C159.746 240.574 142.606 242.988 121.053 240.492C114.35 239.688 105.419 238.223 95.0449 235.274Z" fill="white"/>
<path d="M94.8184 235.295C94.9215 236.162 95.0452 237.007 95.1484 237.873C96.6952 238.307 98.964 238.925 101.769 239.544C107.131 240.74 112.576 241.565 119.692 242.122C145.968 244.185 166.965 242.349 166.965 242.349C177.463 241.421 187.652 240.472 200.81 236.636C205.76 235.192 209.803 233.728 212.69 232.593C212.463 231.624 212.237 230.655 212.01 229.685C211.205 230.015 210.009 230.49 208.545 231.026C198.603 234.656 190.415 235.852 183.114 236.739C167.068 238.719 159.045 239.688 147.268 239.874C133.861 240.101 115.876 239.297 94.8184 235.295Z" fill="#161616"/>
<path d="M94.6738 235.688C94.6738 236.348 94.6738 237.008 94.6738 237.668C94.6738 238.06 95.2925 238.06 95.2925 237.668C95.2925 237.008 95.2925 236.348 95.2925 235.688C95.2925 235.276 94.6738 235.276 94.6738 235.688Z" fill="#161616"/>
<path d="M94.9018 238.244C110.309 242.41 126.396 242.946 142.257 243.173C157.499 243.38 172.844 242.72 187.859 239.935C196.315 238.368 204.647 236.078 212.691 232.964C213.062 232.82 212.897 232.221 212.526 232.366C198.336 237.873 183.259 240.678 168.1 241.853C152.817 243.029 137.389 242.761 122.106 241.833C112.969 241.255 103.915 240.059 95.0668 237.666C94.6749 237.543 94.5099 238.141 94.9018 238.244Z" fill="#161616"/>
<path d="M212.691 232.532C212.814 231.666 212.855 230.779 212.773 229.913C212.732 229.521 212.113 229.521 212.154 229.913C212.216 230.738 212.216 231.563 212.092 232.367C212.03 232.738 212.629 232.924 212.691 232.532Z" fill="#161616"/>
<path d="M95.1684 235.626C99.4996 233.564 103.748 231.357 107.915 228.964C108.265 228.758 107.956 228.242 107.605 228.428C103.439 230.8 99.1902 233.027 94.859 235.09C94.4877 235.255 94.7971 235.791 95.1684 235.626Z" fill="#161616"/>
<path d="M107.751 228.675C132.357 233.357 157.932 234.223 182.744 230.675C189.344 229.727 195.903 228.262 202.008 225.54C202.379 225.375 202.049 224.839 201.698 225.004C196.212 227.437 190.355 228.86 184.435 229.789C178.413 230.737 172.328 231.315 166.244 231.707C153.89 232.49 141.473 232.284 129.16 231.109C122.024 230.428 114.95 229.397 107.916 228.077C107.525 228.015 107.36 228.613 107.751 228.675Z" fill="#161616"/>
<path d="M201.882 225.437C205.554 226.633 208.998 228.304 212.215 230.428C212.545 230.655 212.855 230.119 212.525 229.892C209.266 227.747 205.76 226.056 202.047 224.839C201.655 224.715 201.49 225.313 201.882 225.437Z" fill="#161616"/>
<path d="M95.2099 235.296C102.491 237.75 110.081 238.905 117.712 239.524C125.446 240.143 133.242 240.328 140.997 240.328C156.404 240.328 171.852 239.276 187.032 236.513C195.654 234.945 204.192 232.821 212.504 230.036C212.876 229.913 212.711 229.315 212.339 229.438C197.716 234.306 182.516 237.152 167.171 238.555C151.908 239.957 136.481 240.04 121.177 239.132C112.432 238.596 103.666 237.503 95.3337 234.698C95.0037 234.574 94.8387 235.172 95.2099 235.296Z" fill="#161616"/>
<path d="M107.09 117.507C132.294 111.67 158.24 110.391 184.021 110.144C191.323 110.061 198.624 110.082 205.925 110.082C206.317 110.082 206.317 109.463 205.925 109.463C180.061 109.422 154.074 109.401 128.396 112.969C121.177 113.98 114.02 115.259 106.925 116.909C106.533 117.012 106.698 117.61 107.09 117.507Z" fill="#161616"/>
<path d="M207.205 109.524C207.473 119.115 207.638 130.232 207.576 142.586C207.535 149.763 207.473 146.34 206.834 176.205C206.463 193.406 206.36 199.882 205.143 209.823C204.359 216.3 203.41 221.621 202.709 225.23C208.03 226.715 213.104 228.118 217.559 229.355C224.448 231.273 226.283 231.789 229.026 232.181C233.275 232.758 238.452 232.841 244.433 231.624C246.64 213.557 247.857 198.15 248.558 186.352C251.075 144.896 248.723 125.797 247.816 119.094C246.578 110.061 245.052 102.636 243.876 97.5C239.463 98.3456 235.874 99.2531 233.358 99.9338C224.716 102.306 217.868 105.09 212.135 107.441C210.01 108.328 208.298 109.05 207.205 109.524Z" fill="white"/>
<path d="M65.0162 97.8711C64.8512 99.6449 64.6656 101.831 64.5006 103.729C61.0768 142.771 59.365 162.303 58.8081 174.864C58.2306 188.353 58.1893 207.905 61.0562 232.222C61.2831 232.717 61.6956 233.398 62.4381 233.955C63.4075 234.676 64.2943 234.656 66.0475 235.151C67.4293 235.543 68.1512 235.935 68.8112 236.182C70.7087 236.925 74.9575 237.77 80.3612 237.564C88.1162 237.255 94.0768 234.883 98.4493 233.088C102.554 231.418 105.833 229.623 108.102 228.262C106.823 216.774 105.874 204.646 105.338 191.921C104.245 164.861 105.338 140.008 107.586 117.857C106.637 117.485 105.256 116.97 103.626 116.31C100.821 115.175 94.0975 112.432 82.2587 106.657C77.5768 104.389 71.7193 101.439 65.0162 97.8711Z" fill="white"/>
<path d="M243.752 97.418C243.999 98.7792 244.329 100.656 244.701 102.904C245.216 106.101 246.371 113.67 247.217 123.612C248.083 133.965 248.289 142.875 248.31 149.97C248.372 164.366 247.836 174.926 246.433 199.553C246 207.225 245.361 218.466 244.556 232.181C245.402 232.12 246.227 232.078 247.073 232.016C247.485 228.593 248.042 223.498 248.475 217.27C248.805 212.773 248.95 209.494 249.094 205.967C249.816 189.797 249.939 189.983 250.187 183.383C250.682 170.368 250.579 160.365 250.496 151.373C250.434 145.165 250.249 139.286 249.878 127.53C249.609 119.528 249.341 112.433 247.526 103.214C247.052 100.862 246.598 98.903 246.268 97.5624C245.423 97.5211 244.598 97.4799 243.752 97.418Z" fill="#161616"/>
<path d="M61.8603 98.2422C61.7159 98.9641 61.489 100.078 61.2622 101.439C60.6022 105.378 60.4372 108.348 60.3753 109.318C59.9215 116.33 59.014 119.754 57.694 135.326C57.4465 138.172 57.2609 140.668 56.8897 145.679C56.1265 155.909 55.7553 161.024 55.4872 166.799C55.1984 173.255 55.1572 177.813 55.0953 186.929C55.0334 194.808 54.9922 200.501 55.1984 207.946C55.3634 213.886 55.6934 221.951 56.4978 231.562C58.1684 232.057 59.8184 232.552 61.489 233.047C61.4684 232.119 61.4065 230.448 61.2828 228.365C60.7878 219.104 59.9834 215.351 59.7978 207.637C59.7359 205.265 59.7772 203.698 59.7978 201.449C60.0247 185.321 59.7565 177.958 59.9009 167.48C60.1484 150.382 61.3034 137.017 62.2934 125.632C63.2215 114.866 64.2734 105.647 65.1809 98.4278C64.0465 98.366 62.9534 98.3041 61.8603 98.2422Z" fill="#161616"/>
<path d="M206.709 109.876C207.472 125.015 207.369 140.194 207.162 155.333C206.935 170.142 206.832 184.992 205.698 199.78C205.059 208.195 204.048 216.589 202.48 224.901C202.398 225.293 202.996 225.458 203.079 225.066C205.822 210.526 206.832 195.738 207.286 180.97C207.76 165.893 207.967 150.775 207.946 135.678C207.925 127.077 207.781 118.477 207.348 109.876C207.307 109.484 206.688 109.484 206.709 109.876Z" fill="#161616"/>
<path d="M207.473 109.876C218.92 104.204 231.068 100.121 243.608 97.7075C244 97.625 243.835 97.0269 243.443 97.1094C230.862 99.5431 218.652 103.668 207.164 109.34C206.813 109.526 207.123 110.062 207.473 109.876Z" fill="#161616"/>
<path d="M243.4 97.5213C246.804 114.661 247.835 132.171 247.814 149.62C247.773 167.069 246.742 184.476 245.896 201.904C245.401 211.949 244.906 221.972 244.411 232.017C244.39 232.409 245.009 232.409 245.03 232.017C245.917 214.238 246.845 196.459 247.649 178.66C248.433 161.211 248.928 143.721 247.752 126.293C247.092 116.579 245.917 106.906 244.019 97.377C243.916 96.9645 243.318 97.1295 243.4 97.5213Z" fill="#161616"/>
<path d="M202.584 225.024C203.512 226.097 205.162 226.303 206.462 226.695C208.235 227.231 210.03 227.767 211.803 228.304C215.392 229.376 218.96 230.51 222.59 231.418C229.685 233.15 236.966 233.501 244.164 232.264C244.556 232.202 244.391 231.604 243.999 231.665C236.904 232.882 229.727 232.532 222.755 230.82C219.435 230.015 216.176 228.984 212.917 227.994C211.267 227.499 209.617 227.004 207.967 226.509C207.142 226.262 206.317 226.014 205.492 225.767C204.626 225.499 203.657 225.313 203.038 224.591C202.749 224.302 202.316 224.735 202.584 225.024Z" fill="#161616"/>
<path d="M243.814 97.5414C244.577 97.727 245.34 97.9126 246.124 98.0982C246.516 98.2014 246.681 97.6032 246.289 97.5001C245.526 97.3145 244.763 97.1289 243.979 96.9433C243.587 96.8608 243.422 97.4589 243.814 97.5414Z" fill="#161616"/>
<path d="M246.082 97.8925C248.145 106.225 248.702 114.929 249.3 123.488C249.918 132.233 250.248 140.998 250.393 149.785C250.64 167.213 250.042 184.641 249.052 202.049C248.495 211.907 247.794 221.766 247.072 231.625C247.052 232.017 247.67 232.017 247.691 231.625C248.99 214.094 250.166 196.562 250.723 178.99C251.28 161.459 251.238 143.886 250.125 126.355C249.527 116.826 248.99 107.05 246.701 97.7481C246.577 97.3356 245.979 97.5006 246.082 97.8925Z" fill="#161616"/>
<path d="M244.741 232.366C245.649 232.283 246.536 232.201 247.443 232.118C247.835 232.077 247.835 231.458 247.443 231.5C246.536 231.582 245.649 231.665 244.741 231.747C244.349 231.788 244.349 232.407 244.741 232.366Z" fill="#161616"/>
<path d="M107.07 117.692C105.688 131.985 104.863 146.32 104.595 160.675C104.326 175.091 104.615 189.529 105.481 203.925C105.956 212.01 106.636 220.074 107.461 228.118C107.503 228.51 108.121 228.51 108.08 228.118C106.595 213.846 105.667 199.511 105.296 185.156C104.925 170.74 105.11 156.302 105.873 141.906C106.306 133.821 106.905 125.757 107.668 117.692C107.73 117.3 107.111 117.3 107.07 117.692Z" fill="#161616"/>
<path d="M65.4081 98.3659C78.7938 105.811 92.695 112.329 106.967 117.877C107.339 118.021 107.504 117.423 107.132 117.279C92.9013 111.751 79.0619 105.255 65.7175 97.8296C65.3669 97.6234 65.0575 98.1596 65.4081 98.3659Z" fill="#161616"/>
<path d="M64.7679 98.2217C62.4786 115.67 60.8904 133.222 60.0242 150.815C59.1579 168.408 59.0342 186.022 59.6117 203.615C59.9417 213.494 60.4986 223.374 61.2823 233.233C61.3236 233.624 61.9423 233.624 61.9011 233.233C60.4986 215.681 59.8385 198.067 59.8798 180.474C59.921 162.86 60.7048 145.267 62.1898 127.715C63.0354 117.857 64.1079 108.039 65.3867 98.2217C65.4279 97.8298 64.8092 97.8298 64.7679 98.2217Z" fill="#161616"/>
<path d="M61.2615 233.624C72.7497 239.873 86.5065 238.533 98.1803 233.583C101.687 232.098 105.069 230.303 108.328 228.344C108.658 228.138 108.348 227.602 108.018 227.808C97.149 234.387 84.4028 238.987 71.5534 236.594C68.0678 235.955 64.6853 234.779 61.5709 233.088C61.2409 232.902 60.9109 233.438 61.2615 233.624Z" fill="#161616"/>
<path d="M56.7027 231.913C58.1465 232.593 59.6315 233.171 61.1371 233.687C61.5084 233.81 61.6734 233.212 61.3021 233.088C59.8377 232.593 58.4146 232.037 57.0121 231.377C56.6409 231.212 56.3315 231.748 56.7027 231.913Z" fill="#161616"/>
<path d="M61.4475 98.3669C59.22 115.651 57.3637 132.975 56.1469 150.362C54.9506 167.667 54.3731 185.012 54.7444 202.358C54.9506 212.175 55.4456 221.993 56.2913 231.769C56.3325 232.161 56.9513 232.161 56.91 231.769C55.425 214.423 54.9919 197.016 55.4044 179.608C55.7963 162.263 56.9925 144.938 58.7044 127.654C59.6738 117.878 60.8081 108.102 62.0663 98.3462C62.1281 97.975 61.5094 97.975 61.4475 98.3669Z" fill="#161616"/>
<path d="M61.7973 98.799C62.9935 98.5515 64.1898 98.469 65.4273 98.5308C65.8192 98.5515 65.8192 97.9327 65.4273 97.9121C64.1485 97.8502 62.8904 97.9533 61.6323 98.2008C61.2404 98.2833 61.4054 98.8815 61.7973 98.799Z" fill="#161616"/>
<path d="M214.608 111.278C215.474 135.203 215.433 159.149 214.443 183.074C214.175 189.777 213.824 196.459 213.391 203.162C213.371 203.554 213.989 203.554 214.01 203.162C215.515 179.279 216.093 155.333 215.742 131.387C215.639 124.685 215.474 117.981 215.227 111.278C215.206 110.886 214.587 110.886 214.608 111.278Z" fill="#161616"/>
<path d="M224.611 102.698C225.436 119.343 225.849 136.028 225.828 152.693C225.828 169.358 225.416 186.044 224.591 202.688C224.137 212.114 223.539 221.519 222.817 230.924C222.796 231.315 223.415 231.315 223.436 230.924C224.714 214.3 225.581 197.655 226.055 180.99C226.509 164.325 226.571 147.64 226.22 130.975C226.014 121.55 225.684 112.124 225.23 102.698C225.209 102.306 224.591 102.306 224.611 102.698Z" fill="#161616"/>
<path d="M236.616 99.0269C237.771 116.331 238.473 133.677 238.658 151.043C238.844 168.471 238.555 185.878 237.771 203.286C237.338 213.042 236.74 222.797 235.977 232.532C235.956 232.924 236.575 232.924 236.596 232.532C237.916 215.228 238.782 197.882 239.133 180.537C239.483 163.129 239.36 145.701 238.741 128.273C238.39 118.517 237.895 108.762 237.235 99.0062C237.215 98.6144 236.596 98.6144 236.616 99.0269Z" fill="#161616"/>
<path d="M212.484 210.895C212.009 216.299 211.143 221.661 209.885 226.941C209.802 227.333 210.38 227.498 210.483 227.106C211.762 221.765 212.628 216.361 213.102 210.895C213.144 210.503 212.525 210.503 212.484 210.895Z" fill="#161616"/>
<path d="M72.1731 102.388C69.6981 119.692 68.6462 137.182 68.4812 154.652C68.3369 172.224 69.0587 189.776 70.1312 207.307C70.7294 217.228 71.4306 227.128 72.1319 237.049C72.1525 237.44 72.7712 237.44 72.7506 237.049C71.5131 219.579 70.2756 202.11 69.595 184.62C68.9144 167.171 68.8112 149.681 69.8219 132.232C70.3994 122.312 71.3481 112.391 72.7506 102.553C72.8331 102.182 72.235 101.996 72.1731 102.388Z" fill="#161616"/>
<path d="M84.0313 108.164C82.4638 124.891 81.4119 141.68 81.0613 158.489C80.7313 175.278 81.1232 192.067 82.5051 208.814C83.2682 218.116 84.3407 227.377 85.7432 236.596C85.805 236.988 86.4032 236.823 86.3413 236.431C83.8251 219.807 82.3813 203.019 81.845 186.209C81.3088 169.627 81.6182 153.003 82.5257 136.441C83.0413 127.016 83.7632 117.59 84.6501 108.185C84.6913 107.773 84.0726 107.773 84.0313 108.164Z" fill="#161616"/>
<path d="M95.9115 113.093C93.8902 128.706 92.7146 144.422 92.4052 160.159C92.0958 175.896 92.6321 191.654 94.014 207.329C94.7977 216.074 95.829 224.777 97.1284 233.461C97.1902 233.852 97.7884 233.687 97.7265 233.296C95.3958 217.744 93.9108 202.09 93.2715 186.394C92.6321 170.74 92.859 155.044 93.9108 139.39C94.509 130.604 95.3752 121.818 96.5096 113.073C96.5921 112.702 95.9733 112.702 95.9115 113.093Z" fill="#161616"/>
<path opacity="0.12" d="M231.996 100.428C234.285 109.771 236.142 120.723 236.76 132.995C238.307 164.221 230.965 189.734 224.571 206.111C220.054 213.35 215.558 220.589 211.041 227.829C215.434 229.726 221.952 231.933 230.078 232.593C235.688 233.047 240.555 232.634 244.35 232.016C244.392 231.108 245.072 217.31 245.114 216.402C247.362 170.182 247.506 167.026 247.589 163.85C247.96 150.918 247.898 132.356 245.691 109.194C244.928 105.255 244.165 101.315 243.402 97.3965C239.627 98.3865 235.812 99.3971 231.996 100.428Z" fill="#3F3F3F"/>
<path opacity="0.13" d="M88.0547 110.514C87.5184 112.762 86.714 116.124 85.7653 120.228C81.5578 138.543 78.464 152.011 76.814 164.407C73.8853 186.248 71.0597 207.41 83.1047 224.776C86.6109 229.829 90.4472 233.232 93.0047 235.253C90.5297 236.223 87.4565 237.11 83.8678 237.543C73.8853 238.718 65.8828 235.48 61.9641 233.541C60.4791 219.867 59.4478 205.223 59.1178 189.734C58.3753 155.455 61.1597 124.642 65.4084 98.1387C72.9366 102.264 80.4853 106.389 88.0547 110.514Z" fill="#3F3F3F"/>
<path d="M66.4177 88.3232C66.1495 88.5295 66.3558 89.3338 66.727 90.7157C66.8714 91.252 67.0158 91.6645 67.0983 91.9326C66.9333 93.0463 66.7889 94.1601 66.6239 95.2738C66.2939 95.3151 65.4483 95.5007 64.6645 96.1813C63.9427 96.8207 63.6539 97.5632 63.5508 97.8932C64.2108 97.9551 65.0152 98.0995 65.8814 98.3676C67.1395 98.7595 68.1295 99.2957 68.8514 99.7495C68.8514 99.997 68.8927 100.471 69.2227 100.822C69.5114 101.111 69.862 101.152 70.0683 101.193C70.8108 101.317 71.6977 101.482 72.832 101.73C73.327 102.018 74.152 102.493 75.1627 103.05C78.5864 104.906 79.8239 105.215 83.2477 107.03C85.4545 108.206 85.2689 108.247 86.8158 108.99C89.1877 110.145 91.2295 110.825 92.6114 111.217C93.1889 110.578 94.117 109.34 94.6327 107.546C95.0452 106.123 95.0245 104.885 94.942 104.081C95.2927 104.266 95.8495 104.473 96.4889 104.39C98.1389 104.205 99.1908 102.328 99.5208 100.987C99.8095 99.8113 99.5414 99.0688 99.3145 97.687C98.7989 94.5932 98.3452 91.8295 99.6239 90.0763C100.696 88.612 102.903 87.9313 104.677 85.972C104.842 85.7863 105.151 85.4357 105.048 85.2707C104.863 84.9613 103.419 85.4976 102.718 85.807C102.264 86.0132 98.8608 87.5807 97.8295 91.1282C97.6645 91.6851 97.6439 93.2938 97.6233 96.4907C97.6027 98.8213 97.6439 100.141 96.7158 100.905C96.2414 101.296 95.5402 101.523 94.9008 101.379C93.952 101.173 93.4983 100.245 93.0858 99.6257C92.0133 97.9963 90.487 97.3157 88.6102 96.3876C87.1458 95.6657 85.8877 95.3976 83.3508 94.8407C80.9583 94.3251 80.2364 94.387 79.2052 93.6238C78.0502 92.7576 77.4108 91.5407 77.0808 90.8601C76.7508 90.2207 76.2352 89.2101 76.0083 87.7663C75.8845 86.9207 75.9052 86.3226 75.6989 86.2813C75.3277 86.1988 75.142 87.9107 73.8839 88.5088C73.1208 88.8801 72.6258 88.5295 71.2852 88.5707C70.4189 88.5913 69.4289 88.777 68.3152 89.272C67.9439 89.0038 66.7889 88.0551 66.4177 88.3232Z" fill="black"/>
<path d="M67.0359 95.1093C66.6028 91.7061 69.6966 88.6124 73.1203 88.963C76.3584 89.293 78.5035 93.2323 78.4003 96.1817C78.3797 96.5736 78.9985 96.5736 79.0191 96.1817C79.1222 92.9229 76.6884 88.633 73.1203 88.3443C69.3666 88.0349 65.9428 91.3555 66.4172 95.1093C66.4791 95.4805 67.0978 95.5011 67.0359 95.1093Z" fill="black"/>
<path d="M66.974 97.2533C68.2322 99.7077 70.934 101.44 73.7597 101.069C76.3378 100.718 78.5241 98.6352 78.9159 96.0571C78.9778 95.6652 78.3797 95.5002 78.3178 95.8921C77.9672 98.2433 76.0284 100.141 73.6772 100.45C71.099 100.801 68.6653 99.1921 67.5103 96.9439C67.3247 96.5933 66.7884 96.9027 66.974 97.2533Z" fill="black"/>
<path d="M69.2014 100.244C69.1395 99.4602 71.367 99.1302 71.9239 99.0065C72.9345 98.7796 73.9658 98.6558 74.9971 98.6558C76.9152 98.6558 78.7508 99.1508 80.3802 100.161C80.7102 100.368 81.0402 99.8314 80.6896 99.6252C78.5858 98.3258 76.1314 97.8721 73.6977 98.099C72.4189 98.2227 71.1608 98.4908 69.9439 98.9033C69.2839 99.1302 68.5002 99.4189 68.562 100.244C68.6033 100.636 69.2427 100.636 69.2014 100.244Z" fill="black"/>
<path d="M78.0702 93.1093C79.3696 94.6768 81.4733 95.048 83.3502 95.4605C85.8458 96.038 88.4239 96.5537 90.6102 97.9355C95.127 100.782 95.9727 106.99 92.4045 110.971C92.1364 111.259 92.5695 111.713 92.8377 111.404C96.0139 107.877 96.0964 102.473 92.817 98.9668C91.0845 97.1105 88.6095 96.1412 86.1964 95.5018C83.7421 94.8624 80.2152 94.7593 78.4827 92.6555C78.2558 92.3668 77.8227 92.7999 78.0702 93.1093Z" fill="black"/>
<path d="M92.508 103.896C91.4767 102.535 89.6617 102.06 88.0736 102.72C86.1142 103.525 86.0111 105.938 86.238 107.773C86.2792 108.165 86.898 108.165 86.8567 107.773C86.6711 106.33 86.6505 104.102 88.1355 103.38C89.4142 102.741 91.0848 103.071 91.9511 104.226C92.1986 104.535 92.7348 104.226 92.508 103.896Z" fill="black"/>
<path d="M86.7743 107.484C85.64 106.618 84.4643 105.876 83 106.268C82.835 106.309 82.7525 106.494 82.7937 106.639C83.165 108.083 85.4337 108.681 86.63 109.196C88.4656 110.001 90.3425 110.681 92.24 111.279C92.6112 111.403 92.7762 110.805 92.405 110.681C90.8787 110.207 89.3937 109.691 87.9087 109.073C87.1043 108.743 86.3206 108.392 85.5368 108.021C84.8356 107.691 83.5775 107.299 83.3712 106.474C83.3093 106.598 83.2268 106.721 83.165 106.845C84.4437 106.494 85.4956 107.258 86.4443 108C86.7743 108.268 87.0837 107.732 86.7743 107.484Z" fill="black"/>
<path d="M68.6461 100.182C69.4505 101.502 71.0798 101.729 72.503 101.935C74.6067 102.245 76.7105 102.245 78.8142 102.018C79.2061 101.977 79.2061 101.358 78.8142 101.399C77.123 101.585 75.4317 101.626 73.7405 101.461C72.3173 101.317 70.028 101.234 69.1617 99.873C68.9761 99.5224 68.4398 99.8318 68.6461 100.182Z" fill="black"/>
<path d="M63.8392 98.0777C64.1073 96.634 65.3654 95.8915 66.7679 95.8296C66.6648 95.7471 66.5617 95.6852 66.4792 95.6027C66.5823 96.0977 66.7267 96.5721 66.9329 97.0259C67.0773 97.3971 67.6754 97.2321 67.5311 96.8609C67.3454 96.3865 67.2011 95.9327 67.0773 95.4377C67.0567 95.314 66.9123 95.2109 66.7886 95.2109C65.1386 95.2934 63.5711 96.2009 63.2617 97.9127C63.1792 98.3046 63.7773 98.4696 63.8392 98.0777Z" fill="black"/>
<path d="M67.4291 91.6849C67.1197 90.7981 66.8929 89.8699 66.8104 88.9212C66.8104 88.8387 66.7897 88.7562 66.7897 88.6737C66.7691 88.4881 66.7897 88.5087 66.8722 88.7356C67.0579 88.8593 67.2435 89.0037 67.4291 89.1481C67.7385 89.4162 68.0272 89.7049 68.2747 90.0143C68.5429 90.3237 68.976 89.8699 68.7079 89.5812C68.3572 89.1687 66.8929 87.4774 66.2741 88.1374C65.9647 88.4674 66.1916 89.2306 66.2535 89.6018C66.3566 90.3649 66.5629 91.1281 66.8104 91.8499C66.9754 92.2212 67.5735 92.0768 67.4291 91.6849Z" fill="black"/>
<path d="M74.399 88.798C74.5847 88.468 74.7703 88.138 74.9766 87.808C75.0591 87.6636 75.1416 87.5399 75.2034 87.3955C75.3272 87.1892 75.3272 87.0036 75.5747 87.0655C75.8634 87.1274 75.7603 87.808 75.7603 88.0555C75.7603 88.4474 75.7809 88.8392 75.7809 89.2311C75.7809 89.623 76.3997 89.623 76.3997 89.2311C76.3997 88.5917 76.4203 87.9524 76.3791 87.313C76.3584 86.9005 76.2141 86.4467 75.7603 86.3024C75.3478 86.1786 75.0591 86.4467 74.8528 86.7561C74.5022 87.313 74.1928 87.9111 73.8628 88.468C73.6565 88.8392 74.1928 89.1486 74.399 88.798Z" fill="black"/>
<path d="M94.1587 102.287C94.2825 103.854 96.0356 104.37 97.2525 103.607C99.0468 102.493 99.4387 99.9768 99.2118 98.0793C98.9025 95.4805 98.2837 93.0674 99.1706 90.4893C100.016 88.0349 102.12 86.0343 104.781 85.8693C105.172 85.8486 105.172 85.2299 104.781 85.2505C101.151 85.4774 98.6756 88.5711 98.16 91.9949C97.8506 94.0368 98.3043 95.9343 98.5725 97.9349C98.7375 99.2549 98.655 100.513 98.0568 101.73C97.7887 102.246 97.4175 102.761 96.9225 103.091C96.1593 103.566 94.8393 103.421 94.7568 102.307C94.7568 101.895 94.1381 101.874 94.1587 102.287Z" fill="black"/>
<path d="M94.4872 103.399C95.1265 105.111 97.354 104.348 98.3234 103.358C99.9115 101.749 99.5609 99.0682 99.4372 97.0263C99.4165 96.6345 98.7978 96.6345 98.8184 97.0263C98.9009 98.3257 99.0247 99.7282 98.7978 101.028C98.6947 101.646 98.4678 102.224 98.0553 102.719C97.6015 103.276 95.6215 104.678 95.0853 103.234C94.9409 102.863 94.3428 103.028 94.4872 103.399Z" fill="black"/>
<path d="M104.801 85.2293C102.449 86.1368 100.077 87.4155 99.1288 89.8905C98.0357 92.7367 98.8194 95.8305 98.7575 98.7799C98.7575 99.1717 99.3763 99.1717 99.3763 98.7799C99.4382 96.2017 98.8194 93.5617 99.4382 91.0042C100.119 88.1993 102.449 86.7968 104.966 85.8274C105.337 85.683 105.172 85.0849 104.801 85.2293Z" fill="black"/>
<path d="M104.326 85.58C102.16 86.57 100.18 88.3025 99.1693 90.5094C98.633 91.6644 98.7155 92.9431 98.7155 94.2012C98.7155 95.81 98.7774 97.4394 98.9011 99.0481C98.9218 99.44 99.5405 99.44 99.5199 99.0481C99.4374 97.7487 99.3755 96.47 99.3549 95.1706C99.3343 93.8094 99.1486 92.2006 99.6643 90.9219C100.551 88.7562 102.552 87.0856 104.635 86.1162C105.006 85.9512 104.697 85.415 104.326 85.58Z" fill="black"/>
<path d="M68.2537 93.0461C68.8312 94.0568 70.2955 93.7062 70.4399 92.5924C70.4605 92.3861 70.1512 92.4068 70.1305 92.5924C70.0274 93.438 68.9549 93.603 68.5218 92.9018C68.4187 92.7161 68.1505 92.8811 68.2537 93.0461Z" fill="white"/>
<path d="M72.6248 92.2431C73.2641 93.3362 74.8935 92.9031 74.9141 91.6449C74.9141 91.4387 74.6047 91.4387 74.6047 91.6449C74.5841 92.6143 73.3879 92.9237 72.8929 92.0987C72.7898 91.9131 72.5216 92.0574 72.6248 92.2431Z" fill="white"/>
<path d="M71.3884 93.6032C71.5327 94.2013 71.409 94.7994 71.0377 95.2944C70.914 95.4594 71.1821 95.6038 71.3058 95.4594C71.7183 94.9025 71.8421 94.2013 71.6977 93.5207C71.6359 93.335 71.3265 93.4175 71.3884 93.6032Z" fill="white"/>
<path d="M71.5117 93.5824C71.4498 94.3662 71.883 95.1087 72.6048 95.4387C72.7905 95.5212 72.9348 95.2531 72.7698 95.1706C72.1511 94.8818 71.7592 94.2631 71.8211 93.5824C71.8211 93.3762 71.5117 93.3762 71.5117 93.5824Z" fill="white"/>
<path d="M66.4791 95.4172C68.2941 95.2728 69.4491 96.7578 70.6659 97.8509C70.8103 97.9747 71.0372 97.7684 70.8928 97.624C69.6141 96.469 68.3766 94.9634 66.4791 95.0872C66.2934 95.1078 66.2934 95.4172 66.4791 95.4172Z" fill="white"/>
<path d="M69.8611 99.0482C72.1918 97.5632 74.9555 97.0682 77.6574 97.6664C77.843 97.7076 77.9255 97.4189 77.7399 97.3776C74.9555 96.7795 72.1093 97.2745 69.7168 98.8007C69.5311 98.8832 69.6961 99.1514 69.8611 99.0482Z" fill="white"/>
<path d="M75.7193 101.874C77.6374 101.998 79.4524 101.4 80.9168 100.142C81.0612 100.018 80.8549 99.791 80.6899 99.9147C79.2874 101.111 77.5549 101.688 75.7193 101.565C75.5337 101.565 75.5337 101.874 75.7193 101.874Z" fill="white"/>
<path d="M75.1615 87.2298C74.7078 87.993 74.6047 88.8798 74.8728 89.7254C74.9347 89.9111 75.2234 89.8286 75.1615 89.6429C74.914 88.8798 74.9965 88.0754 75.409 87.3948C75.5328 87.2092 75.2647 87.0442 75.1615 87.2298Z" fill="white"/>
<path d="M66.9947 89.1488C67.4897 89.4581 67.7991 89.9325 67.9229 90.4894C67.9641 90.675 68.2529 90.5925 68.2116 90.4069C68.0672 89.7675 67.696 89.2313 67.1391 88.8806C66.9741 88.7775 66.8297 89.0456 66.9947 89.1488Z" fill="white"/>
<path d="M77.9051 92.447C78.297 92.9213 78.7508 93.3338 79.2664 93.6432C79.4314 93.7464 79.5964 93.4782 79.4314 93.3751C78.9364 93.0657 78.4826 92.6738 78.132 92.2201C77.9876 92.0757 77.7814 92.3026 77.9051 92.447Z" fill="white"/>
<path d="M90.6308 102.575C90.1977 101.481 88.1145 102.224 87.4339 102.657C86.217 103.461 85.6808 104.967 86.1345 106.349C86.1964 106.535 86.4852 106.452 86.4233 106.266C86.0726 105.173 86.3614 103.998 87.2277 103.193C87.5989 102.843 88.0939 102.595 88.5889 102.471C88.9395 102.368 90.1358 102.141 90.3214 102.636C90.4039 102.843 90.6927 102.76 90.6308 102.575Z" fill="white"/>
<path d="M86.383 106.369C84.7742 105.689 83.0624 105.627 81.3917 106.142C81.2061 106.204 81.2886 106.493 81.4742 106.431C83.1036 105.916 84.733 105.998 86.3005 106.658C86.4861 106.741 86.5686 106.431 86.383 106.369Z" fill="white"/>
<path d="M143.041 192.147C142.195 194.169 142.195 195.674 142.071 199.552C141.927 204.337 141.514 209.101 141.473 213.866C141.432 217.887 141.37 223.972 141.205 231.892C147.805 232.263 155.106 232.346 163.026 231.954C170.575 231.582 177.546 230.819 183.837 229.871C180.867 219.826 178.908 212.504 177.505 206.832C176.763 203.801 175.669 199.263 172.658 193.962C171.008 191.054 169.296 188.868 168.038 187.404C167.708 187.115 160.428 180.989 152.013 183.877C151.6 184.042 145.474 186.269 143.041 192.147Z" fill="#EC615B"/>
<path d="M155.189 204.172C156.571 206.627 157.953 209.081 159.314 211.535C159.5 211.886 160.036 211.577 159.85 211.226C158.468 208.772 157.086 206.317 155.725 203.863C155.539 203.512 155.003 203.822 155.189 204.172Z" fill="#C64F4F"/>
<path d="M155.023 204.048C158.199 208.008 160.035 212.525 161.025 217.475C161.953 222.157 162.551 226.9 162.902 231.665C162.922 232.057 163.541 232.057 163.52 231.665C163.149 226.777 162.53 221.889 161.582 217.083C160.592 212.112 158.653 207.575 155.477 203.615C155.229 203.285 154.775 203.739 155.023 204.048Z" fill="#C64F4F"/>
<path opacity="0.19" d="M159.994 183.402C160.716 184.846 161.747 186.97 162.902 189.528C166.264 196.994 169.75 204.873 171.606 214.566C172.369 218.485 173.091 224.157 172.782 231.232C174.514 231.149 176.35 231.005 178.268 230.798C180.186 230.592 182.022 230.345 183.754 230.056C183.218 228.241 182.352 225.353 181.382 221.785C178.68 211.803 178.309 208.688 175.999 202.109C174.287 197.221 172.699 193.9 170.41 190.724C168.347 187.857 166.409 186.063 163.954 184.805C162.428 184.021 161.005 183.629 159.994 183.402Z" fill="#3F3F3F"/>
<path opacity="0.11" d="M155.064 204.275C155.869 207.286 156.57 210.875 156.9 214.918C157.478 221.909 156.735 227.87 155.828 232.325C158.199 232.181 160.551 232.036 162.923 231.892C162.675 227.21 162.139 223.271 161.623 220.28C160.324 212.669 158.963 209.844 157.869 208.029C156.838 206.358 155.807 205.1 155.064 204.275Z" fill="#3F3F3F"/>
<path d="M128.642 157.003C127.962 157.457 127.549 158.323 126.745 160.035C126.085 161.438 125.775 162.531 125.28 164.16C123.919 168.78 124.064 167.996 123.589 169.749C122.97 172.08 121.857 176.164 121.238 181.547C120.64 186.765 120.764 190.787 120.784 191.756C121.011 197.882 122.084 202.44 122.805 205.369C124.084 210.628 125.796 215.001 129.199 223.725C129.942 225.602 130.56 227.149 130.994 228.221C130.684 228.262 130.189 228.324 129.591 228.407C126.477 228.778 126.044 228.696 124.785 228.964C123.177 229.314 121.733 229.665 121.176 230.882C120.929 231.439 120.825 232.222 121.135 232.491C121.527 232.821 122.29 232.078 123.61 231.645C124.724 231.294 125.714 231.315 126.394 231.418C125.858 232.47 125.549 233.419 125.363 234.099C124.909 235.667 124.559 236.946 125.136 237.853C125.425 238.307 125.982 238.719 126.435 238.596C126.683 238.534 126.91 238.307 127.529 236.677C128.127 235.048 128.168 234.532 128.663 233.893C129.096 233.357 129.591 233.068 129.921 232.903C129.756 233.419 129.57 234.182 129.488 235.11C129.447 235.667 129.385 236.182 129.488 236.842C129.57 237.441 129.756 238.719 130.705 239.421C130.87 239.544 131.55 240.06 131.963 239.792C132.314 239.586 132.21 239.008 132.355 237.152C132.479 235.584 132.602 235.151 132.705 234.904C132.974 234.182 133.386 233.666 133.695 233.357C133.592 234.842 133.613 236.079 133.654 236.987C133.737 238.451 133.881 239.111 134.355 239.524C134.624 239.751 135.077 239.977 135.449 239.812C135.82 239.647 135.944 239.132 136.047 238.492C136.5 236.079 136.232 235.378 136.748 234.161C136.954 233.687 137.181 233.109 137.738 232.697C138.914 231.831 140.584 232.346 140.811 232.408C141.801 232.717 142.172 233.254 142.667 233.027C143.08 232.841 143.307 232.243 143.327 231.748C143.348 230.531 142.007 229.603 140.852 228.84C140.275 228.448 139.409 227.932 138.254 227.52C137.243 225.519 135.964 222.611 134.912 218.919C134.211 216.444 133.881 214.547 133.572 212.752C132.479 206.462 132.87 204.049 131.654 197.799C131.365 196.294 131.076 195.097 130.911 194.417C130.994 193.386 131.138 191.777 131.344 189.817C132.025 183.424 132.479 179.423 133.86 174.72C134.954 171.028 136.067 167.996 136.067 167.996C137.47 164.222 137.924 163.706 137.759 162.489C137.181 158.653 131.179 155.312 128.642 157.003Z" fill="white"/>
<path d="M127.055 158.963C123.384 167.44 121.074 176.495 120.579 185.735C120.063 195.16 121.692 204.38 124.745 213.29C126.477 218.384 128.581 223.334 130.726 228.284C130.891 228.655 131.407 228.325 131.262 227.975C127.55 219.395 123.92 210.691 122.187 201.492C120.476 192.417 120.826 183.033 122.806 174.02C123.92 168.966 125.529 164.037 127.591 159.293C127.736 158.922 127.22 158.592 127.055 158.963Z" fill="#161616"/>
<path d="M134.749 170.74C132.15 178.598 130.789 186.828 130.645 195.098C130.645 195.49 131.263 195.49 131.263 195.098C131.408 186.869 132.769 178.722 135.347 170.905C135.471 170.534 134.873 170.369 134.749 170.74Z" fill="#161616"/>
<path d="M128.479 191.343C130.314 193.901 131.057 196.953 131.49 200.006C131.944 203.12 132.15 206.276 132.604 209.39C133.511 215.722 134.996 222.033 137.987 227.705C138.172 228.056 138.709 227.747 138.523 227.396C135.409 221.497 133.944 214.918 133.078 208.359C132.315 202.605 132.542 195.943 129.015 191.034C128.788 190.725 128.252 191.034 128.479 191.343Z" fill="#161616"/>
<path d="M130.643 227.994C128.725 228.097 126.807 228.283 124.93 228.634C123.589 228.902 122.166 229.335 121.238 230.407C120.702 231.047 120.021 232.573 121.197 233.006C121.712 233.192 122.166 232.841 122.599 232.594C123.672 231.975 124.785 231.336 126.064 231.686C126.456 231.789 126.621 231.191 126.229 231.088C125.177 230.799 124.229 231.047 123.28 231.521C122.991 231.666 122.723 231.81 122.455 231.975C122.29 232.057 122.145 232.161 121.98 232.264C121.795 231.934 121.589 231.604 121.403 231.274C121.444 230.758 122.475 230.16 122.847 229.954C123.857 229.417 125.033 229.232 126.147 229.067C127.652 228.84 129.158 228.696 130.664 228.613C131.055 228.592 131.055 227.974 130.643 227.994Z" fill="#161616"/>
<path d="M128.952 229.83C127.323 230.098 125.982 231.212 125.363 232.718C124.703 234.285 124.146 236.616 124.909 238.225C125.487 239.442 126.91 239.875 127.446 238.39C127.776 237.462 127.714 236.451 128.044 235.523C128.457 234.368 129.158 233.378 130.189 232.697C130.52 232.47 130.21 231.934 129.88 232.161C128.911 232.8 128.189 233.667 127.714 234.718C127.467 235.255 127.281 235.812 127.158 236.389C127.054 236.863 126.993 239.256 125.858 238.555C125.219 238.163 125.157 236.905 125.178 236.265C125.219 235.317 125.466 234.223 125.776 233.316C126.291 231.79 127.508 230.697 129.096 230.428C129.509 230.367 129.344 229.768 128.952 229.83Z" fill="#161616"/>
<path d="M130.89 231.355C129.612 232.18 129.158 233.975 129.034 235.418C128.91 236.965 129.343 238.636 130.498 239.729C131.179 240.368 132.231 240.698 132.417 239.502C132.726 237.502 131.922 234.676 134.108 233.48C134.458 233.294 134.149 232.758 133.798 232.943C133.015 233.377 132.52 234.078 132.21 234.923C131.777 236.161 132.025 237.419 131.839 238.698C131.757 239.275 131.592 239.894 130.952 239.296C130.725 239.09 130.519 238.822 130.354 238.553C129.962 237.935 129.735 237.233 129.673 236.512C129.529 235.068 129.9 232.758 131.22 231.892C131.53 231.665 131.22 231.128 130.89 231.355Z" fill="#161616"/>
<path d="M133.82 233.007C133.428 234.492 133.057 236.038 133.305 237.585C133.408 238.328 133.841 240.143 134.789 240.328C135.862 240.535 136.295 238.637 136.398 237.936C136.625 236.41 136.336 234.574 137.533 233.398C137.821 233.11 137.388 232.677 137.099 232.965C135.656 234.388 136.151 236.451 135.718 238.266C135.573 238.926 135.161 239.916 134.48 239.153C134.109 238.761 134.006 237.998 133.923 237.482C133.717 236.038 134.068 234.595 134.439 233.192C134.521 232.8 133.923 232.635 133.82 233.007Z" fill="#161616"/>
<path d="M138.275 228.057C139.492 228.552 140.75 229.088 141.699 230.037C142.132 230.47 142.668 231.13 142.792 231.749C143.101 233.461 141.822 232.368 141.348 232.161C140.049 231.584 137.47 231.996 136.728 233.316C136.542 233.667 137.079 233.976 137.264 233.626C137.656 232.904 138.729 232.718 139.471 232.615C139.925 232.553 140.44 232.512 140.874 232.636C141.369 232.78 141.678 233.213 142.152 233.358C142.833 233.564 143.349 233.09 143.452 232.43C143.637 231.357 142.709 230.161 141.987 229.46C140.977 228.49 139.677 227.954 138.399 227.438C138.069 227.315 137.924 227.913 138.275 228.057Z" fill="#161616"/>
<path opacity="0.13" d="M134.109 164.079C131.737 164.223 130.314 170.287 129.53 173.649C128.643 177.423 127.839 182.62 128.004 190.19C128.148 196.955 129.015 202.111 129.303 203.905C130.603 211.619 132.645 218.095 134.645 223.169C135.305 225.025 135.945 226.882 136.605 228.717C136.233 230.244 135.862 231.811 135.512 233.44C135.058 235.585 134.645 237.689 134.315 239.71C134.707 239.752 135.243 239.731 135.615 239.36C136.089 238.885 136.027 238.122 136.048 237.462C136.068 236.844 136.13 233.853 137.471 232.739C138.296 232.059 139.616 232.059 140.523 232.389C141.452 232.739 141.864 233.42 142.483 233.214C142.957 233.069 143.287 232.492 143.349 232.038C143.555 230.532 140.668 228.985 140.193 228.738C139.265 228.243 138.832 228.181 138.234 227.562C137.492 226.779 137.244 225.85 137.141 225.438C135.429 218.92 134.583 219.333 133.428 211.846C132.562 206.195 133.119 206.525 132.232 202.029C131.613 198.852 131.098 197.553 130.933 194.81C130.747 191.799 131.098 189.447 131.469 187.364C133.016 178.846 135.986 168.534 136.708 166.079C136.048 165.048 135.14 164.017 134.109 164.079Z" fill="#3F3F3F"/>
<path d="M176.203 79.2889C175.564 79.2683 175.069 80.4233 174.945 80.7326C174.76 81.1864 174.471 82.0733 174.677 83.3314C174.677 83.3314 174.801 84.1976 175.213 89.4364C175.316 90.612 175.337 92.3239 175.028 94.4689C174.203 96.7376 173.419 98.5114 172.883 99.6664C171.068 103.544 169.851 105.091 167.314 110C166.365 111.835 166.283 112.124 165.169 114.393C162.385 120.023 160.343 123.55 158.26 127.325C156.424 130.624 153.846 135.471 150.814 141.7C150.67 142.236 149.948 145.103 151.618 147.619C153.392 150.28 157.105 151.476 160.693 150.321C161.25 149.537 162.034 148.32 162.756 146.732C163.457 145.185 163.787 143.989 164.014 143.226C164.241 142.463 165.148 139.885 166.984 134.687C167.561 133.079 168.263 131.16 169.686 127.407C171.851 121.653 172.924 118.786 173.646 116.991C175.275 112.908 176.513 110.082 178.946 104.596C180.225 101.708 181.793 98.2226 183.608 94.2626C184.66 93.6645 186.103 92.7364 187.65 91.3957C189.878 89.4776 190.991 87.8483 193.136 84.7545C194.518 82.7333 195.57 80.9595 195.281 79.1858C195.24 78.9383 195.137 78.2164 194.745 78.1133C194.25 77.9689 193.631 78.9589 192.951 79.8251C192.25 80.712 191.198 81.867 189.63 83.0633C190.166 81.5783 190.703 80.4233 191.074 79.6601C191.92 77.9276 192.621 76.8139 193.054 74.8958C193.528 72.8539 193.095 72.4826 192.971 72.3795C192.415 71.967 191.466 72.7508 190.909 72.297C190.414 71.8639 190.847 70.9151 190.455 70.6883C190.063 70.4614 189.197 71.142 188.578 71.8639C187.506 73.1014 187.258 74.2976 186.866 75.4526C186.495 76.587 185.815 78.1339 184.536 79.8458C184.226 79.887 183.814 79.9076 183.628 79.6601C183.422 79.3714 183.711 78.897 183.979 78.1339C184.041 77.9483 184 78.0514 184.433 76.1539C184.598 75.432 184.907 74.0914 185.155 73.0189C185.505 71.472 185.67 70.8326 185.34 70.152C185.278 70.0076 185.01 69.4508 184.618 69.4301C184.165 69.4095 183.814 70.1314 183.546 70.6883C182.453 72.9364 181.896 74.0708 181.751 74.4626C181.03 76.422 180.06 79.4126 179.916 80.4439C179.895 80.5676 179.854 81.0008 179.648 81.5576C179.545 81.8258 179.483 81.9289 179.421 82.0939C178.905 83.2489 179.338 84.012 178.802 84.4245C178.74 84.4658 178.431 84.6926 178.183 84.6101C177.915 84.5276 177.791 84.177 177.647 83.0014C177.441 81.3926 177.565 80.9183 177.193 80.217C176.946 79.9076 176.636 79.3095 176.203 79.2889Z" fill="white"/>
<path d="M175.215 88.8372C175.359 87.3316 175.132 85.8672 175.05 84.3616C175.008 83.6397 175.008 82.8972 175.111 82.1753C175.173 81.7628 175.256 81.3503 175.38 80.9584C175.586 80.3603 175.606 79.8653 176.266 79.8447C176.885 79.8241 176.844 80.1953 176.947 80.7109C177.05 81.1647 177.071 81.6391 177.091 82.0928C177.133 82.7322 177.153 83.3922 177.298 84.0109C177.442 84.6503 177.834 85.1866 178.556 84.9597C178.927 84.8359 178.783 84.2378 178.391 84.3616C177.669 84.5678 177.731 82.1341 177.69 81.7216C177.628 81.0616 177.566 80.3809 177.318 79.7622C176.968 78.8959 176.163 78.4628 175.483 79.2672C174.596 80.2984 174.41 82.1547 174.41 83.4334C174.41 85.2484 174.761 87.0222 174.596 88.8372C174.575 89.2291 175.194 89.2291 175.215 88.8372Z" fill="#161616"/>
<path d="M178.803 84.7127C179.835 82.7121 180.144 80.4433 180.742 78.2983C181.381 75.9883 182.186 73.7196 183.382 71.6571C183.65 71.2033 183.918 70.564 184.31 70.2133C185.073 69.5121 185.073 70.8527 185.011 71.4302C184.888 72.709 184.558 74.0083 184.269 75.2665C184.001 76.4215 183.63 77.5352 183.361 78.6902C183.217 79.3296 183.217 79.8865 183.671 80.3815C183.939 80.6702 184.372 80.2371 184.104 79.9483C183.588 79.3915 184.125 78.2777 184.29 77.6796C184.475 76.999 184.661 76.3183 184.805 75.6377C185.094 74.3796 185.383 73.1008 185.568 71.8015C185.671 71.1208 185.816 69.9246 185.218 69.409C184.702 68.9758 184.186 69.3883 183.836 69.8008C182.33 71.6777 181.402 74.1527 180.66 76.4215C179.814 79.0408 179.546 81.9696 178.267 84.424C178.081 84.754 178.618 85.0633 178.803 84.7127Z" fill="#161616"/>
<path d="M183.815 80.4433C184.434 80.5052 184.66 80.0515 184.949 79.5565C185.403 78.7727 185.815 77.9477 186.207 77.1433C186.97 75.5758 187.507 73.864 188.435 72.3996C188.641 72.0696 188.889 71.6571 189.219 71.4096C189.487 71.1002 189.837 70.9971 190.291 71.1415C190.353 71.4302 190.394 71.719 190.394 72.0077C190.415 73.0183 190.085 74.029 189.734 74.9777C189.033 76.8546 188.249 78.7108 187.486 80.5877C187.342 80.959 187.94 81.124 188.084 80.7527C188.517 79.6802 192.972 70.2752 190.064 70.2133C189.487 70.1927 188.827 70.9146 188.497 71.3065C187.919 71.9871 187.507 72.7708 187.135 73.5752C186.702 74.5446 186.31 75.514 185.857 76.4627C185.589 77.0402 185.279 77.6383 184.99 78.1952C184.805 78.5665 184.351 79.8452 183.835 79.804C183.423 79.7833 183.423 80.4021 183.815 80.4433Z" fill="#161616"/>
<path d="M191.116 72.8537C191.343 71.6575 192.643 72.4825 192.808 73.2456C192.952 73.885 192.704 74.5243 192.498 75.1225C192.189 76.03 191.838 76.9168 191.467 77.7831C190.745 79.4743 189.899 81.0831 188.951 82.6712C188.744 83.0218 189.281 83.3312 189.487 82.9806C190.374 81.5162 191.158 79.99 191.859 78.4431C192.457 77.1025 193.179 75.6175 193.406 74.1531C193.55 73.225 193.282 72.0287 192.251 71.6987C191.488 71.4512 190.663 71.9256 190.518 72.7093C190.456 73.0806 191.054 73.2456 191.116 72.8537Z" fill="#161616"/>
<path d="M189.92 83.2272C190.704 82.3403 191.467 81.4534 192.251 80.5665C192.663 80.0922 193.035 79.5765 193.488 79.164C193.633 79.0403 193.777 78.9372 193.901 78.8134C194.251 78.9372 194.602 79.0609 194.973 79.1847C195.076 79.3703 194.829 79.9065 194.767 80.0715C194.128 82.0309 193.2 83.8872 192.106 85.6196C189.9 89.1053 186.868 92.034 183.32 94.1584C182.969 94.3646 183.299 94.9009 183.629 94.6946C188.043 92.0546 191.673 88.1771 193.963 83.5778C194.52 82.464 195.056 81.2884 195.406 80.0922C195.613 79.3909 195.736 78.4422 194.932 78.0709C194.148 77.6997 193.323 78.4215 192.828 78.9372C191.653 80.154 190.58 81.5153 189.466 82.794C189.219 83.0828 189.652 83.5159 189.92 83.2272Z" fill="#161616"/>
<path d="M174.678 88.1982C174.822 90.0957 174.966 92.0345 174.657 93.932C174.348 95.8089 173.564 97.5413 172.698 99.2326C170.944 102.656 169.109 106.039 167.314 109.442C163.726 116.248 160.137 123.034 156.548 129.84C154.486 133.738 152.423 137.657 150.361 141.555C150.175 141.905 150.711 142.215 150.897 141.864C158.301 127.819 165.85 113.835 173.131 99.707C173.997 98.0363 174.801 96.3245 175.152 94.4888C175.564 92.4057 175.42 90.302 175.255 88.1982C175.276 87.8063 174.657 87.8063 174.678 88.1982Z" fill="#161616"/>
<path d="M183.278 94.0156C176.678 107.958 170.924 122.231 165.85 136.791C164.365 141.02 162.88 145.248 161.086 149.352C160.921 149.723 161.457 150.033 161.622 149.661C164.695 142.67 166.943 135.348 169.583 128.212C172.285 120.869 175.214 113.589 178.328 106.411C180.102 102.348 181.917 98.3262 183.815 94.325C183.98 93.9743 183.443 93.665 183.278 94.0156Z" fill="#161616"/>
<path opacity="0.1" d="M192.601 72.6067C191.756 72.4829 190.621 75.9479 189.961 77.6804C187.961 83.0017 186.269 83.6204 181.979 90.8392C180.391 93.4998 178.205 97.501 175.998 102.719C169.398 116.62 162.819 130.542 156.219 144.443C157.828 146.403 159.416 148.383 161.024 150.342C161.829 148.053 163.004 144.691 164.469 140.628C167.129 133.306 170.574 123.88 175.441 112.413C177.38 107.875 180.061 101.75 183.506 94.5517C184.454 93.9535 185.774 93.0254 187.218 91.7467C189.157 90.0554 191.714 87.766 193.468 84.0329C194.024 82.8779 194.726 81.1042 195.097 78.7735C194.829 78.6498 194.437 78.5054 194.004 78.5879C193.261 78.7323 192.869 79.4542 192.56 79.9492C191.364 81.7848 189.611 83.0017 189.384 82.8573C189.26 82.7542 189.611 82.156 190.559 80.2173C192.498 76.2367 191.694 77.2885 192.457 75.9479C192.89 75.1848 193.323 74.5248 193.179 73.6792C193.179 73.3079 192.952 72.6685 192.601 72.6067Z" fill="#3F3F3F"/>
<path opacity="0.13" d="M191.343 86.6719C190.312 87.3319 188.848 88.3013 187.177 89.58C185.259 91.0238 183.196 92.5913 181.464 94.5713C179.113 97.2525 178.081 99.9131 177.463 101.46C171.791 115.939 165.046 131.655 163.128 136.027C162.076 138.42 160.426 142.029 158.24 146.36C159.23 147.66 160.241 148.959 161.231 150.258C164.077 141.575 167.356 132.48 171.11 123.054C175.153 112.927 179.34 103.461 183.547 94.6538C184.681 93.8906 185.96 92.9213 187.26 91.6631C189.095 89.91 190.415 88.1363 191.343 86.6719Z" fill="#3F3F3F"/>
<path d="M136.501 146.381C135.738 146.897 134.026 148.093 132.273 150.032C130.458 152.032 129.406 153.909 128.54 155.497C127.859 156.714 127.364 157.787 127.014 158.57C127.55 159.602 128.416 161.19 129.612 163.087C131.737 166.449 133.387 168.264 136.233 171.915C137.429 173.441 139.162 175.73 141.224 178.618C141.554 180.165 141.843 181.794 142.091 183.506C142.586 187.012 142.771 190.271 142.771 193.2C143.534 194.025 144.854 195.221 146.793 196.067C150.011 197.49 152.939 197.077 154.466 196.83C157.848 196.314 160.158 194.808 161.746 193.757C164.634 191.859 166.593 189.59 167.892 187.713C167.624 184.496 167.274 181.175 166.841 177.731C166.469 174.802 166.057 171.956 165.603 169.192C165.562 167.027 165.356 164.077 164.654 160.653C164.077 157.787 163.376 154.445 161.292 150.485C158.694 145.556 155.456 142.565 154.197 141.472C153.084 140.503 152.073 139.781 151.331 139.265C148.319 141.183 145.721 142.38 143.947 143.102C140.647 144.463 139.1 144.669 136.501 146.381Z" fill="white"/>
<path d="M127.343 158.652C127.983 156.218 129.756 153.949 131.283 151.969C132.891 149.907 134.706 148.03 136.872 146.524C137.202 146.298 136.893 145.761 136.563 145.988C134.335 147.535 132.458 149.453 130.808 151.578C129.22 153.619 127.426 155.929 126.766 158.466C126.663 158.879 127.261 159.023 127.343 158.652Z" fill="#161616"/>
<path d="M126.89 158.858C131.139 166.283 136.171 173.254 141.885 179.627C142.153 179.916 142.586 179.483 142.318 179.194C136.646 172.862 131.655 165.932 127.426 158.548C127.22 158.198 126.684 158.507 126.89 158.858Z" fill="#161616"/>
<path d="M144.339 143.39C146.649 141.761 149.186 140.544 151.888 139.76C152.28 139.657 152.115 139.059 151.723 139.162C148.959 139.966 146.381 141.204 144.03 142.854C143.7 143.081 144.009 143.617 144.339 143.39Z" fill="#161616"/>
<path d="M151.372 139.925C161.231 146.793 165.459 158.838 164.985 170.491C164.964 170.883 165.583 170.883 165.604 170.491C166.099 158.59 161.726 146.38 151.682 139.389C151.372 139.162 151.063 139.698 151.372 139.925Z" fill="#161616"/>
<path d="M140.544 178.411C141.616 180.618 141.74 183.361 141.967 185.754C142.214 188.187 142.297 190.642 142.297 193.096C142.297 193.488 142.916 193.488 142.916 193.096C142.936 190.374 142.813 187.651 142.503 184.949C142.256 182.66 142.091 180.185 141.08 178.081C140.894 177.73 140.379 178.04 140.544 178.411Z" fill="#161616"/>
<path d="M142.689 193.22C145.783 197.015 151.063 198.087 155.662 196.911C158.22 196.251 160.592 194.993 162.716 193.426C164.841 191.858 166.862 190.043 168.058 187.651C168.244 187.3 167.707 186.991 167.522 187.341C166.367 189.631 164.428 191.384 162.386 192.89C160.406 194.354 158.199 195.55 155.807 196.231C151.311 197.489 146.134 196.52 143.102 192.786C142.875 192.477 142.442 192.91 142.689 193.22Z" fill="#161616"/>
<path d="M165.212 169.563C166.222 175.606 167.212 181.649 167.563 187.754C167.583 188.146 168.202 188.146 168.181 187.754C167.81 181.587 166.82 175.482 165.81 169.398C165.748 169.006 165.15 169.171 165.212 169.563Z" fill="#161616"/>
<path opacity="0.13" d="M145.123 142.565C147.412 145.267 150.547 149.474 153.167 155.167C157.003 163.499 157.766 170.697 158.344 176.823C158.797 181.484 159.045 187.981 158.137 195.736C159.891 194.973 162.366 193.653 164.758 191.363C166.078 190.085 167.068 188.806 167.811 187.692C167.13 181.938 166.449 176.163 165.769 170.408C165.892 165.665 165.15 161.828 164.449 159.23C162.283 151.186 158.117 146.009 156.714 144.38C154.796 142.132 152.919 140.482 151.537 139.388C149.392 140.461 147.268 141.513 145.123 142.565Z" fill="#3F3F3F"/>
<path opacity="0.14" d="M160.487 149.784C160.116 149.887 160.982 153.249 161.807 158.219C161.807 158.219 163.065 165.768 163.333 173.069C163.519 177.895 163.271 184.949 161.106 193.715C162.096 193.22 163.313 192.498 164.571 191.487C166.097 190.25 167.19 188.95 167.932 187.919C167.664 179.607 166.963 175.297 166.303 172.863C166.179 172.389 165.849 171.275 165.581 169.707C165.086 166.779 165.334 165.52 165.066 163.087C164.859 161.148 164.468 159.869 163.746 157.497C162.653 153.929 160.899 149.66 160.487 149.784Z" fill="#3F3F3F"/>
<path d="M136.212 112.452C134.851 113.215 133.119 114.37 131.448 116.124C127.983 119.815 126.869 123.94 126.477 125.982C126.168 125.941 125.322 125.879 124.642 126.415C123.631 127.199 123.611 128.746 124.002 129.653C124.147 129.983 124.353 130.251 124.786 130.788C125.302 131.427 125.632 131.819 126.168 132.046C126.395 132.149 126.911 132.293 127.653 132.128C127.88 132.809 128.251 133.758 128.808 134.851C129.53 136.253 130.623 138.336 132.809 140.151C133.449 140.688 134.439 141.389 135.779 142.028C136.274 142.668 137.182 144.008 137.285 145.823C137.491 149.02 135.161 151.681 132.954 152.856C129.117 154.898 124.951 152.856 123.425 152.093C122.6 151.681 118.454 149.536 116.722 144.833C114.618 139.161 117.361 133.49 118.991 130.107C120.641 126.704 121.404 126.931 122.662 123.61C124.332 119.217 123.446 117.67 125.364 114.309C126.106 112.989 127.612 110.349 130.767 109.111C133.469 108.059 135.965 108.595 137.037 108.905C137.924 108.369 139.492 107.605 141.472 107.605C146.174 107.605 149.186 112.06 149.907 113.133C152.052 116.289 150.918 117.258 152.836 121.692C155.249 127.282 157.6 126.952 159.766 132.19C160.818 134.748 162.571 138.976 160.632 143.018C158.632 147.185 154.074 148.401 153.496 148.546C152.444 148.814 149.619 149.515 146.793 148.01C146.525 147.865 142.977 145.926 142.689 142.606C142.586 141.389 142.936 140.255 143.019 140.007C143.452 138.666 144.194 137.8 144.421 137.511C145.308 136.418 146.381 134.397 147.123 130.375C147.474 130.355 148.051 130.272 148.629 129.942C149.846 129.241 150.423 127.818 150.361 126.58C150.34 126.292 150.258 124.642 149.062 124.085C148.567 123.858 148.051 123.92 147.762 123.982C143.926 120.104 140.069 116.289 136.212 112.452Z" fill="#11345C"/>
<path d="M136.213 112.432C133.924 113.772 132.336 115.257 131.325 116.35C127.963 120.001 126.891 123.817 126.664 124.703C126.52 125.26 126.416 125.714 126.375 126.044C126.148 125.962 125.633 125.817 125.117 126.044C124.333 126.395 124.168 127.343 124.086 127.818C123.88 128.911 124.292 129.777 124.457 130.107C124.684 130.581 125.055 131.344 125.942 131.736C126.664 132.066 127.345 131.943 127.633 131.881C127.922 132.623 128.335 133.654 128.974 134.83C129.943 136.686 130.851 138.398 132.604 139.924C133.285 140.523 134.398 141.348 136.007 141.987C136.337 142.503 136.791 143.307 137.038 144.359C137.245 145.184 137.286 145.885 137.265 146.421C137.801 146.689 138.812 147.102 140.07 147.081C142.483 147.04 144.071 145.534 144.443 145.163C144.051 143.988 143.7 142.544 143.556 140.873C143.494 140.11 143.473 139.388 143.473 138.728C144.113 138.048 144.896 137.078 145.536 135.779C146.67 133.531 146.856 131.448 146.876 130.231C147.165 130.272 147.743 130.334 148.361 130.086C149.228 129.736 149.62 128.973 149.846 128.54C149.908 128.437 150.775 126.663 149.991 124.91C149.805 124.518 149.496 123.796 148.877 123.734C148.423 123.693 148.052 124.043 147.908 124.188C147.062 123.177 145.474 121.3 143.246 118.722C141.328 116.474 140.111 115.072 138.07 113.628C137.327 113.092 136.667 112.7 136.213 112.432Z" fill="white"/>
<path d="M133.366 134.315C133.16 134.79 134.129 135.635 134.583 135.986C135.532 136.687 136.543 136.79 136.914 136.811C137.347 136.852 138.77 136.955 140.069 136.027C140.379 135.8 141.245 135.202 141.575 134.089C141.802 133.284 141.74 132.17 141.307 131.985C140.977 131.861 140.668 132.274 139.966 132.769C138.729 133.614 137.45 133.82 136.357 133.985C134.501 134.274 133.573 133.903 133.366 134.315Z" fill="black"/>
<path d="M126.828 129.551C127.571 132.645 128.767 135.676 130.747 138.193C132.5 140.441 135.099 142.606 138.131 142.318C140.936 142.05 143.225 139.863 144.71 137.636C146.463 135.037 147.309 131.923 147.226 128.788C147.206 128.396 146.587 128.396 146.608 128.788C146.69 131.655 145.948 134.46 144.442 136.893C143.019 139.183 140.668 141.596 137.801 141.72C134.769 141.843 132.273 139.368 130.665 137.058C129.056 134.748 128.066 132.088 127.406 129.365C127.323 128.994 126.725 129.159 126.828 129.551Z" fill="#161616"/>
<path d="M135.593 142.028C136.46 143.348 136.893 144.792 136.893 146.38C136.893 146.772 137.511 146.772 137.511 146.38C137.511 144.709 137.037 143.121 136.13 141.718C135.923 141.368 135.387 141.677 135.593 142.028Z" fill="#161616"/>
<path d="M137.182 146.628C139.698 148.072 142.957 147.37 144.668 145.06C144.916 144.751 144.38 144.442 144.132 144.751C142.606 146.793 139.677 147.37 137.491 146.092C137.14 145.906 136.831 146.442 137.182 146.628Z" fill="#161616"/>
<path d="M143.121 139.264C143.142 141.141 143.43 142.997 144.029 144.792C144.152 145.163 144.75 144.998 144.627 144.627C144.07 142.874 143.76 141.1 143.74 139.264C143.74 138.852 143.121 138.852 143.121 139.264Z" fill="#161616"/>
<path d="M127.448 131.509C127.18 131.798 126.52 131.695 126.21 131.53C125.963 131.406 125.736 131.22 125.55 131.035C125.138 130.643 124.808 130.169 124.601 129.653C124.189 128.684 124.003 125.899 125.839 126.394C126.231 126.498 126.396 125.899 126.004 125.796C123.735 125.198 123.385 128.209 123.962 129.715C124.416 130.932 126.499 133.448 127.901 131.942C128.149 131.654 127.716 131.22 127.448 131.509Z" fill="#161616"/>
<path d="M148.175 124.292C148.422 123.467 149.495 125.055 149.619 125.344C149.866 126.004 149.949 126.726 149.846 127.427C149.681 128.829 148.567 130.17 147.02 129.778C146.628 129.675 146.463 130.273 146.855 130.376C149.351 131.015 150.691 128.417 150.464 126.292C150.361 125.364 149.99 124.168 149.103 123.673C148.526 123.364 147.783 123.446 147.577 124.106C147.453 124.519 148.051 124.663 148.175 124.292Z" fill="#161616"/>
<path d="M129.655 119.919C130.335 118.619 131.532 117.774 132.975 117.568C133.367 117.506 133.202 116.908 132.81 116.969C131.222 117.196 129.861 118.186 129.119 119.609C128.933 119.96 129.469 120.269 129.655 119.919Z" fill="#161616"/>
<path d="M139.182 116.743C140.915 116.33 142.647 117.196 143.431 118.764C143.616 119.115 144.132 118.805 143.967 118.455C143.06 116.619 140.997 115.67 139.017 116.145C138.625 116.248 138.79 116.846 139.182 116.743Z" fill="#161616"/>
<path d="M134.686 119.279C135.078 121.465 135.181 123.714 134.954 125.941C134.872 126.622 134.542 127.591 134.851 128.272C135.181 129.014 136.068 129.653 136.625 130.231C136.893 130.52 137.347 130.086 137.058 129.798C136.687 129.406 136.316 129.035 135.944 128.643C135.367 128.045 135.305 127.859 135.429 126.993C135.532 126.209 135.635 125.405 135.676 124.6C135.759 122.765 135.614 120.929 135.284 119.135C135.222 118.722 134.624 118.887 134.686 119.279Z" fill="#161616"/>
<path d="M132.087 124.579C131.778 124.084 131.633 123.548 131.675 122.971C131.675 122.847 131.757 122.311 131.86 122.29C131.922 122.29 132.025 123.012 132.046 123.094C132.087 123.362 132.108 123.651 132.108 123.919C132.108 124.002 132.087 124.682 132.087 124.27C132.066 123.672 132.108 123.074 132.128 122.476C131.922 122.496 131.716 122.537 131.53 122.558C131.633 123.197 131.695 123.837 131.695 124.497C131.901 124.497 132.108 124.497 132.314 124.497C132.314 124.414 132.314 124.332 132.314 124.249C132.314 123.857 131.695 123.857 131.695 124.249C131.695 124.332 131.695 124.414 131.695 124.497C131.695 124.889 132.314 124.889 132.314 124.497C132.314 123.796 132.252 123.094 132.128 122.393C132.066 122.043 131.53 122.146 131.53 122.476C131.51 123.136 131.427 123.857 131.51 124.517C131.551 124.827 131.695 125.116 132.046 125.177C133.077 125.384 132.768 123.362 132.685 122.867C132.623 122.476 132.561 121.878 132.19 121.651C131.881 121.465 131.551 121.651 131.365 121.939C130.85 122.806 131.138 124.084 131.613 124.868C131.757 125.219 132.293 124.909 132.087 124.579Z" fill="#161616"/>
<path d="M141.616 123.486C141.307 122.991 141.163 122.454 141.204 121.877C141.204 121.753 141.286 121.217 141.389 121.196C141.451 121.196 141.554 121.918 141.575 122.001C141.616 122.269 141.637 122.558 141.637 122.826C141.637 122.908 141.616 123.589 141.616 123.176C141.596 122.578 141.637 121.98 141.658 121.382C141.451 121.403 141.245 121.444 141.059 121.464C141.163 122.104 141.224 122.743 141.224 123.403C141.431 123.403 141.637 123.403 141.843 123.403C141.843 123.321 141.843 123.238 141.843 123.156C141.843 122.764 141.224 122.764 141.224 123.156C141.224 123.238 141.224 123.321 141.224 123.403C141.224 123.795 141.843 123.795 141.843 123.403C141.843 122.702 141.781 122.001 141.658 121.299C141.596 120.949 141.059 121.052 141.059 121.382C141.039 122.042 140.956 122.764 141.039 123.424C141.08 123.733 141.224 124.022 141.575 124.084C142.606 124.29 142.297 122.269 142.214 121.774C142.153 121.382 142.091 120.784 141.719 120.557C141.41 120.371 141.08 120.557 140.894 120.846C140.379 121.712 140.668 122.991 141.142 123.774C141.286 124.146 141.823 123.836 141.616 123.486Z" fill="#161616"/>
<path d="M129.036 126.478C129.428 126.478 129.428 125.859 129.036 125.859C128.644 125.859 128.644 126.478 129.036 126.478Z" fill="#161616"/>
<path d="M131.47 126.931C131.49 126.931 131.511 126.931 131.552 126.931C131.717 126.931 131.861 126.787 131.861 126.622C131.861 126.457 131.717 126.312 131.552 126.312C131.531 126.312 131.511 126.312 131.47 126.312C131.305 126.312 131.16 126.457 131.16 126.622C131.16 126.787 131.284 126.931 131.47 126.931Z" fill="#161616"/>
<path d="M130.024 128.829C130.416 128.829 130.416 128.211 130.024 128.211C129.632 128.211 129.612 128.829 130.024 128.829Z" fill="#161616"/>
<path d="M141.741 126.168C141.762 126.168 141.782 126.168 141.824 126.168C141.989 126.168 142.133 126.023 142.133 125.858C142.133 125.693 141.989 125.549 141.824 125.549C141.803 125.549 141.782 125.549 141.741 125.549C141.576 125.549 141.432 125.693 141.432 125.858C141.432 126.023 141.555 126.168 141.741 126.168Z" fill="#161616"/>
<path d="M144.009 124.642C144.401 124.642 144.401 124.023 144.009 124.023C143.617 124.023 143.617 124.642 144.009 124.642Z" fill="#161616"/>
<path d="M143.7 126.312C143.721 126.312 143.741 126.312 143.783 126.312C143.948 126.312 144.092 126.168 144.092 126.003C144.092 125.838 143.948 125.693 143.783 125.693C143.762 125.693 143.741 125.693 143.7 125.693C143.535 125.693 143.391 125.838 143.391 126.003C143.411 126.168 143.535 126.312 143.7 126.312Z" fill="#161616"/>
<path d="M133.882 134.789C133.552 134.315 133.016 133.634 133.243 133.016C133.511 132.314 134.356 132.417 134.913 132.5C135.594 132.603 136.151 132.727 136.811 132.521C137.347 132.356 137.821 132.005 138.316 131.737C139.492 131.077 140.874 131.015 141.245 132.562C142.297 136.79 134.831 137.986 133.676 134.274C133.552 133.902 132.954 134.047 133.078 134.439C134.501 138.997 143.328 137.306 141.781 132.252C141.513 131.407 140.874 130.685 139.966 130.582C138.481 130.437 137.512 131.922 136.089 132.026C135.037 132.108 133.758 131.304 132.913 132.294C132.149 133.181 132.768 134.315 133.325 135.099C133.573 135.429 134.109 135.119 133.882 134.789Z" fill="#161616"/>
<path d="M132.686 133.614C133.14 134.872 135.409 134.48 136.399 134.336C138.296 134.047 140.029 133.222 141.493 132.005C141.803 131.758 141.369 131.304 141.06 131.572C139.988 132.48 138.75 133.139 137.389 133.511C136.791 133.676 133.635 134.377 133.305 133.469C133.14 133.078 132.542 133.243 132.686 133.614Z" fill="#161616"/>
<path d="M136.357 142.667C138.77 143.286 141.988 141.759 143.349 139.759C143.576 139.429 143.039 139.119 142.813 139.449C141.616 141.203 138.626 142.605 136.522 142.069C136.13 141.966 135.965 142.564 136.357 142.667Z" fill="#161616"/>
<path d="M136.584 142.853C138.729 144.194 142.256 142.296 143.287 140.254C143.473 139.904 142.936 139.594 142.751 139.945C141.885 141.677 138.729 143.472 136.893 142.338C136.543 142.111 136.233 142.647 136.584 142.853Z" fill="#161616"/>
<path opacity="0.2" d="M145.144 120.992C145.288 121.735 145.474 122.91 145.597 124.333C145.886 128.128 146.381 134.481 142.545 138.709C141.72 139.616 139.967 141.225 136.729 142.133C137.76 142.091 139.018 141.968 140.379 141.617C141.06 141.452 141.679 141.246 142.235 141.019C142.318 142.854 142.38 144.69 142.462 146.526C143.164 146.072 143.844 145.639 144.545 145.185C143.597 143.081 143.597 141.452 143.72 140.421C143.906 138.977 144.442 137.801 144.979 136.626C145.453 135.594 145.948 134.769 146.34 134.192C146.381 134.625 146.484 135.079 146.773 135.512C148.031 137.389 151.97 137.574 154.445 135.966C156.735 134.481 157.849 131.469 157.271 128.376C157.663 128.706 158.075 129.098 158.467 129.572C158.777 129.943 159.581 131.016 160.695 134.79C161.045 135.966 161.21 136.564 161.314 137.162C161.437 137.987 161.664 139.554 161.231 141.328C160.489 144.381 158.282 146.134 157.622 146.629C157.147 146.979 155.704 148.031 153.538 148.526C152.507 148.753 149.413 149.496 146.505 147.804C145.412 147.165 144.814 146.691 144.484 146.113C144.133 145.474 144.092 144.876 144.05 144.422C143.865 141.596 143.782 140.173 143.968 139.204C144.525 136.399 145.783 136.11 146.484 132.913C146.732 131.758 146.794 130.789 146.814 130.17C147.082 130.211 147.495 130.253 147.99 130.129C149.021 129.861 149.537 129.015 149.722 128.706C150.465 127.53 150.795 125.427 149.64 124.457C149.475 124.313 148.897 123.88 147.784 123.962C146.938 122.972 146.051 121.982 145.144 120.992Z" fill="#3F3F3F"/>
<path opacity="0.13" d="M135.367 127.674C136.419 127.983 137.492 128.313 138.543 128.622C138.275 128.87 138.007 129.097 137.718 129.344C137.45 129.571 137.203 129.757 136.935 129.963C136.605 129.715 136.13 129.282 135.759 128.622C135.553 128.272 135.429 127.942 135.367 127.674Z" fill="#3F3F3F"/>
<path opacity="0.16" d="M118.826 130.252C116.578 138.192 118.248 144.607 121.61 146.009C124.25 147.102 129.015 145.556 129.901 142.854C130.025 142.503 130.149 141.884 129.675 139.987C129.262 138.316 128.416 135.8 126.519 132.933C126.189 132.727 125.756 132.397 125.343 131.902C124.621 131.015 124.415 130.066 124.353 129.612C124.951 130.231 125.818 131.015 126.375 130.767C126.911 130.52 127.241 129.777 127.055 129.035C127.241 129.984 127.53 131.283 128.066 132.789C128.767 134.789 129.468 136.728 131.098 138.564C131.84 139.409 133.305 140.791 135.78 141.781C136.192 142.297 136.955 143.411 137.203 145.04C137.244 145.287 137.388 146.422 137.017 147.845C136.935 148.175 136.44 149.969 134.81 151.516C132.913 153.331 130.644 153.661 129.901 153.764C124.312 154.507 119.981 149.619 119.218 148.773C118.455 147.907 117.196 146.463 116.475 144.236C115.32 140.688 116.206 137.491 116.846 135.161C117.444 132.974 118.248 131.324 118.826 130.252Z" fill="#3F3F3F"/>
</svg>
