<svg width="330" height="250" viewBox="0 0 330 250" fill="none" xmlns="http://www.w3.org/2000/svg">
<path d="M287 45.8915C287 107.747 211.84 234.283 166 234.283C120.16 234.283 17.5 279.139 17.5 217.283C17.5 155.427 65.1604 75.2828 111 75.2828C156.84 75.2828 287 -15.9644 287 45.8915Z" fill="#F2F9FF" fill-opacity="0.5"/>
<path d="M213.057 61.38C214.914 61.38 216.419 59.8748 216.419 58.0181C216.419 56.1614 214.914 54.6562 213.057 54.6562C211.2 54.6562 209.695 56.1614 209.695 58.0181C209.695 59.8748 211.2 61.38 213.057 61.38Z" fill="#EC615B"/>
<path d="M216.625 52.0578C217.491 52.0578 218.193 51.356 218.193 50.4903C218.193 49.6246 217.491 48.9229 216.625 48.9229C215.759 48.9229 215.058 49.6246 215.058 50.4903C215.058 51.356 215.759 52.0578 216.625 52.0578Z" fill="#EC615B"/>
<path d="M113.851 31.6589C114.739 31.6589 115.46 30.9386 115.46 30.0502C115.46 29.1617 114.739 28.4414 113.851 28.4414C112.962 28.4414 112.242 29.1617 112.242 30.0502C112.242 30.9386 112.962 31.6589 113.851 31.6589Z" fill="#EC615B"/>
<path d="M219.121 219.945C220.625 219.945 221.843 218.726 221.843 217.223C221.843 215.719 220.625 214.5 219.121 214.5C217.617 214.5 216.398 215.719 216.398 217.223C216.398 218.726 217.617 219.945 219.121 219.945Z" fill="#EC615B"/>
<path d="M95.2269 229.267C95.9217 229.267 96.485 228.704 96.485 228.009C96.485 227.314 95.9217 226.751 95.2269 226.751C94.532 226.751 93.9688 227.314 93.9688 228.009C93.9688 228.704 94.532 229.267 95.2269 229.267Z" fill="#EC615B"/>
<path d="M110.943 136.331C111.661 136.331 112.242 135.749 112.242 135.032C112.242 134.314 111.661 133.732 110.943 133.732C110.225 133.732 109.644 134.314 109.644 135.032C109.644 135.749 110.225 136.331 110.943 136.331Z" fill="#EC615B"/>
<path d="M113.5 142.952C114.195 142.952 114.758 142.388 114.758 141.694C114.758 140.999 114.195 140.436 113.5 140.436C112.805 140.436 112.242 140.999 112.242 141.694C112.242 142.388 112.805 142.952 113.5 142.952Z" fill="#11345C"/>
<path d="M111.995 178.014C113.293 178.014 114.346 176.961 114.346 175.663C114.346 174.364 113.293 173.312 111.995 173.312C110.696 173.312 109.644 174.364 109.644 175.663C109.644 176.961 110.696 178.014 111.995 178.014Z" fill="#11345C"/>
<path d="M211.18 44.385C212 44.385 212.665 43.7202 212.665 42.9C212.665 42.0799 212 41.415 211.18 41.415C210.36 41.415 209.695 42.0799 209.695 42.9C209.695 43.7202 210.36 44.385 211.18 44.385Z" fill="#11345C"/>
<path d="M154.688 46.9835C155.406 46.9835 155.987 46.4018 155.987 45.6841C155.987 44.9665 155.406 44.3848 154.688 44.3848C153.97 44.3848 153.389 44.9665 153.389 45.6841C153.389 46.4018 153.97 46.9835 154.688 46.9835Z" fill="#11345C"/>
<path d="M38.8377 148.624C39.3844 148.624 39.8277 148.18 39.8277 147.634C39.8277 147.087 39.3844 146.644 38.8377 146.644C38.2909 146.644 37.8477 147.087 37.8477 147.634C37.8477 148.18 38.2909 148.624 38.8377 148.624Z" fill="#11345C"/>
<path d="M215.676 226.751C217.043 226.751 218.151 225.643 218.151 224.276C218.151 222.909 217.043 221.801 215.676 221.801C214.309 221.801 213.201 222.909 213.201 224.276C213.201 225.643 214.309 226.751 215.676 226.751Z" fill="#11345C"/>
<path d="M242.179 14.8497C242.897 14.8497 243.479 14.268 243.479 13.5503C243.479 12.8327 242.897 12.251 242.179 12.251C241.462 12.251 240.88 12.8327 240.88 13.5503C240.88 14.268 241.462 14.8497 242.179 14.8497Z" fill="#11345C"/>
<path d="M115.934 71.9605C115.728 70.6817 115.542 68.1242 117.584 68.3304C118.326 68.4129 118.739 69.0729 119.564 68.7842C121.111 68.2479 120.76 66.2473 121.4 65.0923C122.451 63.2361 124.493 65.9379 126.061 65.0511C126.576 64.7623 126.7 64.2261 126.68 63.6692C126.638 61.5861 128.474 61.7304 129.98 62.1429C130.371 62.2461 130.536 61.6479 130.145 61.5448C128.618 61.1323 126.081 60.9879 126.02 63.1948C125.999 63.7311 126.288 64.2673 125.504 64.5973C125.256 64.7004 124.844 64.5767 124.617 64.5148C124.081 64.3498 123.606 63.9786 123.05 63.8342C122.328 63.6279 121.626 63.7723 121.131 64.3498C120.513 65.0923 120.533 66.1029 120.245 66.9692C119.935 67.8973 119.337 68.4336 118.326 67.9798C117.914 67.7942 117.543 67.6292 117.068 67.6911C114.944 67.9798 115.047 70.558 115.315 72.1255C115.398 72.5173 115.996 72.3523 115.934 71.9605Z" fill="#11345C"/>
<path d="M118.367 73.1565C118.532 71.8777 119.563 71.3209 120.76 71.3209C121.399 71.3209 122.038 71.424 122.657 71.1971C124.06 70.6609 123.792 69.1346 124.122 67.9384C124.74 65.6696 127.607 67.0721 129.195 66.7009C130.268 66.4327 131.175 65.3602 130.722 64.2259C130.577 63.8546 129.979 64.0196 130.123 64.3909C130.825 66.1027 128.432 66.2059 127.422 66.0821C126.679 65.9996 125.957 65.8759 125.215 66.0615C124.039 66.3709 123.585 67.2371 123.42 68.3509C123.276 69.3821 123.297 70.5165 121.956 70.6815C121.234 70.764 120.512 70.5577 119.79 70.7227C118.635 70.9909 117.893 71.9602 117.748 73.1152C117.687 73.5484 118.305 73.5484 118.367 73.1565Z" fill="#11345C"/>
<path d="M160.979 22.5015C160.257 23.409 159.494 24.5227 159.845 25.7396C160.134 26.7296 160.917 27.1008 161.866 27.039C162.423 26.9977 163 26.8533 163.454 27.3483C163.805 27.7196 163.578 28.5033 163.475 28.9158C163.31 29.5552 163 30.174 163.062 30.8546C163.165 31.7827 163.908 32.5046 164.857 32.2983C165.249 32.2158 165.084 31.6177 164.692 31.7002C162.897 32.1127 164.135 29.1221 164.217 28.4002C164.279 27.8021 164.176 27.1421 163.722 26.709C163.269 26.2758 162.712 26.3171 162.134 26.379C161.227 26.4821 160.381 26.1933 160.34 25.1002C160.319 24.2752 160.897 23.5327 161.392 22.914C161.68 22.6458 161.227 22.1921 160.979 22.5015Z" fill="#11345C"/>
<path d="M165.846 22.1922C164.877 22.6047 164.258 23.6154 164.506 24.6672C164.63 25.1416 164.918 25.5954 165.331 25.8841C165.826 26.2554 166.403 26.1729 166.898 26.4822C167.826 27.0391 167.084 28.1322 167.125 28.9985C167.146 29.4316 167.249 29.8235 167.62 30.0916C168.177 30.5247 169.002 30.3804 169.229 29.6791C169.353 29.3079 168.755 29.1429 168.631 29.5141C167.847 29.411 167.579 29.0604 167.806 28.4622C167.847 28.256 167.888 28.0497 167.93 27.8435C167.971 27.6372 167.991 27.431 167.991 27.2247C167.991 26.7916 167.868 26.3379 167.538 26.0285C167.043 25.5747 166.28 25.7604 165.743 25.3891C164.65 24.626 165.042 23.1822 166.156 22.7079C166.527 22.5635 166.197 22.0479 165.846 22.1922Z" fill="#11345C"/>
<path d="M30.9794 144.107C30.5051 143.364 30.5051 142.457 30.9794 141.693C31.4538 140.951 32.1138 140.93 32.8769 140.642C33.9288 140.209 33.9494 139.115 33.8876 138.125C33.8669 137.775 33.8463 137.404 33.9494 137.053C34.2176 136.228 34.9188 136.455 35.5582 136.558C35.9294 136.62 36.2801 136.558 36.5894 136.352C36.9813 136.084 37.2288 135.609 37.3526 135.155C37.4557 134.784 37.4763 134.392 37.5588 134.021C37.6001 133.753 37.6826 133.505 37.8063 133.279C38.1363 132.763 38.5282 132.722 39.0026 133.175C39.1057 133.567 39.7038 133.402 39.6007 133.01C39.2294 131.67 37.5794 132.268 37.1669 133.217C36.9813 133.65 36.9607 134.124 36.8576 134.578C36.7957 134.846 36.7544 135.135 36.6101 135.382C36.3007 135.939 35.7232 135.836 35.1869 135.774C34.5476 135.712 34.0526 135.65 33.6401 136.249C33.1657 136.929 33.2894 137.733 33.2894 138.517C33.3101 139.466 33.1038 139.837 32.1757 140.147C31.8044 140.27 31.4951 140.332 31.1651 140.58C29.9688 141.425 29.6594 143.178 30.4432 144.395C30.6494 144.746 31.1857 144.437 30.9794 144.107Z" fill="#EC615B"/>
<path d="M33.5574 145.53C32.6911 145.406 33.0211 144.457 33.413 144.086C33.7018 143.818 34.0936 143.653 34.4649 143.467C34.9186 143.24 35.3724 142.972 35.7024 142.58C36.5893 141.467 35.3105 139.982 36.548 139.095C37.7855 138.229 41.1061 137.837 40.1368 135.527C39.9924 135.155 39.4561 135.485 39.6005 135.836C40.3018 137.507 36.8986 138.002 36.0324 138.703C35.723 138.95 35.4549 139.28 35.3311 139.672C35.0836 140.539 35.8055 141.425 35.1661 142.25C34.4236 143.158 32.8355 143.158 32.4643 144.437C32.2374 145.159 32.6293 146.025 33.413 146.149C33.7843 146.19 33.9493 145.592 33.5574 145.53Z" fill="#EC615B"/>
<path d="M259.649 97.5974C259.381 97.123 259.422 96.6074 259.711 96.1537C260.164 95.4937 260.701 95.638 261.402 95.6999C261.876 95.7412 262.309 95.8443 262.763 95.5762C263.568 95.0812 263.444 94.0499 263.588 93.2662C263.918 91.4305 265.506 93.1012 266.579 92.5237C266.971 92.3174 267.115 91.9255 267.198 91.513C267.342 90.7087 267.383 88.3162 268.93 89.2855C269.26 89.4918 269.59 88.9555 269.24 88.7493C267.858 87.9037 266.744 89.3062 266.62 90.6055C266.538 91.348 266.62 92.0699 265.63 91.9668C265.279 91.9255 264.929 91.7399 264.578 91.6987C264.021 91.6368 263.526 91.8018 263.217 92.2968C262.866 92.8743 262.99 93.5962 262.846 94.2149C262.536 95.6174 261.34 94.8337 260.371 94.9987C259.071 95.2255 258.473 96.793 259.092 97.8862C259.298 98.2574 259.834 97.948 259.649 97.5974Z" fill="#EC615B"/>
<path d="M262.722 98.8971C262.372 97.9483 263.465 96.8965 264.414 97.3915C264.537 97.4533 264.702 97.4533 264.785 97.3502C265.259 96.8346 265.383 96.2365 265.589 95.5765C265.961 94.3802 266.847 94.2152 267.92 93.8852C268.972 93.5552 270.147 92.689 269.714 91.4515C269.57 91.0802 268.972 91.2452 269.116 91.6165C269.714 93.2458 266.786 93.3696 265.919 93.9677C264.867 94.7102 265.177 96.0508 264.372 96.9171C264.496 96.8965 264.62 96.8758 264.744 96.8758C263.362 96.154 261.609 97.5771 262.145 99.0827C262.269 99.4333 262.867 99.289 262.722 98.8971Z" fill="#EC615B"/>
<path d="M179.418 104.3C179.459 104.3 179.913 105.414 180.099 105.558C180.387 105.785 180.738 105.806 181.089 105.744C181.707 105.641 182.099 105.187 182.635 104.898C183.79 104.238 183.79 105.373 184.244 106.012C184.76 106.775 185.317 106.404 185.915 106.033C186.307 105.785 186.678 105.62 187.029 105.971C187.214 106.156 187.338 106.466 187.482 106.693C187.709 107.023 187.957 107.291 188.328 107.456C188.679 107.621 189.009 107.085 188.637 106.92C187.792 106.548 187.689 105.146 186.678 105.001C186.204 104.94 185.997 105.208 185.626 105.414C185.172 105.682 184.904 105.868 184.615 105.352C184.492 105.146 184.471 104.857 184.327 104.651C183.667 103.558 182.635 104.156 181.81 104.692C181.666 104.795 181.522 104.898 181.357 104.981C181.006 104.878 180.635 104.775 180.284 104.671C180.14 104.527 180.14 104.176 180.016 103.991C179.81 103.702 179.604 103.62 179.274 103.681C178.861 103.764 179.026 104.362 179.418 104.3Z" fill="#EC615B"/>
<path d="M184.264 102.32C184.883 101.351 186.306 103.372 186.883 103.62C187.234 103.764 187.564 103.764 187.935 103.661C188.1 103.62 188.245 103.537 188.389 103.475C188.946 103.248 189.42 103.393 189.874 103.785C190.534 104.342 190.72 105.084 191.668 105.29C192.225 105.414 192.741 105.249 192.988 104.713C193.153 104.362 192.617 104.032 192.452 104.403C191.875 105.641 190.287 103.207 189.874 102.939C189.111 102.444 188.637 102.857 187.873 103.022C186.657 103.269 186.265 101.908 185.254 101.578C184.656 101.372 184.078 101.475 183.748 102.032C183.501 102.362 184.037 102.671 184.264 102.32Z" fill="#EC615B"/>
<path d="M261.34 138.373C272.292 138.373 283.244 138.373 294.216 138.373C294.608 138.373 294.608 137.754 294.216 137.754C283.264 137.754 272.312 137.754 261.34 137.754C260.948 137.754 260.948 138.373 261.34 138.373Z" fill="#837B7B"/>
<path d="M270.312 138.228C270.312 141.425 270.312 144.602 270.312 147.798C270.312 148.19 270.93 148.19 270.93 147.798C270.93 144.602 270.93 141.425 270.93 138.228C270.93 137.837 270.312 137.837 270.312 138.228Z" fill="#837B7B"/>
<path d="M285.615 137.919C285.615 133.464 285.615 129.009 285.615 124.554C285.615 124.162 284.996 124.162 284.996 124.554C284.996 129.009 284.996 133.464 284.996 137.919C284.996 138.331 285.615 138.331 285.615 137.919Z" fill="#837B7B"/>
<path d="M278.335 124.801C282.481 124.801 286.626 124.801 290.772 124.801C291.164 124.801 291.164 124.183 290.772 124.183C286.626 124.183 282.481 124.183 278.335 124.183C277.943 124.183 277.943 124.801 278.335 124.801Z" fill="#837B7B"/>
<path d="M270.188 50.5302C270.188 54.3871 270.188 58.244 270.188 62.0803C270.188 62.4721 270.806 62.4721 270.806 62.0803C270.806 58.2234 270.806 54.3665 270.806 50.5302C270.806 50.1384 270.188 50.1384 270.188 50.5302Z" fill="#837B7B"/>
<path d="M260.555 62.9674C268.001 62.9674 275.426 62.9674 282.872 62.9674C283.264 62.9674 283.264 62.3486 282.872 62.3486C275.426 62.3486 268.001 62.3486 260.555 62.3486C260.143 62.3486 260.143 62.9674 260.555 62.9674Z" fill="#837B7B"/>
<path d="M282.666 62.8847C282.666 65.4422 282.666 67.9997 282.666 70.5573C282.666 70.9491 283.285 70.9491 283.285 70.5573C283.285 67.9997 283.285 65.4422 283.285 62.8847C283.285 62.4929 282.666 62.4929 282.666 62.8847Z" fill="#837B7B"/>
<path d="M75.5292 38.5065C82.8099 38.5065 90.1111 38.5065 97.3917 38.5065C97.7836 38.5065 97.7836 37.8877 97.3917 37.8877C90.1111 37.8877 82.8099 37.8877 75.5292 37.8877C75.1374 37.8877 75.1167 38.5065 75.5292 38.5065Z" fill="#837B7B"/>
<path d="M96.4834 38.4441C96.4834 40.4241 96.4834 42.4041 96.4834 44.3841C96.4834 44.776 97.1021 44.776 97.1021 44.3841C97.1021 42.4041 97.1021 40.4241 97.1021 38.4441C97.1021 38.0316 96.4834 38.0316 96.4834 38.4441Z" fill="#837B7B"/>
<path d="M89.8629 37.9495C89.8629 34.7732 89.8629 31.6176 89.8629 28.4414C89.8629 28.0495 89.2441 28.0495 89.2441 28.4414C89.2441 31.6176 89.2441 34.7732 89.2441 37.9495C89.2441 38.362 89.8629 38.362 89.8629 37.9495Z" fill="#837B7B"/>
<path d="M32.2783 102.073C37.3108 102.073 42.3433 102.073 47.3758 102.073C47.7677 102.073 47.7677 101.454 47.3758 101.454C42.3433 101.454 37.3108 101.454 32.2783 101.454C31.8864 101.454 31.8864 102.073 32.2783 102.073Z" fill="#837B7B"/>
<path d="M41.498 95.8642C41.498 97.7205 41.498 99.5767 41.498 101.433C41.498 101.825 42.1168 101.825 42.1168 101.433C42.1168 99.5767 42.1168 97.7205 42.1168 95.8642C42.1168 95.4723 41.498 95.4723 41.498 95.8642Z" fill="#837B7B"/>
<path d="M37.867 96.1734C40.5482 96.1734 43.2295 96.1734 45.9107 96.1734C46.3026 96.1734 46.3026 95.5547 45.9107 95.5547C43.2295 95.5547 40.5482 95.5547 37.867 95.5547C37.4545 95.5547 37.4545 96.1734 37.867 96.1734Z" fill="#837B7B"/>
<path d="M128.7 226.214C135.424 226.214 142.148 226.214 148.871 226.214C149.263 226.214 149.263 225.596 148.871 225.596C142.148 225.596 135.424 225.596 128.7 225.596C128.287 225.596 128.287 226.214 128.7 226.214Z" fill="#837B7B"/>
<path d="M141.117 225.596C141.117 224.152 141.117 222.708 141.117 221.244C141.117 220.852 140.498 220.852 140.498 221.244C140.498 222.688 140.498 224.132 140.498 225.596C140.498 226.008 141.117 226.008 141.117 225.596Z" fill="#837B7B"/>
<path d="M139.239 221.264C142.024 221.264 144.829 221.264 147.613 221.264C148.005 221.264 148.005 220.646 147.613 220.646C144.829 220.646 142.024 220.646 139.239 220.646C138.847 220.646 138.847 221.264 139.239 221.264Z" fill="#837B7B"/>
<path d="M32.7529 215.365C39.4766 215.365 46.2004 215.365 52.9242 215.365C53.316 215.365 53.316 214.746 52.9242 214.746C46.2004 214.746 39.4766 214.746 32.7529 214.746C32.361 214.746 32.361 215.365 32.7529 215.365Z" fill="#837B7B"/>
<path d="M42.0752 207.28C42.0752 209.652 42.0752 212.045 42.0752 214.417C42.0752 214.808 42.6939 214.808 42.6939 214.417C42.6939 212.045 42.6939 209.652 42.6939 207.28C42.6939 206.888 42.0752 206.888 42.0752 207.28Z" fill="#837B7B"/>
<path d="M42.0751 206.353C39.3938 206.353 36.692 206.353 34.0107 206.353C33.6188 206.353 33.6188 206.971 34.0107 206.971C36.692 206.971 39.3938 206.971 42.0751 206.971C42.4669 206.971 42.4669 206.353 42.0751 206.353Z" fill="#837B7B"/>
<path d="M256.967 197.216C256.286 196.535 256.451 195.215 257.503 194.988C258.06 194.864 258.596 195.215 259.132 195.277C259.545 195.339 259.978 195.297 260.246 194.926C260.659 194.39 260.329 193.771 260.308 193.173C260.267 191.296 262.494 191.42 263.608 192.08C263.856 192.224 264.124 191.977 264.062 191.729C263.526 189.151 266.475 187.377 268.496 189.089C268.806 189.337 269.239 188.904 268.929 188.656C266.434 186.552 262.783 188.697 263.464 191.915C263.608 191.791 263.773 191.688 263.917 191.564C262.969 190.987 261.752 190.698 260.741 191.337C260.37 191.564 260.04 191.915 259.875 192.327C259.751 192.616 259.689 192.884 259.71 193.194C259.73 193.75 259.916 193.709 259.504 194.245C259.05 194.844 259.009 194.575 258.369 194.431C258.142 194.369 257.936 194.328 257.689 194.349C257.173 194.369 256.699 194.617 256.369 194.988C255.647 195.792 255.832 196.927 256.554 197.649C256.822 197.937 257.255 197.504 256.967 197.216Z" fill="#837B7B"/>
<path d="M260.989 197.835C260.762 195.958 263.835 195.937 264.702 194.638C264.929 194.308 265.011 193.937 265.155 193.586C265.424 192.947 265.898 192.534 266.599 192.349C267.734 192.06 268.909 192.575 269.94 193.009C270.312 193.153 270.477 192.555 270.105 192.41C268.208 191.627 265.65 191.029 264.599 193.339C264.227 194.164 264.104 194.617 263.237 195.05C262.722 195.298 262.186 195.442 261.691 195.731C260.907 196.185 260.288 196.886 260.391 197.835C260.432 198.227 261.051 198.227 260.989 197.835Z" fill="#837B7B"/>
<path d="M172.281 137.857C172.693 138.888 173.106 139.94 173.518 140.971C173.56 140.847 173.621 140.744 173.663 140.62C173.436 140.765 173.209 140.909 172.982 141.074C172.631 140.249 172.776 140.043 173.436 140.414C173.828 140.662 174.013 141.198 174.096 141.631C174.281 142.621 174.075 143.652 173.745 144.601C173.663 144.848 173.91 145.013 174.116 144.972C175.354 144.725 175.849 146.21 175.601 147.138C175.416 147.818 175.045 148.416 174.673 149.015C174.467 149.345 175.003 149.654 175.21 149.324C175.87 148.293 176.633 147.014 176.179 145.735C175.828 144.786 174.962 144.188 173.951 144.374C174.075 144.498 174.199 144.621 174.323 144.745C174.735 143.549 175.003 142.043 174.488 140.827C174.137 140.022 173.333 139.403 172.425 139.672C171.724 139.878 171.373 140.579 171.703 141.26C172.26 142.394 173.23 141.631 173.951 141.157C174.055 141.095 174.137 140.93 174.096 140.806C173.683 139.775 173.271 138.723 172.858 137.692C172.735 137.341 172.136 137.485 172.281 137.857Z" fill="#837B7B"/>
<path d="M50.304 40.2802C49.9121 39.2902 51.2321 39.022 51.8508 39.3727C52.3252 39.6408 52.6346 40.1152 52.9233 40.5483C53.1915 40.9402 53.4802 41.3733 53.6246 41.827C53.7896 42.2189 53.769 42.5902 53.5627 42.9614C52.8408 43.2914 52.4696 43.2089 52.449 42.7345C52.2633 42.0539 52.9852 41.6002 53.604 41.6208C54.2433 41.6414 54.8415 42.0127 55.2746 42.4664C56.0171 43.2502 56.2852 44.2814 56.1821 45.3333C56.3677 45.2714 56.574 45.2302 56.7596 45.1683C56.3471 44.5702 56.739 43.9308 57.2958 43.6214C57.7702 43.3739 58.3065 43.4358 58.7602 43.6833C59.5027 44.0752 60.0183 44.797 60.4927 45.457C60.7196 45.787 61.2558 45.4777 61.029 45.1477C60.2452 44.0545 59.0696 42.5283 57.5227 42.8789C56.3883 43.1264 55.4808 44.4464 56.2233 45.4777C56.409 45.7458 56.7596 45.622 56.8008 45.3127C56.9865 43.3533 55.5427 40.672 53.2327 41.002C52.4077 41.1258 51.8096 41.7033 51.8096 42.5489C51.8096 43.2089 52.2221 43.8895 52.9233 43.9308C53.7483 43.9927 54.3052 43.1883 54.3465 42.4458C54.4083 41.4145 53.604 40.3008 52.9852 39.5377C52.4077 38.857 51.5621 38.2795 50.6546 38.6302C49.9121 38.8983 49.4171 39.6408 49.7265 40.4039C49.8502 40.8164 50.4483 40.6514 50.304 40.2802Z" fill="#837B7B"/>
<path d="M158.957 70.5369C158.091 70.0213 158.709 68.4951 159.679 69.1344C160.607 69.7532 159.369 70.8051 158.771 70.0832C158.524 69.7738 158.091 70.2069 158.338 70.5163C158.813 71.0938 159.72 71.0526 160.256 70.5782C160.875 70.0213 160.71 69.1138 160.071 68.6601C159.431 68.2063 158.503 68.2888 158.111 69.0313C157.719 69.7326 157.988 70.6813 158.668 71.0732C158.978 71.2588 159.287 70.7432 158.957 70.5369Z" fill="#837B7B"/>
<path d="M224.668 25.4299C224.215 24.7905 224.998 23.8212 225.72 24.1099C225.658 24.0687 225.597 24.0068 225.535 23.9655C225.927 24.6462 225.349 25.5743 224.586 25.533C224.689 25.6155 224.792 25.6774 224.875 25.7599C224.751 25.4093 224.607 25.038 224.483 24.6874C224.338 24.3162 223.74 24.4812 223.885 24.8524C224.008 25.203 224.153 25.5743 224.276 25.9249C224.318 26.0693 224.421 26.1518 224.565 26.1518C225.225 26.193 225.803 25.7805 226.092 25.203C226.318 24.7493 226.442 23.8005 225.885 23.5118C224.668 22.9137 223.41 24.7287 224.132 25.7393C224.359 26.0693 224.895 25.7599 224.668 25.4299Z" fill="#837B7B"/>
<path d="M241.457 56.0996C241.354 55.6252 241.705 55.1096 242.179 55.0064C242.612 54.9239 243.004 55.2746 243.107 55.6664C243.375 56.5946 242.158 57.0277 241.581 56.3883C241.313 56.0996 240.88 56.5327 241.148 56.8214C242.22 58.0177 244.283 56.8421 243.623 55.3158C243.334 54.6352 242.612 54.2021 241.89 54.4289C241.127 54.6764 240.673 55.4808 240.838 56.2646C240.962 56.6564 241.56 56.4914 241.457 56.0996Z" fill="#837B7B"/>
<path d="M174.508 226.812C173.724 226.441 173.786 225.369 174.508 224.956C175.209 224.564 175.869 224.915 176.508 225.204C177.045 225.451 177.663 225.678 178.138 225.204C178.571 224.791 178.488 224.152 178.509 223.616C178.592 221.532 180.613 221.945 181.995 222.461C182.366 222.605 182.531 222.007 182.16 221.862C180.943 221.388 179.252 220.934 178.282 222.131C177.993 222.481 177.911 222.894 177.89 223.327C177.87 223.616 177.993 224.255 177.828 224.523C177.375 225.204 176.756 224.585 176.282 224.379C175.374 223.987 174.075 224.09 173.518 225.039C173.043 225.843 173.332 226.936 174.178 227.328C174.549 227.514 174.858 226.977 174.508 226.812Z" fill="#837B7B"/>
<path d="M184.491 178.2C183.872 185.77 184.202 193.36 185.481 200.846C185.543 201.238 186.141 201.073 186.079 200.681C184.821 193.256 184.491 185.708 185.11 178.2C185.151 177.808 184.532 177.808 184.491 178.2Z" fill="#837B7B"/>
<path d="M184.904 178.675C188.121 179.789 191.442 180.531 194.824 180.903C198 181.233 201.651 181.583 204.704 180.387C205.075 180.243 204.91 179.644 204.539 179.789C201.569 180.965 197.959 180.614 194.824 180.284C191.504 179.933 188.224 179.17 185.069 178.077C184.677 177.933 184.532 178.531 184.904 178.675Z" fill="#837B7B"/>
<path d="M189.813 179.52C188.74 177.85 187.853 176.076 187.235 174.179C186.946 173.271 186.698 172.364 186.513 171.435C186.41 170.879 186.307 170.322 186.245 169.765C186.245 169.703 186.018 168.239 186.451 168.445C186.657 168.548 187.008 168.362 186.905 168.094C185.77 165.227 185.152 162.216 185.09 159.122C184.987 159.225 184.884 159.329 184.78 159.432C184.945 159.494 185.09 159.555 185.255 159.617C185.461 159.865 185.853 159.597 185.77 159.308C185.358 157.988 185.09 156.627 185.007 155.224C184.987 154.894 185.048 151.182 185.275 151.244C185.523 151.305 185.688 151.079 185.647 150.872C185.255 148.542 185.069 146.17 185.172 143.819C185.213 142.643 185.317 141.488 185.502 140.333C185.667 139.281 185.75 138.002 186.575 137.239C186.41 137.219 186.245 137.198 186.08 137.177C187.812 140.436 188.782 144.004 189.668 147.552C190.535 151.037 191.298 154.564 191.958 158.112C193.298 165.434 194.144 172.838 194.515 180.284C194.536 180.675 195.155 180.675 195.134 180.284C194.763 172.797 193.917 165.33 192.556 157.947C191.875 154.275 191.092 150.625 190.184 146.995C189.297 143.509 188.328 140.044 186.616 136.847C186.513 136.662 186.265 136.662 186.121 136.785C185.42 137.425 185.213 138.27 185.048 139.157C184.822 140.415 184.657 141.715 184.574 142.994C184.409 145.675 184.574 148.356 185.028 151.017C185.152 150.893 185.275 150.769 185.399 150.645C184.203 150.315 184.347 152.894 184.327 153.471C184.244 155.492 184.554 157.514 185.152 159.452C185.317 159.349 185.502 159.246 185.667 159.143C185.399 158.834 185.172 158.73 184.76 158.772C184.595 158.792 184.45 158.895 184.45 159.081C184.512 162.216 185.131 165.289 186.286 168.218C186.43 168.094 186.595 167.991 186.74 167.867C184.677 166.877 185.873 171.539 186.038 172.24C186.657 174.921 187.771 177.479 189.256 179.789C189.503 180.16 190.04 179.85 189.813 179.52Z" fill="#837B7B"/>
<path d="M193.091 158.916C192.906 157.596 192.865 156.255 193.03 154.935C193.071 154.605 193.855 150.728 194.246 150.893C194.453 150.996 194.7 150.872 194.721 150.625C194.845 147.985 195.67 145.633 196.639 143.2C197.608 140.786 198.557 138.456 200.166 136.373C200.021 136.373 199.877 136.373 199.733 136.373C200.908 137.713 200.764 139.755 200.826 141.426C200.908 143.303 200.97 145.18 200.991 147.056C201.032 150.748 200.97 154.44 200.805 158.132C200.455 165.681 199.609 173.209 198.33 180.655C198.268 181.046 198.866 181.211 198.928 180.82C200.269 173.065 201.115 165.206 201.465 157.328C201.63 153.368 201.671 149.408 201.589 145.448C201.548 143.468 201.506 141.488 201.362 139.508C201.28 138.208 201.073 136.93 200.166 135.919C200.063 135.795 199.836 135.795 199.733 135.919C198.145 137.981 197.155 140.25 196.206 142.663C195.154 145.262 194.267 147.778 194.123 150.625C194.288 150.542 194.432 150.439 194.597 150.356C193.339 149.8 192.926 152.481 192.761 153.203C192.308 155.141 192.266 157.101 192.555 159.06C192.535 159.473 193.133 159.308 193.091 158.916Z" fill="#837B7B"/>
<path d="M185.77 201.363C192.226 203.446 199.217 203.343 205.611 201.074C205.982 200.95 205.817 200.352 205.446 200.476C199.156 202.703 192.287 202.806 185.935 200.764C185.543 200.641 185.378 201.239 185.77 201.363Z" fill="#837B7B"/>
<path d="M204.622 180.181C204.869 183.522 205.137 186.863 205.364 190.204C205.591 193.608 205.673 197.052 205.117 200.434C205.055 200.826 205.653 200.991 205.715 200.599C206.272 197.279 206.23 193.938 206.003 190.596C205.777 187.131 205.508 183.646 205.24 180.181C205.22 179.789 204.601 179.789 204.622 180.181Z" fill="#837B7B"/>
<path d="M94.5449 206.663C98.7524 204.415 102.981 202.167 107.188 199.918C109.168 200.248 111.891 200.682 115.149 201.135C121.667 202.043 132.165 203.507 145.447 203.899C158.73 204.291 168.692 203.445 172.487 203.074C181.624 202.208 187.151 201.032 191.668 199.815C195.772 198.702 199.155 197.485 201.568 196.557C203.548 197.217 205.755 198.104 208.106 199.32C209.447 200.022 210.684 200.743 211.777 201.465C207.9 202.579 202.682 204.002 196.474 205.446C183.397 208.498 173.374 209.942 171.27 210.252C159.246 211.963 142.106 214.377 120.553 211.881C113.85 211.077 104.919 209.612 94.5449 206.663Z" fill="white"/>
<path d="M94.3174 206.683C94.4205 207.55 94.5443 208.395 94.6474 209.261C96.1943 209.695 98.463 210.313 101.268 210.932C106.631 212.128 112.076 212.953 119.191 213.51C145.467 215.573 166.464 213.737 166.464 213.737C176.962 212.809 187.151 211.86 200.309 208.024C205.259 206.58 209.302 205.116 212.189 203.981C211.962 203.012 211.736 202.043 211.509 201.073C210.704 201.403 209.508 201.878 208.044 202.414C198.102 206.044 189.914 207.24 182.613 208.127C166.567 210.107 158.544 211.076 146.767 211.262C133.361 211.489 115.376 210.685 94.3174 206.683Z" fill="#161616"/>
<path d="M94.1729 207.075C94.1729 207.735 94.1729 208.395 94.1729 209.055C94.1729 209.447 94.7916 209.447 94.7916 209.055C94.7916 208.395 94.7916 207.735 94.7916 207.075C94.7916 206.663 94.1729 206.663 94.1729 207.075Z" fill="#161616"/>
<path d="M94.4008 209.633C109.808 213.799 125.895 214.335 141.756 214.562C156.998 214.769 172.343 214.108 187.358 211.324C195.814 209.757 204.147 207.467 212.19 204.353C212.562 204.208 212.397 203.61 212.025 203.755C197.835 209.262 182.758 212.067 167.599 213.242C152.316 214.418 136.888 214.15 121.605 213.222C112.468 212.644 103.414 211.448 94.5658 209.055C94.174 208.932 94.009 209.53 94.4008 209.633Z" fill="#161616"/>
<path d="M212.19 203.919C212.313 203.053 212.355 202.166 212.272 201.3C212.231 200.908 211.612 200.908 211.653 201.3C211.715 202.125 211.715 202.95 211.591 203.754C211.53 204.125 212.128 204.311 212.19 203.919Z" fill="#161616"/>
<path d="M94.6684 207.013C98.9996 204.951 103.248 202.744 107.415 200.351C107.765 200.145 107.456 199.629 107.105 199.815C102.939 202.187 98.6902 204.414 94.359 206.477C93.9877 206.642 94.2971 207.178 94.6684 207.013Z" fill="#161616"/>
<path d="M107.249 200.063C131.855 204.745 157.43 205.611 182.242 202.063C188.842 201.115 195.401 199.65 201.506 196.928C201.877 196.763 201.547 196.227 201.196 196.392C195.71 198.825 189.853 200.248 183.933 201.177C177.911 202.125 171.826 202.703 165.742 203.095C153.388 203.878 140.971 203.672 128.658 202.497C121.522 201.816 114.448 200.785 107.414 199.465C107.023 199.403 106.858 200.001 107.249 200.063Z" fill="#161616"/>
<path d="M201.382 196.825C205.054 198.021 208.498 199.692 211.715 201.816C212.045 202.043 212.355 201.507 212.025 201.28C208.766 199.135 205.26 197.444 201.547 196.227C201.155 196.103 200.99 196.701 201.382 196.825Z" fill="#161616"/>
<path d="M94.7099 206.684C101.991 209.138 109.581 210.293 117.212 210.912C124.946 211.531 132.742 211.716 140.497 211.716C155.904 211.716 171.352 210.664 186.532 207.901C195.154 206.333 203.692 204.209 212.004 201.424C212.376 201.301 212.211 200.703 211.839 200.826C197.216 205.694 182.016 208.54 166.671 209.943C151.408 211.345 135.981 211.428 120.677 210.52C111.932 209.984 103.166 208.891 94.8337 206.086C94.5037 205.962 94.3387 206.56 94.7099 206.684Z" fill="#161616"/>
<path d="M106.589 88.8937C131.793 83.0569 157.739 81.7781 183.521 81.5306C190.822 81.4481 198.123 81.4687 205.424 81.4687C205.816 81.4687 205.816 80.85 205.424 80.85C179.561 80.8087 153.573 80.7881 127.895 84.3562C120.676 85.3669 113.519 86.6456 106.424 88.2956C106.032 88.3987 106.197 88.9969 106.589 88.8937Z" fill="#161616"/>
<path d="M206.703 80.9121C206.971 90.5027 207.136 101.62 207.075 113.974C207.033 121.151 206.971 117.728 206.332 147.593C205.961 164.794 205.858 171.27 204.641 181.211C203.857 187.688 202.908 193.009 202.207 196.618C207.528 198.103 212.602 199.506 217.057 200.743C223.946 202.661 225.781 203.177 228.525 203.569C232.773 204.146 237.95 204.229 243.931 203.012C246.138 184.945 247.355 169.538 248.056 157.74C250.573 116.284 248.221 97.1852 247.314 90.4821C246.076 81.4483 244.55 74.0233 243.375 68.8877C238.961 69.7333 235.372 70.6408 232.856 71.3214C224.214 73.6933 217.366 76.4777 211.633 78.8289C209.508 79.7158 207.796 80.4377 206.703 80.9121Z" fill="white"/>
<path d="M64.5142 69.2598C64.3492 71.0335 64.1636 73.2198 63.9986 75.1173C60.5749 114.16 58.863 133.692 58.3061 146.253C57.7286 159.742 57.6874 179.294 60.5543 203.611C60.7811 204.106 61.1936 204.787 61.9361 205.344C62.9055 206.065 63.7924 206.045 65.5455 206.54C66.9274 206.932 67.6493 207.324 68.3093 207.571C70.2068 208.314 74.4555 209.159 79.8593 208.953C87.6143 208.644 93.5749 206.272 97.9474 204.477C102.052 202.807 105.331 201.012 107.6 199.651C106.321 188.163 105.372 176.035 104.836 163.31C103.743 136.25 104.836 111.397 107.084 89.2454C106.136 88.8742 104.754 88.3585 103.124 87.6985C100.319 86.5642 93.5955 83.821 81.7568 78.046C77.0749 75.7773 71.2174 72.8279 64.5142 69.2598Z" fill="white"/>
<path d="M243.251 68.8057C243.498 70.1669 243.828 72.0438 244.2 74.2919C244.715 77.4888 245.87 85.0582 246.716 94.9994C247.582 105.353 247.789 114.263 247.809 121.358C247.871 135.754 247.335 146.314 245.932 170.941C245.499 178.613 244.86 189.854 244.055 203.569C244.901 203.508 245.726 203.466 246.572 203.404C246.984 199.981 247.541 194.886 247.974 188.658C248.304 184.161 248.449 180.882 248.593 177.355C249.315 161.185 249.439 161.371 249.686 154.771C250.181 141.756 250.078 131.753 249.995 122.761C249.934 116.553 249.748 110.674 249.377 98.9182C249.109 90.9157 248.84 83.8207 247.025 74.6013C246.551 72.25 246.097 70.2907 245.767 68.95C244.922 68.9088 244.097 68.8675 243.251 68.8057Z" fill="#161616"/>
<path d="M61.3583 69.6309C61.214 70.3527 60.9871 71.4665 60.7602 72.8277C60.1002 76.7671 59.9352 79.7371 59.8733 80.7065C59.4196 87.719 58.5121 91.1427 57.1921 106.715C56.9446 109.561 56.759 112.056 56.3877 117.068C55.6246 127.298 55.2533 132.413 54.9852 138.188C54.6965 144.644 54.6552 149.202 54.5933 158.318C54.5315 166.197 54.4902 171.89 54.6965 179.335C54.8615 185.275 55.1915 193.34 55.9958 202.951C57.6665 203.446 59.3165 203.941 60.9871 204.436C60.9665 203.508 60.9046 201.837 60.7808 199.754C60.2858 190.493 59.4815 186.74 59.2958 179.026C59.234 176.654 59.2752 175.087 59.2958 172.838C59.5227 156.71 59.2546 149.347 59.399 138.869C59.6465 121.771 60.8015 108.406 61.7915 97.0209C62.7196 86.2546 63.7715 77.0352 64.679 69.8165C63.5446 69.7546 62.4515 69.6927 61.3583 69.6309Z" fill="#161616"/>
<path d="M206.209 81.2627C206.972 96.4014 206.869 111.581 206.662 126.72C206.435 141.529 206.332 156.379 205.198 171.167C204.559 179.582 203.548 187.976 201.98 196.288C201.898 196.68 202.496 196.845 202.579 196.453C205.322 181.913 206.332 167.125 206.786 152.357C207.26 137.28 207.467 122.162 207.446 107.065C207.425 98.4639 207.281 89.8633 206.848 81.2627C206.807 80.8708 206.188 80.8708 206.209 81.2627Z" fill="#161616"/>
<path d="M206.971 81.2629C218.418 75.5911 230.566 71.5073 243.106 69.0942C243.498 69.0117 243.333 68.4136 242.941 68.4961C230.36 70.9298 218.15 75.0548 206.662 80.7267C206.311 80.9123 206.621 81.4486 206.971 81.2629Z" fill="#161616"/>
<path d="M242.9 68.9081C246.304 86.0475 247.335 103.558 247.314 121.007C247.273 138.456 246.242 155.863 245.396 173.291C244.901 183.336 244.406 193.359 243.911 203.404C243.89 203.796 244.509 203.796 244.53 203.404C245.417 185.625 246.345 167.846 247.149 150.047C247.933 132.598 248.428 115.108 247.252 97.68C246.592 87.9656 245.417 78.2925 243.519 68.7638C243.416 68.3513 242.818 68.5163 242.9 68.9081Z" fill="#161616"/>
<path d="M202.083 196.412C203.011 197.485 204.661 197.691 205.961 198.083C207.734 198.619 209.529 199.155 211.303 199.692C214.891 200.764 218.459 201.898 222.089 202.806C229.184 204.538 236.465 204.889 243.663 203.651C244.055 203.59 243.89 202.991 243.498 203.053C236.403 204.27 229.226 203.92 222.254 202.208C218.934 201.403 215.675 200.372 212.416 199.382C210.766 198.887 209.116 198.392 207.466 197.897C206.641 197.65 205.816 197.402 204.991 197.155C204.125 196.887 203.156 196.701 202.537 195.979C202.248 195.69 201.815 196.123 202.083 196.412Z" fill="#161616"/>
<path d="M243.313 68.9291C244.076 69.1148 244.839 69.3004 245.623 69.486C246.015 69.5891 246.18 68.991 245.788 68.8879C245.025 68.7023 244.262 68.5167 243.478 68.331C243.086 68.2485 242.921 68.8467 243.313 68.9291Z" fill="#161616"/>
<path d="M245.581 69.2802C247.644 77.6127 248.201 86.3165 248.799 94.8758C249.417 103.621 249.747 112.386 249.892 121.173C250.139 138.601 249.541 156.029 248.551 173.437C247.994 183.295 247.293 193.154 246.571 203.013C246.551 203.405 247.169 203.405 247.19 203.013C248.489 185.482 249.665 167.95 250.222 150.378C250.779 132.846 250.737 115.274 249.624 97.7427C249.026 88.214 248.489 78.4377 246.2 69.1358C246.076 68.7233 245.478 68.8883 245.581 69.2802Z" fill="#161616"/>
<path d="M244.241 203.755C245.149 203.672 246.036 203.59 246.943 203.507C247.335 203.466 247.335 202.847 246.943 202.889C246.036 202.971 245.149 203.054 244.241 203.136C243.849 203.177 243.849 203.796 244.241 203.755Z" fill="#161616"/>
<path d="M106.569 89.08C105.187 103.373 104.362 117.708 104.094 132.063C103.825 146.479 104.114 160.917 104.98 175.313C105.455 183.398 106.135 191.462 106.96 199.506C107.002 199.898 107.62 199.898 107.579 199.506C106.094 185.234 105.166 170.899 104.795 156.544C104.424 142.127 104.609 127.69 105.372 113.294C105.805 105.209 106.404 97.1444 107.167 89.08C107.229 88.6882 106.61 88.6882 106.569 89.08Z" fill="#161616"/>
<path d="M64.9062 69.7545C78.2918 77.2001 92.1931 83.7176 106.466 89.2657C106.837 89.4101 107.002 88.812 106.631 88.6676C92.3993 83.1401 78.5599 76.6433 65.2156 69.2183C64.8649 69.012 64.5556 69.5483 64.9062 69.7545Z" fill="#161616"/>
<path d="M64.2679 69.6093C61.9786 87.0581 60.3904 104.61 59.5242 122.203C58.6579 139.796 58.5342 157.41 59.1117 175.003C59.4417 184.882 59.9986 194.762 60.7823 204.621C60.8236 205.012 61.4423 205.012 61.4011 204.621C59.9986 187.069 59.3385 169.455 59.3798 151.862C59.421 134.248 60.2048 116.655 61.6898 99.1031C62.5354 89.2443 63.6079 79.4268 64.8867 69.6093C64.9279 69.2175 64.3092 69.2175 64.2679 69.6093Z" fill="#161616"/>
<path d="M60.7605 205.013C72.2487 211.262 86.0056 209.922 97.6793 204.972C101.186 203.487 104.568 201.692 107.827 199.733C108.157 199.527 107.847 198.991 107.517 199.197C96.6481 205.776 83.9018 210.376 71.0524 207.983C67.5668 207.344 64.1843 206.168 61.0699 204.477C60.7399 204.291 60.4099 204.827 60.7605 205.013Z" fill="#161616"/>
<path d="M56.2027 203.301C57.6465 203.981 59.1315 204.559 60.6371 205.075C61.0084 205.198 61.1734 204.6 60.8021 204.476C59.3377 203.981 57.9146 203.425 56.5121 202.765C56.1409 202.6 55.8315 203.136 56.2027 203.301Z" fill="#161616"/>
<path d="M60.9465 69.7545C58.719 87.0383 56.8628 104.363 55.6459 121.75C54.4496 139.055 53.8721 156.4 54.2434 173.746C54.4496 183.563 54.9446 193.381 55.7903 203.157C55.8315 203.549 56.4503 203.549 56.409 203.157C54.924 185.811 54.4909 168.404 54.9034 150.996C55.2953 133.651 56.4915 116.326 58.2034 99.042C59.1728 89.2658 60.3072 79.4895 61.5653 69.7339C61.6272 69.3627 61.0084 69.3627 60.9465 69.7545Z" fill="#161616"/>
<path d="M61.2973 70.1866C62.4935 69.9391 63.6898 69.8566 64.9273 69.9185C65.3192 69.9391 65.3192 69.3204 64.9273 69.2998C63.6485 69.2379 62.3904 69.341 61.1323 69.5885C60.7404 69.671 60.9054 70.2691 61.2973 70.1866Z" fill="#161616"/>
<path d="M214.108 82.665C214.974 106.59 214.933 130.536 213.943 154.461C213.675 161.164 213.324 167.846 212.891 174.549C212.871 174.941 213.489 174.941 213.51 174.549C215.015 150.666 215.593 126.72 215.242 102.774C215.139 96.0712 214.974 89.3681 214.727 82.665C214.706 82.2731 214.087 82.2731 214.108 82.665Z" fill="#161616"/>
<path d="M224.111 74.0859C224.936 90.7303 225.349 107.416 225.328 124.081C225.328 140.746 224.916 157.432 224.091 174.076C223.637 183.502 223.039 192.907 222.317 202.312C222.296 202.703 222.915 202.703 222.936 202.312C224.214 185.688 225.081 169.043 225.555 152.378C226.009 135.713 226.071 119.028 225.72 102.363C225.514 92.9371 225.184 83.5115 224.73 74.0859C224.709 73.694 224.091 73.694 224.111 74.0859Z" fill="#161616"/>
<path d="M236.115 70.4145C237.27 87.7189 237.971 105.065 238.156 122.431C238.342 139.859 238.053 157.266 237.27 174.674C236.836 184.43 236.238 194.185 235.475 203.92C235.454 204.312 236.073 204.312 236.094 203.92C237.414 186.616 238.28 169.27 238.631 151.925C238.981 134.517 238.858 117.089 238.239 99.6608C237.888 89.9052 237.393 80.1495 236.733 70.3939C236.713 70.002 236.094 70.002 236.115 70.4145Z" fill="#161616"/>
<path d="M211.984 182.284C211.509 187.688 210.643 193.05 209.385 198.33C209.302 198.722 209.88 198.887 209.983 198.495C211.262 193.154 212.128 187.75 212.602 182.284C212.644 181.892 212.025 181.892 211.984 182.284Z" fill="#161616"/>
<path d="M71.6712 73.7758C69.1962 91.0802 68.1443 108.57 67.9793 126.04C67.8349 143.612 68.5568 161.164 69.6293 178.695C70.2274 188.616 70.9287 198.516 71.6299 208.436C71.6505 208.828 72.2693 208.828 72.2487 208.436C71.0112 190.967 69.7737 173.498 69.093 156.008C68.4124 138.559 68.3093 121.069 69.3199 103.62C69.8974 93.6996 70.8462 83.779 72.2487 73.9408C72.3312 73.5696 71.733 73.384 71.6712 73.7758Z" fill="#161616"/>
<path d="M83.5313 79.5511C81.9638 96.278 80.9119 113.067 80.5613 129.876C80.2313 146.665 80.6232 163.454 82.0051 180.201C82.7682 189.503 83.8407 198.764 85.2432 207.983C85.305 208.375 85.9032 208.21 85.8413 207.818C83.3251 191.194 81.8813 174.406 81.345 157.596C80.8088 141.014 81.1182 124.39 82.0257 107.828C82.5413 98.4024 83.2632 88.9768 84.1501 79.5718C84.1913 79.1593 83.5726 79.1593 83.5313 79.5511Z" fill="#161616"/>
<path d="M95.4105 84.4801C93.3892 100.093 92.2136 115.809 91.9042 131.546C91.5948 147.283 92.1311 163.041 93.513 178.716C94.2967 187.461 95.328 196.164 96.6274 204.848C96.6893 205.239 97.2874 205.074 97.2255 204.683C94.8949 189.131 93.4099 173.477 92.7705 157.781C92.1311 142.127 92.358 126.431 93.4099 110.777C94.008 101.991 94.8742 93.2045 96.0086 84.4595C96.0911 84.0883 95.4724 84.0883 95.4105 84.4801Z" fill="#161616"/>
<path opacity="0.12" d="M231.495 71.817C233.784 81.1602 235.641 92.112 236.259 104.384C237.806 135.61 230.464 161.123 224.07 177.5C219.553 184.739 215.057 191.978 210.54 199.218C214.933 201.115 221.451 203.322 229.577 203.982C235.187 204.436 240.054 204.023 243.849 203.405C243.891 202.497 244.571 188.699 244.613 187.791C246.861 141.571 247.005 138.415 247.088 135.239C247.459 122.307 247.397 103.745 245.19 80.5827C244.427 76.6433 243.664 72.7039 242.901 68.7852C239.126 69.7752 235.311 70.7858 231.495 71.817Z" fill="#3F3F3F"/>
<path opacity="0.13" d="M87.5527 81.9023C87.0165 84.1505 86.2121 87.5123 85.2633 91.6167C81.0558 109.932 77.9621 123.4 76.3121 135.795C73.3833 157.637 70.5577 178.799 82.6027 196.165C86.109 201.218 89.9452 204.621 92.5027 206.642C90.0277 207.612 86.9546 208.499 83.3658 208.932C73.3833 210.107 65.3809 206.869 61.4621 204.93C59.9771 191.256 58.9459 176.612 58.6159 161.123C57.8734 126.844 60.6577 96.0305 64.9065 69.5273C72.4346 73.6523 79.9833 77.7773 87.5527 81.9023Z" fill="#3F3F3F"/>
<path d="M65.9186 59.7099C65.6505 59.9162 65.8568 60.7205 66.228 62.1024C66.3724 62.6387 66.5168 63.0512 66.5993 63.3193C66.4343 64.433 66.2899 65.5468 66.1249 66.6605C65.7949 66.7018 64.9493 66.8874 64.1655 67.568C63.4436 68.2074 63.1549 68.9499 63.0518 69.2799C63.7118 69.3418 64.5161 69.4862 65.3824 69.7543C66.6405 70.1462 67.6305 70.6824 68.3524 71.1362C68.3524 71.3837 68.3936 71.858 68.7236 72.2087C69.0124 72.4974 69.363 72.5387 69.5693 72.5799C70.3118 72.7037 71.1986 72.8687 72.333 73.1162C72.828 73.4049 73.653 73.8793 74.6636 74.4362C78.0874 76.2924 79.3249 76.6018 82.7486 78.4168C84.9555 79.5924 84.7699 79.6337 86.3168 80.3762C88.6886 81.5312 90.7305 82.2118 92.1124 82.6037C92.6899 81.9643 93.618 80.7268 94.1336 78.9324C94.5461 77.5093 94.5255 76.2718 94.443 75.4674C94.7936 75.653 95.3505 75.8593 95.9899 75.7768C97.6399 75.5912 98.6918 73.7143 99.0218 72.3737C99.3105 71.198 99.0424 70.4555 98.8155 69.0737C98.2999 65.9799 97.8461 63.2162 99.1249 61.463C100.197 59.9987 102.404 59.318 104.178 57.3587C104.343 57.173 104.652 56.8224 104.549 56.6574C104.364 56.348 102.92 56.8843 102.219 57.1937C101.765 57.3999 98.3618 58.9674 97.3305 62.5149C97.1655 63.0718 97.1449 64.6805 97.1243 67.8774C97.1036 70.208 97.1449 71.528 96.2168 72.2912C95.7424 72.683 95.0411 72.9099 94.4018 72.7655C93.453 72.5593 92.9993 71.6312 92.5868 71.0124C91.5143 69.383 89.988 68.7024 88.1111 67.7743C86.6468 67.0524 85.3886 66.7843 82.8518 66.2274C80.4593 65.7118 79.7374 65.7737 78.7061 65.0105C77.5511 64.1443 76.9118 62.9274 76.5818 62.2468C76.2518 61.6074 75.7361 60.5968 75.5093 59.153C75.3855 58.3074 75.4061 57.7093 75.1999 57.668C74.8286 57.5855 74.643 59.2974 73.3849 59.8955C72.6218 60.2668 72.1268 59.9162 70.7861 59.9574C69.9199 59.978 68.9299 60.1637 67.8161 60.6587C67.4449 60.3905 66.2899 59.4418 65.9186 59.7099Z" fill="black"/>
<path d="M66.5369 66.496C66.1038 63.0928 69.1975 59.9991 72.6213 60.3497C75.8594 60.6797 78.0044 64.6191 77.9013 67.5685C77.8807 67.9604 78.4994 67.9604 78.5201 67.5685C78.6232 64.3097 76.1894 60.0197 72.6213 59.731C68.8675 59.4216 65.4438 62.7422 65.9182 66.496C65.98 66.8672 66.5988 66.8878 66.5369 66.496Z" fill="black"/>
<path d="M66.475 68.641C67.7331 71.0954 70.435 72.8279 73.2607 72.4566C75.8388 72.106 78.025 70.0229 78.4169 67.4447C78.4788 67.0529 77.8807 66.8879 77.8188 67.2797C77.4682 69.631 75.5294 71.5285 73.1781 71.8379C70.6 72.1885 68.1663 70.5797 67.0113 68.3316C66.8256 67.981 66.2894 68.2904 66.475 68.641Z" fill="black"/>
<path d="M68.7034 71.6316C68.6415 70.8479 70.869 70.5179 71.4259 70.3941C72.4365 70.1673 73.4678 70.0435 74.499 70.0435C76.4171 70.0435 78.2528 70.5385 79.8821 71.5491C80.2121 71.7554 80.5421 71.2191 80.1915 71.0129C78.0878 69.7135 75.6334 69.2598 73.1996 69.4866C71.9209 69.6104 70.6627 69.8785 69.4459 70.291C68.7859 70.5179 68.0021 70.8066 68.064 71.6316C68.1052 72.0235 68.7446 72.0235 68.7034 71.6316Z" fill="black"/>
<path d="M77.5712 64.495C78.8705 66.0625 80.9743 66.4338 82.8512 66.8463C85.3468 67.4238 87.9249 67.9394 90.1111 69.3213C94.628 72.1675 95.4736 78.3757 91.9055 82.3563C91.6374 82.6451 92.0705 83.0988 92.3386 82.7894C95.5149 79.2625 95.5974 73.8588 92.318 70.3525C90.5855 68.4963 88.1105 67.5269 85.6974 66.8875C83.243 66.2481 79.7162 66.145 77.9837 64.0413C77.7568 63.7525 77.3237 64.1856 77.5712 64.495Z" fill="black"/>
<path d="M92.0089 75.2816C90.9777 73.9203 89.1627 73.4459 87.5746 74.1059C85.6152 74.9103 85.5121 77.3234 85.739 79.159C85.7802 79.5509 86.399 79.5509 86.3577 79.159C86.1721 77.7153 86.1515 75.4878 87.6364 74.7659C88.9152 74.1266 90.5858 74.4566 91.4521 75.6116C91.6996 75.9209 92.2358 75.6116 92.0089 75.2816Z" fill="black"/>
<path d="M86.2753 78.8712C85.1409 78.005 83.9653 77.2625 82.5009 77.6543C82.3359 77.6956 82.2534 77.8812 82.2947 78.0256C82.6659 79.4693 84.9347 80.0675 86.1309 80.5831C87.9666 81.3875 89.8434 82.0681 91.7409 82.6662C92.1122 82.79 92.2772 82.1918 91.9059 82.0681C90.3797 81.5937 88.8947 81.0781 87.4097 80.4593C86.6053 80.1293 85.8216 79.7787 85.0378 79.4075C84.3366 79.0775 83.0784 78.6856 82.8722 77.8606C82.8103 77.9843 82.7278 78.1081 82.6659 78.2318C83.9447 77.8812 84.9966 78.6443 85.9453 79.3868C86.2753 79.655 86.5847 79.1187 86.2753 78.8712Z" fill="black"/>
<path d="M68.1461 71.5691C68.9505 72.8891 70.5798 73.116 72.003 73.3222C74.1067 73.6316 76.2105 73.6316 78.3142 73.4047C78.7061 73.3635 78.7061 72.7447 78.3142 72.786C76.623 72.9716 74.9317 73.0128 73.2405 72.8478C71.8173 72.7035 69.528 72.621 68.6617 71.2597C68.4761 70.9091 67.9398 71.2185 68.1461 71.5691Z" fill="black"/>
<path d="M63.3402 69.4655C63.6083 68.0218 64.8664 67.2793 66.2689 67.2174C66.1658 67.1349 66.0627 67.073 65.9802 66.9905C66.0833 67.4855 66.2277 67.9599 66.4339 68.4136C66.5783 68.7849 67.1764 68.6199 67.032 68.2486C66.8464 67.7743 66.702 67.3205 66.5783 66.8255C66.5577 66.7018 66.4133 66.5986 66.2895 66.5986C64.6395 66.6811 63.0721 67.5886 62.7627 69.3005C62.6802 69.6924 63.2783 69.8574 63.3402 69.4655Z" fill="black"/>
<path d="M66.9291 63.0716C66.6197 62.1848 66.3929 61.2566 66.3104 60.3079C66.3104 60.2254 66.2897 60.1429 66.2897 60.0604C66.2691 59.8748 66.2897 59.8954 66.3722 60.1223C66.5579 60.246 66.7435 60.3904 66.9291 60.5348C67.2385 60.8029 67.5272 61.0916 67.7747 61.401C68.0429 61.7104 68.476 61.2566 68.2079 60.9679C67.8572 60.5554 66.3929 58.8641 65.7741 59.5241C65.4647 59.8541 65.6916 60.6173 65.7535 60.9885C65.8566 61.7516 66.0629 62.5148 66.3104 63.2366C66.4754 63.6079 67.0735 63.4635 66.9291 63.0716Z" fill="black"/>
<path d="M73.9 60.1837C74.0856 59.8537 74.2713 59.5237 74.4775 59.1937C74.56 59.0493 74.6425 58.9256 74.7044 58.7812C74.8282 58.575 74.8282 58.3893 75.0757 58.4512C75.3644 58.5131 75.2613 59.1937 75.2613 59.4412C75.2613 59.8331 75.2819 60.2249 75.2819 60.6168C75.2819 61.0087 75.9007 61.0087 75.9007 60.6168C75.9007 59.9774 75.9213 59.3381 75.88 58.6987C75.8594 58.2862 75.715 57.8325 75.2613 57.6881C74.8488 57.5643 74.56 57.8325 74.3538 58.1418C74.0031 58.6987 73.6938 59.2968 73.3638 59.8537C73.1575 60.225 73.6938 60.5343 73.9 60.1837Z" fill="black"/>
<path d="M93.6587 73.6735C93.7825 75.241 95.5356 75.7566 96.7525 74.9935C98.5468 73.8797 98.9387 71.3635 98.7118 69.466C98.4025 66.8672 97.7837 64.4541 98.6706 61.876C99.5162 59.4216 101.62 57.421 104.281 57.256C104.672 57.2353 104.672 56.6166 104.281 56.6372C100.651 56.8641 98.1756 59.9578 97.66 63.3816C97.3506 65.4235 97.8043 67.321 98.0725 69.3216C98.2375 70.6416 98.155 71.8997 97.5568 73.1166C97.2887 73.6322 96.9175 74.1479 96.4225 74.4779C95.6593 74.9522 94.3393 74.8078 94.2568 73.6941C94.2568 73.2816 93.6381 73.261 93.6587 73.6735Z" fill="black"/>
<path d="M93.9891 74.7871C94.6285 76.499 96.856 75.7359 97.8254 74.7459C99.4135 73.1371 99.0629 70.4559 98.9391 68.414C98.9185 68.0221 98.2997 68.0221 98.3204 68.414C98.4029 69.7134 98.5266 71.1159 98.2997 72.4152C98.1966 73.034 97.9697 73.6115 97.5572 74.1065C97.1035 74.6634 95.1235 76.0659 94.5872 74.6221C94.4429 74.2509 93.8447 74.4159 93.9891 74.7871Z" fill="black"/>
<path d="M104.302 56.6161C101.95 57.5236 99.5785 58.8023 98.6298 61.2773C97.5366 64.1235 98.3204 67.2173 98.2585 70.1667C98.2585 70.5585 98.8773 70.5585 98.8773 70.1667C98.9391 67.5885 98.3204 64.9485 98.9391 62.391C99.6198 59.5861 101.95 58.1836 104.467 57.2142C104.838 57.0698 104.673 56.4717 104.302 56.6161Z" fill="black"/>
<path d="M103.827 56.9667C101.662 57.9567 99.6818 59.6892 98.6712 61.8961C98.135 63.0511 98.2175 64.3298 98.2175 65.5879C98.2175 67.1967 98.2793 68.8261 98.4031 70.4348C98.4237 70.8267 99.0425 70.8267 99.0218 70.4348C98.9393 69.1354 98.8775 67.8567 98.8568 66.5573C98.8362 65.1961 98.6506 63.5873 99.1662 62.3086C100.053 60.1429 102.054 58.4723 104.137 57.5029C104.508 57.3379 104.199 56.8017 103.827 56.9667Z" fill="black"/>
<path d="M67.7546 64.4328C68.3321 65.4435 69.7965 65.0929 69.9409 63.9791C69.9615 63.7728 69.6521 63.7935 69.6315 63.9791C69.5284 64.8247 68.4559 64.9897 68.0228 64.2885C67.9196 64.1028 67.6515 64.2678 67.7546 64.4328Z" fill="white"/>
<path d="M72.1267 63.6288C72.7661 64.7219 74.3955 64.2888 74.4161 63.0307C74.4161 62.8244 74.1067 62.8244 74.1067 63.0307C74.0861 64.0001 72.8898 64.3094 72.3948 63.4844C72.2917 63.2988 72.0236 63.4432 72.1267 63.6288Z" fill="white"/>
<path d="M70.8893 64.9899C71.0337 65.588 70.91 66.1861 70.5387 66.6811C70.4149 66.8461 70.6831 66.9905 70.8068 66.8461C71.2193 66.2892 71.3431 65.588 71.1987 64.9074C71.1368 64.7217 70.8275 64.8042 70.8893 64.9899Z" fill="white"/>
<path d="M71.0127 64.9691C70.9508 65.7529 71.3839 66.4954 72.1058 66.8254C72.2914 66.9079 72.4358 66.6398 72.2708 66.5573C71.6521 66.2685 71.2602 65.6498 71.3221 64.9691C71.3221 64.7629 71.0127 64.7629 71.0127 64.9691Z" fill="white"/>
<path d="M65.98 66.8049C67.795 66.6606 68.95 68.1456 70.1669 69.2387C70.3113 69.3624 70.5382 69.1562 70.3938 69.0118C69.115 67.8568 67.8775 66.3512 65.98 66.4749C65.7944 66.4956 65.7944 66.8049 65.98 66.8049Z" fill="white"/>
<path d="M69.3621 70.4349C71.6927 68.9499 74.4565 68.4549 77.1584 69.0531C77.344 69.0943 77.4265 68.8056 77.2409 68.7643C74.4565 68.1662 71.6102 68.6612 69.2177 70.1874C69.0321 70.2699 69.1971 70.5381 69.3621 70.4349Z" fill="white"/>
<path d="M75.2203 73.2608C77.1384 73.3846 78.9534 72.7864 80.4178 71.5283C80.5621 71.4046 80.3559 71.1777 80.1909 71.3014C78.7884 72.4977 77.0559 73.0752 75.2203 72.9514C75.0346 72.9514 75.0346 73.2608 75.2203 73.2608Z" fill="white"/>
<path d="M74.6635 58.6165C74.2097 59.3797 74.1066 60.2665 74.3747 61.1121C74.4366 61.2978 74.7254 61.2153 74.6635 61.0296C74.416 60.2665 74.4985 59.4621 74.911 58.7815C75.0347 58.5959 74.7666 58.4309 74.6635 58.6165Z" fill="white"/>
<path d="M66.4957 60.5345C66.9907 60.8439 67.3001 61.3182 67.4238 61.8751C67.4651 62.0608 67.7538 61.9783 67.7126 61.7926C67.5682 61.1532 67.197 60.617 66.6401 60.2664C66.4751 60.1632 66.3307 60.4314 66.4957 60.5345Z" fill="white"/>
<path d="M77.4061 63.8346C77.798 64.309 78.2517 64.7215 78.7674 65.0309C78.9324 65.134 79.0974 64.8659 78.9324 64.7628C78.4374 64.4534 77.9836 64.0615 77.633 63.6078C77.4886 63.4634 77.2824 63.6903 77.4061 63.8346Z" fill="white"/>
<path d="M90.1318 73.9623C89.6987 72.8691 87.6155 73.6116 86.9349 74.0448C85.718 74.8491 85.1817 76.3548 85.6355 77.7366C85.6974 77.9222 85.9861 77.8397 85.9243 77.6541C85.5736 76.561 85.8624 75.3854 86.7286 74.581C87.0999 74.2304 87.5949 73.9829 88.0899 73.8591C88.4405 73.756 89.6368 73.5291 89.8224 74.0241C89.9049 74.2304 90.1937 74.1479 90.1318 73.9623Z" fill="white"/>
<path d="M85.883 77.757C84.2742 77.0764 82.5624 77.0146 80.8917 77.5302C80.7061 77.592 80.7886 77.8808 80.9742 77.8189C82.6036 77.3033 84.233 77.3858 85.8005 78.0458C85.9861 78.1283 86.0686 77.8189 85.883 77.757Z" fill="white"/>
<path d="M142.54 163.536C141.694 165.558 141.694 167.063 141.57 170.941C141.426 175.726 141.013 180.49 140.972 185.255C140.931 189.276 140.869 195.361 140.704 203.281C147.304 203.652 154.605 203.735 162.525 203.343C170.074 202.971 177.045 202.208 183.336 201.26C180.366 191.215 178.407 183.893 177.004 178.221C176.262 175.19 175.168 170.652 172.157 165.351C170.507 162.443 168.795 160.257 167.537 158.793C167.207 158.504 159.927 152.378 151.512 155.266C151.099 155.431 144.973 157.658 142.54 163.536Z" fill="#EC615B"/>
<path d="M154.688 175.56C156.07 178.015 157.452 180.469 158.813 182.923C158.999 183.274 159.535 182.965 159.349 182.614C157.967 180.16 156.585 177.705 155.224 175.251C155.039 174.9 154.502 175.21 154.688 175.56Z" fill="#C64F4F"/>
<path d="M154.523 175.437C157.699 179.397 159.535 183.914 160.525 188.864C161.453 193.546 162.051 198.289 162.402 203.054C162.422 203.446 163.041 203.446 163.02 203.054C162.649 198.166 162.03 193.277 161.082 188.472C160.092 183.501 158.153 178.964 154.977 175.004C154.729 174.674 154.275 175.127 154.523 175.437Z" fill="#C64F4F"/>
<path opacity="0.19" d="M159.493 154.791C160.215 156.235 161.246 158.359 162.401 160.917C165.763 168.383 169.249 176.262 171.105 185.955C171.868 189.874 172.59 195.546 172.281 202.62C174.013 202.538 175.849 202.394 177.767 202.187C179.685 201.981 181.521 201.734 183.253 201.445C182.717 199.63 181.851 196.742 180.881 193.174C178.179 183.192 177.808 180.077 175.498 173.498C173.786 168.61 172.198 165.289 169.909 162.113C167.846 159.246 165.908 157.452 163.453 156.194C161.927 155.41 160.504 155.018 159.493 154.791Z" fill="#3F3F3F"/>
<path opacity="0.11" d="M154.563 175.664C155.368 178.675 156.069 182.264 156.399 186.307C156.977 193.298 156.234 199.259 155.327 203.714C157.698 203.57 160.05 203.425 162.422 203.281C162.174 198.599 161.638 194.66 161.122 191.669C159.823 184.058 158.462 181.233 157.368 179.418C156.337 177.747 155.306 176.489 154.563 175.664Z" fill="#3F3F3F"/>
<path d="M128.144 128.391C127.464 128.845 127.051 129.711 126.247 131.423C125.587 132.826 125.277 133.919 124.782 135.548C123.421 140.168 123.566 139.384 123.091 141.137C122.472 143.468 121.359 147.552 120.74 152.935C120.142 158.153 120.266 162.175 120.286 163.144C120.513 169.27 121.586 173.828 122.307 176.757C123.586 182.016 125.298 186.389 128.701 195.113C129.444 196.99 130.062 198.537 130.496 199.609C130.186 199.65 129.691 199.712 129.093 199.795C125.979 200.166 125.546 200.084 124.287 200.352C122.679 200.702 121.235 201.053 120.678 202.27C120.431 202.827 120.327 203.61 120.637 203.879C121.029 204.209 121.792 203.466 123.112 203.033C124.226 202.682 125.216 202.703 125.896 202.806C125.36 203.858 125.051 204.807 124.865 205.487C124.411 207.055 124.061 208.334 124.638 209.241C124.927 209.695 125.484 210.107 125.937 209.983C126.185 209.922 126.412 209.695 127.031 208.065C127.629 206.436 127.67 205.92 128.165 205.281C128.598 204.745 129.093 204.456 129.423 204.291C129.258 204.807 129.072 205.57 128.99 206.498C128.949 207.055 128.887 207.57 128.99 208.23C129.072 208.829 129.258 210.107 130.207 210.808C130.372 210.932 131.052 211.448 131.465 211.18C131.816 210.974 131.712 210.396 131.857 208.54C131.981 206.972 132.104 206.539 132.207 206.292C132.476 205.57 132.888 205.054 133.197 204.745C133.094 206.23 133.115 207.467 133.156 208.375C133.239 209.839 133.383 210.499 133.857 210.912C134.126 211.138 134.579 211.365 134.951 211.2C135.322 211.035 135.446 210.52 135.549 209.88C136.002 207.467 135.734 206.766 136.25 205.549C136.456 205.075 136.683 204.497 137.24 204.085C138.416 203.219 140.086 203.734 140.313 203.796C141.303 204.105 141.674 204.642 142.169 204.415C142.582 204.229 142.809 203.631 142.829 203.136C142.85 201.919 141.509 200.991 140.354 200.228C139.777 199.836 138.911 199.32 137.756 198.908C136.745 196.907 135.466 193.999 134.414 190.307C133.713 187.832 133.383 185.935 133.074 184.14C131.981 177.85 132.372 175.437 131.156 169.187C130.867 167.682 130.578 166.485 130.413 165.805C130.496 164.774 130.64 163.165 130.846 161.205C131.527 154.812 131.981 150.81 133.362 146.108C134.456 142.416 135.569 139.384 135.569 139.384C136.972 135.61 137.426 135.094 137.261 133.877C136.683 130.041 130.681 126.7 128.144 128.391Z" fill="white"/>
<path d="M126.556 130.35C122.885 138.827 120.575 147.882 120.08 157.122C119.564 166.547 121.193 175.767 124.246 184.677C125.978 189.771 128.082 194.721 130.227 199.671C130.392 200.042 130.908 199.712 130.763 199.362C127.051 190.782 123.421 182.078 121.688 172.879C119.976 163.804 120.327 154.42 122.307 145.407C123.421 140.353 125.03 135.424 127.092 130.68C127.236 130.309 126.721 129.979 126.556 130.35Z" fill="#161616"/>
<path d="M134.249 142.127C131.65 149.985 130.289 158.215 130.145 166.485C130.145 166.877 130.763 166.877 130.763 166.485C130.908 158.256 132.269 150.109 134.847 142.292C134.971 141.921 134.373 141.756 134.249 142.127Z" fill="#161616"/>
<path d="M127.979 162.731C129.814 165.289 130.557 168.341 130.99 171.394C131.444 174.508 131.65 177.664 132.104 180.778C133.011 187.11 134.496 193.421 137.487 199.093C137.672 199.444 138.209 199.135 138.023 198.784C134.909 192.885 133.444 186.306 132.578 179.747C131.815 173.993 132.042 167.331 128.515 162.422C128.288 162.113 127.752 162.422 127.979 162.731Z" fill="#161616"/>
<path d="M130.145 199.382C128.227 199.485 126.309 199.671 124.432 200.022C123.091 200.29 121.668 200.723 120.74 201.795C120.204 202.435 119.523 203.961 120.699 204.394C121.214 204.58 121.668 204.229 122.101 203.982C123.174 203.363 124.287 202.724 125.566 203.074C125.958 203.177 126.123 202.579 125.731 202.476C124.679 202.187 123.731 202.435 122.782 202.909C122.493 203.054 122.225 203.198 121.957 203.363C121.792 203.445 121.647 203.549 121.482 203.652C121.297 203.322 121.091 202.992 120.905 202.662C120.946 202.146 121.977 201.548 122.349 201.342C123.359 200.805 124.535 200.62 125.649 200.455C127.154 200.228 128.66 200.084 130.166 200.001C130.557 199.98 130.557 199.362 130.145 199.382Z" fill="#161616"/>
<path d="M128.453 201.218C126.824 201.486 125.483 202.6 124.864 204.106C124.204 205.673 123.647 208.004 124.41 209.613C124.988 210.83 126.411 211.263 126.947 209.778C127.277 208.85 127.215 207.839 127.545 206.911C127.958 205.756 128.659 204.766 129.69 204.085C130.02 203.858 129.711 203.322 129.381 203.549C128.412 204.188 127.69 205.055 127.215 206.106C126.968 206.643 126.782 207.2 126.659 207.777C126.555 208.251 126.494 210.644 125.359 209.943C124.72 209.551 124.658 208.293 124.679 207.653C124.72 206.705 124.967 205.611 125.277 204.704C125.792 203.178 127.009 202.085 128.597 201.816C129.01 201.755 128.845 201.156 128.453 201.218Z" fill="#161616"/>
<path d="M130.392 202.744C129.114 203.569 128.66 205.364 128.536 206.807C128.412 208.354 128.845 210.025 130 211.118C130.681 211.757 131.733 212.087 131.919 210.891C132.228 208.891 131.424 206.065 133.61 204.869C133.96 204.683 133.651 204.147 133.3 204.332C132.517 204.766 132.022 205.467 131.712 206.312C131.279 207.55 131.527 208.808 131.341 210.087C131.259 210.664 131.094 211.283 130.454 210.685C130.227 210.479 130.021 210.211 129.856 209.942C129.464 209.324 129.237 208.622 129.175 207.901C129.031 206.457 129.402 204.147 130.722 203.281C131.032 203.054 130.722 202.517 130.392 202.744Z" fill="#161616"/>
<path d="M133.321 204.395C132.929 205.88 132.558 207.426 132.805 208.973C132.909 209.716 133.342 211.531 134.29 211.716C135.363 211.923 135.796 210.025 135.899 209.324C136.126 207.798 135.837 205.962 137.034 204.786C137.322 204.498 136.889 204.065 136.6 204.353C135.157 205.776 135.652 207.839 135.219 209.654C135.074 210.314 134.662 211.304 133.981 210.541C133.61 210.149 133.507 209.386 133.424 208.87C133.218 207.426 133.569 205.983 133.94 204.58C134.022 204.188 133.424 204.023 133.321 204.395Z" fill="#161616"/>
<path d="M137.776 199.444C138.993 199.939 140.251 200.475 141.2 201.424C141.633 201.857 142.169 202.517 142.293 203.136C142.602 204.848 141.323 203.755 140.849 203.548C139.55 202.971 136.971 203.383 136.229 204.703C136.043 205.054 136.58 205.363 136.765 205.013C137.157 204.291 138.23 204.105 138.972 204.002C139.426 203.94 139.941 203.899 140.375 204.023C140.87 204.167 141.179 204.6 141.653 204.745C142.334 204.951 142.85 204.477 142.953 203.817C143.138 202.744 142.21 201.548 141.488 200.847C140.478 199.877 139.178 199.341 137.9 198.825C137.57 198.702 137.425 199.3 137.776 199.444Z" fill="#161616"/>
<path opacity="0.13" d="M133.61 135.466C131.238 135.61 129.815 141.674 129.031 145.036C128.144 148.81 127.34 154.007 127.505 161.577C127.649 168.342 128.516 173.498 128.804 175.292C130.104 183.006 132.146 189.482 134.146 194.556C134.806 196.412 135.446 198.269 136.106 200.104C135.734 201.631 135.363 203.198 135.013 204.827C134.559 206.972 134.146 209.076 133.816 211.097C134.208 211.139 134.744 211.118 135.116 210.747C135.59 210.272 135.528 209.509 135.549 208.849C135.569 208.231 135.631 205.24 136.972 204.126C137.797 203.446 139.117 203.446 140.024 203.776C140.953 204.126 141.365 204.807 141.984 204.601C142.458 204.456 142.788 203.879 142.85 203.425C143.056 201.919 140.169 200.372 139.694 200.125C138.766 199.63 138.333 199.568 137.735 198.949C136.993 198.166 136.745 197.237 136.642 196.825C134.93 190.307 134.084 190.72 132.929 183.233C132.063 177.582 132.62 177.912 131.733 173.416C131.114 170.239 130.599 168.94 130.434 166.197C130.248 163.186 130.599 160.834 130.97 158.751C132.517 150.233 135.487 139.921 136.209 137.466C135.549 136.435 134.641 135.404 133.61 135.466Z" fill="#3F3F3F"/>
<path d="M175.704 50.6756C175.065 50.655 174.57 51.81 174.446 52.1193C174.261 52.5731 173.972 53.46 174.178 54.7181C174.178 54.7181 174.302 55.5843 174.714 60.8231C174.817 61.9987 174.838 63.7106 174.529 65.8556C173.704 68.1243 172.92 69.8981 172.384 71.0531C170.569 74.9306 169.352 76.4774 166.815 81.3862C165.866 83.2218 165.784 83.5106 164.67 85.7793C161.886 91.4099 159.844 94.9368 157.761 98.7112C155.925 102.011 153.347 106.858 150.315 113.087C150.171 113.623 149.449 116.49 151.119 119.006C152.893 121.667 156.606 122.863 160.194 121.708C160.751 120.924 161.535 119.707 162.257 118.119C162.958 116.572 163.288 115.376 163.515 114.613C163.742 113.85 164.649 111.272 166.485 106.074C167.062 104.466 167.764 102.547 169.187 98.7937C171.352 93.0393 172.425 90.1724 173.147 88.3781C174.776 84.2943 176.014 81.4687 178.447 75.9824C179.726 73.0949 181.294 69.6093 183.109 65.6493C184.161 65.0512 185.604 64.1231 187.151 62.7824C189.379 60.8643 190.492 59.235 192.637 56.1412C194.019 54.12 195.071 52.3462 194.782 50.5725C194.741 50.325 194.638 49.6031 194.246 49.5C193.751 49.3556 193.132 50.3456 192.452 51.2118C191.751 52.0987 190.699 53.2537 189.131 54.45C189.667 52.965 190.204 51.81 190.575 51.0468C191.421 49.3143 192.122 48.2006 192.555 46.2825C193.029 44.2406 192.596 43.8693 192.472 43.7662C191.916 43.3537 190.967 44.1375 190.41 43.6837C189.915 43.2506 190.348 42.3018 189.956 42.075C189.564 41.8481 188.698 42.5287 188.079 43.2506C187.007 44.4881 186.759 45.6843 186.367 46.8393C185.996 47.9737 185.316 49.5206 184.037 51.2325C183.727 51.2737 183.315 51.2943 183.129 51.0468C182.923 50.7581 183.212 50.2837 183.48 49.5206C183.542 49.335 183.501 49.4381 183.934 47.5406C184.099 46.8187 184.408 45.4781 184.656 44.4056C185.006 42.8587 185.171 42.2193 184.841 41.5387C184.779 41.3943 184.511 40.8375 184.119 40.8168C183.666 40.7962 183.315 41.5181 183.047 42.075C181.954 44.3231 181.397 45.4575 181.252 45.8493C180.531 47.8087 179.561 50.7993 179.417 51.8306C179.396 51.9543 179.355 52.3875 179.149 52.9443C179.046 53.2125 178.984 53.3156 178.922 53.4806C178.406 54.6356 178.839 55.3987 178.303 55.8112C178.241 55.8525 177.932 56.0793 177.684 55.9968C177.416 55.9143 177.292 55.5637 177.148 54.3881C176.942 52.7793 177.066 52.305 176.694 51.6037C176.447 51.2943 176.137 50.6962 175.704 50.6756Z" fill="white"/>
<path d="M174.715 60.2258C174.859 58.7202 174.632 57.2558 174.55 55.7502C174.508 55.0283 174.508 54.2858 174.611 53.564C174.673 53.1515 174.756 52.739 174.88 52.3471C175.086 51.749 175.106 51.254 175.766 51.2333C176.385 51.2127 176.344 51.584 176.447 52.0996C176.55 52.5533 176.571 53.0277 176.591 53.4815C176.633 54.1208 176.653 54.7808 176.798 55.3996C176.942 56.039 177.334 56.5752 178.056 56.3483C178.427 56.2246 178.283 55.6265 177.891 55.7502C177.169 55.9565 177.231 53.5227 177.19 53.1102C177.128 52.4502 177.066 51.7696 176.818 51.1508C176.468 50.2846 175.663 49.8515 174.983 50.6558C174.096 51.6871 173.91 53.5433 173.91 54.8221C173.91 56.6371 174.261 58.4108 174.096 60.2258C174.075 60.6177 174.694 60.6177 174.715 60.2258Z" fill="#161616"/>
<path d="M178.304 56.1004C179.335 54.0998 179.645 51.831 180.243 49.686C180.882 47.376 181.687 45.1073 182.883 43.0448C183.151 42.591 183.419 41.9516 183.811 41.601C184.574 40.8998 184.574 42.2404 184.512 42.8179C184.389 44.0966 184.059 45.396 183.77 46.6541C183.502 47.8091 183.131 48.9229 182.862 50.0779C182.718 50.7173 182.718 51.2741 183.172 51.7691C183.44 52.0579 183.873 51.6248 183.605 51.336C183.089 50.7791 183.626 49.6654 183.791 49.0673C183.976 48.3866 184.162 47.706 184.306 47.0254C184.595 45.7673 184.884 44.4885 185.069 43.1891C185.172 42.5085 185.317 41.3123 184.719 40.7966C184.203 40.3635 183.687 40.776 183.337 41.1885C181.831 43.0654 180.903 45.5404 180.161 47.8091C179.315 50.4285 179.047 53.3573 177.768 55.8116C177.582 56.1416 178.119 56.451 178.304 56.1004Z" fill="#161616"/>
<path d="M183.316 51.831C183.935 51.8929 184.161 51.4392 184.45 50.9442C184.904 50.1604 185.316 49.3354 185.708 48.531C186.471 46.9635 187.008 45.2516 187.936 43.7873C188.142 43.4573 188.39 43.0448 188.72 42.7973C188.988 42.4879 189.338 42.3848 189.792 42.5291C189.854 42.8179 189.895 43.1066 189.895 43.3954C189.916 44.406 189.586 45.4166 189.235 46.3654C188.534 48.2423 187.75 50.0985 186.987 51.9754C186.843 52.3467 187.441 52.5117 187.585 52.1404C188.018 51.0679 192.473 41.6629 189.565 41.601C188.988 41.5804 188.328 42.3023 187.998 42.6941C187.42 43.3748 187.008 44.1585 186.636 44.9629C186.203 45.9323 185.811 46.9016 185.358 47.8504C185.09 48.4279 184.78 49.026 184.491 49.5829C184.306 49.9541 183.852 51.2329 183.336 51.1916C182.924 51.171 182.924 51.7898 183.316 51.831Z" fill="#161616"/>
<path d="M190.617 44.2414C190.844 43.0451 192.144 43.8701 192.309 44.6333C192.453 45.2726 192.205 45.912 191.999 46.5101C191.69 47.4176 191.339 48.3045 190.968 49.1708C190.246 50.862 189.4 52.4708 188.452 54.0589C188.245 54.4095 188.782 54.7189 188.988 54.3683C189.875 52.9039 190.659 51.3776 191.36 49.8308C191.958 48.4901 192.68 47.0051 192.907 45.5408C193.051 44.6126 192.783 43.4164 191.752 43.0864C190.989 42.8389 190.164 43.3133 190.019 44.097C189.957 44.4683 190.555 44.6333 190.617 44.2414Z" fill="#161616"/>
<path d="M189.42 54.6158C190.204 53.7289 190.967 52.8421 191.751 51.9552C192.163 51.4808 192.535 50.9652 192.988 50.5527C193.133 50.4289 193.277 50.3258 193.401 50.2021C193.751 50.3258 194.102 50.4496 194.473 50.5733C194.576 50.7589 194.329 51.2952 194.267 51.4602C193.628 53.4196 192.7 55.2758 191.606 57.0083C189.4 60.4939 186.368 63.4227 182.82 65.547C182.469 65.7533 182.799 66.2895 183.129 66.0833C187.543 63.4433 191.173 59.5658 193.463 54.9664C194.02 53.8527 194.556 52.6771 194.906 51.4808C195.113 50.7796 195.236 49.8308 194.432 49.4596C193.648 49.0883 192.823 49.8102 192.328 50.3258C191.153 51.5427 190.08 52.9039 188.966 54.1827C188.719 54.4714 189.152 54.9046 189.42 54.6158Z" fill="#161616"/>
<path d="M174.179 59.5859C174.323 61.4834 174.467 63.4222 174.158 65.3197C173.849 67.1965 173.065 68.929 172.199 70.6203C170.445 74.044 168.61 77.4265 166.815 80.8296C163.227 87.6359 159.638 94.4215 156.049 101.228C153.987 105.126 151.924 109.045 149.862 112.943C149.676 113.293 150.212 113.603 150.398 113.252C157.802 99.2065 165.351 85.2228 172.632 71.0947C173.498 69.424 174.302 67.7121 174.653 65.8765C175.065 63.7934 174.921 61.6896 174.756 59.5859C174.777 59.194 174.158 59.194 174.179 59.5859Z" fill="#161616"/>
<path d="M182.779 65.4023C176.179 79.3448 170.425 93.6173 165.351 108.178C163.866 112.407 162.381 116.635 160.587 120.739C160.422 121.11 160.958 121.42 161.123 121.048C164.196 114.057 166.444 106.735 169.084 99.5985C171.786 92.256 174.715 84.9754 177.829 77.7979C179.603 73.7348 181.418 69.7129 183.316 65.7117C183.481 65.361 182.944 65.0517 182.779 65.4023Z" fill="#161616"/>
<path opacity="0.1" d="M192.102 43.9935C191.257 43.8697 190.122 47.3347 189.462 49.0672C187.462 54.3885 185.77 55.0072 181.48 62.226C179.892 64.8866 177.706 68.8878 175.499 74.106C168.899 88.0072 162.32 101.929 155.72 115.83C157.328 117.79 158.917 119.77 160.525 121.729C161.33 119.44 162.505 116.078 163.97 112.015C166.63 104.693 170.075 95.2672 174.942 83.7997C176.881 79.2622 179.562 73.1366 183.007 65.9385C183.955 65.3403 185.275 64.4122 186.719 63.1335C188.658 61.4422 191.215 59.1528 192.969 55.4197C193.525 54.2647 194.227 52.491 194.598 50.1603C194.33 50.0366 193.938 49.8922 193.505 49.9747C192.762 50.1191 192.37 50.841 192.061 51.336C190.865 53.1716 189.112 54.3885 188.885 54.2441C188.761 54.141 189.112 53.5428 190.06 51.6041C191.999 47.6235 191.195 48.6753 191.958 47.3347C192.391 46.5716 192.824 45.9116 192.68 45.066C192.68 44.6947 192.453 44.0553 192.102 43.9935Z" fill="#3F3F3F"/>
<path opacity="0.13" d="M190.843 58.0596C189.812 58.7196 188.348 59.6889 186.677 60.9677C184.759 62.4114 182.696 63.9789 180.964 65.9589C178.613 68.6402 177.581 71.3008 176.963 72.8477C171.291 87.3265 164.546 103.043 162.628 107.415C161.576 109.808 159.926 113.417 157.74 117.748C158.73 119.048 159.741 120.347 160.731 121.646C163.577 112.963 166.856 103.868 170.61 94.4421C174.653 84.3152 178.84 74.8483 183.047 66.0414C184.181 65.2783 185.46 64.3089 186.76 63.0508C188.595 61.2977 189.915 59.5239 190.843 58.0596Z" fill="#3F3F3F"/>
<path d="M136.002 117.769C135.239 118.285 133.527 119.481 131.774 121.42C129.959 123.42 128.907 125.297 128.041 126.885C127.36 128.102 126.865 129.175 126.515 129.958C127.051 130.99 127.917 132.578 129.113 134.475C131.238 137.837 132.888 139.652 135.734 143.303C136.93 144.829 138.663 147.118 140.725 150.006C141.055 151.553 141.344 153.182 141.592 154.894C142.087 158.4 142.272 161.659 142.272 164.588C143.035 165.413 144.355 166.609 146.294 167.455C149.512 168.878 152.44 168.465 153.967 168.218C157.349 167.702 159.659 166.196 161.247 165.145C164.135 163.247 166.094 160.978 167.393 159.101C167.125 155.884 166.775 152.563 166.342 149.119C165.97 146.19 165.558 143.344 165.104 140.58C165.063 138.415 164.857 135.465 164.155 132.041C163.578 129.175 162.877 125.833 160.793 121.873C158.195 116.944 154.957 113.953 153.698 112.86C152.585 111.891 151.574 111.169 150.832 110.653C147.82 112.571 145.222 113.768 143.448 114.49C140.148 115.851 138.601 116.057 136.002 117.769Z" fill="white"/>
<path d="M126.844 130.041C127.484 127.607 129.257 125.338 130.784 123.358C132.392 121.296 134.207 119.419 136.373 117.913C136.703 117.686 136.394 117.15 136.064 117.377C133.836 118.924 131.959 120.842 130.309 122.966C128.721 125.008 126.927 127.318 126.267 129.855C126.164 130.268 126.762 130.412 126.844 130.041Z" fill="#161616"/>
<path d="M126.391 130.247C130.64 137.672 135.672 144.643 141.386 151.016C141.654 151.305 142.087 150.872 141.819 150.583C136.147 144.251 131.156 137.321 126.927 129.937C126.721 129.587 126.185 129.896 126.391 130.247Z" fill="#161616"/>
<path d="M143.839 114.778C146.149 113.149 148.686 111.932 151.388 111.148C151.78 111.045 151.615 110.447 151.223 110.55C148.459 111.354 145.881 112.592 143.53 114.242C143.2 114.469 143.509 115.005 143.839 114.778Z" fill="#161616"/>
<path d="M150.872 111.313C160.731 118.181 164.959 130.226 164.485 141.879C164.464 142.271 165.083 142.271 165.104 141.879C165.599 129.978 161.226 117.768 151.182 110.776C150.872 110.55 150.563 111.086 150.872 111.313Z" fill="#161616"/>
<path d="M140.044 149.799C141.116 152.006 141.24 154.749 141.467 157.142C141.714 159.575 141.797 162.03 141.797 164.484C141.797 164.876 142.416 164.876 142.416 164.484C142.436 161.762 142.313 159.039 142.003 156.337C141.756 154.048 141.591 151.573 140.58 149.469C140.394 149.118 139.879 149.428 140.044 149.799Z" fill="#161616"/>
<path d="M142.189 164.609C145.283 168.404 150.563 169.476 155.162 168.3C157.72 167.64 160.092 166.382 162.216 164.815C164.341 163.247 166.362 161.432 167.558 159.04C167.744 158.689 167.207 158.38 167.022 158.73C165.867 161.02 163.928 162.773 161.886 164.279C159.906 165.743 157.699 166.939 155.307 167.62C150.811 168.878 145.634 167.909 142.602 164.175C142.375 163.866 141.942 164.299 142.189 164.609Z" fill="#161616"/>
<path d="M164.712 140.952C165.722 146.995 166.712 153.038 167.063 159.143C167.083 159.535 167.702 159.535 167.681 159.143C167.31 152.976 166.32 146.871 165.31 140.787C165.248 140.395 164.65 140.56 164.712 140.952Z" fill="#161616"/>
<path opacity="0.13" d="M144.623 113.953C146.912 116.654 150.047 120.862 152.667 126.554C156.503 134.887 157.266 142.085 157.844 148.211C158.297 152.872 158.545 159.369 157.637 167.124C159.391 166.361 161.866 165.041 164.258 162.751C165.578 161.473 166.568 160.194 167.311 159.08C166.63 153.326 165.949 147.551 165.269 141.796C165.392 137.053 164.65 133.216 163.949 130.618C161.783 122.574 157.617 117.397 156.214 115.768C154.296 113.519 152.419 111.869 151.037 110.776C148.892 111.849 146.768 112.901 144.623 113.953Z" fill="#3F3F3F"/>
<path opacity="0.14" d="M159.989 121.172C159.618 121.275 160.484 124.637 161.309 129.607C161.309 129.607 162.567 137.156 162.835 144.457C163.021 149.283 162.773 156.337 160.608 165.103C161.598 164.608 162.814 163.886 164.073 162.875C165.599 161.638 166.692 160.338 167.434 159.307C167.166 150.995 166.465 146.685 165.805 144.251C165.681 143.777 165.351 142.663 165.083 141.095C164.588 138.167 164.836 136.908 164.568 134.475C164.361 132.536 163.969 131.257 163.248 128.885C162.154 125.317 160.401 121.048 159.989 121.172Z" fill="#3F3F3F"/>
<path d="M135.713 83.841C134.352 84.6041 132.62 85.7591 130.949 87.5123C127.484 91.2041 126.37 95.3291 125.978 97.371C125.669 97.3298 124.823 97.2679 124.143 97.8041C123.132 98.5879 123.111 100.135 123.503 101.042C123.648 101.372 123.854 101.64 124.287 102.177C124.803 102.816 125.133 103.208 125.669 103.435C125.896 103.538 126.411 103.682 127.154 103.517C127.381 104.198 127.752 105.147 128.309 106.24C129.031 107.642 130.124 109.725 132.31 111.54C132.95 112.077 133.94 112.778 135.28 113.417C135.775 114.057 136.683 115.397 136.786 117.212C136.992 120.409 134.661 123.07 132.455 124.245C128.618 126.287 124.452 124.245 122.926 123.482C122.101 123.07 117.955 120.925 116.223 116.222C114.119 110.55 116.862 104.879 118.491 101.496C120.141 98.0929 120.905 98.3198 122.163 94.9991C123.833 90.606 122.946 89.0591 124.865 85.6973C125.607 84.3773 127.113 81.7373 130.268 80.4998C132.97 79.4479 135.466 79.9841 136.538 80.2935C137.425 79.7573 138.993 78.9941 140.973 78.9941C145.675 78.9941 148.686 83.4491 149.408 84.5216C151.553 87.6773 150.419 88.6466 152.337 93.081C154.75 98.6704 157.101 98.3404 159.267 103.579C160.319 106.137 162.072 110.365 160.133 114.407C158.133 118.574 153.575 119.79 152.997 119.935C151.945 120.203 149.12 120.904 146.294 119.399C146.026 119.254 142.478 117.315 142.19 113.995C142.086 112.778 142.437 111.644 142.52 111.396C142.953 110.055 143.695 109.189 143.922 108.9C144.809 107.807 145.881 105.786 146.624 101.764C146.975 101.744 147.552 101.661 148.13 101.331C149.346 100.63 149.924 99.2066 149.862 97.9691C149.841 97.6804 149.759 96.0304 148.563 95.4735C148.068 95.2466 147.552 95.3085 147.263 95.3704C143.427 91.4929 139.57 87.6773 135.713 83.841Z" fill="#11345C"/>
<path d="M135.712 83.8203C133.423 85.1609 131.835 86.6459 130.824 87.7391C127.462 91.3897 126.39 95.2053 126.163 96.0922C126.019 96.6491 125.915 97.1028 125.874 97.4328C125.647 97.3503 125.132 97.2059 124.616 97.4328C123.832 97.7834 123.667 98.7322 123.585 99.2066C123.379 100.3 123.791 101.166 123.956 101.496C124.183 101.97 124.554 102.733 125.441 103.125C126.163 103.455 126.844 103.332 127.132 103.27C127.421 104.012 127.834 105.043 128.473 106.219C129.442 108.075 130.35 109.787 132.103 111.313C132.784 111.912 133.897 112.737 135.506 113.376C135.836 113.892 136.29 114.696 136.537 115.748C136.744 116.573 136.785 117.274 136.764 117.81C137.3 118.078 138.311 118.491 139.569 118.47C141.982 118.429 143.57 116.923 143.942 116.552C143.55 115.377 143.199 113.933 143.055 112.262C142.993 111.499 142.972 110.777 142.972 110.117C143.612 109.437 144.395 108.467 145.035 107.168C146.169 104.92 146.355 102.837 146.375 101.62C146.664 101.661 147.242 101.723 147.86 101.475C148.727 101.125 149.119 100.362 149.345 99.9284C149.407 99.8253 150.274 98.0516 149.49 96.2984C149.304 95.9066 148.995 95.1847 148.376 95.1228C147.922 95.0816 147.551 95.4322 147.407 95.5766C146.561 94.5659 144.973 92.6891 142.745 90.1109C140.827 87.8628 139.61 86.4603 137.569 85.0166C136.826 84.4803 136.166 84.0884 135.712 83.8203Z" fill="white"/>
<path d="M132.866 105.703C132.66 106.178 133.629 107.023 134.083 107.374C135.032 108.075 136.043 108.178 136.414 108.199C136.847 108.24 138.27 108.343 139.569 107.415C139.879 107.188 140.745 106.59 141.075 105.476C141.302 104.672 141.24 103.558 140.807 103.373C140.477 103.249 140.168 103.662 139.466 104.157C138.229 105.002 136.95 105.208 135.857 105.373C134.001 105.662 133.073 105.291 132.866 105.703Z" fill="black"/>
<path d="M126.328 100.939C127.071 104.033 128.267 107.064 130.247 109.581C132 111.829 134.599 113.994 137.631 113.706C140.436 113.438 142.725 111.251 144.21 109.024C145.963 106.425 146.809 103.311 146.726 100.176C146.706 99.7839 146.087 99.7839 146.108 100.176C146.19 103.043 145.448 105.848 143.942 108.281C142.519 110.571 140.168 112.984 137.301 113.108C134.269 113.231 131.773 110.756 130.165 108.446C128.556 106.136 127.566 103.476 126.906 100.753C126.823 100.382 126.225 100.547 126.328 100.939Z" fill="#161616"/>
<path d="M135.094 113.417C135.96 114.737 136.394 116.181 136.394 117.769C136.394 118.161 137.012 118.161 137.012 117.769C137.012 116.098 136.538 114.51 135.63 113.107C135.424 112.757 134.888 113.066 135.094 113.417Z" fill="#161616"/>
<path d="M136.682 118.017C139.198 119.46 142.457 118.759 144.168 116.449C144.416 116.14 143.88 115.83 143.632 116.14C142.106 118.182 139.177 118.759 136.991 117.48C136.64 117.295 136.331 117.831 136.682 118.017Z" fill="#161616"/>
<path d="M142.622 110.653C142.643 112.53 142.931 114.386 143.53 116.181C143.653 116.552 144.251 116.387 144.128 116.016C143.571 114.263 143.261 112.489 143.241 110.653C143.241 110.241 142.622 110.241 142.622 110.653Z" fill="#161616"/>
<path d="M126.948 102.898C126.68 103.187 126.02 103.084 125.71 102.919C125.463 102.795 125.236 102.609 125.05 102.424C124.638 102.032 124.308 101.557 124.101 101.042C123.689 100.072 123.503 97.2881 125.339 97.7831C125.731 97.8862 125.896 97.2881 125.504 97.185C123.235 96.5868 122.885 99.5981 123.462 101.104C123.916 102.321 125.999 104.837 127.401 103.331C127.649 103.042 127.216 102.609 126.948 102.898Z" fill="#161616"/>
<path d="M147.675 95.6796C147.922 94.8546 148.995 96.4427 149.119 96.7314C149.366 97.3914 149.449 98.1133 149.346 98.8146C149.181 100.217 148.067 101.558 146.52 101.166C146.128 101.063 145.963 101.661 146.355 101.764C148.851 102.403 150.191 99.8046 149.964 97.6802C149.861 96.7521 149.49 95.5558 148.603 95.0608C148.026 94.7514 147.283 94.8339 147.077 95.4939C146.953 95.9064 147.551 96.0508 147.675 95.6796Z" fill="#161616"/>
<path d="M129.154 91.3074C129.834 90.008 131.031 89.1624 132.474 88.9561C132.866 88.8942 132.701 88.2961 132.309 88.358C130.721 88.5849 129.36 89.5749 128.618 90.998C128.432 91.3486 128.968 91.658 129.154 91.3074Z" fill="#161616"/>
<path d="M138.682 88.1305C140.415 87.718 142.147 88.5842 142.931 90.1517C143.116 90.5023 143.632 90.193 143.467 89.8423C142.56 88.0067 140.497 87.058 138.517 87.5323C138.125 87.6355 138.29 88.2336 138.682 88.1305Z" fill="#161616"/>
<path d="M134.186 90.6679C134.578 92.8541 134.681 95.1023 134.454 97.3298C134.372 98.0104 134.042 98.9798 134.351 99.6604C134.681 100.403 135.568 101.042 136.125 101.62C136.393 101.909 136.847 101.475 136.558 101.187C136.187 100.795 135.816 100.424 135.444 100.032C134.867 99.4335 134.805 99.2479 134.929 98.3816C135.032 97.5979 135.135 96.7935 135.176 95.9891C135.259 94.1535 135.114 92.3179 134.784 90.5235C134.722 90.111 134.124 90.276 134.186 90.6679Z" fill="#161616"/>
<path d="M131.588 95.969C131.279 95.474 131.134 94.9378 131.176 94.3603C131.176 94.2365 131.258 93.7003 131.361 93.6797C131.423 93.6797 131.526 94.4015 131.547 94.484C131.588 94.7522 131.609 95.0409 131.609 95.309C131.609 95.3915 131.588 96.0721 131.588 95.6596C131.567 95.0615 131.609 94.4634 131.629 93.8653C131.423 93.8859 131.217 93.9272 131.031 93.9478C131.134 94.5872 131.196 95.2265 131.196 95.8865C131.402 95.8865 131.609 95.8865 131.815 95.8865C131.815 95.804 131.815 95.7215 131.815 95.639C131.815 95.2472 131.196 95.2472 131.196 95.639C131.196 95.7215 131.196 95.804 131.196 95.8865C131.196 96.2784 131.815 96.2784 131.815 95.8865C131.815 95.1853 131.753 94.484 131.629 93.7828C131.567 93.4322 131.031 93.5353 131.031 93.8653C131.011 94.5253 130.928 95.2472 131.011 95.9071C131.052 96.2165 131.196 96.5053 131.547 96.5671C132.578 96.7734 132.269 94.7522 132.186 94.2572C132.124 93.8653 132.062 93.2672 131.691 93.0403C131.382 92.8547 131.052 93.0403 130.866 93.3291C130.351 94.1953 130.639 95.474 131.114 96.2578C131.258 96.6084 131.794 96.299 131.588 95.969Z" fill="#161616"/>
<path d="M141.116 94.8753C140.807 94.3803 140.663 93.8441 140.704 93.2666C140.704 93.1428 140.786 92.6066 140.889 92.5859C140.951 92.5859 141.054 93.3078 141.075 93.3903C141.116 93.6584 141.137 93.9472 141.137 94.2153C141.137 94.2978 141.116 94.9784 141.116 94.5659C141.096 93.9678 141.137 93.3697 141.158 92.7716C140.951 92.7922 140.745 92.8334 140.559 92.8541C140.663 93.4934 140.724 94.1328 140.724 94.7928C140.931 94.7928 141.137 94.7928 141.343 94.7928C141.343 94.7103 141.343 94.6278 141.343 94.5453C141.343 94.1534 140.724 94.1534 140.724 94.5453C140.724 94.6278 140.724 94.7103 140.724 94.7928C140.724 95.1847 141.343 95.1847 141.343 94.7928C141.343 94.0916 141.281 93.3903 141.158 92.6891C141.096 92.3384 140.559 92.4416 140.559 92.7716C140.539 93.4316 140.456 94.1534 140.539 94.8134C140.58 95.1228 140.724 95.4116 141.075 95.4734C142.106 95.6797 141.797 93.6584 141.714 93.1634C141.653 92.7716 141.591 92.1734 141.219 91.9466C140.91 91.7609 140.58 91.9466 140.394 92.2353C139.879 93.1016 140.168 94.3803 140.642 95.1641C140.786 95.5353 141.323 95.2259 141.116 94.8753Z" fill="#161616"/>
<path d="M128.535 97.8658C128.927 97.8658 128.927 97.2471 128.535 97.2471C128.143 97.2471 128.143 97.8658 128.535 97.8658Z" fill="#161616"/>
<path d="M130.969 98.3199C130.989 98.3199 131.01 98.3199 131.051 98.3199C131.216 98.3199 131.36 98.1755 131.36 98.0105C131.36 97.8455 131.216 97.7012 131.051 97.7012C131.03 97.7012 131.01 97.7012 130.969 97.7012C130.804 97.7012 130.659 97.8455 130.659 98.0105C130.659 98.1755 130.783 98.3199 130.969 98.3199Z" fill="#161616"/>
<path d="M129.525 100.217C129.917 100.217 129.917 99.5986 129.525 99.5986C129.133 99.5986 129.113 100.217 129.525 100.217Z" fill="#161616"/>
<path d="M141.24 97.5563C141.261 97.5563 141.281 97.5563 141.323 97.5563C141.488 97.5563 141.632 97.4119 141.632 97.2469C141.632 97.0819 141.488 96.9375 141.323 96.9375C141.302 96.9375 141.281 96.9375 141.24 96.9375C141.075 96.9375 140.931 97.0819 140.931 97.2469C140.931 97.4119 141.054 97.5563 141.24 97.5563Z" fill="#161616"/>
<path d="M143.509 96.0299C143.901 96.0299 143.901 95.4111 143.509 95.4111C143.117 95.4111 143.117 96.0299 143.509 96.0299Z" fill="#161616"/>
<path d="M143.2 97.7008C143.221 97.7008 143.241 97.7008 143.283 97.7008C143.448 97.7008 143.592 97.5564 143.592 97.3914C143.592 97.2264 143.448 97.082 143.283 97.082C143.262 97.082 143.241 97.082 143.2 97.082C143.035 97.082 142.891 97.2264 142.891 97.3914C142.911 97.5564 143.035 97.7008 143.2 97.7008Z" fill="#161616"/>
<path d="M133.382 106.178C133.052 105.704 132.516 105.023 132.743 104.405C133.011 103.703 133.856 103.806 134.413 103.889C135.094 103.992 135.651 104.116 136.311 103.91C136.847 103.745 137.321 103.394 137.816 103.126C138.992 102.466 140.374 102.404 140.745 103.951C141.797 108.179 134.331 109.375 133.176 105.663C133.052 105.291 132.454 105.436 132.578 105.828C134.001 110.386 142.828 108.695 141.281 103.641C141.013 102.796 140.374 102.074 139.466 101.971C137.981 101.826 137.012 103.311 135.589 103.415C134.537 103.497 133.258 102.693 132.413 103.683C131.649 104.57 132.268 105.704 132.825 106.488C133.073 106.818 133.609 106.508 133.382 106.178Z" fill="#161616"/>
<path d="M132.185 105.002C132.639 106.26 134.908 105.868 135.898 105.724C137.795 105.435 139.528 104.61 140.992 103.393C141.302 103.146 140.868 102.692 140.559 102.96C139.487 103.867 138.249 104.527 136.888 104.899C136.29 105.064 133.134 105.765 132.804 104.857C132.639 104.466 132.041 104.631 132.185 105.002Z" fill="#161616"/>
<path d="M135.857 114.057C138.27 114.676 141.488 113.149 142.849 111.149C143.076 110.819 142.539 110.509 142.313 110.839C141.116 112.592 138.126 113.995 136.022 113.459C135.63 113.356 135.465 113.954 135.857 114.057Z" fill="#161616"/>
<path d="M136.084 114.242C138.229 115.583 141.756 113.685 142.787 111.643C142.973 111.293 142.436 110.983 142.251 111.334C141.385 113.066 138.229 114.861 136.393 113.726C136.043 113.5 135.733 114.036 136.084 114.242Z" fill="#161616"/>
<path opacity="0.2" d="M144.644 92.3799C144.788 93.1224 144.974 94.298 145.097 95.7211C145.386 99.5161 145.881 105.869 142.045 110.097C141.22 111.004 139.467 112.613 136.229 113.521C137.26 113.479 138.518 113.356 139.879 113.005C140.56 112.84 141.179 112.634 141.735 112.407C141.818 114.242 141.88 116.078 141.962 117.914C142.664 117.46 143.344 117.027 144.045 116.573C143.097 114.469 143.097 112.84 143.22 111.809C143.406 110.365 143.942 109.189 144.479 108.014C144.953 106.982 145.448 106.157 145.84 105.58C145.881 106.013 145.984 106.467 146.273 106.9C147.531 108.777 151.47 108.962 153.945 107.354C156.235 105.869 157.349 102.857 156.771 99.7636C157.163 100.094 157.575 100.486 157.967 100.96C158.277 101.331 159.081 102.404 160.195 106.178C160.545 107.354 160.71 107.952 160.814 108.55C160.937 109.375 161.164 110.942 160.731 112.716C159.989 115.769 157.782 117.522 157.122 118.017C156.647 118.367 155.204 119.419 153.038 119.914C152.007 120.141 148.913 120.884 146.005 119.192C144.912 118.553 144.314 118.079 143.984 117.501C143.633 116.862 143.592 116.264 143.55 115.81C143.365 112.984 143.282 111.561 143.468 110.592C144.025 107.787 145.283 107.498 145.984 104.301C146.232 103.146 146.294 102.177 146.314 101.558C146.582 101.599 146.995 101.641 147.49 101.517C148.521 101.249 149.037 100.403 149.222 100.094C149.965 98.918 150.295 96.8143 149.14 95.8449C148.975 95.7005 148.397 95.2674 147.284 95.3499C146.438 94.3599 145.551 93.3699 144.644 92.3799Z" fill="#3F3F3F"/>
<path opacity="0.13" d="M134.867 99.0625C135.919 99.3719 136.992 99.7019 138.043 100.011C137.775 100.259 137.507 100.486 137.218 100.733C136.95 100.96 136.703 101.146 136.435 101.352C136.105 101.104 135.63 100.671 135.259 100.011C135.053 99.6606 134.929 99.3306 134.867 99.0625Z" fill="#3F3F3F"/>
<path opacity="0.16" d="M118.326 101.641C116.078 109.581 117.748 115.996 121.11 117.398C123.75 118.491 128.515 116.944 129.401 114.243C129.525 113.892 129.649 113.273 129.175 111.376C128.762 109.705 127.916 107.189 126.019 104.322C125.689 104.116 125.256 103.786 124.843 103.291C124.121 102.404 123.915 101.455 123.853 101.001C124.451 101.62 125.318 102.404 125.875 102.156C126.411 101.909 126.741 101.166 126.555 100.424C126.741 101.373 127.03 102.672 127.566 104.178C128.267 106.178 128.968 108.117 130.598 109.953C131.34 110.798 132.805 112.18 135.28 113.17C135.692 113.686 136.455 114.799 136.703 116.429C136.744 116.676 136.888 117.811 136.517 119.234C136.435 119.564 135.94 121.358 134.31 122.905C132.413 124.72 130.144 125.05 129.401 125.153C123.812 125.896 119.481 121.008 118.718 120.162C117.955 119.296 116.696 117.852 115.975 115.624C114.82 112.077 115.706 108.88 116.346 106.549C116.944 104.363 117.748 102.713 118.326 101.641Z" fill="#3F3F3F"/>
</svg>
