<svg width="330" height="250" viewBox="0 0 330 250" fill="none" xmlns="http://www.w3.org/2000/svg">
<path d="M287 45.8925C287 107.748 211.84 234.284 166 234.284C120.16 234.284 17.5 279.14 17.5 217.284C17.5 155.428 65.1604 75.2837 111 75.2837C156.84 75.2837 287 -15.9634 287 45.8925Z" fill="#F2F9FF" fill-opacity="0.5"/>
<path d="M213.057 61.38C214.914 61.38 216.419 59.8748 216.419 58.0181C216.419 56.1614 214.914 54.6562 213.057 54.6562C211.2 54.6562 209.695 56.1614 209.695 58.0181C209.695 59.8748 211.2 61.38 213.057 61.38Z" fill="#EC615B"/>
<path d="M216.625 52.0588C217.491 52.0588 218.193 51.357 218.193 50.4913C218.193 49.6256 217.491 48.9238 216.625 48.9238C215.759 48.9238 215.058 49.6256 215.058 50.4913C215.058 51.357 215.759 52.0588 216.625 52.0588Z" fill="#EC615B"/>
<path d="M113.851 31.6609C114.739 31.6609 115.46 30.9406 115.46 30.0521C115.46 29.1636 114.739 28.4434 113.851 28.4434C112.962 28.4434 112.242 29.1636 112.242 30.0521C112.242 30.9406 112.962 31.6609 113.851 31.6609Z" fill="#EC615B"/>
<path d="M219.121 219.945C220.625 219.945 221.843 218.726 221.843 217.223C221.843 215.719 220.625 214.5 219.121 214.5C217.617 214.5 216.398 215.719 216.398 217.223C216.398 218.726 217.617 219.945 219.121 219.945Z" fill="#EC615B"/>
<path d="M95.2269 229.268C95.9217 229.268 96.485 228.705 96.485 228.01C96.485 227.315 95.9217 226.752 95.2269 226.752C94.532 226.752 93.9688 227.315 93.9688 228.01C93.9688 228.705 94.532 229.268 95.2269 229.268Z" fill="#EC615B"/>
<path d="M110.943 136.331C111.661 136.331 112.242 135.749 112.242 135.032C112.242 134.314 111.661 133.732 110.943 133.732C110.225 133.732 109.644 134.314 109.644 135.032C109.644 135.749 110.225 136.331 110.943 136.331Z" fill="#EC615B"/>
<path d="M113.5 142.952C114.195 142.952 114.758 142.388 114.758 141.694C114.758 140.999 114.195 140.436 113.5 140.436C112.805 140.436 112.242 140.999 112.242 141.694C112.242 142.388 112.805 142.952 113.5 142.952Z" fill="#11345C"/>
<path d="M111.995 178.015C113.293 178.015 114.346 176.962 114.346 175.664C114.346 174.365 113.293 173.312 111.995 173.312C110.696 173.312 109.644 174.365 109.644 175.664C109.644 176.962 110.696 178.015 111.995 178.015Z" fill="#11345C"/>
<path d="M211.18 44.386C212 44.386 212.665 43.7212 212.665 42.901C212.665 42.0809 212 41.416 211.18 41.416C210.36 41.416 209.695 42.0809 209.695 42.901C209.695 43.7212 210.36 44.386 211.18 44.386Z" fill="#11345C"/>
<path d="M154.688 46.9855C155.406 46.9855 155.987 46.4037 155.987 45.6861C155.987 44.9685 155.406 44.3867 154.688 44.3867C153.97 44.3867 153.389 44.9685 153.389 45.6861C153.389 46.4037 153.97 46.9855 154.688 46.9855Z" fill="#11345C"/>
<path d="M38.8377 148.624C39.3844 148.624 39.8277 148.181 39.8277 147.635C39.8277 147.088 39.3844 146.645 38.8377 146.645C38.2909 146.645 37.8477 147.088 37.8477 147.635C37.8477 148.181 38.2909 148.624 38.8377 148.624Z" fill="#11345C"/>
<path d="M215.676 226.753C217.043 226.753 218.151 225.645 218.151 224.278C218.151 222.911 217.043 221.803 215.676 221.803C214.309 221.803 213.201 222.911 213.201 224.278C213.201 225.645 214.309 226.753 215.676 226.753Z" fill="#11345C"/>
<path d="M242.179 14.8507C242.897 14.8507 243.479 14.269 243.479 13.5513C243.479 12.8337 242.897 12.252 242.179 12.252C241.462 12.252 240.88 12.8337 240.88 13.5513C240.88 14.269 241.462 14.8507 242.179 14.8507Z" fill="#11345C"/>
<path d="M115.934 71.9624C115.728 70.6837 115.542 68.1261 117.584 68.3324C118.326 68.4149 118.739 69.0749 119.564 68.7861C121.111 68.2499 120.76 66.2493 121.4 65.0943C122.451 63.238 124.493 65.9399 126.061 65.053C126.576 64.7643 126.7 64.228 126.68 63.6711C126.638 61.588 128.474 61.7324 129.98 62.1449C130.371 62.248 130.536 61.6499 130.145 61.5468C128.618 61.1343 126.081 60.9899 126.02 63.1968C125.999 63.733 126.288 64.2693 125.504 64.5993C125.256 64.7024 124.844 64.5786 124.617 64.5168C124.081 64.3518 123.606 63.9805 123.05 63.8361C122.328 63.6299 121.626 63.7743 121.131 64.3518C120.513 65.0943 120.533 66.1049 120.245 66.9711C119.935 67.8993 119.337 68.4355 118.326 67.9818C117.914 67.7961 117.543 67.6311 117.068 67.693C114.944 67.9818 115.047 70.5599 115.315 72.1274C115.398 72.5193 115.996 72.3543 115.934 71.9624Z" fill="#11345C"/>
<path d="M118.367 73.1575C118.532 71.8787 119.563 71.3218 120.76 71.3218C121.399 71.3218 122.038 71.425 122.657 71.1981C124.06 70.6618 123.792 69.1356 124.122 67.9393C124.74 65.6706 127.607 67.0731 129.195 66.7018C130.268 66.4337 131.175 65.3612 130.722 64.2268C130.577 63.8556 129.979 64.0206 130.123 64.3918C130.825 66.1037 128.432 66.2068 127.422 66.0831C126.679 66.0006 125.957 65.8768 125.215 66.0625C124.039 66.3718 123.585 67.2381 123.42 68.3518C123.276 69.3831 123.297 70.5175 121.956 70.6825C121.234 70.765 120.512 70.5587 119.79 70.7237C118.635 70.9918 117.893 71.9612 117.748 73.1162C117.687 73.5493 118.305 73.5493 118.367 73.1575Z" fill="#11345C"/>
<path d="M160.979 22.5024C160.257 23.4099 159.494 24.5237 159.845 25.7406C160.134 26.7306 160.917 27.1018 161.866 27.0399C162.423 26.9987 163 26.8543 163.454 27.3493C163.805 27.7206 163.578 28.5043 163.475 28.9168C163.31 29.5562 163 30.1749 163.062 30.8556C163.165 31.7837 163.908 32.5056 164.857 32.2993C165.249 32.2168 165.084 31.6187 164.692 31.7012C162.897 32.1137 164.135 29.1231 164.217 28.4012C164.279 27.8031 164.176 27.1431 163.722 26.7099C163.269 26.2768 162.712 26.3181 162.134 26.3799C161.227 26.4831 160.381 26.1943 160.34 25.1012C160.319 24.2762 160.897 23.5337 161.392 22.9149C161.68 22.6468 161.227 22.1931 160.979 22.5024Z" fill="#11345C"/>
<path d="M165.846 22.1932C164.877 22.6057 164.258 23.6163 164.506 24.6682C164.63 25.1426 164.918 25.5963 165.331 25.8851C165.826 26.2563 166.403 26.1738 166.898 26.4832C167.826 27.0401 167.084 28.1332 167.125 28.9995C167.146 29.4326 167.249 29.8245 167.62 30.0926C168.177 30.5257 169.002 30.3813 169.229 29.6801C169.353 29.3088 168.755 29.1438 168.631 29.5151C167.847 29.412 167.579 29.0613 167.806 28.4632C167.847 28.257 167.888 28.0507 167.93 27.8445C167.971 27.6382 167.991 27.432 167.991 27.2257C167.991 26.7926 167.868 26.3388 167.538 26.0295C167.043 25.5757 166.28 25.7613 165.743 25.3901C164.65 24.627 165.042 23.1832 166.156 22.7088C166.527 22.5645 166.197 22.0488 165.846 22.1932Z" fill="#11345C"/>
<path d="M30.9794 144.108C30.5051 143.365 30.5051 142.458 30.9794 141.694C31.4538 140.952 32.1138 140.931 32.8769 140.643C33.9288 140.209 33.9494 139.116 33.8876 138.126C33.8669 137.776 33.8463 137.404 33.9494 137.054C34.2176 136.229 34.9188 136.456 35.5582 136.559C35.9294 136.621 36.2801 136.559 36.5894 136.353C36.9813 136.084 37.2288 135.61 37.3526 135.156C37.4557 134.785 37.4763 134.393 37.5588 134.022C37.6001 133.754 37.6826 133.506 37.8063 133.279C38.1363 132.764 38.5282 132.723 39.0026 133.176C39.1057 133.568 39.7038 133.403 39.6007 133.011C39.2294 131.671 37.5794 132.269 37.1669 133.218C36.9813 133.651 36.9607 134.125 36.8576 134.579C36.7957 134.847 36.7544 135.136 36.6101 135.383C36.3007 135.94 35.7232 135.837 35.1869 135.775C34.5476 135.713 34.0526 135.651 33.6401 136.249C33.1657 136.93 33.2894 137.734 33.2894 138.518C33.3101 139.467 33.1038 139.838 32.1757 140.148C31.8044 140.271 31.4951 140.333 31.1651 140.581C29.9688 141.426 29.6594 143.179 30.4432 144.396C30.6494 144.747 31.1857 144.438 30.9794 144.108Z" fill="#EC615B"/>
<path d="M33.5574 145.532C32.6911 145.408 33.0211 144.459 33.413 144.088C33.7018 143.82 34.0936 143.655 34.4649 143.469C34.9186 143.242 35.3724 142.974 35.7024 142.582C36.5893 141.469 35.3105 139.984 36.548 139.097C37.7855 138.231 41.1061 137.839 40.1368 135.529C39.9924 135.157 39.4561 135.487 39.6005 135.838C40.3018 137.509 36.8986 138.004 36.0324 138.705C35.723 138.952 35.4549 139.282 35.3311 139.674C35.0836 140.541 35.8055 141.427 35.1661 142.252C34.4236 143.16 32.8355 143.16 32.4643 144.439C32.2374 145.161 32.6293 146.027 33.413 146.151C33.7843 146.192 33.9493 145.594 33.5574 145.532Z" fill="#EC615B"/>
<path d="M259.649 97.5974C259.381 97.123 259.422 96.6074 259.711 96.1537C260.164 95.4937 260.701 95.638 261.402 95.6999C261.876 95.7412 262.309 95.8443 262.763 95.5762C263.568 95.0812 263.444 94.0499 263.588 93.2662C263.918 91.4305 265.506 93.1012 266.579 92.5237C266.971 92.3174 267.115 91.9255 267.198 91.513C267.342 90.7087 267.383 88.3162 268.93 89.2855C269.26 89.4918 269.59 88.9555 269.24 88.7493C267.858 87.9037 266.744 89.3062 266.62 90.6055C266.538 91.348 266.62 92.0699 265.63 91.9668C265.279 91.9255 264.929 91.7399 264.578 91.6987C264.021 91.6368 263.526 91.8018 263.217 92.2968C262.866 92.8743 262.99 93.5962 262.846 94.2149C262.536 95.6174 261.34 94.8337 260.371 94.9987C259.071 95.2255 258.473 96.793 259.092 97.8862C259.298 98.2574 259.834 97.948 259.649 97.5974Z" fill="#EC615B"/>
<path d="M262.722 98.8971C262.372 97.9483 263.465 96.8965 264.414 97.3915C264.537 97.4533 264.702 97.4533 264.785 97.3502C265.259 96.8346 265.383 96.2365 265.589 95.5765C265.961 94.3802 266.847 94.2152 267.92 93.8852C268.972 93.5552 270.147 92.689 269.714 91.4515C269.57 91.0802 268.972 91.2452 269.116 91.6165C269.714 93.2458 266.786 93.3696 265.919 93.9677C264.867 94.7102 265.177 96.0508 264.372 96.9171C264.496 96.8965 264.62 96.8758 264.744 96.8758C263.362 96.154 261.609 97.5771 262.145 99.0827C262.269 99.4333 262.867 99.289 262.722 98.8971Z" fill="#EC615B"/>
<path d="M179.418 104.302C179.459 104.302 179.913 105.416 180.099 105.56C180.387 105.787 180.738 105.808 181.089 105.746C181.707 105.643 182.099 105.189 182.635 104.9C183.79 104.24 183.79 105.375 184.244 106.014C184.76 106.777 185.317 106.406 185.915 106.035C186.307 105.787 186.678 105.622 187.029 105.973C187.214 106.158 187.338 106.468 187.482 106.695C187.709 107.025 187.957 107.293 188.328 107.458C188.679 107.623 189.009 107.087 188.637 106.922C187.792 106.55 187.689 105.148 186.678 105.003C186.204 104.942 185.997 105.21 185.626 105.416C185.172 105.684 184.904 105.87 184.615 105.354C184.492 105.148 184.471 104.859 184.327 104.653C183.667 103.56 182.635 104.158 181.81 104.694C181.666 104.797 181.522 104.9 181.357 104.983C181.006 104.88 180.635 104.777 180.284 104.673C180.14 104.529 180.14 104.178 180.016 103.993C179.81 103.704 179.604 103.622 179.274 103.683C178.861 103.766 179.026 104.364 179.418 104.302Z" fill="#EC615B"/>
<path d="M184.264 102.321C184.883 101.352 186.306 103.373 186.883 103.621C187.234 103.765 187.564 103.765 187.935 103.662C188.1 103.621 188.245 103.538 188.389 103.476C188.946 103.249 189.42 103.394 189.874 103.786C190.534 104.343 190.72 105.085 191.668 105.291C192.225 105.415 192.741 105.25 192.988 104.714C193.153 104.363 192.617 104.033 192.452 104.404C191.875 105.642 190.287 103.208 189.874 102.94C189.111 102.445 188.637 102.858 187.873 103.023C186.657 103.27 186.265 101.909 185.254 101.579C184.656 101.373 184.078 101.476 183.748 102.033C183.501 102.363 184.037 102.672 184.264 102.321Z" fill="#EC615B"/>
<path d="M261.34 138.373C272.292 138.373 283.244 138.373 294.216 138.373C294.608 138.373 294.608 137.754 294.216 137.754C283.264 137.754 272.312 137.754 261.34 137.754C260.948 137.754 260.948 138.373 261.34 138.373Z" fill="#837B7B"/>
<path d="M270.312 138.229C270.312 141.426 270.312 144.603 270.312 147.799C270.312 148.191 270.93 148.191 270.93 147.799C270.93 144.603 270.93 141.426 270.93 138.229C270.93 137.838 270.312 137.838 270.312 138.229Z" fill="#837B7B"/>
<path d="M285.615 137.919C285.615 133.464 285.615 129.009 285.615 124.554C285.615 124.162 284.996 124.162 284.996 124.554C284.996 129.009 284.996 133.464 284.996 137.919C284.996 138.331 285.615 138.331 285.615 137.919Z" fill="#837B7B"/>
<path d="M278.335 124.802C282.481 124.802 286.626 124.802 290.772 124.802C291.164 124.802 291.164 124.184 290.772 124.184C286.626 124.184 282.481 124.184 278.335 124.184C277.943 124.184 277.943 124.802 278.335 124.802Z" fill="#837B7B"/>
<path d="M270.188 50.5322C270.188 54.3891 270.188 58.246 270.188 62.0822C270.188 62.4741 270.806 62.4741 270.806 62.0822C270.806 58.2253 270.806 54.3684 270.806 50.5322C270.806 50.1403 270.188 50.1403 270.188 50.5322Z" fill="#837B7B"/>
<path d="M260.555 62.9684C268.001 62.9684 275.426 62.9684 282.872 62.9684C283.264 62.9684 283.264 62.3496 282.872 62.3496C275.426 62.3496 268.001 62.3496 260.555 62.3496C260.143 62.3496 260.143 62.9684 260.555 62.9684Z" fill="#837B7B"/>
<path d="M282.666 62.8857C282.666 65.4432 282.666 68.0007 282.666 70.5582C282.666 70.9501 283.285 70.9501 283.285 70.5582C283.285 68.0007 283.285 65.4432 283.285 62.8857C283.285 62.4938 282.666 62.4938 282.666 62.8857Z" fill="#837B7B"/>
<path d="M75.5292 38.5074C82.8099 38.5074 90.1111 38.5074 97.3917 38.5074C97.7836 38.5074 97.7836 37.8887 97.3917 37.8887C90.1111 37.8887 82.8099 37.8887 75.5292 37.8887C75.1374 37.8887 75.1167 38.5074 75.5292 38.5074Z" fill="#837B7B"/>
<path d="M96.4834 38.4461C96.4834 40.4261 96.4834 42.4061 96.4834 44.3861C96.4834 44.778 97.1021 44.778 97.1021 44.3861C97.1021 42.4061 97.1021 40.4261 97.1021 38.4461C97.1021 38.0336 96.4834 38.0336 96.4834 38.4461Z" fill="#837B7B"/>
<path d="M89.8629 37.9505C89.8629 34.7742 89.8629 31.6186 89.8629 28.4423C89.8629 28.0505 89.2441 28.0505 89.2441 28.4423C89.2441 31.6186 89.2441 34.7742 89.2441 37.9505C89.2441 38.363 89.8629 38.363 89.8629 37.9505Z" fill="#837B7B"/>
<path d="M32.2783 102.074C37.3108 102.074 42.3433 102.074 47.3758 102.074C47.7677 102.074 47.7677 101.455 47.3758 101.455C42.3433 101.455 37.3108 101.455 32.2783 101.455C31.8864 101.455 31.8864 102.074 32.2783 102.074Z" fill="#837B7B"/>
<path d="M41.498 95.8662C41.498 97.7224 41.498 99.5787 41.498 101.435C41.498 101.827 42.1168 101.827 42.1168 101.435C42.1168 99.5787 42.1168 97.7224 42.1168 95.8662C42.1168 95.4743 41.498 95.4743 41.498 95.8662Z" fill="#837B7B"/>
<path d="M37.867 96.1754C40.5482 96.1754 43.2295 96.1754 45.9107 96.1754C46.3026 96.1754 46.3026 95.5566 45.9107 95.5566C43.2295 95.5566 40.5482 95.5566 37.867 95.5566C37.4545 95.5566 37.4545 96.1754 37.867 96.1754Z" fill="#837B7B"/>
<path d="M128.7 226.216C135.424 226.216 142.148 226.216 148.871 226.216C149.263 226.216 149.263 225.598 148.871 225.598C142.148 225.598 135.424 225.598 128.7 225.598C128.287 225.598 128.287 226.216 128.7 226.216Z" fill="#837B7B"/>
<path d="M141.117 225.597C141.117 224.153 141.117 222.709 141.117 221.245C141.117 220.853 140.498 220.853 140.498 221.245C140.498 222.689 140.498 224.133 140.498 225.597C140.498 226.009 141.117 226.009 141.117 225.597Z" fill="#837B7B"/>
<path d="M139.239 221.265C142.024 221.265 144.829 221.265 147.613 221.265C148.005 221.265 148.005 220.646 147.613 220.646C144.829 220.646 142.024 220.646 139.239 220.646C138.847 220.646 138.847 221.265 139.239 221.265Z" fill="#837B7B"/>
<path d="M32.7529 215.367C39.4766 215.367 46.2004 215.367 52.9242 215.367C53.316 215.367 53.316 214.748 52.9242 214.748C46.2004 214.748 39.4766 214.748 32.7529 214.748C32.361 214.748 32.361 215.367 32.7529 215.367Z" fill="#837B7B"/>
<path d="M42.0752 207.282C42.0752 209.654 42.0752 212.047 42.0752 214.418C42.0752 214.81 42.6939 214.81 42.6939 214.418C42.6939 212.047 42.6939 209.654 42.6939 207.282C42.6939 206.89 42.0752 206.89 42.0752 207.282Z" fill="#837B7B"/>
<path d="M42.0751 206.354C39.3938 206.354 36.692 206.354 34.0107 206.354C33.6188 206.354 33.6188 206.972 34.0107 206.972C36.692 206.972 39.3938 206.972 42.0751 206.972C42.4669 206.972 42.4669 206.354 42.0751 206.354Z" fill="#837B7B"/>
<path d="M256.967 197.217C256.286 196.537 256.451 195.217 257.503 194.99C258.06 194.866 258.596 195.217 259.132 195.279C259.545 195.341 259.978 195.299 260.246 194.928C260.659 194.392 260.329 193.773 260.308 193.175C260.267 191.298 262.494 191.422 263.608 192.082C263.856 192.226 264.124 191.979 264.062 191.731C263.526 189.153 266.475 187.379 268.496 189.091C268.806 189.339 269.239 188.906 268.929 188.658C266.434 186.554 262.783 188.699 263.464 191.917C263.608 191.793 263.773 191.69 263.917 191.566C262.969 190.989 261.752 190.7 260.741 191.339C260.37 191.566 260.04 191.917 259.875 192.329C259.751 192.618 259.689 192.886 259.71 193.196C259.73 193.752 259.916 193.711 259.504 194.247C259.05 194.846 259.009 194.577 258.369 194.433C258.142 194.371 257.936 194.33 257.689 194.351C257.173 194.371 256.699 194.619 256.369 194.99C255.647 195.794 255.832 196.929 256.554 197.651C256.822 197.939 257.255 197.506 256.967 197.217Z" fill="#837B7B"/>
<path d="M260.989 197.835C260.762 195.958 263.835 195.937 264.702 194.638C264.929 194.308 265.011 193.937 265.155 193.586C265.424 192.947 265.898 192.534 266.599 192.349C267.734 192.06 268.909 192.575 269.94 193.009C270.312 193.153 270.477 192.555 270.105 192.41C268.208 191.627 265.65 191.029 264.599 193.339C264.227 194.164 264.104 194.617 263.237 195.05C262.722 195.298 262.186 195.442 261.691 195.731C260.907 196.185 260.288 196.886 260.391 197.835C260.432 198.227 261.051 198.227 260.989 197.835Z" fill="#837B7B"/>
<path d="M172.281 137.858C172.693 138.889 173.106 139.941 173.518 140.972C173.56 140.848 173.621 140.745 173.663 140.621C173.436 140.766 173.209 140.91 172.982 141.075C172.631 140.25 172.776 140.044 173.436 140.415C173.828 140.662 174.013 141.199 174.096 141.632C174.281 142.622 174.075 143.653 173.745 144.602C173.663 144.849 173.91 145.014 174.116 144.973C175.354 144.726 175.849 146.211 175.601 147.139C175.416 147.819 175.045 148.417 174.673 149.016C174.467 149.346 175.003 149.655 175.21 149.325C175.87 148.294 176.633 147.015 176.179 145.736C175.828 144.787 174.962 144.189 173.951 144.375C174.075 144.499 174.199 144.622 174.323 144.746C174.735 143.55 175.003 142.044 174.488 140.827C174.137 140.023 173.333 139.404 172.425 139.672C171.724 139.879 171.373 140.58 171.703 141.261C172.26 142.395 173.23 141.632 173.951 141.157C174.055 141.096 174.137 140.931 174.096 140.807C173.683 139.776 173.271 138.724 172.858 137.693C172.735 137.342 172.136 137.486 172.281 137.858Z" fill="#837B7B"/>
<path d="M50.304 40.2811C49.9121 39.2911 51.2321 39.023 51.8508 39.3736C52.3252 39.6418 52.6346 40.1161 52.9233 40.5493C53.1915 40.9411 53.4802 41.3743 53.6246 41.828C53.7896 42.2199 53.769 42.5911 53.5627 42.9624C52.8408 43.2924 52.4696 43.2099 52.449 42.7355C52.2633 42.0549 52.9852 41.6011 53.604 41.6218C54.2433 41.6424 54.8415 42.0136 55.2746 42.4674C56.0171 43.2511 56.2852 44.2824 56.1821 45.3343C56.3677 45.2724 56.574 45.2311 56.7596 45.1693C56.3471 44.5711 56.739 43.9318 57.2958 43.6224C57.7702 43.3749 58.3065 43.4368 58.7602 43.6843C59.5027 44.0761 60.0183 44.798 60.4927 45.458C60.7196 45.788 61.2558 45.4786 61.029 45.1486C60.2452 44.0555 59.0696 42.5293 57.5227 42.8799C56.3883 43.1274 55.4808 44.4474 56.2233 45.4786C56.409 45.7468 56.7596 45.623 56.8008 45.3136C56.9865 43.3543 55.5427 40.673 53.2327 41.003C52.4077 41.1268 51.8096 41.7043 51.8096 42.5499C51.8096 43.2099 52.2221 43.8905 52.9233 43.9318C53.7483 43.9936 54.3052 43.1893 54.3465 42.4468C54.4083 41.4155 53.604 40.3018 52.9852 39.5386C52.4077 38.858 51.5621 38.2805 50.6546 38.6311C49.9121 38.8993 49.4171 39.6418 49.7265 40.4049C49.8502 40.8174 50.4483 40.6524 50.304 40.2811Z" fill="#837B7B"/>
<path d="M158.957 70.5369C158.091 70.0213 158.709 68.4951 159.679 69.1344C160.607 69.7532 159.369 70.8051 158.771 70.0832C158.524 69.7738 158.091 70.2069 158.338 70.5163C158.813 71.0938 159.72 71.0526 160.256 70.5782C160.875 70.0213 160.71 69.1138 160.071 68.6601C159.431 68.2063 158.503 68.2888 158.111 69.0313C157.719 69.7326 157.988 70.6813 158.668 71.0732C158.978 71.2588 159.287 70.7432 158.957 70.5369Z" fill="#837B7B"/>
<path d="M224.668 25.4309C224.215 24.7915 224.998 23.8221 225.72 24.1109C225.658 24.0696 225.597 24.0078 225.535 23.9665C225.927 24.6471 225.349 25.5753 224.586 25.534C224.689 25.6165 224.792 25.6784 224.875 25.7609C224.751 25.4103 224.607 25.039 224.483 24.6884C224.338 24.3171 223.74 24.4821 223.885 24.8534C224.008 25.204 224.153 25.5753 224.276 25.9259C224.318 26.0703 224.421 26.1528 224.565 26.1528C225.225 26.194 225.803 25.7815 226.092 25.204C226.318 24.7503 226.442 23.8015 225.885 23.5128C224.668 22.9146 223.41 24.7296 224.132 25.7403C224.359 26.0703 224.895 25.7609 224.668 25.4309Z" fill="#837B7B"/>
<path d="M241.457 56.1005C241.354 55.6262 241.705 55.1105 242.179 55.0074C242.612 54.9249 243.004 55.2755 243.107 55.6674C243.375 56.5955 242.158 57.0287 241.581 56.3893C241.313 56.1005 240.88 56.5337 241.148 56.8224C242.22 58.0187 244.283 56.8431 243.623 55.3168C243.334 54.6362 242.612 54.203 241.89 54.4299C241.127 54.6774 240.673 55.4818 240.838 56.2655C240.962 56.6574 241.56 56.4924 241.457 56.1005Z" fill="#837B7B"/>
<path d="M174.508 226.813C173.724 226.442 173.786 225.37 174.508 224.957C175.209 224.565 175.869 224.916 176.508 225.205C177.045 225.452 177.663 225.679 178.138 225.205C178.571 224.792 178.488 224.153 178.509 223.617C178.592 221.533 180.613 221.946 181.995 222.462C182.366 222.606 182.531 222.008 182.16 221.863C180.943 221.389 179.252 220.935 178.282 222.132C177.993 222.482 177.911 222.895 177.89 223.328C177.87 223.617 177.993 224.256 177.828 224.524C177.375 225.205 176.756 224.586 176.282 224.38C175.374 223.988 174.075 224.091 173.518 225.04C173.043 225.844 173.332 226.937 174.178 227.329C174.549 227.515 174.858 226.978 174.508 226.813Z" fill="#837B7B"/>
<path d="M184.491 178.2C183.872 185.77 184.202 193.36 185.481 200.846C185.543 201.238 186.141 201.073 186.079 200.681C184.821 193.256 184.491 185.708 185.11 178.2C185.151 177.808 184.532 177.808 184.491 178.2Z" fill="#837B7B"/>
<path d="M184.904 178.675C188.121 179.789 191.442 180.531 194.824 180.903C198 181.233 201.651 181.583 204.704 180.387C205.075 180.243 204.91 179.644 204.539 179.789C201.569 180.965 197.959 180.614 194.824 180.284C191.504 179.933 188.224 179.17 185.069 178.077C184.677 177.933 184.532 178.531 184.904 178.675Z" fill="#837B7B"/>
<path d="M189.813 179.52C188.74 177.85 187.853 176.076 187.235 174.179C186.946 173.271 186.698 172.364 186.513 171.435C186.41 170.879 186.307 170.322 186.245 169.765C186.245 169.703 186.018 168.239 186.451 168.445C186.657 168.548 187.008 168.362 186.905 168.094C185.77 165.227 185.152 162.216 185.09 159.122C184.987 159.225 184.884 159.329 184.78 159.432C184.945 159.494 185.09 159.555 185.255 159.617C185.461 159.865 185.853 159.597 185.77 159.308C185.358 157.988 185.09 156.627 185.007 155.224C184.987 154.894 185.048 151.182 185.275 151.244C185.523 151.305 185.688 151.079 185.647 150.872C185.255 148.542 185.069 146.17 185.172 143.819C185.213 142.643 185.317 141.488 185.502 140.333C185.667 139.281 185.75 138.002 186.575 137.239C186.41 137.219 186.245 137.198 186.08 137.177C187.812 140.436 188.782 144.004 189.668 147.552C190.535 151.037 191.298 154.564 191.958 158.112C193.298 165.434 194.144 172.838 194.515 180.284C194.536 180.675 195.155 180.675 195.134 180.284C194.763 172.797 193.917 165.33 192.556 157.947C191.875 154.275 191.092 150.625 190.184 146.995C189.297 143.509 188.328 140.044 186.616 136.847C186.513 136.662 186.265 136.662 186.121 136.785C185.42 137.425 185.213 138.27 185.048 139.157C184.822 140.415 184.657 141.715 184.574 142.994C184.409 145.675 184.574 148.356 185.028 151.017C185.152 150.893 185.275 150.769 185.399 150.645C184.203 150.315 184.347 152.894 184.327 153.471C184.244 155.492 184.554 157.514 185.152 159.452C185.317 159.349 185.502 159.246 185.667 159.143C185.399 158.834 185.172 158.73 184.76 158.772C184.595 158.792 184.45 158.895 184.45 159.081C184.512 162.216 185.131 165.289 186.286 168.218C186.43 168.094 186.595 167.991 186.74 167.867C184.677 166.877 185.873 171.539 186.038 172.24C186.657 174.921 187.771 177.479 189.256 179.789C189.503 180.16 190.04 179.85 189.813 179.52Z" fill="#837B7B"/>
<path d="M193.091 158.916C192.906 157.596 192.865 156.255 193.03 154.935C193.071 154.605 193.855 150.728 194.246 150.893C194.453 150.996 194.7 150.872 194.721 150.625C194.845 147.985 195.67 145.633 196.639 143.2C197.608 140.786 198.557 138.456 200.166 136.373C200.021 136.373 199.877 136.373 199.733 136.373C200.908 137.713 200.764 139.755 200.826 141.426C200.908 143.303 200.97 145.18 200.991 147.056C201.032 150.748 200.97 154.44 200.805 158.132C200.455 165.681 199.609 173.209 198.33 180.655C198.268 181.046 198.866 181.211 198.928 180.82C200.269 173.065 201.115 165.206 201.465 157.328C201.63 153.368 201.671 149.408 201.589 145.448C201.548 143.468 201.506 141.488 201.362 139.508C201.28 138.208 201.073 136.93 200.166 135.919C200.063 135.795 199.836 135.795 199.733 135.919C198.145 137.981 197.155 140.25 196.206 142.663C195.154 145.262 194.267 147.778 194.123 150.625C194.288 150.542 194.432 150.439 194.597 150.356C193.339 149.8 192.926 152.481 192.761 153.203C192.308 155.141 192.266 157.101 192.555 159.06C192.535 159.473 193.133 159.308 193.091 158.916Z" fill="#837B7B"/>
<path d="M185.77 201.363C192.226 203.446 199.217 203.343 205.611 201.074C205.982 200.95 205.817 200.352 205.446 200.476C199.156 202.703 192.287 202.806 185.935 200.764C185.543 200.641 185.378 201.239 185.77 201.363Z" fill="#837B7B"/>
<path d="M204.622 180.181C204.869 183.522 205.137 186.863 205.364 190.204C205.591 193.608 205.673 197.052 205.117 200.434C205.055 200.826 205.653 200.991 205.715 200.599C206.272 197.279 206.23 193.938 206.003 190.596C205.777 187.131 205.508 183.646 205.24 180.181C205.22 179.789 204.601 179.789 204.622 180.181Z" fill="#837B7B"/>
<path d="M94.5449 206.661C98.7524 204.413 102.981 202.165 107.188 199.917C109.168 200.247 111.891 200.68 115.149 201.133C121.667 202.041 132.165 203.505 145.447 203.897C158.73 204.289 168.692 203.443 172.487 203.072C181.624 202.206 187.151 201.03 191.668 199.813C195.772 198.7 199.155 197.483 201.568 196.555C203.548 197.215 205.755 198.102 208.106 199.318C209.447 200.02 210.684 200.742 211.777 201.463C207.9 202.577 202.682 204 196.474 205.444C183.397 208.496 173.374 209.94 171.27 210.25C159.246 211.961 142.106 214.375 120.553 211.879C113.85 211.075 104.919 209.61 94.5449 206.661Z" fill="white"/>
<path d="M94.3174 206.682C94.4205 207.549 94.5443 208.394 94.6474 209.26C96.1943 209.694 98.463 210.312 101.268 210.931C106.631 212.127 112.076 212.952 119.191 213.509C145.467 215.572 166.464 213.736 166.464 213.736C176.962 212.808 187.151 211.859 200.309 208.023C205.259 206.579 209.302 205.115 212.189 203.98C211.962 203.011 211.736 202.042 211.509 201.072C210.704 201.402 209.508 201.877 208.044 202.413C198.102 206.043 189.914 207.239 182.613 208.126C166.567 210.106 158.544 211.075 146.767 211.261C133.361 211.488 115.376 210.684 94.3174 206.682Z" fill="#161616"/>
<path d="M94.1729 207.075C94.1729 207.735 94.1729 208.395 94.1729 209.055C94.1729 209.447 94.7916 209.447 94.7916 209.055C94.7916 208.395 94.7916 207.735 94.7916 207.075C94.7916 206.663 94.1729 206.663 94.1729 207.075Z" fill="#161616"/>
<path d="M94.4008 209.631C109.808 213.797 125.895 214.333 141.756 214.56C156.998 214.767 172.343 214.107 187.358 211.322C195.814 209.755 204.147 207.465 212.19 204.351C212.562 204.207 212.397 203.608 212.025 203.753C197.835 209.26 182.758 212.065 167.599 213.24C152.316 214.416 136.888 214.148 121.605 213.22C112.468 212.642 103.414 211.446 94.5658 209.053C94.174 208.93 94.009 209.528 94.4008 209.631Z" fill="#161616"/>
<path d="M212.19 203.919C212.313 203.053 212.355 202.166 212.272 201.3C212.231 200.908 211.612 200.908 211.653 201.3C211.715 202.125 211.715 202.95 211.591 203.754C211.53 204.125 212.128 204.311 212.19 203.919Z" fill="#161616"/>
<path d="M94.6684 207.013C98.9996 204.951 103.248 202.744 107.415 200.351C107.765 200.145 107.456 199.629 107.105 199.815C102.939 202.187 98.6902 204.414 94.359 206.477C93.9877 206.642 94.2971 207.178 94.6684 207.013Z" fill="#161616"/>
<path d="M107.249 200.062C131.855 204.744 157.43 205.61 182.242 202.062C188.842 201.114 195.401 199.649 201.506 196.927C201.877 196.762 201.547 196.226 201.196 196.391C195.71 198.824 189.853 200.247 183.933 201.176C177.911 202.124 171.826 202.702 165.742 203.094C153.388 203.877 140.971 203.671 128.658 202.496C121.522 201.815 114.448 200.784 107.414 199.464C107.023 199.402 106.858 200 107.249 200.062Z" fill="#161616"/>
<path d="M201.382 196.824C205.054 198.02 208.498 199.691 211.715 201.815C212.045 202.042 212.355 201.506 212.025 201.279C208.766 199.134 205.26 197.443 201.547 196.226C201.155 196.102 200.99 196.7 201.382 196.824Z" fill="#161616"/>
<path d="M94.7099 206.683C101.991 209.137 109.581 210.292 117.212 210.911C124.946 211.53 132.742 211.715 140.497 211.715C155.904 211.715 171.352 210.663 186.532 207.9C195.154 206.332 203.692 204.208 212.004 201.423C212.376 201.3 212.211 200.702 211.839 200.825C197.216 205.693 182.016 208.539 166.671 209.942C151.408 211.344 135.981 211.427 120.677 210.519C111.932 209.983 103.166 208.89 94.8337 206.085C94.5037 205.961 94.3387 206.559 94.7099 206.683Z" fill="#161616"/>
<path d="M106.589 88.8937C131.793 83.0569 157.739 81.7781 183.521 81.5306C190.822 81.4481 198.123 81.4687 205.424 81.4687C205.816 81.4687 205.816 80.85 205.424 80.85C179.561 80.8087 153.573 80.7881 127.895 84.3562C120.676 85.3669 113.519 86.6456 106.424 88.2956C106.032 88.3987 106.197 88.9969 106.589 88.8937Z" fill="#161616"/>
<path d="M206.703 80.9111C206.971 90.5017 207.136 101.619 207.075 113.973C207.033 121.15 206.971 117.727 206.332 147.592C205.961 164.793 205.858 171.269 204.641 181.21C203.857 187.687 202.908 193.008 202.207 196.617C207.528 198.102 212.602 199.505 217.057 200.742C223.946 202.66 225.781 203.176 228.525 203.568C232.773 204.145 237.95 204.228 243.931 203.011C246.138 184.944 247.355 169.537 248.056 157.739C250.573 116.283 248.221 97.1842 247.314 90.4811C246.076 81.4473 244.55 74.0223 243.375 68.8867C238.961 69.7323 235.372 70.6398 232.856 71.3205C224.214 73.6923 217.366 76.4767 211.633 78.828C209.508 79.7148 207.796 80.4367 206.703 80.9111Z" fill="white"/>
<path d="M64.5142 69.2578C64.3492 71.0316 64.1636 73.2178 63.9986 75.1153C60.5749 114.158 58.863 133.69 58.3061 146.251C57.7286 159.74 57.6874 179.292 60.5543 203.609C60.7811 204.104 61.1936 204.785 61.9361 205.342C62.9055 206.063 63.7924 206.043 65.5455 206.538C66.9274 206.93 67.6493 207.322 68.3093 207.569C70.2068 208.312 74.4555 209.157 79.8593 208.951C87.6143 208.642 93.5749 206.27 97.9474 204.475C102.052 202.805 105.331 201.01 107.6 199.649C106.321 188.161 105.372 176.033 104.836 163.308C103.743 136.248 104.836 111.395 107.084 89.2435C106.136 88.8722 104.754 88.3566 103.124 87.6966C100.319 86.5622 93.5955 83.8191 81.7568 78.0441C77.0749 75.7753 71.2174 72.8259 64.5142 69.2578Z" fill="white"/>
<path d="M243.251 68.8047C243.498 70.1659 243.828 72.0428 244.2 74.2909C244.715 77.4878 245.87 85.0572 246.716 94.9984C247.582 105.352 247.789 114.262 247.809 121.357C247.871 135.753 247.335 146.313 245.932 170.94C245.499 178.612 244.86 189.853 244.055 203.568C244.901 203.507 245.726 203.465 246.572 203.403C246.984 199.98 247.541 194.885 247.974 188.657C248.304 184.16 248.449 180.881 248.593 177.354C249.315 161.184 249.439 161.37 249.686 154.77C250.181 141.755 250.078 131.752 249.995 122.76C249.934 116.552 249.748 110.673 249.377 98.9172C249.109 90.9147 248.84 83.8197 247.025 74.6003C246.551 72.2491 246.097 70.2897 245.767 68.9491C244.922 68.9078 244.097 68.8666 243.251 68.8047Z" fill="#161616"/>
<path d="M61.3583 69.6289C61.214 70.3508 60.9871 71.4645 60.7602 72.8258C60.1002 76.7652 59.9352 79.7352 59.8733 80.7045C59.4196 87.717 58.5121 91.1408 57.1921 106.713C56.9446 109.559 56.759 112.055 56.3877 117.066C55.6246 127.296 55.2533 132.411 54.9852 138.186C54.6965 144.642 54.6552 149.2 54.5933 158.316C54.5315 166.195 54.4902 171.888 54.6965 179.333C54.8615 185.273 55.1915 193.338 55.9958 202.949C57.6665 203.444 59.3165 203.939 60.9871 204.434C60.9665 203.506 60.9046 201.835 60.7808 199.752C60.2858 190.491 59.4815 186.738 59.2958 179.024C59.234 176.652 59.2752 175.085 59.2958 172.836C59.5227 156.708 59.2546 149.345 59.399 138.867C59.6465 121.769 60.8015 108.404 61.7915 97.0189C62.7196 86.2527 63.7715 77.0333 64.679 69.8145C63.5446 69.7527 62.4515 69.6908 61.3583 69.6289Z" fill="#161616"/>
<path d="M206.209 81.2627C206.972 96.4014 206.869 111.581 206.662 126.72C206.435 141.529 206.332 156.379 205.198 171.167C204.559 179.582 203.548 187.976 201.98 196.288C201.898 196.68 202.496 196.845 202.579 196.453C205.322 181.913 206.332 167.125 206.786 152.357C207.26 137.28 207.467 122.162 207.446 107.065C207.425 98.4639 207.281 89.8633 206.848 81.2627C206.807 80.8708 206.188 80.8708 206.209 81.2627Z" fill="#161616"/>
<path d="M206.971 81.2629C218.418 75.5911 230.566 71.5073 243.106 69.0942C243.498 69.0117 243.333 68.4136 242.941 68.4961C230.36 70.9298 218.15 75.0548 206.662 80.7267C206.311 80.9123 206.621 81.4486 206.971 81.2629Z" fill="#161616"/>
<path d="M242.9 68.9081C246.304 86.0475 247.335 103.558 247.314 121.007C247.273 138.456 246.242 155.863 245.396 173.291C244.901 183.336 244.406 193.359 243.911 203.404C243.89 203.796 244.509 203.796 244.53 203.404C245.417 185.625 246.345 167.846 247.149 150.047C247.933 132.598 248.428 115.108 247.252 97.68C246.592 87.9656 245.417 78.2925 243.519 68.7638C243.416 68.3513 242.818 68.5163 242.9 68.9081Z" fill="#161616"/>
<path d="M202.083 196.411C203.011 197.484 204.661 197.69 205.961 198.082C207.734 198.618 209.529 199.154 211.303 199.691C214.891 200.763 218.459 201.897 222.089 202.805C229.184 204.537 236.465 204.888 243.663 203.651C244.055 203.589 243.89 202.991 243.498 203.052C236.403 204.269 229.226 203.919 222.254 202.207C218.934 201.402 215.675 200.371 212.416 199.381C210.766 198.886 209.116 198.391 207.466 197.896C206.641 197.649 205.816 197.401 204.991 197.154C204.125 196.886 203.156 196.7 202.537 195.978C202.248 195.689 201.815 196.122 202.083 196.411Z" fill="#161616"/>
<path d="M243.313 68.9282C244.076 69.1138 244.839 69.2994 245.623 69.485C246.015 69.5882 246.18 68.99 245.788 68.8869C245.025 68.7013 244.262 68.5157 243.478 68.3301C243.086 68.2476 242.921 68.8457 243.313 68.9282Z" fill="#161616"/>
<path d="M245.581 69.2792C247.644 77.6117 248.201 86.3155 248.799 94.8749C249.417 103.62 249.747 112.385 249.892 121.172C250.139 138.6 249.541 156.028 248.551 173.436C247.994 183.294 247.293 193.153 246.571 203.012C246.551 203.404 247.169 203.404 247.19 203.012C248.489 185.481 249.665 167.949 250.222 150.377C250.779 132.846 250.737 115.273 249.624 97.7417C249.026 88.213 248.489 78.4367 246.2 69.1348C246.076 68.7223 245.478 68.8873 245.581 69.2792Z" fill="#161616"/>
<path d="M244.241 203.753C245.149 203.67 246.036 203.588 246.943 203.505C247.335 203.464 247.335 202.845 246.943 202.887C246.036 202.969 245.149 203.052 244.241 203.134C243.849 203.175 243.849 203.794 244.241 203.753Z" fill="#161616"/>
<path d="M106.569 89.0791C105.187 103.372 104.362 117.707 104.094 132.062C103.825 146.478 104.114 160.916 104.98 175.312C105.455 183.397 106.135 191.461 106.96 199.505C107.002 199.897 107.62 199.897 107.579 199.505C106.094 185.233 105.166 170.898 104.795 156.543C104.424 142.127 104.609 127.689 105.372 113.293C105.805 105.208 106.404 97.1434 107.167 89.0791C107.229 88.6872 106.61 88.6872 106.569 89.0791Z" fill="#161616"/>
<path d="M64.9062 69.7526C78.2918 77.1982 92.1931 83.7157 106.466 89.2638C106.837 89.4082 107.002 88.81 106.631 88.6657C92.3993 83.1382 78.5599 76.6413 65.2156 69.2163C64.8649 69.0101 64.5556 69.5463 64.9062 69.7526Z" fill="#161616"/>
<path d="M64.2679 69.6084C61.9786 87.0571 60.3904 104.609 59.5242 122.202C58.6579 139.795 58.5342 157.409 59.1117 175.002C59.4417 184.881 59.9986 194.761 60.7823 204.62C60.8236 205.011 61.4423 205.011 61.4011 204.62C59.9986 187.068 59.3385 169.454 59.3798 151.861C59.421 134.247 60.2048 116.654 61.6898 99.1021C62.5354 89.2434 63.6079 79.4259 64.8867 69.6084C64.9279 69.2165 64.3092 69.2165 64.2679 69.6084Z" fill="#161616"/>
<path d="M60.7605 205.011C72.2487 211.26 86.0056 209.92 97.6793 204.97C101.186 203.485 104.568 201.69 107.827 199.731C108.157 199.525 107.847 198.989 107.517 199.195C96.6481 205.774 83.9018 210.374 71.0524 207.981C67.5668 207.342 64.1843 206.166 61.0699 204.475C60.7399 204.289 60.4099 204.825 60.7605 205.011Z" fill="#161616"/>
<path d="M56.2027 203.3C57.6465 203.98 59.1315 204.558 60.6371 205.074C61.0084 205.197 61.1734 204.599 60.8021 204.475C59.3377 203.98 57.9146 203.424 56.5121 202.764C56.1409 202.599 55.8315 203.135 56.2027 203.3Z" fill="#161616"/>
<path d="M60.9465 69.7536C58.719 87.0373 56.8628 104.362 55.6459 121.749C54.4496 139.054 53.8721 156.399 54.2434 173.745C54.4496 183.562 54.9446 193.38 55.7903 203.156C55.8315 203.548 56.4503 203.548 56.409 203.156C54.924 185.81 54.4909 168.403 54.9034 150.995C55.2953 133.65 56.4915 116.325 58.2034 99.0411C59.1728 89.2648 60.3072 79.4886 61.5653 69.7329C61.6272 69.3617 61.0084 69.3617 60.9465 69.7536Z" fill="#161616"/>
<path d="M61.2973 70.1857C62.4935 69.9382 63.6898 69.8557 64.9273 69.9175C65.3192 69.9382 65.3192 69.3194 64.9273 69.2988C63.6485 69.2369 62.3904 69.34 61.1323 69.5875C60.7404 69.67 60.9054 70.2682 61.2973 70.1857Z" fill="#161616"/>
<path d="M214.108 82.665C214.974 106.59 214.933 130.536 213.943 154.461C213.675 161.164 213.324 167.846 212.891 174.549C212.871 174.941 213.489 174.941 213.51 174.549C215.015 150.666 215.593 126.72 215.242 102.774C215.139 96.0712 214.974 89.3681 214.727 82.665C214.706 82.2731 214.087 82.2731 214.108 82.665Z" fill="#161616"/>
<path d="M224.111 74.0849C224.936 90.7293 225.349 107.415 225.328 124.08C225.328 140.745 224.916 157.431 224.091 174.075C223.637 183.501 223.039 192.906 222.317 202.311C222.296 202.702 222.915 202.702 222.936 202.311C224.214 185.687 225.081 169.042 225.555 152.377C226.009 135.712 226.071 119.027 225.72 102.362C225.514 92.9362 225.184 83.5105 224.73 74.0849C224.709 73.693 224.091 73.693 224.111 74.0849Z" fill="#161616"/>
<path d="M236.115 70.4136C237.27 87.7179 237.971 105.064 238.156 122.43C238.342 139.858 238.053 157.265 237.27 174.673C236.836 184.429 236.238 194.184 235.475 203.919C235.454 204.311 236.073 204.311 236.094 203.919C237.414 186.615 238.28 169.269 238.631 151.924C238.981 134.516 238.858 117.088 238.239 99.6598C237.888 89.9042 237.393 80.1486 236.733 70.3929C236.713 70.0011 236.094 70.0011 236.115 70.4136Z" fill="#161616"/>
<path d="M211.984 182.282C211.509 187.686 210.643 193.048 209.385 198.328C209.302 198.72 209.88 198.885 209.983 198.493C211.262 193.152 212.128 187.748 212.602 182.282C212.644 181.89 212.025 181.89 211.984 182.282Z" fill="#161616"/>
<path d="M71.6712 73.7749C69.1962 91.0792 68.1443 108.569 67.9793 126.039C67.8349 143.611 68.5568 161.163 69.6293 178.694C70.2274 188.615 70.9287 198.515 71.6299 208.436C71.6505 208.827 72.2693 208.827 72.2487 208.436C71.0112 190.966 69.7737 173.497 69.093 156.007C68.4124 138.558 68.3093 121.068 69.3199 103.619C69.8974 93.6986 70.8462 83.778 72.2487 73.9399C72.3312 73.5686 71.733 73.383 71.6712 73.7749Z" fill="#161616"/>
<path d="M83.5313 79.5511C81.9638 96.278 80.9119 113.067 80.5613 129.876C80.2313 146.665 80.6232 163.454 82.0051 180.201C82.7682 189.503 83.8407 198.764 85.2432 207.983C85.305 208.375 85.9032 208.21 85.8413 207.818C83.3251 191.194 81.8813 174.406 81.345 157.596C80.8088 141.014 81.1182 124.39 82.0257 107.828C82.5413 98.4024 83.2632 88.9768 84.1501 79.5718C84.1913 79.1593 83.5726 79.1593 83.5313 79.5511Z" fill="#161616"/>
<path d="M95.4105 84.4801C93.3892 100.093 92.2136 115.809 91.9042 131.546C91.5948 147.283 92.1311 163.041 93.513 178.716C94.2967 187.461 95.328 196.164 96.6274 204.848C96.6893 205.239 97.2874 205.074 97.2255 204.683C94.8949 189.131 93.4099 173.477 92.7705 157.781C92.1311 142.127 92.358 126.431 93.4099 110.777C94.008 101.991 94.8742 93.2045 96.0086 84.4595C96.0911 84.0883 95.4724 84.0883 95.4105 84.4801Z" fill="#161616"/>
<path opacity="0.12" d="M231.495 71.8151C233.784 81.1582 235.641 92.1101 236.259 104.382C237.806 135.608 230.464 161.121 224.07 177.498C219.553 184.737 215.057 191.976 210.54 199.216C214.933 201.113 221.451 203.32 229.577 203.98C235.187 204.434 240.054 204.021 243.849 203.403C243.891 202.495 244.571 188.697 244.613 187.789C246.861 141.569 247.005 138.413 247.088 135.237C247.459 122.305 247.397 103.743 245.19 80.5807C244.427 76.6413 243.664 72.702 242.901 68.7832C239.126 69.7732 235.311 70.7838 231.495 71.8151Z" fill="#3F3F3F"/>
<path opacity="0.13" d="M87.5527 81.9004C87.0165 84.1485 86.2121 87.5104 85.2633 91.6148C81.0558 109.93 77.9621 123.398 76.3121 135.794C73.3833 157.635 70.5577 178.797 82.6027 196.163C86.109 201.216 89.9452 204.619 92.5027 206.64C90.0277 207.61 86.9546 208.497 83.3658 208.93C73.3833 210.105 65.3808 206.867 61.4621 204.928C59.9771 191.254 58.9459 176.61 58.6159 161.121C57.8734 126.842 60.6577 96.0285 64.9065 69.5254C72.4346 73.6504 79.9833 77.7754 87.5527 81.9004Z" fill="#3F3F3F"/>
<path d="M65.9186 59.7099C65.6505 59.9162 65.8568 60.7205 66.228 62.1024C66.3724 62.6387 66.5168 63.0512 66.5993 63.3193C66.4343 64.433 66.2899 65.5468 66.1249 66.6605C65.7949 66.7018 64.9493 66.8874 64.1655 67.568C63.4436 68.2074 63.1549 68.9499 63.0518 69.2799C63.7118 69.3418 64.5161 69.4862 65.3824 69.7543C66.6405 70.1462 67.6305 70.6824 68.3524 71.1362C68.3524 71.3837 68.3936 71.858 68.7236 72.2087C69.0124 72.4974 69.363 72.5387 69.5693 72.5799C70.3118 72.7037 71.1986 72.8687 72.333 73.1162C72.828 73.4049 73.653 73.8793 74.6636 74.4362C78.0874 76.2924 79.3249 76.6018 82.7486 78.4168C84.9555 79.5924 84.7699 79.6337 86.3168 80.3762C88.6886 81.5312 90.7305 82.2118 92.1124 82.6037C92.6899 81.9643 93.618 80.7268 94.1336 78.9324C94.5461 77.5093 94.5255 76.2718 94.443 75.4674C94.7936 75.653 95.3505 75.8593 95.9899 75.7768C97.6399 75.5912 98.6918 73.7143 99.0218 72.3737C99.3105 71.198 99.0424 70.4555 98.8155 69.0737C98.2999 65.9799 97.8461 63.2162 99.1249 61.463C100.197 59.9987 102.404 59.318 104.178 57.3587C104.343 57.173 104.652 56.8224 104.549 56.6574C104.364 56.348 102.92 56.8843 102.219 57.1937C101.765 57.3999 98.3618 58.9674 97.3305 62.5149C97.1655 63.0718 97.1449 64.6805 97.1243 67.8774C97.1036 70.208 97.1449 71.528 96.2168 72.2912C95.7424 72.683 95.0411 72.9099 94.4018 72.7655C93.453 72.5593 92.9993 71.6312 92.5868 71.0124C91.5143 69.383 89.988 68.7024 88.1111 67.7743C86.6468 67.0524 85.3886 66.7843 82.8518 66.2274C80.4593 65.7118 79.7374 65.7737 78.7061 65.0105C77.5511 64.1443 76.9118 62.9274 76.5818 62.2468C76.2518 61.6074 75.7361 60.5968 75.5093 59.153C75.3855 58.3074 75.4061 57.7093 75.1999 57.668C74.8286 57.5855 74.643 59.2974 73.3849 59.8955C72.6218 60.2668 72.1268 59.9162 70.7861 59.9574C69.9199 59.978 68.9299 60.1637 67.8161 60.6587C67.4449 60.3905 66.2899 59.4418 65.9186 59.7099Z" fill="black"/>
<path d="M66.5369 66.496C66.1038 63.0928 69.1975 59.9991 72.6213 60.3497C75.8594 60.6797 78.0044 64.6191 77.9013 67.5685C77.8807 67.9604 78.4994 67.9604 78.5201 67.5685C78.6232 64.3097 76.1894 60.0197 72.6213 59.731C68.8675 59.4216 65.4438 62.7422 65.9182 66.496C65.98 66.8672 66.5988 66.8878 66.5369 66.496Z" fill="black"/>
<path d="M66.475 68.64C67.7331 71.0944 70.435 72.8269 73.2607 72.4556C75.8388 72.105 78.025 70.0219 78.4169 67.4438C78.4788 67.0519 77.8807 66.8869 77.8188 67.2788C77.4682 69.63 75.5294 71.5275 73.1781 71.8369C70.6 72.1875 68.1663 70.5788 67.0113 68.3306C66.8256 67.98 66.2894 68.2894 66.475 68.64Z" fill="black"/>
<path d="M68.7034 71.6306C68.6415 70.8469 70.869 70.5169 71.4259 70.3932C72.4365 70.1663 73.4678 70.0425 74.499 70.0425C76.4171 70.0425 78.2528 70.5375 79.8821 71.5481C80.2121 71.7544 80.5421 71.2181 80.1915 71.0119C78.0878 69.7125 75.6334 69.2588 73.1996 69.4857C71.9209 69.6094 70.6627 69.8775 69.4459 70.29C68.7859 70.5169 68.0021 70.8056 68.064 71.6306C68.1052 72.0225 68.7446 72.0225 68.7034 71.6306Z" fill="black"/>
<path d="M77.5712 64.496C78.8705 66.0635 80.9743 66.4347 82.8512 66.8472C85.3468 67.4247 87.9249 67.9404 90.1111 69.3222C94.628 72.1685 95.4736 78.3766 91.9055 82.3573C91.6374 82.646 92.0705 83.0998 92.3386 82.7904C95.5149 79.2635 95.5974 73.8598 92.318 70.3535C90.5855 68.4972 88.1105 67.5279 85.6974 66.8885C83.243 66.2491 79.7162 66.146 77.9837 64.0422C77.7568 63.7535 77.3237 64.1866 77.5712 64.496Z" fill="black"/>
<path d="M92.0089 75.2825C90.9777 73.9213 89.1627 73.4469 87.5746 74.1069C85.6152 74.9113 85.5121 77.3244 85.739 79.16C85.7802 79.5519 86.399 79.5519 86.3577 79.16C86.1721 77.7163 86.1515 75.4888 87.6364 74.7669C88.9152 74.1275 90.5858 74.4575 91.4521 75.6125C91.6996 75.9219 92.2358 75.6125 92.0089 75.2825Z" fill="black"/>
<path d="M86.2753 78.8712C85.1409 78.005 83.9653 77.2625 82.5009 77.6543C82.3359 77.6956 82.2534 77.8812 82.2947 78.0256C82.6659 79.4693 84.9347 80.0675 86.1309 80.5831C87.9666 81.3875 89.8434 82.0681 91.7409 82.6662C92.1122 82.79 92.2772 82.1918 91.9059 82.0681C90.3797 81.5937 88.8947 81.0781 87.4097 80.4593C86.6053 80.1293 85.8216 79.7787 85.0378 79.4075C84.3366 79.0775 83.0784 78.6856 82.8722 77.8606C82.8103 77.9843 82.7278 78.1081 82.6659 78.2318C83.9447 77.8812 84.9966 78.6443 85.9453 79.3868C86.2753 79.655 86.5847 79.1187 86.2753 78.8712Z" fill="black"/>
<path d="M68.1461 71.5691C68.9505 72.8891 70.5798 73.116 72.003 73.3222C74.1067 73.6316 76.2105 73.6316 78.3142 73.4047C78.7061 73.3635 78.7061 72.7447 78.3142 72.786C76.623 72.9716 74.9317 73.0128 73.2405 72.8478C71.8173 72.7035 69.528 72.621 68.6617 71.2597C68.4761 70.9091 67.9398 71.2185 68.1461 71.5691Z" fill="black"/>
<path d="M63.3402 69.4645C63.6083 68.0208 64.8664 67.2783 66.2689 67.2164C66.1658 67.1339 66.0627 67.072 65.9802 66.9895C66.0833 67.4845 66.2277 67.9589 66.4339 68.4127C66.5783 68.7839 67.1764 68.6189 67.032 68.2477C66.8464 67.7733 66.702 67.3195 66.5783 66.8245C66.5577 66.7008 66.4133 66.5977 66.2895 66.5977C64.6395 66.6802 63.0721 67.5877 62.7627 69.2995C62.6802 69.6914 63.2783 69.8564 63.3402 69.4645Z" fill="black"/>
<path d="M66.9291 63.0716C66.6197 62.1848 66.3929 61.2566 66.3104 60.3079C66.3104 60.2254 66.2897 60.1429 66.2897 60.0604C66.2691 59.8748 66.2897 59.8954 66.3722 60.1223C66.5579 60.246 66.7435 60.3904 66.9291 60.5348C67.2385 60.8029 67.5272 61.0916 67.7747 61.401C68.0429 61.7104 68.476 61.2566 68.2079 60.9679C67.8572 60.5554 66.3929 58.8641 65.7741 59.5241C65.4647 59.8541 65.6916 60.6173 65.7535 60.9885C65.8566 61.7516 66.0629 62.5148 66.3104 63.2366C66.4754 63.6079 67.0735 63.4635 66.9291 63.0716Z" fill="black"/>
<path d="M73.9 60.1847C74.0856 59.8547 74.2713 59.5247 74.4775 59.1947C74.56 59.0503 74.6425 58.9266 74.7044 58.7822C74.8282 58.5759 74.8282 58.3903 75.0757 58.4522C75.3644 58.5141 75.2613 59.1947 75.2613 59.4422C75.2613 59.8341 75.2819 60.2259 75.2819 60.6178C75.2819 61.0097 75.9007 61.0097 75.9007 60.6178C75.9007 59.9784 75.9213 59.3391 75.88 58.6997C75.8594 58.2872 75.715 57.8334 75.2613 57.6891C74.8488 57.5653 74.56 57.8334 74.3538 58.1428C74.0031 58.6997 73.6938 59.2978 73.3638 59.8547C73.1575 60.2259 73.6938 60.5353 73.9 60.1847Z" fill="black"/>
<path d="M93.6587 73.6735C93.7825 75.241 95.5356 75.7566 96.7525 74.9935C98.5468 73.8797 98.9387 71.3635 98.7118 69.466C98.4025 66.8672 97.7837 64.4541 98.6706 61.876C99.5162 59.4216 101.62 57.421 104.281 57.256C104.672 57.2353 104.672 56.6166 104.281 56.6372C100.651 56.8641 98.1756 59.9578 97.66 63.3816C97.3506 65.4235 97.8043 67.321 98.0725 69.3216C98.2375 70.6416 98.155 71.8997 97.5568 73.1166C97.2887 73.6322 96.9175 74.1479 96.4225 74.4778C95.6593 74.9522 94.3393 74.8078 94.2568 73.6941C94.2568 73.2816 93.6381 73.261 93.6587 73.6735Z" fill="black"/>
<path d="M93.9891 74.7861C94.6285 76.498 96.856 75.7349 97.8254 74.7449C99.4135 73.1361 99.0629 70.4549 98.9391 68.413C98.9185 68.0212 98.2997 68.0212 98.3204 68.413C98.4029 69.7124 98.5266 71.1149 98.2997 72.4143C98.1966 73.033 97.9697 73.6105 97.5572 74.1055C97.1035 74.6624 95.1235 76.0649 94.5872 74.6211C94.4429 74.2499 93.8447 74.4149 93.9891 74.7861Z" fill="black"/>
<path d="M104.302 56.6161C101.95 57.5236 99.5785 58.8023 98.6298 61.2773C97.5366 64.1235 98.3204 67.2173 98.2585 70.1667C98.2585 70.5585 98.8773 70.5585 98.8773 70.1667C98.9391 67.5885 98.3204 64.9485 98.9391 62.391C99.6198 59.5861 101.95 58.1836 104.467 57.2142C104.838 57.0698 104.673 56.4717 104.302 56.6161Z" fill="black"/>
<path d="M103.827 56.9667C101.662 57.9567 99.6818 59.6892 98.6712 61.8961C98.135 63.0511 98.2175 64.3298 98.2175 65.5879C98.2175 67.1967 98.2793 68.8261 98.4031 70.4348C98.4237 70.8267 99.0425 70.8267 99.0218 70.4348C98.9393 69.1354 98.8775 67.8567 98.8568 66.5573C98.8362 65.1961 98.6506 63.5873 99.1662 62.3086C100.053 60.1429 102.054 58.4723 104.137 57.5029C104.508 57.3379 104.199 56.8017 103.827 56.9667Z" fill="black"/>
<path d="M67.7546 64.4328C68.3321 65.4435 69.7965 65.0929 69.9409 63.9791C69.9615 63.7728 69.6521 63.7935 69.6315 63.9791C69.5284 64.8247 68.4559 64.9897 68.0228 64.2885C67.9196 64.1028 67.6515 64.2678 67.7546 64.4328Z" fill="white"/>
<path d="M72.1267 63.6298C72.7661 64.7229 74.3955 64.2898 74.4161 63.0316C74.4161 62.8254 74.1067 62.8254 74.1067 63.0316C74.0861 64.001 72.8898 64.3104 72.3948 63.4854C72.2917 63.2998 72.0236 63.4441 72.1267 63.6298Z" fill="white"/>
<path d="M70.8893 64.9899C71.0337 65.588 70.91 66.1861 70.5387 66.6811C70.4149 66.8461 70.6831 66.9905 70.8068 66.8461C71.2193 66.2892 71.3431 65.588 71.1987 64.9074C71.1368 64.7217 70.8275 64.8042 70.8893 64.9899Z" fill="white"/>
<path d="M71.0127 64.9691C70.9508 65.7529 71.3839 66.4954 72.1058 66.8254C72.2914 66.9079 72.4358 66.6398 72.2708 66.5573C71.6521 66.2685 71.2602 65.6498 71.3221 64.9691C71.3221 64.7629 71.0127 64.7629 71.0127 64.9691Z" fill="white"/>
<path d="M65.98 66.804C67.795 66.6596 68.95 68.1446 70.1669 69.2377C70.3113 69.3615 70.5382 69.1552 70.3938 69.0108C69.115 67.8558 67.8775 66.3502 65.98 66.474C65.7944 66.4946 65.7944 66.804 65.98 66.804Z" fill="white"/>
<path d="M69.3621 70.4349C71.6927 68.9499 74.4565 68.4549 77.1584 69.0531C77.344 69.0943 77.4265 68.8056 77.2409 68.7643C74.4565 68.1662 71.6102 68.6612 69.2177 70.1874C69.0321 70.2699 69.1971 70.5381 69.3621 70.4349Z" fill="white"/>
<path d="M75.2203 73.2608C77.1384 73.3846 78.9534 72.7864 80.4178 71.5283C80.5621 71.4046 80.3559 71.1777 80.1909 71.3014C78.7884 72.4977 77.0559 73.0752 75.2203 72.9514C75.0346 72.9514 75.0346 73.2608 75.2203 73.2608Z" fill="white"/>
<path d="M74.6635 58.6165C74.2097 59.3797 74.1066 60.2665 74.3747 61.1121C74.4366 61.2978 74.7254 61.2153 74.6635 61.0296C74.416 60.2665 74.4985 59.4621 74.911 58.7815C75.0347 58.5959 74.7666 58.4309 74.6635 58.6165Z" fill="white"/>
<path d="M66.4957 60.5355C66.9907 60.8448 67.3001 61.3192 67.4238 61.8761C67.4651 62.0617 67.7538 61.9792 67.7126 61.7936C67.5682 61.1542 67.197 60.618 66.6401 60.2673C66.4751 60.1642 66.3307 60.4323 66.4957 60.5355Z" fill="white"/>
<path d="M77.4061 63.8337C77.798 64.308 78.2517 64.7205 78.7674 65.0299C78.9324 65.1331 79.0974 64.8649 78.9324 64.7618C78.4374 64.4524 77.9836 64.0605 77.633 63.6068C77.4886 63.4624 77.2824 63.6893 77.4061 63.8337Z" fill="white"/>
<path d="M90.1318 73.9613C89.6987 72.8682 87.6155 73.6107 86.9349 74.0438C85.718 74.8482 85.1817 76.3538 85.6355 77.7356C85.6974 77.9213 85.9861 77.8388 85.9243 77.6531C85.5736 76.56 85.8624 75.3844 86.7286 74.58C87.0999 74.2294 87.5949 73.9819 88.0899 73.8582C88.4405 73.755 89.6368 73.5282 89.8224 74.0232C89.9049 74.2294 90.1937 74.1469 90.1318 73.9613Z" fill="white"/>
<path d="M85.883 77.7561C84.2742 77.0755 82.5624 77.0136 80.8917 77.5292C80.7061 77.5911 80.7886 77.8798 80.9742 77.8179C82.6036 77.3023 84.233 77.3848 85.8005 78.0448C85.9861 78.1273 86.0686 77.8179 85.883 77.7561Z" fill="white"/>
<path d="M142.54 163.534C141.694 165.556 141.694 167.061 141.57 170.939C141.426 175.724 141.013 180.488 140.972 185.253C140.931 189.274 140.869 195.359 140.704 203.279C147.304 203.65 154.605 203.733 162.525 203.341C170.074 202.969 177.045 202.206 183.336 201.258C180.366 191.213 178.407 183.891 177.004 178.219C176.262 175.188 175.168 170.65 172.157 165.349C170.507 162.441 168.795 160.255 167.537 158.791C167.207 158.502 159.927 152.376 151.512 155.264C151.099 155.429 144.973 157.656 142.54 163.534Z" fill="#EC615B"/>
<path d="M154.688 175.559C156.07 178.014 157.452 180.468 158.813 182.922C158.999 183.273 159.535 182.964 159.349 182.613C157.967 180.159 156.585 177.704 155.224 175.25C155.039 174.899 154.502 175.209 154.688 175.559Z" fill="#C64F4F"/>
<path d="M154.523 175.435C157.699 179.395 159.535 183.912 160.525 188.862C161.453 193.544 162.051 198.287 162.402 203.052C162.422 203.444 163.041 203.444 163.02 203.052C162.649 198.164 162.03 193.276 161.082 188.47C160.092 183.499 158.153 178.962 154.977 175.002C154.729 174.672 154.275 175.126 154.523 175.435Z" fill="#C64F4F"/>
<path opacity="0.19" d="M159.493 154.789C160.215 156.233 161.246 158.357 162.401 160.915C165.763 168.381 169.249 176.26 171.105 185.953C171.868 189.872 172.59 195.544 172.281 202.619C174.013 202.536 175.849 202.392 177.767 202.185C179.685 201.979 181.521 201.732 183.253 201.443C182.717 199.628 181.851 196.74 180.881 193.172C178.179 183.19 177.808 180.075 175.498 173.496C173.786 168.608 172.198 165.287 169.909 162.111C167.846 159.244 165.908 157.45 163.453 156.192C161.927 155.408 160.504 155.016 159.493 154.789Z" fill="#3F3F3F"/>
<path opacity="0.11" d="M154.563 175.662C155.368 178.673 156.069 182.262 156.399 186.305C156.977 193.296 156.234 199.257 155.327 203.712C157.698 203.568 160.05 203.423 162.422 203.279C162.174 198.597 161.638 194.658 161.122 191.667C159.823 184.056 158.462 181.231 157.368 179.416C156.337 177.745 155.306 176.487 154.563 175.662Z" fill="#3F3F3F"/>
<path d="M128.144 128.39C127.464 128.844 127.051 129.71 126.247 131.422C125.587 132.825 125.277 133.918 124.782 135.547C123.421 140.167 123.566 139.383 123.091 141.136C122.472 143.467 121.359 147.551 120.74 152.934C120.142 158.152 120.266 162.174 120.286 163.143C120.513 169.269 121.586 173.827 122.307 176.756C123.586 182.015 125.298 186.388 128.701 195.112C129.444 196.989 130.062 198.536 130.496 199.608C130.186 199.649 129.691 199.711 129.093 199.794C125.979 200.165 125.546 200.083 124.287 200.351C122.679 200.701 121.235 201.052 120.678 202.269C120.431 202.826 120.327 203.609 120.637 203.878C121.029 204.208 121.792 203.465 123.112 203.032C124.226 202.681 125.216 202.702 125.896 202.805C125.36 203.857 125.051 204.806 124.865 205.486C124.411 207.054 124.061 208.333 124.638 209.24C124.927 209.694 125.484 210.106 125.937 209.983C126.185 209.921 126.412 209.694 127.031 208.064C127.629 206.435 127.67 205.919 128.165 205.28C128.598 204.744 129.093 204.455 129.423 204.29C129.258 204.806 129.072 205.569 128.99 206.497C128.949 207.054 128.887 207.569 128.99 208.229C129.072 208.828 129.258 210.106 130.207 210.808C130.372 210.931 131.052 211.447 131.465 211.179C131.816 210.973 131.712 210.395 131.857 208.539C131.981 206.971 132.104 206.538 132.207 206.291C132.476 205.569 132.888 205.053 133.197 204.744C133.094 206.229 133.115 207.466 133.156 208.374C133.239 209.838 133.383 210.498 133.857 210.911C134.126 211.138 134.579 211.364 134.951 211.199C135.322 211.034 135.446 210.519 135.549 209.879C136.002 207.466 135.734 206.765 136.25 205.548C136.456 205.074 136.683 204.496 137.24 204.084C138.416 203.218 140.086 203.733 140.313 203.795C141.303 204.104 141.674 204.641 142.169 204.414C142.582 204.228 142.809 203.63 142.829 203.135C142.85 201.918 141.509 200.99 140.354 200.227C139.777 199.835 138.911 199.319 137.756 198.907C136.745 196.906 135.466 193.998 134.414 190.306C133.713 187.831 133.383 185.934 133.074 184.139C131.981 177.849 132.372 175.436 131.156 169.186C130.867 167.681 130.578 166.484 130.413 165.804C130.496 164.773 130.64 163.164 130.846 161.204C131.527 154.811 131.981 150.81 133.362 146.107C134.456 142.415 135.569 139.383 135.569 139.383C136.972 135.609 137.426 135.093 137.261 133.876C136.683 130.04 130.681 126.699 128.144 128.39Z" fill="white"/>
<path d="M126.556 130.35C122.885 138.827 120.575 147.882 120.08 157.122C119.564 166.547 121.193 175.767 124.246 184.677C125.978 189.771 128.082 194.721 130.227 199.671C130.392 200.042 130.908 199.712 130.763 199.362C127.051 190.782 123.421 182.078 121.688 172.879C119.976 163.804 120.327 154.42 122.307 145.407C123.421 140.353 125.03 135.424 127.092 130.68C127.236 130.309 126.721 129.979 126.556 130.35Z" fill="#161616"/>
<path d="M134.249 142.127C131.65 149.985 130.289 158.215 130.145 166.485C130.145 166.877 130.763 166.877 130.763 166.485C130.908 158.256 132.269 150.109 134.847 142.292C134.971 141.921 134.373 141.756 134.249 142.127Z" fill="#161616"/>
<path d="M127.979 162.73C129.814 165.288 130.557 168.34 130.99 171.393C131.444 174.507 131.65 177.663 132.104 180.777C133.011 187.109 134.496 193.42 137.487 199.092C137.672 199.443 138.209 199.134 138.023 198.783C134.909 192.884 133.444 186.305 132.578 179.746C131.815 173.992 132.042 167.33 128.515 162.421C128.288 162.112 127.752 162.421 127.979 162.73Z" fill="#161616"/>
<path d="M130.145 199.381C128.227 199.484 126.309 199.67 124.432 200.021C123.091 200.289 121.668 200.722 120.74 201.794C120.204 202.434 119.523 203.96 120.699 204.393C121.214 204.579 121.668 204.228 122.101 203.981C123.174 203.362 124.287 202.723 125.566 203.073C125.958 203.176 126.123 202.578 125.731 202.475C124.679 202.186 123.731 202.434 122.782 202.908C122.493 203.053 122.225 203.197 121.957 203.362C121.792 203.444 121.647 203.548 121.482 203.651C121.297 203.321 121.091 202.991 120.905 202.661C120.946 202.145 121.977 201.547 122.349 201.341C123.359 200.804 124.535 200.619 125.649 200.454C127.154 200.227 128.66 200.083 130.166 200C130.557 199.979 130.557 199.361 130.145 199.381Z" fill="#161616"/>
<path d="M128.453 201.217C126.824 201.485 125.483 202.599 124.864 204.105C124.204 205.672 123.647 208.003 124.41 209.612C124.988 210.829 126.411 211.262 126.947 209.777C127.277 208.849 127.215 207.838 127.545 206.91C127.958 205.755 128.659 204.765 129.69 204.084C130.02 203.857 129.711 203.321 129.381 203.548C128.412 204.187 127.69 205.054 127.215 206.105C126.968 206.642 126.782 207.199 126.659 207.776C126.555 208.25 126.494 210.643 125.359 209.942C124.72 209.55 124.658 208.292 124.679 207.652C124.72 206.704 124.967 205.61 125.277 204.703C125.792 203.177 127.009 202.084 128.597 201.815C129.01 201.754 128.845 201.155 128.453 201.217Z" fill="#161616"/>
<path d="M130.392 202.742C129.114 203.567 128.66 205.362 128.536 206.805C128.412 208.352 128.845 210.023 130 211.116C130.681 211.755 131.733 212.085 131.919 210.889C132.228 208.889 131.424 206.063 133.61 204.867C133.96 204.681 133.651 204.145 133.3 204.33C132.517 204.764 132.022 205.465 131.712 206.31C131.279 207.548 131.527 208.806 131.341 210.085C131.259 210.662 131.094 211.281 130.454 210.683C130.227 210.477 130.021 210.209 129.856 209.94C129.464 209.322 129.237 208.62 129.175 207.899C129.031 206.455 129.402 204.145 130.722 203.279C131.032 203.052 130.722 202.515 130.392 202.742Z" fill="#161616"/>
<path d="M133.321 204.394C132.929 205.879 132.558 207.425 132.805 208.972C132.909 209.715 133.342 211.53 134.29 211.715C135.363 211.922 135.796 210.024 135.899 209.323C136.126 207.797 135.837 205.961 137.034 204.785C137.322 204.497 136.889 204.064 136.6 204.352C135.157 205.775 135.652 207.838 135.219 209.653C135.074 210.313 134.662 211.303 133.981 210.54C133.61 210.148 133.507 209.385 133.424 208.869C133.218 207.425 133.569 205.982 133.94 204.579C134.022 204.187 133.424 204.022 133.321 204.394Z" fill="#161616"/>
<path d="M137.776 199.444C138.993 199.939 140.251 200.475 141.2 201.424C141.633 201.857 142.169 202.517 142.293 203.136C142.602 204.848 141.323 203.755 140.849 203.548C139.55 202.971 136.971 203.383 136.229 204.703C136.043 205.054 136.58 205.363 136.765 205.013C137.157 204.291 138.23 204.105 138.972 204.002C139.426 203.94 139.941 203.899 140.375 204.023C140.87 204.167 141.179 204.6 141.653 204.745C142.334 204.951 142.85 204.477 142.953 203.817C143.138 202.744 142.21 201.548 141.488 200.847C140.478 199.877 139.178 199.341 137.9 198.825C137.57 198.702 137.425 199.3 137.776 199.444Z" fill="#161616"/>
<path opacity="0.13" d="M133.61 135.466C131.238 135.61 129.815 141.674 129.031 145.036C128.144 148.81 127.34 154.007 127.505 161.577C127.649 168.342 128.516 173.498 128.804 175.292C130.104 183.006 132.146 189.482 134.146 194.556C134.806 196.412 135.446 198.269 136.106 200.104C135.734 201.631 135.363 203.198 135.013 204.827C134.559 206.972 134.146 209.076 133.816 211.097C134.208 211.139 134.744 211.118 135.116 210.747C135.59 210.272 135.528 209.509 135.549 208.849C135.569 208.231 135.631 205.24 136.972 204.126C137.797 203.446 139.117 203.446 140.024 203.776C140.953 204.126 141.365 204.807 141.984 204.601C142.458 204.456 142.788 203.879 142.85 203.425C143.056 201.919 140.169 200.372 139.694 200.125C138.766 199.63 138.333 199.568 137.735 198.949C136.993 198.166 136.745 197.237 136.642 196.825C134.93 190.307 134.084 190.72 132.929 183.233C132.063 177.582 132.62 177.912 131.733 173.416C131.114 170.239 130.599 168.94 130.434 166.197C130.248 163.186 130.599 160.834 130.97 158.751C132.517 150.233 135.487 139.921 136.209 137.466C135.549 136.435 134.641 135.404 133.61 135.466Z" fill="#3F3F3F"/>
<path d="M175.704 50.6756C175.065 50.655 174.57 51.81 174.446 52.1193C174.261 52.5731 173.972 53.46 174.178 54.7181C174.178 54.7181 174.302 55.5843 174.714 60.8231C174.817 61.9987 174.838 63.7106 174.529 65.8556C173.704 68.1243 172.92 69.8981 172.384 71.0531C170.569 74.9306 169.352 76.4774 166.815 81.3862C165.866 83.2218 165.784 83.5106 164.67 85.7793C161.886 91.4099 159.844 94.9368 157.761 98.7112C155.925 102.011 153.347 106.858 150.315 113.087C150.171 113.623 149.449 116.49 151.119 119.006C152.893 121.667 156.606 122.863 160.194 121.708C160.751 120.924 161.535 119.707 162.257 118.119C162.958 116.572 163.288 115.376 163.515 114.613C163.742 113.85 164.649 111.272 166.485 106.074C167.062 104.466 167.764 102.547 169.187 98.7937C171.352 93.0393 172.425 90.1724 173.147 88.3781C174.776 84.2943 176.014 81.4687 178.447 75.9824C179.726 73.0949 181.294 69.6093 183.109 65.6493C184.161 65.0512 185.604 64.1231 187.151 62.7824C189.379 60.8643 190.492 59.235 192.637 56.1412C194.019 54.12 195.071 52.3462 194.782 50.5725C194.741 50.325 194.638 49.6031 194.246 49.5C193.751 49.3556 193.132 50.3456 192.452 51.2118C191.751 52.0987 190.699 53.2537 189.131 54.45C189.667 52.965 190.204 51.81 190.575 51.0468C191.421 49.3143 192.122 48.2006 192.555 46.2825C193.029 44.2406 192.596 43.8693 192.472 43.7662C191.916 43.3537 190.967 44.1375 190.41 43.6837C189.915 43.2506 190.348 42.3018 189.956 42.075C189.564 41.8481 188.698 42.5287 188.079 43.2506C187.007 44.4881 186.759 45.6843 186.367 46.8393C185.996 47.9737 185.316 49.5206 184.037 51.2325C183.727 51.2737 183.315 51.2943 183.129 51.0468C182.923 50.7581 183.212 50.2837 183.48 49.5206C183.542 49.335 183.501 49.4381 183.934 47.5406C184.099 46.8187 184.408 45.4781 184.656 44.4056C185.006 42.8587 185.171 42.2193 184.841 41.5387C184.779 41.3943 184.511 40.8375 184.119 40.8168C183.666 40.7962 183.315 41.5181 183.047 42.075C181.954 44.3231 181.397 45.4575 181.252 45.8493C180.531 47.8087 179.561 50.7993 179.417 51.8306C179.396 51.9543 179.355 52.3875 179.149 52.9443C179.046 53.2125 178.984 53.3156 178.922 53.4806C178.406 54.6356 178.839 55.3987 178.303 55.8112C178.241 55.8525 177.932 56.0793 177.684 55.9968C177.416 55.9143 177.292 55.5637 177.148 54.3881C176.942 52.7793 177.066 52.305 176.694 51.6037C176.447 51.2943 176.137 50.6962 175.704 50.6756Z" fill="white"/>
<path d="M174.715 60.2239C174.859 58.7183 174.632 57.2539 174.55 55.7483C174.508 55.0264 174.508 54.2839 174.611 53.562C174.673 53.1495 174.756 52.737 174.88 52.3451C175.086 51.747 175.106 51.252 175.766 51.2314C176.385 51.2108 176.344 51.582 176.447 52.0976C176.55 52.5514 176.571 53.0258 176.591 53.4795C176.633 54.1189 176.653 54.7789 176.798 55.3976C176.942 56.037 177.334 56.5733 178.056 56.3464C178.427 56.2226 178.283 55.6245 177.891 55.7483C177.169 55.9545 177.231 53.5208 177.19 53.1083C177.128 52.4483 177.066 51.7676 176.818 51.1489C176.468 50.2826 175.663 49.8495 174.983 50.6539C174.096 51.6851 173.91 53.5414 173.91 54.8201C173.91 56.6351 174.261 58.4089 174.096 60.2239C174.075 60.6158 174.694 60.6158 174.715 60.2239Z" fill="#161616"/>
<path d="M178.304 56.0994C179.335 54.0988 179.645 51.83 180.243 49.685C180.882 47.375 181.687 45.1063 182.883 43.0438C183.151 42.59 183.419 41.9507 183.811 41.6C184.574 40.8988 184.574 42.2394 184.512 42.8169C184.389 44.0957 184.059 45.395 183.77 46.6532C183.502 47.8082 183.131 48.9219 182.862 50.0769C182.718 50.7163 182.718 51.2732 183.172 51.7682C183.44 52.0569 183.873 51.6238 183.605 51.335C183.089 50.7782 183.626 49.6644 183.791 49.0663C183.976 48.3857 184.162 47.705 184.306 47.0244C184.595 45.7663 184.884 44.4875 185.069 43.1882C185.172 42.5075 185.317 41.3113 184.719 40.7957C184.203 40.3625 183.687 40.775 183.337 41.1875C181.831 43.0644 180.903 45.5394 180.161 47.8082C179.315 50.4275 179.047 53.3563 177.768 55.8107C177.582 56.1407 178.119 56.45 178.304 56.0994Z" fill="#161616"/>
<path d="M183.316 51.83C183.935 51.8919 184.161 51.4382 184.45 50.9432C184.904 50.1594 185.316 49.3344 185.708 48.53C186.471 46.9625 187.008 45.2507 187.936 43.7863C188.142 43.4563 188.39 43.0438 188.72 42.7963C188.988 42.4869 189.338 42.3838 189.792 42.5282C189.854 42.8169 189.895 43.1057 189.895 43.3944C189.916 44.405 189.586 45.4157 189.235 46.3644C188.534 48.2413 187.75 50.0975 186.987 51.9744C186.843 52.3457 187.441 52.5107 187.585 52.1394C188.018 51.0669 192.473 41.6619 189.565 41.6C188.988 41.5794 188.328 42.3013 187.998 42.6932C187.42 43.3738 187.008 44.1575 186.636 44.9619C186.203 45.9313 185.811 46.9007 185.358 47.8494C185.09 48.4269 184.78 49.025 184.491 49.5819C184.306 49.9532 183.852 51.2319 183.336 51.1907C182.924 51.17 182.924 51.7888 183.316 51.83Z" fill="#161616"/>
<path d="M190.617 44.2404C190.844 43.0442 192.144 43.8692 192.309 44.6323C192.453 45.2717 192.205 45.911 191.999 46.5092C191.69 47.4167 191.339 48.3035 190.968 49.1698C190.246 50.861 189.4 52.4698 188.452 54.0579C188.245 54.4085 188.782 54.7179 188.988 54.3673C189.875 52.9029 190.659 51.3767 191.36 49.8298C191.958 48.4892 192.68 47.0042 192.907 45.5398C193.051 44.6117 192.783 43.4154 191.752 43.0854C190.989 42.8379 190.164 43.3123 190.019 44.096C189.957 44.4673 190.555 44.6323 190.617 44.2404Z" fill="#161616"/>
<path d="M189.42 54.6139C190.204 53.727 190.967 52.8401 191.751 51.9532C192.163 51.4789 192.535 50.9632 192.988 50.5507C193.133 50.427 193.277 50.3239 193.401 50.2001C193.751 50.3239 194.102 50.4476 194.473 50.5714C194.576 50.757 194.329 51.2932 194.267 51.4582C193.628 53.4176 192.7 55.2739 191.606 57.0063C189.4 60.492 186.368 63.4207 182.82 65.5451C182.469 65.7513 182.799 66.2876 183.129 66.0813C187.543 63.4413 191.173 59.5638 193.463 54.9645C194.02 53.8507 194.556 52.6751 194.906 51.4789C195.113 50.7776 195.236 49.8289 194.432 49.4576C193.648 49.0864 192.823 49.8082 192.328 50.3239C191.153 51.5407 190.08 52.902 188.966 54.1807C188.719 54.4695 189.152 54.9026 189.42 54.6139Z" fill="#161616"/>
<path d="M174.179 59.5849C174.323 61.4824 174.467 63.4212 174.158 65.3187C173.849 67.1956 173.065 68.928 172.199 70.6193C170.445 74.043 168.61 77.4255 166.815 80.8287C163.227 87.6349 159.638 94.4205 156.049 101.227C153.987 105.125 151.924 109.044 149.862 112.942C149.676 113.292 150.212 113.602 150.398 113.251C157.802 99.2055 165.351 85.2218 172.632 71.0937C173.498 69.423 174.302 67.7112 174.653 65.8755C175.065 63.7924 174.921 61.6887 174.756 59.5849C174.777 59.193 174.158 59.193 174.179 59.5849Z" fill="#161616"/>
<path d="M182.779 65.4023C176.179 79.3448 170.425 93.6173 165.351 108.178C163.866 112.407 162.381 116.635 160.587 120.739C160.422 121.11 160.958 121.42 161.123 121.048C164.196 114.057 166.444 106.735 169.084 99.5985C171.786 92.256 174.715 84.9754 177.829 77.7979C179.603 73.7348 181.418 69.7129 183.316 65.7117C183.481 65.361 182.944 65.0517 182.779 65.4023Z" fill="#161616"/>
<path opacity="0.1" d="M192.102 43.9935C191.257 43.8697 190.122 47.3347 189.462 49.0672C187.462 54.3885 185.77 55.0072 181.48 62.226C179.892 64.8866 177.706 68.8878 175.499 74.106C168.899 88.0072 162.32 101.929 155.72 115.83C157.328 117.79 158.917 119.77 160.525 121.729C161.33 119.44 162.505 116.078 163.97 112.015C166.63 104.693 170.075 95.2672 174.942 83.7997C176.881 79.2622 179.562 73.1366 183.007 65.9385C183.955 65.3403 185.275 64.4122 186.719 63.1335C188.658 61.4422 191.215 59.1528 192.969 55.4197C193.525 54.2647 194.227 52.491 194.598 50.1603C194.33 50.0366 193.938 49.8922 193.505 49.9747C192.762 50.1191 192.37 50.841 192.061 51.336C190.865 53.1716 189.112 54.3885 188.885 54.2441C188.761 54.141 189.112 53.5428 190.06 51.6041C191.999 47.6235 191.195 48.6753 191.958 47.3347C192.391 46.5716 192.824 45.9116 192.68 45.066C192.68 44.6947 192.453 44.0553 192.102 43.9935Z" fill="#3F3F3F"/>
<path opacity="0.13" d="M190.843 58.0586C189.812 58.7186 188.348 59.688 186.677 60.9667C184.759 62.4105 182.696 63.978 180.964 65.958C178.613 68.6392 177.581 71.2998 176.963 72.8467C171.291 87.3255 164.546 103.042 162.628 107.414C161.576 109.807 159.926 113.416 157.74 117.747C158.73 119.047 159.741 120.346 160.731 121.645C163.577 112.962 166.856 103.867 170.61 94.4411C174.653 84.3142 178.84 74.8473 183.047 66.0405C184.181 65.2773 185.46 64.308 186.76 63.0498C188.595 61.2967 189.915 59.523 190.843 58.0586Z" fill="#3F3F3F"/>
<path d="M136.002 117.768C135.239 118.284 133.527 119.48 131.774 121.419C129.959 123.419 128.907 125.296 128.041 126.884C127.36 128.101 126.865 129.174 126.515 129.957C127.051 130.989 127.917 132.577 129.113 134.474C131.238 137.836 132.888 139.651 135.734 143.302C136.93 144.828 138.663 147.117 140.725 150.005C141.055 151.552 141.344 153.181 141.592 154.893C142.087 158.399 142.272 161.658 142.272 164.587C143.035 165.412 144.355 166.608 146.294 167.454C149.512 168.877 152.44 168.464 153.967 168.217C157.349 167.701 159.659 166.195 161.247 165.144C164.135 163.246 166.094 160.977 167.393 159.1C167.125 155.883 166.775 152.562 166.342 149.118C165.97 146.189 165.558 143.343 165.104 140.579C165.063 138.414 164.857 135.464 164.155 132.04C163.578 129.174 162.877 125.832 160.793 121.872C158.195 116.943 154.957 113.952 153.698 112.859C152.585 111.89 151.574 111.168 150.832 110.652C147.82 112.57 145.222 113.767 143.448 114.489C140.148 115.85 138.601 116.056 136.002 117.768Z" fill="white"/>
<path d="M126.844 130.039C127.484 127.605 129.257 125.336 130.784 123.356C132.392 121.294 134.207 119.417 136.373 117.911C136.703 117.685 136.394 117.148 136.064 117.375C133.836 118.922 131.959 120.84 130.309 122.965C128.721 125.006 126.927 127.316 126.267 129.853C126.164 130.266 126.762 130.41 126.844 130.039Z" fill="#161616"/>
<path d="M126.391 130.245C130.64 137.67 135.672 144.641 141.386 151.014C141.654 151.303 142.087 150.87 141.819 150.581C136.147 144.249 131.156 137.319 126.927 129.935C126.721 129.585 126.185 129.894 126.391 130.245Z" fill="#161616"/>
<path d="M143.839 114.777C146.149 113.148 148.686 111.931 151.388 111.147C151.78 111.044 151.615 110.446 151.223 110.549C148.459 111.353 145.881 112.591 143.53 114.241C143.2 114.468 143.509 115.004 143.839 114.777Z" fill="#161616"/>
<path d="M150.872 111.312C160.731 118.18 164.959 130.225 164.485 141.878C164.464 142.27 165.083 142.27 165.104 141.878C165.599 129.977 161.226 117.767 151.182 110.776C150.872 110.549 150.563 111.085 150.872 111.312Z" fill="#161616"/>
<path d="M140.044 149.798C141.116 152.005 141.24 154.748 141.467 157.141C141.714 159.574 141.797 162.029 141.797 164.483C141.797 164.875 142.416 164.875 142.416 164.483C142.436 161.761 142.313 159.038 142.003 156.336C141.756 154.047 141.591 151.572 140.58 149.468C140.394 149.117 139.879 149.427 140.044 149.798Z" fill="#161616"/>
<path d="M142.189 164.607C145.283 168.402 150.563 169.474 155.162 168.298C157.72 167.638 160.092 166.38 162.216 164.813C164.341 163.245 166.362 161.43 167.558 159.038C167.744 158.687 167.207 158.378 167.022 158.728C165.867 161.018 163.928 162.771 161.886 164.277C159.906 165.741 157.699 166.937 155.307 167.618C150.811 168.876 145.634 167.907 142.602 164.173C142.375 163.864 141.942 164.297 142.189 164.607Z" fill="#161616"/>
<path d="M164.712 140.95C165.722 146.993 166.712 153.036 167.063 159.141C167.083 159.533 167.702 159.533 167.681 159.141C167.31 152.974 166.32 146.869 165.31 140.785C165.248 140.393 164.65 140.558 164.712 140.95Z" fill="#161616"/>
<path opacity="0.13" d="M144.623 113.952C146.912 116.654 150.047 120.861 152.667 126.554C156.503 134.886 157.266 142.084 157.844 148.21C158.297 152.871 158.545 159.368 157.637 167.123C159.391 166.36 161.866 165.04 164.258 162.75C165.578 161.472 166.568 160.193 167.311 159.079C166.63 153.325 165.949 147.55 165.269 141.795C165.392 137.052 164.65 133.215 163.949 130.617C161.783 122.573 157.617 117.396 156.214 115.767C154.296 113.519 152.419 111.869 151.037 110.775C148.892 111.848 146.768 112.9 144.623 113.952Z" fill="#3F3F3F"/>
<path opacity="0.14" d="M159.989 121.171C159.618 121.274 160.484 124.636 161.309 129.606C161.309 129.606 162.567 137.155 162.835 144.456C163.021 149.282 162.773 156.336 160.608 165.102C161.598 164.607 162.814 163.885 164.073 162.874C165.599 161.637 166.692 160.337 167.434 159.306C167.166 150.994 166.465 146.684 165.805 144.25C165.681 143.776 165.351 142.662 165.083 141.094C164.588 138.166 164.836 136.907 164.568 134.474C164.361 132.535 163.969 131.256 163.248 128.884C162.154 125.316 160.401 121.047 159.989 121.171Z" fill="#3F3F3F"/>
<path d="M135.713 83.8391C134.352 84.6022 132.62 85.7572 130.949 87.5103C127.484 91.2022 126.37 95.3272 125.978 97.3691C125.669 97.3278 124.823 97.2659 124.143 97.8022C123.132 98.5859 123.111 100.133 123.503 101.04C123.648 101.37 123.854 101.638 124.287 102.175C124.803 102.814 125.133 103.206 125.669 103.433C125.896 103.536 126.411 103.68 127.154 103.515C127.381 104.196 127.752 105.145 128.309 106.238C129.031 107.64 130.124 109.723 132.31 111.538C132.95 112.075 133.94 112.776 135.28 113.415C135.775 114.055 136.683 115.395 136.786 117.21C136.992 120.407 134.661 123.068 132.455 124.243C128.618 126.285 124.452 124.243 122.926 123.48C122.101 123.068 117.955 120.923 116.223 116.22C114.119 110.548 116.862 104.877 118.491 101.494C120.141 98.0909 120.905 98.3178 122.163 94.9972C123.833 90.6041 122.946 89.0572 124.865 85.6953C125.607 84.3753 127.113 81.7353 130.268 80.4978C132.97 79.4459 135.466 79.9822 136.538 80.2916C137.425 79.7553 138.993 78.9922 140.973 78.9922C145.675 78.9922 148.686 83.4472 149.408 84.5197C151.553 87.6753 150.419 88.6447 152.337 93.0791C154.75 98.6684 157.101 98.3384 159.267 103.577C160.319 106.135 162.072 110.363 160.133 114.405C158.133 118.572 153.575 119.788 152.997 119.933C151.945 120.201 149.12 120.902 146.294 119.397C146.026 119.252 142.478 117.313 142.19 113.993C142.086 112.776 142.437 111.642 142.52 111.394C142.953 110.053 143.695 109.187 143.922 108.898C144.809 107.805 145.881 105.784 146.624 101.762C146.975 101.742 147.552 101.659 148.13 101.329C149.346 100.628 149.924 99.2047 149.862 97.9672C149.841 97.6784 149.759 96.0284 148.563 95.4716C148.068 95.2447 147.552 95.3066 147.263 95.3684C143.427 91.4909 139.57 87.6753 135.713 83.8391Z" fill="#11345C"/>
<path d="M135.712 83.8184C133.423 85.159 131.835 86.644 130.824 87.7371C127.462 91.3877 126.39 95.2034 126.163 96.0902C126.019 96.6471 125.915 97.1009 125.874 97.4309C125.647 97.3484 125.132 97.204 124.616 97.4309C123.832 97.7815 123.667 98.7302 123.585 99.2046C123.379 100.298 123.791 101.164 123.956 101.494C124.183 101.968 124.554 102.731 125.441 103.123C126.163 103.453 126.844 103.33 127.132 103.268C127.421 104.01 127.834 105.041 128.473 106.217C129.442 108.073 130.35 109.785 132.103 111.311C132.784 111.91 133.897 112.735 135.506 113.374C135.836 113.89 136.29 114.694 136.537 115.746C136.744 116.571 136.785 117.272 136.764 117.808C137.3 118.076 138.311 118.489 139.569 118.468C141.982 118.427 143.57 116.921 143.942 116.55C143.55 115.375 143.199 113.931 143.055 112.26C142.993 111.497 142.972 110.775 142.972 110.115C143.612 109.435 144.395 108.465 145.035 107.166C146.169 104.918 146.355 102.835 146.375 101.618C146.664 101.659 147.242 101.721 147.86 101.473C148.727 101.123 149.119 100.36 149.345 99.9265C149.407 99.8234 150.274 98.0496 149.49 96.2965C149.304 95.9046 148.995 95.1827 148.376 95.1209C147.922 95.0796 147.551 95.4302 147.407 95.5746C146.561 94.564 144.973 92.6871 142.745 90.109C140.827 87.8609 139.61 86.4584 137.569 85.0146C136.826 84.4784 136.166 84.0865 135.712 83.8184Z" fill="white"/>
<path d="M132.866 105.702C132.66 106.177 133.629 107.022 134.083 107.373C135.032 108.074 136.043 108.177 136.414 108.198C136.847 108.239 138.27 108.342 139.569 107.414C139.879 107.187 140.745 106.589 141.075 105.476C141.302 104.671 141.24 103.557 140.807 103.372C140.477 103.248 140.168 103.661 139.466 104.156C138.229 105.001 136.95 105.207 135.857 105.372C134.001 105.661 133.073 105.29 132.866 105.702Z" fill="black"/>
<path d="M126.328 100.938C127.071 104.032 128.267 107.063 130.247 109.58C132 111.828 134.599 113.993 137.631 113.705C140.436 113.437 142.725 111.25 144.21 109.023C145.963 106.424 146.809 103.31 146.726 100.175C146.706 99.7829 146.087 99.7829 146.108 100.175C146.19 103.042 145.448 105.847 143.942 108.28C142.519 110.57 140.168 112.983 137.301 113.107C134.269 113.23 131.773 110.755 130.165 108.445C128.556 106.135 127.566 103.475 126.906 100.752C126.823 100.381 126.225 100.546 126.328 100.938Z" fill="#161616"/>
<path d="M135.094 113.415C135.96 114.735 136.394 116.179 136.394 117.767C136.394 118.159 137.012 118.159 137.012 117.767C137.012 116.096 136.538 114.508 135.63 113.105C135.424 112.755 134.888 113.064 135.094 113.415Z" fill="#161616"/>
<path d="M136.682 118.015C139.198 119.459 142.457 118.757 144.168 116.447C144.416 116.138 143.88 115.829 143.632 116.138C142.106 118.18 139.177 118.757 136.991 117.479C136.64 117.293 136.331 117.829 136.682 118.015Z" fill="#161616"/>
<path d="M142.622 110.651C142.643 112.528 142.931 114.384 143.53 116.179C143.653 116.55 144.251 116.385 144.128 116.014C143.571 114.261 143.261 112.487 143.241 110.651C143.241 110.239 142.622 110.239 142.622 110.651Z" fill="#161616"/>
<path d="M126.948 102.896C126.68 103.185 126.02 103.082 125.71 102.917C125.463 102.793 125.236 102.607 125.05 102.422C124.638 102.03 124.308 101.556 124.101 101.04C123.689 100.071 123.503 97.2861 125.339 97.7811C125.731 97.8843 125.896 97.2861 125.504 97.183C123.235 96.5849 122.885 99.5961 123.462 101.102C123.916 102.319 125.999 104.835 127.401 103.329C127.649 103.041 127.216 102.607 126.948 102.896Z" fill="#161616"/>
<path d="M147.675 95.6786C147.922 94.8536 148.995 96.4417 149.119 96.7305C149.366 97.3905 149.449 98.1123 149.346 98.8136C149.181 100.216 148.067 101.557 146.52 101.165C146.128 101.062 145.963 101.66 146.355 101.763C148.851 102.402 150.191 99.8036 149.964 97.6792C149.861 96.7511 149.49 95.5548 148.603 95.0598C148.026 94.7505 147.283 94.833 147.077 95.493C146.953 95.9055 147.551 96.0498 147.675 95.6786Z" fill="#161616"/>
<path d="M129.154 91.3054C129.834 90.0061 131.031 89.1604 132.474 88.9542C132.866 88.8923 132.701 88.2942 132.309 88.356C130.721 88.5829 129.36 89.5729 128.618 90.9961C128.432 91.3467 128.968 91.6561 129.154 91.3054Z" fill="#161616"/>
<path d="M138.682 88.1295C140.415 87.717 142.147 88.5832 142.931 90.1507C143.116 90.5013 143.632 90.192 143.467 89.8414C142.56 88.0057 140.497 87.057 138.517 87.5314C138.125 87.6345 138.29 88.2326 138.682 88.1295Z" fill="#161616"/>
<path d="M134.186 90.6659C134.578 92.8522 134.681 95.1003 134.454 97.3278C134.372 98.0084 134.042 98.9778 134.351 99.6584C134.681 100.401 135.568 101.04 136.125 101.618C136.393 101.907 136.847 101.473 136.558 101.185C136.187 100.793 135.816 100.422 135.444 100.03C134.867 99.4316 134.805 99.2459 134.929 98.3797C135.032 97.5959 135.135 96.7916 135.176 95.9872C135.259 94.1516 135.114 92.3159 134.784 90.5216C134.722 90.1091 134.124 90.2741 134.186 90.6659Z" fill="#161616"/>
<path d="M131.588 95.9661C131.279 95.4711 131.134 94.9349 131.176 94.3574C131.176 94.2336 131.258 93.6974 131.361 93.6768C131.423 93.6768 131.526 94.3986 131.547 94.4811C131.588 94.7492 131.609 95.038 131.609 95.3061C131.609 95.3886 131.588 96.0692 131.588 95.6567C131.567 95.0586 131.609 94.4605 131.629 93.8624C131.423 93.883 131.217 93.9242 131.031 93.9449C131.134 94.5842 131.196 95.2236 131.196 95.8836C131.402 95.8836 131.609 95.8836 131.815 95.8836C131.815 95.8011 131.815 95.7186 131.815 95.6361C131.815 95.2442 131.196 95.2442 131.196 95.6361C131.196 95.7186 131.196 95.8011 131.196 95.8836C131.196 96.2755 131.815 96.2755 131.815 95.8836C131.815 95.1824 131.753 94.4811 131.629 93.7799C131.567 93.4293 131.031 93.5324 131.031 93.8624C131.011 94.5224 130.928 95.2442 131.011 95.9042C131.052 96.2136 131.196 96.5023 131.547 96.5642C132.578 96.7705 132.269 94.7492 132.186 94.2542C132.124 93.8624 132.062 93.2643 131.691 93.0374C131.382 92.8518 131.052 93.0374 130.866 93.3261C130.351 94.1924 130.639 95.4711 131.114 96.2548C131.258 96.6055 131.794 96.2961 131.588 95.9661Z" fill="#161616"/>
<path d="M141.116 94.8724C140.807 94.3774 140.663 93.8411 140.704 93.2636C140.704 93.1399 140.786 92.6036 140.889 92.583C140.951 92.583 141.054 93.3049 141.075 93.3874C141.116 93.6555 141.137 93.9443 141.137 94.2124C141.137 94.2949 141.116 94.9755 141.116 94.563C141.096 93.9649 141.137 93.3668 141.158 92.7686C140.951 92.7893 140.745 92.8305 140.559 92.8511C140.663 93.4905 140.724 94.1299 140.724 94.7899C140.931 94.7899 141.137 94.7899 141.343 94.7899C141.343 94.7074 141.343 94.6249 141.343 94.5424C141.343 94.1505 140.724 94.1505 140.724 94.5424C140.724 94.6249 140.724 94.7074 140.724 94.7899C140.724 95.1818 141.343 95.1818 141.343 94.7899C141.343 94.0886 141.281 93.3874 141.158 92.6861C141.096 92.3355 140.559 92.4386 140.559 92.7686C140.539 93.4286 140.456 94.1505 140.539 94.8105C140.58 95.1199 140.724 95.4086 141.075 95.4705C142.106 95.6768 141.797 93.6555 141.714 93.1605C141.653 92.7686 141.591 92.1705 141.219 91.9436C140.91 91.758 140.58 91.9436 140.394 92.2324C139.879 93.0986 140.168 94.3774 140.642 95.1611C140.786 95.5324 141.323 95.223 141.116 94.8724Z" fill="#161616"/>
<path d="M128.535 97.8648C128.927 97.8648 128.927 97.2461 128.535 97.2461C128.143 97.2461 128.143 97.8648 128.535 97.8648Z" fill="#161616"/>
<path d="M130.969 98.3179C130.989 98.3179 131.01 98.3179 131.051 98.3179C131.216 98.3179 131.36 98.1736 131.36 98.0086C131.36 97.8436 131.216 97.6992 131.051 97.6992C131.03 97.6992 131.01 97.6992 130.969 97.6992C130.804 97.6992 130.659 97.8436 130.659 98.0086C130.659 98.1736 130.783 98.3179 130.969 98.3179Z" fill="#161616"/>
<path d="M129.525 100.216C129.917 100.216 129.917 99.5977 129.525 99.5977C129.133 99.5977 129.113 100.216 129.525 100.216Z" fill="#161616"/>
<path d="M141.24 97.5543C141.261 97.5543 141.281 97.5543 141.323 97.5543C141.488 97.5543 141.632 97.4099 141.632 97.2449C141.632 97.0799 141.488 96.9355 141.323 96.9355C141.302 96.9355 141.281 96.9355 141.24 96.9355C141.075 96.9355 140.931 97.0799 140.931 97.2449C140.931 97.4099 141.054 97.5543 141.24 97.5543Z" fill="#161616"/>
<path d="M143.509 96.0289C143.901 96.0289 143.901 95.4102 143.509 95.4102C143.117 95.4102 143.117 96.0289 143.509 96.0289Z" fill="#161616"/>
<path d="M143.2 97.6989C143.221 97.6989 143.241 97.6989 143.283 97.6989C143.448 97.6989 143.592 97.5545 143.592 97.3895C143.592 97.2245 143.448 97.0801 143.283 97.0801C143.262 97.0801 143.241 97.0801 143.2 97.0801C143.035 97.0801 142.891 97.2245 142.891 97.3895C142.911 97.5545 143.035 97.6989 143.2 97.6989Z" fill="#161616"/>
<path d="M133.382 106.176C133.052 105.702 132.516 105.021 132.743 104.403C133.011 103.701 133.856 103.804 134.413 103.887C135.094 103.99 135.651 104.114 136.311 103.908C136.847 103.743 137.321 103.392 137.816 103.124C138.992 102.464 140.374 102.402 140.745 103.949C141.797 108.177 134.331 109.373 133.176 105.661C133.052 105.289 132.454 105.434 132.578 105.826C134.001 110.384 142.828 108.693 141.281 103.639C141.013 102.794 140.374 102.072 139.466 101.969C137.981 101.824 137.012 103.309 135.589 103.413C134.537 103.495 133.258 102.691 132.413 103.681C131.649 104.568 132.268 105.702 132.825 106.486C133.073 106.816 133.609 106.506 133.382 106.176Z" fill="#161616"/>
<path d="M132.185 105.001C132.639 106.259 134.908 105.867 135.898 105.723C137.795 105.434 139.528 104.609 140.992 103.392C141.302 103.145 140.868 102.691 140.559 102.959C139.487 103.867 138.249 104.526 136.888 104.898C136.29 105.063 133.134 105.764 132.804 104.856C132.639 104.465 132.041 104.63 132.185 105.001Z" fill="#161616"/>
<path d="M135.857 114.054C138.27 114.673 141.488 113.146 142.849 111.146C143.076 110.816 142.539 110.506 142.313 110.836C141.116 112.59 138.126 113.992 136.022 113.456C135.63 113.353 135.465 113.951 135.857 114.054Z" fill="#161616"/>
<path d="M136.084 114.24C138.229 115.581 141.756 113.683 142.787 111.641C142.973 111.291 142.436 110.981 142.251 111.332C141.385 113.064 138.229 114.859 136.393 113.725C136.043 113.498 135.733 114.034 136.084 114.24Z" fill="#161616"/>
<path opacity="0.2" d="M144.644 92.3789C144.788 93.1214 144.974 94.297 145.097 95.7202C145.386 99.5152 145.881 105.868 142.045 110.096C141.22 111.003 139.467 112.612 136.229 113.52C137.26 113.478 138.518 113.355 139.879 113.004C140.56 112.839 141.179 112.633 141.735 112.406C141.818 114.241 141.88 116.077 141.962 117.913C142.664 117.459 143.344 117.026 144.045 116.572C143.097 114.468 143.097 112.839 143.22 111.808C143.406 110.364 143.942 109.188 144.479 108.013C144.953 106.981 145.448 106.156 145.84 105.579C145.881 106.012 145.984 106.466 146.273 106.899C147.531 108.776 151.47 108.961 153.945 107.353C156.235 105.868 157.349 102.856 156.771 99.7627C157.163 100.093 157.575 100.485 157.967 100.959C158.277 101.33 159.081 102.403 160.195 106.177C160.545 107.353 160.71 107.951 160.814 108.549C160.937 109.374 161.164 110.941 160.731 112.715C159.989 115.768 157.782 117.521 157.122 118.016C156.647 118.366 155.204 119.418 153.038 119.913C152.007 120.14 148.913 120.883 146.005 119.191C144.912 118.552 144.314 118.078 143.984 117.5C143.633 116.861 143.592 116.263 143.55 115.809C143.365 112.983 143.282 111.56 143.468 110.591C144.025 107.786 145.283 107.497 145.984 104.3C146.232 103.145 146.294 102.176 146.314 101.557C146.582 101.598 146.995 101.64 147.49 101.516C148.521 101.248 149.037 100.402 149.222 100.093C149.965 98.917 150.295 96.8133 149.14 95.8439C148.975 95.6995 148.397 95.2664 147.284 95.3489C146.438 94.3589 145.551 93.3689 144.644 92.3789Z" fill="#3F3F3F"/>
<path opacity="0.13" d="M134.867 99.0605C135.919 99.3699 136.992 99.6999 138.043 100.009C137.775 100.257 137.507 100.484 137.218 100.731C136.95 100.958 136.703 101.144 136.435 101.35C136.105 101.102 135.63 100.669 135.259 100.009C135.053 99.6587 134.929 99.3287 134.867 99.0605Z" fill="#3F3F3F"/>
<path opacity="0.16" d="M118.326 101.639C116.078 109.579 117.748 115.994 121.11 117.396C123.75 118.489 128.515 116.943 129.401 114.241C129.525 113.89 129.649 113.271 129.175 111.374C128.762 109.703 127.916 107.187 126.019 104.32C125.689 104.114 125.256 103.784 124.843 103.289C124.121 102.402 123.915 101.453 123.853 100.999C124.451 101.618 125.318 102.402 125.875 102.154C126.411 101.907 126.741 101.164 126.555 100.422C126.741 101.371 127.03 102.67 127.566 104.176C128.267 106.176 128.968 108.115 130.598 109.951C131.34 110.796 132.805 112.178 135.28 113.168C135.692 113.684 136.455 114.798 136.703 116.427C136.744 116.674 136.888 117.809 136.517 119.232C136.435 119.562 135.94 121.356 134.31 122.903C132.413 124.718 130.144 125.048 129.401 125.151C123.812 125.894 119.481 121.006 118.718 120.16C117.955 119.294 116.696 117.85 115.975 115.623C114.82 112.075 115.706 108.878 116.346 106.548C116.944 104.361 117.748 102.711 118.326 101.639Z" fill="#3F3F3F"/>
</svg>
