<svg width="19" height="11" viewBox="0 0 19 11" fill="none" xmlns="http://www.w3.org/2000/svg">
<path d="M2.91168 0.48785L9.50886 6.96977L16.106 0.48785C16.2635 0.333182 16.4503 0.210494 16.656 0.126789C16.8617 0.0430837 17.0821 1.62969e-09 17.3048 0C17.5274 -1.62968e-09 17.7478 0.0430837 17.9535 0.126789C18.1592 0.210494 18.3461 0.333182 18.5035 0.48785C18.6609 0.642517 18.7858 0.826134 18.871 1.02822C18.9562 1.2303 19 1.44689 19 1.66562C19 1.88435 18.9562 2.10094 18.871 2.30303C18.7858 2.50511 18.6609 2.68873 18.5035 2.84339L10.6991 10.5114C10.5418 10.6663 10.3549 10.7892 10.1492 10.873C9.94355 10.9568 9.72305 11 9.50036 11C9.27767 11 9.05717 10.9568 8.85148 10.873C8.64579 10.7892 8.45895 10.6663 8.30165 10.5114L0.497244 2.84339C0.33962 2.68884 0.214567 2.50526 0.129243 2.30316C0.0439192 2.10106 0 1.88442 0 1.66562C0 1.44683 0.0439192 1.23018 0.129243 1.02808C0.214567 0.825983 0.33962 0.642403 0.497244 0.48785C1.16036 -0.146978 2.24856 -0.163684 2.91168 0.48785Z" fill="black"/>
</svg>
