<svg width="857" height="657" viewBox="0 0 857 657" fill="none" xmlns="http://www.w3.org/2000/svg">
<path d="M789.5 55.0008C915.5 155.501 845.5 400.001 731.5 522.5C428.501 454.994 1.5 724.624 1.5 586C349 361 -311.499 527.501 320.5 249.501C588.5 -91.4995 715 -1.49888 789.5 55.0008Z" fill="#F2F9FF"/>
<g clip-path="url(#clip0)">
<path d="M-192.472 330.714C-192.472 443.585 -322.032 641 -443.193 641C-564.353 641 -873 492.813 -873 379.942C-592.431 312.813 -701.376 208.39 -547.66 130.816C-283.507 -2.49228 34.3708 206.898 -192.472 330.714Z" fill="#C4C4C4"/>
<path d="M77.0736 573.984C70.8915 568.925 64.4386 564.092 58.7078 558.537C56.0454 555.962 53.5635 553.162 51.6683 549.955C50.6755 548.329 49.8632 546.568 49.2766 544.761C48.7802 543.271 48.2839 540.967 50.4499 540.741C51.2621 540.651 52.1195 540.832 52.8866 541.057C53.744 541.283 54.105 539.974 53.2476 539.748C50.6755 539.115 46.9753 539.296 47.3814 542.909C47.8778 546.974 50.5401 551.13 52.9769 554.246C59.2944 562.376 68.2291 568.474 76.126 574.932C76.8029 575.474 77.7505 574.526 77.0736 573.984Z" fill="#837B7B"/>
<path d="M53.4732 539.973C50.856 536.857 48.8254 533.244 47.6521 529.314C47.1106 527.553 46.885 525.746 46.3435 524.03C45.9825 522.946 45.3056 521.952 46.2984 521.003C46.7496 520.597 47.4265 520.326 47.9229 519.965C49.4571 518.926 50.3145 517.706 48.4192 516.396C47.3362 515.674 45.9825 515.538 44.8092 514.951C43.2299 514.093 42.0115 512.693 41.109 511.202C39.2137 508.131 38.1759 504.518 37.0477 501.13C35.694 497.11 34.3854 493 33.2121 488.935C30.8656 480.715 28.9252 472.404 27.3459 464.048C27.2105 464.319 27.03 464.59 26.8946 464.861C35.3781 462.061 43.8165 469.242 49.8632 474.346C56.0905 479.585 61.686 485.593 66.6046 492.097C76.7577 505.647 83.8424 521.274 88.2646 537.58C90.9721 547.561 92.6869 557.814 93.6345 568.112C93.7247 568.97 95.0785 568.97 94.9882 568.112C91.6941 532.566 78.6079 496.568 50.5852 473.127C44.1775 467.797 35.5135 460.615 26.5787 463.551C26.2177 463.687 26.0372 464.003 26.1275 464.364C27.7971 473.307 29.918 482.16 32.4901 490.922C33.7085 495.033 34.972 499.098 36.3709 503.117C37.499 506.369 38.5369 509.847 40.5224 512.693C41.2895 513.777 42.1469 514.77 43.2299 515.538C44.5385 516.487 46.0727 516.577 47.3814 517.39C49.0961 518.429 46.6142 519.242 45.7117 519.874C45.0349 520.371 44.4031 520.958 44.2677 521.862C44.0872 523.217 45.2605 524.797 45.5764 526.062C46.0276 528.004 46.4337 529.901 47.1557 531.798C48.4644 535.141 50.3145 538.212 52.6159 540.967C53.0671 541.599 54.0147 540.651 53.4732 539.973Z" fill="#837B7B"/>
<path d="M34.1597 471.32C53.0219 492.638 67.6876 517.525 77.2541 544.354C79.9164 551.806 82.1276 559.394 83.9777 567.073C84.2033 567.931 85.4668 567.57 85.2863 566.711C78.6078 538.889 66.6046 512.376 49.9986 489.025C45.3958 482.521 40.4321 476.288 35.1524 470.326C34.5207 469.739 33.5731 470.687 34.1597 471.32Z" fill="#837B7B"/>
<path d="M37.2284 501.039C39.3944 501.581 41.5152 502.304 43.591 503.162C44.4032 503.478 44.7642 502.168 43.952 501.852C41.8762 500.994 39.7554 500.271 37.5894 499.729C36.7771 499.503 36.4161 500.813 37.2284 501.039Z" fill="#837B7B"/>
<path d="M53.1127 531.031C56.0458 530.94 58.4825 532.476 60.8742 533.921C63.0402 535.231 65.161 536.541 67.2368 537.986C71.5237 540.968 75.4044 544.49 77.9765 549.098C78.3827 549.865 79.5559 549.188 79.1498 548.42C76.4423 543.632 72.381 539.929 67.9137 536.857C65.5672 535.231 63.0853 533.696 60.6034 532.25C58.2569 530.85 55.8653 529.676 53.0675 529.721C52.2553 529.676 52.2553 531.031 53.1127 531.031Z" fill="#837B7B"/>
<path d="M71.0722 522.9C69.8538 515.583 69.899 508.176 71.2076 500.904C71.343 500.046 70.0343 499.684 69.899 500.542C68.5452 508.085 68.5001 515.719 69.7636 523.261C69.899 524.12 71.2076 523.758 71.0722 522.9Z" fill="#837B7B"/>
<path d="M68.7702 491.961C69.7178 483.018 71.613 474.075 74.7718 465.674C77.4342 458.583 81.4052 451.627 88.219 447.833C87.858 447.653 87.5422 447.427 87.1812 447.246C87.9032 459.802 95.2585 470.959 95.5744 483.56C95.7549 483.334 95.8903 483.108 96.0708 482.928C94.356 483.379 92.6413 483.831 90.9265 484.283C90.4302 484.418 90.2497 485.051 90.6107 485.412C92.6864 487.399 93.0925 490.2 93.1828 492.955C93.2279 494.4 93.995 501.401 92.3254 501.853C91.9193 501.988 91.6937 502.485 91.9193 502.846C96.9282 510.886 94.6268 520.416 93.2279 529.088C91.7839 538.031 91.6034 547.064 92.6413 556.007C92.7315 556.866 94.0853 556.866 93.995 556.007C92.8218 545.935 93.4084 536.044 95.1232 526.107C96.522 518.067 97.6502 509.441 93.1377 502.124C93.0023 502.44 92.8669 502.801 92.7315 503.117C93.9499 502.801 94.356 501.853 94.5365 500.678C94.8524 498.51 94.6268 496.116 94.5817 493.948C94.5365 490.516 94.1755 486.948 91.5583 484.463C91.468 484.825 91.3778 485.231 91.2424 485.593C92.9572 485.141 94.6719 484.689 96.3867 484.238C96.6574 484.147 96.883 483.876 96.883 483.605C96.5672 470.959 89.2569 459.848 88.4898 447.291C88.4447 446.794 87.9483 446.433 87.4519 446.704C80.7283 450.453 76.667 457.092 73.8693 464.093C70.3044 472.991 68.3189 482.521 67.3262 492.051C67.3262 492.819 68.6799 492.819 68.7702 491.961Z" fill="#837B7B"/>
<path d="M85.1513 454.021C80.3229 472.313 77.841 491.193 77.7959 510.118C77.7959 510.976 79.1496 510.976 79.1496 510.118C79.1948 491.283 81.6315 472.584 86.4148 454.382C86.6855 453.524 85.3769 453.163 85.1513 454.021Z" fill="#837B7B"/>
<path d="M614.963 426.966C617.851 436.271 620.017 445.756 621.371 455.421C622.048 460.299 622.544 465.268 622.77 470.191C622.86 471.455 622.905 472.765 622.95 474.03C622.996 474.798 622.77 476.062 623.041 476.785C623.311 477.463 624.259 477.914 624.801 478.366C625.748 479.134 626.696 479.902 627.598 480.669C627.644 480.308 627.689 479.947 627.734 479.585C626.47 480.353 625.252 480.715 623.763 480.76C623.447 480.76 623.221 480.986 623.131 481.257C621.822 485.322 622.77 489.612 625.703 492.774C625.884 492.368 626.019 492.006 626.199 491.6C621.506 491.419 621.416 496.839 621.867 500.181C622.499 504.834 623.402 509.486 624.71 514.002C627.328 522.855 631.705 531.256 638.88 537.308C639.557 537.85 640.504 536.902 639.827 536.36C633.781 531.256 629.719 524.391 627.102 516.938C625.884 513.415 624.936 509.802 624.214 506.189C623.627 503.162 620.694 492.774 626.199 492.955C626.831 493 627.057 492.232 626.696 491.78C624.124 488.98 623.312 485.186 624.485 481.618C624.259 481.799 624.033 481.934 623.853 482.115C625.568 482.115 627.012 481.708 628.501 480.76C628.817 480.534 628.997 479.992 628.636 479.676C626.967 478.321 624.665 477.146 624.394 474.888C624.124 472.494 624.214 470.01 624.034 467.616C623.718 463.145 623.266 458.673 622.589 454.202C621.236 444.852 619.115 435.638 616.317 426.605C616.001 425.747 614.693 426.108 614.963 426.966Z" fill="#837B7B"/>
<path d="M617.174 428.999C615.324 426.56 618.799 424.753 620.83 425.25C622.86 425.792 624.53 427.418 625.929 428.863C628.501 431.483 630.531 434.554 632.291 437.761C635.946 444.355 639.015 451.401 641.722 458.402C647.273 472.81 651.108 487.896 653.139 503.162C654.267 511.834 654.854 520.552 654.854 529.269C654.854 530.127 656.208 530.127 656.208 529.269C656.208 511.112 653.726 493 648.852 475.566C646.461 467.074 643.527 458.764 640.053 450.634C636.849 443.136 633.419 435.096 627.914 428.954C625.703 426.469 621.958 422.63 618.257 423.94C616.001 424.708 614.512 427.599 616.046 429.676C616.543 430.354 617.716 429.721 617.174 428.999Z" fill="#837B7B"/>
<path d="M649.665 478.637C651.966 470.914 654.628 463.371 657.652 455.918C659.231 452.079 660.901 448.24 662.706 444.491C663.563 442.73 664.421 440.923 665.323 439.162C665.91 438.032 667.67 433.064 669.52 433.516C670.061 433.651 670.422 433.2 670.332 432.703C669.881 429.902 673.039 427.509 674.709 425.657C676.198 424.031 677.642 422.405 679.131 420.779C682.2 417.436 685.223 414.094 688.292 410.707C687.931 410.616 687.525 410.526 687.164 410.39C691.811 421.908 690.593 434.509 687.886 446.343C686.487 452.395 684.727 458.403 683.238 464.455C682.2 468.655 681.072 475.024 675.927 475.927C675.566 475.972 675.386 476.424 675.476 476.74C676.785 482.115 673.175 487.083 670.783 491.6C668.527 495.846 666.451 500.227 664.556 504.698C660.856 513.416 657.923 522.404 655.711 531.573C655.486 532.431 656.794 532.792 657.02 531.934C659.457 521.771 662.796 511.88 667.083 502.35C669.114 497.833 671.37 493.407 673.761 489.071C675.927 485.141 677.913 480.986 676.83 476.424C676.695 476.695 676.514 476.966 676.379 477.237C680.756 476.469 682.651 472.043 683.779 468.159C685.629 461.655 687.299 454.97 688.878 448.376C691.902 435.819 693.526 422.314 688.562 410.029C688.382 409.577 687.795 409.306 687.434 409.713C683.599 413.913 679.763 418.159 675.927 422.36C674.122 424.347 672.182 426.244 670.512 428.367C669.429 429.812 668.843 431.167 669.114 432.974C669.384 432.703 669.655 432.432 669.926 432.161C666.677 431.348 665.097 436.677 664.014 438.8C661.848 443.091 659.818 447.427 657.968 451.808C654.267 460.39 651.109 469.243 648.446 478.186C648.085 479.089 649.394 479.45 649.665 478.637Z" fill="#837B7B"/>
<path d="M684.952 422.404C670.873 448.691 656.523 475.791 653.139 505.827C653.049 506.685 654.403 506.685 654.493 505.827C657.877 476.017 672.182 449.098 686.125 423.082C686.577 422.314 685.403 421.636 684.952 422.404Z" fill="#837B7B"/>
<path d="M626.245 440.471C637.21 469.513 643.754 500.136 645.694 531.12C645.739 531.979 647.093 531.979 647.048 531.12C645.107 500.001 638.564 469.287 627.554 440.11C627.238 439.342 625.929 439.658 626.245 440.471Z" fill="#837B7B"/>
<path d="M56.0456 425.927C83.5718 421.004 112.001 421.275 139.437 426.74C153.019 429.45 166.331 433.38 179.147 438.529C192.549 443.904 205.409 450.363 218.541 456.325C268.088 478.818 321.11 493.542 375.124 499.956C405.764 503.614 436.72 504.563 467.495 502.846C468.353 502.801 468.353 501.446 467.495 501.491C412.262 504.608 356.623 498.962 303.105 484.915C276.256 477.869 249.948 468.7 224.542 457.544C211.366 451.763 198.505 445.259 185.284 439.613C172.649 434.238 159.607 429.902 146.25 426.831C116.603 420.056 85.6476 419.288 55.6846 424.663C54.8272 424.753 55.1882 426.063 56.0456 425.927Z" fill="#837B7B"/>
<path d="M301.526 483.922C327.202 485.232 351.976 475.973 376.117 468.565C401.387 460.842 426.748 453.344 452.153 446.027C477.423 438.755 502.693 431.122 528.369 425.296C553.955 419.514 580.037 416.759 606.255 415.991C635.451 415.088 664.647 416.398 693.797 417.753C694.655 417.798 694.655 416.443 693.797 416.398C642.31 414.049 590.145 411.746 539.244 421.637C513.433 426.651 488.163 434.329 462.893 441.51C437.487 448.782 412.127 456.235 386.812 463.868C372.778 468.114 358.789 472.721 344.665 476.605C330.586 480.489 316.146 483.29 301.481 482.567C300.668 482.522 300.668 483.877 301.526 483.922Z" fill="#837B7B"/>
<path d="M191.962 437.581C209.786 442.73 228.288 439.161 246.067 435.729C265.11 432.07 284.333 429.586 303.737 428.818C342.183 427.373 380.404 432.883 418.715 434.419C439.924 435.277 461.223 434.78 482.161 431.302C483.018 431.167 482.657 429.857 481.8 429.993C444.12 436.271 405.854 432.522 368.04 429.676C349.132 428.231 330.18 427.012 311.182 427.328C292.365 427.644 273.548 429.451 254.956 432.748C234.379 436.361 212.99 442.323 192.278 436.316C191.466 436.045 191.105 437.355 191.962 437.581Z" fill="#837B7B"/>
<path d="M271.834 524.617C277.61 522.223 283.837 521.004 290.109 521.184C295.93 521.365 301.165 523.262 306.805 524.436C311.002 525.34 315.199 525.34 318.583 522.359C319.892 521.229 321.02 520.055 322.915 520.642C324.314 521.049 325.487 521.997 326.796 522.584C328.33 523.307 329.909 523.578 331.534 523.262C335.415 522.494 338.348 519.287 341.732 517.435C347.463 514.364 352.968 518.474 358.564 519.965C370.206 523.081 382.66 522.133 394.573 521.997C409.239 521.862 423.95 521.952 438.525 520.145C439.383 520.055 439.383 518.7 438.525 518.79C425.439 520.371 412.217 520.462 399.041 520.597C386.496 520.733 373.229 521.907 360.865 519.107C357.977 518.474 355.27 517.526 352.517 516.397C350.125 515.403 347.643 514.454 345.026 514.816C340.92 515.358 337.851 518.61 334.377 520.597C332.572 521.636 330.586 522.359 328.51 521.771C326.254 521.094 324.404 519.107 321.922 519.016C319.576 518.971 318.448 520.868 316.733 522.088C314.341 523.759 311.318 523.804 308.52 523.352C302.564 522.404 297.013 520.1 290.921 519.829C284.288 519.513 277.655 520.733 271.472 523.307C270.66 523.623 271.021 524.933 271.834 524.617Z" fill="#837B7B"/>
<path d="M300.623 484.328C301.435 484.464 302.202 484.644 303.015 484.78C303.872 484.96 304.188 483.786 303.376 483.47C302.879 483.289 302.383 483.109 301.841 482.928C301.119 482.657 300.623 483.831 301.3 484.147C305.451 486.315 309.783 488.032 314.296 489.251C315.153 489.477 315.514 488.167 314.657 487.941C310.235 486.767 306.038 485.096 301.977 482.973C301.796 483.38 301.616 483.786 301.435 484.193C301.932 484.373 302.428 484.554 302.97 484.735C303.105 484.283 303.195 483.876 303.331 483.425C302.518 483.289 301.751 483.109 300.939 482.973C300.127 482.838 299.766 484.147 300.623 484.328Z" fill="#837B7B"/>
<path d="M239.975 546.929C238.983 545.755 238.08 544.535 237.313 543.18C236.952 542.503 236.501 541.78 236.275 541.012C235.959 540.515 235.914 539.928 236.095 539.341C235.959 538.709 236.14 538.212 236.591 537.85C237.268 535.999 236.456 534.056 236.004 532.159C235.327 529.178 234.651 526.197 233.974 523.216C233.613 521.636 233.252 520.1 232.936 518.519C232.755 517.796 232.62 517.119 232.439 516.396C232.169 515.132 231.898 514.544 232.846 513.506C233.297 512.557 233.974 512.376 234.876 513.099C235.282 513.506 235.688 513.912 236.095 514.319C236.546 514.906 236.862 515.583 237.223 516.216C237.854 517.39 238.486 518.564 239.073 519.739C240.472 522.539 241.69 525.43 242.728 528.365C244.713 533.876 246.067 539.567 246.879 545.393C247.105 545.122 247.331 544.806 247.511 544.535C247.601 544.625 247.647 544.761 247.737 544.851C247.962 543.993 246.654 543.632 246.428 544.49C246.248 545.303 246.654 545.89 247.511 545.89C248.008 545.89 248.233 545.484 248.143 545.032C247.105 537.579 245.165 530.308 242.186 523.397C240.788 520.145 239.298 516.532 237.223 513.641C236.095 512.06 234.064 510.615 232.124 511.744C229.912 513.009 230.95 516.125 231.402 518.067C232.304 522.042 233.207 526.017 234.064 529.991C234.47 531.888 235.327 534.011 235.418 535.953C235.463 537.534 234.154 538.257 234.38 539.838C234.831 542.774 237.042 545.755 238.892 547.923C239.569 548.51 240.517 547.561 239.975 546.929Z" fill="#837B7B"/>
<path d="M244.127 527.507C243.45 523.442 243.54 519.287 244.488 515.267C244.713 514.228 245.029 513.234 245.39 512.241C246.022 510.524 246.924 510.705 247.827 511.97C249 513.641 249.903 515.493 250.579 517.39C253.332 525.249 252.114 533.695 250.94 541.689C250.805 542.548 252.114 542.909 252.249 542.051C253.738 531.979 255.272 520.551 249.181 511.563C248.504 510.57 247.601 508.898 246.202 509.124C244.713 509.395 244.217 511.428 243.811 512.602C242.186 517.525 241.916 522.765 242.773 527.823C242.999 528.727 244.307 528.365 244.127 527.507Z" fill="#837B7B"/>
<path d="M246.563 517.119C247.917 524.165 248.413 531.256 248.187 538.392C248.142 539.25 249.496 539.25 249.541 538.392C249.812 531.12 249.225 523.894 247.871 516.757C247.691 515.899 246.427 516.26 246.563 517.119Z" fill="#837B7B"/>
<path d="M80.5934 420.823C79.2848 417.933 76.3517 415.9 74.5015 413.371C72.4709 410.57 70.7562 407.544 69.0865 404.563C68.9512 404.879 68.8158 405.241 68.6804 405.557C77.7505 403.931 82.985 412.874 84.7449 420.417C84.9254 421.275 86.234 420.914 86.0535 420.056C84.1132 411.7 78.1567 402.531 68.3194 404.247C67.8682 404.338 67.7328 404.879 67.9133 405.241C69.5829 408.267 71.2525 411.293 73.3283 414.048C75.1784 416.578 78.1567 418.7 79.4202 421.501C79.7812 422.314 80.9544 421.636 80.5934 420.823Z" fill="#837B7B"/>
<path d="M84.5192 413.552C85.1961 406.461 91.9648 402.035 94.5821 395.756C94.2662 395.892 93.9052 396.027 93.5893 396.163C96.6127 398.105 94.3564 405.151 93.4991 407.861C92.2356 411.836 90.1598 415.449 87.4974 418.611C86.9559 419.288 87.9036 420.237 88.4451 419.559C91.7843 415.63 94.1759 411.068 95.3943 406.054C96.1614 402.893 97.6054 397.157 94.2662 394.989C93.8601 394.718 93.4088 395.034 93.2734 395.395C90.5659 401.899 83.8874 406.145 83.1654 413.552C83.0752 414.41 84.4289 414.41 84.5192 413.552Z" fill="#837B7B"/>
<path d="M485.229 434.057C484.823 433.018 484.417 431.979 484.011 430.94C483.785 430.444 483.605 429.902 483.379 429.405C483.108 429.043 483.108 428.637 483.334 428.23C483.74 428.592 484.552 428.366 484.507 427.734C484.281 425.475 484.056 423.172 483.83 420.913C483.785 420.371 483.244 418.249 483.559 417.842C484.958 415.9 485.906 419.107 486.041 419.604C487.26 423.759 487.215 428.547 487.169 432.837C487.169 433.696 488.523 433.696 488.523 432.837C488.568 429.314 488.388 425.837 487.891 422.359C487.576 420.146 487.215 416.939 485.049 415.629C483.65 414.771 482.476 415.674 482.206 417.165C481.935 418.61 482.386 420.326 482.522 421.726C482.702 423.714 482.928 425.701 483.108 427.688C483.514 427.508 483.875 427.372 484.281 427.192C483.514 426.469 482.341 426.604 481.89 427.598C481.574 428.276 481.845 428.998 482.07 429.676C482.612 431.257 483.334 432.792 483.92 434.373C484.236 435.231 485.545 434.87 485.229 434.057Z" fill="#837B7B"/>
<path d="M488.252 426.696C488.072 420.372 489.38 414.185 492.133 408.448C491.772 408.494 491.411 408.539 491.05 408.584C493.983 411.023 492.043 417.617 491.546 420.779C490.87 425.025 490.012 429.27 488.929 433.426C488.703 434.284 490.012 434.645 490.238 433.787C491.546 428.728 492.539 423.579 493.261 418.385C493.712 415.043 495.021 410.12 491.998 407.59C491.682 407.319 491.14 407.319 490.915 407.726C488.072 413.643 486.673 420.056 486.853 426.651C486.944 427.554 488.297 427.554 488.252 426.696Z" fill="#837B7B"/>
<path d="M251.437 564.951C254.28 562.06 258.702 565.944 261.996 565.764C263.575 565.673 265.019 565.086 266.463 564.589C268.404 563.957 270.254 563.731 272.284 563.912C280.317 564.589 288.123 565.176 296.201 564.634C297.058 564.589 297.058 563.234 296.201 563.279C291.824 563.55 287.492 563.641 283.114 563.46C278.692 563.279 274.089 562.195 269.712 562.512C267.952 562.647 266.328 563.234 264.658 563.776C262.222 564.544 260.371 564.409 258.025 563.55C255.453 562.602 252.565 561.834 250.444 564.002C249.857 564.634 250.805 565.583 251.437 564.951Z" fill="#837B7B"/>
<path d="M166.196 575.926C169.354 572.493 174.905 572.267 178.244 575.519C178.289 575.158 178.334 574.796 178.379 574.435C176.033 575.564 173.641 576.061 171.069 575.926C170.212 575.88 170.212 577.235 171.069 577.281C173.912 577.416 176.529 576.874 179.101 575.609C179.508 575.429 179.553 574.842 179.237 574.525C175.356 570.777 168.903 570.957 165.248 574.932C164.661 575.609 165.609 576.558 166.196 575.926Z" fill="#837B7B"/>
<path d="M40.4317 588.121C38.1303 587.941 35.8289 588.618 34.069 590.199C32.986 591.193 31.4518 593.044 32.8507 594.354C34.43 595.8 38.2205 594.851 40.0707 594.67C43.455 594.309 46.7492 593.677 50.0433 592.819C50.9007 592.593 50.5397 591.283 49.6823 591.509C45.7113 592.548 41.6952 593.225 37.5888 593.496C36.7765 593.541 35.9192 593.632 35.1069 593.632C33.0763 593.541 34.0239 592.006 35.0167 591.147C36.5058 589.792 38.4462 589.296 40.4317 589.476C41.3342 589.521 41.289 588.166 40.4317 588.121Z" fill="#837B7B"/>
<path d="M104.915 550.858C105.006 550.497 105.276 550.271 105.637 550.271C105.953 550.226 106.269 550.181 106.54 550.136C107.262 550.045 107.939 550.09 108.661 550.181C110.06 550.361 111.323 550.858 112.542 551.626C112.587 551.22 112.632 550.813 112.722 550.407C111.052 550.994 109.383 551.129 107.623 550.858C106.766 550.723 106.405 552.033 107.262 552.168C109.247 552.484 111.143 552.349 113.083 551.716C113.625 551.536 113.76 550.813 113.264 550.497C110.917 549.006 107.849 548.284 105.096 549.052C103.607 549.458 102.434 551.762 104.554 552.213C105.412 552.349 105.773 551.039 104.915 550.858Z" fill="#837B7B"/>
<path d="M142.279 240.247C131.539 236.453 123.868 226.02 122.695 214.728C121.476 203.075 128.019 191.964 137.857 186.002C148.461 179.588 163.533 179.543 172.242 189.254C176.709 194.177 179.462 200.907 181.086 207.276C182.756 213.825 183.027 221.097 179.281 227.013C175.491 232.93 168.722 236.227 162.36 238.712C155.636 241.376 147.559 243.454 140.97 239.299C140.248 238.847 139.571 240.021 140.293 240.473C146.205 244.177 153.335 243.228 159.652 241.151C165.834 239.118 172.377 236.273 177.161 231.666C187.855 221.413 183.478 204.475 176.8 193.229C173.28 187.267 168 182.886 161.277 181.079C154.869 179.363 148.01 179.95 141.918 182.434C130.727 187.041 121.973 197.791 121.251 210.076C120.438 223.626 129.148 237.04 141.918 241.557C142.73 241.873 143.091 240.563 142.279 240.247Z" fill="#837B7B"/>
<path d="M481.574 502.439C512.349 500.497 542.944 496.342 573.088 489.973C581.797 488.122 590.461 486.089 599.08 483.876C599.937 483.65 599.576 482.34 598.719 482.566C568.846 490.199 538.432 495.71 507.747 498.916C499.037 499.82 490.328 500.542 481.619 501.084C480.717 501.13 480.717 502.485 481.574 502.439Z" fill="#837B7B"/>
<path d="M411.043 535.05C415.014 535.727 419.076 535.682 423.002 534.734C425.438 534.146 427.198 533.198 429.725 534.011C431.305 534.508 432.794 534.688 434.418 534.372C436.223 534.011 437.893 533.108 439.427 532.114C441.097 530.985 442.766 529.404 444.797 528.997C447.144 528.546 449.264 530.398 451.521 530.894C453.145 531.256 454.815 531.211 456.439 530.94C457.297 530.804 456.936 529.494 456.078 529.63C453.235 530.127 451.024 529.404 448.452 528.275C447.369 527.778 446.331 527.507 445.113 527.597C441.458 528.004 438.931 531.436 435.546 532.656C433.38 533.424 431.621 533.153 429.5 532.475C427.875 531.978 426.702 532.249 425.122 532.746C420.655 534.146 416.098 534.553 411.495 533.785C410.592 533.604 410.186 534.914 411.043 535.05Z" fill="#837B7B"/>
<path d="M187.45 593.812C222.512 593.812 257.574 593.812 292.636 593.812C294.396 593.812 294.396 591.102 292.636 591.102C257.574 591.102 222.512 591.102 187.45 591.102C185.69 591.102 185.69 593.812 187.45 593.812Z" fill="#161616"/>
<path d="M300.171 592.999C304.278 592.999 308.384 592.999 312.491 592.999C314.25 592.999 314.25 590.289 312.491 590.289C308.384 590.289 304.278 590.289 300.171 590.289C298.412 590.289 298.412 592.999 300.171 592.999Z" fill="#161616"/>
<path d="M321.606 592.593C322.915 592.593 324.268 592.593 325.577 592.593C327.337 592.593 327.337 589.883 325.577 589.883C324.268 589.883 322.915 589.883 321.606 589.883C319.846 589.883 319.846 592.593 321.606 592.593Z" fill="#161616"/>
<path d="M74.3212 603.749C100.268 603.749 126.17 603.749 152.117 603.749C153.877 603.749 153.877 601.039 152.117 601.039C126.17 601.039 100.268 601.039 74.3212 601.039C72.6065 601.039 72.6065 603.749 74.3212 603.749Z" fill="#161616"/>
<path d="M159.652 603.749C166.421 603.749 173.145 603.749 179.913 603.749C181.673 603.749 181.673 601.039 179.913 601.039C173.145 601.039 166.421 601.039 159.652 601.039C157.938 601.039 157.938 603.749 159.652 603.749Z" fill="#161616"/>
<path d="M191.42 602.936C191.826 602.936 192.233 602.936 192.594 602.936C193.316 602.936 193.992 602.303 193.947 601.581C193.902 600.858 193.361 600.226 192.594 600.226C192.187 600.226 191.781 600.226 191.42 600.226C190.698 600.226 190.021 600.858 190.067 601.581C190.112 602.303 190.653 602.936 191.42 602.936Z" fill="#161616"/>
<path d="M60.0611 604.11C61.0087 604.11 61.9112 604.11 62.8589 604.11C64.6187 604.11 64.6187 601.4 62.8589 601.4C61.9112 601.4 61.0087 601.4 60.0611 601.4C58.3012 601.4 58.3012 604.11 60.0611 604.11Z" fill="#161616"/>
<path d="M417.632 554.472C454.003 554.472 490.374 554.472 526.79 554.472C528.55 554.472 528.55 551.762 526.79 551.762C490.419 551.762 454.048 551.762 417.632 551.762C415.873 551.762 415.873 554.472 417.632 554.472Z" fill="#161616"/>
<path d="M541.049 552.892C573.99 552.892 606.931 552.892 639.872 552.892C641.632 552.892 641.632 550.182 639.872 550.182C606.931 550.182 573.99 550.182 541.049 550.182C539.334 550.182 539.334 552.892 541.049 552.892Z" fill="#161616"/>
<path d="M648.627 552.078C651.289 552.078 653.906 552.078 656.569 552.078C658.328 552.078 658.328 549.368 656.569 549.368C653.906 549.368 651.289 549.368 648.627 549.368C646.867 549.368 646.867 552.078 648.627 552.078Z" fill="#161616"/>
<path d="M613.7 536.992C621.236 536.992 628.772 536.992 636.307 536.992C638.067 536.992 638.067 534.282 636.307 534.282C628.772 534.282 621.236 534.282 613.7 534.282C611.94 534.282 611.94 536.992 613.7 536.992Z" fill="#161616"/>
<path d="M643.844 536.586C645.694 536.586 647.544 536.586 649.394 536.586C651.154 536.586 651.154 533.876 649.394 533.876C647.544 533.876 645.694 533.876 643.844 533.876C642.129 533.876 642.129 536.586 643.844 536.586Z" fill="#161616"/>
<path d="M395.792 562.421C405.449 562.421 415.105 562.421 424.762 562.421C426.522 562.421 426.522 559.711 424.762 559.711C415.105 559.711 405.449 559.711 395.792 559.711C394.077 559.711 394.077 562.421 395.792 562.421Z" fill="#161616"/>
<path d="M435.095 562.015C439.202 562.015 443.308 562.015 447.414 562.015C449.174 562.015 449.174 559.305 447.414 559.305C443.308 559.305 439.202 559.305 435.095 559.305C433.335 559.305 433.335 562.015 435.095 562.015Z" fill="#161616"/>
<path d="M452.964 568.79C455.762 568.79 458.515 568.79 461.313 568.79C463.072 568.79 463.072 566.08 461.313 566.08C458.515 566.08 455.762 566.08 452.964 566.08C451.205 566.08 451.205 568.79 452.964 568.79Z" fill="#161616"/>
<path d="M260.777 342.324C259.153 340.291 265.29 339.027 266.282 338.62C268.223 337.762 269.441 336.181 269.892 334.104C270.344 331.981 269.892 329.722 270.524 327.645C271.472 324.573 274.991 324.754 277.609 324.89C279.369 324.98 279.323 322.27 277.609 322.18C274.63 321.999 271.201 322.089 269.125 324.528C267.275 326.696 267.636 329.632 267.41 332.297C267.23 334.691 266.328 335.865 263.981 336.543C262.627 336.949 261.274 337.175 260.145 338.033C258.07 339.524 257.212 342.143 258.882 344.221C259.92 345.621 261.86 343.679 260.777 342.324Z" fill="#161616"/>
<path d="M270.389 344.582C269.171 343.136 271.969 341.691 272.871 341.149C274.09 340.426 275.128 339.749 276.03 338.665C277.88 336.452 279.099 332.251 282.438 332.071C284.153 331.98 284.198 329.27 282.438 329.361C276.888 329.632 276.436 335.413 272.646 338.123C271.021 339.252 269.081 339.884 268.043 341.691C267.095 343.317 267.276 345.079 268.449 346.479C269.577 347.834 271.518 345.892 270.389 344.582Z" fill="#161616"/>
<path d="M481.845 198.378C481.664 201.268 479.408 204.746 482.115 207.185C484.462 209.263 487.395 207.727 490.057 207.908C492.99 208.134 491.727 210.844 491.366 212.831C491.095 214.322 490.96 215.948 491.637 217.393C492.72 219.651 495.653 221.097 497.819 219.471C499.172 218.432 497.819 216.083 496.465 217.122C494.254 218.793 493.803 214.773 494.028 213.554C494.254 212.244 494.705 210.934 494.75 209.579C494.795 207.682 493.803 206.192 492.043 205.559C489.877 204.791 487.936 205.65 485.77 205.604C481.845 205.514 484.462 200.726 484.597 198.378C484.687 196.616 481.98 196.616 481.845 198.378Z" fill="#161616"/>
<path d="M497.368 201.494C496.24 203.933 495.157 206.824 496.962 209.263C497.639 210.166 498.541 210.708 499.624 210.889C500.346 210.979 501.294 210.663 501.926 210.934C502.963 211.34 503.55 212.56 503.054 213.644C502.287 215.225 504.633 216.58 505.4 214.999C506.348 212.966 505.987 210.618 504.182 209.127C503.189 208.314 502.287 208.314 501.068 208.179C497.774 207.862 498.677 205.107 499.714 202.894C500.436 201.313 498.09 199.913 497.368 201.494Z" fill="#161616"/>
<path d="M641.181 295.17C640.188 292.595 642.58 288.892 645.603 289.84C647.905 290.608 648.943 294.041 647.408 295.938C646.325 297.293 648.221 299.19 649.304 297.835C652.101 294.447 650.703 288.53 646.325 287.22C641.497 285.775 636.849 291.285 638.609 295.847C639.196 297.518 641.813 296.796 641.181 295.17Z" fill="#161616"/>
<path d="M114.392 402.395C114.121 399.188 118.182 397.382 119.897 400.408C121.341 403.028 118.498 405.331 116.016 404.473C114.392 403.886 113.67 406.506 115.294 407.093C120.303 408.899 125.041 403.208 122.018 398.692C118.769 393.859 111.233 396.704 111.729 402.395C111.82 404.112 114.527 404.157 114.392 402.395Z" fill="#161616"/>
<path d="M130.095 275.794C129.057 277.51 128.967 279.723 130.321 281.304C130.998 282.072 131.945 282.569 132.938 282.75C134.337 282.975 135.375 282.208 136.593 282.795C137.812 283.427 137.541 284.195 137.676 285.46C137.721 286.227 137.767 286.95 137.857 287.718C137.947 288.531 138.037 289.344 138.624 289.976C139.165 290.563 139.842 290.789 140.609 290.925C141.151 291.015 141.692 290.97 142.279 290.97C142.73 290.97 143.227 290.97 143.678 291.06C144.535 291.286 144.896 291.873 144.806 292.731C144.129 293.228 144.761 294.403 145.483 293.906C146.837 292.912 146.385 291.376 145.212 290.383C144.671 289.931 144.084 289.705 143.362 289.615C141.016 289.299 139.662 290.202 139.12 286.905C138.85 285.279 139.436 281.891 137.767 280.807C136.999 280.311 136.323 280.536 135.555 280.853C134.337 281.349 133.344 281.756 132.081 280.988C130.366 279.949 130.321 277.917 131.269 276.381C131.72 275.749 130.547 275.071 130.095 275.794Z" fill="#EC615B"/>
<path d="M148.326 281.169C147.423 282.75 146.34 285.143 147.739 286.769C148.642 287.853 150.176 287.718 151.349 288.395C153.199 289.434 154.057 291.602 153.696 293.635C153.56 294.493 154.869 294.854 155.004 293.996C155.365 291.964 154.914 289.976 153.515 288.441C152.929 287.763 152.162 287.266 151.349 286.905C150.402 286.498 148.777 286.002 148.461 284.827C148.236 283.969 149.138 282.524 149.499 281.846C149.905 281.078 148.732 280.401 148.326 281.169Z" fill="#EC615B"/>
<path d="M402.334 423.804C400.8 420.642 403.688 416.939 407.117 418.158C410.682 419.423 410.547 424.301 407.163 425.656C406.35 425.972 406.711 427.282 407.524 426.966C411.901 425.204 412.487 418.926 407.93 417.029C403.237 415.042 399.085 420.146 401.206 424.527C401.567 425.295 402.74 424.572 402.334 423.804Z" fill="#EC615B"/>
<path d="M236.14 413.1C233.252 412.513 237.899 409.397 238.396 409.081C239.118 408.584 239.795 408.042 240.156 407.184C241.374 404.428 239.163 398.918 244.037 398.647C244.894 398.602 244.894 397.247 244.037 397.292C242.141 397.382 240.742 398.421 239.885 400.047C238.486 402.667 240.156 406.235 237.448 408.042C235.914 409.081 234.289 409.758 234.109 411.791C234.019 413.01 234.515 414.094 235.779 414.365C236.636 414.591 236.997 413.281 236.14 413.1Z" fill="#EC615B"/>
<path d="M244.803 409.171C243.54 407.409 244.262 404.925 246.383 404.248C247.827 403.796 248.91 404.022 249.722 402.531C250.534 400.996 250.399 399.189 251.301 397.608C252.43 395.576 254.325 394.175 256.491 393.498C257.303 393.227 256.987 391.917 256.13 392.188C254.099 392.82 252.339 393.95 251.031 395.621C250.354 396.479 249.767 397.473 249.406 398.557C248.91 400.002 249.135 401.944 247.511 402.712C246.518 403.209 245.525 402.938 244.578 403.66C243.946 404.112 243.495 404.79 243.224 405.467C242.592 406.958 242.728 408.538 243.675 409.848C244.127 410.571 245.3 409.893 244.803 409.171Z" fill="#EC615B"/>
<path d="M198.911 201.449C198.099 199.823 201.573 200.41 201.709 200.455C202.205 200.636 202.702 201.043 203.153 201.314C203.875 201.72 204.687 202.127 205.544 202.172C206.673 202.217 207.62 201.72 208.342 200.907C210.418 198.378 209.651 191.829 214.524 193.771C215.968 194.358 217.593 195.216 219.172 194.493C220.436 193.906 220.706 192.642 220.526 191.377C220.436 190.745 219.714 189.48 219.894 188.848C220.255 187.628 221.383 187.538 222.241 187.944C222.647 188.125 223.008 188.396 223.459 188.531C224.813 189.028 226.121 188.938 226.934 187.673C227.385 186.951 226.212 186.273 225.76 186.996C224.858 188.441 221.248 185.46 219.623 186.363C218.315 187.041 218.36 188.396 218.676 189.661C219.037 191.151 219.939 193.319 217.187 193.274C215.968 193.274 214.84 192.235 213.667 192.009C212.268 191.738 211.005 192.1 210.102 193.184C207.846 195.848 208.703 202.804 203.469 199.959C201.934 199.146 200.671 198.333 198.956 199.1C197.648 199.688 197.016 200.817 197.693 202.127C198.144 202.894 199.272 202.217 198.911 201.449Z" fill="#11345C"/>
<path d="M252.655 238.305C250.625 237.808 250.354 235.188 251.347 233.653C252.745 231.485 256.04 231.62 258.251 232.027C261.951 232.704 265.38 234.149 269.126 232.749C272.736 231.394 275.443 228.458 279.505 228.368C283.746 228.278 287.762 230.13 292.049 229.994C299.54 229.768 306.354 226.065 313.529 224.348C317.771 223.309 321.922 223.219 326.164 224.303C330.225 225.342 334.016 227.013 338.077 228.007C342.319 229.091 346.515 228.91 350.802 228.549C355.495 228.187 360.323 227.826 364.565 230.265C364.475 229.994 364.34 229.768 364.249 229.497C361.993 236.137 354.683 238.847 348.23 239.208C340.153 239.66 332.301 236.724 324.178 237.04C315.966 237.356 309.016 242.37 300.939 243.138C292.681 243.951 284.874 240.021 276.662 240.247C268.314 240.473 257.438 245.035 250.85 237.582C250.264 236.95 249.316 237.898 249.903 238.531C255.092 244.357 263.305 243.318 270.209 242.279C275.308 241.512 279.956 241.466 285.055 242.46C289.387 243.318 293.719 244.493 298.141 244.583C307.076 244.809 314.612 239.027 323.411 238.44C332.301 237.853 340.92 241.421 349.809 240.428C356.443 239.705 363.347 236.588 365.603 229.813C365.693 229.542 365.558 229.181 365.287 229.046C357.345 224.393 347.779 228.775 339.25 226.832C334.557 225.748 330.18 223.671 325.442 222.677C321.335 221.774 317.274 222 313.213 222.993C308.881 224.032 304.775 225.748 300.533 227.058C295.659 228.549 291.011 229 285.957 227.962C281.941 227.103 278.241 226.426 274.451 228.323C272.691 229.226 271.066 230.446 269.261 231.259C266.193 232.614 263.26 231.801 260.146 231.033C256.852 230.265 251.888 229.723 250.038 233.382C248.865 235.685 249.677 238.982 252.384 239.615C253.152 239.795 253.513 238.485 252.655 238.305Z" fill="#837B7B"/>
<path d="M64.755 307.907C70.892 307.094 76.7131 310.255 82.805 309.487C85.2869 309.171 87.5882 308.087 89.8896 307.139C90.9726 306.687 92.1007 306.281 93.274 306.01C95.4851 305.513 97.4706 306.1 99.6366 306.552C105.683 307.861 112.452 306.416 118.499 305.558C121.477 305.151 124.41 304.7 127.388 304.203C130.773 303.616 134.157 302.712 137.542 302.351C141.106 301.99 145.303 303.571 143.859 307.952C142.641 311.701 138.083 312.785 134.654 313.056C128.697 313.507 122.786 311.791 116.829 312.92C111.279 313.959 106.315 316.85 100.945 318.43C97.967 319.334 94.9887 319.695 91.9202 319.289C88.8517 318.837 85.9637 318.069 82.805 318.295C76.3972 318.701 69.5834 322.45 63.1756 320.96C59.2497 320.056 57.2191 316.443 59.1144 312.694C60.9645 309.081 65.2062 308.132 68.9065 308.132C69.7639 308.132 69.7639 306.777 68.9065 306.777C63.7171 306.777 57.5801 309.036 57.0386 314.998C56.5422 320.508 61.9572 322.766 66.6051 322.586C69.9895 322.45 73.3287 321.457 76.6229 320.689C80.9097 319.695 84.8356 319.334 89.1676 320.147C92.3715 320.734 95.3497 321.05 98.5987 320.418C101.938 319.785 105.097 318.43 108.21 317.166C111.369 315.901 114.573 314.591 117.957 314.094C121.928 313.507 125.899 314.14 129.87 314.365C135.06 314.682 143.318 314.456 145.213 308.313C145.89 306.1 145.393 303.525 143.453 302.08C141.558 300.68 138.986 300.77 136.774 301.041C128.652 302.17 120.665 304.022 112.452 304.926C107.849 305.422 103.427 306.01 98.9146 304.926C95.2595 304.022 92.3715 304.655 88.942 306.055C87.137 306.777 85.3771 307.59 83.4819 307.952C81.1354 308.403 78.6986 308.087 76.3521 307.681C72.5165 306.958 68.7711 305.964 64.8904 306.461C63.8976 306.642 63.8976 307.997 64.755 307.907Z" fill="#837B7B"/>
<path d="M614.603 361.61C606.074 364.591 596.102 357.545 589.965 352.216C589.874 352.577 589.784 352.983 589.649 353.345C593.981 351.583 598.538 351.493 603.141 351.764C607.699 351.99 612.256 352.306 616.814 352.441C626.516 352.712 636.263 352.487 645.92 351.764C650.928 351.403 655.892 350.906 660.856 350.319C663.293 350.002 666.226 349.415 668.527 350.544C671.731 352.17 671.46 355.693 668.392 357.048C666.812 357.726 665.098 357.952 663.428 358.268C660.811 358.72 658.194 359.216 655.576 359.668C650.793 360.526 646.01 361.384 641.181 362.243C638.429 362.739 635.676 363.236 632.924 363.733C630.351 364.185 627.689 364.862 625.027 364.907C620.514 364.953 617.13 360.978 612.617 361.475C611.76 361.565 611.76 362.92 612.617 362.83C615.189 362.514 617.22 363.914 619.431 364.953C621.236 365.811 622.996 366.262 624.982 366.262C630.171 366.217 635.541 364.636 640.64 363.688C646.145 362.694 651.696 361.701 657.201 360.707C659.818 360.255 662.435 359.758 665.053 359.307C666.812 358.991 668.663 358.584 670.197 357.545C672.769 355.784 672.859 352.532 670.693 350.409C667.309 347.067 661.488 348.828 657.381 349.28C646.281 350.499 635.09 351.132 623.899 351.086C617.762 351.086 611.625 350.861 605.488 350.454C600.028 350.138 594.477 349.867 589.333 351.945C588.927 352.125 588.611 352.712 589.017 353.074C595.515 358.72 605.894 365.991 614.964 362.83C615.776 362.649 615.46 361.339 614.603 361.61Z" fill="#837B7B"/>
<path d="M407.659 600.225C407.253 597.651 410.908 598.057 412.352 598.554C413.48 598.916 414.563 599.367 415.736 599.503C418.534 599.864 421.287 598.916 423.904 598.057C426.431 597.199 429.093 596.251 431.801 596.522C435.05 596.838 437.667 599.503 437.171 602.935C436.629 606.504 432.974 608.175 429.725 607.181C427.514 606.504 425.574 605.103 423.272 604.742C418.399 604.019 413.3 608.265 408.607 606.007C407.839 605.645 407.117 606.775 407.93 607.181C410.727 608.536 413.525 607.904 416.368 607.091C418.173 606.594 420.068 605.962 421.964 606.007C424.175 606.052 425.98 607.136 427.92 607.949C430.673 609.123 433.561 609.349 435.997 607.362C438.073 605.691 438.976 603.026 438.344 600.451C436.449 592.999 427.875 595.302 422.731 597.019C420.294 597.832 417.722 598.599 415.105 598.057C413.435 597.696 411.856 596.657 410.051 596.702C407.885 596.748 405.944 598.328 406.305 600.587C406.486 601.445 407.794 601.084 407.659 600.225Z" fill="#837B7B"/>
<path d="M355.631 585.185C357.797 583.152 360.775 582.294 363.708 582.926C364.926 583.197 368.311 584.101 366.19 585.727C365.062 586.585 362.58 586.494 361.226 586.494C360.369 586.494 360.369 587.849 361.226 587.849C363.212 587.849 366.686 587.759 368.175 586.178C369.439 584.823 367.995 583.333 366.776 582.655C362.896 580.397 357.887 581.255 354.683 584.236C354.051 584.823 354.999 585.772 355.631 585.185Z" fill="#837B7B"/>
<path d="M330.541 615.131C330.18 614.996 329.864 614.86 329.503 614.725C329.458 615.086 329.413 615.447 329.368 615.809C332.121 613.821 335.234 615.267 338.167 615.944C340.649 616.531 342.815 616.26 345.252 615.673C348.275 614.951 351.344 614.499 354.457 614.318C355.901 614.228 357.345 614.183 358.789 614.137C360.143 614.092 363.528 613.415 362.354 615.718C360.955 618.474 356.894 618.564 354.412 617.751C352.291 617.073 350.306 616.08 348.05 616.622C345.703 617.164 343.718 618.654 341.281 619.151C338.032 619.828 334.828 619.512 331.714 618.383C330.902 618.112 330.541 619.377 331.353 619.693C334.422 620.777 337.626 621.138 340.875 620.596C344.53 619.964 347.779 617.119 351.569 618.157C354.277 618.925 356.488 620.145 359.376 619.287C361.226 618.745 363.843 617.118 364.204 615.041C364.656 612.602 361.632 612.692 360.053 612.737C356.398 612.828 352.698 613.008 349.042 613.55C347.057 613.867 345.162 614.409 343.221 614.77C340.83 615.222 338.889 614.77 336.588 614.137C333.88 613.37 331.083 612.918 328.646 614.634C328.285 614.905 328.195 615.357 328.51 615.718C329.187 616.486 329.909 616.667 330.857 616.486C331.76 616.306 331.399 614.996 330.541 615.131Z" fill="#837B7B"/>
<path d="M516.907 589.251C519.524 588.167 522.277 587.579 525.119 587.625C528.053 587.67 530.534 588.799 533.332 589.431C537.439 590.425 540.507 587.895 543.846 585.953C549.126 582.837 554.36 584.869 559.866 585.999C563.791 586.812 567.988 586.947 571.372 584.553C572.094 584.056 571.418 582.882 570.696 583.379C566.454 586.45 561.219 584.96 556.572 583.83C552.194 582.792 547.862 582.204 543.756 584.463C541.951 585.457 540.281 586.766 538.386 587.625C535.498 588.934 533.152 587.895 530.354 587.082C525.796 585.773 520.968 586.134 516.591 587.941C515.733 588.257 516.094 589.567 516.907 589.251Z" fill="#837B7B"/>
<path d="M203.153 366.849C207.169 365.313 214.209 373.579 217.684 378.999C223.008 387.174 223.866 394.311 226.483 410.842C227.476 417.255 229.1 427.418 231.311 440.245C235.282 444.129 236.771 447.923 237.358 450.272C238.17 453.298 238.396 457.183 237.358 457.544C236.23 457.95 234.244 454.156 233.432 454.518C232.349 455.015 235.869 461.112 233.748 463.912C231.582 466.758 223.46 466.306 219.218 462.106C215.247 458.176 216.826 453.163 216.194 441.194C215.969 437.129 215.337 426.063 211.953 415.132C207.801 401.808 203.469 401.131 201.032 389.342C199.318 381.032 198.821 368.52 203.153 366.849Z" fill="white" stroke="#161616" stroke-width="2" stroke-miterlimit="10"/>
<path opacity="0.15" d="M209.11 378.502C211.592 377.96 215.924 389.207 216.195 389.839C220.166 400.228 218.271 404.654 220.03 419.965C221.474 432.431 222.287 439.523 226.303 448.285C230.184 456.686 234.696 461.609 232.981 463.867C231.267 466.171 224.543 463.958 219.263 461.835C218.767 460.706 218.045 458.944 217.458 456.776C215.969 451.492 216.059 447.291 216.059 445.259C216.059 444.13 216.014 431.031 213.442 419.604C212.043 413.507 211.412 414.41 209.787 408.087C206.222 394.356 206.358 379.09 209.11 378.502Z" fill="#6D6C6C"/>
<path opacity="0.17" d="M215.202 400.363C215.698 405.061 216.33 412.061 216.601 420.598C217.007 433.741 216.375 444.672 216.014 444.672C215.698 444.672 216.104 436.813 214.389 426.063C213.261 418.927 211.592 413.145 210.328 409.306C211.186 408.448 212.223 407.274 213.171 405.648C214.344 403.57 214.931 401.673 215.202 400.363Z" fill="#6D6C6C"/>
<path d="M212.088 560.569C210.915 562.737 210.734 565.086 213.442 585.547C213.758 588.076 214.073 590.154 214.254 591.599C221.158 592.683 230.905 593.541 242.457 592.412C249.451 591.735 257.619 590.967 258.07 588.302C258.431 586.134 253.693 582.249 232.033 574.842C231.04 567.615 230.003 560.389 229.01 553.162C216.33 554.02 213.036 558.898 212.088 560.569Z" fill="#161616"/>
<path d="M184.877 431.799C189.119 437.58 195.166 445.891 202.251 456.053C219.037 480.082 227.43 492.096 230.363 500.136C239.027 523.939 236.771 547.064 235.914 554.923C235.417 559.44 234.786 563.143 234.289 565.673C230.86 566.983 225.941 568.428 219.94 568.925C214.57 569.376 209.967 568.88 206.583 568.292C205.545 562.15 204.687 555.239 204.281 547.742C203.695 536.585 204.236 526.604 205.274 518.067C193.677 509.169 186.186 500 181.628 493.632C169.445 476.423 166.196 461.518 164.255 451.943C161.503 438.664 163.398 435.051 165.158 433.154C171.024 427.056 183.749 431.437 184.877 431.799Z" fill="white" stroke="#161616" stroke-width="2" stroke-miterlimit="10"/>
<path opacity="0.19" d="M186.186 469.92C190.834 473.849 196.881 479.676 202.747 487.67C204.372 489.929 211.095 499.549 217.007 514.996C225.129 536.405 225.806 556.369 225.445 567.661C223.46 568.383 220.662 569.151 217.323 569.422C212.855 569.738 209.2 568.97 206.854 568.248C205.41 559.44 204.327 549.278 204.236 537.986C204.191 530.669 204.507 523.849 205.094 517.616C203.966 516.984 182.17 504.698 182.441 484.147C182.486 478.411 184.291 473.533 186.186 469.92Z" fill="#6D6C6C"/>
<path opacity="0.15" d="M192.007 504.517C193 503.162 205.409 506.956 210.328 516.17C214.028 523.08 211.05 528.41 211.185 538.256C211.276 545.618 213.171 556.097 221.338 568.789C216.6 568.699 211.862 568.608 207.079 568.518C205.77 560.117 204.732 550.542 204.462 540.018C204.236 531.707 204.507 524.029 205.048 517.028C203.288 516.125 201.032 514.724 198.641 512.647C195.978 510.298 191.285 505.51 192.007 504.517Z" fill="#6D6C6C"/>
<path d="M132.351 557.002C128.922 559.215 128.335 562.287 125.222 569.062C123.056 573.759 119.807 580.037 114.798 587.173C117.641 590.38 122.379 594.852 129.328 598.149C138.849 602.666 152.206 604.834 154.282 600.904C156.493 596.658 144.896 586.586 141.422 583.605C142.369 581.482 143.903 578.095 145.799 573.985C150.808 563.235 151.8 561.654 150.988 559.712C149.093 555.105 138.579 553.028 132.351 557.002Z" fill="#161616"/>
<path d="M146.837 421.592C144.129 429.044 141.377 436.497 138.669 443.904C134.202 456.822 136.142 465.765 137.586 470.056C139.166 474.798 141.918 478.863 147.378 486.948C151.62 493.181 155.456 498.194 158.254 501.672C152.658 507.499 146.295 515.042 140.294 524.527C132.216 537.354 127.433 549.413 124.5 558.853C127.162 560.886 131.179 563.46 136.458 565.402C142.37 567.57 147.604 568.067 151.169 568.112C157.441 563.28 166.015 555.737 174.002 544.671C180.275 536.044 188.713 524.436 191.42 508.176C196.023 480.489 180.997 457.951 175.627 449.911C165.925 435.322 154.283 426.47 146.837 421.592Z" fill="white" stroke="#161616" stroke-width="2" stroke-miterlimit="10"/>
<path d="M165.834 437.851C169.309 442.684 172.739 447.562 176.033 452.485C176.439 452.26 176.8 452.034 177.206 451.808C174.273 447.878 171.656 443.678 169.399 439.297C169.083 439.613 168.768 439.929 168.452 440.245C170.302 441.51 171.34 443.407 172.468 445.259C173.776 447.427 175.13 449.595 176.439 451.763C179.011 455.963 181.583 460.209 184.155 464.409C184.561 464.184 184.922 463.958 185.328 463.732C181.403 457.589 177.477 451.447 173.506 445.304C173.054 444.581 171.881 445.259 172.332 445.981C177.206 454.111 182.125 462.196 186.998 470.326C187.449 471.094 188.623 470.417 188.171 469.649C184.606 463.596 181.087 457.499 177.522 451.447C177.161 451.718 176.8 451.989 176.439 452.26C181.538 457.905 182.44 466.126 187.991 471.41C188.623 471.997 189.57 471.049 188.938 470.462C183.388 465.222 182.486 456.957 177.386 451.311C176.845 450.724 175.942 451.492 176.303 452.124C179.868 458.176 183.388 464.274 186.953 470.326C187.359 470.1 187.72 469.875 188.126 469.649C183.253 461.519 178.334 453.434 173.461 445.304C173.054 445.53 172.693 445.756 172.287 445.981C176.213 452.124 180.139 458.267 184.11 464.409C184.561 465.132 185.735 464.455 185.283 463.732C182.395 458.989 179.507 454.247 176.619 449.55C174.498 446.027 172.558 441.465 169.038 439.071C168.452 438.664 167.82 439.432 168.091 440.019C170.347 444.401 172.919 448.556 175.897 452.531C176.394 453.208 177.567 452.576 177.071 451.853C173.776 446.885 170.392 442.007 166.872 437.219C166.511 436.451 165.338 437.129 165.834 437.851Z" fill="white"/>
<path opacity="0.2" d="M168.677 439.839C166.33 443.226 163.081 448.827 161.682 456.189C157.396 478.502 175.446 488.393 171.429 507.95C169.309 518.248 163.939 517.3 151.935 538.709C145.844 549.594 141.963 559.169 139.661 565.673C136.728 564.77 133.524 563.596 130.14 562.06C128.155 561.157 126.304 560.253 124.635 559.305C127.297 550.994 131.313 540.967 137.36 530.217C144.219 518.068 151.755 508.583 158.118 501.582C156.358 499.324 153.74 495.891 150.717 491.6C142.369 479.766 138.127 473.714 136.728 466.758C135.149 459.08 136.458 452.531 137.36 448.104C138.714 441.42 141.015 436.18 142.865 432.612C151.439 435.006 160.058 437.445 168.677 439.839Z" fill="#6D6C6C"/>
<path opacity="0.17" d="M158.072 437.084C152.973 442.91 146.295 452.485 146.836 464.048C147.648 482.16 165.518 489.07 162.946 503.93C162.224 508.04 156.538 514.635 145.121 527.688C138.849 534.869 133.524 540.606 129.869 544.445C132.667 537.579 136.728 529.359 142.594 520.687C147.784 513.009 153.109 506.866 157.847 502.033C156.448 499.91 153.966 496.116 150.852 491.419C139.977 475.069 137.856 472.494 136.638 466.803C135.194 460.119 136.142 454.473 136.864 450.272C138.172 442.458 140.925 436.451 143.001 432.657C148.009 434.103 153.063 435.593 158.072 437.084Z" fill="#6D6C6C"/>
<path d="M181.402 358.493C174.995 362.287 162.811 370.643 153.515 386C141.692 405.557 141.692 424.662 142.099 432.07C144.31 432.792 146.566 433.515 148.867 434.193C164.255 438.8 179.146 441.916 193.225 443.903C194.398 439.884 195.662 435.819 197.016 431.618C199.046 425.43 201.167 419.513 203.333 413.868C210.824 409.983 213.441 404.97 214.298 402.892C217.773 394.762 214.479 386.271 210.914 377.102C208.929 371.953 207.891 369.333 205.409 366.533C197.647 357.725 184.832 358.267 181.402 358.493Z" fill="#EC615B"/>
<path opacity="0.27" d="M196.609 369.198C184.29 370.824 177.702 376.425 175.04 379.044C160.013 393.904 165.202 418.972 166.601 425.747C167.865 431.844 169.76 436.722 171.249 440.019C161.728 437.445 152.251 434.825 142.73 432.251C142.143 425.34 141.557 407.59 151.8 388.665C161.322 371.14 174.994 362.152 181.086 358.629C181.944 358.674 182.801 358.764 183.658 358.81C184.967 360.345 186.546 361.971 188.487 363.642C191.375 366.172 194.218 367.933 196.609 369.198Z" fill="#6D6C6C"/>
<path opacity="0.2" d="M157.125 380.535C155.862 387.175 154.824 396.795 156.178 408.177C157.802 421.546 162.089 431.89 165.428 438.394C157.667 436.406 149.86 434.419 142.099 432.477C141.738 426.244 141.918 416.894 144.896 406.145C148.145 394.401 153.38 385.82 157.125 380.535Z" fill="#6D6C6C"/>
<path d="M538.612 529.767C535.769 536.135 536.31 542.097 536.762 544.897C545.651 548.827 553.548 550.633 559.595 551.537C561.58 551.853 586.128 555.331 588.52 548.601C589.106 546.93 588.159 545.213 587.211 543.542C581.932 534.283 568.575 533.741 566.77 533.696C566.273 524.076 560.091 516.939 553.774 516.442C544.839 515.765 539.243 528.366 538.612 529.767Z" fill="#161616"/>
<path d="M550.344 374.393C556.211 382.839 564.108 395.982 569.838 413.417C579.179 441.826 577.645 465.674 576.607 479.179C575.705 491.194 573.268 508.267 566.454 527.959C564.604 529.134 556.436 534.012 546.103 531.798C539.966 530.489 535.814 527.237 533.829 525.43C537.484 517.39 541.906 505.286 543.576 490.2C545.426 473.759 543.17 460.887 540.191 444.356C533.423 407.003 524.082 392.821 532.159 382.387C536.04 377.328 542.673 375.07 550.344 374.393Z" fill="white" stroke="#161616" stroke-width="2" stroke-miterlimit="10"/>
<path opacity="0.16" d="M553.548 395.033C556.617 409.983 559.054 427.147 560.001 446.207C561.626 480.037 557.971 509.215 553.232 531.933C551.202 532.204 546.283 532.521 541.049 529.901C537.935 528.32 535.814 526.242 534.596 524.797C540.236 511.789 542.267 500.723 543.079 493.271C544.343 481.573 543.305 472.178 541.364 454.653C540.236 444.4 538.928 435.999 537.98 430.263C543.169 418.565 548.359 406.777 553.548 395.033Z" fill="#6D6C6C"/>
<path opacity="0.22" d="M543.666 417.526C547.547 427.644 553.368 446.93 551.382 471.455C549.487 495.078 541.184 512.647 535.904 521.952C544.749 496.387 545.2 480.715 543.846 471.004C543.485 468.52 541.951 458.673 540.191 444.175C539.469 438.168 538.928 433.244 538.612 430.083C540.327 425.882 541.996 421.682 543.666 417.526Z" fill="#6D6C6C"/>
<path d="M473.316 510.208C469.571 512.06 468.443 515.086 463.299 524.887C459.869 531.391 456.981 536.585 455.086 539.928C460.862 544.083 470.022 549.548 482.251 552.439C489.471 554.155 504.498 556.549 506.213 552.439C508.108 547.877 492.675 537.353 486.177 533.108C492.856 526.604 493.171 517.164 488.659 512.331C484.823 508.221 477.874 507.95 473.316 510.208Z" fill="#161616"/>
<path d="M538.748 373.444C553.639 386.587 536.221 430.399 521.916 465.448C515.734 480.579 506.078 502.485 491.863 528.094C489.381 528.456 481.936 529.178 473.994 524.888C466.007 520.597 462.532 513.867 461.494 511.654C465.646 504.472 470.654 494.807 475.438 483.018C477.333 478.366 485.501 457.589 490.103 428.231C491.908 416.623 493.533 401.312 493.307 383.109C495.97 380.399 510.816 365.811 528.369 369.153C531.032 369.65 535.409 370.508 538.748 373.444Z" fill="white" stroke="#161616" stroke-width="2" stroke-miterlimit="10"/>
<path d="M543.576 391.511C543.531 393.092 543.486 394.673 543.486 396.253C543.937 396.253 544.388 396.253 544.84 396.253C544.614 393.724 544.749 391.33 545.246 388.846C544.794 388.801 544.343 388.711 543.937 388.665C544.208 393.995 542.989 399.596 542.042 404.835C541.094 410.12 539.831 415.359 538.341 420.508C538.793 420.643 539.199 420.734 539.65 420.869C542.132 411.475 544.208 402.035 545.923 392.459C546.058 391.601 544.749 391.24 544.614 392.098C542.899 401.628 540.823 411.113 538.341 420.508C538.116 421.366 539.424 421.727 539.65 420.869C541.23 415.449 542.493 409.894 543.486 404.338C544.388 399.28 545.562 393.814 545.291 388.665C545.246 387.943 544.118 387.717 543.982 388.485C543.441 391.059 543.305 393.634 543.531 396.253C543.621 397.112 544.885 397.157 544.885 396.253C544.93 394.673 544.975 393.092 544.975 391.511C544.975 390.653 543.621 390.653 543.576 391.511Z" fill="white"/>
<path d="M537.845 417.662C537.89 421.14 537.98 424.618 538.025 428.095C538.025 428.954 539.379 428.954 539.379 428.095C539.334 424.618 539.244 421.14 539.199 417.662C539.153 416.759 537.8 416.759 537.845 417.662Z" fill="white"/>
<path opacity="0.19" d="M519.074 387.49C519.209 396.569 518.713 408.944 516.05 423.307C513.207 438.529 508.875 450.317 502.558 468.068C497.414 482.611 494.932 486.947 489.697 503.072C486.493 512.873 484.237 521.093 482.793 526.604C480.311 526.287 475.167 525.249 470.023 521.409C465.239 517.841 462.803 513.596 461.72 511.382C470.023 496.794 475.302 484.011 478.642 474.707C488.975 445.936 491.412 420.914 492.811 405.512C493.397 399.098 493.713 393.768 493.849 390.291C502.242 389.342 510.68 388.439 519.074 387.49Z" fill="#6D6C6C"/>
<path opacity="0.24" d="M514.425 388.8C510.905 404.292 506.844 416.487 503.64 425.023C501.023 432.069 497.007 441.554 489.019 460.479C486.086 467.48 484.597 470.958 483.875 472.539C479.453 482.475 472.368 496.432 461.042 512.873C471.195 494.625 482.837 468.609 489.019 435.818C492.133 419.287 493.261 404.202 493.397 391.148C493.351 391.103 493.351 391.103 514.425 388.8Z" fill="#6D6C6C"/>
<path d="M528.685 277.736C529.407 279.497 530.67 282.072 532.972 284.691C534.641 286.588 536.762 289.027 539.921 289.976C546.058 291.873 552.014 286.995 552.827 286.317C558.783 289.84 564.74 293.363 570.651 296.886C571.193 304.249 571.238 315.36 568.35 328.322C565.597 340.653 562.935 342.143 560.769 354.113C557.474 372.089 559.911 388.123 559.099 388.168C558.964 388.168 558.783 387.807 558.422 385.865C535.183 387.626 511.943 389.388 488.704 391.149C488.027 377.193 488.117 365.449 488.388 356.777C488.749 343.227 489.832 326.832 494.345 307.817C497.549 294.222 500.075 289.615 503.911 286.001C512.214 278.097 523.586 277.6 528.685 277.736Z" fill="#11345C"/>
<path opacity="0.3" d="M555.579 287.943C554.812 296.209 553.368 308.494 550.615 323.219C549.803 327.645 547.502 339.84 545.652 345.802C543.395 353.119 534.596 374.031 491.547 391.014C504.678 389.478 518.216 388.123 532.069 386.994C540.733 386.271 549.307 385.639 557.745 385.142C560.723 374.528 563.476 362.513 565.462 349.234C568.485 329.135 569.072 310.978 568.575 295.667C564.243 293.092 559.911 290.518 555.579 287.943Z" fill="#32198E"/>
<path d="M536.987 250.546C535.408 258.631 534.686 267.574 528.143 277.465C527.24 278.82 526.473 279.859 525.932 280.536C526.473 281.62 532.204 292.731 544.388 294.403C551.337 295.351 556.797 292.686 558.873 291.557C558.557 288.847 558.376 285.595 558.647 281.937C559.008 276.562 560.136 272.09 561.265 268.703C566.499 268.025 571.688 267.348 576.923 266.67C577.961 264.367 578.954 262.063 579.991 259.715C581.435 259.669 582.834 259.624 584.278 259.579C583.195 256.417 581.571 251.404 579.675 245.216C576.156 233.563 576.201 231.892 574.306 229.272C569.071 222.091 557.339 217.529 549.622 221.368C542.177 225.027 539.92 235.46 536.987 250.546Z" fill="white" stroke="#161616" stroke-width="2" stroke-miterlimit="10"/>
<path d="M584.053 258.946C581.48 258.991 578.953 258.811 576.426 258.449C575.569 258.314 575.208 259.624 576.065 259.759C578.728 260.166 581.345 260.346 584.053 260.301C584.955 260.301 584.955 258.946 584.053 258.946Z" fill="#161616"/>
<path d="M585.857 238.215C583.556 236.95 580.803 237.673 579.314 239.796C578.818 240.518 579.991 241.196 580.488 240.473C581.525 238.983 583.601 238.531 585.18 239.389C585.948 239.796 586.624 238.621 585.857 238.215Z" fill="#161616"/>
<path d="M584.684 246.345C584.91 245.306 584.865 244.267 584.368 243.319C584.007 242.641 583.24 241.828 582.383 242.189C581.48 242.551 581.525 243.815 581.706 244.583C581.886 245.532 582.383 246.39 583.105 247.022C583.511 247.384 584.278 247.158 584.278 246.525C584.278 245.396 584.007 244.403 583.511 243.364C583.15 242.596 581.977 243.273 582.338 244.041C582.699 244.809 582.879 245.622 582.924 246.48C583.33 246.3 583.691 246.164 584.098 245.983C583.33 245.351 583.06 244.538 583.015 243.59C583.06 243.499 583.014 243.409 582.879 243.409C582.969 243.454 583.06 243.544 583.105 243.635C583.24 243.815 583.376 244.086 583.421 244.312C583.601 244.854 583.601 245.351 583.466 245.893C583.15 246.842 584.458 247.203 584.684 246.345Z" fill="#161616"/>
<path d="M572.771 240.022C570.154 239.164 567.401 240.248 565.867 242.506C565.371 243.229 566.544 243.906 567.04 243.183C568.213 241.422 570.38 240.699 572.41 241.332C573.222 241.557 573.583 240.293 572.771 240.022Z" fill="#161616"/>
<path d="M573.493 247.564C573.583 246.345 573.087 244.448 571.823 243.951C570.154 243.273 570.154 245.622 570.334 246.616C570.56 247.609 571.372 249.461 572.726 248.693C573.267 248.377 573.357 247.79 573.177 247.248C572.861 246.39 572.365 245.622 572.004 244.809C571.643 245.08 571.282 245.351 570.921 245.622C571.101 245.803 571.237 245.983 571.282 246.254C571.507 247.113 572.816 246.751 572.59 245.893C572.455 245.396 572.229 245.035 571.868 244.674C571.282 244.132 570.47 244.809 570.785 245.487C570.966 245.803 571.101 246.119 571.282 246.48C571.417 246.751 571.552 247.248 571.778 247.474C571.868 247.79 571.959 247.79 572.094 247.474C572.049 247.384 571.959 247.248 571.913 247.158C571.778 246.887 571.688 246.616 571.643 246.3C571.598 246.029 571.643 245.667 571.552 245.396C571.598 245.216 571.552 245.17 571.507 245.396C571.598 245.532 571.733 245.667 571.778 245.803C572.094 246.345 572.184 246.977 572.139 247.609C572.049 248.422 573.403 248.422 573.493 247.564Z" fill="#161616"/>
<path d="M576.111 232.162C575.75 229.768 574.802 225.884 572.275 221.864C571.373 220.464 569.432 217.438 566.364 215.405C560.498 211.521 551.473 211.837 544.884 216.58C538.477 221.232 535.273 229.588 536.672 237.853C549.848 235.956 562.979 234.059 576.111 232.162Z" fill="#EC615B"/>
<path d="M597.68 227.827C577.419 230.402 557.203 232.976 536.942 235.551C534.37 235.867 534.37 239.932 536.942 239.616C557.203 237.041 577.419 234.467 597.68 231.892C600.207 231.576 600.252 227.511 597.68 227.827Z" fill="#161616"/>
<path d="M549.802 237.312C553.367 238.622 555.443 241.106 557.88 244.087C562.979 250.32 561.445 252.624 565.055 256.508C570.74 262.696 576.516 259.037 581.616 265.09C585.948 270.239 585.361 277.194 585.18 278.73C585 280.266 584.233 286.453 579.224 290.699C574.892 294.358 568.981 295.216 568.62 294.403C568.484 294.087 568.981 293.364 572.184 291.196C571.237 291.873 569.793 292.686 567.852 293.048C565.641 293.454 563.566 293.048 563.52 292.732C563.52 292.506 564.694 292.506 565.596 291.512C566.138 290.925 566.363 290.247 566.499 289.66C564.739 290.835 562.483 291.828 560.362 291.196C554.586 289.434 553.548 276.472 553.187 272.181C552.104 258.269 556.075 250.681 551.246 245.803C550.84 245.397 548.9 243.41 546.779 243.816C544.072 244.313 541.996 248.559 542.898 251.359C543.665 253.753 546.373 254.43 546.192 254.882C545.922 255.469 541.364 254.566 537.528 251.494C536.13 250.365 535.001 249.462 534.415 247.791C533.377 244.9 534.595 241.603 536.22 239.661C539.604 235.596 545.922 235.867 549.802 237.312Z" fill="#161616" stroke="#161616" stroke-width="2" stroke-miterlimit="10"/>
<path opacity="0.22" d="M544.433 255.243C545.29 255.333 546.508 255.378 546.599 255.062C546.644 254.927 546.328 254.701 546.328 254.701C546.328 254.701 547.366 256.011 548.629 256.191C549.261 256.282 549.757 256.056 550.118 255.875C547.817 260.708 545.471 266.58 543.53 273.355C541.5 280.356 540.371 286.769 539.785 292.234C537.799 291.602 534.189 290.157 530.85 286.905C528.413 284.556 527.014 282.072 526.202 280.401C528.91 276.336 530.489 272.768 531.437 270.329C532.294 268.07 532.61 266.58 534.144 261.431C535.408 257.275 536.4 253.843 537.077 251.494C537.438 251.81 537.98 252.307 538.702 252.804C539.74 253.527 541.77 254.927 544.433 255.243Z" fill="#6D6C6C"/>
<path d="M559.009 212.967C553.729 214.006 549.803 218.251 549.216 223.265C548.494 229.227 552.872 233.292 553.278 233.653C547.682 234.331 542.087 235.053 536.491 235.731C536.401 234.421 536.356 232.614 536.672 230.537C537.755 223.852 541.635 219.742 542.448 218.884C543.756 217.529 548.359 213.148 555.173 212.741C556.752 212.651 558.061 212.831 559.009 212.967Z" fill="#B74949"/>
<path d="M569.297 296.434C572.907 295.892 576.607 302.17 578.322 305.061C588.249 321.954 584.098 341.466 582.834 347.157C581.842 351.628 579.991 359.532 574.215 368.249C568.71 376.65 562.212 381.845 558.061 384.69C551.111 387.355 538.476 391.013 523.269 388.529C517.99 387.671 513.387 386.226 509.551 384.69C503.053 385.097 496.555 385.458 490.057 385.864C489.02 385.684 487.576 385.413 485.861 384.78C483.785 384.013 481.8 383.245 481.8 382.522C481.8 381.709 484.056 380.444 495.066 378.728C494.525 378.818 487.305 380.219 482.476 375.16C477.964 370.463 477.693 362.423 481.123 359.261C484.011 356.596 488.704 357.771 497.277 360.074C505.761 362.333 512.575 365.404 517.539 368.024C519.434 368.882 534.19 375.25 547.682 367.482C557.97 361.565 561.4 350.951 562.212 348.015C565.461 336.362 559.55 332.252 561.671 315.404C561.941 312.514 563.882 297.202 569.297 296.434Z" fill="white" stroke="#161616" stroke-width="2" stroke-miterlimit="10"/>
<path d="M479.408 369.334C484.642 369.74 489.651 371.005 494.434 373.173C495.201 373.534 495.923 372.36 495.111 371.999C490.102 369.695 484.868 368.34 479.408 367.934C478.55 367.934 478.55 369.289 479.408 369.334Z" fill="#161616"/>
<path d="M479.092 363.823C485.093 363.643 490.192 367.301 495.788 369.018C496.6 369.289 496.961 367.979 496.149 367.708C490.463 365.946 485.274 362.288 479.092 362.468C478.234 362.514 478.189 363.869 479.092 363.823Z" fill="#161616"/>
<path d="M484.867 359.035C489.786 359.442 494.118 361.79 498.36 364.184C499.127 364.591 499.804 363.461 499.037 363.01C494.569 360.526 490.057 358.132 484.867 357.68C483.965 357.59 483.965 358.945 484.867 359.035Z" fill="#161616"/>
<path opacity="0.18" d="M563.792 304.745C561.129 315.45 568.214 322.677 570.606 334.917C571.012 337.085 574.216 354.655 564.83 367.121C554.361 381.032 533.603 381.529 529.542 381.664C518.937 381.935 514.921 378.819 498.315 379.677C496.736 379.767 482.296 380.58 482.161 382.613C482.115 383.697 486.132 384.916 489.155 385.323C493.126 385.865 495.202 384.962 500.256 384.555C502.422 384.374 505.535 384.239 509.371 384.555C513.974 386.452 519.93 388.304 527.06 389.027C529 389.207 535.047 389.749 542.809 388.62C542.809 388.62 549.307 387.717 554.451 385.91C567.221 381.484 579.856 362.83 583.421 342.505C587.437 319.605 578.502 302.352 573.494 298.512C572.817 297.97 570.876 296.48 568.846 296.977C565.552 297.699 564.198 303.074 563.792 304.745Z" fill="#6D6C6C"/>
<path opacity="0.17" d="M582.834 318.34C582.112 318.34 582.112 326.967 580.127 337.807C578.909 344.401 576.427 357.816 570.425 367.165C559.73 383.832 537.89 387.58 529.587 388.574C536.717 389.568 547.682 389.794 558.377 384.103C581.571 371.727 583.827 341.872 584.233 336.452C584.865 327.328 583.556 318.34 582.834 318.34Z" fill="#6D6C6C"/>
<path d="M193.18 489.251C211.861 472.63 230.633 456.099 249.496 439.703C285.054 408.764 320.929 378.232 357.164 348.06C354.321 339.614 350.666 324.98 352.832 307.184C353.509 301.539 359.285 259.94 397.37 238.441C400.529 236.634 444.255 212.967 485.229 239.073C512.259 256.282 526.247 287.672 522.953 318.341C518.08 363.914 477.648 384.103 475.301 385.232C446.15 399.144 411.088 395.034 384.961 374.709C345.702 407.048 306.534 439.432 267.41 471.907C250.263 486.135 233.16 500.362 216.058 514.635C212.493 512.919 206.582 509.486 201.257 503.208C196.79 497.968 194.443 492.729 193.18 489.251Z" fill="#161616"/>
<path d="M438.795 379.406C478.321 379.406 510.363 348.669 510.363 310.753C510.363 272.837 478.321 242.1 438.795 242.1C399.269 242.1 367.227 272.837 367.227 310.753C367.227 348.669 399.269 379.406 438.795 379.406Z" fill="white" stroke="#161616" stroke-width="2" stroke-miterlimit="10"/>
<path d="M444.616 245.893C431.53 273.625 417.767 301.087 403.372 328.187C399.311 335.82 395.204 343.453 391.053 351.041C390.647 351.809 391.82 352.486 392.226 351.718C406.982 324.799 421.106 297.564 434.553 269.967C438.344 262.198 442.089 254.384 445.835 246.525C446.196 245.803 445.022 245.125 444.616 245.893Z" fill="#E8E8E8"/>
<path d="M466.682 252.623C452.333 275.297 438.705 298.377 425.754 321.864C425.348 322.632 426.521 323.309 426.927 322.541C439.878 299.055 453.506 275.975 467.856 253.301C468.307 252.578 467.134 251.901 466.682 252.623Z" fill="#E8E8E8"/>
<path d="M423.362 329.813C417.406 341.421 411.043 352.848 404.229 364.004C403.778 364.772 404.951 365.449 405.403 364.681C412.171 353.525 418.579 342.098 424.536 330.49C424.942 329.723 423.769 329 423.362 329.813Z" fill="#E8E8E8"/>
<path d="M448.407 295.938C440.826 310.211 433.29 324.484 425.709 338.756C425.303 339.524 426.476 340.202 426.882 339.434C434.463 325.161 441.999 310.889 449.58 296.616C449.986 295.848 448.813 295.171 448.407 295.938Z" fill="#E8E8E8"/>
<path opacity="0.08" d="M436.674 241.873C431.665 243.68 398.679 256.055 388.12 289.208C386.901 293.047 383.111 305.423 385.954 319.74C391.414 347.021 418.669 369.108 454.318 376.515C451.61 377.418 447.82 378.502 443.127 379.089C414.788 382.658 392.813 363.326 390.24 361.023C384.645 355.919 367.362 338.575 367.046 311.114C367.001 308.72 367.136 281.62 387.668 262.063C399.626 250.681 413.615 246.525 419.481 244.854C426.34 242.912 432.342 242.189 436.674 241.873Z" fill="#6D6C6C"/>
<path d="M172.603 381.213C175.852 380.806 180.725 380.761 184.29 383.652C191.961 389.885 186.05 403.435 189.84 417.752C191.871 425.431 197.241 435.774 212.854 446.027C219.036 449.143 224.181 451.492 227.745 453.118C232.845 455.421 236.094 456.731 236.048 458.493C236.003 460.254 232.799 461.564 230.498 462.332C233.251 464.906 234.65 468.159 233.702 470.643C232.98 472.585 230.994 473.533 228.783 474.617C226.256 475.882 224.135 476.153 221.699 476.469C217.141 477.056 214.885 477.327 212.809 476.469C209.605 475.114 208.161 472.133 206.04 467.842C204.867 465.494 203.423 461.835 202.656 457.093C197.557 454.744 190.247 450.679 182.981 443.859C180.139 441.194 153.786 415.901 162.089 394.04C163.352 390.969 166.014 386 172.603 381.213Z" fill="white" stroke="#161616" stroke-width="2" stroke-miterlimit="10"/>
<path d="M212.945 470.869C214.073 473.353 215.788 475.431 217.999 477.102C218.676 477.644 219.353 476.469 218.676 475.927C216.691 474.437 215.156 472.45 214.118 470.191C213.757 469.423 212.584 470.101 212.945 470.869Z" fill="#161616"/>
<path d="M218.36 470.146C219.713 472.766 221.744 474.934 224.226 476.56C224.948 477.011 225.625 475.837 224.903 475.385C222.601 473.94 220.751 471.908 219.488 469.469C219.127 468.701 217.954 469.378 218.36 470.146Z" fill="#161616"/>
<path d="M224.046 467.075C225.309 469.74 227.475 471.862 230.138 473.127C230.905 473.488 231.627 472.314 230.815 471.953C228.333 470.778 226.392 468.881 225.219 466.397C224.813 465.584 223.685 466.262 224.046 467.075Z" fill="#161616"/>
<path opacity="0.2" d="M173.731 381.303C172.738 385.774 171.655 392.82 172.603 401.312C175.085 422.811 188.983 436.993 191.285 439.297C202.747 450.679 210.237 449.143 214.795 459.306C216.013 462.016 218.179 468.158 224.046 471.365C226.347 472.585 228.513 473.036 229.957 473.217C229.19 473.849 227.926 474.707 226.257 475.43C223.459 476.65 221.022 476.695 217.187 476.74C214.344 476.785 212.9 476.785 211.636 476.198C208.974 474.978 207.71 472.449 207.214 471.184C205.409 466.306 203.649 461.428 201.844 456.55C193.045 452.034 180.59 443.994 170.753 430.218C166.647 424.482 159.788 414.636 160.374 402.802C160.645 397.427 162.36 393.678 162.766 392.775C165.97 386.136 171.294 382.703 173.731 381.303Z" fill="#6D6C6C"/>
<path opacity="0.32" d="M160.961 405.558C161.231 405.467 162.946 410.887 166.331 417.211C174.588 432.838 186.501 442.414 195.03 449.098C198.911 452.125 202.205 454.383 204.281 455.783C206.808 460.029 208.252 463.687 209.109 466.352C209.831 468.565 210.237 470.553 211.907 472.63C213.622 474.889 215.833 476.153 217.457 476.876C216.239 476.921 214.389 476.831 212.448 475.927C208.748 474.211 207.124 470.643 205.409 466.849C204.416 464.681 203.243 461.429 202.611 457.228C179.056 445.304 170.211 430.264 166.872 423.128C163.443 415.811 160.6 405.738 160.961 405.558Z" fill="#6D6C6C"/>
<path d="M198.325 339.975C195.121 341.24 197.016 347.563 191.872 353.299C189.345 356.145 186.276 357.5 184.155 358.268C185.509 360.3 188.171 363.597 192.549 366.217C195.662 368.114 198.64 369.017 200.716 369.424C201.393 368.204 202.521 366.307 203.92 364.049C208.929 356.145 210.734 355.287 211.005 352.667C211.681 346.253 202.431 338.349 198.325 339.975Z" fill="white" stroke="#161616" stroke-width="2" stroke-miterlimit="10"/>
<path d="M197.738 352.17C199.588 355.873 201.528 359.532 204.597 362.377C205.228 362.964 206.176 362.016 205.544 361.429C202.566 358.674 200.716 355.06 198.911 351.492C198.505 350.724 197.331 351.402 197.738 352.17Z" fill="#161616"/>
<path d="M196.384 349.731C198.459 353.796 200.716 357.816 204.687 360.3C205.364 360.706 206.041 359.803 205.499 359.216C204.19 357.816 202.837 356.416 201.573 355.015C201.257 355.332 200.941 355.648 200.625 355.964C201.393 356.777 202.205 357.545 203.107 358.177C203.423 358.403 204.416 358.855 204.597 359.126C204.867 359.577 204.597 360.3 204.461 360.752C204.912 360.887 205.319 360.977 205.77 361.113C205.815 360.887 205.815 360.661 205.86 360.481C205.95 359.893 205.228 359.261 204.732 359.803C204.732 359.306 204.597 358.809 204.281 358.403C203.875 358.629 203.514 358.855 203.107 359.08C203.604 359.758 204.1 360.435 204.597 361.113C204.958 360.842 205.318 360.571 205.68 360.3C205.273 359.848 204.958 359.397 204.642 358.9C204.236 358.313 203.107 358.674 203.423 359.442C203.694 360.029 203.784 360.255 204.19 360.752C204.732 361.429 205.68 360.481 205.138 359.803C205.003 359.577 204.867 359.351 204.732 359.08C204.326 359.261 203.92 359.442 203.514 359.622C203.92 360.21 204.326 360.752 204.777 361.294C205.273 361.881 206.311 361.113 205.86 360.481C205.364 359.803 204.867 359.126 204.371 358.448C203.874 357.725 202.837 358.358 203.198 359.126C203.649 360.029 204.551 362.152 205.77 360.797C205.409 360.571 205.003 360.345 204.642 360.119C204.597 360.345 204.596 360.571 204.551 360.752C204.416 361.61 205.634 361.971 205.86 361.113C206.176 360.029 206.943 359.532 206.041 358.448C205.634 357.951 204.958 357.725 204.461 357.409C203.423 356.732 202.521 355.919 201.663 355.015C201.077 354.383 200.129 355.332 200.716 355.964C202.024 357.364 203.333 358.764 204.642 360.164C204.912 359.803 205.183 359.442 205.454 359.08C201.708 356.732 199.633 352.847 197.647 349.008C197.151 348.24 195.978 348.963 196.384 349.731Z" fill="#161616"/>
<path d="M239.839 328.006C238.937 332.026 237.087 337.988 232.845 344.131C225.399 354.926 215.291 359.487 210.959 361.159C208.477 360.21 205.228 358.539 202.16 355.693C193.766 347.88 193.135 337.175 193.044 334.42C192.142 334.194 190.833 333.697 189.705 332.613C186.817 329.813 186.14 324.257 188.803 321.954C191.826 319.334 197.602 322.541 198.234 322.857C199.633 323.625 200.625 324.574 201.257 325.296C203.739 317.799 209.696 312.153 216.78 310.978C226.437 309.398 236.996 316.444 239.839 328.006Z" fill="white" stroke="#161616" stroke-width="2" stroke-miterlimit="10"/>
<path d="M228.919 338.801C227.114 342.866 224.451 346.343 221.022 349.189C220.345 349.731 221.293 350.679 221.97 350.137C225.534 347.247 228.242 343.679 230.092 339.478C230.453 338.665 229.28 337.988 228.919 338.801Z" fill="#161616"/>
<path d="M219.308 346.163C219.127 347.699 219.669 349.189 220.707 350.318C221.293 350.951 222.241 350.002 221.654 349.37C220.842 348.467 220.526 347.383 220.661 346.163C220.752 345.305 219.398 345.305 219.308 346.163Z" fill="#161616"/>
<path d="M216.555 338.439C217.728 336.813 219.127 335.367 220.706 334.058C220.345 333.832 219.939 333.606 219.578 333.38C218.992 335.187 217.728 336.632 216.059 337.535C216.329 337.897 216.6 338.258 216.871 338.619C217.909 337.355 218.947 336.135 219.984 334.871C220.526 334.193 219.578 333.245 219.037 333.922C217.999 335.187 216.961 336.406 215.923 337.671C215.427 338.258 216.059 339.116 216.735 338.755C218.721 337.671 220.165 335.909 220.887 333.787C221.113 333.064 220.255 332.748 219.759 333.109C218.089 334.464 216.645 336 215.427 337.761C214.885 338.484 216.059 339.161 216.555 338.439Z" fill="#161616"/>
<path d="M231.536 342.414C232.123 341.42 232.89 340.562 233.747 339.794C233.386 339.568 232.98 339.343 232.619 339.117C232.213 340.472 231.401 341.691 230.227 342.549C230.543 342.82 230.904 343.046 231.22 343.317C231.491 342.595 231.897 341.917 232.393 341.33C232.935 340.652 231.987 339.704 231.446 340.381C230.814 341.194 230.318 342.007 229.957 342.956C229.731 343.498 230.498 344.085 230.949 343.724C232.393 342.64 233.431 341.24 233.928 339.523C234.153 338.846 233.296 338.439 232.8 338.846C231.852 339.659 231.04 340.652 230.363 341.736C229.866 342.459 231.04 343.137 231.536 342.414Z" fill="#161616"/>
<path d="M211.907 335.097C212.584 336.678 212.945 338.304 212.945 339.975C212.945 340.427 213.622 340.427 213.622 339.975C213.622 338.168 213.216 336.407 212.494 334.736C212.313 334.329 211.727 334.691 211.907 335.097Z" fill="#161616"/>
<path d="M210.012 333.922C210.463 334.645 210.779 335.367 211.05 336.135C211.185 336.542 211.817 336.361 211.681 335.955C211.411 335.096 211.05 334.329 210.598 333.561C210.373 333.199 209.786 333.561 210.012 333.922Z" fill="#161616"/>
<path d="M220.435 330.219C222.105 329.722 223.684 330.851 223.729 332.613C223.729 333.245 224.767 333.29 224.767 332.613C224.677 330.219 222.511 328.593 220.164 329.225C219.533 329.406 219.803 330.399 220.435 330.219Z" fill="#161616"/>
<path d="M232.529 336.858C233.251 336.407 234.109 336.362 234.876 336.813C235.417 337.175 235.959 336.271 235.372 335.955C234.334 335.323 233.026 335.323 232.033 336C231.491 336.362 231.988 337.22 232.529 336.858Z" fill="#161616"/>
<path d="M210.508 348.466C211.591 350.409 213.441 351.809 215.607 352.396C216.464 352.622 216.825 351.312 215.968 351.086C214.118 350.589 212.629 349.46 211.681 347.789C211.23 347.021 210.056 347.699 210.508 348.466Z" fill="#161616"/>
<path d="M201.213 327.103C202.205 325.386 204.597 321.728 209.2 319.198C212.358 317.437 215.337 316.94 217.142 316.759C218.134 318.069 219.759 319.786 222.151 320.87C227.791 323.444 232.349 320.057 235.688 322.315C237.448 323.489 239.208 326.335 238.531 334.103C241.509 337.175 243.495 337.355 244.578 337.13C249.09 336.226 252.339 326.064 249.496 318.656C248.639 316.443 247.511 315.178 237.944 307.545C224.452 296.796 222.782 296.163 221.022 295.757C211.727 293.589 203.514 298.286 202.115 299.099C200.31 300.138 199.904 300.635 189.57 311.52C181.538 319.966 180.771 320.734 180.049 322.812C178.154 328.051 178.515 335.639 183.343 341.195C187.901 346.389 194.038 347.157 195.617 347.337C194.94 345.802 194.218 343.634 193.857 340.969C193.406 337.536 193.857 334.691 194.263 332.839C193.947 332.613 192.142 331.122 192.007 328.593C191.917 326.741 192.774 324.393 194.76 323.625C196.971 322.767 199.994 324.076 201.213 327.103Z" fill="#11345C"/>
<path d="M199.272 304.383C197.422 300.725 192.007 300.183 191.059 300.093C183.523 299.325 177.476 306.055 173.911 309.984C167.594 316.985 169.399 319.063 163.262 327.509C155.139 338.71 149.048 339.207 147.784 346.93C147.694 347.518 146.566 355.286 151.71 359.984C156.132 364.049 163.262 364.094 167.955 361.655C174.318 358.358 173.776 351.718 178.379 340.562C187.404 318.792 202.837 311.429 199.272 304.383Z" fill="#11345C"/>
<path opacity="0.12" d="M206.537 320.824C205.093 324.438 203.379 330.174 203.469 337.355C203.604 348.828 208.297 357.229 210.644 360.842C208.072 359.758 203.785 357.454 200.039 352.938C198.505 351.086 194.895 346.705 193.947 339.975C193.496 336.949 193.767 334.419 194.038 332.703C193.767 332.477 191.917 330.806 192.007 328.186C192.052 326.47 192.955 324.167 194.895 323.489C197.061 322.721 200.039 324.121 201.213 327.148C201.664 326.244 202.296 325.115 203.243 323.941C204.416 322.541 205.59 321.547 206.537 320.824Z" fill="#6D6C6C"/>
<path opacity="0.13" d="M198.594 353.886C198.233 354.699 197.827 355.512 197.331 356.325C195.075 360.119 192.142 362.648 189.84 364.184C189.028 363.687 187.945 362.919 186.862 361.745C185.689 360.48 184.967 359.216 184.561 358.312C186.32 357.77 190.698 356.099 193.676 351.718C194.714 350.137 195.345 348.602 195.706 347.337C196.654 349.55 197.602 351.718 198.594 353.886Z" fill="#6D6C6C"/>
<path opacity="0.18" d="M194.624 331.936C194.849 335.052 195.436 339.117 196.97 343.679C199.091 349.867 202.16 354.429 204.506 357.319C202.16 355.422 199.362 352.577 197.106 348.602C195.616 345.937 193.405 342.098 193.676 336.859C193.766 334.826 194.218 333.11 194.624 331.936Z" fill="#6D6C6C"/>
<path opacity="0.32" d="M201.528 300.229C199.633 302.08 187.81 314.004 189.435 330.942C190.112 338.169 193 343.634 195.076 346.841C193.632 346.75 190.834 346.434 187.81 344.673C184.787 342.911 183.072 340.608 182.305 339.433C181.719 338.485 180.997 336.949 180.545 335.007C180.545 335.007 179.733 331.213 181.222 326.516C182.802 321.367 189.931 311.34 201.528 300.229Z" fill="#32198E"/>
<path opacity="0.33" d="M177.115 307.545C178.153 308.223 172.422 320.282 166.105 330.806C160.419 340.246 157.621 342.866 157.215 348.647C156.809 354.654 159.336 359.803 161.592 363.281C160.464 363.371 156.222 363.507 152.522 360.571C150.491 358.945 149.408 357.048 148.912 355.874C147.829 352.712 146.881 348.105 148.777 343.769C150.04 340.833 151.529 340.607 156.177 335.91C160.284 331.755 164.345 327.645 167.323 321.547C168.857 318.431 169.399 316.172 172.016 312.649C173.731 310.301 176.529 307.139 177.115 307.545Z" fill="#32198E"/>
</g>
<defs>
<clipPath id="clip0">
<rect width="722" height="542" fill="white" transform="translate(0 115)"/>
</clipPath>
</defs>
</svg>
