<svg width="857" height="657" viewBox="0 0 857 657" fill="none" xmlns="http://www.w3.org/2000/svg">
<path d="M789.5 55.0008C915.5 155.501 845.5 400.001 731.5 522.5C428.501 454.994 1.5 724.624 1.5 586C349 361 -311.499 527.501 320.5 249.501C588.5 -91.4995 715 -1.49888 789.5 55.0008Z" fill="#F2F9FF"/>
<g clip-path="url(#clip0)">
<path d="M-192.472 330.714C-192.472 443.585 -322.032 641 -443.193 641C-564.353 641 -873 492.814 -873 379.942C-592.431 312.813 -701.376 208.39 -547.66 130.816C-283.508 -2.49228 34.3707 206.898 -192.472 330.714Z" fill="#C4C4C4"/>
<path d="M77.0736 573.984C70.8915 568.925 64.4386 564.092 58.7078 558.537C56.0454 555.962 53.5635 553.162 51.6683 549.955C50.6755 548.329 49.8632 546.568 49.2766 544.761C48.7802 543.271 48.2839 540.967 50.4499 540.741C51.2621 540.651 52.1195 540.832 52.8866 541.057C53.744 541.283 54.105 539.974 53.2476 539.748C50.6755 539.115 46.9753 539.296 47.3814 542.909C47.8778 546.974 50.5401 551.13 52.9769 554.246C59.2944 562.376 68.2291 568.474 76.126 574.932C76.8029 575.474 77.7505 574.526 77.0736 573.984Z" fill="#837B7B"/>
<path d="M53.4732 539.972C50.856 536.856 48.8254 533.243 47.6521 529.313C47.1106 527.552 46.885 525.745 46.3435 524.029C45.9825 522.945 45.3056 521.951 46.2984 521.002C46.7496 520.596 47.4265 520.325 47.9229 519.964C49.4571 518.925 50.3145 517.705 48.4192 516.395C47.3362 515.673 45.9825 515.537 44.8092 514.95C43.2299 514.092 42.0115 512.692 41.109 511.201C39.2137 508.13 38.1759 504.517 37.0477 501.129C35.694 497.109 34.3854 492.999 33.2121 488.934C30.8656 480.714 28.9252 472.403 27.3459 464.047C27.2105 464.318 27.03 464.589 26.8946 464.86C35.3781 462.06 43.8165 469.241 49.8632 474.345C56.0905 479.585 61.686 485.592 66.6046 492.096C76.7577 505.646 83.8424 521.273 88.2646 537.579C90.9721 547.56 92.6869 557.813 93.6345 568.111C93.7247 568.969 95.0785 568.969 94.9882 568.111C91.6941 532.565 78.6079 496.567 50.5852 473.126C44.1775 467.796 35.5135 460.615 26.5787 463.55C26.2177 463.686 26.0372 464.002 26.1275 464.363C27.7971 473.306 29.918 482.159 32.4901 490.921C33.7085 495.032 34.972 499.097 36.3709 503.116C37.499 506.368 38.5369 509.846 40.5224 512.692C41.2895 513.776 42.1469 514.769 43.2299 515.537C44.5385 516.486 46.0727 516.576 47.3814 517.389C49.0961 518.428 46.6142 519.241 45.7117 519.873C45.0349 520.37 44.4031 520.957 44.2677 521.861C44.0872 523.216 45.2605 524.796 45.5764 526.061C46.0276 528.003 46.4337 529.9 47.1557 531.797C48.4644 535.14 50.3145 538.211 52.6159 540.966C53.0671 541.598 54.0147 540.65 53.4732 539.972Z" fill="#837B7B"/>
<path d="M34.1597 471.321C53.0219 492.639 67.6876 517.526 77.2541 544.355C79.9164 551.807 82.1276 559.395 83.9777 567.074C84.2033 567.932 85.4668 567.571 85.2863 566.712C78.6078 538.89 66.6046 512.377 49.9986 489.026C45.3958 482.522 40.4321 476.289 35.1524 470.327C34.5207 469.74 33.5731 470.688 34.1597 471.321Z" fill="#837B7B"/>
<path d="M37.2284 501.039C39.3944 501.581 41.5152 502.304 43.591 503.162C44.4032 503.478 44.7642 502.168 43.952 501.852C41.8762 500.994 39.7554 500.271 37.5894 499.729C36.7771 499.503 36.4161 500.813 37.2284 501.039Z" fill="#837B7B"/>
<path d="M53.1127 531.03C56.0458 530.939 58.4825 532.475 60.8742 533.921C63.0402 535.23 65.161 536.54 67.2368 537.986C71.5237 540.967 75.4044 544.49 77.9765 549.097C78.3827 549.864 79.5559 549.187 79.1498 548.419C76.4423 543.631 72.381 539.928 67.9137 536.856C65.5672 535.23 63.0853 533.695 60.6034 532.249C58.2569 530.849 55.8653 529.675 53.0675 529.72C52.2553 529.675 52.2553 531.03 53.1127 531.03Z" fill="#837B7B"/>
<path d="M71.0722 522.901C69.8538 515.584 69.899 508.177 71.2076 500.905C71.343 500.047 70.0343 499.685 69.899 500.543C68.5452 508.086 68.5001 515.719 69.7636 523.262C69.899 524.121 71.2076 523.759 71.0722 522.901Z" fill="#837B7B"/>
<path d="M68.7702 491.961C69.7178 483.018 71.613 474.075 74.7718 465.674C77.4342 458.583 81.4052 451.627 88.219 447.833C87.858 447.653 87.5422 447.427 87.1812 447.246C87.9032 459.802 95.2585 470.959 95.5744 483.56C95.7549 483.334 95.8903 483.108 96.0708 482.928C94.356 483.379 92.6413 483.831 90.9265 484.283C90.4302 484.418 90.2497 485.051 90.6107 485.412C92.6864 487.399 93.0925 490.2 93.1828 492.955C93.2279 494.4 93.995 501.401 92.3254 501.853C91.9193 501.988 91.6937 502.485 91.9193 502.846C96.9282 510.886 94.6268 520.416 93.2279 529.088C91.7839 538.031 91.6034 547.064 92.6413 556.007C92.7315 556.866 94.0853 556.866 93.995 556.007C92.8218 545.935 93.4084 536.044 95.1232 526.107C96.522 518.067 97.6502 509.441 93.1377 502.124C93.0023 502.44 92.8669 502.801 92.7315 503.117C93.9499 502.801 94.356 501.853 94.5365 500.678C94.8524 498.51 94.6268 496.116 94.5817 493.948C94.5365 490.516 94.1755 486.948 91.5583 484.463C91.468 484.825 91.3778 485.231 91.2424 485.593C92.9572 485.141 94.6719 484.689 96.3867 484.238C96.6574 484.147 96.883 483.876 96.883 483.605C96.5672 470.959 89.2569 459.848 88.4898 447.291C88.4447 446.794 87.9483 446.433 87.4519 446.704C80.7283 450.453 76.667 457.092 73.8693 464.093C70.3044 472.991 68.3189 482.521 67.3262 492.051C67.3262 492.819 68.6799 492.819 68.7702 491.961Z" fill="#837B7B"/>
<path d="M85.1513 454.022C80.3229 472.314 77.841 491.194 77.7959 510.119C77.7959 510.977 79.1496 510.977 79.1496 510.119C79.1948 491.284 81.6315 472.585 86.4148 454.383C86.6855 453.525 85.3769 453.164 85.1513 454.022Z" fill="#837B7B"/>
<path d="M614.963 426.965C617.851 436.27 620.017 445.755 621.371 455.42C622.048 460.298 622.544 465.267 622.77 470.19C622.86 471.454 622.905 472.764 622.95 474.029C622.996 474.797 622.77 476.061 623.041 476.784C623.311 477.462 624.259 477.913 624.801 478.365C625.748 479.133 626.696 479.901 627.598 480.668C627.644 480.307 627.689 479.946 627.734 479.584C626.47 480.352 625.252 480.714 623.763 480.759C623.447 480.759 623.221 480.985 623.131 481.256C621.822 485.321 622.77 489.611 625.703 492.773C625.884 492.367 626.019 492.005 626.199 491.599C621.506 491.418 621.416 496.838 621.867 500.18C622.499 504.833 623.402 509.485 624.71 514.001C627.328 522.854 631.705 531.255 638.88 537.307C639.557 537.849 640.504 536.901 639.827 536.359C633.781 531.255 629.719 524.39 627.102 516.937C625.884 513.414 624.936 509.801 624.214 506.188C623.627 503.161 620.694 492.773 626.199 492.954C626.831 492.999 627.057 492.231 626.696 491.779C624.124 488.979 623.312 485.185 624.485 481.617C624.259 481.798 624.033 481.933 623.853 482.114C625.568 482.114 627.012 481.707 628.501 480.759C628.817 480.533 628.997 479.991 628.636 479.675C626.967 478.32 624.665 477.145 624.394 474.887C624.124 472.493 624.214 470.009 624.034 467.615C623.718 463.144 623.266 458.672 622.589 454.201C621.236 444.851 619.115 435.637 616.317 426.604C616.001 425.746 614.693 426.107 614.963 426.965Z" fill="#837B7B"/>
<path d="M617.174 429C615.324 426.561 618.799 424.754 620.83 425.251C622.86 425.793 624.53 427.419 625.929 428.864C628.501 431.484 630.531 434.555 632.291 437.762C635.946 444.356 639.015 451.402 641.722 458.403C647.273 472.811 651.108 487.897 653.139 503.163C654.267 511.835 654.854 520.552 654.854 529.27C654.854 530.128 656.208 530.128 656.208 529.27C656.208 511.113 653.726 493.001 648.852 475.566C646.461 467.075 643.527 458.764 640.053 450.634C636.849 443.137 633.419 435.097 627.914 428.954C625.703 426.47 621.958 422.631 618.257 423.941C616.001 424.709 614.512 427.6 616.046 429.677C616.543 430.355 617.716 429.722 617.174 429Z" fill="#837B7B"/>
<path d="M649.665 478.637C651.966 470.914 654.628 463.371 657.652 455.918C659.231 452.079 660.901 448.24 662.706 444.491C663.563 442.73 664.421 440.923 665.323 439.162C665.91 438.032 667.67 433.064 669.52 433.516C670.061 433.651 670.422 433.2 670.332 432.703C669.881 429.902 673.039 427.509 674.709 425.657C676.198 424.031 677.642 422.405 679.131 420.779C682.2 417.436 685.223 414.094 688.292 410.707C687.931 410.616 687.525 410.526 687.164 410.39C691.811 421.908 690.593 434.509 687.886 446.343C686.487 452.395 684.727 458.403 683.238 464.455C682.2 468.655 681.072 475.024 675.927 475.927C675.566 475.972 675.386 476.424 675.476 476.74C676.785 482.115 673.175 487.083 670.783 491.6C668.527 495.846 666.451 500.227 664.556 504.698C660.856 513.416 657.923 522.404 655.711 531.573C655.486 532.431 656.794 532.792 657.02 531.934C659.457 521.771 662.796 511.88 667.083 502.35C669.114 497.833 671.37 493.407 673.761 489.071C675.927 485.141 677.913 480.986 676.83 476.424C676.695 476.695 676.514 476.966 676.379 477.237C680.756 476.469 682.651 472.043 683.779 468.159C685.629 461.655 687.299 454.97 688.878 448.376C691.902 435.819 693.526 422.314 688.562 410.029C688.382 409.577 687.795 409.306 687.434 409.713C683.599 413.913 679.763 418.159 675.927 422.36C674.122 424.347 672.182 426.244 670.512 428.367C669.429 429.812 668.843 431.167 669.114 432.974C669.384 432.703 669.655 432.432 669.926 432.161C666.677 431.348 665.097 436.677 664.014 438.8C661.848 443.091 659.818 447.427 657.968 451.808C654.267 460.39 651.109 469.243 648.446 478.186C648.085 479.089 649.394 479.45 649.665 478.637Z" fill="#837B7B"/>
<path d="M684.952 422.404C670.873 448.691 656.523 475.791 653.139 505.827C653.049 506.685 654.403 506.685 654.493 505.827C657.877 476.017 672.182 449.098 686.125 423.082C686.577 422.314 685.403 421.636 684.952 422.404Z" fill="#837B7B"/>
<path d="M626.245 440.472C637.21 469.514 643.754 500.137 645.694 531.121C645.739 531.98 647.093 531.98 647.048 531.121C645.107 500.002 638.564 469.288 627.554 440.111C627.238 439.343 625.929 439.659 626.245 440.472Z" fill="#837B7B"/>
<path d="M56.0456 425.928C83.5718 421.005 112.001 421.276 139.437 426.741C153.019 429.451 166.331 433.381 179.147 438.53C192.549 443.905 205.409 450.364 218.541 456.326C268.088 478.819 321.11 493.543 375.124 499.957C405.764 503.615 436.72 504.564 467.495 502.847C468.353 502.802 468.353 501.447 467.495 501.492C412.262 504.609 356.623 498.963 303.105 484.916C276.256 477.87 249.948 468.701 224.542 457.545C211.366 451.764 198.505 445.26 185.284 439.614C172.649 434.239 159.607 429.903 146.25 426.832C116.603 420.057 85.6476 419.289 55.6846 424.664C54.8272 424.754 55.1882 426.064 56.0456 425.928Z" fill="#837B7B"/>
<path d="M301.526 483.921C327.202 485.231 351.976 475.972 376.117 468.564C401.387 460.841 426.748 453.343 452.153 446.026C477.423 438.754 502.693 431.121 528.369 425.295C553.955 419.513 580.037 416.758 606.255 415.99C635.451 415.087 664.647 416.397 693.797 417.752C694.655 417.797 694.655 416.442 693.797 416.397C642.31 414.048 590.145 411.745 539.244 421.636C513.433 426.65 488.163 434.328 462.893 441.509C437.487 448.781 412.127 456.234 386.812 463.867C372.778 468.113 358.789 472.72 344.665 476.604C330.586 480.488 316.146 483.289 301.481 482.566C300.668 482.521 300.668 483.876 301.526 483.921Z" fill="#837B7B"/>
<path d="M191.962 437.581C209.786 442.73 228.288 439.161 246.067 435.729C265.11 432.07 284.333 429.586 303.737 428.818C342.183 427.373 380.404 432.883 418.715 434.419C439.924 435.277 461.223 434.78 482.161 431.302C483.018 431.167 482.657 429.857 481.8 429.993C444.12 436.271 405.854 432.522 368.04 429.676C349.132 428.231 330.18 427.012 311.182 427.328C292.365 427.644 273.548 429.451 254.956 432.748C234.379 436.361 212.99 442.323 192.278 436.316C191.466 436.045 191.105 437.355 191.962 437.581Z" fill="#837B7B"/>
<path d="M271.834 524.616C277.61 522.222 283.837 521.003 290.109 521.183C295.93 521.364 301.165 523.261 306.805 524.435C311.002 525.339 315.199 525.339 318.583 522.358C319.892 521.228 321.02 520.054 322.915 520.641C324.314 521.048 325.487 521.996 326.796 522.583C328.33 523.306 329.909 523.577 331.534 523.261C335.415 522.493 338.348 519.286 341.732 517.434C347.463 514.363 352.968 518.473 358.564 519.964C370.206 523.08 382.66 522.132 394.573 521.996C409.239 521.861 423.95 521.951 438.525 520.144C439.383 520.054 439.383 518.699 438.525 518.789C425.439 520.37 412.217 520.461 399.041 520.596C386.496 520.732 373.229 521.906 360.865 519.106C357.977 518.473 355.27 517.525 352.517 516.396C350.125 515.402 347.643 514.453 345.026 514.815C340.92 515.357 337.851 518.609 334.377 520.596C332.572 521.635 330.586 522.358 328.51 521.77C326.254 521.093 324.404 519.106 321.922 519.015C319.576 518.97 318.448 520.867 316.733 522.087C314.341 523.758 311.318 523.803 308.52 523.351C302.564 522.403 297.013 520.099 290.921 519.828C284.288 519.512 277.655 520.732 271.472 523.306C270.66 523.622 271.021 524.932 271.834 524.616Z" fill="#837B7B"/>
<path d="M300.623 484.327C301.435 484.463 302.202 484.643 303.015 484.779C303.872 484.96 304.188 483.785 303.376 483.469C302.879 483.288 302.383 483.108 301.841 482.927C301.119 482.656 300.623 483.83 301.3 484.146C305.451 486.314 309.783 488.031 314.296 489.25C315.153 489.476 315.514 488.166 314.657 487.941C310.235 486.766 306.038 485.095 301.977 482.972C301.796 483.379 301.616 483.785 301.435 484.192C301.932 484.372 302.428 484.553 302.97 484.734C303.105 484.282 303.195 483.875 303.331 483.424C302.518 483.288 301.751 483.108 300.939 482.972C300.127 482.837 299.766 484.146 300.623 484.327Z" fill="#837B7B"/>
<path d="M239.975 546.929C238.983 545.755 238.08 544.535 237.313 543.18C236.952 542.503 236.501 541.78 236.275 541.012C235.959 540.515 235.914 539.928 236.095 539.341C235.959 538.709 236.14 538.212 236.591 537.85C237.268 535.999 236.456 534.056 236.004 532.159C235.327 529.178 234.651 526.197 233.974 523.216C233.613 521.636 233.252 520.1 232.936 518.519C232.755 517.796 232.62 517.119 232.439 516.396C232.169 515.132 231.898 514.544 232.846 513.506C233.297 512.557 233.974 512.376 234.876 513.099C235.282 513.506 235.688 513.912 236.095 514.319C236.546 514.906 236.862 515.583 237.223 516.216C237.854 517.39 238.486 518.564 239.073 519.739C240.472 522.539 241.69 525.43 242.728 528.365C244.713 533.876 246.067 539.567 246.879 545.393C247.105 545.122 247.331 544.806 247.511 544.535C247.601 544.625 247.647 544.761 247.737 544.851C247.962 543.993 246.654 543.632 246.428 544.49C246.248 545.303 246.654 545.89 247.511 545.89C248.008 545.89 248.233 545.484 248.143 545.032C247.105 537.579 245.165 530.308 242.186 523.397C240.788 520.145 239.298 516.532 237.223 513.641C236.095 512.06 234.064 510.615 232.124 511.744C229.912 513.009 230.95 516.125 231.402 518.067C232.304 522.042 233.207 526.017 234.064 529.991C234.47 531.888 235.327 534.011 235.418 535.953C235.463 537.534 234.154 538.257 234.38 539.838C234.831 542.774 237.042 545.755 238.892 547.923C239.569 548.51 240.517 547.561 239.975 546.929Z" fill="#837B7B"/>
<path d="M244.127 527.507C243.45 523.442 243.54 519.287 244.488 515.267C244.713 514.228 245.029 513.234 245.39 512.241C246.022 510.524 246.924 510.705 247.827 511.97C249 513.641 249.903 515.493 250.579 517.39C253.332 525.249 252.114 533.695 250.94 541.689C250.805 542.548 252.114 542.909 252.249 542.051C253.738 531.979 255.272 520.551 249.181 511.563C248.504 510.57 247.601 508.898 246.202 509.124C244.713 509.395 244.217 511.428 243.811 512.602C242.186 517.525 241.916 522.765 242.773 527.823C242.999 528.727 244.307 528.365 244.127 527.507Z" fill="#837B7B"/>
<path d="M246.563 517.12C247.917 524.166 248.413 531.257 248.187 538.393C248.142 539.251 249.496 539.251 249.541 538.393C249.812 531.121 249.225 523.895 247.871 516.758C247.691 515.9 246.427 516.261 246.563 517.12Z" fill="#837B7B"/>
<path d="M80.5934 420.824C79.2848 417.934 76.3517 415.901 74.5015 413.372C72.4709 410.571 70.7562 407.545 69.0865 404.564C68.9512 404.88 68.8158 405.242 68.6804 405.558C77.7505 403.932 82.985 412.875 84.7449 420.418C84.9254 421.276 86.234 420.915 86.0535 420.056C84.1132 411.701 78.1567 402.532 68.3194 404.248C67.8682 404.338 67.7328 404.88 67.9133 405.242C69.5829 408.268 71.2525 411.294 73.3283 414.049C75.1784 416.579 78.1567 418.701 79.4202 421.502C79.7812 422.315 80.9544 421.637 80.5934 420.824Z" fill="#837B7B"/>
<path d="M84.5192 413.552C85.1961 406.461 91.9648 402.035 94.5821 395.756C94.2662 395.892 93.9052 396.027 93.5893 396.163C96.6127 398.105 94.3564 405.151 93.4991 407.861C92.2356 411.836 90.1598 415.449 87.4974 418.611C86.9559 419.288 87.9036 420.237 88.4451 419.559C91.7843 415.63 94.1759 411.068 95.3943 406.054C96.1614 402.893 97.6054 397.157 94.2662 394.989C93.8601 394.718 93.4088 395.034 93.2734 395.395C90.5659 401.899 83.8874 406.145 83.1654 413.552C83.0752 414.41 84.4289 414.41 84.5192 413.552Z" fill="#837B7B"/>
<path d="M485.229 434.058C484.823 433.019 484.417 431.98 484.011 430.941C483.785 430.445 483.605 429.903 483.379 429.406C483.108 429.044 483.108 428.638 483.334 428.231C483.74 428.593 484.552 428.367 484.507 427.735C484.281 425.476 484.056 423.173 483.83 420.914C483.785 420.372 483.244 418.25 483.559 417.843C484.958 415.901 485.906 419.108 486.041 419.605C487.26 423.76 487.215 428.548 487.169 432.838C487.169 433.697 488.523 433.697 488.523 432.838C488.568 429.315 488.388 425.838 487.891 422.36C487.576 420.147 487.215 416.94 485.049 415.63C483.65 414.772 482.476 415.675 482.206 417.166C481.935 418.611 482.386 420.327 482.522 421.727C482.702 423.715 482.928 425.702 483.108 427.689C483.514 427.509 483.875 427.373 484.281 427.193C483.514 426.47 482.341 426.605 481.89 427.599C481.574 428.277 481.845 428.999 482.07 429.677C482.612 431.258 483.334 432.793 483.92 434.374C484.236 435.232 485.545 434.871 485.229 434.058Z" fill="#837B7B"/>
<path d="M488.252 426.695C488.072 420.371 489.38 414.184 492.133 408.447C491.772 408.493 491.411 408.538 491.05 408.583C493.983 411.022 492.043 417.616 491.546 420.778C490.87 425.024 490.012 429.269 488.929 433.425C488.703 434.283 490.012 434.644 490.238 433.786C491.546 428.727 492.539 423.578 493.261 418.384C493.712 415.042 495.021 410.119 491.998 407.589C491.682 407.318 491.14 407.318 490.915 407.725C488.072 413.642 486.673 420.055 486.853 426.65C486.944 427.553 488.297 427.553 488.252 426.695Z" fill="#837B7B"/>
<path d="M251.437 564.95C254.28 562.059 258.702 565.943 261.996 565.763C263.575 565.672 265.019 565.085 266.463 564.588C268.404 563.956 270.254 563.73 272.284 563.911C280.317 564.588 288.123 565.175 296.201 564.633C297.058 564.588 297.058 563.233 296.201 563.278C291.824 563.549 287.492 563.64 283.114 563.459C278.692 563.278 274.089 562.194 269.712 562.511C267.952 562.646 266.328 563.233 264.658 563.775C262.222 564.543 260.371 564.408 258.025 563.549C255.453 562.601 252.565 561.833 250.444 564.001C249.857 564.633 250.805 565.582 251.437 564.95Z" fill="#837B7B"/>
<path d="M166.196 575.926C169.354 572.493 174.905 572.267 178.244 575.519C178.289 575.158 178.334 574.796 178.379 574.435C176.033 575.564 173.641 576.061 171.069 575.926C170.212 575.88 170.212 577.235 171.069 577.281C173.912 577.416 176.529 576.874 179.101 575.609C179.508 575.429 179.553 574.842 179.237 574.525C175.356 570.777 168.903 570.957 165.248 574.932C164.661 575.609 165.609 576.558 166.196 575.926Z" fill="#837B7B"/>
<path d="M40.4317 588.12C38.1303 587.94 35.8289 588.617 34.069 590.198C32.986 591.192 31.4518 593.043 32.8507 594.353C34.43 595.799 38.2205 594.85 40.0707 594.669C43.455 594.308 46.7492 593.676 50.0433 592.818C50.9007 592.592 50.5397 591.282 49.6823 591.508C45.7113 592.547 41.6952 593.224 37.5888 593.495C36.7765 593.54 35.9192 593.631 35.1069 593.631C33.0763 593.54 34.0239 592.005 35.0167 591.146C36.5058 589.791 38.4462 589.295 40.4317 589.475C41.3342 589.52 41.289 588.165 40.4317 588.12Z" fill="#837B7B"/>
<path d="M104.915 550.859C105.006 550.498 105.276 550.272 105.637 550.272C105.953 550.227 106.269 550.182 106.54 550.137C107.262 550.046 107.939 550.091 108.661 550.182C110.06 550.362 111.323 550.859 112.542 551.627C112.587 551.221 112.632 550.814 112.722 550.408C111.052 550.995 109.383 551.13 107.623 550.859C106.766 550.724 106.405 552.034 107.262 552.169C109.247 552.485 111.143 552.35 113.083 551.717C113.625 551.537 113.76 550.814 113.264 550.498C110.917 549.007 107.849 548.285 105.096 549.053C103.607 549.459 102.434 551.763 104.554 552.214C105.412 552.35 105.773 551.04 104.915 550.859Z" fill="#837B7B"/>
<path d="M142.279 240.247C131.539 236.453 123.868 226.02 122.695 214.728C121.476 203.075 128.019 191.964 137.857 186.002C148.461 179.588 163.533 179.543 172.242 189.254C176.709 194.177 179.462 200.907 181.086 207.276C182.756 213.825 183.027 221.097 179.281 227.013C175.491 232.93 168.722 236.227 162.36 238.712C155.636 241.376 147.559 243.454 140.97 239.299C140.248 238.847 139.571 240.021 140.293 240.473C146.205 244.177 153.335 243.228 159.652 241.151C165.834 239.118 172.377 236.273 177.161 231.666C187.855 221.413 183.478 204.475 176.8 193.229C173.28 187.267 168 182.886 161.277 181.079C154.869 179.363 148.01 179.95 141.918 182.434C130.727 187.041 121.973 197.791 121.251 210.076C120.438 223.626 129.148 237.04 141.918 241.557C142.73 241.873 143.091 240.563 142.279 240.247Z" fill="#837B7B"/>
<path d="M481.574 502.44C512.349 500.498 542.944 496.343 573.088 489.974C581.797 488.123 590.461 486.09 599.08 483.877C599.937 483.651 599.576 482.341 598.719 482.567C568.846 490.2 538.432 495.711 507.747 498.917C499.037 499.821 490.328 500.543 481.619 501.085C480.717 501.131 480.717 502.486 481.574 502.44Z" fill="#837B7B"/>
<path d="M411.043 535.05C415.014 535.727 419.076 535.682 423.002 534.734C425.438 534.146 427.198 533.198 429.725 534.011C431.305 534.508 432.794 534.688 434.418 534.372C436.223 534.011 437.893 533.108 439.427 532.114C441.097 530.985 442.766 529.404 444.797 528.997C447.144 528.546 449.264 530.398 451.521 530.894C453.145 531.256 454.815 531.211 456.439 530.94C457.297 530.804 456.936 529.494 456.078 529.63C453.235 530.127 451.024 529.404 448.452 528.275C447.369 527.778 446.331 527.507 445.113 527.597C441.458 528.004 438.931 531.436 435.546 532.656C433.38 533.424 431.621 533.153 429.5 532.475C427.875 531.978 426.702 532.249 425.122 532.746C420.655 534.146 416.098 534.553 411.495 533.785C410.592 533.604 410.186 534.914 411.043 535.05Z" fill="#837B7B"/>
<path d="M187.45 593.812C222.512 593.812 257.574 593.812 292.636 593.812C294.396 593.812 294.396 591.102 292.636 591.102C257.574 591.102 222.512 591.102 187.45 591.102C185.69 591.102 185.69 593.812 187.45 593.812Z" fill="#161616"/>
<path d="M300.171 592.999C304.278 592.999 308.384 592.999 312.491 592.999C314.25 592.999 314.25 590.289 312.491 590.289C308.384 590.289 304.278 590.289 300.171 590.289C298.412 590.289 298.412 592.999 300.171 592.999Z" fill="#161616"/>
<path d="M321.606 592.593C322.915 592.593 324.268 592.593 325.577 592.593C327.337 592.593 327.337 589.883 325.577 589.883C324.268 589.883 322.915 589.883 321.606 589.883C319.846 589.883 319.846 592.593 321.606 592.593Z" fill="#161616"/>
<path d="M74.3212 603.749C100.268 603.749 126.17 603.749 152.117 603.749C153.877 603.749 153.877 601.039 152.117 601.039C126.17 601.039 100.268 601.039 74.3212 601.039C72.6065 601.039 72.6065 603.749 74.3212 603.749Z" fill="#161616"/>
<path d="M159.652 603.749C166.421 603.749 173.145 603.749 179.913 603.749C181.673 603.749 181.673 601.039 179.913 601.039C173.145 601.039 166.421 601.039 159.652 601.039C157.938 601.039 157.938 603.749 159.652 603.749Z" fill="#161616"/>
<path d="M191.42 602.935C191.826 602.935 192.233 602.935 192.594 602.935C193.316 602.935 193.992 602.302 193.947 601.58C193.902 600.857 193.361 600.225 192.594 600.225C192.187 600.225 191.781 600.225 191.42 600.225C190.698 600.225 190.021 600.857 190.067 601.58C190.112 602.302 190.653 602.935 191.42 602.935Z" fill="#161616"/>
<path d="M60.0611 604.11C61.0087 604.11 61.9112 604.11 62.8589 604.11C64.6187 604.11 64.6187 601.4 62.8589 601.4C61.9112 601.4 61.0087 601.4 60.0611 601.4C58.3012 601.4 58.3012 604.11 60.0611 604.11Z" fill="#161616"/>
<path d="M417.632 554.472C454.003 554.472 490.374 554.472 526.79 554.472C528.55 554.472 528.55 551.762 526.79 551.762C490.419 551.762 454.048 551.762 417.632 551.762C415.873 551.762 415.873 554.472 417.632 554.472Z" fill="#161616"/>
<path d="M541.049 552.892C573.99 552.892 606.931 552.892 639.872 552.892C641.632 552.892 641.632 550.182 639.872 550.182C606.931 550.182 573.99 550.182 541.049 550.182C539.334 550.182 539.334 552.892 541.049 552.892Z" fill="#161616"/>
<path d="M648.627 552.077C651.289 552.077 653.906 552.077 656.569 552.077C658.328 552.077 658.328 549.367 656.569 549.367C653.906 549.367 651.289 549.367 648.627 549.367C646.867 549.367 646.867 552.077 648.627 552.077Z" fill="#161616"/>
<path d="M613.7 536.991C621.236 536.991 628.772 536.991 636.307 536.991C638.067 536.991 638.067 534.281 636.307 534.281C628.772 534.281 621.236 534.281 613.7 534.281C611.94 534.281 611.94 536.991 613.7 536.991Z" fill="#161616"/>
<path d="M643.844 536.585C645.694 536.585 647.544 536.585 649.394 536.585C651.154 536.585 651.154 533.875 649.394 533.875C647.544 533.875 645.694 533.875 643.844 533.875C642.129 533.875 642.129 536.585 643.844 536.585Z" fill="#161616"/>
<path d="M395.792 562.421C405.449 562.421 415.105 562.421 424.762 562.421C426.522 562.421 426.522 559.711 424.762 559.711C415.105 559.711 405.449 559.711 395.792 559.711C394.077 559.711 394.077 562.421 395.792 562.421Z" fill="#161616"/>
<path d="M435.095 562.015C439.202 562.015 443.308 562.015 447.414 562.015C449.174 562.015 449.174 559.305 447.414 559.305C443.308 559.305 439.202 559.305 435.095 559.305C433.335 559.305 433.335 562.015 435.095 562.015Z" fill="#161616"/>
<path d="M452.964 568.79C455.762 568.79 458.515 568.79 461.313 568.79C463.072 568.79 463.072 566.08 461.313 566.08C458.515 566.08 455.762 566.08 452.964 566.08C451.205 566.08 451.205 568.79 452.964 568.79Z" fill="#161616"/>
<path d="M260.777 342.323C259.153 340.29 265.29 339.026 266.282 338.619C268.223 337.761 269.441 336.18 269.892 334.103C270.344 331.98 269.892 329.721 270.524 327.644C271.472 324.572 274.991 324.753 277.609 324.889C279.369 324.979 279.323 322.269 277.609 322.179C274.63 321.998 271.201 322.088 269.125 324.527C267.275 326.695 267.636 329.631 267.41 332.296C267.23 334.69 266.328 335.864 263.981 336.542C262.627 336.948 261.274 337.174 260.145 338.032C258.07 339.523 257.212 342.142 258.882 344.22C259.92 345.62 261.86 343.678 260.777 342.323Z" fill="#161616"/>
<path d="M270.389 344.583C269.171 343.137 271.969 341.692 272.871 341.15C274.09 340.427 275.128 339.75 276.03 338.666C277.88 336.453 279.099 332.252 282.438 332.072C284.153 331.981 284.198 329.271 282.438 329.362C276.888 329.633 276.436 335.414 272.646 338.124C271.021 339.253 269.081 339.885 268.043 341.692C267.095 343.318 267.276 345.08 268.449 346.48C269.577 347.835 271.518 345.893 270.389 344.583Z" fill="#161616"/>
<path d="M481.845 198.378C481.664 201.268 479.408 204.746 482.115 207.185C484.462 209.263 487.395 207.727 490.057 207.908C492.99 208.134 491.727 210.844 491.366 212.831C491.095 214.322 490.96 215.948 491.637 217.393C492.72 219.651 495.653 221.097 497.819 219.471C499.172 218.432 497.819 216.083 496.465 217.122C494.254 218.793 493.803 214.773 494.028 213.554C494.254 212.244 494.705 210.934 494.75 209.579C494.795 207.682 493.803 206.192 492.043 205.559C489.877 204.791 487.936 205.65 485.77 205.604C481.845 205.514 484.462 200.726 484.597 198.378C484.687 196.616 481.98 196.616 481.845 198.378Z" fill="#161616"/>
<path d="M497.368 201.495C496.24 203.934 495.157 206.825 496.962 209.264C497.639 210.167 498.541 210.709 499.624 210.89C500.346 210.98 501.294 210.664 501.926 210.935C502.963 211.341 503.55 212.561 503.054 213.645C502.287 215.226 504.633 216.581 505.4 215C506.348 212.967 505.987 210.619 504.182 209.128C503.189 208.315 502.287 208.315 501.068 208.18C497.774 207.863 498.677 205.108 499.714 202.895C500.436 201.314 498.09 199.914 497.368 201.495Z" fill="#161616"/>
<path d="M641.181 295.171C640.188 292.596 642.58 288.893 645.603 289.841C647.905 290.609 648.943 294.042 647.408 295.939C646.325 297.294 648.221 299.191 649.304 297.836C652.101 294.448 650.703 288.531 646.325 287.221C641.497 285.776 636.849 291.286 638.609 295.848C639.196 297.519 641.813 296.797 641.181 295.171Z" fill="#161616"/>
<path d="M114.392 402.396C114.121 399.189 118.182 397.383 119.897 400.409C121.341 403.029 118.498 405.332 116.016 404.474C114.392 403.887 113.67 406.507 115.294 407.094C120.303 408.9 125.041 403.209 122.018 398.693C118.769 393.86 111.233 396.705 111.729 402.396C111.82 404.113 114.527 404.158 114.392 402.396Z" fill="#161616"/>
<path d="M130.095 275.794C129.057 277.51 128.967 279.723 130.321 281.304C130.998 282.072 131.945 282.569 132.938 282.75C134.337 282.975 135.375 282.208 136.593 282.795C137.812 283.427 137.541 284.195 137.676 285.46C137.721 286.227 137.767 286.95 137.857 287.718C137.947 288.531 138.037 289.344 138.624 289.976C139.165 290.563 139.842 290.789 140.609 290.925C141.151 291.015 141.692 290.97 142.279 290.97C142.73 290.97 143.227 290.97 143.678 291.06C144.535 291.286 144.896 291.873 144.806 292.731C144.129 293.228 144.761 294.403 145.483 293.906C146.837 292.912 146.385 291.376 145.212 290.383C144.671 289.931 144.084 289.705 143.362 289.615C141.016 289.299 139.662 290.202 139.12 286.905C138.85 285.279 139.436 281.891 137.767 280.807C136.999 280.311 136.323 280.536 135.555 280.853C134.337 281.349 133.344 281.756 132.081 280.988C130.366 279.949 130.321 277.917 131.269 276.381C131.72 275.749 130.547 275.071 130.095 275.794Z" fill="#EC615B"/>
<path d="M148.326 281.168C147.423 282.749 146.34 285.143 147.739 286.769C148.642 287.853 150.176 287.717 151.349 288.395C153.199 289.433 154.057 291.601 153.696 293.634C153.56 294.492 154.869 294.853 155.004 293.995C155.365 291.963 154.914 289.975 153.515 288.44C152.929 287.762 152.162 287.265 151.349 286.904C150.402 286.498 148.777 286.001 148.461 284.826C148.236 283.968 149.138 282.523 149.499 281.845C149.905 281.078 148.732 280.4 148.326 281.168Z" fill="#EC615B"/>
<path d="M402.334 423.805C400.8 420.643 403.688 416.94 407.117 418.159C410.682 419.424 410.547 424.302 407.163 425.657C406.35 425.973 406.711 427.283 407.524 426.967C411.901 425.205 412.487 418.927 407.93 417.03C403.237 415.043 399.085 420.147 401.206 424.528C401.567 425.296 402.74 424.573 402.334 423.805Z" fill="#EC615B"/>
<path d="M236.14 413.1C233.252 412.513 237.899 409.397 238.396 409.081C239.118 408.584 239.795 408.042 240.156 407.184C241.374 404.428 239.163 398.918 244.037 398.647C244.894 398.602 244.894 397.247 244.037 397.292C242.141 397.382 240.742 398.421 239.885 400.047C238.486 402.667 240.156 406.235 237.448 408.042C235.914 409.081 234.289 409.758 234.109 411.791C234.019 413.01 234.515 414.094 235.779 414.365C236.636 414.591 236.997 413.281 236.14 413.1Z" fill="#EC615B"/>
<path d="M244.803 409.17C243.54 407.408 244.262 404.924 246.383 404.247C247.827 403.795 248.91 404.021 249.722 402.53C250.534 400.995 250.399 399.188 251.301 397.607C252.43 395.575 254.325 394.174 256.491 393.497C257.303 393.226 256.987 391.916 256.13 392.187C254.099 392.819 252.339 393.949 251.031 395.62C250.354 396.478 249.767 397.472 249.406 398.556C248.91 400.001 249.135 401.943 247.511 402.711C246.518 403.208 245.525 402.937 244.578 403.659C243.946 404.111 243.495 404.789 243.224 405.466C242.592 406.957 242.728 408.537 243.675 409.847C244.127 410.57 245.3 409.892 244.803 409.17Z" fill="#EC615B"/>
<path d="M198.911 201.449C198.099 199.823 201.573 200.41 201.709 200.455C202.205 200.636 202.702 201.043 203.153 201.314C203.875 201.72 204.687 202.127 205.544 202.172C206.673 202.217 207.62 201.72 208.342 200.907C210.418 198.378 209.651 191.829 214.524 193.771C215.968 194.358 217.593 195.216 219.172 194.493C220.436 193.906 220.706 192.642 220.526 191.377C220.436 190.745 219.714 189.48 219.894 188.848C220.255 187.628 221.383 187.538 222.241 187.944C222.647 188.125 223.008 188.396 223.459 188.531C224.813 189.028 226.121 188.938 226.934 187.673C227.385 186.951 226.212 186.273 225.76 186.996C224.858 188.441 221.248 185.46 219.623 186.363C218.315 187.041 218.36 188.396 218.676 189.661C219.037 191.151 219.939 193.319 217.187 193.274C215.968 193.274 214.84 192.235 213.667 192.009C212.268 191.738 211.005 192.1 210.102 193.184C207.846 195.848 208.703 202.804 203.469 199.959C201.934 199.146 200.671 198.333 198.956 199.1C197.648 199.688 197.016 200.817 197.693 202.127C198.144 202.894 199.272 202.217 198.911 201.449Z" fill="#11345C"/>
<path d="M252.655 238.305C250.625 237.808 250.354 235.188 251.347 233.653C252.745 231.485 256.04 231.62 258.251 232.027C261.951 232.704 265.38 234.149 269.126 232.749C272.736 231.394 275.443 228.458 279.505 228.368C283.746 228.278 287.762 230.13 292.049 229.994C299.54 229.768 306.354 226.065 313.529 224.348C317.771 223.309 321.922 223.219 326.164 224.303C330.225 225.342 334.016 227.013 338.077 228.007C342.319 229.091 346.515 228.91 350.802 228.549C355.495 228.187 360.323 227.826 364.565 230.265C364.475 229.994 364.34 229.768 364.249 229.497C361.993 236.137 354.683 238.847 348.23 239.208C340.153 239.66 332.301 236.724 324.178 237.04C315.966 237.356 309.016 242.37 300.939 243.138C292.681 243.951 284.874 240.021 276.662 240.247C268.314 240.473 257.438 245.035 250.85 237.582C250.264 236.95 249.316 237.898 249.903 238.531C255.092 244.357 263.305 243.318 270.209 242.279C275.308 241.512 279.956 241.466 285.055 242.46C289.387 243.318 293.719 244.493 298.141 244.583C307.076 244.809 314.612 239.027 323.411 238.44C332.301 237.853 340.92 241.421 349.809 240.428C356.443 239.705 363.347 236.588 365.603 229.813C365.693 229.542 365.558 229.181 365.287 229.046C357.345 224.393 347.779 228.775 339.25 226.832C334.557 225.748 330.18 223.671 325.442 222.677C321.335 221.774 317.274 222 313.213 222.993C308.881 224.032 304.775 225.748 300.533 227.058C295.659 228.549 291.011 229 285.957 227.962C281.941 227.103 278.241 226.426 274.451 228.323C272.691 229.226 271.066 230.446 269.261 231.259C266.193 232.614 263.26 231.801 260.146 231.033C256.852 230.265 251.888 229.723 250.038 233.382C248.865 235.685 249.677 238.982 252.384 239.615C253.152 239.795 253.513 238.485 252.655 238.305Z" fill="#837B7B"/>
<path d="M64.755 307.907C70.892 307.094 76.7131 310.255 82.805 309.487C85.2869 309.171 87.5882 308.087 89.8896 307.139C90.9726 306.687 92.1007 306.281 93.274 306.01C95.4851 305.513 97.4706 306.1 99.6366 306.552C105.683 307.861 112.452 306.416 118.499 305.558C121.477 305.151 124.41 304.7 127.388 304.203C130.773 303.616 134.157 302.712 137.542 302.351C141.106 301.99 145.303 303.571 143.859 307.952C142.641 311.701 138.083 312.785 134.654 313.056C128.697 313.507 122.786 311.791 116.829 312.92C111.279 313.959 106.315 316.85 100.945 318.43C97.967 319.334 94.9887 319.695 91.9202 319.289C88.8517 318.837 85.9637 318.069 82.805 318.295C76.3972 318.701 69.5834 322.45 63.1756 320.96C59.2497 320.056 57.2191 316.443 59.1144 312.694C60.9645 309.081 65.2062 308.132 68.9065 308.132C69.7639 308.132 69.7639 306.777 68.9065 306.777C63.7171 306.777 57.5801 309.036 57.0386 314.998C56.5422 320.508 61.9572 322.766 66.6051 322.586C69.9895 322.45 73.3287 321.457 76.6229 320.689C80.9097 319.695 84.8356 319.334 89.1676 320.147C92.3715 320.734 95.3497 321.05 98.5987 320.418C101.938 319.785 105.097 318.43 108.21 317.166C111.369 315.901 114.573 314.591 117.957 314.094C121.928 313.507 125.899 314.14 129.87 314.365C135.06 314.682 143.318 314.456 145.213 308.313C145.89 306.1 145.393 303.525 143.453 302.08C141.558 300.68 138.986 300.77 136.774 301.041C128.652 302.17 120.665 304.022 112.452 304.926C107.849 305.422 103.427 306.01 98.9146 304.926C95.2595 304.022 92.3715 304.655 88.942 306.055C87.137 306.777 85.3771 307.59 83.4819 307.952C81.1354 308.403 78.6986 308.087 76.3521 307.681C72.5165 306.958 68.7711 305.964 64.8904 306.461C63.8976 306.642 63.8976 307.997 64.755 307.907Z" fill="#837B7B"/>
<path d="M614.603 361.61C606.074 364.591 596.102 357.545 589.965 352.216C589.874 352.577 589.784 352.983 589.649 353.345C593.981 351.583 598.538 351.493 603.141 351.764C607.699 351.99 612.256 352.306 616.814 352.441C626.516 352.712 636.263 352.487 645.92 351.764C650.928 351.403 655.892 350.906 660.856 350.319C663.293 350.002 666.226 349.415 668.527 350.544C671.731 352.17 671.46 355.693 668.392 357.048C666.812 357.726 665.098 357.952 663.428 358.268C660.811 358.72 658.194 359.216 655.576 359.668C650.793 360.526 646.01 361.384 641.181 362.243C638.429 362.739 635.676 363.236 632.924 363.733C630.351 364.185 627.689 364.862 625.027 364.907C620.514 364.953 617.13 360.978 612.617 361.475C611.76 361.565 611.76 362.92 612.617 362.83C615.189 362.514 617.22 363.914 619.431 364.953C621.236 365.811 622.996 366.262 624.982 366.262C630.171 366.217 635.541 364.636 640.64 363.688C646.145 362.694 651.696 361.701 657.201 360.707C659.818 360.255 662.435 359.758 665.053 359.307C666.812 358.991 668.663 358.584 670.197 357.545C672.769 355.784 672.859 352.532 670.693 350.409C667.309 347.067 661.488 348.828 657.381 349.28C646.281 350.499 635.09 351.132 623.899 351.086C617.762 351.086 611.625 350.861 605.488 350.454C600.028 350.138 594.477 349.867 589.333 351.945C588.927 352.125 588.611 352.712 589.017 353.074C595.515 358.72 605.894 365.991 614.964 362.83C615.776 362.649 615.46 361.339 614.603 361.61Z" fill="#837B7B"/>
<path d="M407.659 600.225C407.253 597.651 410.908 598.057 412.352 598.554C413.48 598.916 414.563 599.367 415.736 599.503C418.534 599.864 421.287 598.916 423.904 598.057C426.431 597.199 429.093 596.251 431.801 596.522C435.05 596.838 437.667 599.503 437.171 602.935C436.629 606.504 432.974 608.175 429.725 607.181C427.514 606.504 425.574 605.103 423.272 604.742C418.399 604.019 413.3 608.265 408.607 606.007C407.839 605.645 407.117 606.775 407.93 607.181C410.727 608.536 413.525 607.904 416.368 607.091C418.173 606.594 420.068 605.962 421.964 606.007C424.175 606.052 425.98 607.136 427.92 607.949C430.673 609.123 433.561 609.349 435.997 607.362C438.073 605.691 438.976 603.026 438.344 600.451C436.449 592.999 427.875 595.302 422.731 597.019C420.294 597.832 417.722 598.599 415.105 598.057C413.435 597.696 411.856 596.657 410.051 596.702C407.885 596.748 405.944 598.328 406.305 600.587C406.486 601.445 407.794 601.084 407.659 600.225Z" fill="#837B7B"/>
<path d="M355.631 585.186C357.797 583.153 360.775 582.295 363.708 582.927C364.926 583.198 368.311 584.102 366.19 585.728C365.062 586.586 362.58 586.495 361.226 586.495C360.369 586.495 360.369 587.85 361.226 587.85C363.212 587.85 366.686 587.76 368.175 586.179C369.439 584.824 367.995 583.334 366.776 582.656C362.896 580.398 357.887 581.256 354.683 584.237C354.051 584.824 354.999 585.773 355.631 585.186Z" fill="#837B7B"/>
<path d="M330.541 615.131C330.18 614.996 329.864 614.86 329.503 614.725C329.458 615.086 329.413 615.447 329.368 615.809C332.121 613.821 335.234 615.267 338.167 615.944C340.649 616.531 342.815 616.26 345.252 615.673C348.275 614.951 351.344 614.499 354.457 614.318C355.901 614.228 357.345 614.183 358.789 614.137C360.143 614.092 363.528 613.415 362.354 615.718C360.955 618.474 356.894 618.564 354.412 617.751C352.291 617.073 350.306 616.08 348.05 616.622C345.703 617.164 343.718 618.654 341.281 619.151C338.032 619.828 334.828 619.512 331.714 618.383C330.902 618.112 330.541 619.377 331.353 619.693C334.422 620.777 337.626 621.138 340.875 620.596C344.53 619.964 347.779 617.119 351.569 618.157C354.277 618.925 356.488 620.145 359.376 619.287C361.226 618.745 363.843 617.118 364.204 615.041C364.656 612.602 361.632 612.692 360.053 612.737C356.398 612.828 352.698 613.008 349.042 613.55C347.057 613.867 345.162 614.409 343.221 614.77C340.83 615.222 338.889 614.77 336.588 614.137C333.88 613.37 331.083 612.918 328.646 614.634C328.285 614.905 328.195 615.357 328.51 615.718C329.187 616.486 329.909 616.667 330.857 616.486C331.76 616.306 331.399 614.996 330.541 615.131Z" fill="#837B7B"/>
<path d="M516.907 589.251C519.524 588.167 522.277 587.579 525.119 587.625C528.053 587.67 530.534 588.799 533.332 589.431C537.439 590.425 540.507 587.895 543.846 585.953C549.126 582.837 554.36 584.869 559.866 585.999C563.791 586.812 567.988 586.947 571.372 584.553C572.094 584.056 571.418 582.882 570.696 583.379C566.454 586.45 561.219 584.96 556.572 583.83C552.194 582.792 547.862 582.204 543.756 584.463C541.951 585.457 540.281 586.766 538.386 587.625C535.498 588.934 533.152 587.895 530.354 587.082C525.796 585.773 520.968 586.134 516.591 587.941C515.733 588.257 516.094 589.567 516.907 589.251Z" fill="#837B7B"/>
<path d="M203.153 366.849C207.169 365.313 214.209 373.579 217.684 378.999C223.008 387.174 223.866 394.311 226.483 410.842C227.476 417.255 229.1 427.418 231.311 440.245C235.282 444.129 236.771 447.923 237.358 450.272C238.17 453.298 238.396 457.183 237.358 457.544C236.23 457.95 234.244 454.156 233.432 454.518C232.349 455.015 235.869 461.112 233.748 463.912C231.582 466.758 223.46 466.306 219.218 462.106C215.247 458.176 216.826 453.163 216.194 441.194C215.969 437.129 215.337 426.063 211.953 415.132C207.801 401.808 203.469 401.131 201.032 389.342C199.318 381.032 198.821 368.52 203.153 366.849Z" fill="white" stroke="#161616" stroke-width="2" stroke-miterlimit="10"/>
<path opacity="0.15" d="M209.11 378.503C211.592 377.961 215.924 389.208 216.195 389.84C220.166 400.229 218.271 404.655 220.03 419.966C221.474 432.432 222.287 439.524 226.303 448.286C230.184 456.687 234.696 461.61 232.981 463.868C231.267 466.172 224.543 463.959 219.263 461.836C218.767 460.707 218.045 458.945 217.458 456.777C215.969 451.493 216.059 447.292 216.059 445.26C216.059 444.131 216.014 431.032 213.442 419.605C212.043 413.508 211.412 414.411 209.787 408.088C206.222 394.357 206.358 379.091 209.11 378.503Z" fill="#6D6C6C"/>
<path opacity="0.17" d="M215.202 400.363C215.698 405.061 216.33 412.061 216.601 420.598C217.007 433.741 216.375 444.672 216.014 444.672C215.698 444.672 216.104 436.813 214.389 426.063C213.261 418.927 211.592 413.145 210.328 409.306C211.186 408.448 212.223 407.274 213.171 405.648C214.344 403.57 214.931 401.673 215.202 400.363Z" fill="#6D6C6C"/>
<path d="M212.088 560.569C210.915 562.737 210.734 565.086 213.442 585.547C213.758 588.076 214.073 590.154 214.254 591.599C221.158 592.683 230.905 593.541 242.457 592.412C249.451 591.735 257.619 590.967 258.07 588.302C258.431 586.134 253.693 582.249 232.033 574.842C231.04 567.615 230.003 560.389 229.01 553.162C216.33 554.02 213.036 558.898 212.088 560.569Z" fill="#161616"/>
<path d="M184.877 431.8C189.119 437.581 195.166 445.892 202.251 456.054C219.037 480.083 227.43 492.097 230.363 500.137C239.027 523.94 236.771 547.065 235.914 554.924C235.417 559.441 234.786 563.144 234.289 565.674C230.86 566.984 225.941 568.429 219.94 568.926C214.57 569.377 209.967 568.881 206.583 568.293C205.545 562.151 204.687 555.24 204.281 547.743C203.695 536.586 204.236 526.605 205.274 518.068C193.677 509.17 186.186 500.001 181.628 493.633C169.445 476.424 166.196 461.519 164.255 451.944C161.503 438.665 163.398 435.052 165.158 433.155C171.024 427.057 183.749 431.438 184.877 431.8Z" fill="white" stroke="#161616" stroke-width="2" stroke-miterlimit="10"/>
<path opacity="0.19" d="M186.186 469.92C190.834 473.849 196.881 479.676 202.747 487.67C204.372 489.929 211.095 499.549 217.007 514.996C225.129 536.405 225.806 556.369 225.445 567.661C223.46 568.383 220.662 569.151 217.323 569.422C212.855 569.738 209.2 568.97 206.854 568.248C205.41 559.44 204.327 549.278 204.236 537.986C204.191 530.669 204.507 523.849 205.094 517.616C203.966 516.984 182.17 504.698 182.441 484.147C182.486 478.411 184.291 473.533 186.186 469.92Z" fill="#6D6C6C"/>
<path opacity="0.15" d="M192.007 504.519C193 503.164 205.409 506.958 210.328 516.172C214.028 523.082 211.05 528.412 211.185 538.258C211.276 545.62 213.171 556.099 221.338 568.791C216.6 568.701 211.862 568.61 207.079 568.52C205.77 560.119 204.732 550.544 204.462 540.02C204.236 531.709 204.507 524.031 205.048 517.03C203.288 516.127 201.032 514.726 198.641 512.649C195.978 510.3 191.285 505.512 192.007 504.519Z" fill="#6D6C6C"/>
<path d="M132.351 557.001C128.922 559.214 128.335 562.286 125.222 569.061C123.056 573.758 119.807 580.036 114.798 587.173C117.641 590.379 122.379 594.851 129.328 598.148C138.849 602.665 152.206 604.833 154.282 600.903C156.493 596.657 144.896 586.585 141.422 583.604C142.369 581.481 143.903 578.094 145.799 573.984C150.808 563.234 151.8 561.653 150.988 559.711C149.093 555.104 138.579 553.027 132.351 557.001Z" fill="#161616"/>
<path d="M146.837 421.592C144.129 429.044 141.377 436.497 138.669 443.904C134.202 456.822 136.142 465.765 137.586 470.056C139.166 474.798 141.918 478.863 147.378 486.948C151.62 493.181 155.456 498.194 158.254 501.672C152.658 507.499 146.295 515.042 140.294 524.527C132.216 537.354 127.433 549.413 124.5 558.853C127.162 560.886 131.179 563.46 136.458 565.402C142.37 567.57 147.604 568.067 151.169 568.112C157.441 563.28 166.015 555.737 174.002 544.671C180.275 536.044 188.713 524.436 191.42 508.176C196.023 480.489 180.997 457.951 175.627 449.911C165.925 435.322 154.283 426.47 146.837 421.592Z" fill="white" stroke="#161616" stroke-width="2" stroke-miterlimit="10"/>
<path d="M165.834 437.852C169.309 442.685 172.739 447.563 176.033 452.486C176.439 452.261 176.8 452.035 177.206 451.809C174.273 447.879 171.656 443.679 169.399 439.298C169.083 439.614 168.768 439.93 168.452 440.246C170.302 441.511 171.34 443.408 172.468 445.26C173.776 447.428 175.13 449.596 176.439 451.764C179.011 455.964 181.583 460.21 184.155 464.41C184.561 464.184 184.922 463.959 185.328 463.733C181.403 457.59 177.477 451.447 173.506 445.305C173.054 444.582 171.881 445.26 172.332 445.982C177.206 454.112 182.125 462.197 186.998 470.327C187.449 471.095 188.623 470.418 188.171 469.65C184.606 463.597 181.087 457.5 177.522 451.448C177.161 451.719 176.8 451.99 176.439 452.261C181.538 457.906 182.44 466.127 187.991 471.411C188.623 471.998 189.57 471.05 188.938 470.463C183.388 465.223 182.486 456.958 177.386 451.312C176.845 450.725 175.942 451.493 176.303 452.125C179.868 458.177 183.388 464.275 186.953 470.327C187.359 470.101 187.72 469.876 188.126 469.65C183.253 461.52 178.334 453.435 173.461 445.305C173.054 445.531 172.693 445.756 172.287 445.982C176.213 452.125 180.139 458.268 184.11 464.41C184.561 465.133 185.735 464.455 185.283 463.733C182.395 458.99 179.507 454.248 176.619 449.55C174.498 446.027 172.558 441.466 169.038 439.072C168.452 438.665 167.82 439.433 168.091 440.02C170.347 444.401 172.919 448.557 175.897 452.531C176.394 453.209 177.567 452.577 177.071 451.854C173.776 446.886 170.392 442.008 166.872 437.22C166.511 436.452 165.338 437.13 165.834 437.852Z" fill="white"/>
<path opacity="0.2" d="M168.677 439.84C166.33 443.227 163.081 448.828 161.682 456.19C157.396 478.503 175.446 488.394 171.429 507.951C169.309 518.249 163.939 517.301 151.935 538.71C145.844 549.595 141.963 559.17 139.661 565.674C136.728 564.771 133.524 563.597 130.14 562.061C128.155 561.158 126.304 560.254 124.635 559.306C127.297 550.995 131.313 540.968 137.36 530.218C144.219 518.069 151.755 508.584 158.118 501.583C156.358 499.324 153.74 495.892 150.717 491.601C142.369 479.767 138.127 473.715 136.728 466.759C135.149 459.081 136.458 452.532 137.36 448.105C138.714 441.421 141.015 436.181 142.865 432.613C151.439 435.007 160.058 437.446 168.677 439.84Z" fill="#6D6C6C"/>
<path opacity="0.17" d="M158.072 437.085C152.973 442.911 146.295 452.486 146.836 464.049C147.648 482.161 165.518 489.071 162.946 503.931C162.224 508.041 156.538 514.636 145.121 527.689C138.849 534.87 133.524 540.607 129.869 544.446C132.667 537.58 136.728 529.36 142.594 520.688C147.784 513.01 153.109 506.867 157.847 502.034C156.448 499.911 153.966 496.117 150.852 491.42C139.977 475.07 137.856 472.495 136.638 466.804C135.194 460.12 136.142 454.474 136.864 450.273C138.172 442.459 140.925 436.452 143.001 432.658C148.009 434.104 153.063 435.594 158.072 437.085Z" fill="#6D6C6C"/>
<path d="M181.402 358.493C174.995 362.287 162.811 370.643 153.515 386C141.692 405.557 141.692 424.662 142.099 432.07C144.31 432.792 146.566 433.515 148.867 434.193C164.255 438.8 179.146 441.916 193.225 443.903C194.398 439.884 195.662 435.819 197.016 431.618C199.046 425.43 201.167 419.513 203.333 413.868C210.824 409.983 213.441 404.97 214.299 402.892C217.773 394.762 214.479 386.271 210.914 377.102C208.929 371.953 207.891 369.333 205.409 366.533C197.647 357.725 184.832 358.267 181.402 358.493Z" fill="#EC615B"/>
<path opacity="0.27" d="M196.609 369.198C184.29 370.824 177.702 376.425 175.04 379.044C160.013 393.904 165.202 418.972 166.601 425.747C167.865 431.844 169.76 436.722 171.249 440.019C161.728 437.445 152.251 434.825 142.73 432.251C142.143 425.34 141.557 407.59 151.8 388.665C161.322 371.14 174.994 362.152 181.086 358.629C181.944 358.674 182.801 358.764 183.658 358.81C184.967 360.345 186.546 361.971 188.487 363.642C191.375 366.172 194.218 367.933 196.609 369.198Z" fill="#6D6C6C"/>
<path opacity="0.2" d="M157.125 380.535C155.862 387.175 154.824 396.795 156.178 408.177C157.802 421.546 162.089 431.89 165.428 438.394C157.667 436.406 149.86 434.419 142.099 432.477C141.738 426.244 141.918 416.894 144.896 406.145C148.145 394.401 153.38 385.82 157.125 380.535Z" fill="#6D6C6C"/>
<path d="M538.612 529.767C535.769 536.135 536.31 542.097 536.762 544.897C545.651 548.827 553.548 550.633 559.595 551.537C561.58 551.853 586.128 555.331 588.52 548.601C589.106 546.93 588.159 545.213 587.211 543.542C581.932 534.283 568.575 533.741 566.77 533.696C566.273 524.076 560.091 516.939 553.774 516.442C544.839 515.765 539.243 528.366 538.612 529.767Z" fill="#161616"/>
<path d="M550.344 374.393C556.211 382.839 564.108 395.982 569.838 413.417C579.179 441.826 577.645 465.674 576.607 479.179C575.705 491.194 573.268 508.267 566.454 527.959C564.604 529.134 556.436 534.012 546.103 531.798C539.966 530.489 535.814 527.237 533.829 525.43C537.484 517.39 541.906 505.286 543.576 490.2C545.426 473.759 543.17 460.887 540.191 444.356C533.423 407.003 524.082 392.821 532.159 382.387C536.04 377.328 542.673 375.07 550.344 374.393Z" fill="white" stroke="#161616" stroke-width="2" stroke-miterlimit="10"/>
<path opacity="0.16" d="M553.548 395.033C556.617 409.983 559.054 427.147 560.001 446.207C561.626 480.037 557.971 509.215 553.232 531.933C551.202 532.204 546.283 532.521 541.049 529.901C537.935 528.32 535.814 526.242 534.596 524.797C540.236 511.789 542.267 500.723 543.079 493.271C544.343 481.573 543.305 472.178 541.364 454.653C540.236 444.4 538.928 435.999 537.98 430.263C543.169 418.565 548.359 406.777 553.548 395.033Z" fill="#6D6C6C"/>
<path opacity="0.22" d="M543.666 417.527C547.547 427.645 553.368 446.931 551.382 471.456C549.487 495.079 541.184 512.648 535.904 521.953C544.749 496.388 545.2 480.716 543.846 471.005C543.485 468.521 541.951 458.674 540.191 444.176C539.469 438.169 538.928 433.245 538.612 430.084C540.327 425.883 541.996 421.683 543.666 417.527Z" fill="#6D6C6C"/>
<path d="M473.316 510.209C469.571 512.061 468.443 515.087 463.299 524.888C459.869 531.392 456.981 536.586 455.086 539.929C460.862 544.084 470.022 549.549 482.251 552.44C489.471 554.156 504.498 556.55 506.213 552.44C508.108 547.878 492.675 537.354 486.177 533.109C492.856 526.605 493.171 517.165 488.659 512.332C484.823 508.222 477.874 507.951 473.316 510.209Z" fill="#161616"/>
<path d="M538.748 373.444C553.639 386.587 536.221 430.399 521.916 465.448C515.734 480.579 506.078 502.485 491.863 528.094C489.381 528.456 481.936 529.178 473.994 524.888C466.007 520.597 462.532 513.867 461.494 511.654C465.646 504.472 470.654 494.807 475.438 483.018C477.333 478.366 485.501 457.589 490.103 428.231C491.908 416.623 493.533 401.312 493.307 383.109C495.97 380.399 510.816 365.811 528.369 369.153C531.032 369.65 535.409 370.508 538.748 373.444Z" fill="white" stroke="#161616" stroke-width="2" stroke-miterlimit="10"/>
<path d="M543.576 391.511C543.531 393.092 543.486 394.673 543.486 396.253C543.937 396.253 544.388 396.253 544.84 396.253C544.614 393.724 544.749 391.33 545.246 388.846C544.794 388.801 544.343 388.711 543.937 388.665C544.208 393.995 542.989 399.596 542.042 404.835C541.094 410.12 539.831 415.359 538.341 420.508C538.793 420.643 539.199 420.734 539.65 420.869C542.132 411.475 544.208 402.035 545.923 392.459C546.058 391.601 544.749 391.24 544.614 392.098C542.899 401.628 540.823 411.113 538.341 420.508C538.116 421.366 539.424 421.727 539.65 420.869C541.23 415.449 542.493 409.894 543.486 404.338C544.388 399.28 545.562 393.814 545.291 388.665C545.246 387.943 544.118 387.717 543.982 388.485C543.441 391.059 543.305 393.634 543.531 396.253C543.621 397.112 544.885 397.157 544.885 396.253C544.93 394.673 544.975 393.092 544.975 391.511C544.975 390.653 543.621 390.653 543.576 391.511Z" fill="white"/>
<path d="M537.845 417.662C537.89 421.14 537.98 424.618 538.025 428.095C538.025 428.954 539.379 428.954 539.379 428.095C539.334 424.618 539.244 421.14 539.199 417.662C539.153 416.759 537.8 416.759 537.845 417.662Z" fill="white"/>
<path opacity="0.19" d="M519.074 387.49C519.209 396.569 518.713 408.944 516.05 423.307C513.207 438.529 508.875 450.317 502.558 468.068C497.414 482.611 494.932 486.947 489.697 503.072C486.493 512.873 484.237 521.093 482.793 526.604C480.311 526.287 475.167 525.249 470.023 521.409C465.239 517.841 462.803 513.596 461.72 511.382C470.023 496.794 475.302 484.011 478.642 474.707C488.975 445.936 491.412 420.914 492.811 405.512C493.397 399.098 493.713 393.768 493.849 390.291C502.242 389.342 510.68 388.439 519.074 387.49Z" fill="#6D6C6C"/>
<path opacity="0.24" d="M514.425 388.801C510.905 404.293 506.844 416.488 503.64 425.024C501.023 432.07 497.007 441.555 489.019 460.48C486.086 467.481 484.597 470.959 483.875 472.54C479.453 482.476 472.368 496.433 461.042 512.874C471.195 494.626 482.837 468.61 489.019 435.819C492.133 419.288 493.261 404.203 493.397 391.149C493.351 391.104 493.351 391.104 514.425 388.801Z" fill="#6D6C6C"/>
<path d="M528.685 277.736C529.407 279.497 530.67 282.072 532.972 284.691C534.641 286.588 536.762 289.027 539.921 289.976C546.058 291.873 552.014 286.995 552.827 286.317C558.783 289.84 564.74 293.363 570.651 296.886C571.193 304.249 571.238 315.36 568.35 328.322C565.597 340.653 562.935 342.143 560.769 354.113C557.474 372.089 559.911 388.123 559.099 388.168C558.964 388.168 558.783 387.807 558.422 385.865C535.183 387.626 511.943 389.388 488.704 391.149C488.027 377.193 488.117 365.449 488.388 356.777C488.749 343.227 489.832 326.832 494.345 307.817C497.549 294.222 500.075 289.615 503.911 286.001C512.214 278.097 523.586 277.6 528.685 277.736Z" fill="#11345C"/>
<path opacity="0.3" d="M555.579 287.943C554.812 296.209 553.368 308.494 550.615 323.219C549.803 327.645 547.502 339.84 545.652 345.802C543.395 353.119 534.596 374.031 491.547 391.014C504.678 389.478 518.216 388.123 532.069 386.994C540.733 386.271 549.307 385.639 557.745 385.142C560.723 374.528 563.476 362.513 565.462 349.235C568.485 329.135 569.072 310.978 568.575 295.667C564.243 293.092 559.911 290.518 555.579 287.943Z" fill="#32198E"/>
<path d="M536.987 250.545C535.408 258.63 534.686 267.573 528.143 277.464C527.24 278.819 526.473 279.858 525.932 280.536C526.473 281.62 532.204 292.731 544.388 294.402C551.337 295.35 556.797 292.685 558.873 291.556C558.557 288.846 558.376 285.594 558.647 281.936C559.008 276.561 560.136 272.089 561.265 268.702C566.499 268.024 571.688 267.347 576.923 266.669C577.961 264.366 578.954 262.062 579.991 259.714C581.435 259.669 582.834 259.623 584.278 259.578C583.195 256.417 581.571 251.403 579.675 245.215C576.156 233.562 576.201 231.891 574.306 229.271C569.071 222.09 557.339 217.528 549.622 221.367C542.177 225.026 539.92 235.459 536.987 250.545Z" fill="white" stroke="#161616" stroke-width="2" stroke-miterlimit="10"/>
<path d="M584.053 258.946C581.48 258.991 578.953 258.811 576.426 258.449C575.569 258.314 575.208 259.624 576.065 259.759C578.728 260.166 581.345 260.346 584.053 260.301C584.955 260.301 584.955 258.946 584.053 258.946Z" fill="#161616"/>
<path d="M585.857 238.216C583.556 236.951 580.803 237.674 579.314 239.797C578.818 240.519 579.991 241.197 580.488 240.474C581.525 238.984 583.601 238.532 585.18 239.39C585.948 239.797 586.624 238.622 585.857 238.216Z" fill="#161616"/>
<path d="M584.684 246.346C584.91 245.307 584.865 244.268 584.368 243.32C584.007 242.642 583.24 241.829 582.383 242.19C581.48 242.552 581.525 243.816 581.706 244.584C581.886 245.533 582.383 246.391 583.105 247.023C583.511 247.385 584.278 247.159 584.278 246.526C584.278 245.397 584.007 244.404 583.511 243.365C583.15 242.597 581.977 243.274 582.338 244.042C582.699 244.81 582.879 245.623 582.924 246.481C583.33 246.301 583.691 246.165 584.098 245.984C583.33 245.352 583.06 244.539 583.015 243.591C583.06 243.5 583.014 243.41 582.879 243.41C582.969 243.455 583.06 243.545 583.105 243.636C583.24 243.816 583.376 244.087 583.421 244.313C583.601 244.855 583.601 245.352 583.466 245.894C583.15 246.843 584.458 247.204 584.684 246.346Z" fill="#161616"/>
<path d="M572.771 240.022C570.154 239.164 567.401 240.248 565.867 242.506C565.371 243.229 566.544 243.906 567.04 243.183C568.213 241.422 570.38 240.699 572.41 241.332C573.222 241.557 573.583 240.293 572.771 240.022Z" fill="#161616"/>
<path d="M573.493 247.564C573.583 246.345 573.087 244.448 571.823 243.951C570.154 243.273 570.154 245.622 570.334 246.616C570.56 247.609 571.372 249.461 572.726 248.693C573.267 248.377 573.357 247.79 573.177 247.248C572.861 246.39 572.365 245.622 572.004 244.809C571.643 245.08 571.282 245.351 570.921 245.622C571.101 245.803 571.237 245.983 571.282 246.254C571.507 247.113 572.816 246.751 572.59 245.893C572.455 245.396 572.229 245.035 571.868 244.674C571.282 244.132 570.47 244.809 570.785 245.487C570.966 245.803 571.101 246.119 571.282 246.48C571.417 246.751 571.552 247.248 571.778 247.474C571.868 247.79 571.959 247.79 572.094 247.474C572.049 247.384 571.959 247.248 571.913 247.158C571.778 246.887 571.688 246.616 571.643 246.3C571.598 246.029 571.643 245.667 571.552 245.396C571.598 245.216 571.552 245.17 571.507 245.396C571.598 245.532 571.733 245.667 571.778 245.803C572.094 246.345 572.184 246.977 572.139 247.609C572.049 248.422 573.403 248.422 573.493 247.564Z" fill="#161616"/>
<path d="M576.111 232.163C575.75 229.769 574.802 225.885 572.275 221.865C571.373 220.465 569.432 217.439 566.364 215.406C560.498 211.522 551.473 211.838 544.884 216.581C538.477 221.233 535.273 229.589 536.672 237.854C549.848 235.957 562.979 234.06 576.111 232.163Z" fill="#EC615B"/>
<path d="M597.68 227.826C577.419 230.401 557.203 232.975 536.942 235.55C534.37 235.866 534.37 239.931 536.942 239.615C557.203 237.04 577.419 234.466 597.68 231.891C600.207 231.575 600.252 227.51 597.68 227.826Z" fill="#161616"/>
<path d="M549.802 237.312C553.367 238.622 555.443 241.106 557.88 244.087C562.979 250.32 561.445 252.624 565.055 256.508C570.74 262.696 576.516 259.037 581.616 265.09C585.948 270.239 585.361 277.194 585.18 278.73C585 280.266 584.233 286.453 579.224 290.699C574.892 294.358 568.981 295.216 568.62 294.403C568.484 294.087 568.981 293.364 572.184 291.196C571.237 291.873 569.793 292.686 567.852 293.048C565.641 293.454 563.566 293.048 563.52 292.732C563.52 292.506 564.694 292.506 565.596 291.512C566.138 290.925 566.363 290.247 566.499 289.66C564.739 290.835 562.483 291.828 560.362 291.196C554.586 289.434 553.548 276.472 553.187 272.181C552.104 258.269 556.075 250.681 551.246 245.803C550.84 245.397 548.9 243.41 546.779 243.816C544.072 244.313 541.996 248.559 542.898 251.359C543.665 253.753 546.373 254.43 546.192 254.882C545.922 255.469 541.364 254.566 537.528 251.494C536.13 250.365 535.001 249.462 534.415 247.791C533.377 244.9 534.595 241.603 536.22 239.661C539.604 235.596 545.922 235.867 549.802 237.312Z" fill="#161616" stroke="#161616" stroke-width="2" stroke-miterlimit="10"/>
<path opacity="0.22" d="M544.433 255.243C545.29 255.333 546.508 255.378 546.599 255.062C546.644 254.927 546.328 254.701 546.328 254.701C546.328 254.701 547.366 256.011 548.629 256.191C549.261 256.282 549.757 256.056 550.118 255.875C547.817 260.708 545.471 266.58 543.53 273.355C541.5 280.356 540.371 286.769 539.785 292.234C537.799 291.602 534.189 290.157 530.85 286.905C528.413 284.556 527.014 282.072 526.202 280.401C528.91 276.336 530.489 272.768 531.437 270.329C532.294 268.07 532.61 266.58 534.144 261.431C535.408 257.275 536.4 253.843 537.077 251.494C537.438 251.81 537.98 252.307 538.702 252.804C539.74 253.527 541.77 254.927 544.433 255.243Z" fill="#6D6C6C"/>
<path d="M559.009 212.967C553.729 214.006 549.803 218.251 549.216 223.265C548.494 229.227 552.872 233.292 553.278 233.653C547.682 234.331 542.087 235.053 536.491 235.731C536.401 234.421 536.356 232.614 536.672 230.537C537.755 223.852 541.635 219.742 542.448 218.884C543.756 217.529 548.359 213.148 555.173 212.741C556.752 212.651 558.061 212.831 559.009 212.967Z" fill="#B74949"/>
<path d="M569.297 296.435C572.907 295.893 576.607 302.171 578.322 305.062C588.249 321.954 584.098 341.466 582.834 347.157C581.842 351.629 579.991 359.533 574.215 368.25C568.71 376.651 562.212 381.845 558.061 384.691C551.111 387.356 538.476 391.014 523.269 388.53C517.99 387.672 513.387 386.227 509.551 384.691C503.053 385.097 496.555 385.459 490.057 385.865C489.02 385.685 487.576 385.414 485.861 384.781C483.785 384.013 481.8 383.246 481.8 382.523C481.8 381.71 484.056 380.445 495.066 378.729C494.525 378.819 487.305 380.219 482.476 375.161C477.964 370.463 477.693 362.424 481.123 359.262C484.011 356.597 488.704 357.772 497.277 360.075C505.761 362.333 512.575 365.405 517.539 368.024C519.434 368.883 534.19 375.251 547.682 367.482C557.97 361.566 561.4 350.951 562.212 348.016C565.461 336.363 559.55 332.252 561.671 315.405C561.941 312.515 563.882 297.203 569.297 296.435Z" fill="white" stroke="#161616" stroke-width="2" stroke-miterlimit="10"/>
<path d="M479.408 369.334C484.642 369.74 489.651 371.005 494.434 373.173C495.201 373.534 495.923 372.36 495.111 371.999C490.102 369.695 484.868 368.34 479.408 367.934C478.55 367.934 478.55 369.289 479.408 369.334Z" fill="#161616"/>
<path d="M479.092 363.824C485.093 363.644 490.192 367.302 495.788 369.018C496.6 369.289 496.961 367.98 496.149 367.709C490.463 365.947 485.274 362.289 479.092 362.469C478.234 362.515 478.189 363.87 479.092 363.824Z" fill="#161616"/>
<path d="M484.867 359.037C489.786 359.444 494.118 361.792 498.36 364.186C499.127 364.593 499.804 363.463 499.037 363.012C494.569 360.528 490.057 358.134 484.867 357.682C483.965 357.592 483.965 358.947 484.867 359.037Z" fill="#161616"/>
<path opacity="0.18" d="M563.792 304.745C561.129 315.45 568.214 322.677 570.606 334.917C571.012 337.085 574.216 354.655 564.83 367.121C554.361 381.032 533.603 381.529 529.542 381.664C518.937 381.935 514.921 378.819 498.315 379.677C496.736 379.767 482.296 380.58 482.161 382.613C482.115 383.697 486.132 384.916 489.155 385.323C493.126 385.865 495.202 384.962 500.256 384.555C502.422 384.374 505.535 384.239 509.371 384.555C513.974 386.452 519.93 388.304 527.06 389.027C529 389.207 535.047 389.749 542.809 388.62C542.809 388.62 549.307 387.717 554.451 385.91C567.221 381.484 579.856 362.83 583.421 342.505C587.437 319.605 578.502 302.352 573.494 298.512C572.817 297.97 570.876 296.48 568.846 296.977C565.552 297.699 564.198 303.074 563.792 304.745Z" fill="#6D6C6C"/>
<path opacity="0.17" d="M582.834 318.342C582.112 318.342 582.112 326.969 580.127 337.809C578.909 344.403 576.427 357.817 570.425 367.167C559.73 383.833 537.89 387.582 529.587 388.576C536.717 389.57 547.682 389.795 558.377 384.104C581.571 371.729 583.827 341.874 584.233 336.454C584.865 327.33 583.556 318.342 582.834 318.342Z" fill="#6D6C6C"/>
<path d="M193.18 489.25C211.861 472.629 230.633 456.098 249.496 439.702C285.054 408.763 320.929 378.231 357.164 348.059C354.321 339.613 350.666 324.979 352.832 307.183C353.509 301.538 359.285 259.939 397.37 238.44C400.529 236.633 444.255 212.966 485.229 239.072C512.259 256.281 526.247 287.671 522.953 318.34C518.08 363.913 477.648 384.102 475.301 385.231C446.15 399.143 411.088 395.033 384.961 374.708C345.702 407.047 306.534 439.431 267.41 471.906C250.263 486.134 233.16 500.361 216.058 514.634C212.493 512.918 206.582 509.485 201.257 503.207C196.79 497.967 194.443 492.728 193.18 489.25Z" fill="#161616"/>
<path d="M438.795 379.404C478.321 379.404 510.363 348.667 510.363 310.751C510.363 272.835 478.321 242.098 438.795 242.098C399.269 242.098 367.227 272.835 367.227 310.751C367.227 348.667 399.269 379.404 438.795 379.404Z" fill="white" stroke="#161616" stroke-width="2" stroke-miterlimit="10"/>
<path d="M444.616 245.892C431.53 273.624 417.767 301.086 403.372 328.186C399.311 335.819 395.204 343.452 391.053 351.04C390.647 351.808 391.82 352.485 392.226 351.717C406.982 324.798 421.106 297.563 434.553 269.966C438.344 262.197 442.089 254.383 445.835 246.524C446.196 245.802 445.022 245.124 444.616 245.892Z" fill="#E8E8E8"/>
<path d="M466.682 252.621C452.333 275.295 438.705 298.375 425.754 321.862C425.348 322.63 426.521 323.307 426.927 322.539C439.878 299.053 453.506 275.973 467.856 253.299C468.307 252.576 467.134 251.899 466.682 252.621Z" fill="#E8E8E8"/>
<path d="M423.362 329.811C417.406 341.419 411.043 352.846 404.229 364.002C403.778 364.77 404.951 365.447 405.403 364.68C412.171 353.523 418.579 342.096 424.536 330.488C424.942 329.721 423.769 328.998 423.362 329.811Z" fill="#E8E8E8"/>
<path d="M448.407 295.937C440.826 310.21 433.29 324.483 425.709 338.755C425.303 339.523 426.476 340.201 426.882 339.433C434.463 325.16 441.999 310.888 449.58 296.615C449.986 295.847 448.813 295.17 448.407 295.937Z" fill="#E8E8E8"/>
<path opacity="0.08" d="M436.674 241.873C431.665 243.68 398.679 256.055 388.12 289.208C386.901 293.047 383.111 305.423 385.954 319.74C391.414 347.021 418.669 369.108 454.318 376.515C451.61 377.418 447.82 378.502 443.127 379.089C414.788 382.658 392.813 363.326 390.24 361.023C384.645 355.919 367.362 338.575 367.046 311.114C367.001 308.72 367.136 281.62 387.668 262.063C399.626 250.681 413.615 246.525 419.481 244.854C426.34 242.912 432.342 242.189 436.674 241.873Z" fill="#6D6C6C"/>
<path d="M172.603 381.212C175.852 380.805 180.725 380.76 184.29 383.651C191.961 389.884 186.05 403.434 189.84 417.752C191.871 425.43 197.241 435.773 212.854 446.026C219.036 449.142 224.181 451.491 227.745 453.117C232.845 455.421 236.094 456.73 236.048 458.492C236.003 460.253 232.799 461.563 230.498 462.331C233.251 464.906 234.65 468.158 233.702 470.642C232.98 472.584 230.994 473.532 228.783 474.616C226.256 475.881 224.135 476.152 221.699 476.468C217.141 477.055 214.885 477.326 212.809 476.468C209.605 475.113 208.161 472.132 206.04 467.841C204.867 465.493 203.423 461.834 202.656 457.092C197.557 454.743 190.247 450.678 182.981 443.858C180.139 441.193 153.786 415.9 162.089 394.039C163.352 390.968 166.014 385.999 172.603 381.212Z" fill="white" stroke="#161616" stroke-width="2" stroke-miterlimit="10"/>
<path d="M212.945 470.867C214.073 473.351 215.788 475.429 217.999 477.1C218.676 477.642 219.353 476.467 218.676 475.925C216.691 474.435 215.156 472.448 214.118 470.189C213.757 469.421 212.584 470.099 212.945 470.867Z" fill="#161616"/>
<path d="M218.36 470.144C219.713 472.764 221.744 474.932 224.226 476.558C224.948 477.01 225.625 475.835 224.903 475.384C222.601 473.938 220.751 471.906 219.488 469.467C219.127 468.699 217.954 469.376 218.36 470.144Z" fill="#161616"/>
<path d="M224.046 467.074C225.309 469.739 227.475 471.862 230.138 473.126C230.905 473.488 231.627 472.313 230.815 471.952C228.333 470.777 226.392 468.88 225.219 466.396C224.813 465.583 223.685 466.261 224.046 467.074Z" fill="#161616"/>
<path opacity="0.2" d="M173.731 381.301C172.738 385.772 171.655 392.818 172.603 401.31C175.085 422.809 188.983 436.991 191.285 439.295C202.747 450.677 210.237 449.141 214.795 459.304C216.013 462.014 218.179 468.156 224.046 471.363C226.347 472.583 228.513 473.034 229.957 473.215C229.19 473.847 227.926 474.705 226.257 475.428C223.459 476.648 221.022 476.693 217.187 476.738C214.344 476.783 212.9 476.783 211.636 476.196C208.974 474.976 207.71 472.447 207.214 471.182C205.409 466.304 203.649 461.426 201.844 456.548C193.045 452.032 180.59 443.992 170.753 430.216C166.647 424.48 159.788 414.634 160.374 402.8C160.645 397.425 162.36 393.676 162.766 392.773C165.97 386.134 171.294 382.701 173.731 381.301Z" fill="#6D6C6C"/>
<path opacity="0.32" d="M160.961 405.556C161.231 405.465 162.946 410.885 166.331 417.209C174.588 432.836 186.501 442.412 195.03 449.096C198.911 452.123 202.205 454.381 204.281 455.781C206.808 460.027 208.252 463.685 209.109 466.35C209.831 468.563 210.237 470.551 211.907 472.628C213.622 474.887 215.833 476.151 217.457 476.874C216.239 476.919 214.389 476.829 212.448 475.925C208.748 474.209 207.124 470.641 205.409 466.847C204.416 464.679 203.243 461.427 202.611 457.226C179.056 445.302 170.211 430.262 166.872 423.126C163.443 415.809 160.6 405.736 160.961 405.556Z" fill="#6D6C6C"/>
<path d="M198.325 339.975C195.121 341.24 197.016 347.563 191.872 353.299C189.345 356.145 186.276 357.5 184.155 358.268C185.509 360.3 188.171 363.597 192.549 366.217C195.662 368.114 198.64 369.017 200.716 369.424C201.393 368.204 202.521 366.307 203.92 364.049C208.929 356.145 210.734 355.287 211.005 352.667C211.681 346.253 202.431 338.349 198.325 339.975Z" fill="white" stroke="#161616" stroke-width="2" stroke-miterlimit="10"/>
<path d="M197.738 352.172C199.588 355.875 201.528 359.534 204.597 362.379C205.228 362.966 206.176 362.018 205.544 361.431C202.566 358.676 200.716 355.062 198.911 351.494C198.505 350.726 197.331 351.404 197.738 352.172Z" fill="#161616"/>
<path d="M196.384 349.732C198.459 353.797 200.716 357.817 204.687 360.301C205.364 360.707 206.041 359.804 205.499 359.217C204.19 357.817 202.837 356.417 201.573 355.016C201.257 355.333 200.941 355.649 200.625 355.965C201.393 356.778 202.205 357.546 203.107 358.178C203.423 358.404 204.416 358.856 204.597 359.127C204.867 359.578 204.597 360.301 204.461 360.753C204.912 360.888 205.319 360.978 205.77 361.114C205.815 360.888 205.815 360.662 205.86 360.482C205.95 359.894 205.228 359.262 204.732 359.804C204.732 359.307 204.597 358.81 204.281 358.404C203.875 358.63 203.514 358.856 203.107 359.081C203.604 359.759 204.1 360.436 204.597 361.114C204.958 360.843 205.318 360.572 205.68 360.301C205.273 359.849 204.958 359.398 204.642 358.901C204.236 358.314 203.107 358.675 203.423 359.443C203.694 360.03 203.784 360.256 204.19 360.753C204.732 361.43 205.68 360.482 205.138 359.804C205.003 359.578 204.867 359.352 204.732 359.081C204.326 359.262 203.92 359.443 203.514 359.623C203.92 360.211 204.326 360.753 204.777 361.295C205.273 361.882 206.311 361.114 205.86 360.482C205.364 359.804 204.867 359.127 204.371 358.449C203.874 357.726 202.837 358.359 203.198 359.127C203.649 360.03 204.551 362.153 205.77 360.798C205.409 360.572 205.003 360.346 204.642 360.12C204.597 360.346 204.596 360.572 204.551 360.753C204.416 361.611 205.634 361.972 205.86 361.114C206.176 360.03 206.943 359.533 206.041 358.449C205.634 357.952 204.958 357.726 204.461 357.41C203.423 356.733 202.521 355.92 201.663 355.016C201.077 354.384 200.129 355.333 200.716 355.965C202.024 357.365 203.333 358.765 204.642 360.165C204.912 359.804 205.183 359.443 205.454 359.081C201.708 356.733 199.633 352.848 197.647 349.009C197.151 348.241 195.978 348.964 196.384 349.732Z" fill="#161616"/>
<path d="M239.839 328.006C238.937 332.026 237.087 337.988 232.845 344.131C225.399 354.926 215.291 359.487 210.959 361.159C208.477 360.21 205.228 358.539 202.16 355.693C193.766 347.88 193.135 337.175 193.044 334.42C192.142 334.194 190.833 333.697 189.705 332.613C186.817 329.813 186.14 324.257 188.803 321.954C191.826 319.334 197.602 322.541 198.234 322.857C199.633 323.625 200.625 324.574 201.257 325.296C203.739 317.799 209.696 312.153 216.78 310.978C226.437 309.398 236.996 316.444 239.839 328.006Z" fill="white" stroke="#161616" stroke-width="2" stroke-miterlimit="10"/>
<path d="M228.919 338.803C227.114 342.868 224.451 346.345 221.022 349.191C220.345 349.733 221.293 350.681 221.97 350.139C225.534 347.249 228.242 343.681 230.092 339.48C230.453 338.667 229.28 337.99 228.919 338.803Z" fill="#161616"/>
<path d="M219.308 346.163C219.127 347.699 219.669 349.189 220.707 350.318C221.293 350.951 222.241 350.002 221.654 349.37C220.842 348.467 220.526 347.383 220.661 346.163C220.752 345.305 219.398 345.305 219.308 346.163Z" fill="#161616"/>
<path d="M216.555 338.441C217.728 336.815 219.127 335.369 220.706 334.06C220.345 333.834 219.939 333.608 219.578 333.382C218.992 335.189 217.728 336.634 216.059 337.537C216.329 337.899 216.6 338.26 216.871 338.621C217.909 337.357 218.947 336.137 219.984 334.873C220.526 334.195 219.578 333.247 219.037 333.924C217.999 335.189 216.961 336.408 215.923 337.673C215.427 338.26 216.059 339.118 216.735 338.757C218.721 337.673 220.165 335.911 220.887 333.789C221.113 333.066 220.255 332.75 219.759 333.111C218.089 334.466 216.645 336.002 215.427 337.763C214.885 338.486 216.059 339.163 216.555 338.441Z" fill="#161616"/>
<path d="M231.536 342.416C232.123 341.422 232.89 340.564 233.747 339.796C233.386 339.57 232.98 339.345 232.619 339.119C232.213 340.474 231.401 341.693 230.227 342.551C230.543 342.822 230.904 343.048 231.22 343.319C231.491 342.597 231.897 341.919 232.393 341.332C232.935 340.654 231.987 339.706 231.446 340.383C230.814 341.196 230.318 342.009 229.957 342.958C229.731 343.5 230.498 344.087 230.949 343.726C232.393 342.642 233.431 341.242 233.928 339.525C234.153 338.848 233.296 338.441 232.8 338.848C231.852 339.661 231.04 340.654 230.363 341.738C229.866 342.461 231.04 343.139 231.536 342.416Z" fill="#161616"/>
<path d="M211.907 335.098C212.584 336.679 212.945 338.305 212.945 339.976C212.945 340.428 213.622 340.428 213.622 339.976C213.622 338.169 213.216 336.408 212.494 334.737C212.313 334.33 211.727 334.692 211.907 335.098Z" fill="#161616"/>
<path d="M210.012 333.923C210.463 334.646 210.779 335.368 211.05 336.136C211.185 336.543 211.817 336.362 211.681 335.956C211.411 335.097 211.05 334.33 210.598 333.562C210.373 333.2 209.786 333.562 210.012 333.923Z" fill="#161616"/>
<path d="M220.435 330.221C222.105 329.724 223.684 330.853 223.729 332.615C223.729 333.247 224.767 333.292 224.767 332.615C224.677 330.221 222.511 328.595 220.164 329.227C219.533 329.408 219.803 330.401 220.435 330.221Z" fill="#161616"/>
<path d="M232.529 336.86C233.251 336.409 234.109 336.364 234.876 336.815C235.417 337.177 235.959 336.273 235.372 335.957C234.334 335.325 233.026 335.325 232.033 336.002C231.491 336.364 231.988 337.222 232.529 336.86Z" fill="#161616"/>
<path d="M210.508 348.468C211.591 350.411 213.441 351.811 215.607 352.398C216.464 352.624 216.825 351.314 215.968 351.088C214.118 350.591 212.629 349.462 211.681 347.791C211.23 347.023 210.056 347.701 210.508 348.468Z" fill="#161616"/>
<path d="M201.213 327.103C202.205 325.387 204.597 321.729 209.2 319.199C212.358 317.438 215.337 316.941 217.142 316.76C218.134 318.07 219.759 319.786 222.151 320.87C227.791 323.445 232.349 320.057 235.688 322.316C237.448 323.49 239.208 326.336 238.531 334.104C241.509 337.176 243.495 337.356 244.578 337.13C249.09 336.227 252.339 326.065 249.496 318.657C248.639 316.444 247.511 315.179 237.944 307.546C224.452 296.797 222.782 296.164 221.022 295.758C211.727 293.59 203.514 298.287 202.115 299.1C200.31 300.139 199.904 300.636 189.57 311.521C181.538 319.967 180.771 320.735 180.049 322.813C178.154 328.052 178.515 335.64 183.343 341.195C187.901 346.39 194.038 347.158 195.617 347.338C194.94 345.803 194.218 343.634 193.857 340.97C193.406 337.537 193.857 334.691 194.263 332.84C193.947 332.614 192.142 331.123 192.007 328.594C191.917 326.742 192.774 324.393 194.76 323.626C196.971 322.767 199.994 324.077 201.213 327.103Z" fill="#11345C"/>
<path d="M199.272 304.384C197.422 300.726 192.007 300.184 191.059 300.094C183.523 299.326 177.476 306.056 173.911 309.985C167.594 316.986 169.399 319.064 163.262 327.51C155.139 338.711 149.048 339.208 147.784 346.931C147.694 347.519 146.566 355.287 151.71 359.985C156.132 364.05 163.262 364.095 167.955 361.656C174.318 358.359 173.776 351.719 178.379 340.563C187.404 318.793 202.837 311.43 199.272 304.384Z" fill="#11345C"/>
<path opacity="0.12" d="M206.537 320.826C205.093 324.44 203.379 330.176 203.469 337.357C203.604 348.83 208.297 357.231 210.644 360.844C208.072 359.76 203.785 357.456 200.039 352.94C198.505 351.088 194.895 346.707 193.947 339.977C193.496 336.951 193.767 334.421 194.038 332.705C193.767 332.479 191.917 330.808 192.007 328.188C192.052 326.472 192.955 324.169 194.895 323.491C197.061 322.723 200.039 324.123 201.213 327.15C201.664 326.246 202.296 325.117 203.243 323.943C204.416 322.543 205.59 321.549 206.537 320.826Z" fill="#6D6C6C"/>
<path opacity="0.13" d="M198.594 353.887C198.233 354.7 197.827 355.513 197.331 356.326C195.075 360.12 192.142 362.649 189.84 364.185C189.028 363.688 187.945 362.92 186.862 361.746C185.689 360.481 184.967 359.217 184.561 358.313C186.32 357.771 190.698 356.1 193.676 351.719C194.714 350.138 195.345 348.603 195.706 347.338C196.654 349.551 197.602 351.719 198.594 353.887Z" fill="#6D6C6C"/>
<path opacity="0.18" d="M194.624 331.936C194.849 335.052 195.436 339.117 196.97 343.679C199.091 349.867 202.16 354.429 204.506 357.319C202.16 355.422 199.362 352.577 197.106 348.602C195.616 345.937 193.405 342.098 193.676 336.859C193.766 334.826 194.218 333.11 194.624 331.936Z" fill="#6D6C6C"/>
<path opacity="0.32" d="M201.528 300.229C199.633 302.08 187.81 314.004 189.435 330.942C190.112 338.169 193 343.634 195.076 346.841C193.632 346.75 190.834 346.434 187.81 344.673C184.787 342.911 183.072 340.608 182.305 339.433C181.719 338.485 180.997 336.949 180.545 335.007C180.545 335.007 179.733 331.213 181.222 326.516C182.802 321.367 189.931 311.34 201.528 300.229Z" fill="#32198E"/>
<path opacity="0.33" d="M177.115 307.545C178.153 308.223 172.422 320.282 166.105 330.806C160.419 340.246 157.621 342.866 157.215 348.647C156.809 354.654 159.336 359.803 161.592 363.281C160.464 363.371 156.222 363.507 152.522 360.571C150.491 358.945 149.408 357.048 148.912 355.874C147.829 352.712 146.881 348.105 148.777 343.769C150.04 340.833 151.529 340.607 156.177 335.91C160.284 331.755 164.345 327.645 167.323 321.547C168.857 318.431 169.399 316.172 172.016 312.649C173.731 310.301 176.529 307.139 177.115 307.545Z" fill="#32198E"/>
</g>
<defs>
<clipPath id="clip0">
<rect width="722" height="542" fill="white" transform="translate(0 115)"/>
</clipPath>
</defs>
</svg>
