<svg xmlns="http://www.w3.org/2000/svg" viewBox="0 0 178.94 185"><defs><style>.cls-1{fill:#d6e5f2;}.cls-2{fill:#263740;}.cls-3{fill:#ccc;}.cls-4{fill:#b3b3b3;}.cls-5{fill:#e6e6e6;}.cls-6{fill:#f5f5f5;}.cls-7{fill:#ec615b;}</style></defs><title>Ресурс 5</title><g id="Шар_2" data-name="Шар 2"><g id="Шар_1-2" data-name="Шар 1"><path class="cls-1" d="M89.47,0C40.06,0,0,38.83,0,86.72s40.06,86.72,89.47,86.72,89.47-38.83,89.47-86.72S138.88,0,89.47,0Z"/><path class="cls-2" d="M89.57,5.78h-3V43.36h3Z"/><path class="cls-3" d="M10.54,185V173.44c0-1.59,1.58-2.89,3.52-2.89h148c1.94,0,3.52,1.3,3.52,2.89V185Z"/><path class="cls-4" d="M162.63,170.55h-6a2.94,2.94,0,0,1,3,2.89V185h6V173.44A3,3,0,0,0,162.63,170.55Z"/><path class="cls-1" d="M135.79,86.72H40.36v83.83h95.43Z"/><path class="cls-5" d="M50.8,92.5H32.9v72.27H50.8Z"/><path class="cls-3" d="M49.31,92.5h-3v72.27h3Z"/><path class="cls-3" d="M37.38,92.5h-3v72.27h3Z"/><path class="cls-3" d="M43.34,92.5h-3v72.27h3Z"/><path class="cls-5" d="M143.25,92.5H125.36v72.27h17.89Z"/><path class="cls-5" d="M111.94,92.5H94v72.27h17.9Z"/><path class="cls-5" d="M82.11,92.5H64.22v72.27H82.11Z"/><path class="cls-3" d="M31.41,170.55v-4.34a1.47,1.47,0,0,1,1.49-1.44H50.8a1.47,1.47,0,0,1,1.49,1.44v4.34Z"/><path class="cls-4" d="M52.29,169.1H31.41v1.45H52.29Z"/><path class="cls-3" d="M62.73,170.55v-4.34a1.47,1.47,0,0,1,1.49-1.44H82.11a1.47,1.47,0,0,1,1.49,1.44v4.34Z"/><path class="cls-4" d="M83.6,169.1H62.73v1.45H83.6Z"/><path class="cls-3" d="M92.55,170.55v-4.34A1.47,1.47,0,0,1,94,164.77h17.9a1.47,1.47,0,0,1,1.49,1.44v4.34Z"/><path class="cls-4" d="M113.43,169.1H92.55v1.45h20.88Z"/><path class="cls-3" d="M123.86,170.55v-4.34a1.48,1.48,0,0,1,1.5-1.44h17.89a1.47,1.47,0,0,1,1.49,1.44v4.34Z"/><path class="cls-4" d="M144.74,169.1H123.86v1.45h20.88Z"/><path class="cls-3" d="M31.41,86.72v4.33A1.47,1.47,0,0,0,32.9,92.5H50.8a1.47,1.47,0,0,0,1.49-1.45V86.72Z"/><path class="cls-4" d="M52.29,86.72H31.41v1.44H52.29Z"/><path class="cls-3" d="M62.73,86.72v4.33a1.47,1.47,0,0,0,1.49,1.45H82.11a1.47,1.47,0,0,0,1.49-1.45V86.72Z"/><path class="cls-4" d="M83.6,86.72H62.73v1.44H83.6Z"/><path class="cls-3" d="M92.55,86.72v4.33A1.47,1.47,0,0,0,94,92.5h17.9a1.47,1.47,0,0,0,1.49-1.45V86.72Z"/><path class="cls-4" d="M113.43,86.72H92.55v1.44h20.88Z"/><path class="cls-3" d="M123.86,86.72v4.33a1.48,1.48,0,0,0,1.5,1.45h17.89a1.47,1.47,0,0,0,1.49-1.45V86.72Z"/><path class="cls-4" d="M144.74,86.72H123.86v1.44h20.88Z"/><path class="cls-4" d="M88.08,37.58,19.48,80.94H156.67Z"/><path class="cls-6" d="M39.55,75.16,88.08,44.48,136.6,75.16Z"/><path class="cls-6" d="M89.57,80.94H15a1.47,1.47,0,0,0-1.49,1.44v2.89A1.47,1.47,0,0,0,15,86.72H161.14a1.47,1.47,0,0,0,1.49-1.45V82.38a1.47,1.47,0,0,0-1.49-1.44Z"/><path class="cls-2" d="M88.08,8.67a2.94,2.94,0,0,0,3-2.89,3,3,0,0,0-6,0A2.94,2.94,0,0,0,88.08,8.67Z"/><path class="cls-7" d="M117.9,28.91H100V14.45H117.9l-6,7.23Z"/><path class="cls-7" d="M106,8.67H88.08V23.13H106Z"/><path class="cls-7" d="M106,23.13h-6v5.78Z"/><path class="cls-3" d="M80.62,92.5h-3v72.27h3Z"/><path class="cls-3" d="M68.69,92.5h-3v72.27h3Z"/><path class="cls-3" d="M74.66,92.5h-3v72.27h3Z"/><path class="cls-3" d="M110.44,92.5h-3v72.27h3Z"/><path class="cls-3" d="M98.52,92.5h-3v72.27h3Z"/><path class="cls-3" d="M104.48,92.5h-3v72.27h3Z"/><path class="cls-3" d="M141.76,92.5h-3v72.27h3Z"/><path class="cls-3" d="M129.83,92.5h-3v72.27h3Z"/><path class="cls-3" d="M135.79,92.5h-3v72.27h3Z"/></g></g></svg>