<svg width="239" height="164" viewBox="0 0 239 164" fill="none" xmlns="http://www.w3.org/2000/svg">
<path d="M0.00597816 7.12073C2.81801 39.0723 2.19311 71.1587 1.56822 103.178C1.56822 104.458 3.4429 104.458 3.4429 103.178C4.13029 71.1587 4.69269 39.0723 1.88066 7.12073C1.75569 5.83997 -0.119001 5.83997 0.00597816 7.12073Z" fill="#837B7B"/>
<path d="M1.0057 7.86166C13.6911 8.46833 26.1265 4.62605 38.6869 3.14307C51.4348 1.66008 64.3076 1.66008 77.0555 3.07565C78.2428 3.21047 78.2428 1.18822 77.0555 1.0534C64.3076 -0.362175 51.4348 -0.362171 38.6869 1.12081C26.1265 2.6038 13.6911 6.44608 1.0057 5.8394C-0.244088 5.8394 -0.244088 7.86166 1.0057 7.86166Z" fill="#837B7B"/>
<path d="M76.2431 2.53526C77.9303 9.61315 78.1803 16.8933 78.3052 24.106C78.4927 31.8579 78.7427 39.6773 78.9926 47.4293C79.4926 62.731 80.1175 78.1001 80.8673 93.4018C80.9298 94.6826 82.8045 94.6826 82.742 93.4018C81.9921 77.6283 81.3047 61.8547 80.8048 46.0811C80.5549 38.3291 80.3674 30.5772 80.1799 22.8926C79.9925 15.8821 79.68 8.80425 78.0553 1.996C77.7429 0.715244 75.9306 1.2545 76.2431 2.53526Z" fill="#837B7B"/>
<path d="M2.44256 104.66C15.8778 108.839 30.3129 107.289 43.9981 105.806C57.1834 104.39 70.2437 101.694 82.3042 95.4248C83.3665 94.8855 82.4292 93.1329 81.3669 93.6721C69.3064 99.9411 56.1211 102.503 42.9358 103.918C29.7505 105.266 15.8778 106.749 3.00495 102.705C1.75515 102.3 1.25526 104.255 2.44256 104.66Z" fill="#837B7B"/>
<path d="M79.4923 20.6691C87.116 19.3883 94.8647 18.9838 102.613 19.4557C106.613 19.7253 110.612 20.1972 114.611 20.9387C116.299 21.2757 118.173 21.4106 119.798 22.0172C122.11 22.8935 121.985 24.7136 122.36 27.0729C125.235 43.5879 127.109 60.3052 128.047 77.0899C128.109 78.3707 129.984 78.3707 129.921 77.0899C129.359 67.5853 128.547 58.0807 127.422 48.6436C126.922 44.262 126.297 39.8805 125.61 35.4989C125.235 33.1396 124.86 30.7803 124.485 28.421C124.172 26.3988 124.047 23.8373 123.297 22.0172C122.235 19.3883 117.923 19.4557 115.674 19.0512C111.737 18.3098 107.8 17.7705 103.801 17.5009C95.4896 16.8942 87.241 17.366 78.9924 18.7142C77.8051 18.9164 78.305 20.8713 79.4923 20.6691Z" fill="#837B7B"/>
<path d="M55.9974 103.851C57.1222 107.221 57.8096 110.592 57.9345 114.164C57.997 115.917 57.7471 118.007 58.9344 119.422C60.1217 120.838 62.1838 120.838 63.8085 121.108C66.4331 121.512 69.1202 121.849 71.7447 121.984C83.9302 122.725 96.1156 121.04 108.176 119.288C109.363 119.153 109.363 117.063 108.176 117.265C97.8653 118.748 87.5546 120.231 77.1189 120.096C74.7442 120.096 72.3696 119.962 69.995 119.759C68.4328 119.625 66.933 119.422 65.3708 119.22C64.3085 119.085 62.0589 119.153 61.2465 118.479C59.1218 116.793 59.8092 112.951 59.4343 110.457C59.1218 107.963 58.497 105.604 57.7471 103.244C57.3722 102.098 55.5599 102.57 55.9974 103.851Z" fill="#837B7B"/>
<path d="M105.176 78.1694C106.551 84.6406 106.801 91.314 107.113 97.9875C107.426 104.324 107.738 110.728 107.988 117.064C108.488 130.006 108.8 142.949 108.925 155.959C108.925 157.239 110.8 157.239 110.8 155.959C110.675 142.544 110.3 129.198 109.8 115.783C109.3 103.245 109.613 89.9659 106.988 77.6975C106.738 76.3494 104.926 76.8886 105.176 78.1694Z" fill="#837B7B"/>
<path d="M106.426 79.3817C119.486 78.5728 132.546 78.775 145.544 79.921C146.731 80.0558 146.731 78.0336 145.544 77.8987C132.546 76.6854 119.486 76.5506 106.426 77.3595C105.238 77.4943 105.238 79.5165 106.426 79.3817Z" fill="#837B7B"/>
<path d="M108.738 156.363C110.3 159.262 112.863 160.34 115.862 160.745C120.361 161.351 124.923 161.554 129.422 161.891C139.046 162.565 148.669 163.104 158.292 163.171C162.979 163.171 167.728 163.104 172.415 162.902C174.665 162.767 176.914 162.632 179.164 162.497C180.351 162.43 182.413 162.632 183.476 161.688C184.163 161.082 184.226 160.205 184.351 159.262C184.601 156.633 184.538 153.936 184.601 151.307C184.788 145.982 184.913 140.657 185.1 135.332C185.163 134.051 183.288 134.051 183.226 135.332C183.101 139.511 182.976 143.758 182.851 147.937C182.788 149.959 182.726 151.914 182.663 153.936C182.601 155.015 182.601 156.161 182.538 157.239C182.476 159.127 182.288 159.801 180.414 160.34C178.789 160.812 176.602 160.61 174.915 160.745C172.853 160.879 170.853 160.947 168.791 161.014C164.916 161.149 161.042 161.149 157.105 161.149C149.544 161.082 141.92 160.745 134.359 160.205C130.485 159.936 126.61 159.666 122.673 159.329C118.674 158.992 112.675 159.599 110.363 155.352C109.738 154.206 108.113 155.285 108.738 156.363Z" fill="#837B7B"/>
<path d="M141.294 49.5201C144.731 62.2603 145.481 75.0679 146.043 88.2799C146.668 101.762 147.231 115.176 147.855 128.658C147.918 129.938 149.793 129.938 149.73 128.658C149.105 114.771 148.48 100.885 147.855 86.9318C147.293 73.9893 146.418 61.5188 143.044 48.9808C142.731 47.7675 140.982 48.3067 141.294 49.5201Z" fill="#837B7B"/>
<path d="M148.294 130.275C155.605 133.039 163.354 133.511 170.978 134.252C178.914 135.061 186.475 135.938 194.411 134.522C202.348 133.106 210.221 131.421 218.095 129.466C225.281 127.646 231.905 125.017 237.654 119.962C238.592 119.153 237.279 117.737 236.342 118.546C230.405 123.737 223.282 126.096 215.908 127.916C208.597 129.736 201.285 131.286 193.912 132.567C186.163 133.915 178.727 132.972 170.978 132.163C163.542 131.354 155.918 130.949 148.794 128.253C147.669 127.849 147.169 129.803 148.294 130.275Z" fill="#837B7B"/>
<path d="M142.108 49.5873C155.543 45.4754 169.603 45.2058 183.476 44.4643C197.536 43.6554 211.408 43.1835 225.469 44.3295C226.656 44.3969 226.656 42.3746 225.469 42.3072C211.034 41.0939 196.786 41.7005 182.351 42.5094C168.666 43.2509 154.855 43.6554 141.608 47.6999C140.42 47.9695 140.92 49.9244 142.108 49.5873Z" fill="#837B7B"/>
<path d="M224.531 43.2516C224.718 56.0592 226.281 68.7994 228.405 81.4047C229.467 87.8085 230.717 94.145 232.03 100.481C233.279 106.75 234.342 113.087 236.341 119.086C236.716 120.299 238.528 119.76 238.154 118.547C234.342 106.953 232.529 94.2123 230.467 82.1462C228.218 69.2712 226.655 56.3288 226.406 43.2516C226.343 41.9708 224.468 41.9708 224.531 43.2516Z" fill="#837B7B"/>
<path d="M7.56696 18.1754C7.87941 21.8155 8.12938 25.4555 8.44183 29.0956C8.56681 30.3763 10.4415 30.3763 10.3165 29.0956C10.0041 25.4555 9.75409 21.8155 9.44164 18.1754C9.37915 16.8947 7.50447 16.8947 7.56696 18.1754Z" fill="#11345C"/>
<path d="M9.25406 24.9842C11.1287 24.445 13.0034 24.0405 14.8781 23.7709C16.0654 23.6361 16.0654 21.6138 14.8781 21.7486C12.816 22.0183 10.7538 22.4227 8.75415 23.0294C7.62934 23.3664 8.12925 25.3213 9.25406 24.9842Z" fill="#11345C"/>
<path d="M14.3789 15.9506C14.3789 18.2425 14.3789 20.5344 14.4414 22.8262C14.4414 24.6463 14.2539 26.5337 14.7538 28.2863C15.1288 29.4997 16.941 29.0278 16.566 27.7471C16.0661 25.927 16.3161 23.77 16.3161 21.9499C16.3161 19.9277 16.3161 17.9728 16.2536 15.9506C16.2536 14.6024 14.3789 14.6024 14.3789 15.9506Z" fill="#11345C"/>
<path d="M20.1895 16.8272C22.6266 17.2316 25.0637 15.5464 27.3758 16.3553C28.5006 16.7598 29.0005 14.8049 27.8757 14.4005C25.3761 13.5916 23.1265 15.2768 20.6894 14.8723C19.5646 14.6701 19.0022 16.6249 20.1895 16.8272Z" fill="#11345C"/>
<path d="M23.5021 16.5568C24.127 20.062 24.4395 23.6346 24.4395 27.2073C24.4395 28.488 26.3141 28.488 26.3141 27.2073C26.3141 23.4324 26.0017 19.7249 25.3143 16.0175C25.0644 14.7367 23.2522 15.276 23.5021 16.5568Z" fill="#11345C"/>
<path d="M32.3752 14.2653C32.1878 18.9838 32.1878 23.7024 32.2503 28.421C32.2503 29.7018 34.1249 29.7018 34.1249 28.421C34.0625 23.7024 34.0625 18.9838 34.2499 14.2653C34.2499 12.9845 32.3752 12.9845 32.3752 14.2653Z" fill="#11345C"/>
<path d="M32.3756 14.3328C33.8129 17.7706 36.8124 19.8603 37.8747 23.5003C38.1247 24.2418 39.2495 24.5788 39.5619 23.7699C41.0617 20.2647 42.6239 16.8269 44.1237 13.3216C43.5613 13.2542 42.9989 13.1868 42.4365 13.052C43.3738 18.3773 44.3111 23.7699 45.186 29.0952C45.436 30.376 47.1857 29.8367 46.9982 28.5559C46.0609 23.2307 45.1235 17.838 44.2487 12.5127C44.1237 11.7038 42.8739 11.5016 42.5614 12.2431C41.0617 15.7483 39.4994 19.1862 37.9997 22.6914C38.5621 22.7588 39.1245 22.8262 39.6869 22.961C38.5621 19.0513 35.5626 16.8943 34.0004 13.2542C33.5005 12.1083 31.8757 13.1194 32.3756 14.3328Z" fill="#11345C"/>
<path d="M51.0598 11.2989C51.9971 16.9612 52.247 22.5561 51.9346 28.2859C51.9346 28.8251 52.372 29.297 52.8719 29.297C56.1839 29.297 59.3084 28.6903 62.4329 27.477C63.5577 27.0051 63.0577 25.0503 61.9329 25.5221C58.9959 26.6681 55.9964 27.2747 52.8719 27.2747C53.1844 27.6118 53.4968 27.9488 53.8093 28.2859C54.1217 22.3539 53.8093 16.5568 52.8095 10.7597C52.622 9.47892 50.8098 10.0182 51.0598 11.2989Z" fill="#11345C"/>
<path d="M8.44223 42.3747C20.3152 41.4309 32.2508 41.0265 44.1863 41.0939C45.3736 41.0939 45.3736 39.0717 44.1863 39.0717C32.2508 39.0042 20.3152 39.4087 8.44223 40.3524C7.25493 40.4198 7.25493 42.4421 8.44223 42.3747Z" fill="#837B7B"/>
<path d="M8.75375 51.0699C11.4408 51.1373 14.1903 51.2722 16.8774 51.0699C19.377 50.9351 21.8141 50.3958 24.3137 50.7329C25.501 50.8677 25.501 48.8455 24.3137 48.7106C21.8141 48.3736 19.377 48.9129 16.8774 49.0477C14.1903 49.1825 11.4408 49.1151 8.75375 49.0477C7.50396 48.9803 7.50396 51.0025 8.75375 51.0699Z" fill="#837B7B"/>
<path d="M8.69223 56.8002C13.1915 57.0698 17.6282 56.0587 22.065 56.8002C23.2523 57.0024 23.7522 55.0476 22.5649 54.8454C17.9406 54.1039 13.3165 55.0476 8.69223 54.7779C7.44244 54.7105 7.44244 56.7328 8.69223 56.8002Z" fill="#837B7B"/>
<path d="M9.75473 69.6765C13.8166 69.6765 17.8784 69.6765 22.0027 69.6765C23.19 69.6765 23.19 67.6543 22.0027 67.6543C17.9409 67.6543 13.879 67.6543 9.75473 67.6543C8.56743 67.6543 8.56743 69.6765 9.75473 69.6765Z" fill="#837B7B"/>
<path d="M10.5672 74.3933C13.5042 74.3933 16.5037 74.3933 19.4407 74.3933C20.628 74.3933 20.628 72.3711 19.4407 72.3711C16.5037 72.3711 13.5042 72.3711 10.5672 72.3711C9.31744 72.3711 9.31744 74.3933 10.5672 74.3933Z" fill="#837B7B"/>
<path d="M8.75375 81.8777C12.9405 81.8777 17.1273 81.8777 21.2517 81.8777C22.439 81.8777 22.439 79.8555 21.2517 79.8555C17.0649 79.8555 12.8781 79.8555 8.75375 79.8555C7.50396 79.8555 7.50396 81.8777 8.75375 81.8777Z" fill="#837B7B"/>
<path d="M40.9989 49.1824C49.8099 49.1824 58.621 49.1824 67.432 49.1824C68.6193 49.1824 68.6193 47.1602 67.432 47.1602C58.621 47.1602 49.8099 47.1602 40.9989 47.1602C39.8116 47.1602 39.8116 49.1824 40.9989 49.1824Z" fill="#837B7B"/>
<path d="M41.6239 57.1375C47.3729 57.1375 53.122 57.1375 58.8085 57.1375C59.9958 57.1375 59.9958 55.1152 58.8085 55.1152C53.0595 55.1152 47.3104 55.1152 41.6239 55.1152C40.4366 55.1152 40.4366 57.1375 41.6239 57.1375Z" fill="#837B7B"/>
<path d="M65.1825 56.7996C66.8697 56.7996 68.6194 56.7996 70.3066 56.7996C71.4939 56.7996 71.4939 54.7773 70.3066 54.7773C68.6194 54.7773 66.8697 54.7773 65.1825 54.7773C63.9327 54.7773 63.9327 56.7996 65.1825 56.7996Z" fill="#837B7B"/>
<path d="M43.4364 69.8094C50.3102 69.8094 57.2465 69.8094 64.1204 69.8094C65.3077 69.8094 65.3077 67.7871 64.1204 67.7871C57.2465 67.7871 50.3102 67.7871 43.4364 67.7871C42.2491 67.7871 42.2491 69.8094 43.4364 69.8094Z" fill="#837B7B"/>
<path d="M36.0623 78.9773C42.1238 78.9773 48.1228 78.9773 54.1843 78.9773C55.3716 78.9773 55.3716 76.9551 54.1843 76.9551C48.1228 76.9551 42.1238 76.9551 36.0623 76.9551C34.8126 76.9551 34.8126 78.9773 36.0623 78.9773Z" fill="#837B7B"/>
<path d="M43.4364 83.9656C47.9981 83.9656 52.5598 83.9656 57.1841 83.9656C58.3714 83.9656 58.3714 81.9434 57.1841 81.9434C52.6223 81.9434 48.0606 81.9434 43.4364 81.9434C42.2491 81.9434 42.2491 83.9656 43.4364 83.9656Z" fill="#837B7B"/>
<path d="M60.8084 78.6414C65.1827 78.6414 69.557 78.6414 73.9312 78.6414C75.1185 78.6414 75.1185 76.6191 73.9312 76.6191C69.557 76.6191 65.1827 76.6191 60.8084 76.6191C59.5586 76.6191 59.5586 78.6414 60.8084 78.6414Z" fill="#837B7B"/>
<path d="M82.493 30.5789C86.4923 30.5789 90.5542 30.5789 94.5535 30.5789C95.7408 30.5789 95.7408 28.5566 94.5535 28.5566C90.5542 28.5566 86.4923 28.5566 82.493 28.5566C81.3057 28.5566 81.3057 30.5789 82.493 30.5789Z" fill="#837B7B"/>
<path d="M98.2395 26.7367C101.364 28.1523 104.863 28.0849 107.863 29.7701C107.863 29.1634 107.863 28.6242 107.863 28.0175C105.676 29.7027 103.489 31.3879 101.364 33.0731C100.364 33.8146 101.301 35.5672 102.301 34.8258C104.488 33.1405 106.676 31.4553 108.8 29.7701C109.3 29.3657 109.488 28.422 108.8 28.0175C105.613 26.2649 101.989 26.2649 98.7394 24.7819C97.6146 24.31 97.1147 26.2649 98.2395 26.7367Z" fill="#837B7B"/>
<path d="M84.3664 39.5438C85.8036 39.9482 87.2409 40.3527 88.7406 40.6223C89.1156 40.6897 92.5525 40.892 92.74 41.2964C92.5525 40.892 87.7408 45.4083 87.2409 46.015C86.4285 46.9587 87.7408 48.3743 88.5532 47.4306C90.0529 45.7454 91.6777 44.3298 93.5523 43.1164C94.4897 42.5098 95.552 41.6334 94.9896 40.2853C94.4272 39.0719 92.74 39.2742 91.6777 39.0719C89.428 38.7349 87.1784 38.1956 84.9288 37.5215C83.679 37.2519 83.1791 39.2067 84.3664 39.5438Z" fill="#837B7B"/>
<path d="M83.992 56.6668C90.4285 56.6668 96.8649 56.6668 103.301 56.6668C104.489 56.6668 104.489 54.6445 103.301 54.6445C96.8649 54.6445 90.4285 54.6445 83.992 54.6445C82.8047 54.6445 82.8047 56.6668 83.992 56.6668Z" fill="#837B7B"/>
<path d="M103.551 50.1261C104.864 50.8676 106.238 51.3395 107.676 51.7439C109.175 52.2158 111.737 52.6203 112.675 54.1707C112.675 53.8336 112.675 53.4966 112.675 53.1595C112.05 54.3055 110.8 55.3166 109.925 56.2603C109.05 57.204 108.113 58.2152 107.238 59.1589C106.488 59.9678 107.426 61.3159 108.363 60.7767C108.488 60.7093 108.675 60.5744 108.8 60.507C109.863 59.833 108.925 58.1477 107.863 58.7544C107.738 58.8218 107.551 58.9566 107.426 59.0241C107.801 59.5633 108.176 60.1026 108.55 60.6419C109.613 59.4959 110.738 58.35 111.8 57.1366C112.675 56.1929 113.737 55.384 114.3 54.2381C114.487 53.901 114.487 53.4966 114.3 53.2269C112.362 49.9913 107.426 50.0587 104.489 48.4409C103.426 47.7669 102.489 49.5195 103.551 50.1261Z" fill="#837B7B"/>
<path d="M83.867 68.1922C88.3663 68.1922 92.928 68.1922 97.4273 68.1922C98.6146 68.1922 98.6146 66.1699 97.4273 66.1699C92.928 66.1699 88.3663 66.1699 83.867 66.1699C82.6797 66.1699 82.6797 68.1922 83.867 68.1922Z" fill="#837B7B"/>
<path d="M105.176 67.7215C109.987 67.7215 114.862 67.7215 119.673 67.7215C120.861 67.7215 120.861 65.6992 119.673 65.6992C114.862 65.6992 109.987 65.6992 105.176 65.6992C103.926 65.6992 103.926 67.7215 105.176 67.7215Z" fill="#837B7B"/>
<path d="M85.5545 81.5398C90.4912 81.5398 95.4278 81.5398 100.365 81.5398C101.552 81.5398 101.552 79.5176 100.365 79.5176C95.4278 79.5176 90.4912 79.5176 85.5545 79.5176C84.3047 79.5176 84.3047 81.5398 85.5545 81.5398Z" fill="#837B7B"/>
<path d="M65.1825 106.614C72.8062 106.614 80.4924 106.614 88.1161 106.614C89.3034 106.614 89.3034 104.592 88.1161 104.592C80.4924 104.592 72.8062 104.592 65.1825 104.592C63.9327 104.592 63.9327 106.614 65.1825 106.614Z" fill="#837B7B"/>
<path d="M73.744 113.761C80.6178 113.761 87.5542 113.761 94.428 113.761C95.6153 113.761 95.6153 111.738 94.428 111.738C87.5542 111.738 80.6178 111.738 73.744 111.738C72.5567 111.738 72.5567 113.761 73.744 113.761Z" fill="#837B7B"/>
<path d="M133.484 89.8974C130.172 86.0551 125.923 94.8856 125.486 97.5146C124.923 101.02 125.735 104.592 126.61 107.963C127.298 110.727 127.985 113.086 126.985 115.917C126.11 118.276 124.361 120.433 122.236 121.445C121.424 121.849 121.799 123.399 122.736 123.332C130.297 122.523 128.173 138.094 130.11 143.083C131.984 147.801 136.296 150.026 140.858 149.217C142.045 149.015 141.545 147.06 140.358 147.262C130.61 148.947 131.11 137.286 130.235 130.41C129.672 126.163 127.485 120.77 122.674 121.31C122.861 121.916 122.986 122.59 123.173 123.197C127.11 121.31 130.047 116.052 129.297 111.401C128.735 107.693 127.298 104.255 127.173 100.481C127.11 98.9302 127.298 97.3123 127.798 95.8294C127.985 95.3575 130.86 89.8974 132.109 91.3804C132.984 92.3241 134.297 90.8411 133.484 89.8974Z" fill="#837B7B"/>
<path d="M163.292 132.501C161.729 134.321 162.229 136.478 163.104 138.635C163.854 140.455 165.666 142.612 165.604 144.634C165.604 148.342 161.604 150.027 158.98 151.105C157.855 151.577 158.355 153.532 159.48 153.06C162.604 151.779 166.104 150.162 167.166 146.387C167.603 144.971 167.478 143.556 166.978 142.207C166.228 140.118 162.604 136.141 164.604 133.916C165.479 132.973 164.104 131.557 163.292 132.501Z" fill="#837B7B"/>
<path d="M173.665 76.2807C163.916 71.9666 154.668 80.7971 156.105 91.7173C157.543 102.503 169.291 104.795 174.915 96.1662C175.602 95.0877 173.977 94.0766 173.29 95.1551C170.978 98.6603 167.103 100.615 163.167 99.1322C159.292 97.6492 157.73 93.4699 157.73 89.2232C157.73 80.3927 165.604 75 173.102 78.2356C174.29 78.7075 174.79 76.7526 173.665 76.2807Z" fill="#EC615B"/>
<path d="M186.412 85.7176C189.786 85.3805 193.286 84.7738 196.723 84.9087C197.91 84.9761 197.91 82.9538 196.723 82.8864C193.286 82.7516 189.786 83.3583 186.412 83.6953C185.225 83.7627 185.225 85.785 186.412 85.7176Z" fill="#EC615B"/>
<path d="M190.536 77.6305C190.974 82.2817 191.161 86.9329 191.099 91.584C191.099 92.8648 192.973 92.8648 192.973 91.584C193.036 86.9329 192.848 82.2817 192.411 77.6305C192.286 76.3497 190.411 76.3497 190.536 77.6305Z" fill="#EC615B"/>
<path d="M203.473 81.8756C206.597 82.3474 209.784 82.2126 212.908 82.0778C214.096 82.0104 214.096 79.9881 212.908 80.0555C209.909 80.1903 206.909 80.3926 203.972 79.9207C202.785 79.7859 202.223 81.7407 203.473 81.8756Z" fill="#EC615B"/>
<path d="M207.721 74.0582C207.909 79.3161 208.034 84.5739 208.221 89.8992C208.284 91.18 210.158 91.18 210.096 89.8992C209.908 84.6413 209.783 79.3835 209.596 74.0582C209.533 72.7775 207.659 72.7775 207.721 74.0582Z" fill="#EC615B"/>
</svg>
