<svg width="177" height="114" viewBox="0 0 177 114" fill="none" xmlns="http://www.w3.org/2000/svg">
<path d="M72.8981 4.35556C74.3798 22.2063 75.766 40.3457 72.1333 58.0521C71.9421 58.9663 73.3283 59.3512 73.5194 58.437C77.2 40.5863 75.8138 22.3506 74.332 4.35556C74.2364 3.44137 72.8025 3.44137 72.8981 4.35556Z" fill="#837B7B"/>
<path d="M73.7114 4.83608C82.5064 5.221 91.3491 5.221 100.144 4.78797C107.744 4.40304 116.013 4.40305 123.088 1.32367C123.948 0.938753 123.183 -0.312244 122.371 0.0726771C115.01 3.29639 106.167 3.10393 98.28 3.44074C90.1064 3.77755 81.885 3.77754 73.7114 3.39262C72.8032 3.34451 72.8032 4.78796 73.7114 4.83608Z" fill="#837B7B"/>
<path d="M121.893 1.13128C126.482 18.7414 127.581 37.1214 125.048 55.1646C124.904 56.0788 126.291 56.4637 126.434 55.5495C128.967 37.2177 127.916 18.6452 123.279 0.746358C123.088 -0.16783 121.702 0.217093 121.893 1.13128Z" fill="#837B7B"/>
<path d="M72.5163 58.773C81.9804 60.8901 91.7314 61.0826 101.387 60.4089C106.262 60.0721 111.186 59.4948 116.061 58.9174C119.55 58.4843 123.183 58.2919 126.051 56.0305C126.768 55.4531 125.764 54.4427 125.047 55.0201C121.797 57.5702 116.73 57.4258 112.858 57.8588C108.461 58.3881 104.016 58.8212 99.5704 59.1098C90.632 59.6391 81.6937 59.3985 72.9465 57.4258C71.9905 57.1852 71.6081 58.5806 72.5163 58.773Z" fill="#837B7B"/>
<path d="M76.3403 54.5393C77.4875 54.5875 78.5869 54.2025 79.734 54.1063C81.1202 54.0101 82.4108 54.1544 83.7491 54.4912C84.6573 54.7318 85.0397 53.3365 84.1315 53.0959C82.8888 52.7591 81.5982 52.5666 80.3076 52.6147C78.9693 52.6629 77.6787 53.144 76.3403 53.0959C75.4321 53.0478 75.4321 54.4912 76.3403 54.5393Z" fill="#837B7B"/>
<path d="M77.2007 51.1712C79.5428 51.2193 81.9327 51.2193 84.2749 51.2674C85.1831 51.2674 85.1831 49.824 84.2749 49.824C81.9327 49.7758 79.5428 49.7759 77.2007 49.7277C76.2925 49.6796 76.2925 51.1231 77.2007 51.1712Z" fill="#837B7B"/>
<path d="M77.6782 47.5618C79.7813 47.658 81.8367 47.7543 83.9398 47.8505C84.848 47.8986 84.848 46.4552 83.9398 46.407C81.8367 46.3108 79.7813 46.2146 77.6782 46.1184C76.77 46.0702 76.77 47.5137 77.6782 47.5618Z" fill="#837B7B"/>
<path d="M78.3471 38.4205C80.6893 38.1318 83.0314 37.9875 85.4214 38.0356C86.3295 38.0356 86.3295 36.5921 85.4214 36.5921C83.0792 36.544 80.6893 36.6884 78.3471 36.9771C77.439 37.1214 77.439 38.5649 78.3471 38.4205Z" fill="#837B7B"/>
<path d="M78.8257 34.6192C81.0722 34.6674 83.3188 34.7155 85.5653 34.7636C86.4735 34.7636 86.4735 33.3201 85.5653 33.3201C83.3188 33.272 81.0722 33.2239 78.8257 33.1758C77.9175 33.1758 77.9175 34.6192 78.8257 34.6192Z" fill="#837B7B"/>
<path d="M78.3471 31.347C80.4025 31.4914 82.41 31.4433 84.4176 31.2508C85.3258 31.1546 85.3258 29.7111 84.4176 29.8073C82.41 30.0479 80.3547 30.0479 78.3471 29.9036C77.439 29.8073 77.439 31.2508 78.3471 31.347Z" fill="#837B7B"/>
<path d="M78.6818 22.1094C81.1674 21.6283 83.6529 21.3877 86.234 21.4358C87.1422 21.4358 87.1422 19.9923 86.234 19.9923C83.5573 19.9442 80.9284 20.1848 78.2994 20.7141C77.439 20.9065 77.8214 22.3019 78.6818 22.1094Z" fill="#837B7B"/>
<path d="M78.5392 18.5965C81.216 18.6446 83.8927 18.6446 86.6172 18.5003C87.5254 18.4522 87.5254 17.0087 86.6172 17.0568C83.9405 17.2012 81.2638 17.2493 78.5392 17.1531C77.5833 17.105 77.5833 18.5484 78.5392 18.5965Z" fill="#837B7B"/>
<path d="M77.5356 14.8444C80.4991 14.9407 83.4627 14.7963 86.4262 14.5076C87.3344 14.4114 87.3344 12.9679 86.4262 13.0642C83.4627 13.3529 80.4991 13.4972 77.5356 13.401C76.6274 13.401 76.6274 14.8444 77.5356 14.8444Z" fill="#837B7B"/>
<path d="M93.4993 13.4962C100.908 12.3895 108.365 11.8603 115.821 11.9565C116.73 11.9565 116.73 10.5131 115.821 10.5131C108.221 10.4168 100.621 10.9461 93.1169 12.1009C92.2088 12.2452 92.5912 13.6405 93.4993 13.4962Z" fill="#837B7B"/>
<path d="M94.9816 16.1917C102.343 15.5662 109.751 15.1813 117.16 14.9407C118.068 14.8926 118.068 13.4492 117.16 13.4973C109.751 13.6897 102.343 14.1228 94.9816 14.7483C94.0257 14.8445 94.0257 16.288 94.9816 16.1917Z" fill="#837B7B"/>
<path d="M94.4077 19.4145C102.055 19.0296 109.751 19.9438 117.399 19.1258C118.307 19.0296 118.307 17.5861 117.399 17.6823C109.751 18.5484 102.055 17.5861 94.4077 17.971C93.4995 18.0191 93.4995 19.4626 94.4077 19.4145Z" fill="#837B7B"/>
<path d="M89.8674 31.348C93.2133 31.348 96.5592 31.2999 99.9051 31.2999C100.813 31.2999 100.813 29.8564 99.9051 29.8564C96.5592 29.8564 93.2133 29.9046 89.8674 29.9046C88.9114 29.9046 88.9114 31.348 89.8674 31.348Z" fill="#837B7B"/>
<path d="M90.2014 35.004C93.7863 34.9078 97.419 34.8115 101.004 34.7634C102.008 34.7634 111.567 34.2342 111.567 34.3304C111.854 35.1965 113.24 34.8597 112.954 33.9455C112.667 32.935 111.806 33.0794 110.898 33.0794C108.699 33.0794 106.501 33.1756 104.302 33.2237C99.6177 33.32 94.8856 33.4643 90.2014 33.5605C89.2454 33.5605 89.2454 35.004 90.2014 35.004Z" fill="#837B7B"/>
<path d="M90.2014 38.6136C93.0693 38.7579 95.8894 38.7579 98.7573 38.7098C99.6655 38.6617 99.6655 37.2182 98.7573 37.2663C95.8894 37.3626 93.0693 37.3145 90.2014 37.1701C89.2454 37.122 89.2454 38.5655 90.2014 38.6136Z" fill="#837B7B"/>
<path d="M88.5288 46.8894C98.0885 46.2639 107.696 46.0233 117.304 46.1676C118.212 46.1676 118.212 44.7242 117.304 44.7242C107.696 44.5798 98.1363 44.8204 88.5288 45.4459C87.6206 45.494 87.6206 46.9375 88.5288 46.8894Z" fill="#837B7B"/>
<path d="M90.0112 50.0644C92.4011 50.0162 94.8389 49.9681 97.2288 49.92C98.137 49.92 98.137 48.4766 97.2288 48.4766C94.8389 48.5247 92.4011 48.5728 90.0112 48.6209C89.103 48.6209 89.103 50.0644 90.0112 50.0644Z" fill="#837B7B"/>
<path d="M103.012 50.0163C106.883 49.6314 110.803 49.2946 114.675 49.054C115.583 49.0059 115.583 47.5624 114.675 47.6106C110.755 47.8511 106.883 48.1879 103.012 48.5729C102.103 48.6691 102.056 50.1125 103.012 50.0163Z" fill="#837B7B"/>
<path d="M89.3413 54.6834C97.1803 54.5872 105.019 54.3466 112.858 54.0579C113.766 54.0098 113.766 52.5663 112.858 52.6145C105.019 52.9513 97.1803 53.1437 89.3413 53.2399C88.4331 53.2399 88.4331 54.6834 89.3413 54.6834Z" fill="#837B7B"/>
<path d="M127.724 26.4401C140.103 24.1305 152.675 23.0239 165.293 23.1201C165.054 22.9277 164.815 22.7833 164.624 22.5909C171.985 46.2154 175.522 70.9466 175.092 95.7259C175.092 96.6401 176.526 96.6401 176.526 95.7259C176.956 70.8504 173.419 45.9748 166.01 22.2059C165.915 21.9172 165.628 21.6767 165.341 21.6767C152.627 21.5804 139.912 22.6871 127.389 25.0447C126.433 25.1891 126.815 26.5844 127.724 26.4401Z" fill="#837B7B"/>
<path d="M102.2 59.8308C103.06 73.3511 101.196 86.8234 96.6552 99.5258C96.3684 100.392 97.7068 100.777 98.0414 99.9107C102.582 87.0639 104.494 73.4473 103.634 59.8308C103.586 58.9166 102.152 58.8684 102.2 59.8308Z" fill="#837B7B"/>
<path d="M96.8936 104.99C108.939 110.138 122.131 109.609 134.894 108.406C148.803 107.059 162.473 104.798 175.857 100.804C176.718 100.563 176.383 99.168 175.475 99.4086C162.473 103.258 149.233 105.567 135.706 106.866C122.992 108.117 109.656 108.887 97.6106 103.739C96.798 103.354 96.081 104.605 96.8936 104.99Z" fill="#837B7B"/>
<path d="M113.719 63.8243C111.138 65.2196 108.652 66.8074 106.215 68.4915C105.737 68.8283 105.737 69.6943 106.406 69.7906C108.604 70.2717 110.803 70.7048 113.002 71.1859C113.91 71.3784 114.293 69.983 113.384 69.7906C111.186 69.3094 108.987 68.8764 106.788 68.3952C106.836 68.8283 106.884 69.2613 106.979 69.6944C109.369 68.0103 111.903 66.4225 114.484 65.0272C115.249 64.6423 114.532 63.3913 113.719 63.8243Z" fill="#11345C"/>
<path d="M124.856 59.3994C121.701 64.5478 118.546 69.6961 115.392 74.7963C114.914 75.5661 116.156 76.336 116.634 75.518C119.789 70.3697 122.944 65.2214 126.099 60.1212C126.577 59.3513 125.334 58.6296 124.856 59.3994Z" fill="#11345C"/>
<path d="M127.055 70.3211C129.875 69.8881 132.743 69.455 135.563 69.022C136.471 68.8777 136.089 67.4823 135.181 67.6267C132.361 68.0597 129.493 68.4927 126.673 68.9258C125.764 69.0701 126.147 70.4655 127.055 70.3211Z" fill="#11345C"/>
<path d="M141.299 62.5743C141.251 62.5743 141.203 62.5743 141.155 62.5743C140.821 62.5262 140.534 62.6224 140.343 62.9111C140.295 62.9592 140.295 63.0074 140.247 63.0555C140.104 63.2479 140.104 63.5847 140.247 63.7772C141.347 65.4131 143.928 65.798 145.696 66.183C146.031 66.2792 146.365 66.3273 146.7 66.4235C146.652 66.4716 146.557 66.5198 146.509 66.5679C146.509 66.9047 144.979 68.0594 144.692 68.3C143.641 69.3104 142.589 70.3209 141.538 71.3313C140.869 71.9568 141.872 73.0153 142.542 72.3417C143.832 71.1388 145.075 69.8878 146.365 68.6849C147.035 68.0113 148.373 67.1453 148.086 66.0386C147.847 65.1244 146.843 65.0282 146.031 64.7876C144.74 64.4508 142.255 64.2583 141.442 63.0073C141.442 63.2479 141.442 63.4885 141.442 63.7291C141.49 63.681 141.49 63.6329 141.538 63.5847C141.251 63.681 141.012 63.8253 140.725 63.9215C140.773 63.9215 140.821 63.9215 140.869 63.9215C141.825 64.114 142.207 62.7187 141.299 62.5743Z" fill="#11345C"/>
<path d="M131.499 31.3002C133.985 30.8672 136.47 30.7228 139.004 30.8191C139.912 30.8672 139.912 29.4237 139.004 29.3756C136.327 29.2794 133.698 29.4719 131.117 29.953C130.209 30.0974 130.591 31.4446 131.499 31.3002Z" fill="#837B7B"/>
<path d="M131.118 34.9572C134.511 34.6204 137.905 34.3317 141.299 34.0911C142.207 34.043 142.207 32.5995 141.299 32.6477C137.905 32.8882 134.511 33.1769 131.118 33.5137C130.209 33.61 130.209 35.0534 131.118 34.9572Z" fill="#837B7B"/>
<path d="M132.647 40.3944V40.4426C132.886 40.2501 133.125 40.1058 133.316 39.9133C133.268 39.9133 133.268 39.9133 133.22 39.9133C133.411 40.0095 133.65 40.1539 133.842 40.2501C133.842 40.202 133.794 40.202 133.794 40.1539C133.746 40.4426 133.698 40.7313 133.698 41.0199C133.364 41.1162 133.411 41.1643 133.889 41.1162C134.176 41.1162 134.463 41.1162 134.702 41.1162C135.18 41.1162 135.658 41.0681 136.136 41.0681C137.092 40.9718 138.048 40.8756 139.004 40.6831C139.912 40.5388 139.53 39.1435 138.621 39.2878C137.379 39.5284 136.136 39.6246 134.893 39.6727C134.128 39.6727 133.22 39.4321 132.647 40.0095C132.408 40.2501 132.408 40.635 132.551 40.8756C132.742 41.1643 132.981 41.3086 133.316 41.3086C133.603 41.3086 133.937 41.0681 133.985 40.7794V40.7313C134.224 39.8652 132.838 39.4803 132.647 40.3944Z" fill="#837B7B"/>
<path d="M131.644 47.418C135.659 46.8406 139.674 46.0708 143.737 46.2151C144.645 46.2632 144.645 44.8198 143.737 44.7717C139.531 44.6273 135.372 45.4453 131.261 46.0227C130.353 46.167 130.736 47.5623 131.644 47.418Z" fill="#837B7B"/>
<path d="M147.226 29.7603C151.815 29.1348 156.403 28.798 160.992 28.6536C161.9 28.6055 161.9 27.162 160.992 27.2102C156.356 27.3545 151.767 27.6913 147.226 28.3168C146.318 28.413 146.318 29.8565 147.226 29.7603Z" fill="#837B7B"/>
<path d="M150.525 35.8226C153.393 35.3415 156.213 34.9084 159.081 34.4273C159.989 34.2829 159.606 32.8876 158.698 33.0319C155.83 33.5131 153.01 33.9461 150.142 34.4273C149.234 34.5716 149.617 35.967 150.525 35.8226Z" fill="#837B7B"/>
<path d="M151.48 44.2431C153.918 44.0026 156.403 43.9063 158.889 43.9063C159.797 43.9063 159.797 42.4629 158.889 42.4629C156.403 42.4629 153.965 42.5591 151.48 42.7997C150.572 42.8959 150.572 44.3394 151.48 44.2431Z" fill="#837B7B"/>
<path d="M155.783 46.9858C158.794 46.5527 161.757 46.264 164.817 46.0716C165.725 46.0235 165.725 44.58 164.817 44.6281C161.662 44.8206 158.555 45.1574 155.4 45.5904C154.492 45.7348 154.874 47.082 155.783 46.9858Z" fill="#837B7B"/>
<path d="M108.414 83.6974C109.322 83.6974 109.322 82.2539 108.414 82.2539C107.505 82.2539 107.505 83.6974 108.414 83.6974Z" fill="#837B7B"/>
<path d="M106.883 82.3973C108.078 82.7822 109.226 82.6379 110.468 82.5898C112.094 82.5417 113.719 82.6379 115.344 82.7822C116.252 82.8785 116.252 81.435 115.344 81.3388C113.958 81.1944 112.524 81.0982 111.138 81.1463C109.895 81.1463 108.509 81.435 107.314 81.002C106.405 80.7133 106.023 82.1086 106.883 82.3973Z" fill="#837B7B"/>
<path d="M108.605 86.7289C111.234 86.4883 113.863 86.5364 116.492 86.9213C117.4 87.0176 117.4 85.5741 116.492 85.4779C113.863 85.1411 111.234 85.093 108.605 85.2854C107.697 85.3817 107.697 86.8251 108.605 86.7289Z" fill="#837B7B"/>
<path d="M104.446 92.8388C106.693 93.7049 109.035 93.5605 111.425 93.5605C114.197 93.5605 116.969 93.5605 119.742 93.5605C124.617 93.5605 129.875 94.0898 134.607 92.6463C135.468 92.3577 135.133 90.9623 134.225 91.251C129.636 92.6945 124.474 92.1171 119.742 92.1171C117.256 92.1171 114.818 92.1171 112.333 92.1171C109.8 92.1171 107.218 92.3577 104.781 91.4435C103.92 91.1067 103.586 92.502 104.446 92.8388Z" fill="#837B7B"/>
<path d="M129.158 86.0061C130.687 85.9099 132.217 85.8618 133.746 85.7656C135.276 85.6693 136.853 85.4288 138.287 86.0543C139.148 86.3911 139.53 84.9957 138.67 84.6589C137.283 84.0815 135.897 84.2259 134.415 84.3221C132.647 84.4183 130.878 84.5146 129.11 84.6108C128.202 84.6108 128.202 86.0543 129.158 86.0061Z" fill="#837B7B"/>
<path d="M123.231 99.142C130.926 98.8533 138.574 98.4202 146.27 97.7947C147.178 97.6985 147.178 96.2551 146.27 96.3513C138.622 96.9768 130.926 97.4098 123.231 97.6985C122.275 97.7466 122.275 99.1901 123.231 99.142Z" fill="#837B7B"/>
<path d="M2.34979 49.808C14.9209 50.6741 28.1611 52.6468 40.5888 49.4231C41.497 49.1825 41.1146 47.7872 40.2064 48.0278C27.9699 51.2515 14.8253 49.2306 2.34979 48.3646C1.39382 48.3164 1.39382 49.7599 2.34979 49.808Z" fill="#837B7B"/>
<path d="M1.01089 49.5685C-1.28345 70.3061 0.341722 91.2843 5.74298 111.396C5.98198 112.311 7.36815 111.926 7.12916 111.012C1.7279 90.9956 0.150516 70.1617 2.44486 49.5685C2.54045 48.6543 1.10649 48.6543 1.01089 49.5685Z" fill="#837B7B"/>
<path d="M39.6329 48.8458C38.0556 67.2258 42.5964 85.7501 52.443 101.291C52.921 102.061 54.1637 101.339 53.6857 100.57C43.9826 85.2209 39.5373 66.9852 41.0669 48.8458C41.1625 47.9316 39.7285 47.9316 39.6329 48.8458Z" fill="#837B7B"/>
<path d="M6.79454 111.83C14.1077 114.524 23.1418 113.177 30.5506 111.493C38.4852 109.664 46.0851 106.393 52.8726 101.918C53.6373 101.437 52.9204 100.186 52.1556 100.667C45.6549 104.949 38.5329 108.077 30.9807 109.905C23.6197 111.685 14.4902 113.129 7.17695 110.434C6.31657 110.097 5.93416 111.493 6.79454 111.83Z" fill="#837B7B"/>
<path d="M10.8578 57.7952C8.22886 59.6236 5.83894 61.6444 3.5924 63.9059C3.16221 64.3389 3.44899 65.1569 4.11818 65.1569C7.65529 65.0606 11.2402 64.9644 14.7773 64.9163C15.6855 64.9163 15.6855 63.4728 14.7773 63.4728C11.2402 63.5691 7.65529 63.6653 4.11818 63.7134C4.30937 64.1464 4.45276 64.5314 4.64395 64.9644C6.7949 62.7992 9.08922 60.8265 11.6226 59.0943C12.3395 58.5651 11.6226 57.266 10.8578 57.7952Z" fill="#837B7B"/>
<path d="M17.5014 59.7677C21.2297 59.479 24.9102 59.5271 28.5907 59.9121C29.4989 60.0083 29.4989 58.5648 28.5907 58.4686C24.9102 58.0837 21.1819 58.0356 17.5014 58.3243C16.5933 58.3724 16.5933 59.8158 17.5014 59.7677Z" fill="#837B7B"/>
<path d="M29.0692 57.459C31.3636 57.9883 33.6102 58.6619 35.8567 59.4798C35.7611 59.0949 35.6655 58.6619 35.5221 58.277C33.9925 59.4798 32.5108 60.7308 31.0768 62.0781C30.4076 62.7036 31.4114 63.714 32.0806 63.0885C33.5145 61.7894 34.9963 60.4903 36.5259 59.2874C37.0039 58.9025 36.6692 58.2289 36.1913 58.0845C33.9925 57.2184 31.746 56.5448 29.4039 56.0637C28.5435 55.8712 28.1611 57.2184 29.0692 57.459Z" fill="#837B7B"/>
<path d="M4.35691 74.0579C6.46006 74.2023 8.51539 74.2985 10.6185 74.4428C11.5267 74.4909 11.5267 73.0475 10.6185 72.9994C8.51539 72.855 6.46006 72.7588 4.35691 72.6145C3.44874 72.5663 3.44874 74.0098 4.35691 74.0579Z" fill="#837B7B"/>
<path d="M14.9681 74.0585C20.8473 73.1443 26.7266 72.2301 32.558 71.316C33.4662 71.1716 33.0838 69.7763 32.1756 69.9206C26.2964 70.8348 20.4172 71.749 14.5857 72.6632C13.6775 72.8075 14.0599 74.2029 14.9681 74.0585Z" fill="#837B7B"/>
<path d="M5.40867 78.7735C6.89043 78.7735 8.42001 78.7735 9.90177 78.7735C10.8099 78.7735 10.8099 77.3301 9.90177 77.3301C8.42001 77.3301 6.89043 77.3301 5.40867 77.3301C4.50049 77.3301 4.50049 78.7735 5.40867 78.7735Z" fill="#837B7B"/>
<path d="M5.74363 82.2867C7.46439 82.4311 9.13734 82.2867 10.7625 81.9018C11.6707 81.7093 11.2883 80.314 10.3801 80.5065C8.85053 80.8433 7.32099 80.9395 5.74363 80.8433C4.83546 80.747 4.83546 82.1905 5.74363 82.2867Z" fill="#837B7B"/>
<path d="M5.21824 88.5405C11.5755 87.8669 18.5541 87.8669 24.6245 85.7499C25.4849 85.4612 25.1025 84.0658 24.2421 84.3545C18.2673 86.4235 11.4321 86.4235 5.21824 87.0971C4.31007 87.1933 4.31007 88.6368 5.21824 88.5405Z" fill="#837B7B"/>
<path d="M16.8325 80.5046C23.4287 79.7829 29.9772 78.6281 36.43 77.0403C37.3382 76.7997 36.9558 75.4044 36.0476 75.645C29.7382 77.2328 23.3331 78.3394 16.8325 79.0611C15.9243 79.1574 15.9243 80.6008 16.8325 80.5046Z" fill="#837B7B"/>
<path d="M6.79441 94.4591C8.27618 94.6035 9.71013 94.5072 11.1441 94.1223C12.0523 93.8817 11.6699 92.4864 10.7617 92.727C9.47117 93.0638 8.13278 93.16 6.79441 93.0157C5.88624 92.9194 5.88624 94.3629 6.79441 94.4591Z" fill="#837B7B"/>
<path d="M17.4546 92.9199C19.6055 93.1605 21.6608 92.535 23.764 92.0539C26.3451 91.4765 28.9262 90.8991 31.4596 90.3217C32.3677 90.1293 31.9854 88.7339 31.0772 88.9264C28.8307 89.4556 26.5363 89.9368 24.2898 90.4661C22.0432 90.9472 19.7489 91.7171 17.4546 91.4765C16.5464 91.3321 16.5464 92.7756 17.4546 92.9199Z" fill="#837B7B"/>
<path d="M14.5383 95.518C13.3433 95.8548 12.3873 96.6728 12.1005 97.9238C12.0049 98.4049 12.0527 98.9823 12.1961 99.4634C12.3395 99.8484 14.347 102.398 13.2955 102.687C12.8653 102.783 12.5785 103.361 12.8653 103.746C14.0125 105.333 13.8691 107.643 15.5898 108.846C16.6892 109.616 17.8842 109.664 18.888 108.75C19.5571 108.124 18.5534 107.114 17.8842 107.739C16.1634 109.375 14.7773 103.986 14.1081 103.024C13.9647 103.361 13.8213 103.746 13.6779 104.083C14.5383 103.842 15.0163 103.361 15.1119 102.447C15.3508 100.955 11.8615 97.7313 14.9206 96.9133C15.8288 96.6728 15.4465 95.2774 14.5383 95.518Z" fill="#837B7B"/>
<path d="M18.2182 101.773C22.5201 101.58 26.7742 101.244 31.0283 100.763C31.9365 100.666 31.9365 99.2228 31.0283 99.3191C26.7742 99.8002 22.5201 100.137 18.2182 100.329C17.3101 100.378 17.3101 101.821 18.2182 101.773Z" fill="#837B7B"/>
<path d="M33.8003 94.1229C34.1827 94.171 34.8041 94.0266 35.1864 94.1229C37.2418 94.7002 36.3814 95.1814 36.5248 96.2399C36.6204 97.0579 36.5248 97.7796 36.7638 98.5976C37.0028 99.4637 37.4808 100.282 37.7676 101.148C38.1978 102.399 38.2456 102.639 37.3374 103.746C36.477 104.756 36.477 104.756 35.3299 104.949C34.4217 105.093 34.804 106.488 35.7122 106.344C37.1462 106.104 38.5802 105.574 39.2493 104.179C40.0141 102.543 39.2015 100.955 38.5801 99.4155C38.1022 98.2608 37.911 97.2022 37.9588 95.9512C37.9588 95.2776 38.0544 94.5559 37.7676 93.9304C36.955 92.2464 35.282 92.8719 33.8003 92.6794C32.8921 92.5832 32.8921 94.0266 33.8003 94.1229Z" fill="#837B7B"/>
</svg>
