<svg width="378" height="141" viewBox="0 0 378 141" fill="none" xmlns="http://www.w3.org/2000/svg">
<path d="M10.0451 64.4739C28.5746 54.4841 49.8834 58.4564 69.3665 62.2211C79.7485 64.2368 90.1031 66.1043 100.621 67.0529C111.875 68.0904 123.184 68.2979 134.465 67.7051C156.291 66.5193 177.736 61.8357 199.263 57.9524C220.79 54.0988 242.753 51.0752 264.552 53.8913C285.779 56.6481 306.489 66.4008 328.124 64.4443C330.55 64.2368 332.948 63.8514 335.345 63.3179C335.863 63.1993 335.645 62.3396 335.128 62.4582C313.355 67.2604 291.965 57.7746 270.738 53.9506C249.483 50.1266 227.875 52.2313 206.73 55.7588C184.767 59.405 162.995 64.5629 140.814 66.3711C118.442 68.1794 96.1797 66.4601 74.1079 62.2211C55.2242 58.5749 34.8419 53.7727 16.0944 60.7389C13.8873 61.5689 11.7346 62.5471 9.63639 63.6736C9.17316 63.97 9.58189 64.7407 10.0451 64.4739Z" fill="#837B7B"/>
<path d="M266.378 103.515C265.369 101.203 259.592 86.2627 264.852 86.6184C265.151 86.6481 265.288 86.322 265.233 86.0552C264.552 81.4308 264.634 76.6879 265.506 72.0635C265.914 69.9292 266.487 67.8542 267.222 65.8384C267.876 64.0302 269.429 58.9019 271.936 61.303C273.462 62.7852 273.299 65.9867 273.462 68.0024C273.626 70.3739 273.708 72.7453 273.708 75.1464C273.68 79.9487 273.299 84.7509 272.563 89.4938C272.154 92.0135 271.664 94.5332 271.064 96.9936C270.737 98.3275 270.383 99.6319 270.029 100.936C269.675 102.122 269.402 103.93 268.149 104.375C267.658 104.553 267.876 105.412 268.367 105.234C270.111 104.582 270.492 102.329 270.955 100.64C271.746 97.8532 272.4 95.0075 272.945 92.1321C273.98 86.4406 274.525 80.6305 274.525 74.8204C274.525 71.7968 274.389 68.7731 274.116 65.7792C273.926 63.882 273.789 61.5698 272.209 60.3544C268.421 57.4494 266.405 65.4234 265.669 68.0024C263.952 73.9014 263.571 80.1265 264.47 86.2331C264.606 86.0552 264.743 85.8477 264.852 85.6698C261.582 85.4623 261.663 89.7013 262.072 92.0728C262.781 96.1636 264.007 100.136 265.669 103.9C265.914 104.493 266.596 104.019 266.378 103.515Z" fill="#837B7B"/>
<path d="M274.606 79.1202C274.525 77.1044 274.715 75.0887 275.233 73.1619C275.478 72.2133 275.805 71.2943 276.187 70.3754C276.378 69.9604 276.568 69.5454 276.786 69.16C276.923 68.9525 277.086 68.7746 277.222 68.5671C278.04 67.6778 278.721 67.826 279.239 69.0414C279.157 69.6046 279.865 69.8418 280.029 69.2786C280.574 67.3221 281.637 64.8913 283.817 64.7728C286.133 64.6542 286.759 67.2035 286.841 69.2193C287.032 73.1026 286.405 77.0748 285.479 80.8099C283.571 88.4282 280.056 95.4537 276.568 102.361C276.323 102.865 277.032 103.309 277.277 102.805C281.609 94.2087 286.078 85.286 287.332 75.474C287.604 73.2804 287.795 71.0275 287.631 68.8043C287.522 67.2628 287.141 65.5435 285.942 64.5653C284.798 63.6463 283.244 63.7352 282.045 64.4467C280.492 65.3953 279.702 67.2332 279.211 69.0118C279.484 69.1007 279.729 69.16 280.002 69.2489C280.138 68.2411 279.62 67.3814 278.666 67.1442C277.631 66.8774 276.732 67.6185 276.16 68.5078C274.225 71.4425 273.625 75.5926 273.762 79.0905C273.789 79.6834 274.606 79.6834 274.606 79.1202Z" fill="#837B7B"/>
<path d="M255.369 117.892C267.086 110.926 280.984 111.371 293.818 113.386C307.797 115.58 321.857 119.612 336.054 117.685C343.929 116.618 351.913 113.683 359.87 115.728C360.388 115.847 360.606 115.017 360.088 114.869C353.194 113.09 346.273 114.957 339.46 116.232C332.076 117.596 324.664 117.477 317.225 116.499C303.273 114.691 289.513 110.481 275.343 111.282C268.258 111.667 261.228 113.386 254.961 117.092C254.497 117.388 254.906 118.159 255.369 117.892Z" fill="#837B7B"/>
<path d="M291.255 97.4672C301.692 98.5048 311.828 95.1847 321.91 92.6946C327.224 91.3903 332.619 90.2639 338.069 90.2046C343.764 90.1156 349.35 91.3607 354.936 92.3982C360.877 93.5246 366.871 94.3547 372.866 93.1393C373.384 93.0207 373.166 92.1907 372.648 92.2796C361.503 94.5325 350.604 89.4931 339.513 89.2856C329.131 89.1078 319.131 92.7243 309.076 95.0068C303.217 96.3408 297.277 97.1708 291.282 96.5779C290.737 96.5483 290.737 97.4376 291.255 97.4672Z" fill="#837B7B"/>
<path d="M49.0106 58.0729C48.0569 56.9465 47.2121 55.6718 46.5854 54.2786C46.2857 53.5968 46.0132 52.915 45.8224 52.1739C45.6589 51.6106 45.4954 51.0178 45.6044 50.4546C45.7134 49.8024 46.3674 48.3499 47.3211 49.2985C47.6209 49.5949 48.1114 49.2985 48.0024 48.8538C46.5037 42.9844 46.1494 37.0261 45.7679 30.9788C45.3864 24.9612 44.9777 18.7954 46.0677 12.8371C46.3402 11.4142 46.5309 9.33915 48.0024 8.83521C49.8281 8.18306 51.1088 10.2877 51.6265 11.8588C52.553 14.586 53.1252 17.5504 53.7247 20.3961C55.0054 26.4434 55.8774 32.5796 56.3951 38.7454C56.9401 45.5337 57.0218 52.3517 56.6676 59.1401C56.6403 59.7033 57.4578 59.7033 57.4851 59.1401C58.2208 45.3262 57.0763 31.3938 54.0244 17.9654C53.6429 16.3053 53.2614 14.675 52.8255 13.0446C52.4712 11.7403 52.0897 10.4063 51.2995 9.36879C50.2368 8.00519 48.2203 7.2641 46.8306 8.50912C46.0132 9.25021 45.7407 10.4952 45.5227 11.5624C45.1957 13.1335 44.9504 14.7046 44.8142 16.3053C44.4872 19.7143 44.5417 23.153 44.7052 26.5916C45.0867 34.1507 45.3864 41.8283 47.2394 49.1503C47.4574 49.002 47.7026 48.8538 47.9206 48.7056C46.4219 47.1938 44.7052 49.1206 44.7869 50.8992C44.8959 53.7746 46.7489 56.7093 48.4656 58.7251C48.7926 59.1401 49.3648 58.5176 49.0106 58.0729Z" fill="#837B7B"/>
<path d="M56.9947 32.4602C55.8775 29.6441 56.5042 26.6204 57.1854 23.7747C57.7849 21.1957 58.3844 18.676 58.3844 16.0081C58.4117 12.9844 58.2209 10.0497 58.9294 7.08539C59.2564 5.72179 59.7196 4.41748 60.2918 3.14281C60.5371 2.60923 60.8368 1.74957 61.2456 1.36421C62.4718 0.178468 63.0985 2.37209 63.371 3.20211C65.2239 8.74543 65.5509 14.7334 65.6327 20.5732C65.7417 26.7094 65.5782 32.8456 65.1694 38.9521C64.7062 45.9776 63.8887 52.9735 62.7715 59.9397C62.6898 60.5029 63.48 60.7401 63.5617 60.1768C65.8234 46.2444 66.8589 32.0155 66.3684 17.9053C66.2594 14.6445 66.0142 11.354 65.4147 8.15255C65.1422 6.58145 64.7607 5.01036 64.2975 3.49854C63.9705 2.46102 63.6435 1.03812 62.7715 0.356321C60.8641 -1.1555 59.5834 2.54995 59.0656 3.8839C58.0029 6.58146 57.4852 9.45688 57.4852 12.3916C57.4852 14.348 57.6214 16.3045 57.4307 18.261C57.2399 20.1582 56.7222 21.9664 56.3135 23.8043C55.605 26.8576 55.0873 29.9405 56.259 32.9345C56.5042 33.4088 57.2127 32.9641 56.9947 32.4602Z" fill="#837B7B"/>
<path d="M341.858 61.7176C353.52 59.7908 365.428 59.7315 377.118 61.5991C377.636 61.688 377.854 60.8283 377.336 60.7394C365.483 58.8718 353.493 58.9311 341.64 60.858C341.122 60.9469 341.34 61.7769 341.858 61.7176Z" fill="#837B7B"/>
<path d="M101.111 134.613C99.8852 133.398 98.8225 132.034 97.9506 130.493C97.5418 129.782 97.1603 129.011 96.8606 128.24C96.6971 127.795 96.4246 127.143 96.4791 126.639C96.5609 125.78 97.3238 124.475 98.2503 125.276C98.6045 125.602 99.1223 125.216 98.9043 124.742C97.8688 122.548 97.2421 120.029 97.3511 117.539C97.3783 117.064 97.4328 116.62 97.5963 116.175C97.7326 115.79 97.9233 115.434 98.1685 115.108C98.659 114.574 99.095 114.574 99.4765 115.167C100.485 115.968 100.893 117.509 101.357 118.724C103.019 123.052 104.245 127.558 105.09 132.153C105.362 132.064 105.608 132.005 105.88 131.916C105.144 129.693 104.572 127.41 104.218 125.068C103.973 123.408 103.537 117.894 106.67 119.732C108.687 120.918 109.068 124.446 109.068 126.669C109.095 129.129 108.659 131.53 108.224 133.932C108.115 134.495 108.905 134.732 109.014 134.169C109.559 131.115 110.131 127.944 109.777 124.801C109.504 122.519 108.578 118.873 106.044 118.517C104.027 118.25 103.21 120.473 103.155 122.282C103.046 125.572 104.082 129.129 105.09 132.183C105.281 132.716 105.989 132.509 105.88 131.945C105.253 128.507 104.381 125.098 103.291 121.807C102.801 120.325 102.283 118.873 101.684 117.42C101.248 116.323 100.812 114.752 99.749 114.13C98.0595 113.122 96.8606 115.167 96.5881 116.709C96.0976 119.525 96.9968 122.756 98.1413 125.246C98.3593 125.068 98.5773 124.89 98.7953 124.712C97.1331 123.201 95.4436 125.365 95.6889 127.262C96.0976 130.285 98.55 133.279 100.512 135.295C100.921 135.621 101.493 134.999 101.111 134.613Z" fill="#837B7B"/>
<path d="M296.625 59.524C295.834 57.36 295.426 55.0774 295.453 52.7356C295.453 51.5499 295.589 50.3641 295.834 49.208C296.052 48.1409 297.142 45.384 298.396 47.133C298.614 47.4294 299.131 47.1923 299.104 46.8069C298.832 44.2576 298.886 41.7082 299.322 39.1885C299.513 38.0917 299.785 36.9949 300.14 35.9277C300.358 35.2756 300.576 34.5641 300.875 33.9416C301.311 33.0523 301.802 32.8152 302.619 32.3705C304.091 31.6294 304.118 29.7026 304.472 28.1612C304.963 26.0565 305.535 23.9222 306.652 22.1139C307.306 21.0467 308.532 19.3274 309.868 19.7128C310.93 20.0092 311.312 21.2542 311.503 22.3214C311.939 24.6632 311.639 27.2719 311.53 29.6433C311.285 34.8902 310.658 40.1371 309.677 45.2654C308.587 50.8977 307.034 56.4114 305.099 61.7769C304.908 62.3104 305.698 62.5476 305.889 62.014C309.922 50.9273 312.184 39.0996 312.456 27.1533C312.511 24.8411 312.783 17.1338 308.587 18.9124C306.816 19.6831 305.617 22.025 304.908 23.8332C304.5 24.8707 304.2 25.9379 303.927 27.0051C303.519 28.6355 303.519 30.6512 302.074 31.5998C301.23 32.163 300.685 32.4002 300.194 33.4673C299.622 34.6827 299.213 36.076 298.886 37.4099C298.15 40.4632 297.96 43.6351 298.314 46.7773C298.559 46.6587 298.777 46.5697 299.022 46.4512C298.477 45.7101 297.578 45.5322 296.788 45.9176C295.725 46.4512 295.344 47.7851 295.099 48.9116C294.336 52.4984 294.663 56.2632 295.889 59.7018C296.025 60.2947 296.815 60.0575 296.625 59.524Z" fill="#837B7B"/>
<path d="M288.886 57.9832C287.714 55.9971 286.57 53.9221 285.97 51.6099C285.698 50.5427 285.534 49.4459 285.589 48.3491C285.671 47.1337 286.134 46.1851 286.515 45.0587C287.115 43.2504 286.161 41.5311 285.78 39.7821C285.589 38.9521 284.472 31.5709 286.869 32.5787C287.169 32.6973 287.442 32.3416 287.36 32.0452C286.57 28.2211 285.752 24.16 286.869 20.336C287.36 18.6463 289.349 14.2591 291.393 16.2748C292.646 17.5198 293.355 19.832 293.927 21.4921C296.434 28.9919 297.524 37.3217 298.014 45.2662C298.042 45.8294 298.859 45.8294 298.832 45.2662C298.505 40.0785 297.851 34.9206 296.843 29.8515C295.971 25.405 295.017 20.4545 292.646 16.6009C291.911 15.4151 290.848 14.4073 289.458 15.0298C287.987 15.6819 286.978 17.6384 286.406 19.1206C284.799 23.3596 285.698 27.984 286.57 32.3119C286.733 32.1341 286.897 31.9562 287.06 31.7784C285.616 31.1558 284.744 32.9345 284.526 34.2684C284.09 37.2328 285.098 39.9896 285.725 42.8058C286.106 44.5251 285.153 45.7405 284.88 47.3412C284.662 48.4677 284.717 49.5941 284.908 50.7206C285.371 53.5367 286.788 56.1157 288.177 58.5168C288.45 58.9022 289.158 58.4575 288.886 57.9832Z" fill="#837B7B"/>
<path d="M310.766 43.0739C311.502 40.3171 312.265 37.5603 313.818 35.2184C315.317 32.9656 317.061 30.8312 318.723 28.7266C319.595 27.6594 320.467 26.5922 321.421 25.614C321.911 25.1101 322.402 24.5765 323.029 24.2208C324.255 23.5093 325.072 24.4283 325.399 25.6436C326.135 28.4301 325.536 31.4537 324.882 34.2106C322.375 44.645 318.015 54.5162 312.183 63.261C311.884 63.7353 312.592 64.18 312.892 63.7057C318.26 55.6723 322.347 46.6904 324.963 37.1749C325.59 34.8924 326.217 32.5505 326.435 30.1791C326.626 28.2523 326.68 25.5844 325.617 23.9243C323.383 20.4857 318.751 27.3333 317.524 28.9044C315.944 30.9202 314.254 32.9359 312.865 35.1295C311.42 37.4417 310.685 40.1392 309.976 42.8071C309.813 43.3704 310.603 43.6075 310.766 43.0739Z" fill="#837B7B"/>
<path d="M309.186 20.0689C308.15 33.8827 305.426 47.4594 301.093 60.4729C300.902 61.0064 301.692 61.2436 301.883 60.71C306.243 47.6076 308.968 33.942 310.003 20.0689C310.031 19.5057 309.213 19.5057 309.186 20.0689Z" fill="#837B7B"/>
<path d="M301.775 32.0143C303.246 38.0319 304.009 44.1681 304.063 50.3933C304.063 50.9565 304.881 50.9565 304.881 50.3933C304.826 44.1088 304.063 37.8541 302.565 31.7771C302.428 31.2139 301.638 31.451 301.775 32.0143Z" fill="#837B7B"/>
<path d="M305.48 25.2877C306.433 29.3785 306.897 33.5582 306.924 37.7675C306.924 38.3308 307.741 38.3308 307.741 37.7675C307.714 33.4693 307.223 29.2006 306.27 25.0506C306.134 24.4873 305.343 24.7245 305.48 25.2877Z" fill="#837B7B"/>
<path d="M303.164 57.2704C305.262 55.4918 307.142 53.4464 308.777 51.1934C309.104 50.7488 308.532 50.1263 308.205 50.5709C306.543 52.8535 304.69 54.8693 302.592 56.6479C302.183 57.0036 302.755 57.6261 303.164 57.2704Z" fill="#837B7B"/>
<path d="M288.967 15.8014C291.338 26.562 293.191 37.4411 294.472 48.4092C294.526 48.9725 295.344 48.9725 295.289 48.4092C293.981 37.3522 292.128 26.3841 289.758 15.5642C289.649 15.001 288.858 15.2382 288.967 15.8014Z" fill="#837B7B"/>
<path d="M285.724 25.9978C288.122 27.5689 290.166 29.5846 291.801 32.0747C292.101 32.549 292.809 32.1043 292.51 31.63C290.793 29.0214 288.667 26.8871 286.16 25.2567C285.67 24.9306 285.261 25.7013 285.724 25.9978Z" fill="#837B7B"/>
<path d="M296.162 32.1953C295.181 34.8632 294.39 37.5904 293.791 40.4065C293.682 40.9697 294.445 41.2069 294.581 40.6436C295.181 37.8572 295.971 35.1003 296.952 32.4324C297.143 31.8989 296.352 31.6617 296.162 32.1953Z" fill="#837B7B"/>
<path d="M285.67 45.6521C288.668 46.5711 291.583 47.6382 294.472 48.8833C294.962 49.0908 295.18 48.2311 294.69 48.0236C291.801 46.7786 288.858 45.7114 285.888 44.7925C285.37 44.6443 285.152 45.5039 285.67 45.6521Z" fill="#837B7B"/>
<path d="M324.065 24.4842C320.44 38.2091 310.413 48.7325 307.197 62.6353C307.061 63.1985 307.851 63.4357 307.988 62.8724C311.203 48.9697 321.231 38.4462 324.855 24.7213C325.018 24.1581 324.228 23.9209 324.065 24.4842Z" fill="#837B7B"/>
<path d="M316.76 30.2674C316.079 35.0696 315.371 39.8719 314.69 44.6741C314.608 45.2374 315.398 45.4745 315.48 44.9113C316.161 40.109 316.869 35.3068 317.551 30.5045C317.632 29.9413 316.842 29.7041 316.76 30.2674Z" fill="#837B7B"/>
<path d="M317.579 40.8203C320.004 38.9231 322.538 37.2038 325.181 35.6327C325.644 35.3659 325.236 34.5952 324.772 34.862C322.129 36.4034 319.595 38.1228 317.17 40.0496C316.734 40.4053 317.143 41.1761 317.579 40.8203Z" fill="#837B7B"/>
<path d="M309.758 58.0121C312.238 54.8402 315.78 53.2395 319.268 51.7276C319.758 51.5201 319.54 50.6605 319.05 50.868C315.453 52.4391 311.774 54.0991 309.186 57.3896C308.831 57.8342 309.404 58.4567 309.758 58.0121Z" fill="#837B7B"/>
<path d="M270.165 60.8283C271.174 67.7649 270.329 74.7311 269.375 81.638C268.449 88.4264 267.522 95.2444 266.596 102.033C266.514 102.596 267.304 102.833 267.386 102.27C268.367 95.0961 269.375 87.9224 270.329 80.7487C271.228 74.0789 271.937 67.3202 270.956 60.6208C270.847 60.0279 270.084 60.2651 270.165 60.8283Z" fill="#837B7B"/>
<path d="M264.852 73.4871C265.778 77.6372 267.032 81.6687 268.612 85.5816C268.83 86.1152 269.539 85.6409 269.321 85.137C267.795 81.2833 266.568 77.3408 265.642 73.25C265.506 72.7164 264.715 72.9536 264.852 73.4871Z" fill="#837B7B"/>
<path d="M273.054 65.07C272.673 67.7676 271.774 70.228 270.357 72.4512C270.057 72.9255 270.765 73.3702 271.065 72.8959C272.509 70.6133 273.463 68.0344 273.845 65.2776C273.899 64.744 273.109 64.5068 273.054 65.07Z" fill="#837B7B"/>
<path d="M284.307 65.5137C280.956 78.1714 276.678 90.5031 271.555 102.449C271.337 102.953 272.045 103.428 272.263 102.894C277.413 90.8885 281.719 78.4679 285.098 65.7508C285.234 65.2172 284.444 64.9801 284.307 65.5137Z" fill="#837B7B"/>
<path d="M282.155 64.9791C282.046 67.8545 281.964 70.7003 281.855 73.5757C281.828 74.1389 282.645 74.1389 282.673 73.5757C282.782 70.7003 282.863 67.8545 282.972 64.9791C283 64.4158 282.182 64.4158 282.155 64.9791Z" fill="#837B7B"/>
<path d="M276.105 68.8318C274.634 75.5313 276.105 82.5272 276.977 89.2266C277.059 89.7899 277.849 89.5527 277.767 88.9895C276.923 82.4679 275.478 75.6202 276.895 69.069C277.032 68.5057 276.241 68.2686 276.105 68.8318Z" fill="#837B7B"/>
<path d="M274.906 96.1343C277.549 95.4228 280.001 94.2075 282.208 92.4882C282.644 92.1621 282.236 91.3914 281.8 91.7175C279.647 93.3775 277.276 94.5632 274.688 95.2746C274.17 95.3932 274.388 96.2528 274.906 96.1343Z" fill="#837B7B"/>
<path d="M47.7857 9.21935C50.5378 25.4046 52.2545 41.7974 52.8813 58.2198C52.9085 58.783 53.726 58.783 53.6987 58.2198C53.072 41.6788 51.3553 25.2268 48.5759 8.9822C48.4669 8.41898 47.6767 8.65612 47.7857 9.21935Z" fill="#837B7B"/>
<path d="M44.8144 28.0138C47.7028 31.9563 50.0189 36.3139 51.7084 40.9976C51.8991 41.5312 52.6894 41.294 52.4986 40.7604C50.7547 35.9286 48.384 31.4524 45.4138 27.3913C45.0869 26.9466 44.4874 27.5691 44.8144 28.0138Z" fill="#837B7B"/>
<path d="M52.99 17.1365C52.009 21.5534 51.2733 26.0295 50.7555 30.5353C50.701 31.0986 51.5185 31.0986 51.573 30.5353C52.0635 26.1185 52.7992 21.7312 53.7802 17.3736C53.8892 16.8104 53.099 16.5733 52.99 17.1365Z" fill="#837B7B"/>
<path d="M61.5463 1.21734C62.0367 20.5745 61.1648 39.9316 58.9303 59.1406C58.8758 59.7038 59.6933 59.7038 59.7478 59.1406C61.9822 39.9316 62.8542 20.5745 62.3637 1.21734C62.3365 0.654116 61.519 0.654116 61.5463 1.21734Z" fill="#837B7B"/>
<path d="M56.9683 21.5817C58.9303 26.6507 60.2927 31.9569 61.0285 37.4112C61.1102 37.9744 61.9004 37.7373 61.8187 37.1741C61.0829 31.7197 59.7205 26.4136 57.7585 21.3445C57.5406 20.8406 56.7503 21.0481 56.9683 21.5817Z" fill="#837B7B"/>
<path d="M60.1011 55.109C61.2728 52.619 62.826 50.455 64.7335 48.5875C65.1149 48.2021 64.5427 47.5796 64.1612 47.965C62.1993 49.8622 60.5916 52.1151 59.3926 54.6644C59.1474 55.1683 59.8559 55.613 60.1011 55.109Z" fill="#837B7B"/>
<path d="M58.9303 4.50645C59.6388 6.96683 60.4291 9.36792 61.301 11.769C61.4918 12.3026 62.282 12.0654 62.0913 11.5319C61.192 9.16042 60.4018 6.72969 59.7206 4.26931C59.5571 3.70609 58.7668 3.94323 58.9303 4.50645Z" fill="#837B7B"/>
<path d="M0.398584 121.302C18.274 119.405 36.3675 119.998 54.0794 123.14C59.066 124.029 64.0526 125.126 68.9847 126.401C69.5024 126.519 69.7204 125.689 69.2027 125.541C51.736 121.006 33.7788 118.931 15.8216 119.375C10.6715 119.524 5.52143 119.85 0.398584 120.413C-0.11915 120.442 -0.146399 121.332 0.398584 121.302Z" fill="#837B7B"/>
<path d="M160.624 129.811C160.651 128.536 163.567 128.299 164.276 128.388C165.474 128.506 166.619 129.188 167.273 130.285C169.426 133.901 165.066 135.354 162.559 134.465C162.068 134.287 161.85 135.146 162.341 135.324C164.085 135.976 166.401 135.888 167.818 134.376C169.017 133.101 168.772 131.056 167.872 129.663C166.864 128.121 165.202 127.35 163.485 127.469C162.286 127.558 159.834 128.151 159.807 129.811C159.807 130.374 160.624 130.374 160.624 129.811Z" fill="#837B7B"/>
<path d="M160.488 129.335C162.232 126.667 165.883 125.452 168.608 124.503C171.633 123.466 174.766 122.843 177.955 122.665C178.472 122.636 178.472 121.746 177.955 121.776C174.385 121.984 170.843 122.695 167.464 123.97C164.739 125.007 161.523 126.223 159.779 128.89C159.48 129.365 160.188 129.809 160.488 129.335Z" fill="#837B7B"/>
<path d="M178.363 122.783C180.462 123.05 182.151 124.828 182.56 127.051C182.669 127.615 183.459 127.378 183.35 126.814C182.859 124.146 180.816 122.22 178.363 121.893C177.818 121.834 177.846 122.723 178.363 122.783Z" fill="#837B7B"/>
<path d="M179.371 121.866C182.423 119.791 185.394 122.459 186.02 125.809C186.129 126.372 186.919 126.135 186.81 125.572C186.047 121.629 182.451 118.724 178.963 121.096C178.527 121.422 178.936 122.193 179.371 121.866Z" fill="#837B7B"/>
<path d="M182.749 127.677C184.439 128.27 186.237 127.233 186.837 125.454C187.027 124.92 186.237 124.683 186.046 125.217C185.61 126.551 184.193 127.262 182.967 126.818C182.449 126.64 182.231 127.499 182.749 127.677Z" fill="#837B7B"/>
<path d="M160.378 128.891C158.961 129.78 159.043 131.885 159.588 133.337C160.188 134.997 161.659 136.094 163.321 135.65C163.839 135.501 163.621 134.671 163.103 134.79C161.823 135.116 160.787 134.227 160.351 132.982C159.997 131.974 159.752 130.314 160.814 129.662C161.25 129.365 160.842 128.594 160.378 128.891Z" fill="#837B7B"/>
<path d="M160.76 132.271C159.943 129.87 163.921 128.417 165.311 129.781C166.183 130.64 165.965 132.004 165.038 132.716C164.63 133.042 164.112 133.279 163.594 133.16C161.769 132.775 163.267 130.492 164.166 131.797C164.493 132.241 165.202 131.797 164.875 131.352C163.812 129.84 161.469 130.611 161.905 132.656C162.368 134.909 165.311 134.109 166.21 132.716C167.464 130.759 166.101 128.387 164.03 128.358C162.068 128.328 159.098 129.87 159.997 132.478C160.161 133.042 160.951 132.804 160.76 132.271Z" fill="#837B7B"/>
<path d="M167.272 134.583C172.994 133.249 178.444 130.966 183.512 127.794C183.976 127.498 183.567 126.727 183.104 127.024C178.09 130.166 172.694 132.389 167.054 133.723C166.536 133.842 166.754 134.701 167.272 134.583Z" fill="#837B7B"/>
<path d="M182.641 120.473C187.273 116.234 191.906 111.195 197.846 109.268C198.336 109.09 198.146 108.26 197.628 108.408C191.551 110.394 186.81 115.523 182.069 119.851C181.66 120.206 182.259 120.829 182.641 120.473Z" fill="#837B7B"/>
<path d="M197.791 109.591C200.843 110.717 203.05 113.682 203.377 117.179C203.432 117.743 204.249 117.743 204.195 117.179C203.84 113.267 201.442 109.976 198.009 108.731C197.519 108.553 197.301 109.413 197.791 109.591Z" fill="#837B7B"/>
<path d="M186.756 126.311C192.342 123.613 197.901 120.797 203.406 117.862C203.869 117.625 203.46 116.855 202.997 117.092C197.493 120.026 191.934 122.813 186.348 125.54C185.857 125.777 186.293 126.548 186.756 126.311Z" fill="#837B7B"/>
<path d="M179.126 122.281C179.317 122.133 179.508 122.014 179.671 121.866C179.862 121.718 179.944 121.48 179.807 121.243C179.698 121.036 179.426 120.947 179.235 121.095C179.044 121.243 178.854 121.362 178.69 121.51C178.499 121.658 178.418 121.895 178.554 122.133C178.663 122.31 178.935 122.429 179.126 122.281Z" fill="#837B7B"/>
<path d="M98.277 114.928C98.7948 121.568 100.157 128.06 102.364 134.256C102.555 134.789 103.345 134.552 103.155 134.019C100.975 127.882 99.585 121.479 99.0945 114.928C99.0673 114.365 98.2498 114.365 98.277 114.928Z" fill="#837B7B"/>
<path d="M96.861 128.24C98.5505 129.188 100.049 130.433 101.384 131.945C101.739 132.36 102.311 131.737 101.957 131.322C100.594 129.751 99.0409 128.477 97.2697 127.498C96.8065 127.202 96.3978 127.973 96.861 128.24Z" fill="#837B7B"/>
<path d="M102.827 123.792C101.656 125.63 101.138 127.764 101.329 129.987C101.383 130.55 102.201 130.55 102.146 129.987C101.983 127.912 102.446 125.985 103.536 124.236C103.808 123.792 103.1 123.347 102.827 123.792Z" fill="#837B7B"/>
<path d="M105.253 121.333C106.044 125.009 106.289 128.744 105.935 132.508C105.88 133.072 106.698 133.072 106.752 132.508C107.079 128.684 106.834 124.86 106.016 121.096C105.935 120.562 105.144 120.799 105.253 121.333Z" fill="#837B7B"/>
<path d="M104.055 122.635C104.709 123.999 105.363 125.392 106.017 126.755C106.262 127.259 106.97 126.815 106.725 126.311C106.071 124.947 105.417 123.554 104.763 122.19C104.518 121.686 103.81 122.131 104.055 122.635Z" fill="#837B7B"/>
<path d="M88.4487 117.456C88.2034 116.744 87.7402 115.707 86.9227 114.669C86.0235 113.513 85.2605 113.098 84.661 112.624C83.5983 111.734 83.1896 110.638 81.4456 102.426C80.6282 98.5134 80.5464 98.0688 80.6827 97.2684C81.0369 95.1934 82.0451 94.4819 82.5629 91.814C82.8081 90.5394 82.8081 89.6204 82.7536 87.9011C82.6718 85.2925 82.6174 82.6245 81.6091 79.5713C80.7099 76.7551 79.6744 73.6426 76.9768 72.2493C75.0966 71.3007 73.2436 71.6268 71.5814 71.9529C68.2298 72.6051 67.4941 73.9687 64.0062 75.6583C62.2622 76.4883 57.2484 78.9191 51.3081 78.5337C48.6649 78.3559 47.1935 77.7334 45.5313 78.8302C43.7873 80.0159 43.0516 82.2688 42.5066 83.9881C41.8254 86.0928 41.6619 87.9307 41.6619 89.1461C41.3077 90.4208 40.7627 92.3476 40.1359 94.7191C38.392 101.478 38.392 102.723 37.193 106.369C35.9941 110.074 35.2311 112.387 33.4054 115.025C32.8059 115.885 32.7787 115.796 27.2471 121.606C24.4132 124.57 22.9145 126.2 22.2333 128.928C21.9608 129.995 21.5248 131.685 22.315 132.841C22.5602 133.167 23.3505 134.145 28.1736 133.967C30.408 133.878 30.7077 133.671 32.9967 133.463C37.2203 133.078 40.5174 133.463 42.1796 133.671C43.7601 133.848 45.068 134.115 45.9673 134.293C46.8392 134.382 48.1472 134.56 49.6731 135.005C52.4253 135.835 53.27 136.754 55.7225 137.88C57.2212 138.562 60.3003 139.955 64.0607 139.836C66.6221 139.748 68.693 139.006 70.0283 138.384C71.9902 138.71 73.5979 138.562 74.6606 138.384C76.5135 138.058 77.9305 137.406 79.1022 136.842C80.5192 136.161 80.4374 136.012 82.2359 135.094C85.3695 133.433 85.8873 133.73 86.7865 132.841C87.4405 132.188 88.0399 131.151 88.3942 126.853C88.6394 124.57 88.7757 121.369 88.4487 117.456ZM43.4058 125.637C43.6238 127.268 44.0598 128.572 43.4058 129.283C42.5611 130.173 41.1169 128.898 37.4655 129.105C36.866 129.135 36.5118 129.194 34.7406 129.343C33.1874 129.461 33.2419 129.432 32.2609 129.521C30.6805 129.669 30.5442 129.758 29.8903 129.698C28.7185 129.58 28.1191 129.55 27.6286 129.076C26.8384 128.335 26.7021 126.971 26.8656 126.052C27.1381 124.214 28.5278 123.444 31.0075 121.22C32.0429 120.301 33.5416 118.879 35.2311 116.892C36.2393 115.44 37.2203 113.928 38.2285 112.357C38.6917 111.616 39.1277 110.904 39.5637 110.163C39.9724 108.948 40.4902 107.258 41.0079 105.213C42.3704 99.8178 42.3976 96.468 42.8609 96.4384C43.4058 96.4384 43.8691 100.826 44.0598 103.227C44.2778 106.31 44.2233 108.859 44.1143 110.578C44.3868 111.142 44.7683 112.09 44.8773 113.335C45.0135 114.728 44.7683 115.855 44.5775 116.477C43.1061 120.479 43.1061 123.533 43.4058 125.637Z" fill="#DFDFDF" fill-opacity="0.28"/>
<path d="M43.542 80.4316C39.9178 86.8346 42.234 94.364 43.2695 101.212C43.5692 103.227 43.7327 105.243 43.651 107.259C43.5965 108.207 43.4875 109.156 43.5965 110.134C43.7055 111.024 44.0052 111.824 44.196 112.684C44.7137 114.907 43.978 117.16 43.5692 119.324C43.215 121.191 42.8607 123.059 42.8062 124.956C42.6972 127.95 43.3785 131.151 45.3677 133.315C47.5749 135.717 50.7903 135.331 53.4334 136.843C56.1856 138.444 58.7743 139.778 61.9352 140.104C63.4884 140.252 65.0961 140.193 66.622 139.896C68.257 139.6 69.7829 138.74 71.4179 138.444C72.9711 138.177 74.4698 138.77 76.023 138.325C77.7669 137.851 79.4564 136.784 81.0913 135.983C82.7808 135.153 84.4702 134.294 86.1869 133.464C87.3041 132.9 88.3124 132.396 88.5849 130.974C88.9391 129.195 88.7483 127.09 88.7756 125.282C88.8301 123.385 88.9663 121.488 88.8573 119.59C88.8028 118.375 88.6393 117.16 88.1761 116.063C87.4676 114.344 85.9689 113.81 84.988 112.387C83.0533 109.482 82.0723 105.421 81.5273 101.923C81.3638 100.826 81.2548 99.7294 81.1731 98.6326C81.1186 97.5062 81.4728 96.7947 81.8543 95.8165C82.3993 94.4233 82.7535 92.9411 82.917 91.4589C83.353 88.0203 82.9443 84.4927 82.2085 81.143C81.5818 78.2973 80.7371 75.1254 78.6389 73.1097C73.1346 67.8331 65.9135 74.0286 60.8179 76.6372C58.9378 77.5858 56.9758 78.2083 54.9049 78.2083C52.9157 78.2083 50.9537 77.7933 48.9646 77.9415C46.3214 78.1194 43.5692 79.4237 42.67 82.2991C42.5065 82.8327 43.2967 83.0698 43.4602 82.5363C44.5502 79.068 48.3378 78.6826 51.199 78.8605C54.2509 79.068 57.0303 79.2755 59.9187 78.0305C64.8781 75.8962 70.0282 70.5011 75.7777 72.3982C78.9386 73.4358 80.2739 76.7855 81.0913 79.9869C81.9088 83.1884 82.4265 86.5085 82.263 89.8285C82.1813 91.4589 81.9088 93.0893 81.4183 94.6604C81.2003 95.3719 80.9006 96.0833 80.5736 96.7651C80.2194 97.5358 80.3011 98.099 80.3556 98.9883C80.5463 102.19 81.1731 105.332 82.2358 108.326C82.699 109.63 83.2168 110.935 83.8435 112.18C84.5247 113.484 85.4512 114.018 86.4049 115.025C88.5849 117.278 88.0126 121.28 87.9309 124.215C87.8764 126.082 87.8219 127.95 87.7674 129.817C87.7401 131.062 87.4949 131.774 86.5139 132.396C85.7237 132.9 84.8245 133.256 83.9797 133.641C82.4538 134.412 80.9006 135.153 79.3746 135.924C77.6307 136.784 75.8867 137.88 73.8975 137.762C72.5896 137.703 71.5269 137.525 70.2462 137.91C68.6657 138.414 67.167 139.037 65.5321 139.244C62.3984 139.659 59.1557 139.125 56.3218 137.643C55.1229 137.021 54.0057 136.191 52.7794 135.598C51.4987 134.975 50.1635 134.827 48.8011 134.471C45.5857 133.641 43.869 130.321 43.5965 126.942C43.2695 122.911 44.6864 119.146 45.1224 115.203C45.3677 113.217 44.414 111.557 44.2777 109.601C44.1687 107.615 44.4684 105.658 44.2777 103.642C43.5965 96.2019 40.1903 87.9314 44.1415 80.9059C44.5502 80.3723 43.8417 79.9277 43.542 80.4316Z" fill="#837B7B"/>
<path d="M44.0596 80.3433C48.8282 79.5726 52.5613 83.7227 54.5505 87.9321C56.458 91.9043 57.4389 96.3212 59.5371 100.204C61.3083 103.465 63.897 106.192 67.3849 107.022C70.464 107.764 73.8702 107.052 76.4043 104.977C79.8105 102.191 81.2819 97.5958 82.0449 93.2086C82.1539 92.6454 81.3637 92.4082 81.2547 92.9714C80.5462 96.9733 79.2928 101.272 76.2954 103.94C73.2707 106.637 68.8018 107.2 65.2867 105.273C58.0112 101.331 57.9567 90.5703 53.3243 84.2266C51.0354 81.0844 47.5475 78.8908 43.7871 79.4837C43.3239 79.5726 43.5419 80.4323 44.0596 80.3433Z" fill="#837B7B"/>
<path d="M72.8629 108.624C72.8902 108.683 72.9174 108.713 72.9447 108.772C72.9719 108.594 72.9992 108.416 72.9992 108.238C72.9447 108.298 72.9174 108.327 72.8629 108.386C73.0264 108.357 73.1899 108.327 73.3534 108.327C72.8902 108.06 72.6722 106.934 72.5087 106.43C72.2634 105.659 72.1 104.829 71.9637 104.029C71.882 103.406 71.5005 98.7523 72.6994 99.197C73.0537 99.3452 73.3262 100.946 73.4352 101.361C73.6259 102.161 73.7349 102.991 73.8167 103.821C73.8984 104.622 73.8984 105.422 73.9257 106.193C73.9257 106.549 73.9529 106.904 73.9529 107.26C73.9529 107.438 73.9529 107.616 73.9257 107.794C73.9801 108.001 73.8984 108.149 73.7077 108.238C73.7622 107.675 72.9447 107.675 72.8902 108.238C72.8357 108.831 73.2717 109.305 73.8439 109.246C74.6341 109.157 74.7431 108.209 74.7431 107.527C74.7976 105.926 74.7159 104.236 74.4979 102.665C74.3344 101.361 74.0891 99.4934 73.2172 98.4855C71.6095 96.5884 71.0645 100.294 71.0372 101.302C70.9555 102.873 71.1462 104.444 71.5277 105.926C71.773 106.815 72.1272 108.624 72.9719 109.098C73.1354 109.187 73.3262 109.187 73.4624 109.039C73.5169 108.979 73.5442 108.95 73.5987 108.89C73.7349 108.742 73.7622 108.505 73.6532 108.357C73.6259 108.298 73.5987 108.268 73.5714 108.209C73.2989 107.675 72.5904 108.12 72.8629 108.624Z" fill="#837B7B"/>
<path d="M66.3229 124.688C66.4592 129.431 66.8407 134.174 67.4674 138.858C67.5491 139.421 68.3394 139.184 68.2576 138.62C67.6581 133.996 67.2767 129.342 67.1404 124.688C67.1132 124.125 66.2957 124.125 66.3229 124.688Z" fill="#837B7B"/>
<path d="M66.8946 124.898C68.8293 121.933 72.2899 120.688 75.2873 119.562C78.5844 118.317 81.9361 117.368 85.3695 116.686C85.8872 116.598 85.6692 115.738 85.1515 115.827C81.2276 116.597 77.3582 117.754 73.6251 119.265C70.8184 120.422 67.9573 121.726 66.1588 124.453C65.8863 124.927 66.5948 125.372 66.8946 124.898Z" fill="#837B7B"/>
<path d="M67.0319 125.074C70.2473 126.942 73.381 128.365 77.0869 127.298C80.6293 126.26 83.9264 124.096 86.7058 121.576C87.1146 121.221 86.5423 120.598 86.1336 120.954C83.5449 123.296 80.5475 125.252 77.3321 126.319C73.6807 127.535 70.656 126.23 67.4406 124.333C66.9774 124.037 66.5687 124.808 67.0319 125.074Z" fill="#837B7B"/>
<path d="M79.73 124.364C79.948 125.52 80.166 126.706 80.384 127.862C80.493 128.425 81.2832 128.188 81.1742 127.625C80.9562 126.469 80.7382 125.283 80.5202 124.127C80.4112 123.564 79.621 123.801 79.73 124.364Z" fill="#837B7B"/>
<path d="M81.5553 123.533C81.6643 124.63 81.7461 125.727 81.8551 126.824C81.9096 127.387 82.727 127.387 82.6725 126.824C82.5635 125.727 82.4818 124.63 82.3728 123.533C82.3183 122.97 81.5008 122.94 81.5553 123.533Z" fill="#837B7B"/>
<path d="M44.2504 117.1C43.7327 118.73 44.2504 120.212 46.0216 119.886C46.4576 119.797 46.8391 119.59 47.2751 119.442C47.5203 119.353 47.8746 119.204 48.1471 119.234C49.5368 119.442 48.7466 119.946 49.1008 120.479C49.5095 121.072 49.7548 121.368 50.4905 121.368C51.4715 121.339 53.4062 120.331 54.0601 121.635C54.3054 122.169 54.0601 123.592 54.0601 124.244C54.0601 125.015 54.0874 125.785 54.0874 126.556C54.1419 129.935 54.2236 133.315 54.3326 136.664C54.3599 137.228 55.1774 137.228 55.1501 136.664C54.9594 131.477 54.8776 126.26 54.8504 121.042C54.8504 120.894 54.7686 120.716 54.6596 120.657C53.7604 120.212 52.8612 120.005 51.8802 120.153C51.199 120.242 50.8992 120.538 50.2453 120.123C49.6185 119.738 49.8365 119.501 49.455 118.967C49.0463 118.404 48.4468 118.286 47.8201 118.374C47.3841 118.434 47.0299 118.641 46.6211 118.789C46.4031 118.878 46.1306 119.027 45.8854 119.027C45.2859 118.997 44.8499 117.989 45.0679 117.367C45.2042 116.803 44.4139 116.566 44.2504 117.1Z" fill="#837B7B"/>
<path d="M42.4532 87.7235C42.4805 84.3145 43.4887 78.1487 47.9576 79.3345C48.4753 79.4827 48.6933 78.623 48.1756 78.4748C46.2954 77.9709 44.4424 78.8602 43.2707 80.4905C41.7992 82.5063 41.6357 85.2334 41.6357 87.7235C41.6357 88.3163 42.4532 88.3163 42.4532 87.7235Z" fill="#837B7B"/>
<path d="M41.7169 85.8559C41.1174 87.2195 41.9621 88.6128 42.7251 89.7392C43.5153 90.925 44.7143 91.9921 46.1312 91.6661C46.9215 91.4882 47.4664 90.7175 48.2567 90.5692C49.1286 90.3617 49.9734 91.1918 50.8453 91.1621C52.6983 91.0732 53.8155 89.1463 55.1507 88.0792C55.5594 87.7531 55.1779 86.9824 54.742 87.3084C53.6792 88.1385 52.8618 89.4428 51.6356 90.006C50.3548 90.5989 49.5919 89.5614 48.3657 89.6503C47.1394 89.7392 46.431 91.1028 45.123 90.7471C44.033 90.4507 41.8531 87.7235 42.4526 86.3006C42.6433 85.7966 41.9349 85.3223 41.7169 85.8559Z" fill="#837B7B"/>
<path d="M41.9348 85.324C40.6268 91.5491 39.1009 97.7149 37.3842 103.792C36.5667 106.667 35.8037 109.661 34.4413 112.329C33.2696 114.612 31.6619 116.539 29.9452 118.347C26.9477 121.489 23.4871 124.453 21.7976 128.722C21.1164 130.441 20.9257 132.22 22.4789 133.435C24.1956 134.799 26.7298 134.74 28.7189 134.532C31.7708 134.206 34.7955 133.168 37.8747 133.435C40.8176 133.702 43.6242 135.006 46.5671 134.058C47.0576 133.88 46.8669 133.05 46.3491 133.198C43.706 134.058 41.1173 132.961 38.4741 132.605C36.2942 132.309 34.1143 132.694 31.9888 133.08C29.4274 133.554 26.539 134.236 24.0048 133.257C22.4244 132.665 21.7432 131.39 22.3154 129.641C22.6969 128.485 23.2691 127.388 23.9231 126.41C26.2393 122.793 29.6182 120.185 32.3431 116.954C35.395 113.307 36.7847 108.95 38.1199 104.296C39.8639 98.1003 41.4171 91.8455 42.7523 85.5315C42.8613 84.9979 42.071 84.7607 41.9348 85.324Z" fill="#837B7B"/>
<path d="M41.9622 95.1665C41.4717 100.769 40.9267 106.52 38.3926 111.559C37.2754 113.812 35.8312 115.858 34.1417 117.607C32.5885 119.207 30.7901 120.482 29.1824 121.994C27.9834 123.12 26.2667 124.81 26.1577 126.677C26.0487 128.367 27.3567 129.701 28.7464 130.146C30.9808 130.887 33.6785 129.998 35.9674 129.849C38.6378 129.701 41.3355 129.79 44.0059 130.086C44.5236 130.146 44.5236 129.256 44.0059 129.197C41.5262 128.901 39.0193 128.812 36.5124 128.93C35.4497 128.99 34.3597 129.079 33.297 129.197C32.0435 129.345 30.7083 129.671 29.4549 129.405C27.9017 129.079 26.5665 127.745 27.2205 125.907C27.6292 124.81 28.5012 123.861 29.2914 123.061C30.7356 121.579 32.425 120.423 33.8965 119C36.7031 116.362 38.9103 112.953 40.3 109.217C41.9622 104.741 42.3709 99.8798 42.8069 95.1072C42.8342 94.6032 42.0167 94.6032 41.9622 95.1665Z" fill="#837B7B"/>
<path d="M48.9919 120.45C49.2371 123.088 49.6186 125.667 50.1636 128.246C50.2726 128.809 51.0628 128.572 50.9538 128.009C50.4361 125.519 50.0546 122.999 49.8093 120.42C49.7548 119.886 48.9374 119.886 48.9919 120.45Z" fill="#837B7B"/>
<path d="M55.8038 83.0108C60.1637 86.6569 67.194 88.7615 72.2896 85.6786C72.7528 85.4118 72.3441 84.6411 71.8808 84.9079C67.0305 87.8129 60.3272 85.6786 56.2398 82.24C55.7766 81.8843 55.3678 82.655 55.8038 83.0108Z" fill="#837B7B"/>
<path d="M42.5347 86.8044C42.3712 84.6701 42.7527 82.18 44.1151 80.5496C45.4776 78.9489 47.603 79.0971 49.456 79.0971C52.8621 79.1564 56.2955 79.5417 59.5382 78.2374C60.0287 78.0299 59.8107 77.1703 59.3202 77.3778C55.1511 79.0674 50.8729 77.7335 46.5948 78.3264C42.8617 78.8599 41.4447 83.1286 41.7172 86.8044C41.7445 87.3676 42.5619 87.3973 42.5347 86.8044Z" fill="#837B7B"/>
<path d="M42.6975 87.6656C42.97 85.6202 43.5695 83.6934 44.605 81.9444C45.1499 81.0254 45.7222 80.1658 46.6759 79.7804C47.6024 79.3951 48.6923 79.5433 49.6733 79.5433C52.9704 79.6026 56.3493 79.7211 59.3467 78.0018C59.81 77.735 59.4012 76.9643 58.938 77.2311C56.9761 78.3575 54.8234 78.654 52.6435 78.6836C50.7905 78.7133 48.8013 78.3575 46.9756 78.7429C43.7875 79.4247 42.316 84.4048 41.9073 87.3988C41.8255 87.962 42.6158 88.2288 42.6975 87.6656Z" fill="#837B7B"/>
<path d="M42.4533 86.8933C42.644 84.1958 42.9438 80.7276 45.3962 79.2454C46.7314 78.4451 48.4754 78.6229 49.9468 78.5933C51.2275 78.5933 52.5082 78.6229 53.8162 78.5933C56.2959 78.534 58.7755 78.3265 61.1462 77.4372C63.4079 76.5775 65.5061 75.2436 67.5498 73.9097C68.013 73.6132 67.6043 72.8425 67.141 73.1389C64.6614 74.7397 62.1272 76.37 59.2933 77.0815C56.1596 77.8818 52.917 77.6743 49.7288 77.704C47.3854 77.7336 45.1237 77.7336 43.5433 79.8976C42.099 81.8837 41.8811 84.4626 41.6903 86.8933C41.6086 87.4566 42.426 87.4566 42.4533 86.8933Z" fill="#837B7B"/>
<path opacity="0.05" d="M61.0919 77.732C62.2636 78.9178 60.7376 81.1707 61.8003 83.1864C63.19 85.795 67.1957 86.1211 70.2476 85.9729C68.6399 86.4472 66.1875 87.544 64.825 90.0044C62.4271 94.3323 64.0893 101.565 69.8388 106.664C70.3566 111.111 70.8743 115.587 71.4193 120.033C69.8933 121.486 68.3674 122.938 66.8414 124.391C66.8959 129.371 66.9232 134.351 66.9777 139.331C65.6152 139.865 63.4898 140.458 60.9829 140.102C58.4759 139.776 57.9037 138.827 53.1079 136.693C48.6662 134.707 48.0123 135.033 46.5408 133.58C43.8159 130.942 43.2982 127.237 43.2437 126.881C42.8894 124.154 43.8976 123.798 44.3881 118.314C44.6334 115.468 44.5789 113.215 44.5244 112.415C44.4154 109.777 44.1156 108.798 43.8159 105.893C43.4344 102.425 43.6251 101.714 43.3799 98.4231C42.7804 89.9451 41.1727 88.4037 42.2354 84.1054C42.6714 82.3564 43.1892 80.1628 44.9604 78.977C47.1675 77.4652 48.7752 79.2438 53.4076 78.8288C57.8492 78.4138 59.8929 76.4574 61.0919 77.732Z" fill="#6D6C6C"/>
<path opacity="0.11" d="M45.9405 79.7504C42.9158 80.3729 40.8176 85.5308 42.2346 88.6137C42.6978 89.6216 43.7605 90.9259 45.0958 91.1038C46.1857 91.252 46.4582 90.4813 48.0932 90.3331C49.7554 90.1849 50.0551 90.8963 51.3903 90.6295C52.3713 90.4517 53.8155 89.7106 54.2515 88.4655C55.0145 86.2423 52.235 83.5447 51.2541 82.5665C49.7009 81.0547 47.9569 79.3354 45.9405 79.7504Z" fill="#6D6C6C"/>
<path opacity="0.14" d="M44.0876 99.5226C44.7416 99.404 46.2403 109.157 49.374 118.672C52.3169 127.536 56.05 134.324 58.9657 138.889C56.6223 137.614 54.6331 136.844 53.2434 136.399C51.4177 135.806 50.0825 135.569 48.2295 134.532C46.8671 133.761 45.8588 132.931 45.2321 132.368C44.6326 131.538 43.7879 130.174 43.5154 128.336C43.4064 127.654 43.4336 127.328 43.6516 124.305C43.9514 119.917 43.9514 119.769 44.0876 119.028C44.4964 116.597 44.8506 116.627 44.9324 114.996C45.0414 113.455 44.7416 113.159 44.3601 110.165C44.0331 107.556 43.9786 105.57 43.9241 104.266C43.8696 101.301 43.8151 99.5522 44.0876 99.5226Z" fill="#6D6C6C"/>
</svg>
