<svg width="502" height="400" viewBox="0 0 502 400" fill="none" xmlns="http://www.w3.org/2000/svg">
<path d="M155.996 326.2C184.736 326.2 213.476 326.2 242.215 326.2C270.86 326.2 299.506 326.2 328.12 326.2C344.309 326.2 360.53 326.2 376.72 326.2C377.316 326.2 377.316 325.2 376.72 325.2C347.98 325.2 319.241 325.2 290.501 325.2C261.856 325.2 233.21 325.2 204.596 325.2C188.407 325.2 172.186 325.2 155.996 325.2C155.4 325.2 155.4 326.2 155.996 326.2Z" fill="#E8E8E8"/>
<path d="M382.524 305.467C382.273 315.067 383.183 324.667 385.254 334.033C385.379 334.667 386.289 334.4 386.164 333.767C384.124 324.5 383.214 315 383.497 305.467C383.465 304.833 382.524 304.833 382.524 305.467Z" fill="#E8E8E8"/>
<path d="M419.892 306.233C420.77 315.1 420.237 324.067 418.323 332.733C418.198 333.367 419.076 333.633 419.233 333C421.178 324.233 421.743 315.2 420.833 306.233C420.77 305.6 419.829 305.6 419.892 306.233Z" fill="#E8E8E8"/>
<path d="M385.63 334.967C396.486 337.9 407.969 337.5 418.605 333.767C419.17 333.567 418.919 332.6 418.354 332.8C407.844 336.467 396.58 336.9 385.881 334C385.285 333.867 385.034 334.833 385.63 334.967Z" fill="#E8E8E8"/>
<path d="M382.963 305.933C395.168 308.7 407.812 308.633 419.986 305.767C420.582 305.633 420.331 304.667 419.735 304.8C407.718 307.633 395.231 307.667 383.214 304.967C382.618 304.833 382.367 305.8 382.963 305.933Z" fill="#E8E8E8"/>
<path d="M390.399 306.3C388.768 302.4 390.242 297.633 391.466 293.8C392.721 289.833 394.509 286.067 396.705 282.6C396.454 282.633 396.203 282.667 395.952 282.7C396.674 283.567 397.458 284.167 398.431 284.667C398.808 284.833 399.215 284.567 399.121 284.1C398.745 282.3 398.086 280.533 398.839 278.733C399.372 277.467 400.125 276.2 400.753 275C400.533 275.067 400.314 275.133 400.094 275.167C400.753 275.6 401.412 276 402.071 276.433C402.51 276.733 402.886 276.167 402.729 275.733C402.071 274.2 401.631 272.667 402.541 271.133C403.075 270.2 403.765 269.367 404.361 268.5C405.679 266.633 407.059 264.767 408.44 262.933C411.075 259.433 413.805 256.033 416.629 252.7C416.378 252.667 416.127 252.633 415.876 252.6C419.892 258.2 422.433 264.9 423.123 271.9C423.468 275.267 423.374 278.733 422.809 282.067C422.527 283.767 422.119 285.433 421.617 287.067C421.523 287.4 421.398 287.733 421.303 288.033C420.958 288.967 420.394 289.367 419.484 289.567C418.856 289.7 418.511 289.6 417.978 290.033C417.727 290.233 417.664 290.567 417.884 290.833C418.574 291.6 418.856 291.733 418.605 292.767C418.448 293.433 418.072 294.133 417.789 294.8C417.225 296.133 416.597 297.433 415.938 298.7C414.589 301.3 413.052 303.767 411.326 306.1C410.95 306.6 411.609 307.3 411.985 306.8C415.311 302.267 417.946 297.3 419.923 291.967C419.986 291.8 419.923 291.6 419.797 291.467C419.39 291.033 418.982 290.567 418.542 290.133C418.511 290.4 418.48 290.667 418.448 290.933C419.17 290.4 419.986 290.767 420.739 290.433C421.335 290.2 421.649 289.733 421.9 289.133C422.59 287.567 423.029 285.767 423.406 284.1C424.19 280.433 424.441 276.667 424.19 272.933C423.657 265.4 421.052 258.1 416.723 252.1C416.566 251.867 416.221 251.733 415.97 252C412.487 256.1 409.13 260.333 405.93 264.667C404.486 266.6 402.949 268.533 401.694 270.633C400.565 272.533 401.098 274.333 401.882 276.267C402.102 276.033 402.322 275.8 402.541 275.567C401.882 275.133 401.223 274.733 400.565 274.3C400.345 274.167 400.031 274.233 399.906 274.467C399.121 276 397.898 277.7 397.458 279.4C397.082 280.9 397.866 282.867 398.18 284.333C398.4 284.133 398.651 283.967 398.87 283.767C397.96 283.333 397.239 282.767 396.58 281.967C396.36 281.7 395.984 281.8 395.827 282.067C393.38 285.933 391.466 290.167 390.148 294.633C389.019 298.5 387.92 302.9 389.521 306.767C389.834 307.367 390.65 306.867 390.399 306.3Z" fill="#E8E8E8"/>
<path d="M415.938 260.267C414.683 275.367 404.957 287.467 400.91 301.667C400.722 302.3 401.631 302.533 401.82 301.933C405.867 287.633 415.625 275.5 416.88 260.267C416.942 259.6 415.97 259.633 415.938 260.267Z" fill="#E8E8E8"/>
<path d="M404.079 268.3C405.083 273.8 406.243 279.233 407.561 284.633C407.718 285.267 408.628 285 408.471 284.367C407.153 278.967 405.992 273.5 404.988 268.033C404.894 267.4 403.984 267.667 404.079 268.3Z" fill="#E8E8E8"/>
<path d="M414.683 271.833C417.413 269.733 419.766 267.233 421.806 264.333C422.182 263.833 421.366 263.333 420.99 263.833C419.076 266.567 416.817 268.967 414.213 270.967C413.742 271.367 414.213 272.233 414.683 271.833Z" fill="#E8E8E8"/>
<path d="M411.766 257.567C412.613 260.433 413.115 263.933 415.185 266.1C415.625 266.567 416.284 265.833 415.844 265.4C413.93 263.367 413.428 259.933 412.644 257.3C412.487 256.7 411.577 256.967 411.766 257.567Z" fill="#E8E8E8"/>
<path d="M388.517 306.033C386.603 304.433 385.442 302.2 384.469 299.867C383.371 297.133 382.43 294.333 381.583 291.5C379.983 286.067 378.822 280.467 378.132 274.833C376.72 263.033 377.849 251.1 376.5 239.267C376.218 239.367 375.904 239.433 375.621 239.533C379.136 247.933 387.356 252.967 394.196 257.967C394.133 257.733 394.07 257.5 394.039 257.267C393.097 258.7 392.156 260.133 391.215 261.567C390.995 261.9 391.278 262.333 391.623 262.333C392.846 262.333 393.913 262.167 395.074 261.733C394.886 261.667 394.729 261.567 394.541 261.5C395.702 263.4 396.862 265.3 398.023 267.2C398.055 267 398.086 266.8 398.086 266.6C397.521 267.167 397.051 267.8 396.58 268.5C396.423 268.733 396.58 269.2 396.863 269.233C399.435 269.633 400.345 272.233 401.004 274.567C401.192 275.167 402.102 274.933 401.914 274.3C401.13 271.667 400 268.7 397.113 268.267C397.208 268.5 397.302 268.767 397.396 269C397.804 268.333 398.212 267.867 398.745 267.333C398.902 267.2 398.933 266.9 398.808 266.733C397.647 264.833 396.486 262.933 395.325 261.033C395.231 260.867 395.011 260.733 394.792 260.8C393.725 261.167 392.69 261.367 391.591 261.333C391.717 261.6 391.874 261.833 391.999 262.1C392.941 260.667 393.882 259.233 394.823 257.8C394.98 257.567 394.854 257.267 394.666 257.1C387.952 252.2 379.889 247.3 376.437 239.033C376.249 238.6 375.496 238.8 375.559 239.3C376.939 251.567 375.716 263.967 377.347 276.2C378.132 282.1 379.418 287.9 381.206 293.533C382.65 298.1 384.156 303.667 387.826 306.767C388.328 307.133 388.987 306.433 388.517 306.033Z" fill="#E8E8E8"/>
<path d="M375.81 240.267C378.351 247.733 380.485 255.6 383.905 262.7C385.599 266.2 387.45 269.633 389.05 273.2C390.776 277.067 392.313 281 393.882 284.9C394.101 285.5 394.917 284.967 394.698 284.4C393.223 280.667 391.717 276.933 390.117 273.267C388.548 269.667 386.728 266.233 384.971 262.733C381.457 255.6 379.292 247.6 376.688 240.033C376.5 239.4 375.59 239.667 375.81 240.267Z" fill="#E8E8E8"/>
<path d="M377.002 265.6C380.39 266.033 384.093 266.233 386.666 268.933C387.105 269.4 387.764 268.667 387.324 268.233C384.563 265.367 380.641 265.1 377.002 264.633C376.406 264.533 376.406 265.533 377.002 265.6Z" fill="#E8E8E8"/>
<path d="M386.069 252.1C385.505 254.267 385.128 256.5 384.971 258.767C384.846 260.7 384.626 262.967 385.254 264.833C385.442 265.433 386.352 265.167 386.164 264.567C385.567 262.8 385.787 260.6 385.913 258.733C386.069 256.567 386.446 254.433 386.979 252.333C387.136 251.733 386.226 251.467 386.069 252.1Z" fill="#E8E8E8"/>
<path d="M379.136 283.767C381.583 283.833 383.936 283.867 386.32 284.567C388.674 285.267 390.995 286 393.348 286.733C393.945 286.9 394.196 285.933 393.599 285.767C391.089 285 388.611 284.167 386.069 283.467C383.779 282.833 381.489 282.867 379.136 282.8C378.539 282.733 378.539 283.733 379.136 283.767Z" fill="#E8E8E8"/>
<path d="M413.46 305.1C415.562 304.8 417.632 304.8 419.735 305.1C419.64 304.867 419.546 304.6 419.452 304.367C419.264 304.667 417.381 304.7 417.005 304.733C416.158 304.867 415.279 305 414.432 305.2C414.307 305.233 413.46 305.333 413.428 305.433C413.491 305.267 414.746 305.3 414.934 305.3C415.844 305.3 416.754 305.4 417.664 305.467C417.664 305.133 417.664 304.8 417.664 304.467C416.879 304.433 416.189 304.533 415.405 304.767C414.903 304.9 414.997 305.733 415.53 305.733C416.754 305.733 417.852 305.467 419.044 305.133C419.64 304.967 419.389 304 418.793 304.167C417.727 304.467 416.66 304.733 415.53 304.733C415.562 305.067 415.624 305.4 415.656 305.7C416.315 305.5 416.974 305.433 417.664 305.433C418.26 305.433 418.26 304.467 417.664 304.433C416.283 304.367 414.275 303.833 413.02 304.667C412.518 305 411.797 305.867 412.456 306.4C412.738 306.633 413.052 306.5 413.397 306.467C414.338 306.267 415.248 306.033 416.189 305.867C417.287 305.667 419.484 305.967 420.237 304.867C420.393 304.633 420.237 304.167 419.954 304.133C417.758 303.8 415.624 303.8 413.428 304.1C412.863 304.167 412.864 305.167 413.46 305.1Z" fill="#E8E8E8"/>
<path d="M383.371 305.733C383.81 305.6 384.25 305.5 384.689 305.467C384.908 305.467 385.097 305.433 385.316 305.467C385.41 305.467 385.85 305.433 385.881 305.467C385.85 305.3 385.787 305.133 385.756 304.967C385.756 305 385.724 305.033 385.724 305.033C385.912 304.933 386.101 304.8 386.289 304.7C386.258 304.7 386.226 304.7 386.226 304.7C386.32 304.8 386.446 304.933 386.54 305.033C386.54 305 386.54 304.967 386.509 304.967C386.352 304.333 385.473 304.6 385.599 305.233C385.599 305.267 385.599 305.3 385.63 305.3C385.661 305.467 385.818 305.6 385.944 305.633C385.975 305.633 386.007 305.633 386.007 305.633C386.258 305.7 386.477 305.567 386.571 305.3C386.571 305.267 386.603 305.233 386.603 305.233C386.665 305.067 386.603 304.867 386.477 304.733C386.132 304.367 385.379 304.433 384.94 304.433C384.312 304.433 383.653 304.567 383.057 304.733C382.555 304.933 382.806 305.9 383.371 305.733Z" fill="#E8E8E8"/>
<path d="M384.093 312.433C395.545 314.533 407.436 315.533 418.731 311.933C419.296 311.733 419.076 310.8 418.48 310.967C407.373 314.5 395.639 313.533 384.344 311.467C383.748 311.367 383.497 312.333 384.093 312.433Z" fill="#E8E8E8"/>
<path d="M423.531 326.133C443.643 326.133 463.785 326.133 483.897 326.133C484.493 326.133 484.493 325.133 483.897 325.133C463.785 325.133 443.643 325.133 423.531 325.133C422.904 325.133 422.904 326.133 423.531 326.133Z" fill="#E8E8E8"/>
<path d="M408.314 347.567C427.265 347.567 446.247 347.567 465.197 347.567C465.793 347.567 465.793 346.567 465.197 346.567C446.247 346.567 427.265 346.567 408.314 346.567C407.718 346.567 407.718 347.567 408.314 347.567Z" fill="#E8E8E8"/>
<path d="M416.942 347.467C414.683 349.467 412.424 351.433 410.197 353.433C409.726 353.833 410.385 354.533 410.856 354.133C413.115 352.133 415.374 350.167 417.601 348.167C418.072 347.767 417.382 347.033 416.942 347.467Z" fill="#E8E8E8"/>
<path d="M410.479 354.5C411.075 354.5 411.075 353.5 410.479 353.5C409.883 353.5 409.883 354.5 410.479 354.5Z" fill="#E8E8E8"/>
<path d="M420.049 353.5C400.941 353.5 381.834 353.5 362.726 353.5C362.13 353.5 362.13 354.5 362.726 354.5C381.834 354.5 400.941 354.5 420.049 354.5C420.645 354.5 420.645 353.5 420.049 353.5Z" fill="#E8E8E8"/>
<path d="M362.632 363.833C366.021 360.833 369.503 357.967 373.08 355.2C373.551 354.833 373.112 353.967 372.61 354.333C368.97 357.133 365.425 360.067 361.973 363.1C361.503 363.533 362.162 364.233 362.632 363.833Z" fill="#E8E8E8"/>
<path d="M76.9943 345.633C99.145 345.633 121.296 345.633 143.447 345.633C149.722 345.633 155.997 345.633 162.272 345.633C162.868 345.633 162.868 344.633 162.272 344.633C140.121 344.633 117.97 344.633 95.8193 344.633C89.5443 344.633 83.2693 344.633 76.9943 344.633C76.3981 344.633 76.3981 345.633 76.9943 345.633Z" fill="#E8E8E8"/>
<path d="M88.5716 354.333C91.5522 351.633 94.5642 348.933 97.5449 346.233C98.0155 345.8 97.3253 345.1 96.886 345.533C93.9054 348.233 90.8934 350.933 87.9127 353.633C87.4421 354.033 88.1324 354.767 88.5716 354.333Z" fill="#E8E8E8"/>
<path d="M77.7786 355.3C98.3607 355.3 118.943 355.3 139.525 355.3C140.121 355.3 140.121 354.3 139.525 354.3C118.943 354.3 98.3607 354.3 77.7786 354.3C77.1825 354.3 77.1825 355.3 77.7786 355.3Z" fill="#E8E8E8"/>
<path d="M132.34 355.1C129.987 357.9 127.571 360.633 125.124 363.367C124.716 363.833 125.375 364.533 125.782 364.067C128.23 361.333 130.614 358.6 132.999 355.8C133.438 355.334 132.748 354.634 132.34 355.1Z" fill="#E8E8E8"/>
<path d="M116.276 364.967C134.379 364.967 152.451 364.967 170.555 364.967C171.151 364.967 171.151 363.967 170.555 363.967C152.451 363.967 134.379 363.967 116.276 363.967C115.68 363.967 115.68 364.967 116.276 364.967Z" fill="#E8E8E8"/>
<path d="M103.443 328.867C111.099 328.867 118.754 328.867 126.441 328.867C127.037 328.867 127.037 327.867 126.441 327.867C118.786 327.867 111.13 327.867 103.443 327.867C102.847 327.867 102.847 328.867 103.443 328.867Z" fill="#E8E8E8"/>
<path d="M132.246 332.133C134.599 332.133 136.983 332.133 139.336 332.133C139.933 332.133 139.933 331.133 139.336 331.133C136.983 331.133 134.599 331.133 132.246 331.133C131.618 331.133 131.618 332.133 132.246 332.133Z" fill="#E8E8E8"/>
<path d="M115.209 153.9C115.209 159.333 115.209 164.8 115.209 170.233C115.209 170.867 116.15 170.867 116.15 170.233C116.15 164.8 116.15 159.333 116.15 153.9C116.15 153.267 115.209 153.267 115.209 153.9Z" fill="#E8E8E8"/>
<path d="M99.4274 171.033C112.04 171.033 124.653 171.033 137.266 171.033C137.862 171.033 137.862 170.033 137.266 170.033C124.653 170.033 112.04 170.033 99.4274 170.033C98.8313 170.033 98.8313 171.033 99.4274 171.033Z" fill="#E8E8E8"/>
<path d="M125.845 171.5C125.845 175.7 125.845 179.867 125.845 184.067C125.845 184.7 126.786 184.7 126.786 184.067C126.786 179.867 126.786 175.7 126.786 171.5C126.786 170.833 125.845 170.833 125.845 171.5Z" fill="#E8E8E8"/>
<path d="M115.397 185.8C125.437 185.8 135.509 185.8 145.549 185.8C146.145 185.8 146.145 184.8 145.549 184.8C135.509 184.8 125.437 184.8 115.397 184.8C114.77 184.8 114.77 185.8 115.397 185.8Z" fill="#E8E8E8"/>
<path d="M368.594 142.2C368.594 143.533 368.594 144.833 368.594 146.167C368.594 146.8 369.535 146.8 369.535 146.167C369.535 144.833 369.535 143.533 369.535 142.2C369.535 141.567 368.594 141.567 368.594 142.2Z" fill="#E8E8E8"/>
<path d="M369.347 143C390.933 143 412.519 143 434.105 143C434.701 143 434.701 142 434.105 142C412.519 142 390.933 142 369.347 142C368.75 142 368.75 143 369.347 143Z" fill="#E8E8E8"/>
<path d="M369.911 146.667C391.309 146.667 412.707 146.667 434.073 146.667C434.669 146.667 434.669 145.667 434.073 145.667C412.675 145.667 391.278 145.667 369.911 145.667C369.315 145.667 369.315 146.667 369.911 146.667Z" fill="#E8E8E8"/>
<path d="M433.948 142.2C433.822 143.567 433.885 144.933 434.105 146.3C434.199 146.933 435.109 146.667 435.014 146.033C434.795 144.767 434.763 143.467 434.889 142.2C434.952 141.567 434.01 141.567 433.948 142.2Z" fill="#E8E8E8"/>
<path d="M373.77 142.233C373.77 132.933 373.77 123.633 373.77 114.333C373.77 113.7 372.829 113.7 372.829 114.333C372.829 123.633 372.829 132.933 372.829 142.233C372.829 142.9 373.77 142.9 373.77 142.233Z" fill="#E8E8E8"/>
<path d="M373.771 114.5C376.437 113.367 379.261 113.533 381.74 115.1C382.273 115.433 382.744 114.567 382.21 114.233C379.543 112.567 376.375 112.3 373.52 113.533C372.955 113.767 373.206 114.733 373.771 114.5Z" fill="#E8E8E8"/>
<path d="M381.583 114.867C381.583 123.8 381.583 132.767 381.583 141.7C381.583 142.333 382.524 142.333 382.524 141.7C382.524 132.767 382.524 123.8 382.524 114.867C382.524 114.233 381.583 114.233 381.583 114.867Z" fill="#E8E8E8"/>
<path d="M382.65 122.333C384.563 121.5 386.571 121.633 388.36 122.8C388.893 123.133 389.364 122.267 388.83 121.933C386.854 120.667 384.532 120.433 382.399 121.367C381.834 121.6 382.085 122.567 382.65 122.333Z" fill="#E8E8E8"/>
<path d="M388.171 122.767C388.171 129.033 388.171 135.267 388.171 141.533C388.171 142.167 389.113 142.167 389.113 141.533C389.113 135.267 389.113 129.033 389.113 122.767C389.113 122.133 388.171 122.133 388.171 122.767Z" fill="#E8E8E8"/>
<path d="M373.896 122.167C376.563 121.533 379.198 121.733 381.771 122.7C382.336 122.9 382.587 121.933 382.022 121.733C379.292 120.7 376.469 120.567 373.645 121.2C373.08 121.333 373.331 122.3 373.896 122.167Z" fill="#E8E8E8"/>
<path d="M381.991 133.733C383.999 133.167 386.007 133.1 388.046 133.567C388.642 133.7 388.893 132.733 388.297 132.6C386.101 132.1 383.936 132.133 381.74 132.767C381.175 132.933 381.395 133.9 381.991 133.733Z" fill="#E8E8E8"/>
<path d="M400.031 141.9C400.031 140.033 400.031 138.167 400.031 136.3C400.031 135.667 399.09 135.667 399.09 136.3C399.09 138.167 399.09 140.033 399.09 141.9C399.09 142.533 400.031 142.533 400.031 141.9Z" fill="#E8E8E8"/>
<path d="M399.561 136.6C409.758 136.6 419.923 136.6 430.12 136.6C430.716 136.6 430.716 135.6 430.12 135.6C419.923 135.6 409.758 135.6 399.561 135.6C398.933 135.6 398.933 136.6 399.561 136.6Z" fill="#E8E8E8"/>
<path d="M430.434 137.133C431.03 137.133 431.03 136.133 430.434 136.133C429.806 136.133 429.806 137.133 430.434 137.133Z" fill="#E8E8E8"/>
<path d="M429.963 136.633C429.963 138.333 429.963 140.033 429.963 141.733C429.963 142.367 430.904 142.367 430.904 141.733C430.904 140.033 430.904 138.333 430.904 136.633C430.904 136 429.963 136 429.963 136.633Z" fill="#E8E8E8"/>
<path d="M405.961 135.933C405.961 134.167 405.961 132.433 405.961 130.667C405.961 130.033 405.02 130.033 405.02 130.667C405.02 132.433 405.02 134.167 405.02 135.933C405.02 136.567 405.961 136.567 405.961 135.933Z" fill="#E8E8E8"/>
<path d="M405.491 131C415.499 131 425.508 131 435.548 131C436.144 131 436.144 130 435.548 130C425.539 130 415.531 130 405.491 130C404.894 130 404.894 131 405.491 131Z" fill="#E8E8E8"/>
<path d="M435.234 130.5C435.234 131.967 435.234 133.433 435.234 134.9C435.234 135.533 436.175 135.533 436.175 134.9C436.175 133.433 436.175 131.967 436.175 130.5C436.175 129.833 435.234 129.833 435.234 130.5Z" fill="#E8E8E8"/>
<path d="M429.775 136.767C431.595 136.767 433.414 136.767 435.234 136.767C435.83 136.767 435.83 135.767 435.234 135.767C433.414 135.767 431.595 135.767 429.775 135.767C429.147 135.767 429.147 136.767 429.775 136.767Z" fill="#E8E8E8"/>
<path d="M435.171 134.933C435.109 135.3 435.109 135.633 435.203 135.967C435.265 136.233 435.548 136.4 435.767 136.3C436.018 136.233 436.175 135.933 436.081 135.7C436.05 135.533 436.018 135.333 436.05 135.2C436.081 134.933 435.987 134.633 435.736 134.6C435.516 134.533 435.203 134.667 435.171 134.933Z" fill="#E8E8E8"/>
<path d="M412.644 130.733C413.052 132.433 413.146 134.167 412.926 135.933C412.864 136.567 413.805 136.567 413.868 135.933C414.087 134.1 413.962 132.267 413.554 130.467C413.397 129.867 412.487 130.133 412.644 130.733Z" fill="#E8E8E8"/>
<path d="M419.735 136.533C419.954 138.2 419.829 139.833 419.452 141.433C419.296 142.067 420.205 142.333 420.362 141.7C420.802 139.9 420.896 138.1 420.645 136.267C420.582 135.633 419.672 135.9 419.735 136.533Z" fill="#E8E8E8"/>
<path d="M413.585 177.1C413.585 179.733 413.585 182.333 413.585 184.967C413.585 185.6 414.526 185.6 414.526 184.967C414.526 182.333 414.526 179.733 414.526 177.1C414.526 176.433 413.585 176.433 413.585 177.1Z" fill="#E8E8E8"/>
<path d="M406.306 185.1C412.581 185.1 418.856 185.1 425.131 185.1C425.727 185.1 425.727 184.1 425.131 184.1C418.856 184.1 412.581 184.1 406.306 184.1C405.71 184.1 405.71 185.1 406.306 185.1Z" fill="#E8E8E8"/>
<path d="M395.607 72.9666C395.607 78.9666 395.607 84.9999 395.607 90.9999C395.607 91.6332 396.549 91.6332 396.549 90.9999C396.549 84.9999 396.549 78.9666 396.549 72.9666C396.549 72.3332 395.607 72.3332 395.607 72.9666Z" fill="#E8E8E8"/>
<path d="M396.8 72.9333C403.953 72.9333 411.075 72.9333 418.229 72.9333C418.825 72.9333 418.825 71.9333 418.229 71.9333C411.075 71.9333 403.953 71.9333 396.8 71.9333C396.204 71.9333 396.204 72.9333 396.8 72.9333Z" fill="#E8E8E8"/>
<path d="M418.26 72.8C418.26 78.6 418.26 84.4 418.26 90.1666C418.26 90.8 419.202 90.8 419.202 90.1666C419.202 84.3666 419.202 78.5666 419.202 72.8C419.202 72.1666 418.26 72.1666 418.26 72.8Z" fill="#E8E8E8"/>
<path d="M395.952 91.5667C403.545 91.5667 411.138 91.5667 418.731 91.5667C419.327 91.5667 419.327 90.5667 418.731 90.5667C411.138 90.5667 403.545 90.5667 395.952 90.5667C395.356 90.5667 395.356 91.5667 395.952 91.5667Z" fill="#E8E8E8"/>
<path d="M397.709 75.0333C397.709 79.6 397.709 84.1333 397.709 88.7C397.709 89.3333 398.651 89.3333 398.651 88.7C398.651 84.1333 398.651 79.6 398.651 75.0333C398.651 74.4 397.709 74.4 397.709 75.0333Z" fill="#E8E8E8"/>
<path d="M398.4 75.4333C404.267 75.4333 410.165 75.4333 416.033 75.4333C416.629 75.4333 416.629 74.4333 416.033 74.4333C410.165 74.4333 404.267 74.4333 398.4 74.4333C397.804 74.4333 397.804 75.4333 398.4 75.4333Z" fill="#E8E8E8"/>
<path d="M415.688 75.0333C415.688 79.2667 415.688 83.4667 415.688 87.7C415.688 88.3334 416.629 88.3334 416.629 87.7C416.629 83.4667 416.629 79.2667 416.629 75.0333C416.629 74.4 415.688 74.4 415.688 75.0333Z" fill="#E8E8E8"/>
<path d="M398.4 89.1999C404.236 89.1999 410.071 89.1999 415.938 89.1999C416.535 89.1999 416.535 88.2 415.938 88.2C410.103 88.2 404.267 88.2 398.4 88.2C397.804 88.2 397.804 89.1999 398.4 89.1999Z" fill="#E8E8E8"/>
<path d="M409.507 83.2C407.028 81.2 410.73 77.0334 412.456 79.5334C414.056 81.8 411.452 84.5334 409.224 83.2667C408.691 82.9667 408.22 83.8334 408.754 84.1334C410.197 84.9667 412.111 84.7333 413.146 83.3C414.213 81.8667 414.087 79.6 412.738 78.4C411.326 77.1667 409.318 78 408.346 79.4C407.31 80.9334 407.624 82.9334 409.036 84.0667C409.538 84.4334 409.977 83.5667 409.507 83.2Z" fill="#E8E8E8"/>
<path d="M406.526 88.1334C406.4 85.5 409.444 84.5 411.358 84.5C413.711 84.5 414.464 86.7334 415.436 88.6334C415.719 89.2 416.535 88.7 416.252 88.1334C415.593 86.8667 414.966 85.2 413.868 84.2667C412.864 83.4334 411.609 83.4667 410.416 83.6001C408.22 83.8667 405.428 85.3 405.585 88.1334C405.616 88.7667 406.557 88.7667 406.526 88.1334Z" fill="#E8E8E8"/>
<path d="M398.808 85.7333C399.498 84.3666 402.039 84.8999 402.981 85.4333C403.953 85.9999 404.518 86.9333 404.769 88.0666C404.894 88.6999 405.804 88.4333 405.679 87.7999C405.302 86.0666 404.173 84.6999 402.541 84.1333C401.161 83.6666 398.808 83.6333 398.023 85.1999C397.71 85.7999 398.525 86.2999 398.808 85.7333Z" fill="#E8E8E8"/>
<path d="M400.627 83.2668C399.592 83.2334 399.843 81.6001 400.282 81.0334C400.847 80.3001 401.976 80.2001 402.635 80.9001C403.169 81.4334 403.326 82.4334 402.886 83.0668C402.573 83.5334 402.102 83.6334 401.6 83.6334C401.412 83.6334 400.627 83.6668 400.502 83.5001C400.157 82.9668 399.341 83.4668 399.686 84.0001C400.063 84.6001 400.847 84.6334 401.474 84.6334C402.227 84.6668 402.949 84.4668 403.482 83.8668C404.486 82.7001 404.141 80.7334 402.949 79.8668C401.663 78.9667 399.874 79.4667 399.216 80.9334C398.651 82.2334 399.059 84.2001 400.627 84.2334C401.255 84.3001 401.255 83.3001 400.627 83.2668Z" fill="#E8E8E8"/>
<path d="M208.612 161.567C210.087 162.833 211.907 162.3 213.287 161.067C215.232 159.367 216.205 156.467 216.582 153.9C217.554 147.367 215.076 141.167 214.103 134.833C212.346 123.067 217.178 110.467 226.151 103.4C230.512 99.9334 237.697 96.2334 236.003 89.1334C235.846 88.5 234.936 88.7667 235.093 89.4C236.693 96.1667 229.288 99.6 225.241 102.867C221.602 105.833 218.652 109.667 216.55 113.967C214.479 118.133 213.224 122.767 212.879 127.467C212.471 133.167 213.883 138.467 215.044 143.967C215.734 147.3 216.174 150.8 215.578 154.2C215.295 155.767 214.793 157.3 214.009 158.667C213.13 160.133 211.028 162.4 209.271 160.9C208.832 160.467 208.142 161.167 208.612 161.567Z" fill="#E8E8E8"/>
<path d="M235.658 88.7334C232.112 88.9001 229.006 85.9667 229.194 82.1001C229.383 78.0667 233.869 74.3334 237.666 75.4001C241.054 76.3667 243.658 80.3334 242.811 84.0334C241.964 87.7334 238.042 88.5334 235.03 89.0667C234.434 89.1667 234.685 90.1334 235.281 90.0334C239.172 89.3667 243.69 87.9001 243.941 82.9001C244.129 78.8334 240.709 74.4334 236.787 74.2667C232.646 74.0667 228.473 77.6667 228.253 82.1334C228.065 86.5334 231.61 89.9334 235.658 89.7667C236.254 89.7001 236.254 88.7001 235.658 88.7334Z" fill="#E8E8E8"/>
<path d="M231.014 86.1334C232.52 82.1001 240.552 81.4334 241.493 86.2334C241.619 86.8667 242.529 86.6001 242.403 85.9667C241.242 80.1001 231.924 80.9668 230.104 85.8667C229.885 86.4667 230.794 86.7001 231.014 86.1334Z" fill="#E8E8E8"/>
<path d="M235.72 81.6334C235.061 81.1334 234.81 80.1667 235.25 79.4334C235.752 78.5334 236.818 78.4334 237.634 78.9C238.262 79.2667 238.387 80.1 238.011 80.7334C237.54 81.5 236.536 81.6 235.752 81.4C235.156 81.2667 234.905 82.2334 235.501 82.3667C236.756 82.6667 238.262 82.3667 238.889 81.0667C239.454 79.9 239.046 78.5 237.917 77.9334C236.662 77.3334 235.156 77.6 234.434 78.9C233.712 80.1334 234.183 81.6667 235.25 82.4667C235.752 82.9 236.222 82.0334 235.72 81.6334Z" fill="#E8E8E8"/>
<path d="M249.023 71.3666C252.318 62.1 261.793 57.3667 270.609 56.7333C276.445 56.3 282.281 57.2667 287.991 58.4333C293.388 59.5667 299.004 61.3667 304.526 61.1667C309.075 61 313.75 59 315.883 54.5C316.166 53.9333 315.35 53.4333 315.068 54C312.589 59.2 306.879 60.5333 301.827 60.1C295.929 59.6 290.125 57.7333 284.32 56.7C274.908 55.0333 264.868 54.8 256.491 60.4333C252.694 63 249.682 66.6 248.082 71.1C247.894 71.7 248.804 71.9666 249.023 71.3666Z" fill="#E8E8E8"/>
<path d="M319.68 53.9333C327.963 53.9333 336.277 53.9333 344.56 53.9333C345.156 53.9333 345.156 52.9333 344.56 52.9333C336.277 52.9333 327.963 52.9333 319.68 52.9333C319.052 52.9333 319.052 53.9333 319.68 53.9333Z" fill="#E8E8E8"/>
<path d="M319.335 52.8667C317.86 51.3334 319.46 48.7334 320.621 47.5667C322.033 46.1 323.978 45.5334 325.861 46.3334C326.018 46.4 326.331 46.3 326.394 46.1C327.524 43.3 330.19 41.2667 333.108 41.4C336.152 41.5334 338.724 43.9667 339.477 47.0334C339.54 47.3334 339.917 47.5 340.168 47.3334C341.548 46.4334 342.96 47.5 343.525 48.8667C344.027 50.1334 343.901 51.5667 343.776 52.9334C343.713 53.5667 344.654 53.5667 344.717 52.9334C344.905 50.9334 345.031 48.5667 343.525 47.0334C342.458 45.9667 340.984 45.6334 339.729 46.4667C339.948 46.5667 340.199 46.6667 340.419 46.7667C339.572 43.4334 336.873 40.7667 333.579 40.4334C330.19 40.0667 326.927 42.3 325.61 45.6C325.798 45.5334 325.955 45.4334 326.143 45.3667C323.633 44.3 320.998 45.4334 319.366 47.6334C318.142 49.2667 317.076 51.9 318.739 53.6C319.115 54.0334 319.774 53.3334 319.335 52.8667Z" fill="#E8E8E8"/>
<path d="M337.187 57.7667C341.046 57.3001 343.305 61.6001 343.901 65.0667C344.529 68.6334 343.933 72.2001 343.588 75.7667C343.054 81.1334 343.399 87.6001 348.2 90.7334C348.702 91.0667 349.204 90.2001 348.67 89.8667C342.113 85.6001 344.843 76.1001 345.094 69.5667C345.282 64.6001 343.431 56.0334 337.187 56.7667C336.591 56.8334 336.591 57.8334 337.187 57.7667Z" fill="#E8E8E8"/>
<path d="M353.408 85.1C350.584 92.6667 347.792 100.233 344.968 107.767C344.749 108.367 345.659 108.633 345.878 108.033C348.702 100.467 351.494 92.9 354.318 85.3667C354.538 84.7667 353.628 84.5333 353.408 85.1Z" fill="#E8E8E8"/>
<path d="M353.847 85.7334C358.742 85.4667 363.605 85.6 368.468 86.2001C368.311 86 368.154 85.7667 368.029 85.5667C365.707 93.4667 363.825 101.467 362.319 109.567C362.193 110.2 363.103 110.467 363.228 109.833C364.734 101.733 366.648 93.7334 368.939 85.8334C369.033 85.5 368.782 85.2334 368.499 85.2C363.636 84.6 358.773 84.4667 353.879 84.7334C353.251 84.7667 353.251 85.7667 353.847 85.7334Z" fill="#E8E8E8"/>
<path d="M345.188 108.733C348.074 108.867 350.929 109.033 353.816 109.233C356.608 109.4 359.589 109.333 362.225 110.467C362.789 110.7 363.04 109.733 362.476 109.5C359.966 108.4 357.11 108.467 354.443 108.3C351.369 108.1 348.294 107.933 345.188 107.767C344.592 107.7 344.592 108.7 345.188 108.733Z" fill="#E8E8E8"/>
<path d="M354.287 89.0667C357.299 89.1333 360.311 89.3667 363.291 89.8C363.887 89.9 364.138 88.9333 363.542 88.8333C360.467 88.3667 357.393 88.1 354.287 88.0333C353.659 88.0333 353.659 89.0333 354.287 89.0667Z" fill="#E8E8E8"/>
<path d="M353.377 91.3334C355.071 91.2667 356.765 91.3 358.459 91.4667C359.056 91.5334 359.056 90.5334 358.459 90.4667C356.765 90.3 355.071 90.2334 353.377 90.3334C352.781 90.3667 352.781 91.3667 353.377 91.3334Z" fill="#E8E8E8"/>
<path d="M351.306 95.8334C354.914 95.6001 358.334 95.2667 361.879 96.2001C362.475 96.3667 362.726 95.4001 362.13 95.2334C358.491 94.3001 355.008 94.6001 351.306 94.8334C350.678 94.8667 350.678 95.8667 351.306 95.8334Z" fill="#E8E8E8"/>
<path d="M351.463 98.7667C353.533 98.6001 355.604 98.6001 357.675 98.8001C358.271 98.8667 358.271 97.8667 357.675 97.8001C355.604 97.6001 353.533 97.6001 351.463 97.7667C350.867 97.8334 350.835 98.8334 351.463 98.7667Z" fill="#E8E8E8"/>
<path d="M349.831 102.633C352.655 102.433 355.416 102.533 358.209 102.933C358.805 103.033 358.805 102.033 358.209 101.933C355.416 101.533 352.624 101.433 349.831 101.633C349.235 101.667 349.235 102.667 349.831 102.633Z" fill="#E8E8E8"/>
<path d="M193.709 57.9001C194.964 59.7001 196.784 60.4334 198.635 61.3334C200.831 62.4001 202.839 63.8334 204.471 65.7334C208.173 69.9668 209.397 75.6668 209.491 81.3001C209.711 91.8668 206.353 102.933 210.871 112.933C211.122 113.5 211.938 113 211.687 112.433C206.95 101.9 211.154 90.1001 210.338 79.0334C209.993 74.2334 208.707 69.5334 205.789 65.8001C204.408 64.0334 202.714 62.5001 200.831 61.3668C198.729 60.1001 196 59.5334 194.525 57.4001C194.18 56.9001 193.364 57.4001 193.709 57.9001Z" fill="#E8E8E8"/>
<path d="M182.979 43.7999C182.163 42.6999 182.226 41.9333 183.167 41.5C183.575 41.2666 183.983 41.1 184.454 41C185.05 40.8666 185.709 40.8333 186.336 40.8666C188.219 40.9666 190.133 41.5 190.038 43.9333C189.944 46.8 189.442 49.6333 188.783 52.4C188.093 55.2333 187.246 58 186.336 60.7666C186.148 61.3666 185.991 62.0666 185.709 62.6333C185.144 63.6666 184.265 63.6333 183.324 63.6333C182.163 63.6333 180.689 63.8 179.559 63.4666C178.304 63.1 178.022 61.7666 179.245 60.9C179.81 60.5 180.595 60.4333 181.253 60.4333C182.101 60.4333 182.853 60.6333 183.575 60.0333C184.956 58.9 185.175 55.8333 185.489 54.2C185.96 51.8333 186.744 48.9333 186.587 46.5333C186.462 44.7 184.767 44.6333 183.544 43.8666C183.01 43.5333 182.54 44.4 183.073 44.7333C184.046 45.3333 185.458 45.4 185.646 46.7666C185.866 48.3666 185.238 50.5333 184.956 52.1333C184.673 53.6666 184.36 55.2 183.983 56.7C183.701 57.8333 183.575 59.2 182.163 59.5C181.598 59.6333 180.908 59.4333 180.312 59.5333C178.806 59.7666 177.331 60.9 177.551 62.7C177.834 64.9666 180.375 64.5666 181.944 64.6333C183.889 64.7 185.834 65 186.713 62.8C187.811 60.0666 188.595 57.0666 189.348 54.2333C190.133 51.3 190.729 48.2666 190.948 45.2333C191.137 42.8666 191.231 40.9666 188.752 40.3333C186.587 39.7666 183.606 39.5 181.912 41.3666C180.783 42.6 181.065 45.0333 183.01 44.8666C183.575 44.7333 183.575 43.7333 182.979 43.7999Z" fill="#E8E8E8"/>
<path d="M179.183 47.3667C179.151 47.3334 179.12 47.3 179.089 47.2667C178.963 47.1334 178.775 47.1 178.618 47.1334C177.708 47.4667 177.363 49.0334 177.112 49.9C176.673 51.5 176.579 53.1334 176.798 54.8C176.861 55.4334 177.802 55.4334 177.739 54.8C177.614 53.6334 177.583 52.5 177.771 51.3334C177.865 50.7334 178.838 48.4 178.492 48.0667C178.932 48.5334 179.591 47.8334 179.183 47.3667Z" fill="#E8E8E8"/>
<path d="M176.014 43.7001C173.127 47.6001 171.276 52.3001 172.5 57.3001C172.657 57.9334 173.567 57.6668 173.41 57.0334C172.28 52.4334 174.037 48.0001 176.673 44.4001C177.049 43.9001 176.39 43.2001 176.014 43.7001Z" fill="#E8E8E8"/>
<path d="M172.061 39.2C167.26 45.9 165.001 54.3667 165.817 62.7667C165.88 63.4 166.821 63.4 166.758 62.7667C165.974 54.5334 168.139 46.3 172.876 39.7C173.221 39.2 172.406 38.7 172.061 39.2Z" fill="#E8E8E8"/>
<path d="M165.378 73.2666C162.962 74.4999 160.703 76.1999 158.914 78.3333C157.095 80.5333 156.53 82.8999 156.247 85.7666C155.62 92.3333 153.33 99.5333 147.117 102.3C146.553 102.533 146.804 103.5 147.368 103.267C152.326 101.067 155.212 96.0666 156.436 90.6666C157.157 87.4333 156.812 83.5999 158.412 80.6999C160.044 77.7333 162.993 75.5666 165.848 74.0999C166.413 73.8666 165.942 72.9999 165.378 73.2666Z" fill="#E8E8E8"/>
<path d="M133.846 120C131.775 120.067 129.422 119.133 128.669 116.867C127.79 114.2 129.673 111.6 131.681 110.233C135.571 107.567 140.811 106.533 145.329 106.467C147.619 106.433 150.224 106.467 152.232 107.767C154.804 109.433 155.244 112.567 153.236 114.933C150.192 118.533 144.953 118.9 140.748 119.233C140.152 119.267 140.152 120.267 140.748 120.233C144.953 119.9 149.659 119.5 153.047 116.5C156.153 113.767 156.373 109.233 152.734 106.867C148.969 104.433 143.227 105.233 139.148 106.167C135.226 107.067 129.861 108.7 128.104 113C126.284 117.4 129.767 121.067 133.909 120.933C134.473 120.967 134.473 119.967 133.846 120Z" fill="#E8E8E8"/>
<path d="M133.689 120.4C132.905 121.733 132.152 123.067 131.367 124.367C131.116 124.8 131.618 125.267 132.026 125.067C133.94 123.967 136.011 123.267 137.956 122.3C139.023 121.8 140.058 121.2 141.062 120.533C141.407 120.3 141.815 120.167 141.909 119.7C141.972 119.467 141.846 119.133 141.595 119.1C141.564 119.1 141.533 119.1 141.501 119.067C141.282 119.033 140.968 119.133 140.937 119.4C140.937 119.433 140.937 119.433 140.937 119.467C140.811 120.1 141.721 120.367 141.846 119.733C141.846 119.7 141.846 119.7 141.846 119.667C141.658 119.767 141.47 119.9 141.282 120C141.313 120 141.344 120 141.376 120.033C141.282 119.833 141.156 119.633 141.062 119.433C140.968 119.767 139.211 120.533 138.834 120.767C137.893 121.3 136.921 121.733 135.917 122.167C134.442 122.8 132.999 123.4 131.618 124.2C131.838 124.433 132.057 124.667 132.277 124.9C133.061 123.567 133.814 122.233 134.599 120.933C134.818 120.367 134.003 119.867 133.689 120.4Z" fill="#E8E8E8"/>
<path d="M134.724 114.633C134.693 114.567 134.693 114.433 134.787 114.433C135.038 114.433 134.756 114.767 134.724 114.8C134.567 114.9 134.034 115.033 134.065 114.7C134.097 114.3 134.818 113.867 134.944 114.467C134.975 114.633 134.85 114.833 134.693 114.867C134.599 114.9 134.536 114.9 134.473 114.833C134.442 114.8 134.379 114.767 134.442 114.767C135.038 114.8 135.038 113.8 134.442 113.767C133.814 113.7 133.344 114.4 133.501 115.033C133.658 115.667 134.348 116 134.913 115.833C135.477 115.667 135.917 115.133 135.917 114.5C135.917 113.867 135.446 113.333 134.913 113.2C133.752 112.9 132.528 114.7 133.532 115.6C134.348 116.333 135.979 115.667 135.885 114.433C135.822 113.767 135.132 113.233 134.505 113.467C133.877 113.7 133.626 114.533 133.94 115.133C134.191 115.7 135.007 115.2 134.724 114.633Z" fill="#E8E8E8"/>
<path d="M141.658 113.733C141.627 113.533 141.533 113.267 141.721 113.1C141.815 113 141.972 113 142.097 113C142.411 113.067 142.348 113.433 142.129 113.6C142.003 113.7 141.878 113.7 141.784 113.567C141.69 113.433 141.721 113.4 141.815 113.333C141.878 113.3 141.69 113.333 141.846 113.3C142.223 113.233 141.595 113.7 141.69 113.367C141.501 114 142.411 114.233 142.599 113.633C142.756 113.033 142.223 112.433 141.658 112.533C140.999 112.667 140.842 113.5 141.25 114C141.627 114.467 142.317 114.367 142.599 113.833C142.882 113.3 142.694 112.6 142.129 112.4C141.564 112.2 140.937 112.567 140.811 113.167C140.654 113.833 141.093 114.5 141.721 114.667C142.85 114.933 143.792 113.3 142.976 112.4C142.568 111.967 141.909 111.933 141.407 112.167C140.717 112.533 140.686 113.3 140.811 114C140.842 114.633 141.752 114.367 141.658 113.733Z" fill="#E8E8E8"/>
<path d="M148.623 111.5C148.749 111.5 148.874 111.533 149.031 111.533V111.5C149.063 111.467 149.063 111.4 149.094 111.367C149.125 111.3 149.22 111.233 149.282 111.2C149.439 111.133 149.596 111.133 149.69 111.3C149.816 111.567 149.596 112.067 149.282 111.867C149.094 111.733 149.063 111.4 149.345 111.467C149.408 111.467 149.439 111.5 149.471 111.533C149.471 111.533 149.471 111.6 149.471 111.533C149.471 111.467 149.471 111.567 149.439 111.567C149.345 111.633 149.314 111.7 149.22 111.633C149 111.467 148.686 111.6 148.561 111.8C148.435 112.067 148.529 112.333 148.718 112.5C149.627 113.2 150.851 111.8 150.129 110.867C149.471 110.033 148.059 110.567 148.121 111.667C148.153 112.233 148.561 112.733 149.063 112.867C149.565 113 150.098 112.733 150.38 112.267C151.008 111.233 150.129 109.8 148.969 110.2C148.435 110.4 147.965 110.967 148.027 111.6C148.09 112.3 149.031 112.667 149.376 111.967C149.69 111.433 148.906 110.933 148.623 111.5Z" fill="#E8E8E8"/>
<path d="M167.574 82.4334C171.433 80.1667 174.79 77.1667 177.583 73.5334C177.959 73.0334 177.3 72.3334 176.924 72.8334C174.194 76.4001 170.9 79.3334 167.103 81.5667C166.57 81.8667 167.041 82.7334 167.574 82.4334Z" fill="#E8E8E8"/>
<path d="M214.511 83.3C213.821 87.5 213.538 91.7333 213.727 96C213.758 96.6333 214.699 96.6333 214.668 96C214.48 91.8333 214.731 87.6667 215.421 83.5667C215.515 82.9333 214.605 82.6667 214.511 83.3Z" fill="#E8E8E8"/>
<path d="M209.711 180.733C209.711 175.633 211.97 170.8 215.829 167.733C216.299 167.367 215.829 166.5 215.358 166.867C211.217 170.133 208.801 175.233 208.801 180.733C208.769 181.367 209.711 181.367 209.711 180.733Z" fill="#E8E8E8"/>
<path d="M262.264 315.333C262.766 320.133 263.55 325.4 264.805 331.1C266.499 338.8 268.664 345.533 270.829 351.2C270.233 351.767 268.445 353.267 265.809 353.467C264.146 353.6 262.828 353.167 262.075 352.867C260.946 348.7 259.848 344.367 258.844 339.867C256.773 330.6 255.267 321.767 254.169 313.533C256.899 314.133 259.597 314.733 262.264 315.333Z" fill="#191919"/>
<path d="M332.701 312.2C332.293 316.967 331.602 322.267 330.441 327.967C328.81 336.033 326.645 343.033 324.449 348.933C324.763 349.233 326.551 351.033 329.312 350.9C331.696 350.8 333.234 349.3 333.61 348.933C334.332 344.9 335.022 340.833 335.713 336.767C337.219 327.867 338.568 319.1 339.854 310.433C337.469 311 335.085 311.6 332.701 312.2Z" fill="#191919"/>
<path d="M276.602 298.9C277.324 304 278.171 309.267 279.143 314.667C280.555 322.5 282.155 329.967 283.85 337.033C283.128 337.5 281.685 338.267 279.708 338.4C278.045 338.5 276.728 338.1 275.975 337.8C275.033 333.067 274.123 328.267 273.214 323.467C271.551 314.567 270.013 305.8 268.539 297.133C271.237 297.7 273.904 298.3 276.602 298.9Z" fill="#191919"/>
<path d="M320.872 297.9C320.025 302.933 319.272 308.2 318.613 313.667C317.703 321.2 317.076 328.4 316.699 335.267C317.233 335.633 318.488 336.4 320.276 336.5C322.19 336.567 323.602 335.767 324.135 335.433C323.821 331.5 323.696 327.133 323.884 322.467C324.261 312.1 326.049 303.167 328.026 296.133C325.641 296.7 323.257 297.3 320.872 297.9Z" fill="#191919"/>
<path d="M376.626 186.367C382.116 196.767 377.881 208.267 367.59 236.833C362.632 250.567 353.565 275.8 340.764 311.767C328.182 316.633 307.349 322.633 281.591 320.733C266.625 319.633 254.075 316.2 244.568 312.667C243.156 309.967 238.262 299.867 241.933 290.067C243.972 284.633 248.082 280.733 256.804 276.133C265.401 271.6 280.555 265.233 302.581 264.067C293.952 218.433 308.73 181.033 331.728 172.4C346.819 166.767 369.064 172.067 376.626 186.367Z" fill="#BAD0E5" stroke="#191919" stroke-width="2" stroke-miterlimit="10"/>
<path d="M374.617 190.133C365.519 202.367 363.448 218.8 359.965 233.5C356.232 249.233 351.933 264.933 345.501 279.7C341.956 287.8 337.783 295.6 332.795 302.8C332.449 303.333 333.265 303.833 333.61 303.3C342.364 290.633 348.545 276.267 353.314 261.467C358.146 246.4 361.346 230.867 365.111 215.5C367.244 206.767 369.974 198.033 375.308 190.867C375.653 190.333 374.994 189.633 374.617 190.133Z" fill="#191919"/>
<path d="M244.756 305.433C265.683 313.6 288.493 316 310.518 312.367C316.825 311.333 323.068 309.8 329.187 307.8C329.751 307.6 329.532 306.633 328.936 306.833C307.601 313.833 284.697 314.9 262.86 309.967C256.804 308.6 250.812 306.733 245.007 304.467C244.443 304.233 244.192 305.2 244.756 305.433Z" fill="#191919"/>
<path d="M318.425 279.233C323.696 281.067 328.183 284.767 331.195 289.767C331.508 290.3 332.324 289.8 332.01 289.267C328.873 284.067 324.198 280.2 318.676 278.267C318.08 278.067 317.829 279.033 318.425 279.233Z" fill="#191919"/>
<path d="M224.049 322.4C226.559 326.4 229.069 330.433 231.547 334.433C215.483 349.767 213.413 354.133 214.605 355.2C216.989 357.3 234.089 347.967 235.846 347C242.215 343.533 247.015 340.167 250.216 337.767C249.086 334.5 247.58 330.833 245.509 326.967C242.78 321.867 239.768 317.567 236.913 314.067C232.614 316.8 228.316 319.6 224.049 322.4Z" fill="#191919"/>
<path d="M317.923 243.833C319.052 246.433 320.244 250.133 320.433 254.6C320.715 261.333 318.644 266.7 317.076 269.8C316.229 270.967 314.723 272.9 312.495 275C312.495 275 307.444 279.733 299.412 283.367C291.223 287.1 267.409 291.6 235.061 292.467C236.003 296.733 237.697 301.967 240.709 307.6C242.372 310.7 244.192 313.433 245.98 315.8C244.788 317.467 241.399 321.7 234.654 324.367C228.159 326.933 222.198 326.633 219.845 326.433C216.456 323.133 212.973 319.2 209.742 314.5C200.235 300.6 198.008 287.167 197.6 278.533C199.953 276.733 203.404 274.267 207.922 271.633C217.335 266.133 225.963 263.133 233.053 260.9C245.258 257.1 256.93 254.467 283.787 249.633C292.195 248.133 303.835 246.067 317.923 243.833Z" fill="#12335E" stroke="#12335E" stroke-width="2" stroke-miterlimit="10"/>
<path opacity="0.19" d="M247.014 276.783L247.015 276.783C253.436 275.13 258.296 274.513 262.366 273.997C263.196 273.892 263.992 273.791 264.763 273.686C269.317 273.067 272.967 272.313 276.936 269.753C284.936 264.599 287.597 256.367 288.56 249.989L316.734 244.529C318.243 247.631 319.948 252.372 319.651 258.14L319.651 258.141C319.527 260.621 319.28 264.98 316.307 269.768C315.334 271.318 312.562 275.42 305.586 279.604L305.586 279.604C297.241 284.614 288.484 286.371 275.718 288.137C265.125 289.602 251.179 291.134 234.569 291.866L233.969 291.893L234.104 292.478C235.116 296.881 236.888 302.327 240.178 308.176C241.851 311.181 243.668 313.811 245.433 316.096C244.592 317.392 242.658 319.853 238.977 321.405C237.513 322.015 236.128 322.338 235.002 322.508C228.009 317.432 222.541 311.833 219.341 306.436C216.112 300.989 215.238 295.836 217.283 291.617C219.254 287.574 223.825 284.576 229.408 282.222C234.972 279.877 241.422 278.219 247.014 276.783Z" fill="#12335E" fill-opacity="0.9" stroke="black"/>
<path opacity="0.19" d="M317.327 244.667C316.699 250.867 314.472 260.667 305.592 268.4C300.133 273.167 294.266 275.3 271.237 281.9C261.071 284.8 248.772 288.233 234.779 291.967C252.569 291.767 267.033 290.2 277.418 288.7C288.179 287.133 293.45 285.767 298.91 283.267C304.086 280.9 314.534 276.1 318.801 266C322.911 256.2 318.77 247.4 317.327 244.667Z" fill="#12335E"/>
<path opacity="0.22" d="M234.873 292.467C234.748 296.867 234.936 301.9 235.72 307.433C236.473 312.9 237.697 317.8 239.015 322.067C240.081 321.4 241.305 320.5 242.497 319.4C243.941 318.067 245.007 316.8 245.792 315.7C243.972 313.167 242.121 310.233 240.395 306.933C237.603 301.6 235.94 296.667 234.873 292.467Z" fill="#12335E"/>
<path d="M233.43 341.533C235.846 346.567 238.23 351.6 240.646 356.667C225.21 375.933 223.202 381.4 224.363 382.733C226.653 385.4 243.093 373.633 244.788 372.433C250.906 368.067 255.549 363.833 258.624 360.833C257.526 356.733 256.083 352.133 254.075 347.233C251.471 340.833 248.553 335.433 245.823 331C241.682 334.533 237.54 338.033 233.43 341.533Z" fill="#191919"/>
<path d="M323.664 242.8C324.763 246.1 325.892 250.7 326.08 256.333C326.363 264.8 324.355 271.533 322.849 275.433C322.033 276.9 320.59 279.333 318.456 282C318.456 282 313.624 287.967 305.906 292.533C298.031 297.2 275.127 302.9 244.066 303.967C244.976 309.333 246.576 315.9 249.494 322.967C251.094 326.867 252.851 330.3 254.577 333.267C253.447 335.367 250.184 340.667 243.69 344.033C237.446 347.267 231.736 346.9 229.445 346.6C226.182 342.467 222.825 337.5 219.75 331.6C210.589 314.133 208.455 297.233 208.079 286.4C210.338 284.167 213.664 281.033 217.993 277.733C227.061 270.833 235.312 267.033 242.152 264.233C253.855 259.467 265.119 256.167 290.94 250.067C298.91 248.167 310.142 245.6 323.664 242.8Z" fill="#12335E" stroke="#12335E" stroke-width="2" stroke-miterlimit="10"/>
<path d="M295.019 250C294.141 258 291.662 268.367 284.006 274.833C276.571 281.133 270.296 278.567 255.392 283.6C244.662 287.2 230.449 292 226.496 302.6C222.355 313.733 230.167 329.467 243.815 342.333C244.976 342.133 246.419 341.7 247.957 340.867C251.91 338.7 253.824 335.133 254.545 333.567C252.788 330.633 250.969 327.233 249.306 323.333C246.168 316.033 244.474 309.267 243.533 303.767C259.534 302.833 272.931 300.933 283.159 299.1C295.458 296.9 303.93 294.667 312.056 288.3C318.833 282.967 321.562 277.733 322.504 275.733C325.421 269.567 325.672 263.967 325.798 260.833C326.08 253.167 324.292 246.933 322.786 243C313.53 245.3 304.275 247.633 295.019 250Z" fill="#12335E"/>
<path opacity="0.19" d="M323.068 243.833C322.472 251.6 320.339 263.933 311.805 273.667C306.534 279.667 300.918 282.333 278.798 290.633C269.009 294.3 257.212 298.6 243.752 303.3C260.852 303.033 274.782 301.1 284.759 299.2C295.113 297.233 300.196 295.533 305.404 292.4C310.393 289.4 320.401 283.4 324.543 270.667C328.465 258.333 324.48 247.3 323.068 243.833Z" fill="#12335E"/>
<path opacity="0.22" d="M243.846 303.933C243.721 309.467 243.909 315.8 244.662 322.733C245.415 329.633 246.545 335.767 247.831 341.1C248.866 340.233 250.027 339.133 251.188 337.733C252.569 336.067 253.604 334.467 254.357 333.1C252.6 329.9 250.812 326.233 249.18 322.067C246.482 315.4 244.85 309.167 243.846 303.933Z" fill="#12335E"/>
<path d="M231.642 191C231.045 190.7 229.853 190.133 229.885 189.5C229.947 188.467 233.179 187.767 235.595 187.8C237.226 187.8 240.238 188.167 243.752 190.767C240.458 191.867 235.595 192.867 231.642 191Z" fill="white" stroke="#191919" stroke-width="2" stroke-miterlimit="10"/>
<path d="M307.098 147.767C301.137 146.933 295.772 156.433 295.27 157.3C293.45 160.6 293.231 162.8 291.976 168.833C288.932 183.533 287.301 191 282.783 195.5C278.704 199.533 273.935 200.5 272.68 200.7C267.315 201.6 262.452 199.467 252.977 195.167C244.976 191.533 244.003 190.2 239.642 189.667C237.415 189.4 230.92 188.633 226.622 193.067C223.861 195.9 222.637 200.433 223.641 201.367C224.927 202.567 230.198 198.333 230.261 198.433C230.292 198.5 228.692 199.3 227.375 201.033C226.716 201.867 225.586 203.667 225.994 204.133C226.716 205.067 231.14 199.4 236.003 200.4C239.328 201.067 239.956 204.267 243.815 204.867C246.074 205.233 248.051 204.5 249.306 203.867C251.502 206.4 255.079 210 260.256 212.933C263.33 214.667 274.186 220.633 287.458 217.167C301.545 213.5 308.636 201.8 310.863 198.133C312.118 196.033 321.343 180.367 316.887 162.8C316.103 159.967 313.248 148.633 307.098 147.767Z" fill="white" stroke="#191919" stroke-width="2" stroke-miterlimit="10"/>
<path opacity="0.25" d="M306.471 147.867C304.432 149 308.385 156.867 307.883 168.134C307.412 178.967 303.051 186.967 301.106 190.634C298.47 195.534 294.988 201.934 288.054 206.1C278.735 211.7 267.189 210.867 258.969 207.067C256.522 205.934 254.043 202.267 248.647 200.034C246.294 199.067 244.443 198.667 242.278 198.2C236.975 197.1 232.269 196.1 227.908 198.434C225.837 199.567 224.112 201.3 224.237 201.534C224.363 201.767 226.778 200.467 228.912 199.234C226.339 202.867 225.931 203.9 226.12 204.1C226.339 204.3 227.124 203.534 229.132 202.334C231.296 201.067 232.865 200.167 234.779 200.334C235.752 200.434 236.505 200.767 236.944 200.967C238.67 201.767 239.077 202.7 240.803 203.634C241.87 204.2 242.748 204.434 243.219 204.534C244.223 204.767 246.294 205.067 249.023 204.034C251.408 206.7 262.358 218.5 278.39 218.267C286.642 218.134 292.697 214.867 295.082 213.567C308.165 206.334 313.373 193.5 314.691 189.967C318.77 179.034 320.213 162.834 312.746 152.667C310.958 150.2 307.883 147.1 306.471 147.867Z" fill="#6C6D6D"/>
<path d="M224.207 201.367C225.43 199.433 227.03 197.9 228.944 196.8C229.352 196.567 228.976 195.933 228.599 196.167C226.591 197.333 224.897 198.967 223.61 201C223.328 201.4 223.956 201.767 224.207 201.367Z" fill="#191919"/>
<path d="M224.582 197.067C225.806 195.033 227.782 193.967 229.759 192.933C230.167 192.733 229.822 192.067 229.414 192.3C227.312 193.367 225.241 194.533 223.955 196.7C223.735 197.1 224.331 197.467 224.582 197.067Z" fill="#191919"/>
<path opacity="0.29" d="M315.476 159.867C315.005 163.233 314.158 168.1 312.652 173.833C309.703 185.167 307.036 195.367 300.07 203.467C291.442 213.467 279.74 216.2 273.025 217.033C278.014 218.267 281.936 218.033 284.414 217.667C303.239 214.867 313.405 193.367 316.166 183.967C316.636 182.3 317.64 178.867 317.766 174.167C317.986 167.9 316.542 162.867 315.476 159.867Z" fill="#6C6D6D"/>
<path opacity="0.26" d="M236.63 200C238.419 200.933 240.866 201.967 243.878 202.567C246.262 203.033 248.396 203.133 250.09 203.067C245.792 205.5 243.564 205.2 242.309 204.4C241.525 203.9 240.646 202.9 238.23 201.133C237.571 200.633 237.007 200.233 236.63 200Z" fill="#6C6D6D"/>
<path d="M173.19 254.8C173.19 270.8 173.19 286.833 173.19 302.833C173.19 304.767 176.014 304.767 176.014 302.833C176.014 286.833 176.014 270.8 176.014 254.8C176.014 252.9 173.19 252.867 173.19 254.8Z" fill="#161616"/>
<path d="M224.52 254.167C224.52 256.733 224.52 259.3 224.52 261.867C224.52 263.8 227.343 263.8 227.343 261.867C227.343 259.3 227.343 256.733 227.343 254.167C227.343 252.233 224.52 252.233 224.52 254.167Z" fill="#161616"/>
<path d="M134.222 252.833C149.439 237.6 164.656 222.333 179.904 207.1C204.534 207.567 229.132 208.033 253.761 208.5C249.745 223.3 245.729 238.067 241.713 252.867C205.883 252.833 170.053 252.833 134.222 252.833Z" fill="#D6E5F2" stroke="#191919" stroke-width="2" stroke-miterlimit="10"/>
<path d="M135.132 254.567C162.648 254.567 190.133 254.567 217.648 254.567C225.367 254.567 233.054 254.567 240.772 254.567C242.592 254.567 242.592 251.567 240.772 251.567C213.256 251.567 185.771 251.567 158.255 251.567C150.537 251.567 142.85 251.567 135.132 251.567C133.312 251.567 133.312 254.567 135.132 254.567Z" fill="#161616"/>
<path d="M143.195 254.067C143.195 287.233 143.195 320.4 143.195 353.533C143.195 362.833 143.195 372.1 143.195 381.4C143.195 383.333 146.019 383.333 146.019 381.4C146.019 348.233 146.019 315.067 146.019 281.933C146.019 272.633 146.019 263.367 146.019 254.067C146.019 252.133 143.195 252.133 143.195 254.067Z" fill="#161616"/>
<path d="M229.257 254.067C229.257 287.233 229.257 320.4 229.257 353.533C229.257 362.833 229.257 372.1 229.257 381.4C229.257 383.333 232.081 383.333 232.081 381.4C232.081 348.233 232.081 315.067 232.081 281.933C232.081 272.633 232.081 263.367 232.081 254.067C232.081 252.133 229.257 252.133 229.257 254.067Z" fill="#161616"/>
<path d="M144.607 315.967C166.758 315.967 188.909 315.967 211.06 315.967C217.335 315.967 223.61 315.967 229.885 315.967C231.704 315.967 231.704 312.967 229.885 312.967C207.734 312.967 185.583 312.967 163.432 312.967C157.157 312.967 150.882 312.967 144.607 312.967C142.788 312.967 142.788 315.967 144.607 315.967Z" fill="#161616"/>
<path d="M253.384 208.5C249.808 223.333 245.698 238.033 240.991 252.5C240.584 253.733 242.403 254.233 242.811 253.033C247.517 238.533 251.628 223.867 255.204 209.033C255.487 207.8 253.698 207.267 253.384 208.5Z" fill="#161616"/>
<path d="M103.161 384.667C119.821 384.667 136.45 384.667 153.11 384.667C154.93 384.667 154.93 381.667 153.11 381.667C136.45 381.667 119.821 381.667 103.161 381.667C101.341 381.667 101.341 384.667 103.161 384.667Z" fill="#161616"/>
<path d="M160.107 384C163.934 384 167.794 384 171.621 384C173.441 384 173.441 381 171.621 381C167.794 381 163.934 381 160.107 381C158.287 381 158.287 384 160.107 384Z" fill="#161616"/>
<path d="M210.056 384.433C225.053 384.433 240.05 384.433 255.079 384.433C256.899 384.433 256.899 381.433 255.079 381.433C240.082 381.433 225.084 381.433 210.056 381.433C208.236 381.433 208.236 384.433 210.056 384.433Z" fill="#161616"/>
<path d="M265.338 383.367C268.005 383.367 270.672 383.367 273.37 383.367C275.19 383.367 275.19 380.367 273.37 380.367C270.703 380.367 268.037 380.367 265.338 380.367C263.519 380.367 263.519 383.367 265.338 383.367Z" fill="#161616"/>
<path d="M88.0383 374.1C94.5329 374.1 101.028 374.1 107.491 374.1C109.31 374.1 109.31 371.1 107.491 371.1C100.996 371.1 94.5015 371.1 88.0383 371.1C86.2185 371.1 86.2185 374.1 88.0383 374.1Z" fill="#161616"/>
<path d="M225.272 246.533C205.914 246 186.524 245.5 167.166 244.967C178.649 233.3 190.101 221.6 201.584 209.933C214.825 210.667 228.096 211.4 241.336 212.133C235.971 223.633 230.638 235.067 225.272 246.533Z" fill="white" stroke="#191919" stroke-width="2" stroke-miterlimit="10"/>
<path d="M200.926 209.7C189.662 221.267 178.398 232.867 167.135 244.433C166.633 225.9 166.099 207.333 165.597 188.8C177.018 181.133 188.438 173.467 199.859 165.8C200.173 180.433 200.549 195.067 200.926 209.7Z" fill="white" stroke="#191919" stroke-width="2" stroke-miterlimit="10"/>
<path d="M166.633 190.567C167.542 207.067 168.139 223.6 168.452 240.133C168.452 240.467 168.923 240.467 168.923 240.133C168.609 223.6 168.013 207.067 167.103 190.567C167.072 190.267 166.601 190.267 166.633 190.567Z" fill="#191919"/>
<path d="M166.884 190.633C177.394 183.366 187.905 176.1 198.416 168.833C198.667 168.666 198.447 168.233 198.165 168.4C187.654 175.666 177.143 182.933 166.633 190.2C166.382 190.4 166.601 190.833 166.884 190.633Z" fill="#191919"/>
<path d="M198.29 168.8C198.259 182.1 198.635 195.433 199.451 208.7C199.482 209.033 199.953 209.033 199.922 208.7C199.137 195.4 198.729 182.1 198.761 168.8C198.761 168.5 198.29 168.5 198.29 168.8Z" fill="#191919"/>
<path d="M168.766 240.833C179.057 230.267 189.379 219.7 199.67 209.167C199.89 208.933 199.545 208.6 199.325 208.8C189.034 219.367 178.712 229.933 168.421 240.467C168.233 240.7 168.547 241.067 168.766 240.833Z" fill="#191919"/>
<path d="M216.425 235.167C218.339 231.933 220.253 228.667 222.104 225.367C222.261 225.1 221.853 224.833 221.696 225.1C219.845 228.4 217.931 231.667 216.017 234.9C215.829 235.167 216.237 235.433 216.425 235.167Z" fill="#191919"/>
<path d="M221.978 225.266C224.457 225.366 226.935 225.366 229.414 225.233C229.728 225.233 229.728 224.733 229.414 224.733C226.935 224.833 224.457 224.833 221.978 224.766C221.664 224.766 221.664 225.266 221.978 225.266Z" fill="#191919"/>
<path d="M229.1 225.1C227.688 228.367 226.245 231.633 224.802 234.9C224.676 235.2 225.084 235.433 225.21 235.167C226.653 231.9 228.096 228.633 229.508 225.367C229.634 225.033 229.226 224.8 229.1 225.1Z" fill="#191919"/>
<path d="M216.268 235.433C219.029 235.867 221.947 235.667 224.739 235.533C225.053 235.533 225.053 235.033 224.739 235.033C222.01 235.167 219.123 235.367 216.393 234.967C216.08 234.9 215.954 235.4 216.268 235.433Z" fill="#191919"/>
<path d="M226.559 225.133C225.304 228.467 223.861 231.7 222.229 234.833C222.072 235.1 222.48 235.367 222.637 235.1C224.269 231.9 225.743 228.633 227.03 225.267C227.124 224.967 226.684 224.833 226.559 225.133Z" fill="#191919"/>
<path d="M181.097 240.233C187.999 231.167 195.153 222.3 202.526 213.633C202.714 213.4 202.4 213.033 202.181 213.267C194.807 221.9 187.654 230.767 180.751 239.867C180.563 240.133 180.908 240.467 181.097 240.233Z" fill="#191919"/>
<path d="M189.442 240.8C195.623 231.633 202.149 222.767 208.989 214.167C209.177 213.933 208.863 213.567 208.644 213.8C201.773 222.433 195.247 231.333 189.034 240.533C188.846 240.8 189.254 241.067 189.442 240.8Z" fill="#191919"/>
<path d="M198.416 242.167C203.781 232.633 209.648 223.433 215.986 214.6C216.174 214.333 215.766 214.1 215.578 214.333C209.24 223.167 203.373 232.367 198.008 241.9C197.851 242.167 198.259 242.433 198.416 242.167Z" fill="#191919"/>
<path d="M205.946 243C211.217 232.567 217.46 222.733 224.614 213.667C224.802 213.433 224.488 213.067 224.269 213.3C217.084 222.4 210.809 232.267 205.506 242.733C205.381 243.033 205.789 243.3 205.946 243Z" fill="#191919"/>
<path d="M185.113 234.833C193.145 233.933 201.177 235 209.177 236.133C209.491 236.167 209.46 235.667 209.177 235.633C201.208 234.5 193.176 233.4 185.113 234.333C184.83 234.367 184.83 234.867 185.113 234.833Z" fill="#191919"/>
<path d="M189.16 229.967C196.753 229.667 204.345 230.267 211.813 231.8C212.095 231.867 212.221 231.367 211.938 231.333C204.44 229.8 196.784 229.2 189.16 229.5C188.878 229.467 188.878 229.967 189.16 229.967Z" fill="#191919"/>
<path d="M192.799 225.267C200.11 224.767 207.42 225.467 214.542 227.333C214.825 227.4 214.95 226.933 214.668 226.867C207.514 224.967 200.173 224.267 192.799 224.767C192.486 224.8 192.486 225.3 192.799 225.267Z" fill="#191919"/>
<path d="M196.564 220.567C203.592 220.6 210.558 221.367 217.429 222.867C217.711 222.933 217.837 222.433 217.554 222.4C210.652 220.9 203.624 220.133 196.564 220.1C196.282 220.067 196.282 220.567 196.564 220.567Z" fill="#191919"/>
<path d="M200.298 216.2C206.981 216.333 213.632 217.167 220.127 218.733C220.409 218.8 220.535 218.333 220.252 218.267C213.695 216.7 207.012 215.833 200.298 215.733C199.984 215.7 199.984 216.2 200.298 216.2Z" fill="#191919"/>
<path d="M221.821 221.267C218.746 226.067 215.703 230.867 212.628 235.667C212.472 235.933 212.879 236.2 213.036 235.933C216.111 231.133 219.154 226.333 222.229 221.533C222.417 221.233 222.009 221 221.821 221.267Z" fill="#191919"/>
<path d="M169.864 214C173.786 212.233 178.022 213.233 182.163 213.167C185.646 213.133 188.972 212.1 191.952 210.233C192.203 210.067 191.984 209.633 191.701 209.8C188.03 212.1 184.14 212.833 179.936 212.633C176.422 212.467 172.939 212.1 169.613 213.6C169.362 213.7 169.582 214.133 169.864 214Z" fill="#191919"/>
<path d="M180.438 211.933C187.152 207.9 190.258 199.4 197.255 195.833C197.537 195.7 197.286 195.267 197.004 195.4C189.976 199 186.901 207.467 180.187 211.5C179.936 211.667 180.155 212.1 180.438 211.933Z" fill="#191919"/>
<path d="M188.972 188.167C187.811 187.2 187.999 185.633 188.658 184.4C188.972 183.8 189.442 183.167 189.976 182.8C190.948 182.133 191.858 182.667 192.611 183.367C192.831 183.567 193.176 183.233 192.956 183C191.388 181.6 189.913 181.733 188.627 183.533C187.591 185 187.058 187.2 188.627 188.533C188.878 188.733 189.223 188.367 188.972 188.167Z" fill="#191919"/>
<path d="M274.215 229.863L274.215 229.863C274.152 220.943 273.724 214.846 273.383 210.001C273.3 208.816 273.222 207.706 273.156 206.648C272.82 201.275 272.79 197.239 273.924 191.464C275.177 185.174 277.48 174.152 285.988 164.124C295.515 152.931 307.358 149.426 312.539 148.245C324.42 159.14 328.606 169.639 330.302 176.258L330.303 176.259C331.725 181.726 331.879 188.308 331.089 197.373C330.298 206.437 328.568 217.935 326.245 233.224C325.379 238.809 324.635 243.422 324.104 246.583C321.775 249.349 314.716 257.004 303.113 259.242L303.112 259.243C287.721 262.239 276.068 253.475 273.633 251.507C273.914 246.688 274.277 239.146 274.215 229.863Z" fill="#EC615B" stroke="black"/>
<path opacity="0.19" d="M294.36 157.667C297.341 167.133 298.941 175.233 299.882 181.167C302.361 196.867 306.095 220.4 295.584 243.2C292.227 250.467 288.305 255.8 285.544 259.1C289.183 260 296.4 261.233 304.996 258.867C315.225 256.067 321.625 249.767 324.261 246.9C326.3 234.5 327.932 223.867 329.187 215.567C331.351 200.967 331.853 196.534 331.634 190.3C331.383 182.3 331.038 173.9 326.52 164.833C322.19 156.167 316.103 150.967 312.37 148.3C309.326 148.867 305.028 150.067 300.478 152.867C297.968 154.467 295.929 156.167 294.36 157.667Z" fill="#EC615B"/>
<path opacity="0.18" d="M330.002 173.567C329.437 173.6 330.63 182.833 328.779 195.567C325.359 219.133 314.377 235.467 310.142 241.267C306.596 246.1 301.043 252.767 292.917 259.333C295.835 259.8 299.725 260 304.181 259.1C314.754 257 321.468 250.1 324.041 247.133C324.7 243.067 325.767 236.7 327.116 228.833C330.285 210.433 330.912 208.233 331.414 202.5C332.795 186.867 330.661 173.567 330.002 173.567Z" fill="#EC615B"/>
<path d="M230.324 198.333C229.728 197.9 228.536 197.1 228.661 196.433C228.912 195.367 232.52 195.2 235.124 195.667C236.881 195.967 240.082 196.933 243.439 200.3C239.674 200.867 234.246 201.033 230.324 198.333Z" fill="white" stroke="#191919" stroke-width="2" stroke-miterlimit="10"/>
<path d="M318.895 166.4C312.589 164.433 305.216 173.467 304.557 174.333C302.047 177.5 301.451 179.767 299.098 185.9C293.388 200.9 290.407 208.467 284.759 212.4C279.708 215.933 274.406 216.067 272.994 216.067C267.064 216.033 262.17 212.9 252.632 206.633C244.6 201.333 243.784 199.733 239.14 198.4C236.787 197.733 229.885 195.733 224.52 199.633C221.1 202.1 218.998 206.7 219.939 207.867C221.131 209.367 227.532 205.833 227.563 205.967C227.594 206.033 225.712 206.6 224.018 208.2C223.17 208.967 221.664 210.633 222.01 211.233C222.637 212.367 228.347 207.167 233.43 209.1C236.881 210.4 237.07 213.9 241.117 215.267C243.501 216.067 245.76 215.633 247.204 215.2C249.149 218.3 252.443 222.733 257.526 226.767C260.569 229.167 271.3 237.433 286.203 236.2C302.016 234.9 311.616 223.8 314.597 220.367C316.323 218.4 328.841 203.5 326.927 184.1C326.645 180.933 325.421 168.467 318.895 166.4Z" fill="white" stroke="#191919" stroke-width="2" stroke-miterlimit="10"/>
<path opacity="0.25" d="M318.205 166.4C315.821 167.233 318.801 176.267 316.385 188.1C314.095 199.467 308.071 207.133 305.341 210.633C301.67 215.333 296.87 221.467 288.681 224.6C277.7 228.8 265.37 225.833 257.118 220.333C254.671 218.667 252.6 214.367 247.109 211C244.725 209.533 242.811 208.8 240.521 207.9C234.999 205.767 230.041 203.833 224.99 205.533C222.574 206.333 220.409 207.867 220.535 208.133C220.66 208.433 223.453 207.467 225.963 206.567C222.606 209.933 221.978 210.967 222.135 211.233C222.323 211.5 223.327 210.8 225.68 209.933C228.253 208.967 230.041 208.333 232.112 208.867C233.148 209.133 233.901 209.633 234.371 209.933C236.097 211.067 236.379 212.167 238.073 213.467C239.109 214.267 240.05 214.667 240.552 214.867C241.587 215.3 243.784 216 246.89 215.4C249.023 218.667 258.906 233.133 276.257 235.8C285.199 237.167 292.258 234.833 295.05 233.867C310.361 228.6 318.111 216 320.119 212.5C326.331 201.7 330.567 184.833 324.166 172.7C322.66 169.667 319.837 165.833 318.205 166.4Z" fill="#6C6D6D"/>
<path d="M220.504 207.967C222.167 206.133 224.112 204.8 226.371 204C226.811 203.833 226.622 203.133 226.183 203.267C223.83 204.133 221.728 205.533 220.002 207.433C219.689 207.8 220.191 208.333 220.504 207.967Z" fill="#191919"/>
<path d="M221.633 203.5C223.296 201.533 225.618 200.767 227.939 200.067C228.379 199.933 228.19 199.2 227.751 199.333C225.335 200.1 222.888 200.933 221.162 202.967C220.817 203.333 221.319 203.833 221.633 203.5Z" fill="#191919"/>
<path opacity="0.29" d="M325.955 180.733C324.888 184.2 323.163 189.2 320.621 195C315.57 206.433 311.02 216.733 302.141 224.033C291.191 233.033 278.077 233.8 270.703 233.433C275.88 235.667 280.179 236.133 282.908 236.2C303.679 236.667 318.237 215.767 322.755 206.367C323.539 204.7 325.171 201.233 326.112 196.3C327.335 189.667 326.614 184.1 325.955 180.733Z" fill="#6C6D6D"/>
<path opacity="0.26" d="M234.183 208.767C235.94 210.067 238.419 211.6 241.588 212.8C244.098 213.733 246.388 214.2 248.208 214.433C243.156 216.2 240.803 215.5 239.58 214.433C238.827 213.767 238.042 212.533 235.689 210.233C235.093 209.6 234.56 209.1 234.183 208.767Z" fill="#6C6D6D"/>
<path d="M270.264 99.1667C269.919 101.3 269.574 103.433 269.292 105.667C268.068 114.733 267.566 123.3 267.535 131.267C269.26 131.067 270.954 130.867 272.68 130.7C272.492 132.467 271.958 138.933 275.849 145.333C279.52 151.367 284.791 153.567 286.422 154.167C286.234 157.433 286.077 160.667 285.889 163.933C289.277 160.733 293.89 156.967 299.757 153.6C304.243 151.033 308.479 149.267 312.087 148.067C308.04 142.733 306.502 137.7 305.843 134.8C304.714 129.8 304.934 125.5 305.153 121.7C305.373 117.8 305.906 114.567 306.377 112.3C307.851 105.167 303.992 93.8667 296.305 89.8C288.713 85.7667 277.386 89.1667 270.264 99.1667Z" fill="white" stroke="#161616" stroke-width="2" stroke-miterlimit="10"/>
<path d="M271.958 130.933C272.837 130.8 273.747 130.7 274.625 130.6C274.939 130.567 274.939 130.067 274.625 130.1C273.684 130.2 272.774 130.333 271.833 130.467C271.551 130.467 271.676 130.967 271.958 130.933Z" fill="#161616"/>
<path d="M300.259 104.333C296.462 105.367 295.772 108.867 290.972 116.167C286.109 123.567 283.034 128.2 277.543 130.9C273.998 132.633 272.241 132.167 270.672 134.4C267.974 138.267 269.794 144.633 271.394 147.9C273.245 151.667 276.069 153.933 278.39 155.8C280.618 157.567 282.657 158.733 284.101 159.433C282.563 156.933 282.469 156.167 282.657 155.933C283.159 155.4 285.293 158.267 287.803 157.9C288.524 157.8 289.811 157.367 292.666 152.6C294.611 149.367 295.929 147.133 296.807 143.933C298.721 137.067 296.023 135.2 296.807 126.167C296.933 124.8 297.811 114.1 301.388 113.4C302.675 113.133 303.992 114.267 304.62 115.133C305.938 116.967 305.781 119.9 304.149 122.433C304.683 122.033 309.797 118.367 309.734 112.4C309.734 111.467 309.703 108.033 307.255 105.8C304.463 103.267 300.572 104.267 300.259 104.333Z" fill="#161616" stroke="#161616" stroke-width="2" stroke-miterlimit="10"/>
<path d="M274.971 119.5C275.698 119.5 276.288 118.381 276.288 117C276.288 115.619 275.698 114.5 274.971 114.5C274.243 114.5 273.653 115.619 273.653 117C273.653 118.381 274.243 119.5 274.971 119.5Z" fill="#161616"/>
<path d="M264.93 120.667C265.658 120.667 266.248 119.547 266.248 118.167C266.248 116.786 265.658 115.667 264.93 115.667C264.203 115.667 263.613 116.786 263.613 118.167C263.613 119.547 264.203 120.667 264.93 120.667Z" fill="#161616"/>
<path d="M262.954 114.067C263.801 113.033 265.119 112.933 266.06 113.933C266.499 114.4 267.158 113.667 266.719 113.233C265.433 111.9 263.456 111.933 262.264 113.367C261.919 113.867 262.577 114.567 262.954 114.067Z" fill="#161616"/>
<path d="M273.245 112.333C274.343 111.367 275.786 111.5 276.728 112.6C277.135 113.067 277.794 112.367 277.386 111.9C276.069 110.4 274.029 110.333 272.555 111.633C272.115 112.033 272.774 112.733 273.245 112.333Z" fill="#161616"/>
<path d="M269.198 103.133C269.543 100.733 270.421 96.8001 272.837 92.7334C273.684 91.3001 275.504 88.2667 278.39 86.2001C283.912 82.3001 292.415 82.6001 298.596 87.4001C304.651 92.1001 307.663 100.5 306.345 108.833C293.952 106.967 281.591 105.067 269.198 103.133Z" fill="#12335E"/>
<path d="M248.929 103.433C267.974 106.033 287.05 108.633 306.094 111.2C307.883 111.433 307.883 108.433 306.094 108.2C287.05 105.6 267.974 103 248.929 100.433C247.141 100.167 247.141 103.167 248.929 103.433Z" fill="#161616"/>
<path d="M285.324 83.7661C290.219 84.8995 293.921 89.0995 294.549 94.1328C295.113 98.5328 293.294 102.999 289.842 105.733C295.27 106.499 300.729 107.299 306.157 108.066C306.44 106.533 306.691 104.199 306.346 101.466C305.53 95.0661 302.047 90.9661 300.918 89.7328C299.694 88.3995 295.364 83.9328 288.932 83.5328C287.458 83.4661 286.203 83.5995 285.324 83.7661Z" fill="#12335E"/>
</svg>
