<svg width="201" height="200" viewBox="0 0 201 200" fill="none" xmlns="http://www.w3.org/2000/svg">
<path d="M207.531 97.1167C205.141 111.2 202.828 125.3 200.594 139.4C199.969 143.383 199.344 147.35 198.719 151.333C198.672 151.65 199.125 151.783 199.172 151.467C201.375 137.35 203.641 123.25 205.985 109.15C206.641 105.183 207.313 101.217 207.985 97.2334C208.047 96.9334 207.594 96.8 207.531 97.1167Z" fill="#E8E8E8"/>
<path d="M205.86 104.45C205.313 106.783 203.016 107.75 201.094 108.433C199.328 109.067 197.5 109.75 196.36 111.417C196.203 111.65 196.5 111.85 196.688 111.767C198.031 111.15 197.656 113.6 197.516 114.2C197.313 115 197.016 115.767 196.641 116.483C196.563 116.617 196.625 116.817 196.781 116.85C197.641 117.05 197.188 118.433 197 119C196.688 119.933 196.36 120.85 196.047 121.783C195.406 123.633 194.781 125.483 194.141 127.333C194.078 127.533 194.266 127.683 194.422 127.633C194.719 127.567 194.922 127.417 195.141 127.2C195.344 127 195.563 126.75 195.828 126.65C196.125 126.55 196.453 126.617 196.766 126.633C197.656 126.667 198.547 126.55 199.375 126.217C200.969 125.583 202.297 124.35 203.078 122.733C203.219 122.45 202.813 122.2 202.672 122.483C201.844 124.2 200.36 125.467 198.61 125.95C197.719 126.2 196.891 126.017 196.016 126.117C195.25 126.2 195 127 194.297 127.15C194.391 127.25 194.485 127.35 194.578 127.45C195.422 124.983 196.281 122.517 197.125 120.05C197.438 119.133 198.453 116.717 196.906 116.35C196.953 116.467 197 116.6 197.047 116.717C197.672 115.533 198.375 113.883 198.172 112.483C198.047 111.583 197.297 110.933 196.453 111.317C196.563 111.433 196.672 111.55 196.781 111.667C199.141 108.25 205.235 109.3 206.344 104.583C206.375 104.267 205.938 104.133 205.86 104.45Z" fill="#E8E8E8"/>
<path d="M193.703 152.667C195.547 152.883 197.156 151.517 199.016 151.8C200.719 152.05 202.266 153.033 204.016 152.95C204.313 152.933 204.313 152.433 204.016 152.45C202.234 152.533 200.656 151.5 198.922 151.283C197.094 151.067 195.516 152.383 193.703 152.167C193.406 152.133 193.406 152.633 193.703 152.667Z" fill="#E8E8E8"/>
<path d="M137.313 149.383C143.5 147.75 149.953 148.917 156.203 149.333C162.766 149.767 169.344 149.833 175.922 149.767C179.656 149.733 183.375 149.65 187.109 149.583C187.406 149.583 187.406 149.083 187.109 149.083C180.437 149.217 173.75 149.35 167.078 149.25C163.766 149.2 160.453 149.083 157.156 148.883C153.953 148.683 150.766 148.333 147.563 148.15C144.094 147.95 140.594 148 137.203 148.9C136.907 148.967 137.032 149.45 137.313 149.383Z" fill="#E8E8E8"/>
<path d="M188.828 158.067C193.625 158.817 198.344 157.45 203.11 157.083C208.063 156.7 213.016 157.483 217.844 158.7C218.141 158.767 218.266 158.3 217.969 158.217C213.313 157.05 208.516 156.266 203.703 156.55C198.781 156.833 193.891 158.367 188.953 157.6C188.656 157.533 188.531 158.017 188.828 158.067Z" fill="#E8E8E8"/>
<path d="M32.3281 149.283C38.1094 148.683 43.8594 149.083 49.5469 150.333C52.1875 150.917 54.8437 151.533 57.5625 151.5C60.2031 151.467 62.8281 150.933 65.4219 150.467C68.5469 149.9 71.7187 149.417 74.875 149.967C75.1719 150.017 75.2969 149.533 75 149.483C69.6406 148.533 64.4219 150.517 59.125 150.933C56.1562 151.167 53.2969 150.65 50.4062 150.017C47.6719 149.417 44.9375 148.917 42.1406 148.683C38.875 148.417 35.5937 148.45 32.3281 148.8C32.0312 148.8 32.0312 149.3 32.3281 149.283Z" fill="#E8E8E8"/>
<path d="M15.172 109.167C19.8595 107.883 24.5626 106.6 29.3595 105.867C34.1408 105.133 38.9064 105.117 43.6877 105.767C52.8908 107.033 62.0158 109.417 70.9846 111.95C88.6252 116.967 105.906 123.317 123.531 128.4C133.485 131.267 143.547 133.733 153.75 135.283C154.047 135.333 154.172 134.85 153.875 134.8C135.563 132 117.813 126.317 100.156 120.567C82.5314 114.817 64.8127 108.817 46.5627 105.7C41.3126 104.8 36.0783 104.467 30.7658 105.15C25.4376 105.833 20.2189 107.25 15.0314 108.667C14.7501 108.767 14.8751 109.25 15.172 109.167Z" fill="#E8E8E8"/>
<path d="M107 123.2C117.922 123.25 128.735 121.4 139.422 119.133C150.172 116.85 160.859 114.133 171.734 112.483C177.922 111.533 184.156 110.967 190.406 111C190.703 111 190.703 110.5 190.406 110.5C179.484 110.433 168.672 112.283 157.984 114.533C147.234 116.817 136.547 119.533 125.672 121.2C119.485 122.15 113.25 122.733 107 122.7C106.688 122.7 106.688 123.2 107 123.2Z" fill="#E8E8E8"/>
<path d="M9.48443 131.8C11.2032 135.067 11.8751 138.817 11.4532 142.533C11.4376 142.667 11.5782 142.783 11.6876 142.783C12.2188 142.75 13.1407 142.783 13.5313 143.25C13.8907 143.667 13.5313 144.133 13.2969 144.483C12.9844 144.95 12.5782 145.433 12.5782 146.033C12.5782 146.367 12.7032 146.633 12.8126 146.933C13.0626 147.55 13.2032 148.133 13.3126 148.8C13.4532 149.7 13.6094 150.567 13.9532 151.4C15.2969 154.7 18.3438 156.8 21.1094 158.633C21.3594 158.8 21.6094 158.367 21.3438 158.2C18.2813 156.167 14.7344 153.733 13.9375 149.7C13.7344 148.667 13.6094 147.683 13.2344 146.683C12.8126 145.617 13.5782 145.133 14 144.283C14.7969 142.733 12.8126 142.217 11.7032 142.283C11.7813 142.367 11.8594 142.45 11.9376 142.533C12.3751 138.733 11.6563 134.9 9.90631 131.55C9.75006 131.267 9.34381 131.517 9.48443 131.8Z" fill="#E8E8E8"/>
<path d="M10.297 131.833C11.8908 132.833 13.5001 133.85 15.0939 134.85C15.7345 135.25 16.9689 135.9 16.6876 136.85C16.5314 137.383 15.9689 137.6 15.9845 138.217C15.9845 138.383 16.1251 138.5 16.2814 138.45C17.5314 138.1 18.047 139.667 18.5314 140.55C18.9376 141.283 19.5314 141.8 20.0939 142.4C21.2189 143.617 22.1251 145.033 22.8126 146.567C24.2345 149.733 24.6407 153.383 23.9064 156.8C23.8439 157.117 24.297 157.25 24.3595 156.933C25.1564 153.2 24.6564 149.25 23.0001 145.85C22.1564 144.1 21.0157 142.667 19.7032 141.3C18.6564 140.217 18.0939 137.417 16.1564 137.95C16.2501 138.033 16.3595 138.117 16.4533 138.183C16.4376 137.8 16.9533 137.517 17.1251 137.217C17.2345 137 17.2814 136.8 17.2658 136.55C17.2189 135.9 16.6876 135.35 16.2189 134.967C15.3751 134.283 14.3751 133.767 13.4533 133.2C12.4845 132.583 11.5001 131.967 10.5314 131.35C10.2658 131.233 10.0314 131.667 10.297 131.833Z" fill="#E8E8E8"/>
<path d="M12.9844 136.567C17.1094 142.617 20.1719 149.417 22.0156 156.617C22.0938 156.933 22.5469 156.8 22.4688 156.483C20.6094 149.233 17.5469 142.383 13.3906 136.317C13.2188 136.05 12.8125 136.3 12.9844 136.567Z" fill="#E8E8E8"/>
<path d="M19.4374 140.467C19.6561 134.85 23.8592 130.517 24.2499 124.917C24.0936 124.933 23.9374 124.967 23.7968 124.983C24.2186 126.383 24.6405 127.783 25.078 129.183C25.3436 130.033 26.9374 133.85 25.1405 133.8C24.9061 133.8 24.828 134.133 25.0155 134.267C25.7186 134.75 25.578 135.75 25.6249 136.533C25.6561 137.2 25.7967 137.767 26.0467 138.383C26.8592 140.3 27.0311 142.167 26.7655 144.233C26.5155 146.15 26.0155 148.017 25.578 149.883C25.1092 151.917 24.6405 153.967 24.1717 156C24.0936 156.317 24.5468 156.45 24.6249 156.133C25.1405 153.883 25.6718 151.633 26.1874 149.367C26.6561 147.35 27.1874 145.333 27.3436 143.25C27.4061 142.333 27.3905 141.4 27.2342 140.483C27.0624 139.45 26.578 138.6 26.2811 137.617C25.9061 136.383 26.4686 134.633 25.2655 133.817C25.2186 133.967 25.1874 134.133 25.1405 134.283C26.7811 134.333 26.5311 132.3 26.203 131.217C25.5624 129.1 24.9061 126.967 24.2655 124.85C24.1874 124.583 23.828 124.633 23.8124 124.917C23.4374 130.5 19.2186 134.833 18.9999 140.467C18.953 140.783 19.4218 140.783 19.4374 140.467Z" fill="#E8E8E8"/>
<path d="M24.0312 129.483C23.125 133.783 22.4531 138.15 22.0313 142.533C22 142.85 22.4688 142.85 22.5 142.533C22.9219 138.183 23.5937 133.883 24.4844 129.617C24.5469 129.3 24.0937 129.167 24.0312 129.483Z" fill="#E8E8E8"/>
<path d="M15.8282 148.4C17.5157 148.733 19.0157 149.583 20.2188 150.883C20.4376 151.117 20.7657 150.767 20.547 150.533C19.297 149.167 17.7188 148.266 15.9532 147.916C15.6563 147.866 15.5313 148.35 15.8282 148.4Z" fill="#E8E8E8"/>
<path d="M18.1563 144.217C18.3125 142.867 18.4844 141.533 18.6407 140.183C18.6719 139.867 18.2032 139.867 18.1719 140.183C18.0157 141.533 17.8438 142.867 17.6875 144.217C17.6563 144.534 18.125 144.534 18.1563 144.217Z" fill="#E8E8E8"/>
<path d="M21.5937 134.517C22.0781 135.2 22.4062 135.933 22.578 136.766C22.6405 137.083 23.0937 136.95 23.0312 136.633C22.8437 135.766 22.4999 134.966 21.9999 134.267C21.8124 134.017 21.4062 134.25 21.5937 134.517Z" fill="#E8E8E8"/>
<path d="M144.266 138.767C144.359 139.833 144.328 140.9 144.219 141.967C144.203 142.067 144.297 142.2 144.391 142.2C144.813 142.267 145.234 142.333 145.672 142.383C145.625 142.267 145.578 142.133 145.531 142.017C145.375 142.417 144.922 143.05 145.141 143.483C145.281 143.75 145.641 143.833 145.781 144.15C145.953 144.533 145.906 144.983 146.063 145.367C146.688 146.8 149.047 145.933 149.422 147.45C149.5 147.767 149.953 147.633 149.875 147.317C149.563 146.017 148.219 146.133 147.25 145.783C146.219 145.417 146.547 144.4 146.063 143.617C145.953 143.45 145.641 143.317 145.578 143.183C145.516 143.05 145.844 142.467 145.938 142.267C145.984 142.133 145.969 141.917 145.797 141.9C145.375 141.833 144.953 141.767 144.516 141.717C144.578 141.8 144.625 141.883 144.688 141.95C144.813 140.883 144.828 139.817 144.734 138.75C144.703 138.45 144.234 138.45 144.266 138.767Z" fill="#E8E8E8"/>
<path d="M144.781 139.367C146.109 140.017 147.562 140.55 148.781 141.417C150.344 142.533 150.562 144.183 150.547 146.067C150.547 146.383 151.016 146.383 151.016 146.067C151.016 144.367 150.906 142.667 149.625 141.483C148.344 140.283 146.547 139.683 145.016 138.933C144.75 138.8 144.516 139.233 144.781 139.367Z" fill="#E8E8E8"/>
<path d="M146.109 141.967C147.844 143.183 149.156 144.883 149.984 146.917C150.109 147.217 150.5 146.95 150.391 146.667C149.547 144.55 148.156 142.8 146.359 141.55C146.094 141.367 145.859 141.8 146.109 141.967Z" fill="#E8E8E8"/>
<path d="M150.641 142.283C150.516 141.767 150.297 141.117 150.547 140.617C150.75 140.217 151.141 140.133 151.469 139.9C151.953 139.567 152.063 138.783 152.297 138.283C152.453 137.95 152.75 137.3 153.063 137.1C153.516 136.8 153.891 137.333 154.016 137.8C154.141 138.267 154.063 138.717 153.906 139.167C153.828 139.383 153.703 139.567 153.719 139.817C153.734 140 153.781 140.1 153.875 140.267C154.141 140.7 154.422 140.983 154.469 141.55C154.531 142.517 154.063 143.35 153.5 144.067C152.641 145.167 151.594 146.067 151.219 147.5C151.141 147.817 151.594 147.95 151.672 147.633C152.234 145.533 154.516 144.517 154.891 142.333C155.031 141.533 154.828 140.983 154.516 140.283C154.219 139.6 154.391 139.383 154.5 138.75C154.563 138.4 154.547 138.017 154.453 137.667C154.328 137.15 153.891 136.367 153.297 136.383C152.703 136.383 152.188 137.467 151.953 137.917C151.719 138.367 151.594 139.083 151.234 139.4C150.953 139.65 150.625 139.683 150.359 139.967C149.766 140.65 149.969 141.617 150.172 142.417C150.281 142.717 150.734 142.6 150.641 142.283Z" fill="#E8E8E8"/>
<path d="M152.625 140.1C151.812 142.033 151.109 144.017 150.547 146.05C150.453 146.367 150.906 146.483 151 146.183C151.547 144.2 152.234 142.25 153.031 140.367C153.156 140.067 152.75 139.8 152.625 140.1Z" fill="#E8E8E8"/>
<path d="M29.0626 146.5C33.6095 144.883 38.5626 145.033 43.0158 146.95C43.297 147.067 43.422 146.583 43.1408 146.467C38.6095 144.533 33.5626 144.383 28.9376 146.017C28.6563 146.133 28.7813 146.617 29.0626 146.5Z" fill="#E8E8E8"/>
<path d="M183.875 52.2167C190.908 52.2167 196.61 46.2247 196.61 38.8333C196.61 31.4419 190.908 25.45 183.875 25.45C176.842 25.45 171.141 31.4419 171.141 38.8333C171.141 46.2247 176.842 52.2167 183.875 52.2167Z" stroke="#E8E8E8" stroke-width="2" stroke-miterlimit="10"/>
<path d="M32.1253 65.8499C31.1409 64.1499 33.4846 62.7665 34.8128 62.8832C36.4534 63.0332 37.9222 64.0499 39.5784 64.1499C42.2816 64.3332 44.5472 62.3832 46.9066 61.3165C48.3597 60.6665 49.8128 60.4332 51.3441 60.8499C52.8441 61.2665 54.2035 62.0832 55.6878 62.5332C56.9847 62.9332 58.2504 62.9499 59.5629 62.5832C61.0316 62.1832 62.391 61.4332 63.8754 61.0499C65.4691 60.6332 66.8598 60.9165 68.2191 61.8499C69.3598 62.6332 70.4066 63.6665 71.7348 64.0999C73.141 64.5665 75.5942 63.9999 76.2817 65.7832C77.0004 67.6332 74.391 68.3665 73.2035 68.5332C71.3598 68.7665 69.4848 68.8165 67.641 68.6499C65.8441 68.4999 64.0941 68.0332 62.2972 67.9832C60.641 67.9332 59.2347 68.4165 57.8129 69.2999C56.3129 70.2498 54.891 71.0665 53.1097 71.2665C49.3128 71.6999 45.5941 70.1665 41.8128 70.2165C39.6878 70.2332 37.469 70.8332 35.3753 70.1999C33.6253 69.6665 31.8596 67.9165 32.2815 65.8332C32.344 65.5165 31.8909 65.3832 31.8284 65.6999C31.5315 67.1999 32.1565 68.5665 33.2346 69.5332C34.5628 70.7165 36.219 71.0165 37.9065 70.9832C39.9534 70.9332 41.9378 70.6332 43.9847 70.8499C45.8909 71.0665 47.7816 71.4832 49.6878 71.7165C51.4378 71.9165 53.266 71.9499 54.9691 71.3998C56.7816 70.7999 58.1879 69.3499 60.0004 68.7832C62.0629 68.1332 64.2348 68.7499 66.3129 69.0332C68.4066 69.3165 70.5316 69.3498 72.6254 69.1332C73.9223 68.9999 75.4379 68.7832 76.3754 67.6999C77.1723 66.7665 76.9692 65.4665 76.0473 64.7165C74.6567 63.5832 72.7348 64.1499 71.2035 63.3665C69.7973 62.6499 68.6879 61.3832 67.2191 60.7499C63.9848 59.3499 61.0629 62.2832 57.8754 62.3999C56.0941 62.4665 54.4691 61.5499 52.8597 60.8832C51.3753 60.2832 49.8753 59.9332 48.3128 60.3165C46.6566 60.7165 45.2034 61.6832 43.7034 62.4832C41.8128 63.4832 40.0472 63.9832 37.969 63.2999C36.3284 62.7665 34.5472 61.8332 32.8909 62.8332C31.8128 63.4832 30.9846 64.8332 31.719 66.0999C31.8753 66.3832 32.2815 66.1332 32.1253 65.8499Z" fill="#E8E8E8"/>
<path d="M112.672 42.25C113.922 39.5 117.344 41.5667 119.156 42.1833C121.5 42.9833 123.438 41.85 125.531 40.8167C126.828 40.1667 128.11 39.7833 129.547 39.8667C131.016 39.9667 132.453 40.4 133.906 40.6167C136.672 41.0167 139.25 40.0833 141.938 39.6C143.375 39.35 144.844 39.3 146.281 39.4667C147.016 39.55 147.75 39.6833 148.469 39.8833C149.141 40.0667 149.969 40.2333 150.563 40.6167C152.375 41.7667 149.969 43.7 148.844 44.05C147.688 44.4166 146.453 44.3333 145.281 44.1166C143.922 43.8666 142.578 43.45 141.203 43.4C139.906 43.3333 138.735 43.7 137.547 44.2C136.172 44.7833 134.86 45.35 133.36 45.3666C131.891 45.3833 130.406 45.1666 128.938 45.0833C125.563 44.9166 122.172 45 118.813 45.3333C117.203 45.5 115.563 45.9 113.953 45.9166C113.156 45.9333 112.313 45.75 111.719 45.15C111.375 44.7833 111.125 44.3 111.203 43.7666C111.297 43.1167 111.797 42.5 112.485 42.6167C112.781 42.6667 112.906 42.1833 112.61 42.1333C111.656 41.9833 110.844 42.7167 110.719 43.7333C110.594 44.8333 111.438 45.7666 112.344 46.15C113.75 46.75 115.391 46.2666 116.828 46.0833C118.61 45.85 120.391 45.6833 122.188 45.6C123.985 45.5166 125.766 45.4833 127.563 45.55C129.344 45.6 131.125 45.8166 132.906 45.8833C134.531 45.9333 135.938 45.4333 137.422 44.8C139.156 44.0666 140.719 43.75 142.578 44.0833C145.063 44.5166 147.953 45.5833 150.266 43.9333C151.063 43.3667 151.875 42.2833 151.594 41.2C151.281 39.95 149.422 39.65 148.453 39.4C146.953 39.0167 145.406 38.85 143.86 38.9167C142.203 39 140.594 39.4 138.985 39.7667C137.172 40.1833 135.406 40.4 133.563 40.0833C132 39.8167 130.438 39.3333 128.828 39.3833C125.485 39.4667 122.828 42.8833 119.391 41.7833C117.922 41.3167 116.563 40.3833 114.969 40.4167C113.86 40.45 112.75 40.9167 112.25 42.0333C112.141 42.2833 112.547 42.5333 112.672 42.25Z" fill="#E8E8E8"/>
<path d="M182.062 67.2999C186.015 64.9499 190.687 66.1332 194.984 66.0332C197.125 65.9832 199.031 65.4665 201.062 64.7665C202.218 64.3665 203.359 64.0832 204.578 64.0832C205.781 64.0665 206.968 64.2332 208.172 64.2999C209.187 64.3499 210.218 64.3499 211.203 64.0832C211.687 63.9665 212.14 63.7499 212.609 63.6332C213.671 63.3832 214.171 64.2165 214.203 65.2499C214.265 67.7999 211.859 69.2165 209.812 69.5999C207.343 70.0499 204.781 69.7165 202.297 69.6332C199.937 69.5665 197.64 69.7999 195.312 70.2499C192.625 70.7665 189.922 71.4165 187.172 71.3499C185.875 71.3165 184.578 71.1332 183.344 70.6999C182.734 70.4832 182.094 70.2165 181.547 69.8332C180.969 69.4332 180.125 68.0499 181.312 67.7832C181.609 67.7165 181.484 67.2332 181.187 67.2999C180.516 67.4499 180.156 68.1832 180.281 68.8999C180.469 69.8999 181.516 70.4499 182.312 70.8165C184.594 71.8832 187.14 72.0165 189.594 71.7665C192.5 71.4832 195.312 70.6499 198.219 70.2999C201.218 69.9332 204.218 70.3332 207.234 70.3165C209.484 70.2999 212.125 70.0499 213.687 68.0832C214.281 67.3332 214.687 66.3832 214.703 65.3832C214.718 64.5832 214.484 63.5332 213.718 63.1999C212.734 62.7665 211.547 63.5665 210.578 63.7332C209.156 63.9665 207.687 63.7665 206.265 63.6665C205 63.5665 203.734 63.5499 202.484 63.8499C201.093 64.1832 199.781 64.7999 198.39 65.1499C192.953 66.5165 186.969 63.8499 181.859 66.8999C181.562 67.0332 181.797 67.4665 182.062 67.2999Z" fill="#E8E8E8"/>
<path d="M19.547 169.083C25.3439 167.317 31.2189 165.567 37.2501 165.034C40.2814 164.767 43.3439 164.817 46.3595 165.367C49.2502 165.9 51.9689 166.95 54.6252 168.233C57.5471 169.617 60.4064 171.167 63.4533 172.183C63.7346 172.283 63.8596 171.8 63.5783 171.7C57.9221 169.8 52.9064 166.2 47.047 165C41.2345 163.8 35.2658 164.5 29.5314 165.8C26.1251 166.584 22.7657 167.583 19.422 168.6C19.1407 168.683 19.2657 169.167 19.547 169.083Z" fill="#E8E8E8"/>
<path d="M55.4846 167.867C60.0002 167.283 64.4846 166.85 69.0158 167.417C73.4846 167.983 77.8439 169.35 81.9064 171.417C82.172 171.55 82.422 171.117 82.1408 170.983C78.1721 168.967 73.9377 167.6 69.5783 167C64.8596 166.333 60.1877 166.767 55.4846 167.367C55.1877 167.4 55.1877 167.9 55.4846 167.867Z" fill="#E8E8E8"/>
<path d="M75.3905 171.267C77.6405 171.967 79.8748 172.7 82.1248 173.35C84.0623 173.9 86.0779 174.25 88.0311 173.533C88.3123 173.433 88.1873 172.95 87.9061 173.05C85.8592 173.817 83.7342 173.317 81.703 172.7C79.6405 172.083 77.578 171.417 75.5155 170.783C75.2342 170.7 75.1092 171.183 75.3905 171.267Z" fill="#E8E8E8"/>
<path d="M56.3281 172.367C61.2188 172.617 65.8125 175.933 70.7813 174.733C71.0781 174.667 70.9531 174.183 70.6563 174.25C65.7656 175.433 61.1563 172.117 56.3281 171.867C56.0312 171.85 56.0312 172.35 56.3281 172.367Z" fill="#E8E8E8"/>
<path d="M12.5469 173.433C16.1876 172.333 19.8282 171.233 23.4688 170.133C23.7657 170.05 23.6407 169.567 23.3438 169.65C19.7032 170.75 16.0626 171.85 12.4219 172.95C12.1251 173.033 12.2501 173.517 12.5469 173.433Z" fill="#E8E8E8"/>
<path d="M22.1251 172.483C25.4532 171.533 28.8282 170.733 32.2188 170.1C32.5157 170.05 32.3907 169.567 32.0938 169.617C28.7032 170.267 25.3282 171.05 22.0001 172C21.7032 172.1 21.8282 172.567 22.1251 172.483Z" fill="#E8E8E8"/>
<path d="M93 158.3C105.094 158.3 117.187 158.3 129.297 158.3C130.203 158.3 130.203 156.8 129.297 156.8C117.203 156.8 105.109 156.8 93 156.8C92.0938 156.8 92.0938 158.3 93 158.3Z" fill="#161616"/>
<path d="M133.922 158.583C136.406 158.583 138.891 158.583 141.391 158.583C142.297 158.583 142.297 157.083 141.391 157.083C138.906 157.083 136.422 157.083 133.922 157.083C133.016 157.083 133.016 158.583 133.922 158.583Z" fill="#161616"/>
<path d="M146.266 158.3C147.375 158.3 148.5 158.3 149.609 158.3C150.515 158.3 150.515 156.8 149.609 156.8C148.5 156.8 147.375 156.8 146.266 156.8C145.359 156.8 145.359 158.3 146.266 158.3Z" fill="#161616"/>
<path d="M144.469 170.65C155.75 170.65 167.047 170.65 178.328 170.65C181.532 170.65 184.75 170.65 187.953 170.65C188.86 170.65 188.86 169.15 187.953 169.15C176.672 169.15 165.375 169.15 154.094 169.15C150.89 169.15 147.672 169.15 144.469 169.15C143.562 169.15 143.562 170.65 144.469 170.65Z" fill="#161616"/>
<path d="M191.562 170.383C193.969 170.383 196.359 170.383 198.766 170.383C199.672 170.383 199.672 168.883 198.766 168.883C196.359 168.883 193.969 168.883 191.562 168.883C190.656 168.883 190.656 170.383 191.562 170.383Z" fill="#161616"/>
<path d="M42.828 29.1166C43.6093 29.5666 44.3281 30.1166 44.9843 30.7666C45.2031 30.9833 45.5312 30.6333 45.3124 30.4166C44.6406 29.7333 43.8905 29.1666 43.0624 28.6999C42.7968 28.5332 42.5624 28.9666 42.828 29.1166Z" fill="#161616"/>
<path d="M45.9843 27.9331C45.6874 27.2164 45.3906 26.5164 45.0937 25.7997C44.9687 25.4997 44.5624 25.7664 44.6874 26.0497C44.9843 26.7664 45.2812 27.4664 45.5781 28.1831C45.7031 28.4831 46.1093 28.2331 45.9843 27.9331Z" fill="#161616"/>
<path d="M47.9999 26.7832C47.7186 25.8999 47.6249 25.0165 47.7499 24.0832C47.7811 23.7665 47.3124 23.7665 47.2811 24.0832C47.1718 25.0499 47.2499 25.9999 47.5624 26.9165C47.6405 27.2165 48.0936 27.0832 47.9999 26.7832Z" fill="#161616"/>
<path d="M101.515 36.3665C102.094 36.6498 102.734 36.6665 103.312 36.3165C104.109 35.8331 104.14 35.0165 104.328 34.1498C104.39 33.8331 104.484 33.4498 104.719 33.2331C105.203 32.7831 105.375 33.0998 105.765 33.2165C106.015 33.2831 106.25 33.2998 106.484 33.1831C106.937 32.9665 108.062 30.6831 108.578 31.4331C108.765 31.6831 109.172 31.4331 108.984 31.1831C108.609 30.6665 108.078 30.7165 107.593 31.0665C107.265 31.2998 107.109 31.6331 106.906 31.9665C106.797 32.1665 106.656 32.4331 106.484 32.5831C106 32.9665 105.812 32.6331 105.39 32.5498C104.734 32.4165 104.234 32.8831 104 33.5165C103.797 34.0331 103.844 34.6165 103.656 35.1498C103.344 35.9665 102.5 36.3331 101.75 35.9498C101.469 35.7998 101.234 36.2331 101.515 36.3665Z" fill="#161616"/>
<path d="M103.859 37.9666C104.375 38.3666 104.969 38.1 105.359 37.6333C106.047 36.7666 105.562 35.3 106.64 34.75C107.437 34.3333 108.359 34.5166 109.125 33.9333C109.797 33.4166 110.156 32.6166 110.219 31.75C110.234 31.4333 109.765 31.4333 109.75 31.75C109.687 32.7666 109.062 33.6 108.14 33.8833C107.547 34.0666 106.89 34.0333 106.344 34.3333C105.89 34.5833 105.625 35.0166 105.5 35.5333C105.406 35.8833 105.39 36.2666 105.312 36.6166C105.187 37.1166 104.719 38.0166 104.109 37.5333C103.859 37.35 103.625 37.7833 103.859 37.9666Z" fill="#161616"/>
<path d="M105.688 139.484C107.188 140.85 108.719 142.217 110.281 143.584C111.781 144.9 113.281 146.2 114.766 147.45C115.437 149.65 115.141 150.967 114.719 151.75C113.984 153.134 112.797 153.15 110.844 155.15C109.844 156.167 108.687 157.367 108.906 158.067C109.172 158.917 111.516 159.317 119.844 157.817C121.562 154.017 123.281 150.217 125 146.417C121.234 142.25 117.453 138.067 113.687 133.9C111.016 135.767 108.359 137.634 105.688 139.484Z" fill="#191919"/>
<path d="M88.7813 100.067C87.0782 104.45 88.8438 109.317 91.625 116.933C92.7813 120.1 93.9844 122.483 94.6094 123.7C95.8438 126.117 96.5625 127.167 101.609 134.75C105.625 140.783 106.016 141.4 107.188 141.8C111.219 143.183 117.75 139.65 117.813 135.033C117.859 131.8 114.703 129.467 114.188 129.083C112.266 126.2 111.063 123.567 110.297 121.617C108.969 118.2 107.547 114.567 107.828 110C108.078 106.067 109.313 105.833 109.25 102.4C109.234 101.867 109.047 95.45 105.359 92.8667C100.547 89.5167 91.25 93.7334 88.7813 100.067Z" fill="white" stroke="#191919" stroke-width="2" stroke-miterlimit="10"/>
<path d="M109.047 100.817C109.297 101.55 109.094 102.933 108.687 105.683C108.234 108.75 107.906 108.933 107.75 110.55C107.484 113.25 108.125 115.267 109.344 119.117C109.672 120.133 110.359 121.75 111.734 124.983C112.687 127.217 113.156 128.217 114.203 129.15C115.047 129.9 115.391 129.867 116.078 130.617C117.062 131.7 117.719 133.317 117.75 134.783C117.812 138.1 114.766 140.767 112.109 141.65C109.766 142.433 107.687 141.833 106.75 141.5C104.906 139.167 102.359 135.8 99.5781 131.533C95.9687 126 93.9531 122.933 92.4062 118.633C90.5312 113.433 87.5469 105.15 91.3906 100.4C95.9375 94.8166 107.734 97.0499 109.047 100.817Z" fill="#12335E"/>
<path d="M98.7657 108C100.688 109.617 100.391 112.4 100.797 116.5C101.266 121.217 102.453 125.617 103.625 128.4C106.984 136.4 113.563 139.167 112.609 141.15C112.078 142.25 109.516 142.517 107.688 141.917C107.016 141.7 106.5 141.383 106.172 141.15C103.281 137.15 101.047 133.733 99.5157 131.333C91.6407 119.033 90.8126 115.017 91.4844 111.717C91.6719 110.8 92.1563 108.383 94.0157 107.4C95.5001 106.583 97.5 106.933 98.7657 108Z" fill="#12335E"/>
<path opacity="0.7" d="M103.813 107.817C102.719 110.317 101.516 112.017 100.656 113.1C98.5156 115.767 96.875 116.5 95.7031 119.033C94.8906 120.817 94.75 122.517 94.7344 123.583C94.25 122.767 93.7656 121.883 93.2969 120.95C92.25 118.833 91.4688 116.833 90.8906 115.017C95.2031 112.617 99.5 110.217 103.813 107.817Z" fill="#12335E"/>
<path d="M75.4373 138.067C76.9373 139.433 78.4685 140.8 80.031 142.167C81.5311 143.483 83.0311 144.783 84.5155 146.033C84.0155 146.633 83.2342 147.55 82.2811 148.65C80.5154 150.666 80.0467 151.083 79.4998 152.066C79.2342 152.55 77.7654 155.233 78.5467 156.283C79.5779 157.666 84.3123 155.75 87.4061 153.666C89.2967 152.383 92.328 149.85 94.7655 145.017C90.9999 140.85 87.2186 136.667 83.4529 132.5C80.7654 134.35 78.0935 136.217 75.4373 138.067Z" fill="#191919"/>
<path d="M89.4374 98.35C86.9374 100 84.9217 101.633 78.0311 108.35C66.8593 119.217 65.7968 121.1 65.4687 123.683C64.9218 127.967 66.5781 132.65 69.6093 135.617C70.3593 136.35 73.4062 139.317 77.6093 138.917C81.1249 138.583 85.8124 135.867 85.6093 132.117C85.4843 129.667 83.2968 127.383 80.3593 126.3C86.3905 120.433 91.9061 116.767 95.9842 114.45C101.094 111.55 104.344 110.533 105.812 106.883C107.625 102.367 106.015 95.6167 102.265 93.7C98.9842 92.0333 95.1405 94.5833 89.4374 98.35Z" fill="#12335E" stroke="#191919" stroke-width="2" stroke-miterlimit="10"/>
<path opacity="0.7" d="M97.1717 96.5C97.1717 99.5833 96.7029 103.717 94.4529 107.583C89.2967 116.383 79.828 115.85 77.4218 123.783C77.1406 124.733 76.1249 129.117 78.1562 131.55C79.2812 132.883 81.0312 133.267 81.5155 135.067C81.7968 136.1 81.5155 137.1 81.2343 137.8C83.4061 137.283 85.078 135.5 85.4374 133.317C85.9999 129.867 82.8905 127.633 82.6561 127.467C81.6718 126.783 80.703 126.567 80.0937 126.483C86.8905 119.633 92.9998 115.75 97.531 113.433C100.656 111.833 104.437 110.233 105.922 106.3C107.172 102.967 106.234 99.4167 105.281 97.05C102.578 96.85 99.8748 96.6833 97.1717 96.5Z" fill="#12335E"/>
<path opacity="0.7" d="M100.234 100.833C100.5 102.383 100.687 104.717 99.8124 107.133C98.3436 111.183 94.8436 112.767 91.0623 115.483C88.3279 117.433 84.5779 120.617 80.6716 125.733C81.8279 124.733 83.4373 123.383 85.406 121.85C89.0936 118.983 91.1404 117.4 94.1248 115.7C98.5624 113.2 100.781 111.95 100.906 111.883C101.406 111.65 102.469 111.167 103.547 110.1C103.859 109.783 104.766 108.85 105.484 107.217C105.75 106.6 107.937 101.75 106.047 100C104.891 98.9 102.437 99.25 100.234 100.833Z" fill="#12335E"/>
<path d="M92.5625 54.9167C94.4219 54.5167 97.25 54.1334 100.656 54.5C103.609 54.8167 109.031 55.3833 113.266 59.7333C114.391 60.9 116.391 63 117.109 66.3833C118 70.5833 116.422 74.1834 115.781 75.45C113.188 80.5834 109.125 80.5667 107.281 85.3667C107.109 85.8167 106.609 87.1834 105.422 88.4834C104.125 89.8834 102.313 90.85 101.969 90.4667C101.813 90.2834 101.891 89.7667 102.891 88.2C102.641 88.3667 101.609 89.0667 100.375 88.7667C98.6719 88.3667 97.5313 86.3334 97.8594 84.95C97.9375 84.6 98.1563 84.0667 100.781 82.4C101.984 81.6334 102.594 81.25 103.703 80.7C106.563 79.2834 111.75 74.45 111 69.9334C110.563 67.3334 108.25 65.3833 106.359 64.55C102.594 62.9167 100.141 65.5834 97.2031 64.2667C95.4844 63.4834 93.4844 61.3 92.5625 54.9167Z" fill="white" stroke="#191919" stroke-width="2" stroke-miterlimit="10"/>
<path opacity="0.29" d="M94.0938 57.6335C95.5782 57.6335 97.7969 57.7669 100.406 58.3669C103.969 59.2002 107.125 60.2669 110.063 63.1002C112.531 65.4835 112.985 68.8668 113.125 69.9168C113.25 70.8835 113.703 74.2002 112.016 77.2502C110.938 79.1835 109.86 79.4835 106.531 82.4335C104.844 83.9335 104.219 85.4835 102.156 86.7335C100.094 87.9835 99.2813 87.6168 99.0313 87.4668C97.9063 86.8335 97.8594 84.9835 97.8438 84.7335C98.2188 84.3501 98.8126 83.7835 99.5782 83.1835C102.109 81.1835 103.25 81.2835 105.406 79.8501C106.25 79.2835 108.797 77.5335 110.203 74.3002C110.61 73.3668 111.156 72.0335 110.969 70.3002C110.766 68.4668 109.844 67.2502 109.516 66.8168C107.547 64.2835 104.5 63.9169 103.891 63.8502C100.656 63.5335 99.2813 65.3335 97.0782 64.1502C96.1094 63.6335 95.5469 62.8335 95.2657 62.4502C93.9063 60.4835 94.0313 58.2669 94.0938 57.6335Z" fill="#6C6D6D"/>
<path opacity="0.24" d="M96.047 63.1169C96.1251 62.1502 99.7032 61.6502 102.156 61.6336C104.609 61.6169 107.375 61.6002 109.594 63.7002C110.875 64.9002 111.375 66.2502 111.469 66.5169C112.875 70.3835 110.375 74.1668 110.078 74.5835C110.406 74.0501 111.469 72.1835 111.047 69.8502C110.625 67.4335 108.906 66.1169 108.063 65.4835C107.563 65.1002 105.891 63.8669 103.547 63.7836C100.875 63.7002 99.7032 65.2002 97.5782 64.3836C97.4845 64.3336 96.0001 63.7502 96.047 63.1169Z" fill="#6C6D6D"/>
<path d="M51.3437 43.3333C50.7968 42.3667 50.1406 40.9667 49.6562 39.1833C48.2187 33.7833 49.5312 28.35 50.1249 28.3667C50.3593 28.3667 50.6562 29.2167 50.9531 32.7667C51.2812 31.55 51.4531 30.55 51.5624 29.8333C51.6718 29.0833 51.7343 28.4667 52.1406 27.8333C52.4531 27.3333 52.8593 27.0167 53.1562 26.8333C53.4218 26.5833 53.6874 26.3167 53.9531 26.0667C54.2343 26.3167 54.4687 26.5667 54.6718 26.8333C56.7968 29.6 55.6562 33.8333 55.3437 34.8833C55.7031 34.6333 56.1562 34.25 56.5624 33.6833C57.2968 32.6833 57.3281 31.8667 57.4999 31.8833C57.828 31.9167 58.2343 34.8333 57.2656 37.75C56.9687 38.65 56.6093 39.35 56.3281 39.8333C56.2656 41.5 56.2343 47.3 60.1093 52.6333C60.4687 53.1167 65.953 60.4667 73.3124 60.1C78.1093 59.8667 79.7499 56.65 82.9374 57.9667C85.4061 58.9833 87.203 62.05 87.2655 65.2333C87.3436 68.55 85.5311 71.6333 82.6717 73.0667C80.6249 73.25 77.6249 73.3167 74.0936 72.7167C70.078 72.0333 61.7187 70.6 56.9531 63.6833C54.8593 60.6333 53.8906 57.15 53.4999 55.35C53.4374 55.05 53.3906 54.8333 53.3124 54.4333C52.8281 52.0167 52.1718 48.4333 51.3437 43.3333Z" fill="white" stroke="#191919" stroke-width="2" stroke-miterlimit="10"/>
<path d="M53.031 28.1168C53.3279 28.1168 53.3279 27.6167 53.031 27.6167C52.7341 27.6167 52.7341 28.1168 53.031 28.1168Z" fill="#161616"/>
<path d="M53.0779 26.8999C52.6247 28.7999 52.3748 30.7166 52.3591 32.6667C52.3591 32.9 52.7029 32.9 52.7185 32.6667C52.7341 30.75 52.9685 28.8499 53.4216 26.9999C53.4685 26.7666 53.1247 26.6666 53.0779 26.8999Z" fill="#161616"/>
<path d="M54.4531 26.9002C54.1094 28.7168 53.9063 30.5502 53.8906 32.4002C53.8906 32.6335 54.2344 32.6335 54.25 32.4002C54.2813 30.5835 54.4531 28.7835 54.7969 27.0002C54.8282 26.7502 54.5 26.6502 54.4531 26.9002Z" fill="#161616"/>
<path opacity="0.24" d="M49.687 29.9333C49.9995 29.95 49.8276 33.2833 50.5151 37.5333C51.3276 42.5833 53.0464 46.15 54.0308 48.7834C55.7807 53.4834 59.187 62.6 66.9682 66.65C74.9057 70.8 83.4526 67.5667 86.1088 66.4333C86.1869 66.95 86.2963 68.3 85.6557 69.7667C85.062 71.1334 84.1401 71.9 83.7182 72.1833C82.9838 72.5 81.8901 72.9 80.5151 73.1167C78.3745 73.45 76.687 73.1334 75.2338 72.8334C70.312 71.8 67.8432 71.3 65.5464 70.2C63.1557 69.0667 60.0932 67.6 57.5308 64.35C55.0308 61.2 54.2651 57.9667 52.9214 52.2333C52.0776 48.65 51.6714 45.6167 51.4526 43.4667C50.562 41.8833 49.4214 39.3667 49.1089 36.1167C48.7964 32.95 49.3901 29.9333 49.687 29.9333Z" fill="#6C6D6D"/>
<path opacity="0.4" d="M52.0469 27.9333C52.2344 27.75 52.4219 27.5666 52.625 27.3833C51.6718 31.3166 51.1562 33.2833 51.0781 33.2666C51 33.2333 51.3125 31.4666 52.0469 27.9333Z" fill="#6C6D6D"/>
<path opacity="0.44" d="M66.3906 70.6167C68.3594 71.1834 71.1563 71.7334 74.5156 71.5334C79.9219 71.2167 83.9844 69.1334 86.1406 67.8C86.0781 68.3334 85.8594 69.7667 84.7813 71.0834C83.5469 72.6001 82 72.9667 81.5156 73.0501C80.0156 73.1001 78.3906 73.0667 76.6563 72.9167C72.6094 72.5501 69.1406 71.6167 66.3906 70.6167Z" fill="#6C6D6D"/>
<path d="M90.1562 77.7332C94.8594 74.9665 102.391 70.9498 112.109 67.6165C127.188 62.4499 135.766 62.9665 150.531 59.6332C158.703 57.7999 170.594 54.3666 184.703 47.3999C184.734 49.1999 184.812 51.0499 184.953 52.9832C185.25 57.2332 185.797 61.1499 186.453 64.6999C185.047 67.2665 183.625 69.8498 182.219 72.4165C182.641 76.8498 183.047 81.2831 183.469 85.7165C175.016 85.9165 166.359 86.2498 157.516 86.7831C135.734 88.0831 115.078 90.2998 95.6406 93.1665C93.8125 88.0331 91.9844 82.8831 90.1562 77.7332Z" fill="#AF4545"/>
<g opacity="0.28">
<g opacity="0.28">
<path opacity="0.28" d="M108.203 71.0665C120.234 67.3499 132.688 65.3499 145.203 65.0999C145.5 65.0999 145.5 64.5999 145.203 64.5999C132.641 64.8499 120.141 66.8665 108.078 70.5832C107.781 70.6665 107.906 71.1499 108.203 71.0665Z" fill="#681225"/>
</g>
</g>
<g opacity="0.28">
<g opacity="0.28">
<path opacity="0.28" d="M141.016 67.8999C152.031 64.9333 163.969 67.7332 174.562 62.75C174.844 62.6167 174.594 62.1833 174.328 62.3167C163.781 67.2832 151.844 64.4666 140.891 67.4166C140.594 67.4999 140.719 67.9832 141.016 67.8999Z" fill="#681225"/>
</g>
</g>
<g opacity="0.28">
<g opacity="0.28">
<path opacity="0.28" d="M163.266 71.1665C168.641 69.8998 174.187 69.6498 179.656 70.4665C179.953 70.5165 180.078 70.0332 179.781 69.9832C174.234 69.1498 168.609 69.3832 163.141 70.6832C162.844 70.7498 162.969 71.2332 163.266 71.1665Z" fill="#681225"/>
</g>
</g>
<path d="M81.9687 57.7C82.7344 58.2167 84.0156 59.2167 85 60.9333C86.3906 63.35 87.4688 67.6834 85.2656 70.6667C84.0781 72.2667 82.375 72.9167 81.2031 73.1667C82.0156 75.9334 82.7813 78.9667 83.3906 82.2334C84.8438 89.9001 85.1563 96.8168 84.9844 102.567C88.2969 103.183 92.8125 103.65 98.1406 103.1C102.922 102.6 106.891 101.433 109.859 100.317C109.109 86.2001 106 75.7167 103.469 69.0667C102.75 67.1834 97.3281 53.1667 92.5781 53.8333C91.2031 54.0167 90.4688 55.35 87.25 56.5667C85.1094 57.3667 83.2187 57.6167 81.9687 57.7Z" fill="#D6E5F2" stroke="#191919" stroke-width="2" stroke-miterlimit="10"/>
<path opacity="0.36" d="M89 56.1168C90.5313 57.9668 92.6719 60.8502 94.5781 64.7668C99.5156 74.8668 99.3125 84.3668 99.0781 87.9668C98.6719 94.1669 97.0781 99.3502 95.4063 103.217C97.6563 103 100.109 102.65 102.734 102.117C105.281 101.6 107.625 100.984 109.734 100.334C109.594 97.7835 109.281 93.8335 108.563 89.0669C106.859 77.7668 104.047 70.0502 101.359 64.4168C96.9063 55.1335 93.7188 53.5502 92.6563 53.9502C92.4844 54.0168 91.7031 54.3835 90.8281 54.9002C90.0469 55.3502 89.4375 55.7835 89 56.1168Z" fill="#D6E5F2"/>
<path opacity="0.49" d="M99.5312 61.3835C100.172 66.7669 100.875 71.1669 101.406 74.2002C103.281 84.9502 104.797 89.2169 103.312 95.1502C102.5 98.4169 101.094 100.884 100.047 102.45C101.297 102.367 102.719 102.2 104.25 101.867C106.422 101.4 108.281 100.717 109.781 100.034C109.469 89.6502 107.484 77.4169 101.578 65.2835C100.922 63.9335 100.234 62.6335 99.5312 61.3835Z" fill="#D6E5F2"/>
<path d="M82.2969 78.2334C82.0469 80.85 81.9375 83.85 82.0937 87.15C82.3437 92.25 83.1719 96.6166 84.0781 100.1C85.8437 100.017 88.4687 99.95 91.6406 100.1C98.4531 100.417 101.844 101.433 104.984 101.8C114.453 102.933 117.328 97.75 127.891 96.0667C132.516 95.3333 139.562 95.1167 148.797 98.4C155.375 102.217 161.937 106.05 168.516 109.867C169.125 108.517 170.734 105.45 174.094 103.283C178.844 100.2 183.687 101.117 184.844 101.367C183.906 98.7666 182.422 93.55 183.656 87.35C184.094 85.1667 184.766 83.3167 185.453 81.8334C181.609 80.1167 176.188 77.95 169.516 76.1C157.937 72.8667 148.937 72.3334 139.844 71.8501C122.516 70.9167 109.516 72.6334 105.984 73.1167C96.3906 74.4834 88.3437 76.4667 82.2969 78.2334Z" fill="#EC615B"/>
<path opacity="0.25" d="M128.235 85.6665C128.235 85.7165 141.313 87.6332 154.375 89.7499C159.516 90.5832 164.797 91.4832 170.906 94.8332C174.859 96.9998 177.797 99.4498 179.75 101.283C180.437 101.067 181.437 100.833 182.656 100.917C183.406 100.967 184.047 101.1 184.562 101.267C184.062 99.7498 183.562 97.8665 183.25 95.6499C182.953 93.5665 182.906 91.7165 182.953 90.1832C139.281 86.4999 128.235 85.6165 128.235 85.6665Z" fill="#681225"/>
<path opacity="0.28" d="M82.1562 84.9666C83.2031 86.7499 84.3438 87.7165 85.1562 88.2499C87.8906 90.0665 90.375 89.3832 97.125 90.2832C98.4531 90.4665 99.5312 90.6499 100.203 90.7665C94.375 91.3832 88.5312 91.9999 82.7031 92.5999C82.5625 91.4999 82.4375 90.3332 82.3438 89.1165C82.2344 87.6666 82.1719 86.2666 82.1562 84.9666Z" fill="#681225"/>
<g opacity="0.28">
<g opacity="0.28">
<path opacity="0.28" d="M102.703 91C107.344 91.3834 112.016 90.9667 116.531 89.75C116.828 89.6667 116.703 89.1834 116.406 89.2667C111.922 90.4667 107.312 90.8834 102.703 90.5C102.406 90.4667 102.406 90.9667 102.703 91Z" fill="#681225"/>
</g>
</g>
<g opacity="0.28">
<g opacity="0.28">
<path opacity="0.28" d="M120.906 89.8498C126.109 89.4665 131.328 89.7165 136.484 90.5998C136.781 90.6498 136.906 90.1665 136.609 90.1165C131.422 89.2165 126.156 88.9665 120.906 89.3498C120.594 89.3832 120.594 89.8832 120.906 89.8498Z" fill="#681225"/>
</g>
</g>
<g opacity="0.28">
<g opacity="0.28">
<path opacity="0.28" d="M115.64 82.8834C125.64 81.0335 135.922 81.3668 145.797 83.8667C146.094 83.9334 146.219 83.4667 145.922 83.3834C135.969 80.8668 125.594 80.5502 115.515 82.4001C115.219 82.4501 115.344 82.9334 115.64 82.8834Z" fill="#681225"/>
</g>
</g>
<g opacity="0.28">
<g opacity="0.28">
<path opacity="0.28" d="M157.219 106.083C160.781 107.75 163.984 110.167 166.625 113.2C166.828 113.433 167.156 113.083 166.953 112.85C164.281 109.783 161.047 107.333 157.453 105.65C157.172 105.517 156.937 105.95 157.219 106.083Z" fill="#681225"/>
</g>
</g>
<path d="M88.8906 41.7668C90.0469 45.8335 90.4688 48.1835 92.1094 51.9002C92.875 53.6335 93.6094 55.0168 94.125 55.9168C92.4531 56.7502 89.7344 57.8169 86.25 57.9502C84.1875 58.0335 82.4219 57.7502 81.0625 57.4335C81.2031 56.3168 81.2813 54.9335 81.1719 53.3502C81.0313 51.3668 80.6406 49.7002 80.25 48.4668C78.3906 48.2168 76.5312 47.9668 74.6719 47.7168C74.3125 46.8668 73.9375 46.0168 73.5781 45.1502C73.0625 45.1335 72.5625 45.1168 72.0469 45.1002C72.4375 43.9335 73.0156 42.0835 73.6875 39.8002C74.9375 35.5002 74.9219 34.8835 75.5937 33.9168C77.4531 31.2668 81.6562 29.5835 84.3906 31.0002C86.0469 31.8502 87.0156 35.1668 88.8906 41.7668Z" fill="white" stroke="#161616" stroke-width="2" stroke-miterlimit="10"/>
<path d="M72.1094 45.3669C73.0625 45.3836 74.0157 45.3169 74.9532 45.1669C75.2501 45.1169 75.1251 44.6336 74.8282 44.6836C73.9219 44.8336 73.0157 44.8836 72.1094 44.8669C71.8125 44.8669 71.8125 45.3669 72.1094 45.3669Z" fill="#161616"/>
<path d="M71.7187 37.6501C72.2812 37.3334 73.0156 37.4834 73.4062 38.0501C73.5781 38.3001 73.9843 38.0501 73.8125 37.8001C73.2812 37.0167 72.2968 36.7667 71.4843 37.2167C71.2187 37.3667 71.453 37.8001 71.7187 37.6501Z" fill="#161616"/>
<path d="M72.3594 40.0834C72.3125 39.9001 72.3125 39.7168 72.3594 39.5334C72.3907 39.4501 72.4219 39.3501 72.4688 39.2834C72.5001 39.2334 72.5313 39.2001 72.5626 39.1668C72.5313 39.1668 72.5157 39.1834 72.5157 39.2334C72.5157 39.5834 72.375 39.8834 72.125 40.1168C72.2656 40.1834 72.3907 40.2334 72.5313 40.3001C72.5313 39.9834 72.5938 39.6834 72.7345 39.4001C72.8752 39.1168 72.4688 38.8668 72.3282 39.1501C72.1562 39.5168 72.0625 39.9001 72.0625 40.3167C72.0625 40.5501 72.3125 40.6334 72.4688 40.5001C72.7189 40.2668 72.9064 39.9501 72.9689 39.6001C73.0158 39.3001 73.0471 38.8501 72.7345 38.7168C72.4376 38.6001 72.1562 38.8834 72.0312 39.1334C71.8593 39.4834 71.8281 39.8668 71.9218 40.2501C71.9687 40.5334 72.4219 40.4001 72.3594 40.0834Z" fill="#161616"/>
<path d="M76.266 38.3667C76.9847 38.1334 77.7503 38.3834 78.1878 39.0501C78.3597 39.3168 78.7659 39.0668 78.594 38.8001C78.0472 37.9667 77.0628 37.5834 76.141 37.8834C75.8597 37.9667 75.9847 38.4501 76.266 38.3667Z" fill="#161616"/>
<path d="M76.3595 40.6668C76.3439 40.4335 76.3752 40.2001 76.5002 40.0001C76.5314 39.9501 76.5627 39.9001 76.6095 39.8501C76.5939 39.7835 76.5939 39.7835 76.5939 39.8501C76.5783 39.9501 76.5783 40.0668 76.5627 40.1835C76.547 40.2835 76.5158 40.4001 76.4689 40.5001C76.4533 40.5501 76.4377 40.5835 76.4064 40.6168C76.4533 40.7335 76.4845 40.7335 76.5158 40.6168C76.5939 40.5335 76.6408 40.3501 76.6877 40.2501C76.7502 40.1335 76.797 40.0168 76.8595 39.8835C76.9845 39.6335 76.6877 39.3835 76.4845 39.5835C76.3595 39.7168 76.2814 39.8501 76.2345 40.0335C76.1564 40.3501 76.5939 40.4668 76.6877 40.1668C76.7189 40.0668 76.7502 40.0168 76.8283 39.9335C76.7033 39.8335 76.5783 39.7335 76.4533 39.6335C76.3127 39.9168 76.1564 40.2001 76.047 40.5001C75.9689 40.7001 75.9845 40.9335 76.172 41.0501C76.6408 41.3835 76.9533 40.6835 77.0314 40.3001C77.1095 39.9335 77.1252 39.1335 76.547 39.3001C76.0783 39.4501 75.8908 40.2001 75.922 40.6501C75.9064 40.9835 76.3752 40.9835 76.3595 40.6668Z" fill="#161616"/>
<path d="M74.9375 34.9829C75.0625 34.0996 75.3906 32.6663 76.3125 31.1829C76.6406 30.6663 77.3125 29.5496 78.4218 28.7996C80.5156 27.3663 83.7343 27.4829 86.078 29.2329C88.3593 30.9496 89.4999 34.0329 89.0155 37.0829C84.3124 36.3829 79.625 35.6829 74.9375 34.9829Z" fill="#12335E"/>
<path d="M67.2656 34.8834C74.4843 35.8334 81.703 36.7834 88.9217 37.7334C89.8124 37.85 89.8124 36.35 88.9217 36.2334C81.703 35.2834 74.4843 34.3334 67.2656 33.3834C66.3594 33.2668 66.375 34.7667 67.2656 34.8834Z" fill="#161616"/>
<path d="M84.3125 36.8835C83.0312 37.3668 82.2968 38.2835 81.4375 39.3835C79.625 41.6835 80.1562 42.5335 78.8906 43.9668C76.8593 46.2501 74.7968 44.9001 72.9843 47.1335C71.4531 49.0335 71.6406 51.6001 71.7031 52.1668C71.7656 52.7335 72.0312 55.0168 73.8281 56.5835C75.375 57.9335 77.4687 58.2501 77.6093 57.9501C77.6562 57.8335 77.4843 57.5668 76.3281 56.7668C76.6718 57.0168 77.1875 57.3168 77.875 57.4501C78.6562 57.6001 79.4062 57.4501 79.4218 57.3335C79.4218 57.2501 79 57.2501 78.6718 56.8835C78.4843 56.6668 78.3906 56.4168 78.3593 56.2001C78.9843 56.6335 79.7812 57.0001 80.5468 56.7668C82.6093 56.1168 82.9843 51.3335 83.0937 49.7501C83.4843 44.6168 82.0781 41.8168 83.7812 40.0168C83.9218 39.8668 84.625 39.1335 85.375 39.2835C86.3437 39.4668 87.0781 41.0335 86.75 42.0668C86.4843 42.9501 85.5156 43.2001 85.5781 43.3668C85.6718 43.5835 87.2968 43.2501 88.6562 42.1168C89.1562 41.7001 89.5625 41.3668 89.7656 40.7501C90.1406 39.6835 89.7031 38.4668 89.125 37.7501C87.9531 36.2501 85.7031 36.3501 84.3125 36.8835Z" fill="#161616" stroke="#161616" stroke-width="2" stroke-miterlimit="10"/>
<path opacity="0.22" d="M86.2344 43.5C85.9219 43.5334 85.4844 43.55 85.4687 43.4334C85.4531 43.3834 85.5625 43.3 85.5625 43.3C85.5625 43.3 85.1875 43.7834 84.7344 43.85C84.5156 43.8834 84.3281 43.8 84.2031 43.7334C85.0156 45.5334 85.8438 47.7 86.5469 50.1833C87.3281 52.9167 87.7656 55.4166 88.0156 57.55C88.8594 57.55 90.0312 57.45 91.3594 57.0166C92.4531 56.65 93.3281 56.1666 93.9688 55.75C92.2188 52.9 91.3437 50.6167 90.8594 49.0667C90.625 48.3333 90.1406 46.6167 89.8906 45.7834C89.4375 44.25 89.0937 42.9834 88.8437 42.1167C88.7187 42.2334 88.5156 42.4167 88.2656 42.6C87.9062 42.8667 87.1875 43.3834 86.2344 43.5Z" fill="#6D6C6C"/>
<path d="M81.0469 27.9001C82.9219 28.2834 84.3281 29.8501 84.5468 31.7001C84.7968 33.9001 83.25 35.4001 83.1094 35.5334C85.1093 35.7834 87.0937 36.0501 89.0937 36.3001C89.1249 35.8167 89.1405 35.1501 89.0155 34.3834C88.6406 31.9167 87.2499 30.4001 86.9531 30.0834C86.4999 29.5834 84.8437 27.9667 82.4062 27.8167C81.8437 27.8001 81.375 27.8501 81.0469 27.9001Z" fill="#12335E"/>
</svg>
