<svg width="190" height="170" viewBox="0 0 190 170" fill="none" xmlns="http://www.w3.org/2000/svg">
<path d="M112.027 23.8834C108.506 25.8167 107.499 29.15 107.083 30.5234C106.982 30.8567 105.803 34.95 107.844 39.2167C108.448 40.4834 109.095 41.79 110.561 42.4167C111.409 42.79 112.171 42.7634 115.161 42.5234C116.556 42.4167 118.065 42.2834 119.675 42.1234C120.811 40.7767 122.766 38.0834 123.341 34.2967C123.441 33.59 124.62 25.1634 119.675 22.9234C116.441 21.4434 112.545 23.59 112.027 23.8834Z" fill="#8E8E8E"/>
<path d="M46.995 43.7633C48.7892 43.7633 50.2437 42.271 50.2437 40.43C50.2437 38.5891 48.7892 37.0967 46.995 37.0967C45.2007 37.0967 43.7462 38.5891 43.7462 40.43C43.7462 42.271 45.2007 43.7633 46.995 43.7633Z" fill="#898989"/>
<path d="M120.667 97.1767C122.001 97.1767 123.082 96.2096 123.082 95.0167C123.082 93.8237 122.001 92.8567 120.667 92.8567C119.333 92.8567 118.252 93.8237 118.252 95.0167C118.252 96.2096 119.333 97.1767 120.667 97.1767Z" fill="#898989"/>
<path d="M47.0237 84.1368C48.0161 84.1368 48.8206 83.3906 48.8206 82.4701C48.8206 81.5497 48.0161 80.8035 47.0237 80.8035C46.0313 80.8035 45.2268 81.5497 45.2268 82.4701C45.2268 83.3906 46.0313 84.1368 47.0237 84.1368Z" fill="#898989"/>
<path d="M43.6743 42.6568C45.2542 42.6568 46.535 41.4092 46.535 39.8702C46.535 38.3311 45.2542 37.0835 43.6743 37.0835C42.0945 37.0835 40.8137 38.3311 40.8137 39.8702C40.8137 41.4092 42.0945 42.6568 43.6743 42.6568Z" fill="#262626"/>
<path d="M120.006 93.7635C120.982 93.7635 121.774 92.9994 121.774 92.0568C121.774 91.1142 120.982 90.3501 120.006 90.3501C119.029 90.3501 118.237 91.1142 118.237 92.0568C118.237 92.9994 119.029 93.7635 120.006 93.7635Z" fill="#262626"/>
<path d="M143.638 46.6967C144.71 46.6967 145.579 45.8371 145.579 44.7767C145.579 43.7163 144.71 42.8567 143.638 42.8567C142.566 42.8567 141.698 43.7163 141.698 44.7767C141.698 45.8371 142.566 46.6967 143.638 46.6967Z" fill="#262626"/>
<path d="M101.491 58.5633C101.174 58.0966 100.657 58.5366 100.441 58.8566C99.9957 59.5233 99.7082 60.35 100.039 61.11C100.283 61.6833 100.887 62.1633 101.591 62.07C102.238 61.99 102.727 61.4966 102.713 60.8966C102.713 60.7366 102.468 60.6166 102.339 60.75C101.577 61.6433 100.643 62.91 101.404 64.0566C101.936 64.8433 103.244 64.95 103.762 64.0966C103.633 64.0833 103.503 64.07 103.374 64.0433C103.446 64.4166 103.518 64.79 103.575 65.1633C103.618 65.4166 104.035 65.31 103.992 65.0566C103.92 64.6833 103.848 64.31 103.791 63.9366C103.762 63.7633 103.474 63.75 103.403 63.8833C103.173 64.2566 102.655 64.39 102.238 64.2033C101.778 63.99 101.577 63.51 101.577 63.0433C101.577 62.27 102.166 61.59 102.655 61.0166C102.526 60.9633 102.411 60.9233 102.281 60.87C102.296 61.3766 101.764 61.75 101.232 61.6433C100.829 61.5633 100.571 61.2433 100.427 60.8966C100.283 60.5366 100.298 60.1766 100.413 59.8166C100.427 59.79 101.016 58.6033 101.103 58.7366C101.261 58.9766 101.634 58.7766 101.491 58.5633Z" fill="#3A3A3A"/>
<path d="M42.7974 59.7634C43.1137 58.9634 44.163 59.31 44.4937 59.87C44.6087 60.0567 44.6662 60.27 44.6949 60.4834C44.7524 60.8834 44.7093 61.0434 44.3355 61.2834C43.933 61.6567 43.8324 61.51 44.048 60.8434C44.1487 60.8034 44.2637 60.7634 44.3643 60.7234C44.6374 60.6567 44.9537 60.67 45.2268 60.75C45.9168 60.9634 46.2618 61.6434 46.1612 62.2701C46.1324 62.4301 46.3049 62.5901 46.4774 62.4967C47.4118 62.0034 48.6481 62.5501 48.8637 63.5234C48.9212 63.7767 49.3381 63.6701 49.2806 63.4167C49.0074 62.1901 47.4405 61.55 46.2618 62.1634C46.3624 62.2434 46.4774 62.3101 46.578 62.3901C46.7649 61.2167 45.8018 60.1234 44.4649 60.31C44.0049 60.3767 43.3149 60.6434 43.2574 61.15C43.2143 61.5634 43.6312 61.8701 44.048 61.9101C45.2843 62.0167 45.2555 60.35 44.853 59.6834C44.3068 58.7767 42.7974 58.55 42.3662 59.67C42.2799 59.8967 42.6968 60.0034 42.7974 59.7634Z" fill="#3A3A3A"/>
<path d="M118.482 109.95C119.589 110.63 120.523 111.497 121.271 112.51C121.429 112.723 121.803 112.523 121.644 112.31C120.854 111.243 119.876 110.337 118.712 109.617C118.468 109.457 118.252 109.803 118.482 109.95Z" fill="#3A3A3A"/>
<path d="M121.285 110.683C121.515 110.937 121.731 111.203 121.961 111.457C122.133 111.657 122.435 111.377 122.262 111.177C122.032 110.923 121.817 110.657 121.587 110.403C121.414 110.203 121.112 110.497 121.285 110.683Z" fill="#3A3A3A"/>
<path d="M119.962 106.95C120.954 107.803 121.774 108.777 122.406 109.883C122.536 110.11 122.909 109.91 122.78 109.683C122.133 108.55 121.285 107.537 120.264 106.67C120.063 106.483 119.761 106.777 119.962 106.95Z" fill="#3A3A3A"/>
<path d="M20.5738 121.963C20.89 124.857 21.4363 127.71 22.1981 130.537C22.27 130.79 22.6869 130.683 22.615 130.43C21.8675 127.643 21.3213 124.817 21.005 121.963C20.9763 121.71 20.545 121.71 20.5738 121.963Z" fill="#E8E8E8"/>
<path d="M22.2844 130.67C25.1163 131.35 28.0632 131.35 30.895 130.67C31.1682 130.603 31.0532 130.217 30.78 130.283C28.02 130.95 25.1594 130.95 22.3994 130.283C22.1407 130.217 22.0257 130.603 22.2844 130.67Z" fill="#E8E8E8"/>
<path d="M31.2257 130.27C31.4125 127.43 31.6569 124.59 31.9444 121.75C31.9732 121.496 31.5419 121.496 31.5132 121.75C31.2257 124.59 30.9813 127.43 30.7944 130.27C30.78 130.523 31.2113 130.523 31.2257 130.27Z" fill="#E8E8E8"/>
<path d="M20.818 122.177C24.3974 122.857 28.0774 122.83 31.6568 122.083C31.9299 122.03 31.8149 121.643 31.5418 121.697C28.0487 122.417 24.4405 122.457 20.933 121.79C20.6599 121.737 20.5449 122.123 20.818 122.177Z" fill="#E8E8E8"/>
<path d="M20.775 123.137C20.89 123.683 21.6375 123.657 22.0975 123.697C23.2618 123.79 24.4406 123.817 25.605 123.79C26.7262 123.763 27.8475 123.683 28.9687 123.563C29.86 123.457 30.7225 123.35 31.5131 122.937C31.7574 122.817 31.5418 122.47 31.2975 122.59C29.8743 123.323 27.905 123.297 26.3093 123.363C25.5187 123.39 24.7137 123.403 23.9231 123.39C23.5062 123.377 21.2781 123.47 21.1918 123.03C21.1343 122.777 20.7318 122.883 20.775 123.137Z" fill="#E8E8E8"/>
<path d="M21.5943 127.763C22.2843 128.897 23.1612 129.897 24.2106 130.763C24.4118 130.937 24.7281 130.657 24.5125 130.483C23.4775 129.643 22.6293 128.67 21.9681 127.563C21.8387 127.337 21.465 127.537 21.5943 127.763Z" fill="#E8E8E8"/>
<path d="M21.0338 124.683C22.5 126.977 24.2825 129.083 26.3238 130.977C26.525 131.163 26.8269 130.87 26.6257 130.697C24.6132 128.83 22.8594 126.75 21.4075 124.483C21.2638 124.27 20.89 124.47 21.0338 124.683Z" fill="#E8E8E8"/>
<path d="M23.4344 123.723C24.9582 126.243 26.7263 128.63 28.7244 130.857C28.8969 131.057 29.1988 130.777 29.0263 130.577C27.0569 128.377 25.3032 126.017 23.8082 123.523C23.6788 123.297 23.305 123.497 23.4344 123.723Z" fill="#E8E8E8"/>
<path d="M26.1801 123.817C27.6607 125.87 29.1557 127.91 30.665 129.95C30.8232 130.163 31.1969 129.963 31.0388 129.75C29.5294 127.71 28.0344 125.67 26.5538 123.617C26.3957 123.403 26.0219 123.603 26.1801 123.817Z" fill="#E8E8E8"/>
<path d="M28.48 123.697C29.2275 124.817 30.0325 125.91 30.8662 126.977C31.0243 127.177 31.3981 126.977 31.24 126.777C30.4062 125.71 29.6012 124.617 28.8537 123.497C28.71 123.283 28.3362 123.483 28.48 123.697Z" fill="#E8E8E8"/>
<path d="M16.0456 110.23C16.2181 111.15 16.3906 112.083 16.5775 113.003C16.635 113.257 16.6781 113.523 16.9081 113.683C17.0662 113.803 17.5837 113.79 17.6843 113.923C17.6987 113.843 17.7131 113.763 17.7131 113.683C17.4975 113.883 17.2818 114.083 17.0518 114.27C16.9943 114.323 16.98 114.403 16.9943 114.47C17.1237 114.83 17.21 115.363 17.4687 115.67C17.5981 115.83 17.8281 115.803 17.9287 115.897C18.015 115.977 17.9862 115.923 17.9431 116.163C17.9143 116.363 17.9143 116.577 17.9431 116.79C17.9862 117.11 18.0868 117.417 18.2162 117.71C18.9637 119.39 20.4156 120.75 21.81 122.003C22.0112 122.177 22.3131 121.897 22.1119 121.723C21.2206 120.923 20.3294 120.097 19.5962 119.163C18.8775 118.243 18.0294 117.003 18.475 115.83C18.5037 115.763 18.475 115.67 18.4175 115.63C18.1444 115.43 17.8712 115.51 17.6843 115.19C17.325 114.59 17.5262 114.39 17.9862 113.977C18.0581 113.923 18.0725 113.803 18.015 113.737C17.9 113.577 17.8137 113.523 17.6269 113.47C17.5119 113.43 17.3393 113.47 17.2243 113.417C16.98 113.297 16.98 113.003 16.9368 112.79C16.7643 111.91 16.5918 111.017 16.4337 110.137C16.405 109.87 15.9881 109.977 16.0456 110.23Z" fill="#E8E8E8"/>
<path d="M16.3618 110.177C21.968 111.91 25.8062 116.763 25.9212 122.257C25.9212 122.51 26.3524 122.51 26.3524 122.257C26.2374 116.59 22.2699 111.59 16.4768 109.79C16.218 109.71 16.103 110.097 16.3618 110.177Z" fill="#E8E8E8"/>
<path d="M24.9725 116.79C26.3669 113.203 28.4225 109.737 31.7144 107.377C31.93 107.217 31.7144 106.87 31.4988 107.03C28.1063 109.47 25.9931 112.99 24.5556 116.683C24.4694 116.923 24.8862 117.03 24.9725 116.79Z" fill="#E8E8E8"/>
<path d="M31.3406 107.297C31.4412 108.523 31.5562 109.75 31.6568 110.99C31.6856 111.243 32.1168 111.243 32.0881 110.99C31.9874 109.763 31.8724 108.537 31.7718 107.297C31.7574 107.043 31.3262 107.043 31.3406 107.297Z" fill="#E8E8E8"/>
<path d="M31.8438 110.857C31.6569 110.897 31.47 110.937 31.2975 110.99C31.0244 111.057 31.1394 111.443 31.4125 111.377C31.5994 111.337 31.7863 111.297 31.9588 111.243C32.2319 111.177 32.1169 110.803 31.8438 110.857Z" fill="#E8E8E8"/>
<path d="M31.0818 111.35C31.1393 111.603 31.3693 111.763 31.628 111.79C31.743 111.803 31.8437 111.697 31.8437 111.59C31.8437 111.47 31.743 111.403 31.628 111.39C31.6712 111.39 31.628 111.39 31.6137 111.39C31.5993 111.39 31.5705 111.377 31.5993 111.39C31.5849 111.377 31.5705 111.377 31.5562 111.363C31.5274 111.35 31.5849 111.39 31.5418 111.35C31.5274 111.337 31.5274 111.337 31.513 111.323C31.5418 111.35 31.513 111.323 31.513 111.31C31.4987 111.297 31.4987 111.27 31.4987 111.297C31.4987 111.283 31.4843 111.257 31.4843 111.243C31.4555 111.137 31.3262 111.07 31.2255 111.11C31.1105 111.137 31.053 111.243 31.0818 111.35Z" fill="#E8E8E8"/>
<path d="M31.4125 111.643C31.4268 112.403 31.3981 113.15 31.3118 113.897C31.2831 114.137 31.3262 114.697 31.1537 114.883C31.1393 114.897 30.8806 114.937 30.8231 114.977C30.6075 115.137 30.9093 115.417 31.125 115.257C31.1968 115.203 31.3693 115.257 31.4843 115.137C31.6568 114.977 31.6281 114.603 31.6568 114.417C31.7862 113.497 31.8437 112.563 31.8293 111.63C31.8437 111.39 31.4125 111.39 31.4125 111.643Z" fill="#E8E8E8"/>
<path d="M30.6506 115.323C31.1106 115.83 30.9813 116.67 30.9381 117.283C30.8806 117.99 30.7513 118.643 30.3775 119.257C29.8456 120.163 29.0981 120.923 28.71 121.91C28.6094 122.15 29.0263 122.257 29.1269 122.017C29.6444 120.723 30.8375 119.763 31.1969 118.403C31.4556 117.43 31.7 115.87 30.9525 115.043C30.78 114.857 30.4781 115.137 30.6506 115.323Z" fill="#E8E8E8"/>
<path d="M27.2581 122.097C27.6606 118.31 28.7387 114.617 30.4637 111.177C30.5787 110.95 30.2049 110.737 30.0899 110.977C28.3362 114.497 27.2293 118.243 26.8268 122.11C26.7981 122.363 27.2293 122.35 27.2581 122.097Z" fill="#E8E8E8"/>
<path d="M18.7768 112.403C21.2925 115.337 23.1325 118.71 24.2106 122.31C24.2825 122.563 24.6994 122.457 24.6275 122.203C23.5206 118.523 21.6375 115.11 19.0787 112.123C18.9062 111.923 18.6043 112.203 18.7768 112.403Z" fill="#E8E8E8"/>
<path d="M19.05 117.323C20.2575 117.257 21.3787 117.523 22.3994 118.11C22.6294 118.243 22.8594 117.897 22.615 117.763C21.5369 117.15 20.315 116.857 19.05 116.923C18.7625 116.937 18.7625 117.337 19.05 117.323Z" fill="#E8E8E8"/>
<path d="M21.6806 115.537C21.5944 114.803 21.695 114.097 21.9969 113.403C22.0975 113.163 21.6806 113.057 21.58 113.297C21.2637 114.017 21.1631 114.763 21.2494 115.537C21.2781 115.79 21.7094 115.79 21.6806 115.537Z" fill="#E8E8E8"/>
<path d="M26.3382 113.323C26.8126 114.403 27.5026 115.55 27.6751 116.697C27.7182 116.95 28.1351 116.843 28.0919 116.59C27.9051 115.43 27.2151 114.283 26.7551 113.217C26.6544 112.977 26.2376 113.083 26.3382 113.323Z" fill="#E8E8E8"/>
<path d="M28.9831 114.59C29.4 114.15 29.8025 113.63 30.3344 113.297C30.78 113.017 31.2687 112.83 31.6137 112.443C31.7862 112.243 31.4844 111.963 31.3119 112.163C30.9381 112.577 30.3919 112.75 29.9462 113.07C29.4575 113.417 29.0837 113.883 28.6812 114.31C28.4944 114.51 28.7962 114.79 28.9831 114.59Z" fill="#E8E8E8"/>
<path d="M29.1269 121.963C29.8169 121.79 30.5213 121.723 31.24 121.763C31.5131 121.777 31.5131 121.377 31.24 121.363C30.4781 121.323 29.745 121.39 29.0119 121.577C28.7532 121.643 28.8538 122.03 29.1269 121.963Z" fill="#E8E8E8"/>
<path d="M29.0693 122.123C29.8743 122.19 30.6506 122.097 31.4269 121.87C31.6856 121.79 31.5706 121.403 31.3119 121.483C30.5787 121.697 29.8312 121.777 29.0693 121.723C28.7962 121.71 28.7962 122.11 29.0693 122.123Z" fill="#E8E8E8"/>
<path d="M21.005 122.057C21.1919 122.057 21.3644 122.057 21.5513 122.057C21.8244 122.057 21.8244 121.657 21.5513 121.657C21.3644 121.657 21.1919 121.657 21.005 121.657C20.7319 121.657 20.7319 122.057 21.005 122.057Z" fill="#E8E8E8"/>
<path d="M31.5419 125.283C36.0988 125.283 40.67 125.283 45.2269 125.283C45.5 125.283 45.5 124.883 45.2269 124.883C40.67 124.883 36.0988 124.883 31.5419 124.883C31.2688 124.883 31.2688 125.283 31.5419 125.283Z" fill="#E8E8E8"/>
<path d="M108.678 122.643C111.395 122.643 114.098 122.643 116.814 122.643C117.088 122.643 117.088 122.243 116.814 122.243C114.098 122.243 111.395 122.243 108.678 122.243C108.405 122.243 108.405 122.643 108.678 122.643Z" fill="#E8E8E8"/>
<path d="M133.346 122.883C145.061 122.883 156.777 122.883 168.492 122.883C171.827 122.883 175.162 122.883 178.498 122.883C178.771 122.883 178.771 122.483 178.498 122.483C166.782 122.483 155.066 122.483 143.351 122.483C140.016 122.483 136.681 122.483 133.346 122.483C133.072 122.483 133.072 122.883 133.346 122.883Z" fill="#E8E8E8"/>
<path d="M115.995 79.11C114.902 81.2033 113.724 83.2567 112.473 85.27C112.416 85.3767 112.459 85.55 112.603 85.5633C118.769 86.43 124.289 89.27 129.608 92.1367C129.852 92.27 130.068 91.9233 129.824 91.79C124.462 88.91 118.913 86.0567 112.703 85.1767C112.746 85.27 112.789 85.3767 112.833 85.47C114.098 83.4567 115.262 81.4033 116.354 79.31C116.484 79.0833 116.124 78.87 115.995 79.11Z" fill="#E8E8E8"/>
<path d="M116.944 86.3767C117.375 85.23 117.806 84.07 118.237 82.9233C118.424 82.4433 118.554 81.91 118.798 81.4433C118.856 81.1633 119.042 80.95 119.33 80.79C119.502 80.83 119.675 80.87 119.847 80.91C120.106 80.9767 120.365 81.03 120.609 81.0967C121.199 81.23 122.147 81.23 122.047 81.9633C121.975 82.4833 121.644 83.0433 121.457 83.55C121.026 84.6833 120.609 85.8167 120.178 86.95C120.092 87.19 120.509 87.2967 120.595 87.0567C121.156 85.5633 121.716 84.0567 122.277 82.5633C122.406 82.2167 122.766 81.63 122.478 81.2567C122.162 80.8567 121.213 80.83 120.724 80.71C120.25 80.6033 119.416 80.2033 118.927 80.4167C118.511 80.59 118.424 81.2567 118.295 81.59C117.706 83.15 117.116 84.7233 116.527 86.2833C116.441 86.51 116.857 86.6167 116.944 86.3767Z" fill="#E8E8E8"/>
<path d="M122.493 87.8033C123.413 86.0033 124.347 84.19 125.267 82.39C125.727 81.4833 126.187 80.59 126.661 79.6833C126.877 79.27 127.049 78.7766 127.323 78.39C127.553 78.0566 127.61 77.9766 128.013 78.1233C128.228 78.2033 128.487 78.4033 128.674 78.5233C128.918 78.6833 129.306 78.8566 129.479 79.07C129.694 79.3233 129.608 79.59 129.479 79.91C129.306 80.3366 129.048 80.75 128.832 81.1633C128.358 82.07 127.883 82.9766 127.38 83.8833C126.431 85.6033 125.439 87.31 124.419 89.0033C124.275 89.23 124.649 89.43 124.793 89.2033C126.043 87.15 127.236 85.07 128.358 82.9633C128.918 81.9233 129.536 80.8566 130.011 79.7766C130.341 78.99 129.623 78.67 128.99 78.2566C128.487 77.9366 127.696 77.2033 127.15 77.8033C126.805 78.1766 126.618 78.8033 126.388 79.2566C126.101 79.8033 125.828 80.35 125.54 80.91C124.39 83.15 123.24 85.39 122.104 87.63C122.004 87.83 122.378 88.0433 122.493 87.8033Z" fill="#E8E8E8"/>
<path d="M127.265 90.5767C128.501 88.7767 129.896 87.07 131.434 85.4967C131.347 85.51 131.261 85.5233 131.175 85.5233C131.721 85.87 132.253 86.2033 132.799 86.55C132.771 86.4567 132.742 86.3633 132.727 86.27C131.506 88.0433 130.284 89.8033 129.062 91.5767C128.918 91.79 129.277 91.99 129.436 91.7767C130.657 90.0033 131.879 88.2433 133.101 86.47C133.173 86.3767 133.116 86.2567 133.029 86.19C132.483 85.8433 131.951 85.51 131.405 85.1634C131.333 85.11 131.204 85.1367 131.146 85.19C129.579 86.8033 128.156 88.5233 126.906 90.35C126.747 90.6033 127.121 90.8033 127.265 90.5767Z" fill="#E8E8E8"/>
<path d="M144.414 77.8966C142.977 77.3899 142.071 76.0566 142.33 74.6299C142.589 73.1766 144.127 71.8832 145.708 72.7499C146.801 73.3499 147.361 74.7099 146.944 75.8166C146.513 77.0032 145.104 77.7099 143.796 77.5232C143.523 77.4832 143.408 77.8699 143.681 77.9099C145.219 78.1232 146.844 77.3366 147.361 75.9232C147.879 74.5099 147.045 72.8032 145.55 72.2299C143.796 71.5632 142.201 72.9632 141.899 74.5232C141.582 76.1766 142.632 77.6966 144.285 78.2832C144.558 78.3766 144.673 77.9899 144.414 77.8966Z" fill="#E8E8E8"/>
<path d="M147.361 77.6432C144.501 77.5632 145.579 73.3098 148.109 73.4698C150.639 73.6432 149.604 78.4298 146.829 77.5498C146.571 77.4698 146.456 77.8565 146.714 77.9365C149.92 78.9498 151.357 73.5365 148.296 73.0832C146.801 72.8565 145.449 74.1632 145.219 75.4565C144.989 76.7365 145.924 77.9898 147.361 78.0298C147.634 78.0565 147.634 77.6565 147.361 77.6432Z" fill="#E8E8E8"/>
<path d="M145.219 65.5767C144.975 65.3367 144.86 64.95 145.047 64.6567C145.234 64.3767 145.694 64.2433 145.981 64.4567C146.24 64.6433 146.297 65.0433 146.053 65.2433C145.766 65.4833 145.306 65.3633 145.032 65.1633C144.817 65.0033 144.515 65.2833 144.731 65.4433C145.176 65.7633 145.866 65.9233 146.341 65.5367C146.772 65.1767 146.729 64.51 146.297 64.1633C145.852 63.8033 145.147 63.91 144.774 64.31C144.357 64.7633 144.472 65.4433 144.903 65.8567C145.104 66.0433 145.406 65.7633 145.219 65.5767Z" fill="#E8E8E8"/>
<path d="M103.503 75.6167C103.101 73.35 104.524 70.6167 107.284 70.6433C108.693 70.6567 110.058 71.19 111.481 71.0033C112.488 70.87 113.35 70.3367 113.954 69.6033C114.558 68.87 114.903 67.95 114.96 67.03C115.032 65.67 114.471 64.2833 114.874 62.9367C115.075 62.2567 115.506 61.63 116.239 61.3767C116.944 61.15 117.706 61.2833 118.439 61.2567C119.503 61.2167 120.336 60.79 120.868 59.9233C121.616 58.71 121.443 57.2567 121.961 55.9767C122.579 54.43 124.318 53.11 126.158 53.87C126.403 53.9767 126.633 53.63 126.374 53.5233C123.873 52.4833 121.788 54.5767 121.299 56.6833C120.983 58.0567 121.041 60.19 119.273 60.7367C118.036 61.1233 116.642 60.5233 115.506 61.31C114.572 61.95 114.299 63.1233 114.313 64.15C114.356 65.6567 114.859 67.1233 114.141 68.5633C113.479 69.9233 112.171 70.7367 110.547 70.6433C109.109 70.5633 107.686 70.0167 106.234 70.3633C103.776 70.9367 102.727 73.63 103.115 75.7367C103.144 75.9633 103.561 75.8567 103.503 75.6167Z" fill="#E8E8E8"/>
<path d="M121.673 66.11C121.141 64.99 121.874 63.9233 123.039 63.5633C123.887 63.2966 124.821 63.2833 125.554 62.75C126.129 62.3366 126.316 61.8166 126.244 61.15C126.173 60.5233 126.173 60.03 126.704 59.6033C127.15 59.2433 127.739 59.11 128.314 59.0833C129.896 59.03 132.066 59.7766 133.216 58.35C133.748 57.6833 133.59 56.8566 133.834 56.11C134.165 55.07 135.243 54.43 136.393 54.4833C136.666 54.4966 136.666 54.0966 136.393 54.0833C135.516 54.0433 134.668 54.35 134.064 54.9366C133.317 55.67 133.418 56.4966 133.188 57.4166C132.569 59.9366 128.789 58.1633 127.006 58.95C126.345 59.2433 125.813 59.7633 125.756 60.4566C125.684 61.27 126.086 61.9366 125.195 62.4966C124.721 62.79 124.174 62.8833 123.628 63.0033C122.723 63.2033 121.831 63.4566 121.371 64.27C120.998 64.91 120.998 65.6433 121.314 66.2966C121.414 66.55 121.774 66.3366 121.673 66.11Z" fill="#E8E8E8"/>
<path d="M147.289 48.3498C147.232 48.2298 147.174 48.0965 147.131 47.9632C147.318 47.7632 147.491 47.5632 147.677 47.3632C147.735 47.3498 147.994 47.5098 148.08 47.5098C148.296 47.5365 148.482 47.4832 148.655 47.3632C149.187 46.9765 149 46.3632 149.158 45.8432C149.417 44.9498 150.552 45.5632 151.07 44.8965C151.587 44.2432 151.401 42.8565 152.781 43.2298C153.054 43.2965 153.169 42.9098 152.896 42.8432C152.105 42.6298 151.386 42.9765 151.099 43.6832C151.012 43.8832 150.984 44.1098 150.897 44.3098C150.711 44.7765 150.509 44.8432 149.963 44.8698C149.561 44.8965 149.244 44.8698 148.971 45.1898C148.741 45.4698 148.741 45.8298 148.698 46.1632C148.655 46.6565 148.698 47.0698 147.907 47.0165C147.749 47.0032 147.62 46.8698 147.448 46.8698C146.499 46.8565 146.657 47.9365 146.887 48.4565C146.973 48.6965 147.404 48.5898 147.289 48.3498Z" fill="#E8E8E8"/>
<path d="M149.992 49.4566C149.762 49.1766 149.374 48.3633 150.049 48.1499C150.294 48.0699 150.61 48.1633 150.869 48.1633C151.099 48.1633 151.3 48.1633 151.487 48.0166C152.062 47.5899 151.645 46.8299 151.947 46.2966C152.436 45.4299 153.413 46.1099 154.103 45.6566C154.592 45.3366 154.721 44.7233 154.808 44.2166C154.851 43.9633 154.434 43.8566 154.391 44.1099C154.29 44.7099 154.175 45.3766 153.37 45.4433C152.953 45.4833 152.637 45.3499 152.249 45.5233C151.616 45.8033 151.415 46.3233 151.401 46.9233C151.386 47.4299 151.516 47.6833 150.596 47.7233C150.481 47.7233 150.366 47.6966 150.251 47.6966C149.92 47.7233 149.633 47.8833 149.446 48.1366C149.043 48.6699 149.273 49.2833 149.676 49.7499C149.863 49.9499 150.164 49.6566 149.992 49.4566Z" fill="#E8E8E8"/>
<path d="M27.7757 56.6833C28.9688 55.3499 30.6651 54.2566 32.6201 54.4433C34.7476 54.6433 35.7969 56.2166 35.9982 58.0566C36.3432 61.1099 35.5382 64.7633 37.7663 67.3633C38.6432 68.3899 39.9513 68.9366 41.3601 68.6166C43.0563 68.2433 44.3788 67.0033 45.8882 66.2699C47.6707 65.4033 50.1288 64.9366 51.7388 66.3899C52.9176 67.4566 53.1763 69.0833 53.5644 70.4966C53.9238 71.7766 54.5419 73.1899 55.7782 73.9499C56.5257 74.4033 57.3451 74.4433 58.2076 74.3899C59.1707 74.3233 61.1401 74.2699 60.9388 75.6699C60.9101 75.9233 61.3413 75.9233 61.3701 75.6699C61.442 75.1233 61.1688 74.6833 60.6945 74.3633C59.947 73.8566 59.0845 73.9366 58.2076 73.9899C57.2157 74.0566 56.3676 73.9766 55.6057 73.3233C54.9157 72.7366 54.4988 71.9099 54.1969 71.0966C53.6938 69.6966 53.5501 68.1633 52.6876 66.8833C51.8394 65.6166 50.3732 65.0033 48.7919 65.0566C46.7938 65.1233 45.1119 66.1899 43.5163 67.1766C42.7544 67.6433 41.9351 68.1366 41.0007 68.2833C39.8794 68.4566 38.8876 68.0033 38.1688 67.2299C36.8176 65.7633 36.6019 63.6699 36.5301 61.8299C36.4582 60.1099 36.7026 58.2433 36.0844 56.5766C35.5238 55.0566 34.1007 54.1099 32.3901 54.0299C30.4063 53.9366 28.6669 55.0433 27.445 56.4033C27.2869 56.6033 27.5888 56.8833 27.7757 56.6833Z" fill="#E8E8E8"/>
<path d="M20.5162 77.2567C22.7587 80.7234 24.7568 84.3101 26.525 88.0034C26.64 88.2434 27.0137 88.0301 26.8987 87.8034C25.1306 84.1101 23.1181 80.5234 20.89 77.0567C20.7462 76.8301 20.3725 77.0301 20.5162 77.2567Z" fill="#E8E8E8"/>
<path d="M20.7893 77.0966C24.2824 75.0832 27.8762 73.2032 31.5706 71.4965C31.8149 71.3765 31.5993 71.0299 31.3549 71.1499C27.6749 72.8565 24.0812 74.7365 20.5737 76.7499C20.3293 76.8965 20.5449 77.2432 20.7893 77.0966Z" fill="#E8E8E8"/>
<path d="M31.3119 71.3232C33.1375 74.8832 35.0638 78.3899 37.1051 81.8432C37.2344 82.0699 37.6082 81.8699 37.4788 81.6432C35.4376 78.1899 33.4969 74.6832 31.6857 71.1232C31.5563 70.8832 31.1969 71.0832 31.3119 71.3232Z" fill="#E8E8E8"/>
<path d="M27.0138 88.0833C30.4494 86.1633 33.8419 84.1899 37.2056 82.1633C37.4356 82.0299 37.22 81.6833 36.99 81.8166C33.6263 83.8433 30.2338 85.8166 26.7982 87.7366C26.5682 87.8699 26.7838 88.2166 27.0138 88.0833Z" fill="#E8E8E8"/>
<path d="M26.7406 75.9234C26.6544 78.4834 26.8125 81.0301 27.215 83.5634C27.2581 83.8168 27.675 83.7101 27.6319 83.4567C27.2294 80.9634 27.0856 78.4434 27.1719 75.9234C27.1862 75.6701 26.755 75.6701 26.7406 75.9234Z" fill="#E8E8E8"/>
<path d="M26.755 75.7899C28.7531 77.2433 30.7512 78.6699 32.7781 80.0833C32.9937 80.2433 33.2093 79.8966 32.9937 79.7366C30.9956 78.3499 29.0118 76.9366 27.0568 75.5099C26.8412 75.3499 26.5393 75.6299 26.755 75.7899Z" fill="#E8E8E8"/>
<path d="M27.6605 83.6433C29.3137 82.27 31.4699 81.5366 33.0368 80.0566C33.2381 79.87 32.9218 79.59 32.7349 79.7766C31.168 81.2433 29.0262 81.99 27.3587 83.3633C27.143 83.5233 27.4593 83.8033 27.6605 83.6433Z" fill="#E8E8E8"/>
<path d="M21.0912 79.3499C21.5512 79.1366 22.0112 78.9366 22.4712 78.7232C22.7156 78.6166 22.4999 78.2699 22.2556 78.3766C21.7956 78.5899 21.3356 78.7899 20.8756 79.0033C20.6312 79.1233 20.8468 79.4566 21.0912 79.3499Z" fill="#E8E8E8"/>
<path d="M22.5719 81.6167C22.96 81.3767 23.3769 81.1767 23.8081 81.0034C24.0669 80.9101 23.9519 80.5234 23.6931 80.6167C23.2188 80.8034 22.7731 81.0167 22.3419 81.2701C22.1263 81.4167 22.3419 81.7634 22.5719 81.6167Z" fill="#E8E8E8"/>
<path d="M24.1963 84.23C24.5988 84.0433 25.0013 83.8567 25.4038 83.6833C25.6482 83.5633 25.4325 83.23 25.1882 83.3367C24.7857 83.5233 24.3832 83.71 23.9807 83.8833C23.7363 83.99 23.9519 84.3367 24.1963 84.23Z" fill="#E8E8E8"/>
<path d="M25.03 86.8432C25.4756 86.4832 25.9356 86.1765 26.4531 85.9099C26.6975 85.7765 26.4819 85.4432 26.2375 85.5632C25.7056 85.8432 25.2025 86.1765 24.7281 86.5632C24.5125 86.7365 24.8144 87.0165 25.03 86.8432Z" fill="#E8E8E8"/>
<path d="M32.1312 73.9499C32.4618 73.7366 32.8068 73.5899 33.195 73.4966C33.4681 73.4299 33.3531 73.0566 33.08 73.1099C32.6631 73.2033 32.2606 73.3633 31.9012 73.6033C31.6856 73.7499 31.9012 74.0966 32.1312 73.9499Z" fill="#E8E8E8"/>
<path d="M33.4106 76.23C33.8706 75.9634 34.3306 75.6967 34.7763 75.4167C35.0063 75.2834 34.7906 74.9367 34.5606 75.07C34.1006 75.3367 33.6406 75.6034 33.195 75.8834C32.9506 76.03 33.1663 76.3767 33.4106 76.23Z" fill="#E8E8E8"/>
<path d="M34.8769 78.9634C35.3656 78.7634 35.8687 78.5634 36.3575 78.3634C36.6162 78.2567 36.3862 77.9101 36.1418 78.0167C35.6531 78.2167 35.15 78.4167 34.6612 78.6167C34.4025 78.7234 34.6325 79.0701 34.8769 78.9634Z" fill="#E8E8E8"/>
<path d="M35.9262 80.75C36.3143 80.4033 36.7456 80.11 37.22 79.8567C37.4643 79.7367 37.2487 79.39 37.0043 79.51C36.5012 79.7767 36.0412 80.0833 35.6244 80.4567C35.4231 80.6433 35.725 80.9233 35.9262 80.75Z" fill="#E8E8E8"/>
<path d="M28.2356 86.3232C28.595 86.8165 28.8968 87.3365 29.1268 87.8832C29.2275 88.1232 29.6443 88.0165 29.5437 87.7765C29.2993 87.1898 28.9975 86.6298 28.6093 86.1099C28.4512 85.9099 28.0775 86.1099 28.2356 86.3232Z" fill="#E8E8E8"/>
<path d="M30.4349 85.2167C30.708 85.67 30.9668 86.11 31.2399 86.5634C31.3693 86.7901 31.743 86.5901 31.6137 86.3634C31.3405 85.91 31.0818 85.47 30.8087 85.0167C30.6793 84.79 30.3055 84.99 30.4349 85.2167Z" fill="#E8E8E8"/>
<path d="M32.9793 83.5233C33.2668 84.0033 33.5543 84.4833 33.8418 84.9633C33.9712 85.19 34.345 84.99 34.2156 84.7633C33.9281 84.2833 33.6406 83.8033 33.3531 83.3233C33.2237 83.0967 32.85 83.2967 32.9793 83.5233Z" fill="#E8E8E8"/>
<path d="M35.265 82.2567C35.495 82.7634 35.725 83.2701 35.9694 83.7634C36.0844 84.0034 36.4437 83.7901 36.3431 83.5634C36.1131 83.0567 35.8831 82.5501 35.6387 82.0567C35.5237 81.8301 35.15 82.0301 35.265 82.2567Z" fill="#E8E8E8"/>
<path d="M22.2268 75.0434C22.4999 75.4567 22.7587 75.8701 23.0318 76.2701C23.1755 76.4967 23.5493 76.2834 23.4055 76.0701C23.1324 75.6567 22.8737 75.2434 22.6005 74.8434C22.4568 74.6301 22.083 74.8301 22.2268 75.0434Z" fill="#E8E8E8"/>
<path d="M24.6994 73.71C24.9581 74.2433 25.2169 74.7766 25.4756 75.31C25.5906 75.55 25.9644 75.3366 25.8494 75.11C25.5906 74.5766 25.3319 74.0433 25.0731 73.51C24.9437 73.2699 24.5844 73.47 24.6994 73.71Z" fill="#E8E8E8"/>
<path d="M26.9275 72.4299C27.3156 72.9099 27.6175 73.4299 27.8187 73.9899C27.905 74.2299 28.3219 74.1232 28.2356 73.8832C28.02 73.2832 27.7181 72.7232 27.3012 72.2299C27.1431 72.0299 26.7694 72.2165 26.9275 72.4299Z" fill="#E8E8E8"/>
<path d="M29.3281 71.4033C29.63 71.8299 29.9175 72.2433 30.2194 72.6699C30.3631 72.8833 30.7369 72.6833 30.5931 72.4699C30.2912 72.0433 30.0037 71.6299 29.7019 71.2033C29.5437 70.9899 29.17 71.1899 29.3281 71.4033Z" fill="#E8E8E8"/>
<path d="M51.6812 44.9633C50.2868 44.5633 50.2149 43.19 50.8762 42.1633C51.5231 41.1633 52.7737 40.8966 53.7512 41.7233C54.5562 42.4166 54.6281 43.6033 53.8806 44.3633C53.1331 45.1366 51.9112 45.1233 51.0487 44.5366C50.8331 44.3766 50.6174 44.7233 50.8331 44.8833C51.9256 45.63 53.5212 45.51 54.3406 44.4566C55.1887 43.39 54.8868 41.8966 53.6937 41.1766C50.8187 39.4566 48.3462 44.4166 51.5662 45.35C51.8393 45.43 51.9543 45.0433 51.6812 44.9633Z" fill="#E8E8E8"/>
<path d="M53.9956 45.3099C52.9175 45.6166 52.6587 44.4166 53.1331 43.7766C53.5212 43.2566 54.2831 42.9499 54.9731 43.1232C55.6344 43.2832 56.1087 43.9099 55.9362 44.5366C55.7206 45.3232 54.8294 45.6032 54.0387 45.4832C53.7656 45.4432 53.6506 45.8299 53.9237 45.8699C54.9875 46.0432 56.1375 45.6166 56.3675 44.5499C56.5687 43.6299 55.7925 42.7899 54.8294 42.6832C53.7656 42.5632 52.6012 43.2832 52.4575 44.2966C52.3281 45.1766 53.1906 45.9632 54.1394 45.6832C54.3837 45.6166 54.2687 45.2299 53.9956 45.3099Z" fill="#E8E8E8"/>
<path d="M44.8243 53.9898C44.4793 54.6432 44.9681 55.2965 45.6868 55.4698C46.2331 55.6032 46.8081 55.4832 47.3687 55.5098C47.9724 55.5365 48.5762 55.6698 49.1224 55.8965C50.3299 56.4032 51.1062 57.3232 51.1493 58.5632C51.1924 59.6032 50.8618 60.6832 51.3506 61.6699C52.3855 63.7499 55.2318 62.1632 56.698 63.5099C57.9199 64.6432 57.4168 66.7099 59.0555 67.5765C59.2999 67.7099 59.5155 67.3632 59.2712 67.2299C57.8049 66.4565 58.1499 64.4432 57.1149 63.3232C56.5687 62.7365 55.778 62.5765 54.973 62.5232C53.9955 62.4699 52.7306 62.6565 52.0118 61.8832C51.1781 60.9765 51.6237 59.6165 51.5806 58.5498C51.5518 57.7098 51.2499 56.9498 50.6174 56.3498C50.0568 55.8298 49.3237 55.4698 48.5618 55.2832C48.1737 55.1898 47.7712 55.1232 47.3687 55.1098C46.8512 55.0832 44.6087 55.3232 45.2124 54.1898C45.3274 53.9632 44.9537 53.7632 44.8243 53.9898Z" fill="#E8E8E8"/>
<path d="M11.2156 125.963C13.8175 125.963 16.405 125.963 19.0068 125.963C19.28 125.963 19.28 125.563 19.0068 125.563C16.405 125.563 13.8175 125.563 11.2156 125.563C10.9281 125.563 10.9281 125.963 11.2156 125.963Z" fill="#E8E8E8"/>
<path d="M15.4131 135.003C20.4156 135.003 25.4038 135.003 30.4063 135.003C30.6794 135.003 30.6794 134.603 30.4063 134.603C25.4038 134.603 20.4156 134.603 15.4131 134.603C15.1256 134.603 15.1256 135.003 15.4131 135.003Z" fill="#E8E8E8"/>
<path d="M29.8025 132.497C34.4457 132.497 39.1032 132.497 43.7463 132.497C44.0194 132.497 44.0194 132.097 43.7463 132.097C39.1032 132.097 34.4457 132.097 29.8025 132.097C29.515 132.097 29.515 132.497 29.8025 132.497Z" fill="#E8E8E8"/>
<path d="M107.126 131.803C109.469 131.27 111.826 131.217 114.212 131.563C115.219 131.71 116.239 131.857 117.26 131.777C118.252 131.697 119.215 131.417 120.178 131.177C121.271 130.897 122.363 130.683 123.513 130.763C124.692 130.843 125.827 131.15 126.977 131.39C127.969 131.603 128.976 131.75 129.996 131.737C131.074 131.71 132.138 131.537 133.187 131.39C136.062 130.963 138.765 131.23 141.611 131.67C141.884 131.71 141.999 131.323 141.726 131.283C139.426 130.937 137.112 130.577 134.769 130.79C132.325 131.017 130.054 131.577 127.581 131.11C125.511 130.723 123.542 130.123 121.414 130.497C120.279 130.697 119.201 131.07 118.065 131.27C116.8 131.497 115.578 131.363 114.313 131.177C111.855 130.83 109.426 130.857 106.996 131.417C106.752 131.483 106.867 131.87 107.126 131.803Z" fill="#E8E8E8"/>
<path d="M129.206 127.75C133.719 127.523 138.233 127.297 142.747 127.083C144.975 126.977 147.131 127.017 149.345 127.297C150.337 127.417 151.286 127.443 152.278 127.337C153.384 127.217 154.534 127.057 155.569 127.55C155.814 127.67 156.029 127.323 155.785 127.203C154.031 126.377 152.004 127.15 150.121 126.99C149 126.897 147.908 126.697 146.786 126.643C145.622 126.59 144.458 126.617 143.293 126.67C138.593 126.87 133.892 127.137 129.191 127.363C128.933 127.363 128.933 127.763 129.206 127.75Z" fill="#E8E8E8"/>
<path d="M40.8137 139.203C42.9412 139.39 45.083 139.577 47.2105 139.35C48.2024 139.243 49.1512 139.043 50.1143 138.777C51.3649 138.43 52.4862 138.337 53.7799 138.55C54.7718 138.71 55.7493 138.937 56.7412 139.017C57.7906 139.097 58.8399 139.043 59.8893 138.95C62.0887 138.75 64.2881 138.403 66.4731 138.857C66.7462 138.91 66.8612 138.523 66.5881 138.47C64.4893 138.043 62.3906 138.323 60.2774 138.523C59.2281 138.617 58.1787 138.71 57.1293 138.657C55.9362 138.603 54.7862 138.31 53.6218 138.137C52.6443 137.99 51.7099 137.99 50.7468 138.203C49.7118 138.443 48.7343 138.763 47.6705 138.91C45.3993 139.217 43.0849 139.003 40.8137 138.817C40.5262 138.777 40.5405 139.177 40.8137 139.203Z" fill="#E8E8E8"/>
<path d="M63.5549 31.6166C62.9943 31.2566 62.2324 30.6833 62.4624 29.9633C62.7068 29.2166 63.3106 29.5766 63.8712 29.4033C64.6187 29.1766 64.5756 28.3366 64.3599 27.79C64.1443 27.2566 63.6843 25.9633 64.8774 26.4033C65.1506 26.51 65.3518 26.6833 65.6681 26.59C65.9556 26.51 66.0993 26.27 66.1712 26.0166C66.2287 25.79 66.1856 25.55 66.1712 25.31C66.1424 25.15 66.1281 24.9766 66.1281 24.8166C66.0706 24.43 66.3293 24.27 66.8756 24.3366C66.8899 24.59 67.3212 24.59 67.3068 24.3366C67.2781 23.9633 66.9762 23.6966 66.5449 23.71C66.0418 23.7233 65.7687 24.1766 65.7112 24.6033C65.6681 24.8966 65.9268 25.5766 65.7831 25.8166C65.6106 25.9233 65.4381 26.0433 65.2512 26.15C65.1793 26.11 65.1074 26.0699 65.0356 26.0299C64.9062 25.9899 64.8056 25.91 64.6762 25.8833C64.2306 25.79 63.8712 26.0433 63.7131 26.4166C63.4399 27.0566 63.9287 27.59 64.0724 28.19C64.2593 29.0166 63.5837 28.9233 62.9943 29.0166C62.7356 29.0566 62.5199 29.1766 62.3474 29.35C61.4418 30.3233 62.4912 31.4033 63.3537 31.9633C63.5693 32.1099 63.7849 31.7633 63.5549 31.6166Z" fill="#E8E8E8"/>
<path d="M66.3869 31.2432C65.9126 30.7365 65.5532 30.0432 66.4732 29.7765C66.7032 29.7098 66.9619 29.7365 67.1775 29.6032C67.6519 29.2965 67.4507 28.8832 67.3644 28.4565C67.3213 28.2165 67.2207 27.8965 67.3788 27.6565C67.4938 27.4832 67.9107 27.4165 68.1263 27.3765C68.4282 27.3098 68.7444 27.2698 69.0032 27.1098C69.3913 26.8565 69.535 26.4032 69.2763 26.0165C69.1325 25.8032 68.7588 26.0032 68.9025 26.2165C69.3338 26.8565 67.3213 27.0298 66.9763 27.4965C66.5738 28.0432 67.4219 29.0032 66.7175 29.3498C66.4444 29.4832 66.0994 29.3898 65.8407 29.5632C65.6538 29.6832 65.5244 29.8698 65.4669 30.0698C65.3088 30.6432 65.7257 31.1365 66.0994 31.5365C66.2719 31.7232 66.5738 31.4432 66.3869 31.2432Z" fill="#E8E8E8"/>
<path d="M49.41 28.0833C49.0363 27.8433 48.9932 27.4166 49.1082 27.0433C49.18 26.7899 49.525 26.0966 49.8557 26.0699C50.4019 26.0166 50.675 26.6566 50.8188 27.0299C50.9481 27.3899 50.9913 27.7499 51.0056 28.1233C51.0056 28.3766 51.4369 28.3766 51.4369 28.1233C51.4225 27.3766 50.8906 25.0833 49.5682 25.7499C49.065 26.0033 48.6913 26.7366 48.6338 27.2433C48.5763 27.7233 48.7775 28.1499 49.1944 28.4299C49.41 28.5766 49.6257 28.2299 49.41 28.0833Z" fill="#E8E8E8"/>
<path d="M49.2375 28.2965C48.7199 28.4165 48.2024 28.5365 47.6706 28.6565C47.3687 28.7232 46.8512 28.7499 46.6068 28.9632C46.1899 29.3232 46.3049 30.4299 46.3049 30.8965C46.3049 31.0299 46.4487 31.1232 46.5781 31.0832C46.6499 31.0699 46.7218 31.0432 46.8081 31.0299C47.1818 30.8432 47.3687 30.9632 47.3831 31.3632C47.6706 31.6299 47.6706 31.7899 47.3831 31.8165C47.2106 31.8832 47.0381 31.9099 46.8512 31.9099C46.7362 31.9232 46.6356 31.9899 46.6356 32.1099C46.6643 32.9632 46.7362 33.8032 46.8368 34.6565C46.8656 34.9099 47.2968 34.9099 47.2681 34.6565C47.1674 33.8032 47.0956 32.9632 47.0668 32.1099C46.9949 32.1765 46.9231 32.2432 46.8512 32.3099C47.4549 32.2432 48.4181 32.0165 48.2887 31.2565C48.1449 30.4432 47.0812 30.5365 46.4774 30.6965C46.5637 30.7632 46.6643 30.8299 46.7506 30.8832C46.7506 30.5765 46.7506 30.2832 46.7793 29.9765C46.8224 29.4965 46.7937 29.3232 47.2681 29.1499C47.9149 28.9099 48.6768 28.8299 49.3524 28.6699C49.6256 28.6299 49.5106 28.2432 49.2375 28.2965Z" fill="#E8E8E8"/>
<path d="M51.3075 28.4166C51.9112 28.3899 52.5294 28.3899 53.1331 28.4566C53.7081 28.5232 53.6794 28.6032 53.7656 29.0699C53.8231 29.3632 53.8375 29.6699 53.8662 29.9632C53.9812 31.1099 54.0675 32.2566 54.1394 33.4032C54.1537 33.6566 54.585 33.6566 54.5706 33.4032C54.4844 31.8432 54.4268 30.2432 54.1537 28.6966C54.0819 28.3099 54.01 28.1899 53.5787 28.1232C52.8312 27.9899 52.055 27.9899 51.3075 28.0299C51.0344 28.0299 51.0344 28.4299 51.3075 28.4166Z" fill="#E8E8E8"/>
<path d="M47.1531 34.9367C48.0013 34.8034 48.8494 34.67 49.6831 34.5367C50.6463 34.39 51.5663 34.4567 52.5294 34.39C52.975 34.35 55.0882 34.15 54.3119 33.3367C54.125 33.15 53.8232 33.43 54.01 33.6167C54.125 33.7367 52.17 34.0034 52.1269 34.0034C51.5231 34.0167 50.9194 33.99 50.3156 34.0567C49.2231 34.1767 48.1306 34.39 47.0381 34.5634C46.765 34.59 46.88 34.9767 47.1531 34.9367Z" fill="#E8E8E8"/>
<path d="M123.513 111.723C123.47 113.123 123.427 114.523 123.384 115.937C125.296 116.057 127.193 116.163 129.105 116.283C129.105 114.843 129.105 113.403 129.105 111.963C127.236 111.883 125.382 111.803 123.513 111.723Z" fill="white" stroke="#6C6D6D" stroke-width="2" stroke-miterlimit="10"/>
<path d="M126 127.283C126.259 128.83 126.374 130.11 126.431 131.03C126.618 134.083 126.474 134.79 126.187 135.35C125.482 136.723 124.203 137.297 124.318 137.483C124.404 137.603 125.037 137.47 127.854 136.097C127.682 133.057 127.524 130.03 127.351 126.99C126.906 127.097 126.46 127.19 126 127.283Z" fill="white" stroke="#6C6D6D" stroke-width="2" stroke-miterlimit="10"/>
<path d="M122.277 117.483C124.721 117.497 127.164 117.523 129.608 117.537C129.335 120.577 129.076 123.603 128.803 126.643C126.676 126.483 124.534 126.337 122.406 126.177C122.349 123.283 122.306 120.39 122.277 117.483Z" fill="white" stroke="#6C6D6D" stroke-width="2" stroke-miterlimit="10"/>
<path d="M123.269 127.177C124.045 128.923 124.304 130.43 124.39 131.443C124.519 132.937 124.606 134.083 123.829 134.843C123.542 135.137 123.068 135.417 122.148 135.99C121.328 136.497 120.94 136.683 120.969 136.737C121.012 136.817 121.803 136.657 125.253 135.523C125.483 134.443 125.669 133.057 125.626 131.43C125.569 129.697 125.267 128.217 124.936 127.11C124.39 127.137 123.829 127.15 123.269 127.177Z" fill="white" stroke="#6C6D6D" stroke-width="2" stroke-miterlimit="10"/>
<path d="M124.519 137.603C124.951 137.27 125.353 136.91 125.741 136.523C126.187 136.07 126.848 135.377 127.538 135.977C127.553 135.87 127.567 135.763 127.581 135.657C126.561 136.123 125.554 136.59 124.534 137.043C124.332 137.137 124.433 137.417 124.649 137.417C125.612 137.43 126.216 135.87 127.208 136.163C127.466 136.243 127.581 135.857 127.323 135.777C126.891 135.657 126.561 135.763 126.201 136.003C125.784 136.283 125.195 137.017 124.663 137.017C124.706 137.137 124.735 137.27 124.778 137.39C125.799 136.923 126.805 136.457 127.826 136.003C127.955 135.95 127.969 135.777 127.869 135.683C127.481 135.35 126.791 135.23 126.302 135.443C125.942 135.59 125.713 135.977 125.454 136.23C125.066 136.617 124.663 136.963 124.232 137.31C124.002 137.483 124.304 137.777 124.519 137.603Z" fill="#161616"/>
<path d="M126.287 135.523C126.719 135.537 127.135 135.617 127.538 135.777C127.782 135.883 128.012 135.537 127.754 135.43C127.279 135.23 126.805 135.123 126.287 135.11C126.014 135.123 126.014 135.523 126.287 135.523Z" fill="#161616"/>
<path d="M123.93 135.057C124.261 135.137 124.548 135.297 124.778 135.537C124.965 135.723 125.267 135.443 125.08 135.257C124.792 134.977 124.433 134.777 124.031 134.683C123.786 134.603 123.671 134.99 123.93 135.057Z" fill="#161616"/>
<path d="M121.601 136.67C122.047 136.363 122.507 136.083 122.981 135.817C123.197 135.697 123.427 135.537 123.657 135.47C124.016 135.35 124.232 135.43 124.562 135.563C124.562 135.443 124.562 135.337 124.562 135.217C124.102 135.403 123.585 135.39 123.111 135.577C122.651 135.75 122.219 136.177 121.745 136.257C121.802 136.377 121.86 136.497 121.917 136.617C122.766 136.23 123.714 136.163 124.562 135.777C124.807 135.657 124.591 135.323 124.347 135.43C123.499 135.817 122.55 135.883 121.702 136.27C121.472 136.377 121.644 136.67 121.874 136.63C122.392 136.55 122.809 136.11 123.297 135.937C123.786 135.763 124.318 135.75 124.792 135.563C124.936 135.51 124.936 135.27 124.792 135.217C124.246 134.99 124.002 134.857 123.456 135.123C122.737 135.47 122.061 135.883 121.414 136.323C121.156 136.47 121.371 136.817 121.601 136.67Z" fill="#161616"/>
<path d="M124.059 129.217C124.419 129.097 124.778 129.11 125.109 129.27C125.353 129.39 125.569 129.043 125.324 128.923C124.893 128.71 124.404 128.67 123.944 128.83C123.685 128.923 123.8 129.31 124.059 129.217Z" fill="#161616"/>
<path d="M124.419 130.55C124.721 130.523 125.008 130.59 125.238 130.777C125.454 130.937 125.756 130.657 125.54 130.497C125.224 130.257 124.836 130.123 124.419 130.15C124.145 130.163 124.145 130.563 124.419 130.55Z" fill="#161616"/>
<path d="M124.577 132.217C124.85 132.19 125.109 132.283 125.267 132.497C125.411 132.71 125.784 132.51 125.641 132.297C125.425 131.963 125.008 131.763 124.591 131.817C124.476 131.83 124.376 131.897 124.376 132.017C124.361 132.11 124.462 132.23 124.577 132.217Z" fill="#161616"/>
<path d="M126.431 129.123C126.69 128.99 127.021 129.003 127.265 129.19C127.481 129.35 127.782 129.07 127.567 128.91C127.179 128.617 126.661 128.55 126.216 128.777C125.971 128.91 126.187 129.257 126.431 129.123Z" fill="#161616"/>
<path d="M126.676 131.643C126.906 131.55 127.164 131.59 127.351 131.75C127.552 131.923 127.869 131.643 127.653 131.47C127.322 131.19 126.862 131.123 126.446 131.31C126.201 131.403 126.431 131.75 126.676 131.643Z" fill="#161616"/>
<path d="M126.733 133.777C126.963 133.643 127.251 133.643 127.466 133.803C127.682 133.963 127.984 133.683 127.768 133.523C127.409 133.243 126.906 133.203 126.517 133.443C126.287 133.577 126.503 133.923 126.733 133.777Z" fill="#161616"/>
<path d="M129.953 117.523C129.666 120.59 129.378 123.657 129.091 126.723" stroke="#6C6D6D" stroke-width="6" stroke-miterlimit="10"/>
<path d="M122.363 126.297C124.764 126.457 127.164 126.603 129.565 126.763" stroke="#6C6D6D" stroke-width="6" stroke-miterlimit="10"/>
<path d="M129.579 111.843C129.522 113.363 129.45 114.87 129.392 116.39" stroke="#6C6D6D" stroke-width="6" stroke-miterlimit="10"/>
<path d="M129.881 119.323C131.218 119.097 132.641 120.07 132.742 121.35C132.886 122.95 130.916 123.23 129.622 123.057C129.349 123.017 129.234 123.403 129.507 123.443C131.089 123.657 133.317 123.243 133.173 121.35C133.058 119.79 131.376 118.657 129.766 118.937C129.493 118.977 129.608 119.363 129.881 119.323Z" fill="#161616"/>
<path d="M129.565 123.763C130.126 123.87 130.571 124.243 130.729 124.75C130.801 125.003 131.218 124.897 131.146 124.643C130.959 124.003 130.399 123.497 129.694 123.377C129.407 123.337 129.292 123.71 129.565 123.763Z" fill="#161616"/>
<path d="M129.349 123.63C129.694 124.097 129.852 124.617 129.795 125.19C129.781 125.443 130.212 125.443 130.226 125.19C130.269 124.563 130.097 123.95 129.709 123.43C129.565 123.217 129.191 123.417 129.349 123.63Z" fill="#161616"/>
<path d="M122.262 119.137C121.314 118.577 119.574 120.19 119.359 120.977C118.927 122.577 121.141 122.39 122.061 122.923C122.291 123.057 122.507 122.71 122.277 122.577C121.616 122.19 120.638 122.337 120.063 121.857C119.359 121.27 120.006 120.563 120.494 120.15C120.753 119.937 121.63 119.23 122.047 119.47C122.277 119.63 122.507 119.283 122.262 119.137Z" fill="#161616"/>
<path d="M122.033 122.737C121.659 122.87 121.314 123.07 121.026 123.35C120.811 123.564 120.537 123.897 120.753 124.19C120.911 124.404 121.285 124.204 121.127 123.99C121.026 123.857 121.4 123.564 121.501 123.484C121.688 123.324 121.903 123.204 122.148 123.124C122.406 123.03 122.306 122.643 122.033 122.737Z" fill="#161616"/>
<path d="M121.86 123.017C121.587 123.417 121.501 123.87 121.601 124.323C121.659 124.577 122.076 124.47 122.018 124.217C121.932 123.857 122.018 123.523 122.234 123.217C122.392 123.003 122.018 122.803 121.86 123.017Z" fill="#161616"/>
<path d="M123.226 118.883C123.154 119.857 123.168 120.843 123.24 121.817C123.269 122.07 123.7 122.07 123.671 121.817C123.585 120.843 123.585 119.857 123.657 118.883C123.686 118.63 123.254 118.63 123.226 118.883Z" fill="#161616"/>
<path d="M123.542 118.99C125.066 119.07 126.575 119.124 128.099 119.15C128.027 119.084 127.955 119.017 127.883 118.95C127.84 119.95 127.797 120.964 127.739 121.964C127.725 122.217 128.156 122.217 128.171 121.964C128.214 120.964 128.257 119.95 128.314 118.95C128.314 118.844 128.214 118.75 128.099 118.75C126.575 118.724 125.066 118.67 123.542 118.59C123.269 118.577 123.269 118.977 123.542 118.99Z" fill="#161616"/>
<path d="M123.369 121.99C124.002 122.15 124.706 122.11 125.339 122.15C126.115 122.19 126.906 122.243 127.682 122.283C127.955 122.297 127.955 121.897 127.682 121.883C126.992 121.843 126.302 121.803 125.612 121.763C124.922 121.723 124.146 121.763 123.47 121.603C123.226 121.537 123.111 121.923 123.369 121.99Z" fill="#161616"/>
<path d="M123.858 124.057C124.117 124.577 124.677 124.123 125.109 124.31C125.31 124.39 125.267 124.51 125.54 124.523C125.856 124.537 126.632 123.95 126.791 124.497C126.834 124.643 127.035 124.683 127.15 124.59C127.294 124.55 127.452 124.51 127.596 124.483C127.768 124.683 128.084 124.39 127.897 124.203C127.567 123.843 127.15 124.043 126.834 124.31C126.949 124.337 127.078 124.363 127.193 124.403C127.064 123.937 126.532 123.63 126.029 123.843C125.784 123.95 125.756 124.15 125.382 124.017C125.31 123.99 125.281 123.883 125.209 123.857C125.051 123.803 124.217 123.883 124.217 123.87C124.117 123.617 123.743 123.817 123.858 124.057Z" fill="#161616"/>
<path d="M124.62 113.563C124.649 113.417 124.836 113.377 124.965 113.43C125.152 113.497 125.252 113.697 125.339 113.843C125.454 114.07 125.827 113.87 125.712 113.643C125.554 113.35 125.31 113.043 124.922 113.003C124.606 112.977 124.275 113.15 124.217 113.443C124.146 113.71 124.562 113.817 124.62 113.563Z" fill="#161616"/>
<path d="M127.265 113.75C127.294 113.617 127.423 113.537 127.567 113.59C127.739 113.643 127.811 113.843 127.84 113.99C127.883 114.243 128.3 114.137 128.257 113.883C128.199 113.563 127.969 113.23 127.596 113.177C127.265 113.137 126.906 113.323 126.848 113.643C126.805 113.897 127.222 114.003 127.265 113.75Z" fill="#161616"/>
<path d="M124.836 114.403C125.324 115.203 126.489 115.323 127.121 114.603C127.294 114.403 126.992 114.123 126.819 114.323C126.359 114.843 125.569 114.803 125.209 114.203C125.08 113.977 124.706 114.177 124.836 114.403Z" fill="#161616"/>
<path d="M110.743 41.9501C108.817 41.2701 107.654 39.6434 106.951 38.0167C106.202 36.3234 105.88 34.4834 105.987 32.6701C106.171 29.3234 107.807 25.9367 110.835 23.8034C113.695 21.7767 117.931 21.2034 121.112 23.0434C124.43 24.9634 125.026 28.9234 125.057 32.1101C125.087 35.6567 124.139 39.3767 121.127 41.9234C120.913 42.0967 121.234 42.3901 121.448 42.2034C124.308 39.7767 125.393 36.3101 125.5 32.9234C125.607 29.6034 125.149 25.4034 122.014 23.1234C119.078 20.9901 114.719 21.0967 111.584 22.8301C108.113 24.7501 106.064 28.2301 105.62 31.7367C105.345 33.9101 105.651 36.1634 106.569 38.2167C107.348 39.9501 108.587 41.6034 110.636 42.3234C110.896 42.4301 111.003 42.0434 110.743 41.9501Z" fill="#A2A39B"/>
<path d="M110.529 42.2032C110.009 42.8432 110.116 43.7899 110.881 44.2699C111.462 44.6299 112.319 44.6832 113.007 44.7632C113.832 44.8699 114.674 44.9099 115.515 44.9099C117.013 44.8965 118.726 44.8032 120.118 44.2965C121.127 43.9232 121.891 43.0432 121.356 42.0965C121.234 41.8699 120.836 42.0699 120.959 42.2965C122.105 44.3365 116.677 44.5099 115.499 44.5099C114.414 44.5099 113.328 44.4299 112.273 44.2565C111.768 44.1765 111.202 44.0965 110.881 43.7099C110.56 43.3099 110.621 42.7899 110.927 42.4165C111.095 42.1899 110.698 41.9899 110.529 42.2032Z" fill="#A2A39B"/>
<path d="M111.019 44.3634C111.019 45.0301 111.034 45.7101 111.126 46.3768C111.171 46.6834 111.248 46.9501 111.538 47.1368C111.951 47.4034 112.64 47.3901 113.129 47.4301C113.955 47.4834 114.796 47.4834 115.621 47.4568C116.401 47.4301 117.181 47.3768 117.961 47.3101C118.42 47.2701 118.94 47.2834 119.292 46.9768C120.071 46.3101 120.087 45.0434 119.888 44.2034C119.827 43.9501 119.383 44.0568 119.444 44.3101C119.552 44.7634 119.582 45.2168 119.475 45.6834C119.322 46.3368 119.108 46.7634 118.267 46.8968C117.288 47.0568 116.187 47.0568 115.193 47.0701C114.215 47.0834 113.114 47.1234 112.15 46.9234C111.263 46.7368 111.493 45.0034 111.493 44.3634C111.477 44.1101 111.019 44.1101 111.019 44.3634Z" fill="#A2A39B"/>
<path d="M111.171 30.0034C113.006 31.0034 114.398 32.4701 115.178 34.2301C115.285 34.4701 115.728 34.3634 115.621 34.1234C114.796 32.2568 113.343 30.7101 111.416 29.6568C111.156 29.5101 110.927 29.8568 111.171 30.0034Z" fill="#A2A39B"/>
<path d="M115.545 34.2299C116.447 32.5766 117.762 31.1633 119.445 30.0699C119.674 29.9233 119.445 29.5633 119.215 29.7233C117.472 30.8566 116.095 32.3233 115.147 34.0299C115.025 34.2566 115.423 34.4566 115.545 34.2299Z" fill="#A2A39B"/>
<path d="M97.2709 40.4834C99.3048 39.8834 101.323 39.2834 103.357 38.6834C103.632 38.6034 103.51 38.2167 103.235 38.2967C101.201 38.8967 99.1824 39.4967 97.1486 40.0967C96.858 40.1767 96.9803 40.5634 97.2709 40.4834Z" fill="#A2A39B"/>
<path d="M99.5955 37.8166C100.299 37.6433 101.002 37.4566 101.706 37.2833C101.981 37.2166 101.874 36.8299 101.583 36.8966C100.88 37.0699 100.177 37.2566 99.4731 37.4299C99.1979 37.5099 99.3049 37.8966 99.5955 37.8166Z" fill="#A2A39B"/>
<path d="M94.5031 33.3766C97.1945 33.3499 99.8706 33.4166 102.547 33.5632C102.837 33.5766 102.837 33.1766 102.547 33.1632C99.8706 33.0166 97.1792 32.9633 94.5031 32.9766C94.2125 32.9766 94.2125 33.3766 94.5031 33.3766Z" fill="#A2A39B"/>
<path d="M100.192 31.5633C100.834 31.71 101.492 31.7766 102.149 31.79C102.44 31.79 102.44 31.39 102.149 31.39C101.522 31.3766 100.91 31.31 100.314 31.1766C100.024 31.11 99.9012 31.4966 100.192 31.5633Z" fill="#A2A39B"/>
<path d="M99.1978 19.15C101.599 20.95 103.785 22.9233 105.758 25.0833C105.942 25.2833 106.263 25.0033 106.079 24.8033C104.107 22.6433 101.92 20.6566 99.5189 18.87C99.3048 18.6966 98.9684 18.9766 99.1978 19.15Z" fill="#A2A39B"/>
<path d="M105.911 22.9365C106.324 23.3099 106.722 23.6832 107.134 24.0699C107.333 24.2565 107.654 23.9765 107.456 23.7899C107.043 23.4165 106.645 23.0432 106.232 22.6565C106.033 22.4699 105.712 22.7499 105.911 22.9365Z" fill="#A2A39B"/>
<path d="M96.5981 23.6833C97.3474 24.07 98.1121 24.43 98.892 24.7633C99.1519 24.8833 99.3813 24.5366 99.1214 24.4166C98.3414 24.07 97.5768 23.71 96.8275 23.3366C96.5675 23.2033 96.3382 23.55 96.5981 23.6833Z" fill="#A2A39B"/>
<path d="M123.206 20.6434C125.47 18.6701 127.733 16.6967 129.996 14.7234C130.21 14.5367 129.874 14.2567 129.675 14.4434C127.412 16.4167 125.149 18.3901 122.885 20.3634C122.671 20.5501 122.992 20.8301 123.206 20.6434Z" fill="#A2A39B"/>
<path d="M125.485 21.5632C126.066 21.1899 126.647 20.8299 127.228 20.4566C127.458 20.3099 127.244 19.9632 126.999 20.1099C126.418 20.4832 125.837 20.8432 125.255 21.2166C125.011 21.3632 125.24 21.7099 125.485 21.5632Z" fill="#A2A39B"/>
<path d="M116.142 18.03C116.6 16.0967 116.952 14.15 117.166 12.19C117.197 11.9367 116.738 11.9367 116.707 12.19C116.493 14.11 116.157 16.03 115.698 17.9233C115.637 18.1767 116.08 18.2833 116.142 18.03Z" fill="#A2A39B"/>
<path d="M129.002 30.2966C133.162 29.9632 137.306 29.6299 141.465 29.2965C141.756 29.2699 141.756 28.8699 141.465 28.8965C137.306 29.2299 133.162 29.5632 129.002 29.8965C128.712 29.9099 128.696 30.3099 129.002 30.2966Z" fill="#A2A39B"/>
<path d="M111.523 42.6833C114.108 43.1766 116.738 43.1633 119.307 42.6566C119.597 42.6033 119.475 42.2166 119.185 42.2699C116.692 42.7633 114.138 42.7766 111.646 42.2966C111.355 42.2433 111.233 42.6299 111.523 42.6833Z" fill="#A2A39B"/>
<path d="M111.906 46.07C113.878 46.2966 115.851 46.35 117.839 46.23C118.129 46.2166 118.129 45.8166 117.839 45.83C115.851 45.95 113.878 45.8966 111.906 45.67C111.615 45.6433 111.615 46.0433 111.906 46.07Z" fill="#A2A39B"/>
<path d="M126.112 41.3367C129.216 43.2434 132.382 45.0834 135.593 46.8567C135.838 46.9901 136.067 46.6434 135.822 46.5101C132.611 44.7367 129.446 42.8967 126.341 40.99C126.097 40.8434 125.867 41.19 126.112 41.3367Z" fill="#A2A39B"/>
<path d="M87.475 135.123C84.7438 138.23 82.0269 141.323 79.2957 144.43C82.5013 154.883 84.3125 157.63 85.3906 157.483C86.1669 157.377 86.5406 155.817 86.9575 154.07C87.9925 149.71 87.3744 145.963 86.7419 143.63C88.4669 141.843 90.1775 140.043 91.9025 138.257C90.4219 137.217 88.9556 136.177 87.475 135.123Z" fill="#161616" stroke="#161616" stroke-width="2" stroke-miterlimit="10"/>
<path d="M77.3981 119.123C79.1087 120.35 80.7475 119.91 84.14 120.443C87.0294 120.897 90.2781 121.897 93.7281 123.897C90.0481 127.897 86.3681 132.123 82.7169 136.577C81.84 137.657 80.9631 138.737 80.115 139.817C81.5237 140.123 83.22 140.603 85.06 141.377C86.8569 142.123 88.3231 142.963 89.4875 143.723C94.9643 139.297 99.8518 135.017 104.207 130.977C106.22 129.11 109.066 126.257 109.512 122.217C109.541 121.99 109.541 121.79 109.541 121.59C109.44 114.883 100.341 110.03 94.8062 108.243C88.7544 106.297 78.3469 105.243 75.4431 109.897C73.7325 112.643 74.7388 117.217 77.3981 119.123Z" fill="#12335E"/>
<path opacity="0.29" d="M88.0213 112.417C87.9207 113.683 87.6763 115.19 87.1732 116.857C86.8138 118.043 86.3826 119.097 85.9513 119.99C85.4769 120.163 85.0169 120.337 84.5426 120.51C87.6332 121.643 90.7382 122.777 93.8288 123.91C91.5288 126.35 89.2144 128.91 86.8857 131.577C84.4851 134.323 82.1994 137.017 80.0288 139.67C81.5669 140.137 83.0907 140.603 84.6288 141.057C90.1344 135.43 95.6401 129.79 101.146 124.163C101.721 122.63 101.692 121.43 101.519 120.59C100.729 116.483 95.3094 113.137 88.0213 112.417Z" fill="#282828"/>
<path opacity="0.24" d="M93.8 123.883C94.3032 124.59 94.7919 125.31 95.2951 126.017C91.0113 130.803 86.7275 135.577 82.4438 140.363C81.6819 140.177 80.9057 139.977 80.1438 139.79C82.8894 136.297 85.8507 132.71 89.0563 129.097C90.6519 127.297 92.2332 125.563 93.8 123.883Z" fill="#111111"/>
<path d="M79.4968 130.057C83.7374 130.777 87.9925 131.484 92.2331 132.204C97.135 142.124 97.6812 145.324 96.7612 145.87C96.1 146.257 94.72 145.297 93.1818 144.217C89.3293 141.51 87.1874 138.284 86.0231 136.11C83.4643 135.79 80.9056 135.457 78.3468 135.137C78.7206 133.444 79.1087 131.75 79.4968 130.057Z" fill="#161616" stroke="#161616" stroke-width="2" stroke-miterlimit="10"/>
<path d="M70.7568 107.963C63.0231 110.07 58.3081 114.443 55.2749 117.323C51.1781 121.23 46.1468 126.017 47.5987 129.55C48.3462 131.35 50.6174 132.457 61.1974 134.163C69.1899 135.457 76.1187 136.15 81.5237 136.537C82.1993 134.243 82.8749 131.963 83.5362 129.67C78.1024 128.043 72.6831 126.43 67.2493 124.803C70.5843 124.15 74.0918 123.377 77.7431 122.43C80.5174 121.71 83.1624 120.963 85.6781 120.177C88.0068 115.817 88.51 111.11 86.0806 108.443C82.6881 104.71 75.0837 106.777 70.7568 107.963Z" fill="#12335E"/>
<path opacity="0.29" d="M87.9637 112.577C87.8918 113.897 87.6475 115.59 86.9862 117.457C86.5837 118.59 86.1237 119.577 85.6637 120.39C85.2756 120.417 84.8875 120.457 84.4993 120.483C81.2218 121.483 77.7287 122.43 74.0343 123.31C71.6481 123.883 69.3193 124.377 67.0625 124.83C72.5106 126.417 77.9587 127.99 83.4068 129.577C83.2918 130.123 83.1481 130.697 82.9756 131.297C82.7743 131.99 82.5443 132.63 82.3287 133.217C74.8106 131.497 67.2925 129.777 59.7743 128.057C59.4293 127.67 58.2937 126.27 58.4662 124.417C58.6531 122.403 60.7231 120.977 63.3681 119.67C71.0156 115.91 83.8381 113.363 87.9637 112.577Z" fill="#282828"/>
<path opacity="0.24" d="M63.1956 125.11C64.5612 125.017 65.9412 124.923 67.3068 124.817C72.6687 126.47 78.0306 128.137 83.3924 129.79C83.1624 130.577 82.9324 131.377 82.7024 132.163C76.2049 129.803 69.6931 127.457 63.1956 125.11Z" fill="#111111"/>
<path d="M68.73 76.7233C70.8575 75.9109 74.5519 74.7531 79.4681 74.417C87.0006 73.9035 92.7794 75.6588 95.065 76.4525C94.6481 80.122 94.0012 83.0539 93.4837 85.0707C92.8656 87.4797 92.3625 88.8149 92.1325 91.0279C91.845 93.801 92.2044 96.0793 92.535 97.5732C90.0337 98.0774 86.2531 98.6283 81.5956 98.563C77.1106 98.4976 73.4881 97.8627 71.0587 97.3118C71.7056 93.9691 71.49 91.3173 71.1737 89.5152C70.8144 87.5077 70.3256 86.5273 69.7362 84.0997C68.9744 80.9624 68.7731 78.3946 68.73 76.7233Z" fill="#EC615B" stroke="black" stroke-miterlimit="10"/>
<path opacity="0.14" d="M80.1117 75.4136C80.523 76.1283 80.9931 77.1157 81.3065 78.3006C81.522 79.1 82.4034 82.7205 79.6612 87.4977C77.9766 90.4411 76.1942 93.5538 70.3571 96.1117C68.4767 96.9393 66.6551 97.4941 65.3231 97.842C68.2808 98.2088 72.1396 98.5567 76.7034 98.5756C82.6776 98.6038 87.6137 98.0866 91.0415 97.5787C90.8456 96.8734 90.591 95.8108 90.493 94.5319C90.4147 93.4128 90.4147 91.626 92.0209 86.5949C93.2941 82.6359 94.1951 80.9337 94.6456 77.3508C94.7043 76.9371 94.7239 76.5891 94.7631 76.354C93.3332 75.9496 91.4724 75.5077 89.1807 75.1503C87.0652 74.8212 85.1652 74.6519 83.5982 74.5767C82.4622 74.8494 81.2869 75.1315 80.1117 75.4136Z" fill="#6D6C6C"/>
<path opacity="0.17" d="M94.6194 77.9839C93.8144 80.9438 92.7507 83.3341 91.9169 84.9961C89.4732 89.8515 87.7625 93.1195 83.1482 95.5098C80.2875 96.9945 77.3119 97.62 75.4 97.9188C77.3407 98.2736 80.0863 98.6191 83.4069 98.5724C87.2307 98.5164 90.3213 97.9562 92.3482 97.48C92.075 96.3408 91.7588 94.6321 91.845 92.5499C91.9457 89.8515 92.6213 88.2268 93.3688 85.2669C93.7857 83.5302 94.3175 81.0465 94.6194 77.9839Z" fill="#6D6C6C"/>
<path d="M68.6437 77.6833C66.775 78.8834 64.3743 80.7767 62.2756 83.59C57.5462 89.9634 57.6756 96.7234 57.8625 99.2167C58.725 101.363 60.2056 104.177 62.7931 106.937C64.3025 108.55 66.5162 110.87 70.2968 112.363C71.5618 112.87 72.6687 113.15 73.4737 113.31C74.1637 112.737 74.8393 112.163 75.5293 111.59C73.3156 109.19 71.0875 106.67 68.8593 104.07C67.1487 102.083 65.51 100.11 63.9287 98.1634C63.9862 96.5234 64.36 93.55 66.2862 90.4434C67.3787 88.6834 68.6581 87.4034 69.6787 86.5367C69.3337 83.59 68.9887 80.6434 68.6437 77.6833Z" fill="white" stroke="#161616" stroke-width="2" stroke-miterlimit="10"/>
<path opacity="0.13" d="M68.9168 80.6567C64.7768 84.9901 62.8074 89.0967 61.8299 91.6834C60.1193 96.1634 60.4786 98.5101 60.7374 99.6301C60.953 100.51 61.4274 102.017 63.1668 104.31C64.6762 106.297 67.853 109.857 73.9049 112.79C74.4368 112.31 74.9687 111.843 75.5005 111.363C73.7899 109.577 72.0649 107.697 70.3255 105.737C68.0399 103.163 65.9124 100.63 63.943 98.1501C64.0005 96.8034 64.2449 94.9234 65.093 92.8167C66.3724 89.6567 68.3849 87.5767 69.6355 86.4701C69.3768 84.5367 69.1468 82.6034 68.9168 80.6567Z" fill="#6D6C6C"/>
<path opacity="0.16" d="M63.9287 98.3232C64.1875 99.8832 64.7193 101.87 65.8406 104.017C68.3131 108.683 72.18 111.257 74.1493 112.377C74.5375 112.057 74.9112 111.75 75.2993 111.43C71.5043 107.057 67.7237 102.683 63.9287 98.3232Z" fill="#6D6C6C"/>
<path d="M95.2806 77.4434C97.3794 78.63 100.082 80.4834 102.425 83.2434C107.744 89.4967 107.586 96.1367 107.384 98.59C106.407 100.697 104.754 103.457 101.85 106.177C100.154 107.75 97.6669 110.03 93.4263 111.51C92.0031 112.003 90.7525 112.283 89.8469 112.443C89.085 111.883 88.3088 111.323 87.5469 110.763C90.0194 108.403 92.535 105.937 95.0363 103.377C96.9481 101.417 98.7881 99.4834 100.571 97.5767C100.499 95.9767 100.096 93.0567 97.9256 89.99C96.6894 88.2567 95.2663 87.0034 94.1163 86.15C94.5188 83.2434 94.9069 80.35 95.2806 77.4434Z" fill="white" stroke="#161616" stroke-width="2" stroke-miterlimit="10"/>
<path opacity="0.16" d="M95.1799 80.6833C97.0055 82.4567 99.4924 85.2967 101.433 89.2567C102.353 91.1367 103.848 94.19 103.877 97.07C103.977 105.83 90.6087 111.857 89.8324 112.203C89.0705 111.75 88.323 111.31 87.5612 110.857C91.888 106.457 96.2005 102.057 100.527 97.6567C100.441 96.2167 100.082 93.5367 98.3568 90.6834C96.9337 88.3367 95.1655 86.8167 94.0012 85.9767C94.4037 84.2167 94.7918 82.4567 95.1799 80.6833Z" fill="#6D6C6C"/>
<path opacity="0.12" d="M100.671 97.6968C100.456 98.8568 100.096 100.123 99.5356 101.43C97.0056 107.35 91.8881 110.59 89.3006 111.977C88.6824 111.603 88.0787 111.23 87.4606 110.857C91.8593 106.47 96.2581 102.083 100.671 97.6968Z" fill="#6D6C6C"/>
<path d="M98.5869 98.6833H63.2388V119.443H98.5869V98.6833Z" fill="white" stroke="#161616" stroke-width="2" stroke-miterlimit="10"/>
<path d="M80.4025 111.044C78.5338 111.257 77.6282 109.15 78.1169 107.75C78.5913 106.364 80.3594 105.71 81.7969 106.19C83.22 106.67 83.91 108.284 83.4069 109.577C82.8463 111.017 80.8913 111.604 79.4538 110.964C79.2094 110.857 78.9794 111.204 79.2382 111.31C80.5175 111.884 82.0844 111.67 83.105 110.737C84.0969 109.817 84.2407 108.364 83.6225 107.23C82.2138 104.644 77.8582 105.47 77.5563 108.31C77.3982 109.83 78.5769 111.657 80.4025 111.457C80.6757 111.417 80.6757 111.017 80.4025 111.044Z" fill="#161616"/>
<path opacity="0.14" d="M76.5069 98.6298C81.2938 100.176 84.5569 104.136 84.6575 108.39C84.7869 113.723 79.9569 118.736 73.3732 119.243C81.7538 119.31 90.1344 119.376 98.5294 119.443C98.5006 112.483 98.4863 105.523 98.4575 98.5764C91.1406 98.5764 83.8238 98.6031 76.5069 98.6298Z" fill="#6D6C6C"/>
<path opacity="0.26" d="M98.5293 98.5635C98.3999 102.803 97.4943 106.11 96.7324 108.283C95.6112 111.443 94.8062 113.75 92.4918 115.79C89.3437 118.59 85.4193 119.11 83.6943 119.243C88.5962 119.283 93.4981 119.323 98.3999 119.377C98.4143 115.417 98.443 111.457 98.4718 107.483C98.4718 104.51 98.5005 101.537 98.5293 98.5635Z" fill="#6D6C6C"/>
<path d="M79.8706 66.9898C79.08 67.8831 79.8419 68.9765 79.6981 71.8965C79.6263 73.3498 79.3675 74.5231 79.1663 75.3098C79.8419 75.6031 81.035 76.0165 82.5731 76.0565C84.4706 76.0965 85.9081 75.5498 86.6125 75.2298C86.2963 74.6431 85.8794 73.7365 85.6206 72.5631C84.9738 69.5765 86.1238 68.1765 85.175 67.0698C84.0681 65.7898 80.9344 65.7765 79.8706 66.9898Z" fill="white" stroke="#161616" stroke-width="2" stroke-miterlimit="10"/>
<path d="M74.8537 54.1633C73.9481 56.3233 74.2931 58.27 74.4943 59.11C74.4081 59.1233 72.7262 59.4567 72.2662 60.6567C71.8062 61.87 72.7549 63.59 74.7387 64.15C75.4574 65.7767 77.1968 68.9233 80.8624 70.6433C81.4806 70.9233 82.0699 71.15 82.6593 71.31C83.1912 71.1233 83.9099 70.83 84.7293 70.39C87.2881 69.0167 88.7112 67.31 89.0418 66.8967C89.6456 66.15 90.465 64.95 91.04 63.2967C91.3562 63.35 91.9168 63.3767 92.4631 63.1233C93.6993 62.5367 94.3175 60.71 93.455 59.5233C92.7362 58.5367 91.3418 58.4967 91.1693 58.4967C91.3562 57.8033 91.9312 55.31 90.4793 52.8433C88.8118 50.0033 85.2324 48.51 81.8687 48.9367C76.8949 49.5367 74.9399 53.95 74.8537 54.1633Z" fill="white" stroke="#161616" stroke-width="2" stroke-miterlimit="10"/>
<path d="M79.6837 70.5231C80.5606 71.0031 81.5237 71.7498 82.6018 71.6698C83.4931 71.6031 84.4849 71.1231 85.1606 70.6165C85.3762 70.4565 85.0743 70.1765 84.8587 70.3365C84.2262 70.8031 83.2056 71.2965 82.3718 71.2831C81.4949 71.2698 80.6037 70.5898 79.8849 70.1765C79.6693 70.0431 79.4537 70.3898 79.6837 70.5231Z" fill="#161616"/>
<path d="M79.6262 70.6966C80.4456 71.35 81.3799 72.0833 82.53 72.03C83.6512 71.9766 84.7006 71.2833 85.4337 70.5366C85.6206 70.35 85.3187 70.07 85.1318 70.2566C84.4993 70.8966 83.6081 71.5233 82.6306 71.6166C81.5524 71.71 80.6899 71.03 79.9281 70.4166C79.7268 70.2433 79.4249 70.5233 79.6262 70.6966Z" fill="#161616"/>
<path d="M80.1725 70.7767C80.1725 70.7633 80.1725 70.7633 80.1725 70.7767C80.0862 70.6567 79.9281 70.63 79.8275 70.7233C79.8275 70.7233 79.8275 70.7233 79.8131 70.7367C79.7269 70.8033 79.7269 70.95 79.8131 71.0167C81.3943 72.4167 84.2981 72.87 85.4337 70.7233C85.5487 70.4967 85.1893 70.2833 85.06 70.5233C84.0537 72.4434 81.5093 71.9767 80.1294 70.7367C80.1294 70.83 80.1294 70.9233 80.1294 71.0167C80.1294 71.0167 80.1293 71.0167 80.1437 71.0033C80.0287 70.99 79.9137 70.9767 79.7987 70.9633V70.9767C79.9425 71.19 80.3162 70.99 80.1725 70.7767Z" fill="#161616"/>
<path d="M81.8975 58.4432C81.7106 60.6032 81.8113 62.7498 82.185 64.8832C82.1994 64.9898 82.3431 65.0565 82.4438 65.0165C83.0044 64.8432 83.4069 64.5365 83.7088 64.0698C83.8525 63.8432 83.4788 63.6432 83.335 63.8698C83.0906 64.2565 82.7888 64.4832 82.3288 64.6298C82.415 64.6698 82.5013 64.7232 82.5875 64.7632C82.2138 62.6698 82.1275 60.5498 82.3144 58.4298C82.3575 58.1765 81.9263 58.1765 81.8975 58.4432Z" fill="#161616"/>
<path d="M79.3387 60.5632C79.3674 60.6832 79.583 61.4299 79.3387 61.5499C79.0943 61.6699 78.4043 61.1899 78.1887 60.5632C78.0162 60.0299 78.1599 59.3632 78.433 59.3099C78.7205 59.2432 79.1662 59.9766 79.3387 60.5632Z" fill="#161616" stroke="#161616" stroke-miterlimit="10"/>
<path d="M86.7561 60.5632C86.7849 60.6832 87.0005 61.4299 86.7561 61.5499C86.5118 61.6699 85.8218 61.1899 85.6062 60.5632C85.4337 60.0299 85.5774 59.3632 85.8505 59.3099C86.138 59.2432 86.5836 59.9766 86.7561 60.5632Z" fill="#161616" stroke="#161616" stroke-miterlimit="10"/>
<path d="M81.38 66.6432C83.1338 67.3366 84.7294 66.3632 86.0231 65.3099C86.2387 65.1366 85.9225 64.8565 85.7212 65.0299C84.6 65.9365 83.1625 66.9099 81.61 66.2966C81.3369 66.2032 81.1213 66.5499 81.38 66.6432Z" fill="#161616"/>
<path d="M86.4399 62.6832C86.713 62.6832 86.713 62.2832 86.4399 62.2832C86.1668 62.2832 86.1668 62.6832 86.4399 62.6832Z" fill="#161616"/>
<path d="M88.0357 61.9366C88.05 61.9233 88.0644 61.91 88.0788 61.8966C88.165 61.8166 88.165 61.6966 88.0788 61.6166C87.9925 61.5366 87.8631 61.5366 87.7769 61.6166C87.7625 61.63 87.7481 61.6433 87.7338 61.6566C87.6475 61.7366 87.6475 61.8566 87.7338 61.9366C87.82 62.0166 87.9494 62.0166 88.0357 61.9366Z" fill="#161616"/>
<path d="M87.5612 62.91C87.5756 62.91 87.59 62.91 87.6043 62.91C87.7193 62.91 87.82 62.8167 87.82 62.71C87.82 62.6033 87.7193 62.51 87.6043 62.51C87.59 62.51 87.5756 62.51 87.5612 62.51C87.4462 62.51 87.3456 62.6033 87.3456 62.71C87.3456 62.8167 87.4318 62.91 87.5612 62.91Z" fill="#161616"/>
<path d="M77.6424 58.1765C78.1887 57.7498 78.9937 57.7365 79.5399 58.1498C79.7555 58.3098 80.0574 58.0298 79.8418 57.8698C79.0943 57.3099 78.0593 57.3098 77.3262 57.8965C77.1249 58.0565 77.4412 58.3365 77.6424 58.1765Z" fill="#161616"/>
<path d="M84.6574 58.03C85.2756 57.5234 86.1524 57.43 86.8856 57.79C87.1299 57.91 87.3456 57.5634 87.1012 57.4434C86.1956 56.99 85.1174 57.11 84.3556 57.75C84.1399 57.9234 84.4418 58.2034 84.6574 58.03Z" fill="#161616"/>
<path d="M77.7575 62.6432C78.0306 62.6432 78.0306 62.2432 77.7575 62.2432C77.4843 62.2432 77.4843 62.6432 77.7575 62.6432Z" fill="#161616"/>
<path d="M79.2813 62.4566C79.5544 62.4566 79.5544 62.0566 79.2813 62.0566C79.0081 62.0566 79.0081 62.4566 79.2813 62.4566Z" fill="#161616"/>
<path d="M78.5193 62.7634C78.5049 62.7767 78.4906 62.79 78.4762 62.8034C78.3899 62.8834 78.3899 63.0034 78.4762 63.0834C78.5624 63.1634 78.6918 63.1634 78.7781 63.0834C78.7924 63.07 78.8068 63.0567 78.8212 63.0434C78.9075 62.9634 78.9075 62.8434 78.8212 62.7634C78.735 62.6834 78.6056 62.6834 78.5193 62.7634Z" fill="#161616"/>
<path d="M77.1968 49.8299C76.3343 50.3233 74.4512 51.4032 73.1718 53.6166C71.8924 55.8166 71.9068 57.8966 71.9643 58.7899C69.8656 62.2966 68.9168 65.3899 68.4568 67.4966C67.7093 70.8432 68.1118 72.0699 68.6293 72.8832C69.8943 74.8832 72.4387 75.3766 73.0568 75.4966C76.2337 76.1232 78.7637 74.6166 79.3387 74.2699C79.4968 73.8299 79.6549 73.2832 79.7412 72.6699C79.8993 71.6166 79.8131 70.7099 79.6837 70.0566C78.965 69.5099 78.1312 68.7766 77.3262 67.8166C76.1043 66.3499 75.4143 64.9099 75.0262 63.8699C73.7612 63.7499 72.8124 62.9499 72.7262 62.0566C72.6399 61.2166 73.2724 60.1366 74.1062 60.1366C74.7243 60.1366 75.1699 60.7232 75.2562 60.8299C75.7306 60.5766 76.3918 60.1366 76.9812 59.4432C77.8293 58.4432 77.9731 57.5499 78.3612 56.6166C78.735 55.7099 79.4537 54.4566 81.0062 53.1499C82.5012 53.6432 83.6943 54.1232 84.5137 54.4832C87.1443 55.6166 88.6393 56.2833 89.8037 57.7366C90.4506 58.5366 90.7812 59.3232 90.9537 59.8166C92.2906 58.8699 92.8368 59.1232 92.9518 59.1766C93.8 59.6166 93.7712 62.0299 92.4487 62.6966C91.9456 62.9499 91.3706 62.8833 91.0112 62.8033C90.5943 64.1499 89.6743 66.3499 87.5612 68.2966C86.8568 68.9499 86.1381 69.4566 85.4912 69.8432C85.4337 70.3366 85.405 71.0166 85.5487 71.8166C85.6781 72.5499 85.9081 73.1499 86.1237 73.5766C89.6168 75.7099 93.9581 75.3232 96.3156 73.0299C98.4143 70.9766 98.4143 67.8699 97.6237 65.7499C96.905 63.8166 95.5106 62.6566 94.8206 62.1499C95.0075 61.4032 96.0425 56.9766 93.0381 52.9099C92.2618 51.8566 90.0912 49.3099 86.1812 48.4299C82.0412 47.4966 78.6343 49.0166 77.1968 49.8299Z" fill="#191919"/>
<path opacity="0.17" d="M86.3106 55.3098C87.935 57.2031 88.3663 58.9498 88.51 59.8565C89.0994 63.6698 86.7132 66.7631 85.5056 68.3498C84.5138 69.6431 83.4931 70.5631 82.76 71.1631C83.3925 72.7365 84.0106 74.2965 84.6431 75.8698C85.29 75.6698 85.9369 75.4698 86.5838 75.2698C86.2819 74.7765 85.9657 74.1631 85.7213 73.4165C85.2756 72.0831 85.2469 70.9098 85.29 70.1098C86.0807 69.5898 87.0007 68.8831 87.8919 67.9498C89.6744 66.0831 90.5657 64.1631 91.0257 62.8698C91.3132 62.9231 91.9313 62.9898 92.5207 62.6831C93.7569 62.0298 93.5557 60.4031 93.5413 60.2965C93.4982 59.9498 93.4119 59.3898 92.9807 59.1631C92.4775 58.9098 91.6438 59.1498 90.9825 59.8698C90.7813 59.2165 90.2063 57.7098 88.6538 56.5098C87.7913 55.8431 86.9144 55.4965 86.3106 55.3098Z" fill="#6D6C6C"/>
<path opacity="0.19" d="M82.0988 58.5631C82.0125 58.5498 81.725 59.7098 80.8481 64.8298C81.3513 64.8298 81.8544 64.8298 82.3575 64.8298C82.2569 64.1498 82.1419 63.1631 82.0844 61.9631C82.0125 59.9098 82.185 58.5764 82.0988 58.5631Z" fill="#6D6C6C"/>
<path opacity="0.54" d="M94.7343 62.2833C94.49 62.4166 95.41 63.5633 95.2806 65.27C95.2375 65.8033 95.1512 67.0166 94.1162 67.83C94.0443 67.8833 92.5062 69.0566 90.9825 68.31C90.0768 67.87 89.5306 66.9366 89.5593 65.9233C89.1281 66.67 88.4237 67.6566 87.3168 68.6166C86.6268 69.2166 85.9512 69.6566 85.3618 69.99C85.3187 70.5766 85.3187 71.3766 85.5487 72.2833C85.6781 72.7766 85.8362 73.2033 85.9943 73.55C86.44 73.8166 87.1012 74.1766 87.9637 74.4566C88.51 74.63 91.5143 75.6033 94.4468 74.2566C94.9643 74.0166 96.1144 73.47 96.9481 72.2966C97.0487 72.15 97.4225 71.63 97.6956 70.75C98.6731 67.7366 97.2356 65.0166 97.1062 64.79C96.3156 63.31 95.0362 62.1233 94.7343 62.2833Z" fill="#282828"/>
<path opacity="0.35" d="M75.0105 63.9231C74.8811 63.9365 75.1686 65.0298 74.8523 66.1098C74.6223 66.9098 73.8892 68.2165 72.6386 68.4831C71.3305 68.7498 69.7061 67.8565 68.9586 66.1898C68.6136 66.9231 68.1536 68.0965 68.0817 69.5898C68.0386 70.5631 67.9811 71.6031 68.4986 72.6298C69.663 74.9231 73.0842 75.8165 75.6286 75.6032C77.3248 75.4565 78.6042 74.8431 79.2942 74.4298C79.4667 73.9765 79.6392 73.4298 79.7542 72.8031C79.9411 71.7231 79.8979 70.7765 79.7973 70.0831C78.6617 69.3231 77.8855 68.5365 77.3967 67.9631C76.7067 67.1498 75.7723 66.0565 75.298 64.5365C75.2261 64.3631 75.0967 63.9098 75.0105 63.9231Z" fill="#282828"/>
</svg>
