<svg xmlns="http://www.w3.org/2000/svg" width="470" height="348" fill="none" viewBox="0 0 470 348">
  <g opacity=".9">
    <path fill="#E6E6E6" fill-opacity=".8" d="M233.714 348c129.077 0 233.714-7.437 233.714-16.61 0-9.174-104.637-16.611-233.714-16.611S0 322.216 0 331.39C0 340.563 104.637 348 233.714 348z"/>
    <path fill="#11345C" d="M407.008 333.51c-32.372-5.418-67.772-4.517-104.906 0 16.925-13.435 31.532-26.871 14.607-40.307 33.014 6.405 37.639 5.757 74.364 0-8.518 13.436 7.417 26.872 15.935 40.307z"/>
    <path fill="#2F2E41" d="M394.678 311.862c9.526 0 17.249-7.728 17.249-17.26 0-9.533-7.723-17.261-17.249-17.261s-17.249 7.728-17.249 17.261c0 9.532 7.723 17.26 17.249 17.26z"/>
    <path fill="#A0616A" d="M316.377 274.581l11.951 1.994 5.976 17.275-17.263 10.631-19.919-29.9H316.377z"/>
    <path fill="#A0616A" d="M350.239 301.158c15.402 0 27.887-12.493 27.887-27.905s-12.485-27.906-27.887-27.906c-15.401 0-27.886 12.494-27.886 27.906 0 15.412 12.485 27.905 27.886 27.905z"/>
    <path fill="#2F2E41" d="M196.2 171.596s-67.724 7.309-79.675 5.98c-11.951-1.329-17.263-2.657-17.263-2.657s-7.967 10.63-3.984 15.281a28.718 28.718 0 007.968 6.644s7.304-1.993 12.615 0c5.312 1.994 59.093 10.631 68.388 2.658 9.296-7.973 11.951-27.906 11.951-27.906z"/>
    <path fill="#2F2E41" d="M200.848 319.762s-44.485-12.624-52.453-68.435v-5.315s-8.802 15.452-11.951 18.603c-3.652 3.655-16.599 36.543-15.935 39.865.664 3.323 0 4.651 0 4.651l-19.255-1.993v-5.98s10.291-30.895 10.955-38.204c.664-7.308 25.563-58.137 25.563-58.137s9.295-19.268 25.23 0c15.935 19.269 17.263 32.557 17.263 32.557l20.583 39.865v42.523zM101.254 172.925l-21.247-7.308s-19.919-14.618-15.27 0c4.647 14.617 25.894 46.509 31.87 43.187 5.975-3.322 13.162-11.568 11.56-12.76-1.601-1.193-12.225-9.83-6.913-23.119z"/>
    <path fill="#2F2E41" d="M103.822 297.236l-17.151 8.382s-20.741 3.193-9.174 9.18 43.477 12.374 45.072 6.786c1.596-5.588.963-14.862-.715-14.616-1.678.246-13.245 1.444-18.032-9.732z"/>
    <path fill="#EC615B" d="M192.217 275.91s-8.632 37.208 5.975 45.181c14.607 7.973 116.857 9.302 124.825-5.315 7.967-14.618 3.984-14.618 3.984-14.618l-21.247-23.919 17.263-1.329s0-5.315-5.976-5.979c-5.975-.665-24.566-7.309-40.501-2.658-15.935 4.651-25.231-9.302-25.231-9.302l-59.092 17.939z"/>
    <path fill="#3F3D56" d="M180.929 159.637l-11.287 61.791 77.684-9.302 13.943-55.811-80.34 3.322z"/>
    <path fill="#fff" d="M183.253 161.962l-9.295 55.147 70.712-8.305 13.611-50.164-75.028 3.322z"/>
    <path fill="#B3B3B3" d="M172.298 222.093l-2.656-.665-1.328 2.657 21.247 59.134 1.998-.764.657-3.887-19.918-56.475z"/>
    <path fill="#D0CDE1" d="M169.642 220.763l21.247 61.792 80.339-11.96-23.902-58.469-77.684 8.637z"/>
    <path fill="#3F3D56" d="M180.266 218.77v3.323l59.092-6.645-.664-3.322-58.428 6.644zM181.593 225.415l9.296 25.912 60.42-7.309-10.623-24.583-59.093 5.98z"/>
    <path fill="#A0616A" d="M257.285 261.958l-1.992-5.316s-15.271-26.577-23.239-21.261c-7.967 5.315 16.599 31.228 16.599 31.228h7.968l.664-4.651zM206.824 265.944l-1.992-7.973s-5.312-24.583 3.984-23.255c9.295 1.329 11.951 24.584 11.951 24.584l-.664 5.315-13.279 1.329z"/>
    <path fill="#EC615B" d="M222.759 262.622s-17.263-2.658-17.927 1.329c-.664 3.986-3.984 63.784 12.615 65.777 16.599 1.994 98.93 10.631 90.299-9.966-8.632-20.597-21.911-17.939-21.911-17.939l-56.437 5.98-6.639-45.181zM274.88 270.263l-17.595-12.292-11.62 8.97 14.608 15.946 14.607-12.624z"/>
    <path fill="#000" d="M227.739 282.223l2.655 25.248 45.814-2.658-39.838-.664-8.631-21.926z" opacity=".2"/>
    <path fill="#2F2E41" d="M364.005 311.544c18.335 0 33.198-14.873 33.198-33.221 0-18.347-14.863-33.221-33.198-33.221s-33.198 14.874-33.198 33.221c0 18.348 14.863 33.221 33.198 33.221z"/>
    <path fill="#12335E" d="M193.213 181.231l41.165-1.434 3.984-15.177-42.493 1.283-2.656 15.328z"/>
    <path fill="#E6E6E6" d="M182.59 189.868l62.412-1.993.663-2.658-62.412 2.199-.663 2.452zM181.261 196.512l62.413-1.993.664-2.658-62.413 2.199-.664 2.452zM180.597 201.827l62.412-1.993.665-2.657-62.413 2.198-.664 2.452z"/>
  </g>
</svg>
