<svg width="300" height="187" viewBox="0 0 300 187" fill="none" xmlns="http://www.w3.org/2000/svg">
<path d="M260.1 148.603C257.306 145.05 255.488 141.029 254.794 136.822C254.7 136.915 254.606 137.024 254.531 137.118C255.169 137.071 255.713 137.18 256.219 137.507C256.5 137.694 256.894 137.367 256.613 137.18C255.975 136.775 255.319 136.588 254.531 136.65C254.325 136.666 254.231 136.791 254.269 136.946C254.981 141.201 256.8 145.252 259.631 148.836C259.819 149.086 260.306 148.852 260.1 148.603Z" fill="#E8E8E8"/>
<path d="M256.594 137.258C255.956 131.788 256.969 126.272 259.556 121.207C259.388 121.207 259.238 121.207 259.069 121.207C259.35 121.55 259.556 121.877 259.725 122.267C259.838 122.547 260.381 122.423 260.269 122.142C260.081 121.721 259.875 121.347 259.556 120.973C259.444 120.849 259.163 120.802 259.069 120.973C256.444 126.116 255.394 131.71 256.031 137.258C256.069 137.554 256.631 137.57 256.594 137.258Z" fill="#E8E8E8"/>
<path d="M260.438 122.064C261.094 120.74 261.825 119.431 262.65 118.184C263.344 117.14 264.338 115.036 266.138 115.332C267.956 115.628 268.556 117.639 268.95 118.901C269.381 120.303 269.569 121.753 269.625 123.186C269.738 125.898 269.475 128.625 269.25 131.321C269.006 134.188 268.613 137.055 267.806 139.86C266.925 142.977 265.613 145.985 263.944 148.852C263.794 149.117 264.263 149.366 264.431 149.086C266.081 146.265 267.394 143.304 268.275 140.25C269.194 137.118 269.606 133.923 269.85 130.713C270.094 127.518 270.469 124.246 270 121.051C269.719 119.135 269.044 114.927 265.894 114.802C264.244 114.74 263.381 116.174 262.688 117.171C261.619 118.698 260.7 120.288 259.894 121.924C259.763 122.22 260.306 122.345 260.438 122.064Z" fill="#E8E8E8"/>
<path d="M269.681 133.222C270.319 132.162 271.069 131.165 271.969 130.261C272.4 129.825 274.425 127.581 275.231 128.095C275.4 128.204 275.456 128.734 275.494 128.921C275.606 129.31 275.681 129.716 275.719 130.121C275.794 130.744 275.813 131.352 275.775 131.975C275.7 133.3 275.419 134.624 275.025 135.918C273.6 140.64 271.05 145.096 267.731 149.086C267.525 149.335 268.012 149.569 268.219 149.32C272.062 144.722 275.194 139.206 276.15 133.612C276.375 132.287 276.45 130.947 276.225 129.622C276.131 129.046 276 127.176 274.856 127.363C274.331 127.456 273.844 127.955 273.469 128.235C272.869 128.703 272.288 129.201 271.762 129.716C270.75 130.713 269.887 131.804 269.194 132.973C269.025 133.253 269.512 133.487 269.681 133.222Z" fill="#E8E8E8"/>
<path d="M122.269 149.195C119.794 146.842 117.75 144.193 116.213 141.341C116.175 141.45 116.138 141.559 116.119 141.668C116.869 141.388 117.619 141.279 118.444 141.325C118.8 141.341 118.8 140.873 118.444 140.858C117.525 140.811 116.681 140.951 115.838 141.263C115.688 141.325 115.688 141.481 115.744 141.59C117.319 144.489 119.381 147.153 121.894 149.538C122.1 149.756 122.513 149.429 122.269 149.195Z" fill="#E8E8E8"/>
<path d="M118.481 140.671C117 138.52 116.063 136.136 115.8 133.674C115.631 132.116 115.294 126.537 118.8 128.064C120.038 128.609 120.75 129.778 121.388 130.76C122.138 131.897 122.794 133.082 123.375 134.282C124.425 136.479 125.194 138.77 125.663 141.092C126.225 143.85 126.356 146.655 126.094 149.46C126.056 149.756 126.638 149.756 126.656 149.46C127.181 143.834 126.038 138.146 123.3 132.973C122.625 131.695 121.875 130.386 120.938 129.217C120.263 128.376 119.344 127.55 118.088 127.363C115.088 126.911 115.125 130.666 115.125 132.225C115.144 135.279 116.138 138.271 117.975 140.92C118.181 141.154 118.669 140.92 118.481 140.671Z" fill="#E8E8E8"/>
<path d="M125.044 136.744C124.931 135.575 125.344 130.246 128.006 131.368C130.125 132.256 130.575 135.014 130.688 136.759C130.819 138.738 130.725 140.733 130.669 142.712C130.594 144.785 130.406 146.842 129.544 148.805C129.413 149.086 129.956 149.21 130.088 148.93C131.156 146.53 131.213 143.974 131.269 141.45C131.325 139.066 131.569 136.526 130.8 134.188C130.369 132.895 128.831 130.043 126.619 130.9C125.681 131.274 125.269 132.334 124.969 133.097C124.519 134.297 124.369 135.528 124.481 136.775C124.5 137.055 125.063 137.055 125.044 136.744Z" fill="#E8E8E8"/>
<path d="M117.056 127.752C119.475 132.24 121.463 136.868 122.981 141.621C123.075 141.917 123.619 141.793 123.525 141.497C121.988 136.713 120 132.038 117.544 127.518C117.394 127.238 116.906 127.472 117.056 127.752Z" fill="#E8E8E8"/>
<path d="M115.5 133.908C118.369 134.749 120.694 136.479 122.025 138.754C122.194 139.019 122.663 138.785 122.513 138.52C121.106 136.136 118.65 134.344 115.65 133.456C115.312 133.362 115.162 133.814 115.5 133.908Z" fill="#E8E8E8"/>
<path d="M121.106 129.856C120.6 131.243 120.338 132.661 120.281 134.095C120.263 134.391 120.825 134.391 120.844 134.095C120.9 132.692 121.163 131.321 121.65 129.981C121.744 129.684 121.2 129.56 121.106 129.856Z" fill="#E8E8E8"/>
<path d="M124.894 133.908C126.656 135.622 127.913 137.585 128.663 139.751C128.756 140.047 129.3 139.923 129.206 139.627C128.438 137.383 127.125 135.341 125.306 133.58C125.063 133.347 124.669 133.674 124.894 133.908Z" fill="#E8E8E8"/>
<path d="M127.688 133.783C128.906 138.816 128.7 143.787 128.063 148.868C128.025 149.164 128.588 149.164 128.625 148.868C129.281 143.756 129.469 138.738 128.231 133.658C128.156 133.362 127.613 133.487 127.688 133.783Z" fill="#E8E8E8"/>
<path d="M91.1625 93.2663C91.1625 94.3727 91.1625 95.4791 91.1625 96.6011C91.1625 96.8972 91.725 96.8972 91.725 96.6011C91.725 95.4947 91.725 94.3882 91.725 93.2663C91.725 92.9702 91.1625 92.9702 91.1625 93.2663Z" fill="#E8E8E8"/>
<path d="M91.4438 96.9127C98.0063 96.9127 104.55 96.9127 111.113 96.9127C111.469 96.9127 111.469 96.4453 111.113 96.4453C104.55 96.4453 98.0063 96.4453 91.4438 96.4453C91.0875 96.4453 91.0875 96.9127 91.4438 96.9127Z" fill="#E8E8E8"/>
<path d="M91.4438 93.4533C98.0438 93.4533 104.644 93.4533 111.244 93.4533C111.6 93.4533 111.6 92.9858 111.244 92.9858C104.644 92.9858 98.0438 92.9858 91.4438 92.9858C91.0875 92.9858 91.0875 93.4533 91.4438 93.4533Z" fill="#E8E8E8"/>
<path d="M110.963 93.1883C110.963 94.3259 110.963 95.4635 110.963 96.6011C110.963 96.8972 111.525 96.8972 111.525 96.6011C111.525 95.4635 111.525 94.3259 111.525 93.1883C111.525 92.8767 110.963 92.8767 110.963 93.1883Z" fill="#E8E8E8"/>
<path d="M98.5688 96.8504C98.5688 97.801 98.5688 98.7516 98.5688 99.7022C98.5688 99.9983 99.1313 99.9983 99.1313 99.7022C99.1313 98.7516 99.1313 97.801 99.1313 96.8504C99.1313 96.5544 98.5688 96.5544 98.5688 96.8504Z" fill="#E8E8E8"/>
<path d="M98.8875 100.107C104.119 100.107 109.35 100.107 114.581 100.107C114.938 100.107 114.938 99.6398 114.581 99.6398C109.35 99.6398 104.119 99.6398 98.8875 99.6398C98.5125 99.6398 98.5125 100.107 98.8875 100.107Z" fill="#E8E8E8"/>
<path d="M111.281 96.9439C112.444 96.9439 113.606 96.9439 114.788 96.9439C115.144 96.9439 115.144 96.4764 114.788 96.4764C113.625 96.4764 112.463 96.4764 111.281 96.4764C110.906 96.4764 110.906 96.9439 111.281 96.9439Z" fill="#E8E8E8"/>
<path d="M114.525 96.8816C114.525 97.8478 114.525 98.8139 114.525 99.7957C114.525 100.092 115.088 100.092 115.088 99.7957C115.088 98.8295 115.088 97.8634 115.088 96.8816C115.088 96.5855 114.525 96.5855 114.525 96.8816Z" fill="#E8E8E8"/>
<path d="M112.725 99.9359C112.725 100.996 112.725 102.04 112.725 103.099C112.725 103.395 113.287 103.395 113.287 103.099C113.287 102.04 113.287 100.996 113.287 99.9359C113.287 99.6242 112.725 99.6242 112.725 99.9359Z" fill="#E8E8E8"/>
<path d="M113.081 103.349C117.394 103.349 121.706 103.349 126.019 103.349C126.375 103.349 126.375 102.881 126.019 102.881C121.706 102.881 117.394 102.881 113.081 102.881C112.706 102.881 112.706 103.349 113.081 103.349Z" fill="#E8E8E8"/>
<path d="M114.844 100.138C118.594 100.138 122.344 100.138 126.094 100.138C126.45 100.138 126.45 99.671 126.094 99.671C122.344 99.671 118.594 99.671 114.844 99.671C114.488 99.671 114.488 100.138 114.844 100.138Z" fill="#E8E8E8"/>
<path d="M125.775 99.8736C125.775 100.887 125.775 101.884 125.775 102.897C125.775 103.193 126.338 103.193 126.338 102.897C126.338 101.884 126.338 100.887 126.338 99.8736C126.338 99.5775 125.775 99.5775 125.775 99.8736Z" fill="#E8E8E8"/>
<path d="M112.988 102.866C109.406 102.866 105.825 102.866 102.244 102.866C101.888 102.866 101.888 103.333 102.244 103.333C105.825 103.333 109.406 103.333 112.988 103.333C113.344 103.333 113.344 102.866 112.988 102.866Z" fill="#E8E8E8"/>
<path d="M102.469 103.068C102.469 102.071 102.469 101.073 102.469 100.061C102.469 99.7645 101.906 99.7645 101.906 100.061C101.906 101.058 101.906 102.055 101.906 103.068C101.906 103.364 102.469 103.364 102.469 103.068Z" fill="#E8E8E8"/>
<path d="M79.3506 26.4449C79.3506 37.7117 79.3506 48.9629 79.3506 60.2296C79.3506 60.5257 79.9132 60.5257 79.9132 60.2296C79.9132 48.9629 79.9132 37.7117 79.9132 26.4449C79.9132 26.1488 79.3506 26.1488 79.3506 26.4449Z" fill="#E8E8E8"/>
<path d="M79.5938 60.5724C92.7938 60.5724 105.994 60.5724 119.194 60.5724C122.925 60.5724 126.675 60.5724 130.406 60.5724C130.762 60.5724 130.762 60.1049 130.406 60.1049C117.206 60.1049 104.006 60.1049 90.8062 60.1049C87.075 60.1049 83.325 60.1049 79.5938 60.1049C79.2375 60.1049 79.2375 60.5724 79.5938 60.5724Z" fill="#E8E8E8"/>
<path d="M79.725 26.4449C92.775 26.4449 105.825 26.4449 118.875 26.4449C122.569 26.4449 126.244 26.4449 129.938 26.4449C130.294 26.4449 130.294 25.9774 129.938 25.9774C116.888 25.9774 103.838 25.9774 90.7875 25.9774C87.0938 25.9774 83.4188 25.9774 79.725 25.9774C79.3688 25.9774 79.3688 26.4449 79.725 26.4449Z" fill="#E8E8E8"/>
<path d="M130.237 26.3514C130.237 37.6182 130.237 48.8849 130.237 60.1673C130.237 60.4633 130.8 60.4633 130.8 60.1673C130.8 48.9005 130.8 37.6338 130.8 26.3514C130.8 26.0554 130.237 26.0554 130.237 26.3514Z" fill="#E8E8E8"/>
<path d="M82.125 28.1591C82.125 38.335 82.125 48.5109 82.125 58.6713C82.125 58.9673 82.6875 58.9673 82.6875 58.6713C82.6875 48.4953 82.6875 38.3194 82.6875 28.1591C82.6875 27.8474 82.125 27.8474 82.125 28.1591Z" fill="#E8E8E8"/>
<path d="M82.3687 58.9985C97.4062 58.9985 112.444 58.9985 127.462 58.9985C127.819 58.9985 127.819 58.531 127.462 58.531C112.425 58.531 97.3875 58.531 82.3687 58.531C82.0125 58.531 81.9937 58.9985 82.3687 58.9985Z" fill="#E8E8E8"/>
<path d="M82.4813 28.1747C97.3313 28.1747 112.2 28.1747 127.05 28.1747C127.406 28.1747 127.406 27.7072 127.05 27.7072C112.2 27.7072 97.3313 27.7072 82.4813 27.7072C82.125 27.7072 82.125 28.1747 82.4813 28.1747Z" fill="#E8E8E8"/>
<path d="M127.275 28.0656C127.275 38.2415 127.275 48.433 127.275 58.6089C127.275 58.905 127.838 58.905 127.838 58.6089C127.838 48.433 127.838 38.2415 127.838 28.0656C127.838 27.7695 127.275 27.7695 127.275 28.0656Z" fill="#E8E8E8"/>
<path d="M104.194 28.2058C104.194 33.1769 104.194 38.1324 104.194 43.1035C104.194 43.3996 104.756 43.3996 104.756 43.1035C104.756 38.1324 104.756 33.1769 104.756 28.2058C104.756 27.8942 104.194 27.8942 104.194 28.2058Z" fill="#E8E8E8"/>
<path d="M104.475 42.8542C97.3313 42.8542 90.1688 42.8542 83.025 42.8542C82.6687 42.8542 82.6687 43.3217 83.025 43.3217C90.1688 43.3217 97.3313 43.3217 104.475 43.3217C104.831 43.3217 104.831 42.8542 104.475 42.8542Z" fill="#E8E8E8"/>
<path d="M106.987 28.2058C106.987 33.1302 106.987 38.0389 106.987 42.9633C106.987 43.2594 107.55 43.2594 107.55 42.9633C107.55 38.0389 107.55 33.1302 107.55 28.2058C107.55 27.8942 106.987 27.8942 106.987 28.2058Z" fill="#E8E8E8"/>
<path d="M107.269 43.4619C113.869 43.4619 120.469 43.4619 127.069 43.4619C127.425 43.4619 127.425 42.9944 127.069 42.9944C120.469 42.9944 113.869 42.9944 107.269 42.9944C106.894 42.9944 106.894 43.4619 107.269 43.4619Z" fill="#E8E8E8"/>
<path d="M82.8563 45.6436C90.0375 45.6436 97.2188 45.6436 104.381 45.6436C104.738 45.6436 104.738 45.1761 104.381 45.1761C97.2 45.1761 90.0188 45.1761 82.8563 45.1761C82.5 45.1761 82.4813 45.6436 82.8563 45.6436Z" fill="#E8E8E8"/>
<path d="M104.1 45.4722C104.1 49.8511 104.1 54.2144 104.1 58.5934C104.1 58.8894 104.662 58.8894 104.662 58.5934C104.662 54.2144 104.662 49.8511 104.662 45.4722C104.662 45.1761 104.1 45.1761 104.1 45.4722Z" fill="#E8E8E8"/>
<path d="M106.894 45.815C106.894 50.0693 106.894 54.3235 106.894 58.5934C106.894 58.8894 107.456 58.8894 107.456 58.5934C107.456 54.3391 107.456 50.0849 107.456 45.815C107.456 45.5189 106.894 45.5189 106.894 45.815Z" fill="#E8E8E8"/>
<path d="M107.1 46.1267C113.869 46.1267 120.637 46.1267 127.406 46.1267C127.762 46.1267 127.762 45.6592 127.406 45.6592C120.637 45.6592 113.869 45.6592 107.1 45.6592C106.744 45.6592 106.725 46.1267 107.1 46.1267Z" fill="#E8E8E8"/>
<path d="M121.125 28.3149C116.906 32.2731 112.95 36.4182 109.238 40.7192C109.031 40.9686 109.519 41.2023 109.725 40.953C113.4 36.6831 117.338 32.5692 121.519 28.6422C121.763 28.424 121.369 28.0811 121.125 28.3149Z" fill="#E8E8E8"/>
<path d="M121.088 34.0808C119.138 36.0442 117.188 38.0077 115.238 39.9557C115.013 40.1894 115.406 40.5167 115.631 40.2829C117.581 38.3194 119.531 36.3559 121.481 34.408C121.706 34.1743 121.313 33.847 121.088 34.0808Z" fill="#E8E8E8"/>
<path d="M85.0125 58.4219C89.925 54.3391 94.8375 50.2407 99.75 46.1579C100.013 45.9397 99.6 45.6124 99.3563 45.8306C94.4438 49.9134 89.5313 54.0119 84.6188 58.0947C84.375 58.2973 84.7688 58.6245 85.0125 58.4219Z" fill="#E8E8E8"/>
<path d="M93.5063 56.9883C95.175 55.2118 96.9375 53.5288 98.8313 51.9237C99.0938 51.7055 98.6813 51.3783 98.4375 51.5964C96.5438 53.2015 94.7625 54.8845 93.1125 56.661C92.8875 56.8948 93.2813 57.2376 93.5063 56.9883Z" fill="#E8E8E8"/>
<path d="M221.513 25.9307C221.513 37.1974 221.513 48.4486 221.513 59.7153C221.513 60.0114 222.075 60.0114 222.075 59.7153C222.075 48.4486 222.075 37.1974 222.075 25.9307C222.075 25.6346 221.513 25.6346 221.513 25.9307Z" fill="#E8E8E8"/>
<path d="M221.756 60.0582C234.956 60.0582 248.156 60.0582 261.356 60.0582C265.088 60.0582 268.838 60.0582 272.569 60.0582C272.925 60.0582 272.925 59.5907 272.569 59.5907C259.369 59.5907 246.169 59.5907 232.969 59.5907C229.238 59.5907 225.488 59.5907 221.756 59.5907C221.4 59.5907 221.4 60.0582 221.756 60.0582Z" fill="#E8E8E8"/>
<path d="M221.887 25.9463C234.937 25.9463 247.987 25.9463 261.037 25.9463C264.731 25.9463 268.406 25.9463 272.1 25.9463C272.456 25.9463 272.456 25.4788 272.1 25.4788C259.05 25.4788 246 25.4788 232.95 25.4788C229.256 25.4788 225.581 25.4788 221.887 25.4788C221.531 25.4788 221.531 25.9463 221.887 25.9463Z" fill="#E8E8E8"/>
<path d="M272.4 25.8372C272.4 37.1039 272.4 48.3707 272.4 59.653C272.4 59.9491 272.963 59.9491 272.963 59.653C272.963 48.3863 272.963 37.1195 272.963 25.8372C272.963 25.5411 272.4 25.5411 272.4 25.8372Z" fill="#E8E8E8"/>
<path d="M224.287 27.6448C224.287 37.8207 224.287 47.9967 224.287 58.157C224.287 58.4531 224.85 58.4531 224.85 58.157C224.85 47.9811 224.85 37.8052 224.85 27.6448C224.85 27.3332 224.287 27.3332 224.287 27.6448Z" fill="#E8E8E8"/>
<path d="M224.531 58.4843C239.569 58.4843 254.606 58.4843 269.625 58.4843C269.981 58.4843 269.981 58.0168 269.625 58.0168C254.587 58.0168 239.55 58.0168 224.531 58.0168C224.156 58.0168 224.156 58.4843 224.531 58.4843Z" fill="#E8E8E8"/>
<path d="M224.644 27.6604C239.494 27.6604 254.363 27.6604 269.213 27.6604C269.569 27.6604 269.569 27.1929 269.213 27.1929C254.363 27.1929 239.494 27.1929 224.644 27.1929C224.288 27.1929 224.288 27.6604 224.644 27.6604Z" fill="#E8E8E8"/>
<path d="M269.438 27.5513C269.438 37.7273 269.438 47.9188 269.438 58.0947C269.438 58.3908 270 58.3908 270 58.0947C270 47.9188 270 37.7273 270 27.5513C270 27.2552 269.438 27.2552 269.438 27.5513Z" fill="#E8E8E8"/>
<path d="M246.356 27.6916C246.356 32.6627 246.356 37.6182 246.356 42.5892C246.356 42.8853 246.919 42.8853 246.919 42.5892C246.919 37.6182 246.919 32.6627 246.919 27.6916C246.919 27.3799 246.356 27.3799 246.356 27.6916Z" fill="#E8E8E8"/>
<path d="M246.637 42.3399C239.494 42.3399 232.331 42.3399 225.187 42.3399C224.831 42.3399 224.831 42.8074 225.187 42.8074C232.331 42.8074 239.494 42.8074 246.637 42.8074C246.994 42.8074 246.994 42.3399 246.637 42.3399Z" fill="#E8E8E8"/>
<path d="M249.15 27.6916C249.15 32.6159 249.15 37.5247 249.15 42.449C249.15 42.7451 249.713 42.7451 249.713 42.449C249.713 37.5247 249.713 32.6159 249.713 27.6916C249.713 27.3799 249.15 27.3799 249.15 27.6916Z" fill="#E8E8E8"/>
<path d="M249.431 42.9477C256.031 42.9477 262.631 42.9477 269.231 42.9477C269.587 42.9477 269.587 42.4802 269.231 42.4802C262.631 42.4802 256.031 42.4802 249.431 42.4802C249.056 42.4802 249.056 42.9477 249.431 42.9477Z" fill="#E8E8E8"/>
<path d="M225.019 45.1294C232.2 45.1294 239.381 45.1294 246.544 45.1294C246.9 45.1294 246.9 44.6619 246.544 44.6619C239.363 44.6619 232.181 44.6619 225.019 44.6619C224.644 44.6619 224.644 45.1294 225.019 45.1294Z" fill="#E8E8E8"/>
<path d="M246.263 44.9735C246.263 49.3524 246.263 53.7158 246.263 58.0947C246.263 58.3908 246.825 58.3908 246.825 58.0947C246.825 53.7158 246.825 49.3524 246.825 44.9735C246.825 44.6619 246.263 44.6619 246.263 44.9735Z" fill="#E8E8E8"/>
<path d="M249.056 45.3163C249.056 49.5706 249.056 53.8248 249.056 58.0947C249.056 58.3908 249.619 58.3908 249.619 58.0947C249.619 53.8404 249.619 49.5862 249.619 45.3163C249.619 45.0047 249.056 45.0047 249.056 45.3163Z" fill="#E8E8E8"/>
<path d="M249.263 45.6124C256.031 45.6124 262.8 45.6124 269.569 45.6124C269.925 45.6124 269.925 45.1449 269.569 45.1449C262.8 45.1449 256.031 45.1449 249.263 45.1449C248.888 45.1449 248.888 45.6124 249.263 45.6124Z" fill="#E8E8E8"/>
<path d="M263.288 27.8007C259.069 31.7588 255.113 35.904 251.4 40.205C251.194 40.4543 251.681 40.6881 251.888 40.4388C255.563 36.1689 259.5 32.0549 263.681 28.1279C263.925 27.9098 263.531 27.5825 263.288 27.8007Z" fill="#E8E8E8"/>
<path d="M263.25 33.5665C261.3 35.53 259.35 37.4935 257.4 39.4414C257.175 39.6752 257.569 40.0024 257.794 39.7687C259.744 37.8052 261.694 35.8417 263.644 33.8937C263.869 33.66 263.475 33.3327 263.25 33.5665Z" fill="#E8E8E8"/>
<path d="M227.175 57.9077C232.087 53.8249 237 49.7264 241.912 45.6436C242.175 45.4254 241.762 45.0982 241.519 45.3164C236.606 49.3992 231.694 53.4976 226.781 57.5804C226.537 57.783 226.931 58.1103 227.175 57.9077Z" fill="#E8E8E8"/>
<path d="M235.669 56.4896C237.338 54.7131 239.1 53.0301 240.994 51.425C241.256 51.2068 240.844 50.8796 240.6 51.0978C238.706 52.7028 236.925 54.3858 235.275 56.1623C235.05 56.3805 235.444 56.7233 235.669 56.4896Z" fill="#E8E8E8"/>
<path d="M220.5 76.3895C227.119 76.3895 233.756 76.3895 240.375 76.3895C240.731 76.3895 240.731 75.922 240.375 75.922C233.756 75.922 227.119 75.922 220.5 75.922C220.144 75.922 220.144 76.3895 220.5 76.3895Z" fill="#E8E8E8"/>
<path d="M230.213 76.3583C230.213 77.4024 230.213 78.4309 230.213 79.475C230.213 79.7711 230.775 79.7711 230.775 79.475C230.775 78.4309 230.775 77.4024 230.775 76.3583C230.775 76.0623 230.213 76.0623 230.213 76.3583Z" fill="#E8E8E8"/>
<path d="M230.494 79.7088C235.706 79.7088 240.919 79.7088 246.113 79.7088C246.469 79.7088 246.469 79.2412 246.113 79.2412C240.9 79.2412 235.688 79.2412 230.494 79.2412C230.137 79.2412 230.137 79.7088 230.494 79.7088Z" fill="#E8E8E8"/>
<path d="M240.338 76.2493C240.338 77.2466 240.338 78.2595 240.338 79.2568C240.338 79.5529 240.9 79.5529 240.9 79.2568C240.9 78.2595 240.9 77.2466 240.9 76.2493C240.9 75.9532 240.338 75.9532 240.338 76.2493Z" fill="#E8E8E8"/>
<path d="M220.781 76.0467C220.781 75.2208 220.781 74.3793 220.781 73.5533C220.781 73.2573 220.219 73.2573 220.219 73.5533C220.219 74.3793 220.219 75.2208 220.219 76.0467C220.219 76.3428 220.781 76.3428 220.781 76.0467Z" fill="#E8E8E8"/>
<path d="M220.744 73.678C225.581 73.678 230.419 73.678 235.237 73.678C235.594 73.678 235.594 73.2105 235.237 73.2105C230.4 73.2105 225.562 73.2105 220.744 73.2105C220.388 73.2105 220.388 73.678 220.744 73.678Z" fill="#E8E8E8"/>
<path d="M235.088 73.7559C235.088 74.5507 235.088 75.3454 235.088 76.1402C235.088 76.4363 235.65 76.4363 235.65 76.1402C235.65 75.3454 235.65 74.5507 235.65 73.7559C235.65 73.4598 235.088 73.4598 235.088 73.7559Z" fill="#E8E8E8"/>
<path d="M217.5 79.8178C222.131 79.8178 226.744 79.8178 231.375 79.8178C231.731 79.8178 231.731 79.3503 231.375 79.3503C226.744 79.3503 222.131 79.3503 217.5 79.3503C217.144 79.3503 217.144 79.8178 217.5 79.8178Z" fill="#E8E8E8"/>
<path d="M217.088 79.7867C217.088 80.6593 217.088 81.5164 217.088 82.3891C217.088 82.6852 217.65 82.6852 217.65 82.3891C217.65 81.5164 217.65 80.6593 217.65 79.7867C217.65 79.4906 217.088 79.4906 217.088 79.7867Z" fill="#E8E8E8"/>
<path d="M217.369 82.8254C221.794 82.8254 226.2 82.8254 230.625 82.8254C230.981 82.8254 230.981 82.3579 230.625 82.3579C226.2 82.3579 221.794 82.3579 217.369 82.3579C217.012 82.3579 217.012 82.8254 217.369 82.8254Z" fill="#E8E8E8"/>
<path d="M230.344 79.7867C230.344 80.6905 230.344 81.5943 230.344 82.4826C230.344 82.7787 230.906 82.7787 230.906 82.4826C230.906 81.5787 230.906 80.6749 230.906 79.7867C230.906 79.4906 230.344 79.4906 230.344 79.7867Z" fill="#E8E8E8"/>
<path d="M124.65 69.5173C132.825 69.5173 140.981 69.5173 149.156 69.5173C149.512 69.5173 149.512 69.0498 149.156 69.0498C140.981 69.0498 132.825 69.0498 124.65 69.0498C124.294 69.0498 124.294 69.5173 124.65 69.5173Z" fill="#E8E8E8"/>
<path d="M124.819 69.2835C124.819 68.4108 124.819 67.5382 124.819 66.6655C124.819 66.3694 124.256 66.3694 124.256 66.6655C124.256 67.5382 124.256 68.4108 124.256 69.2835C124.256 69.5796 124.819 69.5796 124.819 69.2835Z" fill="#E8E8E8"/>
<path d="M124.856 66.6188C129.225 66.6188 133.613 66.6188 137.981 66.6188C138.338 66.6188 138.338 66.1513 137.981 66.1513C133.613 66.1513 129.225 66.1513 124.856 66.1513C124.5 66.1513 124.5 66.6188 124.856 66.6188Z" fill="#E8E8E8"/>
<path d="M137.7 66.6655C137.7 67.507 137.7 68.3485 137.7 69.19C137.7 69.4861 138.262 69.4861 138.262 69.19C138.262 68.3485 138.262 67.507 138.262 66.6655C138.262 66.3538 137.7 66.3538 137.7 66.6655Z" fill="#E8E8E8"/>
<path d="M134.119 69.6419C134.119 70.5146 134.119 71.3872 134.119 72.2599C134.119 72.556 134.681 72.556 134.681 72.2599C134.681 71.3872 134.681 70.5146 134.681 69.6419C134.681 69.3302 134.119 69.3302 134.119 69.6419Z" fill="#E8E8E8"/>
<path d="M134.512 72.6651C139.275 72.6651 144.056 72.6651 148.819 72.6651C149.175 72.6651 149.175 72.1976 148.819 72.1976C144.056 72.1976 139.275 72.1976 134.512 72.1976C134.156 72.1976 134.156 72.6651 134.512 72.6651Z" fill="#E8E8E8"/>
<path d="M148.875 69.5484C148.875 70.5458 148.875 71.5275 148.875 72.5249C148.875 72.8209 149.437 72.8209 149.437 72.5249C149.437 71.5275 149.437 70.5458 149.437 69.5484C149.437 69.2523 148.875 69.2523 148.875 69.5484Z" fill="#E8E8E8"/>
<path d="M137.588 72.6028C137.588 73.4131 137.588 74.2234 137.588 75.0338C137.588 75.3298 138.15 75.3298 138.15 75.0338C138.15 74.2234 138.15 73.4131 138.15 72.6028C138.15 72.3067 137.588 72.3067 137.588 72.6028Z" fill="#E8E8E8"/>
<path d="M137.663 74.987C133.5 74.987 129.356 74.987 125.194 74.987C124.838 74.987 124.838 75.4545 125.194 75.4545C129.356 75.4545 133.5 75.4545 137.663 75.4545C138.019 75.4545 138.019 74.987 137.663 74.987Z" fill="#E8E8E8"/>
<path d="M135.056 72.2911C131.794 72.2911 128.55 72.2911 125.288 72.2911C124.931 72.2911 124.931 72.7586 125.288 72.7586C128.55 72.7586 131.794 72.7586 135.056 72.7586C135.413 72.7586 135.413 72.2911 135.056 72.2911Z" fill="#E8E8E8"/>
<path d="M125.025 72.5248C125.025 73.3975 125.025 74.2702 125.025 75.1428C125.025 75.4389 125.588 75.4389 125.588 75.1428C125.588 74.2702 125.588 73.3975 125.588 72.5248C125.588 72.2132 125.025 72.2132 125.025 72.5248Z" fill="#E8E8E8"/>
<path d="M254.7 107.728C259.856 107.728 265.013 107.728 270.169 107.728C270.525 107.728 270.525 107.26 270.169 107.26C265.013 107.26 259.856 107.26 254.7 107.26C254.344 107.26 254.344 107.728 254.7 107.728Z" fill="#E8E8E8"/>
<path d="M263.906 107.369C263.906 106.403 263.906 105.437 263.906 104.471C263.906 104.175 263.344 104.175 263.344 104.471C263.344 105.437 263.344 106.403 263.344 107.369C263.344 107.665 263.906 107.665 263.906 107.369Z" fill="#E8E8E8"/>
<path d="M263.775 104.642C268.181 104.642 272.588 104.642 277.013 104.642C277.369 104.642 277.369 104.175 277.013 104.175C272.606 104.175 268.2 104.175 263.775 104.175C263.4 104.175 263.4 104.642 263.775 104.642Z" fill="#E8E8E8"/>
<path d="M276.713 104.533C276.713 105.359 276.713 106.185 276.713 107.011C276.713 107.307 277.275 107.307 277.275 107.011C277.275 106.185 277.275 105.359 277.275 104.533C277.275 104.221 276.713 104.221 276.713 104.533Z" fill="#E8E8E8"/>
<path d="M269.794 107.665C272.119 107.665 274.444 107.665 276.788 107.665C277.144 107.665 277.144 107.198 276.788 107.198C274.463 107.198 272.138 107.198 269.794 107.198C269.419 107.198 269.419 107.665 269.794 107.665Z" fill="#E8E8E8"/>
<path d="M254.119 107.743C254.119 108.491 254.119 109.224 254.119 109.972C254.119 110.268 254.681 110.268 254.681 109.972C254.681 109.224 254.681 108.491 254.681 107.743C254.681 107.447 254.119 107.432 254.119 107.743Z" fill="#E8E8E8"/>
<path d="M254.475 110.439C259.35 110.439 264.244 110.439 269.119 110.439C269.475 110.439 269.475 109.972 269.119 109.972C264.244 109.972 259.35 109.972 254.475 109.972C254.119 109.972 254.119 110.439 254.475 110.439Z" fill="#E8E8E8"/>
<path d="M268.988 107.556C268.988 108.398 268.988 109.239 268.988 110.096C268.988 110.392 269.55 110.392 269.55 110.096C269.55 109.255 269.55 108.413 269.55 107.556C269.55 107.26 268.988 107.26 268.988 107.556Z" fill="#E8E8E8"/>
<path d="M256.181 100.871C260.906 100.871 265.65 100.871 270.375 100.871C270.731 100.871 270.731 100.403 270.375 100.403C265.65 100.403 260.906 100.403 256.181 100.403C255.825 100.403 255.825 100.871 256.181 100.871Z" fill="#E8E8E8"/>
<path d="M270.094 100.824C270.094 102.024 270.094 103.208 270.094 104.408C270.094 104.704 270.656 104.704 270.656 104.408C270.656 103.208 270.656 102.024 270.656 100.824C270.656 100.512 270.094 100.512 270.094 100.824Z" fill="#E8E8E8"/>
<path d="M256.05 100.7C256.05 101.806 256.05 102.928 256.05 104.034C256.05 104.33 256.613 104.33 256.613 104.034C256.613 102.928 256.613 101.806 256.613 100.7C256.613 100.403 256.05 100.403 256.05 100.7Z" fill="#E8E8E8"/>
<path d="M256.706 104.517C260.044 104.517 263.4 104.517 266.737 104.517C267.094 104.517 267.094 104.05 266.737 104.05C263.4 104.05 260.044 104.05 256.706 104.05C256.35 104.05 256.35 104.517 256.706 104.517Z" fill="#E8E8E8"/>
<path d="M100.05 149.693C103.125 149.693 106.2 149.693 109.275 149.693C109.631 149.693 109.631 149.226 109.275 149.226C106.2 149.226 103.125 149.226 100.05 149.226C99.6937 149.226 99.6937 149.693 100.05 149.693Z" fill="#161616"/>
<path d="M76.4063 149.725C103.238 149.725 130.05 149.725 156.881 149.725C183.562 149.725 210.262 149.725 236.944 149.725C252 149.725 267.056 149.725 282.112 149.725C282.844 149.725 282.844 148.79 282.112 148.79C255.281 148.79 228.469 148.79 201.637 148.79C174.956 148.79 148.256 148.79 121.575 148.79C106.519 148.79 91.4625 148.79 76.4063 148.79C75.675 148.79 75.675 149.725 76.4063 149.725Z" fill="#161616"/>
<path d="M246.169 152.872C259.181 152.872 272.175 152.872 285.187 152.872C285.919 152.872 285.919 151.938 285.187 151.938C272.175 151.938 259.181 151.938 246.169 151.938C245.456 151.938 245.456 152.872 246.169 152.872Z" fill="#161616"/>
<path d="M112.35 164.653C126.938 164.653 141.506 164.653 156.094 164.653C156.825 164.653 156.825 163.718 156.094 163.718C141.506 163.718 126.938 163.718 112.35 163.718C111.619 163.718 111.619 164.653 112.35 164.653Z" fill="#161616"/>
<path d="M33.375 160.088C43.1063 160.088 52.8375 160.088 62.5688 160.088C63.3 160.088 63.3 159.153 62.5688 159.153C52.8375 159.153 43.1063 159.153 33.375 159.153C32.6438 159.153 32.6438 160.088 33.375 160.088Z" fill="#161616"/>
<path d="M68.7188 155.833C79.3875 155.833 90.0562 155.833 100.725 155.833C101.456 155.833 101.456 154.898 100.725 154.898C90.0562 154.898 79.3875 154.898 68.7188 154.898C67.9875 154.898 67.9875 155.833 68.7188 155.833Z" fill="#161616"/>
<path d="M61.8562 143.211C76.2562 136.65 90 129.124 103.444 121.285C116.906 113.431 130.125 105.265 143.569 97.3803C151.106 92.9702 158.719 88.638 166.481 84.5084C166.781 84.3526 166.5 83.9474 166.2 84.1032C152.344 91.4742 138.994 99.4684 125.662 107.478C112.35 115.488 99.0375 123.529 85.2562 130.962C77.5312 135.123 69.675 139.112 61.5937 142.79C61.2562 142.946 61.5375 143.351 61.8562 143.211Z" fill="#161616"/>
<path d="M51.4312 140.001C50.3062 140.515 49.5562 141.185 49.1625 141.543C48.5625 142.089 48.15 142.447 47.8312 142.993C47.3437 143.865 47.4 144.847 47.55 146.779C47.6625 148.213 47.775 148.073 47.7 148.4C47.2875 150.177 44.9437 150.504 45 151.704C45.0375 152.452 45.9375 153.06 46.7062 153.278C47.8875 153.621 49.3125 153.184 50.1562 152.171C49.2562 152.545 47.9437 153.262 47.1187 154.54C46.8187 155.007 46.425 155.615 46.6875 155.911C47.1375 156.426 49.1812 155.818 51 155.163C50.9062 155.522 50.8875 155.958 51.1875 156.27C51.9187 157.033 54.075 156.426 54.6375 156.27C55.275 156.083 55.3687 155.989 58.2375 154.493C59.7375 153.714 60.2625 153.449 61.125 152.919C61.8562 152.467 62.4187 152.078 62.8312 151.782C64.1812 151.813 65.8125 151.751 67.6125 151.47C71.0062 150.925 73.6125 149.818 75.2812 148.946C75.4125 149.397 75.525 149.865 75.6562 150.317C74.025 151.158 72.7687 151.782 71.9062 152.202C71.3625 152.467 70.8 152.748 70.8562 152.95C70.95 153.247 72.225 153.231 73.0312 153.231C73.9312 153.231 74.6812 153.137 75.2062 153.075C75.2437 153.184 75.375 153.48 75.7312 153.621C76.2562 153.854 76.9312 153.589 76.9125 153.543C76.9125 153.511 76.6312 153.511 76.6312 153.496C76.6312 153.465 78.675 153.465 80.0812 153.371C81.2625 153.293 82.9875 153.106 85.1062 152.545C85.4625 151.345 85.5375 150.41 85.5375 149.756C85.5375 149.273 85.5 149.023 85.5937 148.54C85.7625 147.59 86.1187 147.278 86.3062 146.577C86.4375 146.109 86.475 145.408 86.1187 144.489C86.7375 144.286 87.15 144.006 87.3937 143.819C87.45 143.772 88.725 142.743 88.575 141.341C88.5375 141.045 88.5 140.655 88.2 140.515C87.7125 140.297 86.8687 140.858 86.4562 141.263C85.725 141.964 85.6875 142.837 85.7062 143.226C85.2 142.572 84.1875 141.45 82.4437 140.749C81.75 140.468 81.0562 140.297 80.3062 140.203C76.7812 139.705 72.6375 140.718 70.0312 141.497C66.6187 142.525 64.9875 143.413 62.8875 143.117C62.25 143.024 60.8625 142.821 59.9062 141.933C59.5312 141.59 59.4937 141.388 59.0062 140.905C58.8375 140.733 57.9562 139.876 56.8312 139.455C54.5437 138.583 51.9562 139.767 51.4312 140.001Z" fill="white"/>
<path d="M61.0313 142.821C60.6 143.647 60 144.395 59.25 145.065C59.0063 145.283 59.4 145.611 59.6438 145.392C60.4313 144.707 61.05 143.928 61.5 143.055C61.6688 142.774 61.1813 142.541 61.0313 142.821Z" fill="#EC615B"/>
<path d="M61.2937 143.008C60.8625 144.006 60.2062 144.878 59.325 145.626C59.0812 145.844 59.475 146.172 59.7187 145.953C60.675 145.143 61.3687 144.193 61.8375 143.133C61.95 142.852 61.4062 142.728 61.2937 143.008Z" fill="#EC615B"/>
<path d="M52.05 143.663C52.4062 145.564 52.7437 147.527 53.85 149.257C54.6375 150.504 56.2875 151.688 58.05 150.925C59.7937 150.161 60.0375 148.291 59.925 146.826C59.7937 145.221 59.1187 143.678 57.7125 142.541C57.45 142.338 57.0562 142.665 57.3187 142.868C58.5 143.834 59.1375 145.112 59.325 146.468C59.5125 147.855 59.4562 149.865 57.6937 150.551C55.5562 151.361 54.225 149.023 53.7 147.714C53.1375 146.359 52.875 144.956 52.6312 143.538C52.5375 143.242 51.9937 143.367 52.05 143.663Z" fill="#161616"/>
<path d="M51.338 139.751C49.2193 140.982 47.288 142.572 47.0068 144.816C46.9505 145.346 46.988 145.876 47.138 146.374C47.363 147.107 47.8505 147.714 47.3255 148.462C46.5005 149.647 45.3193 150.753 44.3443 151.86C44.138 152.109 44.6255 152.343 44.8318 152.093C45.7505 151.049 46.7068 150.021 47.588 148.961C48.3381 148.073 48.1318 147.481 47.7755 146.483C46.763 143.787 49.1818 141.559 51.6381 140.141C51.9193 139.985 51.638 139.58 51.338 139.751Z" fill="#161616"/>
<path d="M44.325 152.265C45.1125 152.857 45.975 153.496 47.0813 153.589C48.0938 153.667 49.0688 153.215 49.8563 152.748C51.6375 151.704 52.9125 150.223 53.7375 148.556C53.8688 148.275 53.325 148.151 53.1938 148.431C52.5375 149.771 51.525 151.003 50.1938 151.938C49.4438 152.452 48.4688 153.075 47.4563 153.122C46.35 153.184 45.4688 152.499 44.7188 151.922C44.4563 151.735 44.0625 152.062 44.325 152.265Z" fill="#161616"/>
<path d="M47.925 146.748C48.2062 147.185 48.525 147.59 48.9187 147.948C49.1625 148.182 49.5562 147.839 49.3125 147.621C48.9562 147.278 48.6562 146.904 48.4125 146.515C48.225 146.25 47.7562 146.483 47.925 146.748Z" fill="#161616"/>
<path d="M45.1875 151.439C45.5625 151.797 45.675 152.249 45.6188 152.701C45.5813 152.997 46.1438 152.997 46.1813 152.701C46.2563 152.125 46.05 151.548 45.5813 151.112C45.3375 150.893 44.9438 151.221 45.1875 151.439Z" fill="#161616"/>
<path d="M44.6813 152.124C44.9063 152.265 45.1125 152.421 45.3375 152.561C45.5625 152.717 45.975 152.514 45.7875 152.28C45.6375 152.093 45.5438 151.875 45.5438 151.641C45.375 151.688 45.1875 151.719 45.0188 151.766C45.075 151.828 45.1313 151.891 45.1688 151.953C45.375 152.202 45.8625 151.969 45.6563 151.719C45.6 151.657 45.5438 151.595 45.5063 151.532C45.3563 151.361 44.9813 151.408 44.9813 151.657C44.9813 151.969 45.0938 152.265 45.3 152.53C45.45 152.436 45.6 152.343 45.75 152.249C45.525 152.109 45.3188 151.953 45.0938 151.813C44.9813 151.735 44.8125 151.719 44.7 151.813C44.5875 151.875 44.5688 152.047 44.6813 152.124Z" fill="#161616"/>
<path d="M55.8187 139.409C57.4312 139.736 58.5187 140.764 59.4937 141.808C60.4312 142.79 61.0687 143.32 62.6437 143.242C65.9062 143.071 69.0187 142.042 72.1125 141.263C75.3 140.468 79.3312 139.596 82.4812 140.936C85.7437 142.323 86.9625 145.657 85.3312 148.353C85.1625 148.618 85.65 148.852 85.8187 148.587C88.1625 144.691 85.05 140.312 79.95 139.86C74.1 139.346 68.8125 142.229 63.1125 142.728C62.0437 142.821 61.1437 142.774 60.3937 142.027C59.9437 141.575 59.5312 141.091 59.0625 140.655C58.2 139.86 57.2062 139.206 55.9312 138.941C55.6125 138.879 55.4625 139.331 55.8187 139.409Z" fill="#161616"/>
<path d="M79.7625 143.865C78.3 144.831 77.2313 146.094 77.3438 147.714C77.4563 149.148 78.4875 150.379 80.025 151.034C80.3437 151.174 80.625 150.769 80.3062 150.628C78.8625 150.005 77.8875 148.836 77.9063 147.449C77.925 146.047 78.9 145.018 80.1563 144.193C80.4375 144.021 80.0438 143.678 79.7625 143.865Z" fill="#161616"/>
<path d="M80.0625 150.909C79.0125 151.174 77.9812 151.486 76.9687 151.86C76.4062 152.078 75.0187 152.389 74.8312 152.966C74.4375 154.181 78.075 153.698 78.6187 153.667C79.7062 153.605 80.7937 153.511 81.8812 153.371C82.8375 153.246 84.1312 153.231 84.9937 152.841C85.65 152.561 85.5937 151.953 85.6312 151.408C85.725 150.332 85.8375 149.273 85.9312 148.197C85.9687 147.901 85.4062 147.901 85.3687 148.197C85.3125 148.883 85.2375 149.553 85.1812 150.239C85.125 150.862 85.2937 152.109 84.5625 152.467C84.0562 152.717 83.175 152.717 82.5937 152.795C81.675 152.919 80.775 153.028 79.8375 153.106C79.0687 153.169 78.3 153.215 77.5312 153.231C77.1187 153.246 76.7062 153.278 76.2937 153.262C75.9375 153.246 75.3375 153.356 75.5812 152.935C75.6937 152.763 76.4062 152.561 76.6312 152.483C77.0625 152.311 77.5125 152.14 77.9625 151.984C78.6937 151.735 79.4437 151.532 80.1937 151.345C80.5687 151.267 80.4187 150.816 80.0625 150.909Z" fill="#161616"/>
<path d="M59.4562 147.714C59.5875 150.317 57.0187 152.062 54.5062 153.184C53.4375 153.652 49.4062 154.711 50.8312 156.301C52.0875 157.703 55.1812 156.254 56.55 155.646C58.9125 154.602 60.975 153.184 63.0375 151.766C63.3187 151.579 62.925 151.252 62.6437 151.439C60.8625 152.654 59.0812 153.885 57.0937 154.852C56.0812 155.35 55.0125 155.787 53.8875 156.098C53.25 156.27 52.4062 156.55 51.7687 156.285C50.4562 155.755 51.5437 154.961 52.2937 154.618C55.6687 153.137 60.225 151.486 60.0187 147.699C60 147.418 59.4375 147.418 59.4562 147.714Z" fill="#161616"/>
<path d="M48.5063 146.764C48.6 146.234 48.9375 145.751 49.5188 145.502C49.8375 145.361 49.5563 144.956 49.2375 145.096C48.525 145.408 48.075 146 47.9625 146.639C47.9063 146.935 48.45 147.06 48.5063 146.764Z" fill="#161616"/>
<path d="M50.85 151.221C50.55 151.688 49.9875 151.953 49.5 152.28C48.9938 152.623 48.5063 152.997 48.0375 153.387C47.475 153.87 46.2188 154.711 46.1625 155.444C46.0313 157.251 50.0813 155.693 50.85 155.49C51.1875 155.397 51.0375 154.945 50.7 155.039C49.8563 155.272 49.0313 155.522 48.1688 155.724C47.925 155.802 47.6625 155.849 47.4188 155.864C46.95 155.413 46.9313 155.023 47.325 154.727C47.5125 154.462 47.85 154.228 48.0938 154.01C48.6563 153.511 49.2563 153.044 49.8938 152.608C50.4188 152.249 51 151.969 51.3188 151.454C51.5063 151.19 51.0188 150.956 50.85 151.221Z" fill="#161616"/>
<path d="M62.9813 151.938C68.25 151.953 73.425 150.597 77.7188 148.057C78.0188 147.886 77.7375 147.481 77.4375 147.652C73.2188 150.145 68.175 151.486 62.9813 151.47C62.625 151.454 62.625 151.922 62.9813 151.938Z" fill="#161616"/>
<path d="M74.8125 149.164C74.925 149.429 75.0188 149.678 75.1313 149.943C75.3 150.332 75.45 150.457 74.9813 150.691C74.4 150.987 73.7063 151.205 73.0875 151.454C72.45 151.704 71.8125 151.938 71.1938 152.218C70.8938 152.343 70.6125 152.483 70.4813 152.748C69.8063 154.244 74.2313 153.402 74.8875 153.231C75.225 153.137 75.075 152.686 74.7375 152.779C74.2313 152.919 73.7063 153.028 73.1813 153.075C72.8438 153.106 71.9063 153.278 71.5688 153.122C70.6688 152.701 72.1125 152.358 72.4125 152.234C72.8813 152.047 73.35 151.844 73.8375 151.657C74.3625 151.439 75.6375 151.189 75.8813 150.706C76.1063 150.27 75.5063 149.429 75.3375 149.023C75.2438 148.758 74.7 148.883 74.8125 149.164Z" fill="#161616"/>
<path d="M85.9688 143.164C85.95 142.556 86.0813 141.98 86.475 141.45C86.6438 141.232 86.8875 140.936 87.1875 140.827C88.7625 140.281 88.4813 141.512 88.35 141.949C88.0125 142.946 87.075 143.756 86.0438 144.286C85.725 144.442 86.025 144.847 86.325 144.691C87.3375 144.193 88.1625 143.476 88.6688 142.572C88.9875 141.98 89.3063 141.107 88.6875 140.577C88.125 140.094 87.225 140.219 86.6438 140.593C85.725 141.185 85.3875 142.245 85.425 143.18C85.425 143.46 85.9875 143.476 85.9688 143.164Z" fill="#161616"/>
<path d="M51.525 140.281C52.7625 139.595 54.7312 138.894 56.175 139.518C56.4937 139.658 56.775 139.253 56.4562 139.112C54.8062 138.396 52.6687 139.097 51.2437 139.876C50.9437 140.032 51.225 140.437 51.525 140.281Z" fill="#161616"/>
<path opacity="0.09" d="M57.75 142.51C58.3125 142.697 59.7375 143.226 60.75 144.504C61.1813 145.05 62.25 146.405 61.65 147.933C61.1063 149.304 59.5688 149.912 59.2125 150.036C59.4563 149.6 59.7938 148.899 59.8688 148.011C59.9625 146.889 59.625 146.047 59.25 145.128C58.9875 144.458 58.5375 143.538 57.75 142.51Z" fill="#6D6C6C"/>
<path opacity="0.13" d="M52.125 147.387C51.6 149.086 50.625 150.192 50.1 150.784C49.0125 152.015 47.7938 152.841 46.8563 153.356C47.5688 153.278 48.6 153.059 49.6688 152.53C49.9688 152.374 51.3188 151.704 52.35 150.301C52.9125 149.538 53.1938 148.836 53.3438 148.353C53.025 146.889 52.725 145.424 52.4063 143.943C52.5188 144.707 52.575 145.938 52.125 147.387Z" fill="#6D6C6C"/>
<path opacity="0.07" d="M84.5625 142.089C84.7312 142.821 84.9187 143.959 84.6562 145.33C84.2062 147.761 82.6687 149.351 81.975 150.052C79.7812 152.28 77.0625 153.169 75.7875 153.527C78.75 153.449 81.15 153.231 82.9125 153.013C84.1125 152.872 84.8812 152.748 85.35 152.234C86.1375 151.361 85.2 150.426 85.6312 148.338C85.9125 146.92 86.4187 146.826 86.475 145.798C86.5312 144.863 86.1937 143.616 84.5625 142.089Z" fill="#6D6C6C"/>
<path opacity="0.14" d="M75.2437 149.21C75.375 149.382 75.8062 149.958 75.5812 150.504C75.525 150.628 75.375 150.909 74.4937 151.283C72.9937 151.937 72.15 151.673 71.4375 152.343C71.3812 152.389 70.8937 152.857 71.0625 153.169C71.2312 153.465 71.9812 153.433 72.6187 153.402C73.2375 153.371 74.1187 153.262 75.15 152.935C75.75 152.608 76.4812 152.249 77.3625 151.922C78.3375 151.563 79.2375 151.33 79.9875 151.174C79.9125 150.971 79.7437 150.675 79.4625 150.348C78.9562 149.787 78.4875 149.709 78.0562 149.21C77.8687 148.992 77.625 148.634 77.5312 148.073C76.7625 148.462 75.9937 148.836 75.2437 149.21Z" fill="#6D6C6C"/>
<path opacity="0.25" d="M88.2187 140.64C88.1812 141.045 88.0687 141.652 87.75 142.323C87.1875 143.522 86.3437 144.161 86.475 144.27C86.5875 144.364 87.4125 143.943 87.9375 143.335C88.3687 142.821 88.4812 142.323 88.5 142.167C88.6312 141.434 88.35 140.858 88.2187 140.64Z" fill="#6D6C6C"/>
<path d="M205.612 138.879C209.85 142.182 214.069 145.502 218.306 148.805C213.356 157.173 211.369 161.599 212.344 162.098C213.544 162.721 219.356 157.22 229.8 145.564C222.6 141.201 215.4 136.837 208.2 132.458C207.337 134.609 206.475 136.744 205.612 138.879Z" fill="#191919"/>
<path d="M187.462 90.6327C185.887 92.6273 186.787 94.4506 187.687 101.338C188.606 108.32 187.837 107.587 188.587 112.418C189.862 120.584 192.675 126.49 194.925 131.118C194.925 131.118 198.094 137.679 204.3 143.71C204.469 143.881 204.862 144.224 205.425 144.551C205.987 144.878 207.187 145.564 208.594 145.393C210.075 145.221 211.2 144.177 211.65 143.226C212.156 142.151 211.556 141.653 212.212 140.78C212.7 140.157 213.131 140.25 214.369 139.471C215.231 138.91 216.337 138.209 216.862 137.024C217.444 135.684 216.994 134.469 216.862 134.11C216.469 133.082 215.719 132.427 215.512 132.225C214.594 131.399 213.169 129.077 210.319 124.433C208.106 120.849 204.637 112.73 203.531 102.554C202.556 93.5156 204.244 90.321 201.15 88.3731C197.494 86.0667 190.069 87.329 187.462 90.6327Z" fill="white"/>
<path d="M202.706 93.9363C202.537 99.3593 203.344 104.767 204.75 110.065C206.119 115.208 207.881 120.397 210.319 125.259C211.556 127.752 213.094 130.136 215.1 132.256C215.325 132.489 215.719 132.162 215.494 131.928C211.744 128.001 209.794 123.155 208.031 118.433C206.119 113.338 204.6 108.133 203.812 102.819C203.381 99.8736 203.194 96.8972 203.287 93.9363C203.287 93.6247 202.725 93.6247 202.706 93.9363Z" fill="#161616"/>
<path d="M187.537 100.824C187.575 109.161 188.906 117.545 192.037 125.493C193.575 129.388 195.544 133.191 198 136.744C199.237 138.551 200.606 140.312 202.106 141.995C203.362 143.413 204.844 144.987 207.019 145.439C209.025 145.86 211.031 145.19 211.819 143.554C212.625 141.855 212.081 139.642 213.769 138.271C214.031 138.053 213.638 137.726 213.375 137.944C212.081 138.988 212.006 140.499 211.744 141.886C211.613 142.572 211.463 143.289 211.013 143.881C210.263 144.909 208.819 145.252 207.45 145.034C204.994 144.645 203.4 142.697 202.05 141.123C200.719 139.564 199.481 137.944 198.337 136.276C193.706 129.451 190.837 121.862 189.356 114.132C188.512 109.738 188.119 105.281 188.1 100.824C188.1 100.513 187.537 100.513 187.537 100.824Z" fill="#161616"/>
<path d="M214.65 131.819C216.169 133.315 217.35 135.263 216.544 137.242C216.131 138.286 215.194 138.676 214.162 139.221C213.262 139.705 212.512 140.343 211.894 141.076C211.687 141.325 212.175 141.559 212.381 141.31C212.906 140.717 213.506 140.156 214.237 139.736C214.706 139.471 215.231 139.268 215.7 138.988C216.581 138.458 217.069 137.632 217.256 136.759C217.669 134.765 216.544 132.973 215.044 131.477C214.819 131.258 214.425 131.601 214.65 131.819Z" fill="#161616"/>
<path opacity="0.16" d="M187.894 100.466C187.856 102.523 187.931 104.673 188.119 106.933C188.794 114.896 190.837 121.799 193.181 127.44C193.181 127.44 196.125 134.437 200.044 139.331C200.475 139.86 201.3 140.749 202.969 142.51C204.694 144.348 205.2 144.8 206.119 145.128C206.25 145.174 208.594 145.985 210.169 145.034C210.6 144.785 210.937 144.177 211.631 142.977C212.344 141.746 212.7 141.092 212.869 140.172C213.787 140.141 214.462 139.72 214.556 139.237C214.669 138.645 213.844 138.146 213.769 138.115C212.644 137.476 211.087 138.006 210.394 138.115C206.962 138.629 202.669 131.835 201.375 129.778C196.031 121.16 193.35 116.859 191.456 112.091C190.35 109.146 188.981 105.219 187.894 100.466Z" fill="#6D6C6C"/>
<path opacity="0.13" d="M190.369 118.636C190.537 118.589 190.837 119.29 193.744 124.152C199.406 133.612 200.756 134.983 202.2 136.043C203.925 137.32 207.019 139.066 212.344 139.783C212.4 140.063 213.075 143.148 210.881 144.551C209.925 145.174 208.819 145.205 208.519 145.205C205.125 145.299 201.6 141.45 198.487 136.868C192.431 127.955 189.75 118.807 190.369 118.636Z" fill="#6D6C6C"/>
<path d="M164.344 139.845C161.831 144.208 159.337 148.556 156.825 152.919C145.744 151.548 140.044 151.33 139.762 152.249C139.406 153.387 147.506 156.316 164.025 161.023C166.837 153.994 169.65 146.966 172.444 139.923C169.762 139.907 167.062 139.876 164.344 139.845Z" fill="#191919"/>
<path d="M186.638 89.199C184.706 90.5703 184.144 92.0352 182.588 95.0272C180.188 99.6242 177.469 104.112 175.031 108.709C170.175 117.872 168.6 119.898 164.925 127.098C162.806 131.243 162.825 131.539 161.681 133.269C160.5 135.045 159.281 136.541 158.437 139.097C157.931 140.624 157.819 141.762 158.306 142.915C158.494 143.367 159.075 144.785 160.594 145.268C161.569 145.579 162.562 145.392 163.687 145.159C164.606 144.972 165.338 144.707 165.844 144.489C166.181 144.847 166.781 145.377 167.737 145.72C169.519 146.39 171.225 145.938 172.05 145.72C172.538 145.595 174.356 145.065 175.688 143.585C176.606 142.572 176.869 141.559 177.038 141.014C177.713 138.692 179.1 136.557 180 134.282C180.488 133.035 181.425 131.134 187.688 123.529C194.438 115.332 194.775 115.815 198.075 111.312C201.656 106.419 203.663 103.738 204.544 99.6554C205.256 96.3517 206.306 91.5053 202.819 88.638C198.863 85.3032 190.856 86.1758 186.638 89.199Z" fill="white"/>
<path d="M204.637 92.2222C205.819 101.198 199.969 109.348 193.837 116.298C190.725 119.82 187.444 123.233 184.612 126.895C181.687 130.666 179.419 134.718 177.562 138.925C176.625 141.06 176.025 143.803 173.494 145.081C171.375 146.14 168.6 146.063 166.631 144.816C166.35 144.629 166.069 145.034 166.35 145.221C169.706 147.325 174.487 146.156 176.287 143.102C177.469 141.091 178.162 138.847 179.156 136.775C180.281 134.453 181.556 132.162 183.019 129.981C188.531 121.83 196.819 115.176 201.694 106.699C204.281 102.18 205.875 97.2244 205.2 92.2066C205.162 91.9261 204.6 91.9105 204.637 92.2222Z" fill="#161616"/>
<path d="M186.337 87.7965C181.2 97.1309 176.062 106.481 170.906 115.815C168.319 120.537 165.712 125.243 163.125 129.965C161.906 132.193 160.631 134.406 159.45 136.65C158.512 138.411 157.612 140.39 157.969 142.338C158.269 143.912 159.45 145.579 161.531 145.704C163.031 145.798 164.55 145.205 165.937 144.831C167.569 144.395 169.219 143.943 170.85 143.507C171.187 143.413 171.037 142.961 170.7 143.055C169.406 143.398 168.131 143.741 166.837 144.099C165.487 144.457 164.137 144.909 162.75 145.159C160.031 145.626 158.531 143.694 158.437 141.668C158.344 139.424 159.694 137.258 160.781 135.279C161.981 133.113 163.162 130.947 164.362 128.765C169.144 120.085 173.925 111.405 178.687 102.725C181.387 97.8166 184.087 92.9078 186.787 88.0146C186.975 87.7497 186.487 87.516 186.337 87.7965Z" fill="#161616"/>
<path d="M165.862 144.925C166.05 145.018 166.237 145.128 166.406 145.237C166.519 145.315 166.687 145.33 166.8 145.237C166.894 145.159 166.912 144.987 166.8 144.909C166.594 144.769 166.369 144.644 166.144 144.52C165.844 144.364 165.562 144.769 165.862 144.925Z" fill="#161616"/>
<path opacity="0.09" d="M196.35 86.4252C194.081 87.3602 194.775 91.1625 194.438 95.3232C194.194 98.3932 193.575 99.3282 184.969 115.644C177.731 129.373 176.869 131.18 174.037 134.749C170.531 139.159 167.006 142.478 164.456 144.676C165.056 144.644 165.656 144.613 166.256 144.582C166.65 144.894 167.287 145.299 168.169 145.611C168.6 145.766 170.531 146.452 172.556 145.891C174.544 145.346 175.519 143.912 176.269 142.806C177.394 141.138 177.694 139.658 177.844 138.972C178.256 137.149 179.55 135.076 182.119 130.916C185.587 125.321 188.963 123.03 195.188 115.379C200.288 109.083 203.1 105.546 204.431 100.216C205.5 95.9622 205.181 92.3001 204.769 89.9158C202.013 87.7498 198.487 85.5369 196.35 86.4252Z" fill="#6D6C6C"/>
<path opacity="0.16" d="M204.45 97.3802C204.131 97.2712 202.556 100.419 199.388 105.063C195.019 111.421 193.5 112.013 187.669 119.29C181.781 126.646 181.875 127.877 175.725 135.388C172.537 139.284 169.725 142.369 167.831 144.38C167.287 145.112 167.381 145.455 167.494 145.595C167.962 146.265 170.325 145.813 171.431 145.595C172.856 145.315 173.587 145.174 174.356 144.754C175.987 143.865 176.344 142.478 177.506 139.611C178.125 138.068 178.912 136.572 179.531 135.03C180.881 131.726 182.794 129.404 185.944 125.664C196.744 112.901 196.706 113.618 198.562 110.782C203.006 104.05 204.9 97.5361 204.45 97.3802Z" fill="#6D6C6C"/>
<path d="M151.162 42.6827C150.675 43.3684 150.581 44.0229 150.544 44.319C150.356 45.5968 150.881 46.5942 151.106 46.9837C152.344 49.2122 155.175 49.9757 155.681 50.1004C156.019 51.1445 156.356 52.1886 156.731 53.2482C157.575 55.726 158.456 58.157 159.356 60.5257C160.556 60.3854 161.756 60.2452 162.956 60.1049C162.619 58.7803 162.206 57.7207 161.906 57.0194C161.006 54.8689 160.162 53.7937 159.431 51.4562C159.244 50.8328 159.112 50.303 159.037 49.9757C159.337 49.8043 159.75 49.5082 160.144 49.0875C161.7 47.4045 161.325 45.3475 161.25 44.9112C161.119 44.2411 160.912 43.0256 159.675 41.9971C158.1 40.6725 156.075 40.6413 155.775 40.6413C153.956 40.5946 152.081 41.3737 151.162 42.6827Z" fill="#12335E"/>
<path d="M152.25 43.945C152.175 44.132 151.969 44.8021 152.194 45.628C152.531 46.8435 153.694 47.9499 155.25 48.3239C156.469 48.62 158.325 48.5888 159.319 47.5759C160.013 46.8747 159.994 46.0332 159.975 45.254C159.956 44.3813 159.919 43.0412 158.644 42.1685C157.106 41.1088 155.063 41.6387 154.931 41.6698C153.6 42.0282 152.606 42.9165 152.25 43.945Z" fill="white"/>
<path d="M155.644 53.7781C155.587 54.0118 155.512 54.3547 155.512 54.7442C155.512 54.9312 155.512 55.4455 155.737 56.2247C155.887 56.7077 155.981 56.8324 156.6 58.0791C157.275 59.4348 157.406 59.8088 157.912 59.9802C158.25 60.1049 158.606 60.0582 158.831 60.0114C158.287 59.2946 158.325 58.8738 158.456 58.6245C158.569 58.3907 158.756 58.344 158.869 58.0479C158.906 57.9388 158.962 57.7362 158.756 57.035C158.55 56.3493 158.456 56.3493 158.4 55.9442C158.325 55.4767 158.456 55.4611 158.381 55.0247C158.362 54.9468 158.287 54.5261 157.969 54.043C157.669 53.6067 157.481 53.3262 157.106 53.2327C156.619 53.1392 156.075 53.3729 155.644 53.7781Z" fill="white"/>
<path d="M160.312 53.591C159.844 53.9806 159.187 54.713 159.45 55.1026C159.675 55.4143 160.462 55.4455 160.856 55.461C161.137 55.4766 161.362 55.461 161.531 55.4455C161.606 55.6169 161.681 55.7727 161.737 55.9441C162.262 57.222 162.712 58.4842 163.087 59.7309C163.144 59.9023 163.2 60.0737 163.237 60.2296C163.069 60.4321 162.75 60.7438 162.244 60.9931C161.55 61.3204 160.894 61.3671 160.575 61.3671C160.931 62.084 161.456 62.9878 162.244 63.9696C162.469 64.2501 163.125 65.076 164.212 66.0577C165.244 66.9927 166.275 67.9277 167.925 68.7381C170.156 69.8445 172.256 70.0938 173.419 70.2185C175.162 70.4055 176.531 70.3276 177.225 70.2652C177.825 70.2185 180.206 69.9692 182.962 68.8004C185.531 67.7096 187.087 66.4006 188.269 65.3876C189.187 64.6085 190.762 63.2216 192.131 61.0243C193.069 59.4971 193.425 58.3596 194.1 56.1311C195.056 52.9833 195.525 51.4094 194.587 50.6925C193.8 50.1004 192.412 50.3497 191.287 50.5679C189.431 50.9107 188.175 51.7366 186.656 52.7651C185.887 53.295 185.212 53.8404 183.919 54.9C181.181 57.144 181.012 57.5025 179.512 58.531C178.612 59.1543 177.881 59.5595 176.419 60.3542C173.494 61.9749 172.669 62.1151 172.031 62.1463C170.869 62.1931 169.987 61.8658 169.181 61.5697C166.781 60.6659 165.637 59.0764 165.281 58.5777C164.812 57.9076 164.456 57.3934 164.437 56.6766C164.419 55.8506 164.85 55.5857 164.869 54.5728C164.887 53.9806 164.906 53.1547 164.306 52.734C163.369 52.0483 161.381 52.7184 160.312 53.591Z" fill="white"/>
<path d="M164.119 57.5336C165.881 60.0581 168.6 62.7073 172.5 62.3177C172.856 62.2865 172.856 61.819 172.5 61.8502C168.788 62.2242 166.275 59.6841 164.588 57.2999C164.419 57.035 163.931 57.2687 164.119 57.5336Z" fill="#161616"/>
<path d="M168.394 62.8787C170.869 63.0657 173.156 62.1775 175.237 61.1801C177.394 60.1516 179.381 58.905 181.181 57.4713C184.781 54.5884 188.531 49.9446 194.287 50.8016C194.644 50.8484 194.794 50.3965 194.437 50.3497C189.319 49.5861 185.531 52.9989 182.362 55.7883C180.506 57.4246 178.5 58.9206 176.212 60.1361C173.887 61.3827 171.244 62.6138 168.394 62.4112C168.037 62.3801 168.037 62.8476 168.394 62.8787Z" fill="#161616"/>
<path d="M159.619 60.5568C162.375 64.9046 165.769 69.19 171.937 70.2808C177.619 71.2937 183.394 69.5796 187.556 66.3382C189.994 64.4371 191.869 62.0996 193.219 59.5751C193.369 59.3101 192.881 59.0608 192.731 59.3413C190.462 63.5488 186.619 67.3823 181.369 69.1277C176.081 70.873 169.8 70.312 165.6 66.9927C163.237 65.1227 161.625 62.7073 160.106 60.3231C159.937 60.0426 159.45 60.2919 159.619 60.5568Z" fill="#161616"/>
<path d="M161.137 52.9365C160.181 53.2794 158.831 54.3235 159.356 55.3052C159.937 56.3649 162 55.4455 162.731 54.9935C163.012 54.8221 162.731 54.417 162.45 54.5884C162.019 54.8533 160.012 55.8506 159.825 54.9312C159.675 54.2455 160.8 53.5755 161.437 53.3417C161.756 53.217 161.456 52.8119 161.137 52.9365Z" fill="#161616"/>
<path d="M161.25 53.3729C161.962 52.921 163.087 52.2042 163.987 52.8587C164.719 53.4041 164.569 54.3547 164.437 55.0559C164.269 55.9597 163.837 57.222 164.531 58.0323C164.737 58.2817 165.225 58.0479 165.019 57.7986C164.344 57.0038 164.962 55.5702 165.075 54.6975C165.169 54.043 165.131 53.3729 164.681 52.8275C163.706 51.6432 162.056 52.2821 160.969 52.9677C160.687 53.1547 160.969 53.5599 161.25 53.3729Z" fill="#161616"/>
<path d="M160.931 55.4455C161.569 57.0194 162.15 58.6089 162.712 60.214C162.769 60.1205 162.844 60.027 162.9 59.9335C161.625 60.1828 160.312 59.9179 159.112 60.4321C159.244 60.4789 159.394 60.5256 159.525 60.5724C159.3 59.9023 159.019 59.2322 158.737 58.5777C158.606 58.2972 158.062 58.4219 158.194 58.7024C158.494 59.3569 158.756 60.027 158.981 60.6971C159.037 60.8529 159.225 60.8996 159.394 60.8373C160.519 60.3542 161.85 60.6191 163.05 60.3854C163.2 60.3542 163.294 60.214 163.237 60.1049C162.675 58.4998 162.094 56.9259 161.456 55.3364C161.362 55.0247 160.819 55.1494 160.931 55.4455Z" fill="#161616"/>
<path d="M159.188 60.7282C160.013 61.8502 162.581 61.4295 163.162 60.3075C163.312 60.027 162.825 59.7932 162.675 60.0737C162.281 60.8529 160.275 61.3204 159.656 60.4945C159.488 60.2296 159 60.4633 159.188 60.7282Z" fill="#161616"/>
<path d="M159.694 60.8685C160.65 61.0399 161.587 60.9932 162.506 60.7126C162.844 60.6036 162.694 60.1516 162.356 60.2607C161.531 60.5101 160.687 60.5568 159.844 60.4166C159.487 60.3542 159.337 60.8062 159.694 60.8685Z" fill="#161616"/>
<path d="M159.525 60.7906C160.2 59.9335 161.475 59.6997 162.525 60.214C162.844 60.3698 163.125 59.9646 162.806 59.8088C161.456 59.1699 159.881 59.4816 159.019 60.5568C158.831 60.8061 159.319 61.0555 159.525 60.7906Z" fill="#161616"/>
<path d="M160.556 60.5101C160.781 59.9179 161.737 60.2451 162.187 60.4166C162.506 60.5412 162.806 60.1361 162.469 60.0114C161.662 59.6997 160.369 59.4348 160.012 60.3854C159.919 60.6815 160.462 60.8061 160.556 60.5101Z" fill="#161616"/>
<path d="M158.212 59.7776C157.725 59.5127 157.406 59.0608 157.425 58.5621C157.444 58.344 157.519 58.1414 157.631 57.9544C157.687 57.8765 158.212 57.3155 158.344 57.3934C158.625 57.5804 159.019 57.2531 158.737 57.0661C158.025 56.5986 157.162 57.5492 156.975 58.0635C156.656 58.8894 157.087 59.7153 157.931 60.1828C158.231 60.3386 158.512 59.9335 158.212 59.7776Z" fill="#161616"/>
<path d="M158.381 58.8738C159.206 58.4842 159.338 57.5648 158.606 57.0506C158.325 56.8636 157.931 57.1908 158.212 57.3778C158.662 57.6895 158.625 58.2193 158.1 58.4686C157.781 58.6245 158.062 59.0296 158.381 58.8738Z" fill="#161616"/>
<path d="M157.575 59.9179C157.987 60.2607 158.644 60.3386 159.131 60.0737C159.431 59.9179 159.15 59.5127 158.85 59.6686C158.569 59.8244 158.212 59.7932 157.969 59.5907C157.725 59.3725 157.331 59.6997 157.575 59.9179Z" fill="#161616"/>
<path d="M157.125 58.3595C156.787 57.9388 156.675 57.4557 156.806 56.957C156.956 56.3649 157.594 55.6481 158.344 56.2558C158.606 56.474 159 56.1311 158.737 55.9285C158.006 55.3208 157.106 55.4922 156.581 56.2091C156.037 56.9415 156.094 57.892 156.656 58.5933C156.844 58.8426 157.331 58.6089 157.125 58.3595Z" fill="#161616"/>
<path d="M156.469 57.2843C156.431 57.0662 156.337 56.8947 156.206 56.6922C155.962 56.3182 155.906 56.0377 156.037 55.6169C156.262 54.9001 156.994 54.3703 157.875 54.8066C158.194 54.9624 158.475 54.5573 158.156 54.4014C157.35 54.0118 156.319 54.1677 155.812 54.8377C155.55 55.1806 155.381 55.6325 155.381 56.0377C155.362 56.5519 155.831 56.9103 155.925 57.409C155.981 57.7051 156.525 57.5804 156.469 57.2843Z" fill="#161616"/>
<path d="M155.925 55.0091C155.625 54.6507 155.606 54.1521 155.981 53.8248C156.356 53.4976 156.956 53.482 157.406 53.7157C157.706 53.8716 157.987 53.4664 157.687 53.3106C157.031 52.9677 156.131 53.0301 155.587 53.4976C155.044 53.9651 155.006 54.7286 155.437 55.2585C155.644 55.4922 156.131 55.2585 155.925 55.0091Z" fill="#161616"/>
<path d="M157.669 54.7442C158.081 54.9156 158.231 55.3987 157.912 55.6948C157.669 55.913 158.062 56.2558 158.306 56.0221C158.85 55.5234 158.7 54.6507 157.95 54.3391C157.631 54.2144 157.331 54.604 157.669 54.7442Z" fill="#161616"/>
<path d="M157.181 53.7313C157.537 53.8716 157.744 54.1832 157.669 54.5261C157.594 54.8222 158.137 54.9468 158.212 54.6507C158.344 54.1209 158.044 53.5755 157.462 53.3417C157.144 53.1859 156.862 53.5911 157.181 53.7313Z" fill="#161616"/>
<path d="M158.306 56.4584C158.437 56.6298 158.475 56.848 158.362 57.0506C158.306 57.1596 158.325 57.2999 158.456 57.3778C158.569 57.4401 158.775 57.409 158.85 57.2999C159.038 56.9571 159.019 56.5675 158.794 56.2402C158.606 55.9597 158.119 56.1935 158.306 56.4584Z" fill="#161616"/>
<path d="M155.531 50.2874C155.756 51.3471 156.037 52.3911 156.394 53.4352C156.487 53.7313 157.031 53.6066 156.937 53.3106C156.581 52.2821 156.3 51.2224 156.075 50.1627C156.019 49.8666 155.475 49.9913 155.531 50.2874Z" fill="#161616"/>
<path d="M158.681 50.0381C159.131 51.2847 159.581 52.5158 160.012 53.7625C160.125 54.043 160.65 53.9339 160.556 53.6378C160.106 52.3912 159.656 51.1601 159.225 49.9134C159.113 49.6173 158.569 49.742 158.681 50.0381Z" fill="#161616"/>
<path d="M155.587 49.8355C153.206 49.6485 151.031 47.124 150.694 45.2851C150.281 43.0567 152.775 41.2179 155.25 40.8283C160.556 40.018 163.369 47.7473 158.831 49.7731C158.512 49.9134 158.794 50.3186 159.112 50.1783C163.05 48.4174 161.981 42.8386 158.681 41.0153C154.706 38.8181 148.744 42.3555 150.394 46.189C151.162 47.9655 153.169 50.1004 155.587 50.2874C155.944 50.3342 155.944 49.8666 155.587 49.8355Z" fill="#161616"/>
<path d="M155.569 48.1992C153.75 47.8564 152.325 46.5318 152.344 44.9423C152.362 43.2593 154.031 41.7633 156.075 41.701C158.531 41.6386 159.731 43.6177 159.694 45.4254C159.675 46.4695 159.487 47.4668 158.194 47.8876C157.2 48.1992 156.112 48.4797 155.062 48.1369C154.725 48.0278 154.575 48.4797 154.912 48.5888C156.112 48.9784 157.5 48.6511 158.644 48.2304C159.731 47.8252 160.05 47.1084 160.2 46.1578C160.5 44.0852 159.525 41.5451 156.656 41.2646C154.294 41.0309 152.194 42.5581 151.856 44.4748C151.519 46.4227 153.187 48.2148 155.456 48.6511C155.775 48.7135 155.925 48.2616 155.569 48.1992Z" fill="#161616"/>
<path d="M156.169 41.5296C155.4 43.5398 154.631 45.5656 153.881 47.5759C153.769 47.8564 154.312 47.9811 154.425 47.7006C155.194 45.6903 155.962 43.6645 156.712 41.6542C156.825 41.3737 156.281 41.2491 156.169 41.5296Z" fill="#161616"/>
<path d="M157.275 43.7736C156.694 45.2228 156.056 46.6565 155.4 48.0746C155.269 48.3551 155.812 48.4797 155.944 48.1992C156.6 46.7811 157.237 45.3319 157.819 43.8982C157.931 43.6021 157.387 43.4775 157.275 43.7736Z" fill="#161616"/>
<path opacity="0.12" d="M194.4 50.7549C193.575 52.4846 192.131 55.0559 189.656 57.7986C186.994 60.775 183.975 64.141 178.537 65.6058C177.187 65.9642 173.156 67.0083 168.319 65.7616C164.1 64.6708 161.569 62.4268 160.575 61.4451C161.044 62.4891 161.925 64.0942 163.575 65.6837C164.437 66.5096 167.606 69.4861 173.062 70.2341C173.737 70.3276 177.262 70.7795 181.369 69.4705C185.887 68.0368 188.325 65.3721 190.031 63.4865C191.231 62.1619 193.369 59.7309 194.231 56.0532C194.737 53.8716 194.606 52.0016 194.4 50.7549Z" fill="#6D6C6C"/>
<path opacity="0.21" d="M164.494 65.9175C165.9 66.6655 168.45 67.8031 171.881 68.1147C176.137 68.5043 179.362 67.3979 181.725 66.6031C186.412 64.9981 189.694 62.5826 191.756 60.6971C191.044 62.0996 189.544 64.4994 186.562 66.6031C185.156 67.6005 180.3 71.0288 173.7 70.2341C168.675 69.6263 165.525 66.8992 164.494 65.9175Z" fill="#6D6C6C"/>
<path d="M191.081 49.2277C187.969 51.1445 186.825 53.7002 185.531 56.5363C183.131 61.8035 183.525 65.9954 183.787 72.6339C183.956 76.857 184.106 82.9812 183.956 90.6171C187.181 91.2872 191.231 91.8637 195.919 92.004C199.556 92.0975 202.8 91.9105 205.537 91.5988C207.075 85.7239 208.687 80.9866 209.887 77.6985C213.9 66.6967 217.969 58.6401 214.256 52.1886C214.069 51.8769 213.881 51.612 213.675 51.3783C209.4 46.3604 197.419 45.3163 191.081 49.2277Z" fill="#EC615B"/>
<path opacity="0.15" d="M204.619 47.2019C204.375 48.3395 203.962 50.1316 203.344 52.2821C199.837 64.4371 196.312 65.1072 195.694 71.8392C195.056 78.6179 198.356 81.0645 195.6 86.1603C194.156 88.825 191.944 90.6015 190.312 91.6923C192.919 91.8482 195.712 91.9417 198.694 91.9261C201.037 91.9105 203.25 91.8326 205.35 91.6923C206.681 86.8771 207.956 83.028 208.912 80.3321C209.381 79.0075 209.944 77.4336 211.012 74.5039C212.756 69.7042 213.206 68.5199 213.937 66.2447C215.006 62.8632 215.55 61.1334 215.662 59.4192C215.85 56.848 216.056 53.9183 213.844 51.4562C212.437 49.8822 210.506 49.0407 209.475 48.5732C207.562 47.7162 205.8 47.3577 204.619 47.2019Z" fill="#6D6C6C"/>
<path opacity="0.17" d="M212.456 68.8004C212.062 68.6758 210.056 73.1014 206.531 79.101C203.25 84.6798 200.137 89.0743 197.962 91.9884C200.419 91.8326 202.894 91.6923 205.35 91.5365C205.987 89.4639 206.962 86.3628 208.181 82.5917C211.181 73.304 212.85 68.9095 212.456 68.8004Z" fill="#6D6C6C"/>
<path d="M211.088 50.677C210.469 50.864 209.588 51.1757 208.575 51.6587C205.013 53.3573 203.119 55.6948 201.956 57.0973C201.956 57.0973 198.038 61.8346 192 68.1926C190.125 70.1717 188.25 72.0106 185.944 74.0052C181.163 78.1504 179.044 79.0075 178.125 79.3347C175.838 80.1762 173.831 80.9086 171.188 80.7372C169.444 80.6281 168.356 80.1762 167.156 80.784C165.881 81.4229 165.038 82.9501 165.206 83.7915C165.225 83.8851 165.3 84.1811 165.338 84.6019C165.356 84.711 165.375 85.085 165.338 85.6304C165.281 86.4719 165.169 86.394 165.206 86.7056C165.319 87.3757 165.881 87.7185 165.713 87.9367C165.6 88.0925 165.3 87.9523 165.075 88.1549C164.813 88.373 164.925 88.7938 164.944 88.8561C165.075 89.3392 165.563 89.6197 165.769 89.7132C166.575 90.1495 167.119 89.9158 169.163 89.9781C170.606 90.0249 171.038 90.1651 171.75 89.869C171.938 89.7911 172.256 89.6509 172.819 89.1211C174.431 87.625 174.244 86.6277 175.65 85.6771C176.156 85.3343 176.663 85.1473 176.981 85.0382C178.013 84.6642 178.688 84.6798 179.681 84.4928C180.356 84.3837 181.031 84.15 182.381 83.6825C184.575 82.9345 186.263 82.202 186.919 81.906C190.875 80.1295 194.456 77.8855 195.225 77.3868C199.331 74.7844 201.956 72.5871 205.369 69.7354C207.825 67.694 210.413 65.3876 212.925 62.2554C213.694 61.2892 215.063 59.4971 215.513 56.9726C215.719 55.8351 215.925 54.5572 215.138 53.2638C214.05 51.3782 211.669 50.8017 211.088 50.677Z" fill="white"/>
<path d="M210.525 50.5367C206.981 51.4562 204.281 54.1209 202.069 56.4584C199.556 59.1232 197.287 61.9282 194.85 64.6241C192.244 67.507 189.544 70.3276 186.6 72.9767C183.806 75.4701 180.75 77.9322 176.981 79.3659C174.788 80.1918 172.369 80.6593 169.969 80.4879C168.6 80.3944 166.856 80.1139 166.013 81.2671C165.825 81.5164 166.313 81.7657 166.5 81.5008C167.006 80.7996 168.056 80.8152 168.919 80.8775C169.819 80.9242 170.7 81.0178 171.6 80.9866C173.381 80.9087 175.144 80.5347 176.794 79.9581C180.3 78.727 183.225 76.6077 185.85 74.3481C191.512 69.4861 196.163 63.9384 200.962 58.4998C202.312 56.9727 203.7 55.4767 205.294 54.1209C206.831 52.8119 208.575 51.5497 210.731 50.9887C211.012 50.8952 210.862 50.4432 210.525 50.5367Z" fill="#161616"/>
<path d="M210.47 50.8328C213.601 50.4744 215.345 53.2327 215.326 55.4611C215.307 57.6739 214.182 59.8556 212.87 61.7412C210.432 65.2786 206.889 68.3017 203.457 71.1847C196.67 76.8414 188.757 81.9683 179.401 84.2591C178.257 84.5396 176.87 84.6331 175.857 85.1941C174.901 85.7239 174.414 86.7524 173.757 87.516C173.27 88.077 172.745 88.6224 172.182 89.1367C171.451 89.7912 170.776 89.8535 169.782 89.7912C169.032 89.7444 168.282 89.6977 167.514 89.6509C166.745 89.6042 165.657 89.6509 165.282 88.9652C165.132 88.6847 164.645 88.9341 164.795 89.199C165.189 89.9314 166.126 90.0249 166.989 90.0872C167.682 90.134 168.376 90.1807 169.07 90.2119C169.745 90.2587 170.514 90.3833 171.189 90.2742C172.314 90.0872 173.157 88.9185 173.814 88.2328C174.601 87.3913 175.257 86.0044 176.401 85.4746C177.039 85.1785 177.845 85.1006 178.539 84.9447C179.232 84.7889 179.907 84.6331 180.582 84.4461C181.801 84.1188 183.02 83.7292 184.201 83.3085C186.676 82.4202 189.039 81.3606 191.307 80.1451C195.845 77.7141 199.97 74.7688 203.776 71.6054C207.639 68.3952 211.707 64.9513 214.145 60.8217C215.42 58.6557 216.47 56.0377 215.645 53.6378C214.989 51.7055 212.87 50.116 210.357 50.3965C209.964 50.4277 210.114 50.8796 210.47 50.8328Z" fill="#161616"/>
<path d="M165.394 83.6825C165.563 82.7319 168.469 82.8254 169.238 82.7631C170.288 82.6852 171.225 82.4982 172.05 81.9216C172.331 81.719 171.919 81.3917 171.656 81.5943C170.456 82.4358 168.806 82.2644 167.344 82.4203C166.575 82.5138 165 82.7475 164.869 83.5422C164.794 83.8539 165.338 83.9786 165.394 83.6825Z" fill="#161616"/>
<path d="M164.832 83.7448C165.751 85.2564 167.738 86.0823 169.726 85.7239C170.082 85.6616 169.932 85.2097 169.576 85.272C167.813 85.5993 166.107 84.8357 165.301 83.5111C165.151 83.2462 164.663 83.4799 164.832 83.7448Z" fill="#161616"/>
<path d="M165.094 84.1812C164.719 84.9915 165.15 85.8953 165.975 86.394C166.912 86.9706 168.131 86.9083 169.219 86.7524C169.575 86.7057 169.425 86.2537 169.069 86.3005C168.225 86.4252 167.269 86.4875 166.481 86.1135C165.712 85.7551 165.319 84.9915 165.619 84.3058C165.769 84.0253 165.225 83.9007 165.094 84.1812Z" fill="#161616"/>
<path d="M165.131 85.4746C164.606 86.1914 164.831 87.142 165.562 87.7186C166.425 88.4043 167.737 88.3263 168.731 87.9212C169.05 87.7965 168.769 87.3913 168.45 87.516C167.681 87.8121 166.687 87.9056 165.994 87.4069C165.412 86.9862 165.225 86.2693 165.619 85.7083C165.806 85.4434 165.319 85.2097 165.131 85.4746Z" fill="#161616"/>
<path d="M165.375 89.0276C165 88.5289 165.506 87.9056 166.219 88.1238C166.556 88.2328 166.706 87.7809 166.369 87.6718C165.206 87.3134 164.288 88.4354 164.906 89.2613C165.075 89.5107 165.562 89.2769 165.375 89.0276Z" fill="#161616"/>
<path d="M165.994 81.5787C167.044 81.2671 168.15 81.6878 168.6 82.5293C168.75 82.8098 169.237 82.5605 169.087 82.2956C168.544 81.2826 167.119 80.7528 165.844 81.1424C165.506 81.2359 165.656 81.6878 165.994 81.5787Z" fill="#161616"/>
<path d="M165.787 81.2982C165.037 81.7501 165.056 82.8254 165.9 83.1994C166.219 83.3397 166.5 82.9345 166.181 82.7942C165.731 82.5916 165.619 81.9527 166.069 81.7034C166.369 81.5164 166.087 81.1112 165.787 81.2982Z" fill="#161616"/>
<path d="M165.956 82.5917C165.994 82.2488 166.125 81.9683 166.369 81.6878C166.2 81.6878 166.05 81.6878 165.881 81.6878C166.069 81.9527 166.069 82.2021 165.881 82.4514C166.05 82.467 166.219 82.4826 166.387 82.5137C166.35 82.4202 166.331 81.7034 166.556 81.8281C166.725 81.9216 166.35 82.4047 166.275 82.5137C166.444 82.5137 166.594 82.5137 166.762 82.5137C166.687 82.4047 166.631 82.2956 166.631 82.1709C166.706 81.8281 166.819 81.7969 166.95 82.093C167.044 82.1553 167.137 82.2021 167.212 82.2644C167.156 82.093 167.212 81.9995 167.381 82.0307C167.55 81.9683 167.587 82.0151 167.494 82.1553C167.625 82.1865 167.756 82.2177 167.888 82.2332C167.944 82.28 167.981 82.3267 168.038 82.3735C167.981 82.6696 168.525 82.7942 168.581 82.4982C168.656 82.1086 168.225 81.5787 167.737 81.9372C167.325 82.2488 167.738 82.8254 168.263 82.5917C168.769 82.3579 168.563 81.719 168.038 81.6099C167.437 81.5008 167.137 82.093 167.4 82.467C167.475 82.5761 167.663 82.6072 167.794 82.5449C168.263 82.3112 168.225 81.6567 167.7 81.4852C167.025 81.2515 166.594 81.9216 166.687 82.3891C166.706 82.4982 166.837 82.5605 166.95 82.5605C167.738 82.5917 167.925 81.6255 167.194 81.4229C166.181 81.1424 165.9 82.2021 166.275 82.7631C166.387 82.9345 166.65 82.9033 166.762 82.7631C167.025 82.4514 167.569 81.3294 166.706 81.2671C165.9 81.2203 165.675 82.1865 165.844 82.654C165.919 82.841 166.237 82.8877 166.35 82.7163C166.631 82.3267 166.631 81.8748 166.35 81.4697C166.237 81.3138 165.975 81.3294 165.862 81.4697C165.562 81.8125 165.431 82.1865 165.375 82.6072C165.356 82.9033 165.919 82.8877 165.956 82.5917Z" fill="#161616"/>
<path d="M165.487 83.1059C166.444 83.2462 168.769 83.402 169.012 82.2488C169.069 81.9528 168.525 81.8281 168.469 82.1242C168.3 82.9189 166.294 82.7475 165.637 82.654C165.281 82.6072 165.131 83.0592 165.487 83.1059Z" fill="#161616"/>
<path d="M167.756 82.8722C168.469 85.2564 168.394 87.703 167.512 90.0405C167.4 90.321 167.944 90.4457 168.056 90.1652C168.956 87.7497 169.05 85.2097 168.3 82.7475C168.206 82.4514 167.662 82.5761 167.756 82.8722Z" fill="#161616"/>
<path d="M167.644 82.9033C167.775 84.0877 167.85 85.2564 167.887 86.4407C167.925 87.5783 168.019 88.7471 167.569 89.8379C167.456 90.1184 168 90.2431 168.112 89.9626C168.544 88.9185 168.487 87.8277 168.469 86.7368C168.431 85.459 168.356 84.1812 168.225 82.9033C168.169 82.6072 167.606 82.6072 167.644 82.9033Z" fill="#161616"/>
<path d="M168.375 82.8877C168.787 83.1371 168.712 84.3681 168.731 84.7577C168.75 85.2876 168.75 85.8018 168.712 86.3316C168.637 87.4536 168.431 88.5756 168.094 89.6665C168 89.9626 168.544 90.0872 168.637 89.7911C169.05 88.4198 169.275 87.0329 169.294 85.6148C169.294 84.898 169.256 84.1811 169.162 83.4643C169.106 83.0436 169.069 82.7319 168.656 82.4826C168.356 82.3111 168.075 82.7163 168.375 82.8877Z" fill="#161616"/>
<path d="M168.244 82.7631C168.488 84.0253 168.563 85.2876 168.45 86.5498C168.431 86.8459 168.994 86.8459 169.013 86.5498C169.125 85.2408 169.05 83.9318 168.788 82.6384C168.731 82.3423 168.188 82.467 168.244 82.7631Z" fill="#161616"/>
<path d="M166.875 82.8566C167.494 84.5863 167.737 86.3784 167.569 88.1861C167.531 88.6536 166.95 90.8509 168.469 90.2587C169.031 90.0405 169.087 89.4951 169.144 89.0588C169.256 88.1705 169.275 87.2823 169.275 86.394C169.275 84.9915 169.5 83.2929 168.525 82.0774C168.319 81.8281 167.831 82.0618 168.037 82.3112C168.844 83.3241 168.694 84.6331 168.712 85.8018C168.712 86.4408 168.712 87.0797 168.694 87.7186C168.675 88.0147 168.656 88.3108 168.637 88.6068C168.619 88.7627 168.506 90.0405 167.962 89.5107C167.962 89.5107 168.075 88.825 168.094 88.7471C168.131 88.4666 168.169 88.1705 168.187 87.89C168.225 87.3134 168.225 86.7368 168.187 86.1758C168.112 85.0071 167.85 83.8539 167.456 82.7319C167.325 82.4358 166.781 82.5605 166.875 82.8566Z" fill="#161616"/>
<path d="M167.569 82.7943C167.681 83.5423 167.775 84.2903 167.887 85.0227C167.925 85.3188 168.487 85.3188 168.45 85.0227C168.337 84.2747 168.244 83.5267 168.131 82.7943C168.075 82.4982 167.512 82.4982 167.569 82.7943Z" fill="#161616"/>
<path d="M167.006 82.3423C167.4 83.1838 167.719 84.0565 167.925 84.9447C168 85.2408 168.544 85.1161 168.469 84.8201C168.262 83.9318 167.962 83.0591 167.55 82.2176C167.419 81.9371 166.875 82.0618 167.006 82.3423Z" fill="#161616"/>
<path opacity="0.15" d="M214.462 52.3444C213.75 52.3444 213.562 55.4923 212.55 58.1726C211.669 60.4945 210.169 62.3957 203.794 67.5693C194.944 74.7377 190.369 78.3686 182.831 81.5164C179.644 82.841 176.85 83.6981 174.9 84.2435C174.281 84.6954 172.237 86.0667 169.256 86.0667C167.794 86.0667 166.612 85.7395 165.881 85.459C165.75 85.5213 165.337 85.7239 165.15 86.1446C164.944 86.5966 165.094 87.1264 165.506 87.516C165.356 87.6251 164.944 87.9991 164.962 88.4977C164.981 89.0743 165.525 89.4327 165.694 89.5574C166.331 89.9937 167.419 90.0093 169.519 90.0093C170.062 90.0093 170.85 90.0093 171.806 90.0093C172.162 89.6976 172.687 89.2146 173.269 88.5756C174.656 87.0173 174.806 86.2381 175.819 85.5369C176.981 84.7421 178.331 84.711 178.912 84.6331C183.919 83.9162 190.125 80.4879 193.594 78.5712C199.125 75.5168 202.275 72.6339 208.556 66.8992C208.556 66.8992 211.894 63.8449 214.481 59.1699C214.875 58.4687 215.719 56.8324 215.475 54.7754C215.344 53.7937 214.95 52.36 214.462 52.3444Z" fill="#6D6C6C"/>
<path d="M206.569 36.6208C206.719 40.392 206.55 42.5269 207.319 46.1266C207.675 47.8096 208.106 49.1654 208.425 50.0692C206.494 50.5835 203.25 51.2068 199.275 50.8484C196.669 50.6146 194.55 50.038 193.031 49.5082C193.725 48.4174 194.569 46.8123 195.037 44.7865C195.45 43.0255 195.45 41.4984 195.356 40.3452C193.406 39.6907 191.456 39.0206 189.506 38.3661C189.337 37.5402 189.187 36.7143 189.019 35.904C188.475 35.7637 187.912 35.6235 187.369 35.4832C188.1 34.5638 189.244 33.1145 190.594 31.3069C193.125 27.8941 193.275 27.3643 194.287 26.6942C197.025 24.8554 202.05 24.3879 204.656 26.2735C206.194 27.3955 206.344 30.481 206.569 36.6208Z" fill="white" stroke="#161616" stroke-width="2" stroke-miterlimit="10"/>
<path d="M187.331 35.7482C188.362 35.9975 189.412 36.1533 190.481 36.2468C190.837 36.278 190.837 35.8105 190.481 35.7793C189.469 35.6858 188.456 35.53 187.481 35.2962C187.125 35.2183 186.975 35.6702 187.331 35.7482Z" fill="#161616"/>
<path d="M189.019 29.0006C189.712 28.8603 190.462 29.172 190.725 29.733C190.856 30.0135 191.4 29.8888 191.269 29.6083C190.894 28.798 189.9 28.3461 188.887 28.5487C188.512 28.6266 188.662 29.0785 189.019 29.0006Z" fill="#161616"/>
<path d="M193.237 30.481C194.081 30.4498 194.85 30.855 195.131 31.5095C195.244 31.79 195.787 31.6653 195.675 31.3848C195.319 30.5277 194.344 29.9512 193.256 29.9979C192.881 30.0291 192.881 30.4966 193.237 30.481Z" fill="#161616"/>
<path d="M193.425 32.4601C193.294 32.2263 193.35 32.0237 193.387 31.7744C193.444 31.7121 193.444 31.6809 193.387 31.7121C193.331 31.7277 193.331 31.7588 193.387 31.8056C193.406 31.9147 193.444 32.0237 193.462 32.1328C193.462 32.2107 193.425 32.3666 193.444 32.4289C193.481 32.4601 193.519 32.4912 193.556 32.5224C193.556 32.4757 193.575 32.4289 193.575 32.3822C193.612 32.1484 193.65 31.9147 193.687 31.6653C193.725 31.4316 193.275 31.3537 193.162 31.5407C193.069 31.6965 193.031 31.8367 193.031 32.0082C193.05 32.3042 193.612 32.3042 193.594 32.0082C193.594 31.9147 193.594 31.8679 193.65 31.7744C193.481 31.7277 193.294 31.6965 193.125 31.6497C193.087 31.9302 192.994 32.2263 192.994 32.5068C192.994 32.7094 193.125 32.8808 193.369 32.912C193.987 32.9899 194.044 32.3354 194.006 31.977C193.95 31.6497 193.65 30.9485 193.106 31.3225C192.637 31.6342 192.75 32.3042 192.956 32.6938C193.087 32.9588 193.575 32.725 193.425 32.4601Z" fill="#161616"/>
<path d="M193.237 27.4578C193.612 26.7254 194.362 25.5722 195.769 24.497C196.256 24.123 197.306 23.3282 198.712 22.9387C201.375 22.2062 204.844 23.0633 206.906 25.1359C208.931 27.1617 209.325 30.0914 207.956 32.6003C203.062 30.8862 198.15 29.172 193.237 27.4578Z" fill="#12335E"/>
<path d="M184.894 25.5722C192.487 28.1123 200.081 30.6368 207.656 33.1769C208.669 33.5197 209.1 32.164 208.106 31.8212C200.512 29.2811 192.919 26.7566 185.344 24.2165C184.35 23.8892 183.9 25.245 184.894 25.5722Z" fill="#161616"/>
<path d="M202.931 31.3225C201.412 31.4471 200.362 32.0549 199.125 32.7873C196.519 34.3457 196.875 35.2027 195.094 36.1377C192.262 37.6337 190.387 35.9819 187.819 37.4779C185.625 38.7557 185.156 40.9997 185.062 41.5296C184.969 42.0282 184.65 44.0697 186.169 45.8462C187.481 47.3889 189.675 48.1525 189.9 47.9188C189.975 47.8408 189.862 47.5603 188.831 46.5942C189.131 46.8902 189.619 47.2798 190.331 47.5448C191.156 47.8564 192 47.9187 192.037 47.8097C192.075 47.7317 191.606 47.6383 191.344 47.2487C191.194 47.0149 191.175 46.7812 191.175 46.5942C191.737 47.1084 192.506 47.6227 193.387 47.6071C195.806 47.5292 197.512 43.4931 198.075 42.1529C199.894 37.8207 199.125 35.0625 201.487 33.9093C201.694 33.8158 202.631 33.3483 203.419 33.66C204.431 34.0496 204.787 35.5612 204.169 36.3871C203.625 37.0883 202.519 37.0727 202.537 37.2286C202.575 37.4312 204.45 37.5402 206.231 36.8857C206.887 36.652 207.412 36.4494 207.825 35.9819C208.519 35.156 208.369 33.9872 207.956 33.2392C207.056 31.6342 204.581 31.1822 202.931 31.3225Z" fill="#161616" stroke="#161616" stroke-width="2" stroke-miterlimit="10"/>
<path opacity="0.22" d="M203.194 37.4779C202.856 37.4311 202.369 37.3376 202.369 37.2441C202.369 37.1974 202.5 37.1506 202.5 37.1506C202.5 37.1351 201.975 37.4779 201.45 37.4311C201.206 37.4 201.019 37.2909 200.906 37.1974C201.319 38.896 201.675 40.953 201.694 43.3217C201.731 46.3292 201.262 48.9005 200.737 50.8796C201.862 50.9887 203.475 51.0198 205.331 50.6926C206.494 50.49 207.487 50.1783 208.256 49.8822C207.131 47.0149 206.794 44.8332 206.7 43.384C206.644 42.6983 206.587 41.0932 206.55 40.3141C206.494 38.8804 206.437 37.6961 206.419 36.9013C206.25 36.9636 205.987 37.0727 205.65 37.1818C205.2 37.3376 204.262 37.6181 203.194 37.4779Z" fill="#6D6C6C"/>
<path d="M201.806 22.7984C203.738 23.5776 204.844 25.2606 204.581 26.9124C204.262 28.8759 202.163 29.7953 201.956 29.8888C204.056 30.5901 206.156 31.2758 208.256 31.977C208.425 31.5718 208.612 31.0108 208.706 30.3096C208.969 28.0968 207.881 26.4449 207.637 26.1177C207.262 25.5878 205.931 23.7958 203.306 23.0789C202.725 22.8919 202.2 22.8296 201.806 22.7984Z" fill="#12335E"/>
</svg>
