<svg xmlns="http://www.w3.org/2000/svg" width="115" height="85" fill="none" viewBox="0 0 115 85">
  <g opacity=".9">
    <path fill="#000" d="M59.8 82.703c26.04 0 47.15-3.086 47.15-6.892 0-3.807-21.11-6.892-47.15-6.892s-47.15 3.085-47.15 6.892c0 3.806 21.11 6.892 47.15 6.892z" opacity=".1"/>
    <path fill="#FFBFC5" d="M68.37 28.275c-.6.312-1.17.68-1.704 1.1-.536.424-.946.991-1.185 1.639-.332-.703-.512-1.468-.733-2.215a37.322 37.322 0 00-1.498-3.978 5.208 5.208 0 002.357-1.848c1.164 1.178 2.35 2.406 2.925 3.96.1.27.388.557.456.793.091.35-.367.406-.619.549z"/>
    <path fill="#3F3D56" d="M33.35 69.036c0 9.241 6.95 10.22 15.526 10.22S64.4 78.278 64.4 69.037c0-9.242-6.95-12.752-15.524-12.752-8.574 0-15.526 3.512-15.526 12.752z"/>
    <path fill="#F1F1F1" d="M80.76 58.66a13.095 13.095 0 014.15 2.058.4.4 0 01.188.235c.032.215-.287.311-.519.373-.693.182-1.117.776-1.619 1.239-.502.463-1.307.83-1.892.459a1.776 1.776 0 01-.398-.388l-2.47-2.983a15.583 15.583 0 012.63-1.072"/>
    <path fill="#12335E" d="M84.678 58.979c.31.322.438.788.748 1.119.204.2.438.365.692.49l1.79 1.007c.279.169.572.309.876.419.337.098.68.173 1.027.223.497.099.982.249 1.45.448.35.148.741.4.739.788a.865.865 0 01-.219.51c-.705.909-1.955 1.12-3.084 1.233-2.443.265-4.943.462-7.331-.127a3.094 3.094 0 01-1.29-.57c-.72-.612-.875-1.724-.595-2.64a1.43 1.43 0 01.57-.866c.378-.224.849-.118 1.284-.152a3.991 3.991 0 001.314-.432c.273-.125.586-.289.656-.62.07-.331-.3-.618-.219-.895.154-.625 1.307-.233 1.592.065z"/>
    <path fill="#F1F1F1" d="M88.37 68.77l.74.496c.225.123.411.31.534.537.162.383-.055.815-.296 1.151a6.52 6.52 0 01-2.844 2.24 4.18 4.18 0 01-1.236.313.507.507 0 01-.285-.035c-.226-.123-.194-.448-.196-.708 0-.749-.565-1.358-1.074-1.91-.51-.553-1.012-1.23-.896-1.965.106-.438.33-.837.644-1.153.277-.355.603-.668.967-.928.522-.347.705-.16 1.195.157.92.596 1.837 1.197 2.748 1.806z"/>
    <path fill="#12335E" d="M86.332 72.28a1.34 1.34 0 001.139-.248 2.76 2.76 0 00.739-.916 7.32 7.32 0 00.459-.969c.151-.391.29-.823.648-1.06.421-.288 1.04-.174 1.474.103.433.278.762.69 1.134 1.046.878.844 2.034 1.377 3.221 1.725 1.188.35 2.419.523 3.638.749.244.031.481.105.699.216.492.29.659.937.52 1.476-.14.54-.503.986-.901 1.39a3.615 3.615 0 01-1.207.899 3.978 3.978 0 01-1.218.223 21.592 21.592 0 01-6.021-.454 16.657 16.657 0 00-2.206-.424c-.453-.038-.912-.026-1.364-.057a7.402 7.402 0 01-2.606-.66.912.912 0 01-.474-.382.903.903 0 01-.036-.502l.301-2.542c.028-.221.103-.497.333-.532.23-.034.374.183.511.35a1.88 1.88 0 001.034.602c.404.085.826.038 1.2-.133M68.9 39.132c1.375-.151 2.97-.177 3.901.82.571.612.744 1.468.94 2.27.309 1.347.81 2.646 1.491 3.858.438.753.969 1.456 1.312 2.255.343.799.472 1.7.673 2.569.805 3.408 2.773 6.452 5.583 8.636-.496 1.31-1.932 2.06-3.33 2.397-.336.108-.698.12-1.042.032a1.86 1.86 0 01-.675-.485 22.677 22.677 0 01-1.821-2.17c-2.014-2.613-4.055-5.28-5.153-8.363-.384-1.084-.769-2.338-1.851-2.799-.616-.26-1.322-.178-1.985-.068a27.53 27.53 0 00-4.354 1.086c-1.513.512-3.244 1.141-4.628.36-.828-.47-1.311-1.37-1.502-2.283-.19-.914-.094-1.857 0-2.784.01-.417.113-.828.302-1.202.192-.28.437-.523.724-.712a15.04 15.04 0 014.074-2.125c1.397-.48 2.901-.638 4.359-.878a51.43 51.43 0 012.982-.414z"/>
    <path fill="#12335E" d="M68.9 39.132c1.375-.151 2.97-.177 3.901.82.571.612.744 1.468.94 2.27.309 1.347.81 2.646 1.491 3.858.438.753.969 1.456 1.312 2.255.343.799.472 1.7.673 2.569.805 3.408 2.773 6.452 5.583 8.636-.496 1.31-1.932 2.06-3.33 2.397-.336.108-.698.12-1.042.032a1.86 1.86 0 01-.675-.485 22.677 22.677 0 01-1.821-2.17c-2.014-2.613-4.055-5.28-5.153-8.363-.384-1.084-.769-2.338-1.851-2.799-.616-.26-1.322-.178-1.985-.068a27.53 27.53 0 00-4.354 1.086c-1.513.512-3.244 1.141-4.628.36-.828-.47-1.311-1.37-1.502-2.283-.19-.914-.094-1.857 0-2.784.01-.417.113-.828.302-1.202.192-.28.437-.523.724-.712a15.04 15.04 0 014.074-2.125c1.397-.48 2.901-.638 4.359-.878a51.43 51.43 0 012.982-.414z" opacity=".1"/>
    <path fill="#FFBFC5" d="M76.242 48.946c.635.313 1.219.719 1.73 1.204.552.58.887 1.329 1.172 2.075.112.254.18.525.203.802a.899.899 0 01-.3.742c-.251.162-.55.237-.85.213-.394 0-.79 0-1.183-.03a2.001 2.001 0 01-.7-.132 1.941 1.941 0 01-.545-.407 7.563 7.563 0 01-1.676-2.23c-.285-.621-.757-2.054-.307-2.7.45-.646 1.968.188 2.456.463z"/>
    <path fill="#12335E" d="M58.258 48.243c1.951.632 4.029.699 6.068.89 3.431.323 6.82.995 10.115 2.008.675.21 1.364.438 1.907.89.442.41.815.887 1.107 1.415.536.82 1.021 1.671 1.453 2.55.371.796.654 1.63.998 2.435a17.102 17.102 0 005.318 6.838c.42.326.9.68 1.008 1.204.05.338-.005.683-.157.989-.503 1.176-1.547 2.033-2.643 2.687-.47.282-.99.566-1.22 1.067-1.665-.69-2.904-2.163-3.933-3.645-1.03-1.481-1.945-3.079-3.266-4.308-.58-.543-1.24-1.014-1.7-1.667-.698-.993-.887-2.352-1.826-3.118-.939-.767-2.306-.668-3.52-.548a86.029 86.029 0 01-18.687-.21c-1.29-.154-2.614-.352-3.732-1.019-1.117-.667-1.987-1.913-1.83-3.207.15-1.212 1.153-2.172 2.275-2.645 1.121-.474 2.358-.56 3.563-.697 3-.333 5.864-.88 8.702-1.909z"/>
    <path fill="#EC615B" d="M40.329 50.632c.151-1.001.544-1.949.791-2.931.123-.619.28-1.23.47-1.833 0-.018.014-.034.02-.05a.432.432 0 00.316-.18.512.512 0 00.027-.274 1.967 1.967 0 010-.293c.404-.67.846-1.318 1.324-1.939.83-1.171 1.562-2.417 2.284-3.66.594-1.025 1.188-2.039 1.678-3.11.37-.802.679-1.64 1.086-2.416 1.453-2.79 4.053-4.848 6.851-6.325 2.687-1.417 5.592-2.371 8.416-3.5.072.072.138.149.197.23 1.526 2.062 1.69 4.77 2.32 7.248.253 1.001.591 1.998.591 3.028 0 1.522-.737 2.938-1.47 4.277-.687 1.262-1.395 2.523-2.307 3.637-.432.53-.907 1.026-1.341 1.549-1.782 2.156-2.81 4.808-3.81 7.412-.577 1.508-1.524 2.843-2.16 4.328-.245.57-.386 1.184-.693 1.725-.307.542-.84 1.014-1.468 1.026a2.228 2.228 0 01-.542-.084c-2.27-.577-4.169-2.051-6.054-3.434a15.935 15.935 0 00-1.038-.71 17.093 17.093 0 00-1.097-.615l-.843-.458c-.917-.496-1.84-.995-2.797-1.415a5.115 5.115 0 01-.83-.41c.003-.276.03-.552.079-.823z"/>
    <path fill="#FFBFC5" d="M70.15 28.716a5.747 5.747 0 005.75-5.743 5.747 5.747 0 00-5.75-5.743 5.747 5.747 0 00-5.75 5.743 5.747 5.747 0 005.75 5.743z"/>
    <path fill="#3F3D56" d="M73.983 20.24c.132.22.33.395.57.502.238.107.506.142.766.1.26-.05.504-.152.72-.299.215-.147.395-.336.528-.554.265-.439.422-.929.462-1.433.045-.395.038-.826-.227-1.134a2.604 2.604 0 00-.687-.463 2.564 2.564 0 01-.863-.826c-.15-.242-.26-.504-.396-.752-.494-.898-1.456-1.63-2.514-1.596-.509.016-.994.206-1.496.285-1.684.283-3.512-.57-5.075.095-.384.179-.74.407-1.06.677-.44.349-.863.715-1.268 1.099a2.507 2.507 0 00-.772 1.076c-.216.764.291 1.617-.03 2.344-.11.208-.24.405-.39.589-.354.497.03 2.44 0 3.042a1.09 1.09 0 00.215.826c.257.274.686.297 1.078.301h.705a.933.933 0 00.313-.03.943.943 0 00.355-.26c.587-.594.712-2.529 1.563-2.52.13-.009.26.023.369.09.153.108.198.308.308.457.125.141.294.24.482.283a.937.937 0 00.564-.048c.351-.156.657-.393.89-.69.232-.296.513-.553.832-.762.455-.254.968-.363 1.41-.65.369-.24.578-.587.91-.851.332-.264.612-.227.966-.052.51.27.532.7.772 1.155z"/>
    <path fill="#000" d="M60.853 29.948a8.892 8.892 0 013.773.292c.407.09.775.303 1.051.606.159.229.262.49.302.762a5.98 5.98 0 01-.459 3.714.481.481 0 00-.062.395.71.71 0 00.215.209.724.724 0 01.228.55.706.706 0 01-.273.53c-.101.071-.234.133-.254.252-.02.119.106.233.205.325.144.137.25.306.309.493.058.188.067.386.026.577a2.28 2.28 0 00-.11.473c.022.197.082.389.179.564.164.396.22.826.161 1.249-.052.2-.057.408-.015.61.06.133.142.257.241.367.39.507.473 1.357-.09 1.665.241.12.438.31.562.544.125.234.171.5.133.76.337-.173.746.05 1.028.3.281.249.567.557.948.576.267.012.549-.121.79-.015.37.16.356.741.72.914.318.154.764-.096 1.035.127.094.077.142.196.234.277.204.183.527.106.807.094.66-.025 1.269.416 1.61.953.343.537.465 1.193.553 1.826a2.34 2.34 0 01-.021 1.052.896.896 0 01-.278.444.944.944 0 01-.486.222c-3.323.208-6.603-.565-9.84-1.326-.95-.225-1.916-.488-2.71-1.041-.72-.506-1.25-1.218-1.766-1.918-.953-1.293-1.912-2.594-2.594-4.037-.878-1.855-1.269-3.887-1.652-5.896a5.314 5.314 0 01-.14-1.645c.116-.645.371-1.26.749-1.803.455-.72.958-1.41 1.505-2.067.833-.993 2.078-1.792 3.386-1.974z" opacity=".1"/>
    <path fill="#EC615B" d="M61.66 29.948a7.885 7.885 0 013.552.294c.384.09.73.3.99.604.149.229.246.49.284.762a6.335 6.335 0 01-.431 3.714.498.498 0 00-.06.395.69.69 0 00.203.209.727.727 0 01.215.55.74.74 0 01-.257.53c-.095.071-.22.133-.239.252-.018.119.1.233.202.325.136.137.236.306.292.493.055.187.063.386.024.577-.05.153-.085.312-.103.473.02.197.076.389.166.564.156.395.21.826.154 1.249a.923.923 0 00.213.976c.366.508.445 1.358-.085 1.678.227.12.412.31.53.543.117.234.16.499.123.759.318-.173.703.05.968.3s.535.557.893.576c.251.013.514-.12.743-.014.348.162.336.74.678.916.3.152.72-.098.974.125.09.077.134.195.22.276.193.184.497.107.76.094.622-.025 1.195.416 1.517.954.293.565.47 1.187.52 1.825.065.345.058.7-.02 1.041a.905.905 0 01-.262.445.866.866 0 01-.457.222c-3.128.208-6.216-.565-9.263-1.326-.895-.225-1.806-.488-2.55-1.041-.68-.504-1.177-1.218-1.663-1.918-.897-1.29-1.8-2.592-2.442-4.035-.826-1.857-1.194-3.889-1.555-5.896a5.644 5.644 0 01-.131-1.647c.103-.644.337-1.26.686-1.805.428-.72.901-1.41 1.417-2.065.792-.997 1.964-1.795 3.193-1.974z"/>
  </g>
</svg>
