<svg width="280" height="210" viewBox="0 0 280 210" fill="none" xmlns="http://www.w3.org/2000/svg">
<path d="M39.97 178.535C48.58 178.92 57.19 179.112 65.8 179.095C66.1325 179.095 66.1325 178.57 65.8 178.57C57.19 178.587 48.58 178.395 39.97 178.01C39.6375 177.992 39.6375 178.517 39.97 178.535Z" fill="#837B7B"/>
<path d="M66.325 165.515C67.6725 170.573 68.9325 175.665 70.0875 180.775C70.1575 181.108 70.665 180.968 70.595 180.635C69.4225 175.525 68.18 170.433 66.8325 165.375C66.745 165.06 66.2375 165.2 66.325 165.515Z" fill="#837B7B"/>
<path d="M89.775 165.9C89.285 170.712 88.795 175.542 88.3225 180.355C88.2875 180.687 88.8125 180.687 88.8475 180.355C89.3375 175.542 89.8275 170.712 90.3 165.9C90.3175 165.568 89.7925 165.568 89.775 165.9Z" fill="#837B7B"/>
<path d="M70.2275 181.247C73.29 181.79 76.3875 182.035 79.5025 181.947C82.4775 181.86 85.7325 181.632 88.5675 180.687C88.8825 180.582 88.7425 180.075 88.4275 180.18C85.61 181.107 82.4425 181.335 79.5025 181.422C76.44 181.51 73.3775 181.265 70.3675 180.74C70.035 180.67 69.895 181.177 70.2275 181.247Z" fill="#837B7B"/>
<path d="M66.535 165.69C70.1575 166.705 74.095 166.723 77.8399 166.74C81.8649 166.775 85.8899 166.548 89.8799 166.093C90.2124 166.058 90.2124 165.533 89.8799 165.568C85.9949 166.023 82.0924 166.233 78.1899 166.215C74.3925 166.198 70.3675 166.198 66.675 165.183C66.3425 165.095 66.2025 165.603 66.535 165.69Z" fill="#837B7B"/>
<path d="M65.03 163.888C65.065 164.22 65.1 164.57 65.135 164.903C65.1525 165.113 65.1525 165.375 65.24 165.568C65.45 166.023 66.15 165.865 66.5525 165.865C66.885 165.865 66.885 165.34 66.5525 165.34C66.36 165.34 66.1675 165.34 65.9575 165.34C65.695 165.34 65.695 165.288 65.6775 165.025C65.6425 164.64 65.6075 164.273 65.5725 163.888C65.52 163.555 64.995 163.538 65.03 163.888Z" fill="#837B7B"/>
<path d="M65.38 164.168C69.755 164.675 74.1475 164.92 78.5575 164.955C80.7275 164.973 82.8975 164.938 85.085 164.868C86.17 164.833 87.255 164.78 88.34 164.728C88.8475 164.71 89.5475 164.535 90.055 164.64C90.6675 164.745 90.6325 165.27 90.7025 165.813C90.755 165.708 90.825 165.603 90.8775 165.498C90.65 165.498 90.4225 165.498 90.195 165.498C89.8625 165.428 89.7225 165.935 90.055 166.005C90.405 166.075 90.6675 166.075 91 166.005C91.1575 165.97 91.21 165.813 91.175 165.69C91.0875 165.078 91.1575 164.308 90.4225 164.15C89.985 164.045 89.4425 164.168 88.9875 164.185C88.41 164.22 87.85 164.238 87.2725 164.273C84.8225 164.378 82.355 164.448 79.8875 164.448C75.0225 164.448 70.175 164.22 65.345 163.643C65.0475 163.608 65.0475 164.133 65.38 164.168Z" fill="#837B7B"/>
<path d="M69.1775 176.89C70.5775 178.728 72.2225 180.32 74.0775 181.685C74.3575 181.878 74.62 181.423 74.34 181.23C72.555 179.918 70.9625 178.378 69.615 176.61C69.4225 176.348 68.9675 176.61 69.1775 176.89Z" fill="#837B7B"/>
<path d="M68.0049 171.553C70.7349 175.49 74.0949 178.938 77.9799 181.755C78.2599 181.948 78.5224 181.493 78.2424 181.3C74.4449 178.535 71.1374 175.14 68.4599 171.29C68.2674 171.01 67.8124 171.273 68.0049 171.553Z" fill="#837B7B"/>
<path d="M66.9375 166.862C71.6625 172.462 76.9125 177.695 83.1774 181.58C83.4574 181.755 83.7374 181.3 83.4399 181.125C77.21 177.275 71.995 172.077 67.305 166.495C67.095 166.232 66.7275 166.617 66.9375 166.862Z" fill="#837B7B"/>
<path d="M71.96 166.565C76.4574 171.797 81.4449 176.767 87.0099 180.863C87.2899 181.055 87.5524 180.6 87.2724 180.408C81.7424 176.347 76.7899 171.377 72.3274 166.197C72.0999 165.935 71.7325 166.302 71.96 166.565Z" fill="#837B7B"/>
<path d="M77.7 166.932C80.745 170.66 84.245 173.985 88.13 176.837C88.41 177.03 88.6725 176.575 88.3925 176.382C84.5425 173.565 81.0775 170.257 78.0675 166.565C77.8575 166.302 77.49 166.67 77.7 166.932Z" fill="#837B7B"/>
<path d="M82.3899 166.74C84.3499 168.945 86.59 170.835 89.075 172.428C89.355 172.603 89.6175 172.148 89.3375 171.973C86.8875 170.415 84.6824 168.525 82.7574 166.373C82.5299 166.11 82.1624 166.478 82.3899 166.74Z" fill="#837B7B"/>
<path d="M58.17 137.9C59.3075 140.298 60.0775 142.818 60.515 145.443C60.5325 145.565 60.655 145.635 60.76 145.635C60.865 145.635 61.425 145.618 61.46 145.793C61.4775 145.863 61.1275 146.265 61.0925 146.353C60.9875 146.633 60.9875 146.965 61.0925 147.245C61.2325 147.578 61.495 147.805 61.81 147.928C61.915 147.98 62.0375 147.998 62.16 148.015C62.265 148.033 62.37 148.033 62.475 148.015C62.615 147.998 62.5975 148.015 62.44 148.085C62.265 148.348 62.02 148.383 61.95 148.768C61.8975 149.135 62.0725 149.485 62.2125 149.8C62.79 151.025 63.1225 152.32 63.595 153.598C65.2225 157.938 68.3375 161.525 71.855 164.483C72.1175 164.693 72.485 164.325 72.2225 164.115C68.6 161.07 65.38 157.343 63.8575 152.775C63.665 152.18 63.49 151.585 63.28 151.008C63.105 150.5 62.7725 149.975 62.615 149.468C62.44 149.188 62.4575 148.873 62.685 148.558C62.755 148.505 62.825 148.453 62.895 148.4C62.9475 148.313 63.0525 148.26 63.105 148.155C63.175 147.963 63.1225 147.788 62.9825 147.648C62.755 147.42 62.405 147.543 62.1075 147.455C60.97 147.123 61.8975 146.353 61.985 145.793C62.1075 145.058 61.1975 145.145 60.7075 145.11C60.795 145.18 60.8825 145.233 60.9525 145.303C60.515 142.643 59.71 140.07 58.555 137.638C58.485 137.323 58.03 137.585 58.17 137.9Z" fill="#837B7B"/>
<path d="M58.3625 137.778C64.05 139.3 69.0375 143.168 72.66 147.753C76.51 152.618 78.9075 158.463 80.2025 164.5C80.2725 164.833 80.78 164.693 80.71 164.36C79.3975 158.235 76.9475 152.32 73.045 147.385C69.37 142.748 64.295 138.828 58.52 137.288C58.17 137.183 58.03 137.69 58.3625 137.778Z" fill="#837B7B"/>
<path d="M60.4275 139.948C67.3925 146.72 72.765 155.033 76.0725 164.185C76.195 164.5 76.7025 164.36 76.58 164.045C73.2375 154.823 67.83 146.423 60.795 139.58C60.5675 139.335 60.1825 139.703 60.4275 139.948Z" fill="#837B7B"/>
<path d="M63.525 150.955C64.995 151.113 66.43 151.445 67.795 151.988C69.125 152.513 70.5775 153.178 71.4175 154.385C71.61 154.665 72.065 154.403 71.8725 154.123C71.0325 152.915 69.72 152.233 68.39 151.673C66.8325 151.008 65.205 150.605 63.5075 150.43C63.1925 150.395 63.1925 150.92 63.525 150.955Z" fill="#837B7B"/>
<path d="M66.1325 141.365C66.115 143.378 66.4475 145.355 67.095 147.263C67.2 147.578 67.7075 147.438 67.6025 147.123C66.9725 145.268 66.6575 143.343 66.6575 141.365C66.6575 141.033 66.1325 141.033 66.1325 141.365Z" fill="#837B7B"/>
<path d="M75.74 150.885C76.5975 147.682 79.45 145.775 81.8825 143.815C84.4725 141.732 86.975 139.51 89.355 137.2C89.215 137.112 89.0575 137.025 88.9175 136.937C88.13 139.055 87.9725 141.277 88.0075 143.517C88.0425 145.757 88.55 148.33 87.8325 150.5C87.92 150.43 88.0075 150.377 88.0775 150.307C87.5175 150.342 86.9575 150.395 86.3975 150.43C86.2225 150.447 86.0475 150.657 86.17 150.832C86.5725 151.375 87.045 151.55 87.0275 152.355C87.0275 152.915 86.8875 153.562 86.695 154.087C86.5025 154.63 85.995 154.997 85.82 155.505C85.68 155.96 86.03 156.345 86.03 156.8C86.0475 157.552 85.505 158.182 85.12 158.777C84.7525 159.337 84.42 159.915 84.1225 160.51C83.5275 161.682 83.055 162.89 82.705 164.15C82.6175 164.482 83.125 164.622 83.2125 164.29C83.65 162.732 84.28 161.227 85.1025 159.827C85.6625 158.882 86.7125 157.78 86.59 156.59C86.5375 156.117 86.2925 155.977 86.5025 155.435C86.52 155.417 86.835 154.997 86.8525 154.962C87.185 154.42 87.3425 153.807 87.4475 153.195C87.5175 152.74 87.6575 152.18 87.5875 151.725C87.4825 151.077 86.9925 151.025 86.625 150.535C86.555 150.675 86.4675 150.797 86.3975 150.937C86.9575 150.902 87.5175 150.85 88.0775 150.815C88.2 150.797 88.2875 150.745 88.3225 150.622C88.9875 148.592 88.585 146.23 88.515 144.13C88.445 141.732 88.5325 139.317 89.39 137.042C89.495 136.78 89.1275 136.622 88.9525 136.78C86.415 139.247 83.755 141.61 80.9725 143.815C78.5925 145.705 76.02 147.63 75.1975 150.71C75.145 151.077 75.6525 151.217 75.74 150.885Z" fill="#837B7B"/>
<path d="M87.4125 139.475C85.6975 142.468 83.9475 145.425 82.3025 148.453C80.7625 151.253 79.3975 154.158 78.75 157.29C78.68 157.623 79.1875 157.763 79.2575 157.43C79.9225 154.228 81.34 151.288 82.915 148.435C84.525 145.513 86.2225 142.643 87.8675 139.738C88.025 139.458 87.57 139.178 87.4125 139.475Z" fill="#837B7B"/>
<path d="M82.2499 144.34C82.4774 145.338 82.5824 146.335 82.5474 147.35C82.5299 147.683 83.0549 147.683 83.0724 147.35C83.1074 146.283 83.0024 145.25 82.7574 144.2C82.6699 143.868 82.1799 144.008 82.2499 144.34Z" fill="#837B7B"/>
<path d="M85.1024 140.997C85.2949 141.75 85.33 142.485 85.2425 143.237C85.2074 143.57 85.7325 143.57 85.7675 143.237C85.8725 142.432 85.82 141.645 85.61 140.857C85.5225 140.542 85.0149 140.682 85.1024 140.997Z" fill="#837B7B"/>
<path d="M85.225 144.48C86.2575 143.867 87.325 143.325 88.4275 142.87C88.7425 142.747 88.6025 142.24 88.2875 142.362C87.1325 142.835 86.03 143.395 84.945 144.025C84.665 144.2 84.9275 144.655 85.225 144.48Z" fill="#837B7B"/>
<path d="M80.71 153.265C81.375 152.705 82.04 152.163 82.7225 151.638C83.44 151.078 84.2275 150.325 85.1025 149.975C85.4175 149.853 85.2775 149.345 84.9625 149.468C84.175 149.765 83.5275 150.343 82.8625 150.868C82.005 151.533 81.165 152.198 80.3425 152.898C80.08 153.108 80.4475 153.475 80.71 153.265Z" fill="#837B7B"/>
<path d="M60.445 143.448C61.67 143.57 62.895 143.693 64.12 143.798C64.4525 143.833 64.4525 143.308 64.12 143.273C62.895 143.15 61.67 143.028 60.445 142.923C60.1125 142.888 60.1125 143.413 60.445 143.448Z" fill="#837B7B"/>
<path d="M92.5575 178.36C114.485 178.36 136.395 178.36 158.322 178.36C164.5 178.36 170.677 178.36 176.855 178.36C177.187 178.36 177.187 177.835 176.855 177.835C154.927 177.835 133.017 177.835 111.09 177.835C104.912 177.835 98.735 177.835 92.5575 177.835C92.2075 177.835 92.2075 178.36 92.5575 178.36Z" fill="#837B7B"/>
<path d="M166.722 135.485C166.722 138.04 166.722 140.595 166.722 143.15C166.722 143.482 167.247 143.482 167.247 143.15C167.247 140.595 167.247 138.04 167.247 135.485C167.247 135.152 166.722 135.152 166.722 135.485Z" fill="#837B7B"/>
<path d="M154.647 144.323C163.135 144.323 171.622 144.323 180.11 144.323C180.442 144.323 180.442 143.798 180.11 143.798C171.622 143.798 163.135 143.798 154.647 143.798C154.315 143.798 154.297 144.323 154.647 144.323Z" fill="#837B7B"/>
<path d="M160.353 144.462C160.353 146.667 160.353 148.872 160.353 151.095C160.353 151.427 160.877 151.427 160.877 151.095C160.877 148.89 160.877 146.685 160.877 144.462C160.877 144.112 160.353 144.112 160.353 144.462Z" fill="#837B7B"/>
<path d="M173.478 144.323C173.478 146.265 173.478 148.225 173.478 150.168C173.478 150.5 174.002 150.5 174.002 150.168C174.002 148.225 174.002 146.265 174.002 144.323C174.002 143.99 173.478 143.99 173.478 144.323Z" fill="#837B7B"/>
<path d="M165.165 151.603C171.657 151.603 178.15 151.603 184.642 151.603C184.975 151.603 184.975 151.078 184.642 151.078C178.15 151.078 171.657 151.078 165.165 151.078C164.832 151.078 164.832 151.603 165.165 151.603Z" fill="#837B7B"/>
<path d="M150.482 183.435C164.815 183.435 179.147 183.435 193.48 183.435C193.812 183.435 193.812 182.91 193.48 182.91C179.147 182.91 164.815 182.91 150.482 182.91C150.15 182.91 150.15 183.435 150.482 183.435Z" fill="#837B7B"/>
<path d="M209.755 178.902C223.825 178.902 237.912 178.902 251.982 178.902C255.937 178.902 259.892 178.902 263.847 178.902C264.18 178.902 264.18 178.377 263.847 178.377C249.777 178.377 235.69 178.377 221.62 178.377C217.665 178.377 213.71 178.377 209.755 178.377C209.422 178.377 209.422 178.902 209.755 178.902Z" fill="#837B7B"/>
<path d="M35.2975 187.863C49.7175 187.863 64.155 187.863 78.575 187.863C78.9075 187.863 78.9075 187.338 78.575 187.338C64.155 187.338 49.7175 187.338 35.2975 187.338C34.965 187.338 34.965 187.863 35.2975 187.863Z" fill="#837B7B"/>
<path d="M64.3825 193.113C76.16 193.113 87.9375 193.113 99.715 193.113C100.048 193.113 100.048 192.588 99.715 192.588C87.9375 192.588 76.16 192.588 64.3825 192.588C64.0325 192.588 64.0325 193.113 64.3825 193.113Z" fill="#837B7B"/>
<path d="M243.425 43.4875C243.425 38.605 243.425 33.74 243.425 28.8575C243.425 28.525 242.9 28.525 242.9 28.8575C242.9 33.74 242.9 38.605 242.9 43.4875C242.9 43.82 243.425 43.82 243.425 43.4875Z" fill="#837B7B"/>
<path d="M243.337 28.7525C249.655 28.7525 255.972 28.7525 262.29 28.7525C262.622 28.7525 262.622 28.2275 262.29 28.2275C255.972 28.2275 249.655 28.2275 243.337 28.2275C243.005 28.2275 243.005 28.7525 243.337 28.7525Z" fill="#837B7B"/>
<path d="M262.027 28.525C261.992 33.4775 261.957 38.43 261.905 43.3825C261.905 43.715 262.43 43.715 262.43 43.3825C262.465 38.43 262.5 33.4775 262.552 28.525C262.552 28.1925 262.027 28.1925 262.027 28.525Z" fill="#837B7B"/>
<path d="M243.425 43.7501C249.655 43.7501 255.885 43.7501 262.115 43.7501C262.447 43.7501 262.447 43.2251 262.115 43.2251C255.885 43.2251 249.655 43.2251 243.425 43.2251C243.092 43.2251 243.092 43.7501 243.425 43.7501Z" fill="#837B7B"/>
<path d="M243.932 29.8727C243.932 33.9852 243.932 38.0802 243.932 42.1927C243.932 42.5252 244.457 42.5252 244.457 42.1927C244.457 38.0802 244.457 33.9852 244.457 29.8727C244.457 29.5402 243.932 29.5402 243.932 29.8727Z" fill="#837B7B"/>
<path d="M244.317 30.1351C249.847 30.1351 255.36 30.1351 260.89 30.1351C261.222 30.1351 261.222 29.6101 260.89 29.6101C255.36 29.6101 249.847 29.6101 244.317 29.6101C243.967 29.6101 243.967 30.1351 244.317 30.1351Z" fill="#837B7B"/>
<path d="M260.61 29.995C260.592 34.02 260.575 38.045 260.557 42.0875C260.557 42.42 261.082 42.42 261.082 42.0875C261.1 38.0625 261.117 34.0375 261.135 29.995C261.135 29.6625 260.61 29.6625 260.61 29.995Z" fill="#837B7B"/>
<path d="M244.422 42.525C249.865 42.525 255.307 42.525 260.75 42.525C261.082 42.525 261.082 42 260.75 42C255.307 42 249.865 42 244.422 42C244.09 42 244.09 42.525 244.422 42.525Z" fill="#837B7B"/>
<path d="M244.317 38.9026C246.33 38.2026 248.447 38.8326 250.407 39.4101C252.402 39.9876 254.362 40.6876 256.27 41.4926C256.585 41.6151 256.725 41.1076 256.41 40.9851C254.292 40.0926 252.122 39.3401 249.917 38.7276C248.045 38.2201 246.067 37.7301 244.177 38.3951C243.862 38.5001 244.002 39.0076 244.317 38.9026Z" fill="#837B7B"/>
<path d="M250.967 39.4975C254.275 39.305 257.373 37.975 260.645 37.6075C260.978 37.5725 260.978 37.0475 260.645 37.0825C257.373 37.45 254.275 38.7625 250.967 38.9725C250.617 39.0075 250.617 39.5325 250.967 39.4975Z" fill="#837B7B"/>
<path d="M257.232 33.0925C256.497 32.6725 257.162 31.29 257.95 31.6225C258.37 31.7975 258.457 32.305 258.23 32.6725C257.985 33.075 257.477 33.145 257.057 33.0225C256.725 32.935 256.585 33.4425 256.917 33.53C257.617 33.7225 258.405 33.5125 258.755 32.83C259.07 32.2175 258.825 31.4125 258.16 31.1325C256.795 30.555 255.675 32.83 256.97 33.5475C257.25 33.705 257.53 33.25 257.232 33.0925Z" fill="#837B7B"/>
<path d="M251.877 28.4025C251.895 28.105 251.912 27.8075 252 27.5275C252.07 27.3 252.245 26.7575 252.507 26.6525C252.98 26.4775 253.155 28.14 253.19 28.455C253.225 28.7875 253.75 28.7875 253.715 28.455C253.662 27.8425 253.522 25.9175 252.542 26.0575C252.122 26.11 251.825 26.5825 251.667 26.9325C251.457 27.3875 251.387 27.895 251.37 28.385C251.352 28.735 251.877 28.735 251.877 28.4025Z" fill="#837B7B"/>
<path d="M254.817 110.04C254.817 112.14 254.817 114.258 254.817 116.358C254.817 116.69 255.342 116.69 255.342 116.358C255.342 114.258 255.342 112.14 255.342 110.04C255.342 109.708 254.817 109.708 254.817 110.04Z" fill="#837B7B"/>
<path d="M248.465 117.128C253.225 117.128 258.002 117.128 262.762 117.128C263.095 117.128 263.095 116.603 262.762 116.603C258.002 116.603 253.225 116.603 248.465 116.603C248.132 116.603 248.132 117.128 248.465 117.128Z" fill="#837B7B"/>
<path d="M250.477 117.285C250.477 118.283 250.477 119.263 250.477 120.26C250.477 120.593 251.002 120.593 251.002 120.26C251.002 119.263 251.002 118.283 251.002 117.285C251.002 116.953 250.477 116.953 250.477 117.285Z" fill="#837B7B"/>
<path d="M258.125 117.442C258.125 118.615 258.125 119.805 258.125 120.977C258.125 121.31 258.65 121.31 258.65 120.977C258.65 119.805 258.65 118.615 258.65 117.442C258.65 117.092 258.125 117.092 258.125 117.442Z" fill="#837B7B"/>
<path d="M254.415 121.66C257.722 121.66 261.03 121.66 264.337 121.66C264.67 121.66 264.67 121.135 264.337 121.135C261.03 121.135 257.722 121.135 254.415 121.135C254.082 121.135 254.082 121.66 254.415 121.66Z" fill="#837B7B"/>
<path d="M133.332 172.83C138.845 169.103 141.61 167.23 142.327 167.003C144.077 166.443 149.747 164.64 154.7 167.668C158.252 169.838 161.525 174.545 160.16 177.695C159.18 179.935 156.187 180.635 153.475 181.283C149.467 182.228 146.037 181.703 144.112 181.248C143.36 181.983 142.152 182.963 140.455 183.61C137.637 184.695 134.382 184.503 134.225 183.855C134.155 183.523 134.855 182.875 138.25 181.545C137.847 181.108 137.252 180.583 136.412 180.215C133.927 179.078 131.442 180.18 130.97 180.408C133.402 181.825 133.927 182.56 133.805 182.963C133.49 183.978 128.537 184.31 127.207 181.983C127.067 181.755 126.682 180.968 126.997 179.48C127.627 176.75 129.902 175.158 133.332 172.83Z" fill="#444444"/>
<path d="M157.343 176.715C157.903 175.56 160.423 175.84 161.403 175.945C162.663 176.085 163.783 176.208 164.798 177.1C165.568 177.765 166.688 179.218 166.285 180.39C165.918 181.51 164.535 181.423 161.858 182.735C161.403 182.963 157.028 185.115 157.325 186.533C157.448 187.11 158.235 187.093 160.738 188.16C162.908 189.07 164.185 189.63 165.253 190.855C165.778 191.468 166.828 192.675 166.548 193.9C166.023 196.158 161.333 196.543 161.21 196.193C161.105 195.895 164.395 195.073 164.43 193.533C164.465 192.36 162.628 191.415 161.473 190.803C158.078 189.035 155.785 189.665 154.893 187.968C154.385 187.005 154.665 185.973 154.718 185.78C154.98 184.835 155.715 184.03 159.303 182.228C162.575 180.583 164.028 180.198 164.01 179.463C163.993 178.78 162.733 178.22 161.963 178.028C159.793 177.45 158.2 178.815 157.465 178.045C157.15 177.695 157.168 177.1 157.343 176.715Z" fill="#444444"/>
<path d="M127.453 168.245C128.555 169.068 129.658 169.89 130.76 170.713C132.335 170.555 133.893 170.415 135.468 170.258C136.448 169.313 137.428 168.35 138.408 167.405C138.478 168 138.618 169.348 138.67 169.995C139.283 175.823 139.335 176.33 138.968 176.995C137.76 179.148 133.683 180.023 131.338 178.518C130.2 177.783 129.763 176.68 128.94 174.563C127.943 172.008 127.593 169.768 127.453 168.245Z" fill="#444444"/>
<path d="M131.898 174.3C131.635 174.843 131.058 175.175 130.462 175.07C130.305 175.035 130.235 175.298 130.392 175.315C131.11 175.438 131.828 175.088 132.125 174.423C132.195 174.283 131.985 174.143 131.898 174.3Z" fill="white"/>
<path d="M134.33 174.125C134.907 174.685 135.677 174.93 136.465 174.808C136.64 174.79 136.552 174.528 136.395 174.563C135.695 174.668 135.012 174.44 134.505 173.95C134.382 173.828 134.207 174.003 134.33 174.125Z" fill="white"/>
<path d="M133.402 175.788C133.35 175.788 133.315 175.77 133.262 175.77C133.28 175.753 133.28 175.718 133.297 175.7C133.332 175.735 133.385 175.77 133.42 175.805C133.42 175.77 133.402 175.752 133.402 175.717C133.35 175.56 133.105 175.63 133.158 175.788C133.245 176.173 133.385 176.768 132.913 176.96C132.755 177.03 132.825 177.275 132.983 177.205C133.612 176.943 133.542 176.26 133.42 175.7C133.332 175.718 133.245 175.753 133.175 175.77C133.175 175.805 133.192 175.823 133.192 175.858C133.21 175.91 133.262 175.963 133.315 175.963C133.77 175.928 133.402 175.297 133.192 175.665C133.105 175.788 133.315 175.928 133.402 175.788Z" fill="white"/>
<path d="M133.227 175.91C133.315 176.207 133.332 176.54 133.525 176.802C133.682 177.012 133.927 177.117 134.19 177.065C134.347 177.03 134.278 176.785 134.12 176.82C133.63 176.925 133.56 176.155 133.472 175.84C133.437 175.683 133.192 175.753 133.227 175.91Z" fill="white"/>
<path d="M132.388 176.155C131.88 175.928 131.355 175.823 130.795 175.858C130.62 175.875 130.62 176.138 130.795 176.12C131.303 176.085 131.793 176.173 132.248 176.383C132.405 176.453 132.545 176.225 132.388 176.155Z" fill="white"/>
<path d="M131.932 176.505C131.495 176.54 131.11 176.715 130.812 177.013C130.69 177.135 130.882 177.31 131.005 177.205C131.267 176.96 131.582 176.803 131.95 176.768C132.09 176.75 132.09 176.488 131.932 176.505Z" fill="white"/>
<path d="M134.435 176.033C134.942 175.84 135.45 175.77 135.992 175.823C136.167 175.84 136.167 175.578 135.992 175.56C135.432 175.508 134.89 175.595 134.365 175.788C134.207 175.84 134.26 176.103 134.435 176.033Z" fill="white"/>
<path d="M134.785 176.505C135.17 176.452 135.537 176.488 135.905 176.628C136.062 176.68 136.132 176.435 135.975 176.383C135.59 176.242 135.187 176.207 134.785 176.26C134.61 176.26 134.61 176.54 134.785 176.505Z" fill="white"/>
<path d="M130.655 173.53C130.917 173.373 131.232 173.373 131.495 173.53C131.635 173.618 131.775 173.39 131.635 173.303C131.285 173.11 130.882 173.11 130.532 173.303C130.375 173.39 130.515 173.618 130.655 173.53Z" fill="white"/>
<path d="M134.33 173.18C134.592 173.04 134.89 173.005 135.205 173.04C135.362 173.058 135.45 172.813 135.275 172.795C134.907 172.743 134.54 172.795 134.207 172.97C134.032 173.023 134.172 173.25 134.33 173.18Z" fill="white"/>
<path d="M130.147 167.685C130.69 167.458 131.232 167.23 131.757 166.985C131.652 166.915 131.565 166.845 131.46 166.758C131.25 167.423 130.935 168.018 130.515 168.578C130.41 168.718 130.585 168.928 130.742 168.875C131.337 168.648 131.932 168.438 132.527 168.21C132.755 168.123 132.667 167.738 132.422 167.825C131.827 168.053 131.232 168.263 130.637 168.49C130.707 168.595 130.777 168.683 130.865 168.788C131.32 168.21 131.635 167.58 131.862 166.88C131.915 166.705 131.722 166.6 131.565 166.653C131.022 166.88 130.48 167.108 129.955 167.353C129.71 167.458 129.92 167.79 130.147 167.685Z" fill="#444444"/>
<path d="M131.022 164.5C131.39 164.29 131.757 164.15 132.16 164.063C132.09 163.958 132.02 163.87 131.932 163.765C131.775 164.115 131.582 164.465 131.355 164.78C131.267 164.92 131.39 165.06 131.53 165.078C132.002 165.113 132.44 164.99 132.807 164.71C133 164.553 132.807 164.22 132.615 164.378C132.3 164.623 131.95 164.728 131.547 164.693C131.6 164.798 131.652 164.885 131.722 164.99C131.95 164.658 132.142 164.325 132.3 163.975C132.37 163.818 132.247 163.643 132.072 163.678C131.635 163.765 131.215 163.923 130.83 164.15C130.602 164.29 130.795 164.623 131.022 164.5Z" fill="#444444"/>
<path d="M133.91 168.735C133.333 168.158 134.33 167.825 134.435 167.318C134.54 166.723 133.84 166.163 134.628 165.708C134.855 165.585 134.645 165.235 134.435 165.375C134.155 165.533 133.928 165.778 133.858 166.11C133.753 166.67 134.243 167.003 133.823 167.51C133.63 167.755 133.403 167.825 133.333 168.158C133.263 168.49 133.402 168.77 133.63 169.015C133.823 169.19 134.103 168.91 133.91 168.735Z" fill="#444444"/>
<path d="M182.228 118.773C138.355 121.94 94.4825 125.09 50.6275 128.258C49.4375 96.4426 48.2475 64.6276 47.075 32.8126C91.14 32.2176 135.205 31.6226 179.27 31.0276C180.25 60.2701 181.23 89.5126 182.228 118.773Z" fill="#F2F9FF" stroke="#444444" stroke-width="3.5" stroke-miterlimit="10"/>
<path d="M84.35 48.3001C92.855 48.3001 101.377 48.3001 109.882 48.3001C110.215 48.3001 110.215 47.7751 109.882 47.7751C101.377 47.7751 92.855 47.7751 84.35 47.7751C84.0175 47.7751 84.0175 48.3001 84.35 48.3001Z" fill="#444444"/>
<path d="M93.905 50.4525C102.673 50.4525 111.44 50.4525 120.208 50.4525C120.54 50.4525 120.54 49.9275 120.208 49.9275C111.44 49.9275 102.673 49.9275 93.905 49.9275C93.555 49.9275 93.555 50.4525 93.905 50.4525Z" fill="#444444"/>
<path d="M52.395 101.798C52.71 109.113 53.025 116.445 53.34 123.76C53.3575 124.093 53.8825 124.093 53.865 123.76C53.55 116.445 53.235 109.113 52.92 101.798C52.9025 101.465 52.3775 101.465 52.395 101.798Z" fill="#444444"/>
<path d="M90.9475 97.5277C91.7 97.5277 92.4525 97.5277 93.2225 97.5277C93.555 97.5277 93.555 97.0027 93.2225 97.0027C92.47 97.0027 91.7175 97.0027 90.9475 97.0027C90.615 97.0027 90.615 97.5277 90.9475 97.5277Z" fill="#444444"/>
<path d="M95.2 97.5277C97.1425 97.5277 99.0675 97.5277 101.01 97.5277C101.343 97.5277 101.343 97.0027 101.01 97.0027C99.0675 97.0027 97.1425 97.0027 95.2 97.0027C94.8675 97.0027 94.8675 97.5277 95.2 97.5277Z" fill="#444444"/>
<path d="M105.403 97.2477C107.713 97.2477 110.023 97.2477 112.35 97.2477C112.683 97.2477 112.683 96.7227 112.35 96.7227C110.04 96.7227 107.73 96.7227 105.403 96.7227C105.07 96.7227 105.07 97.2477 105.403 97.2477Z" fill="#444444"/>
<path d="M94.08 101.202C96.915 101.202 99.75 101.202 102.585 101.202C102.918 101.202 102.918 100.677 102.585 100.677C99.75 100.677 96.915 100.677 94.08 100.677C93.73 100.677 93.73 101.202 94.08 101.202Z" fill="#444444"/>
<path d="M98.175 99.2252C101.483 99.2252 104.79 99.2252 108.097 99.2252C108.43 99.2252 108.43 98.7002 108.097 98.7002C104.79 98.7002 101.483 98.7002 98.175 98.7002C97.8425 98.7002 97.8425 99.2252 98.175 99.2252Z" fill="#444444"/>
<path d="M115.745 117.933C121.31 117.933 126.893 117.933 132.458 117.933C132.79 117.933 132.79 117.408 132.458 117.408C126.893 117.408 121.31 117.408 115.745 117.408C115.413 117.408 115.413 117.933 115.745 117.933Z" fill="#444444"/>
<path d="M129.483 119.35C132.405 119.35 135.345 119.35 138.268 119.35C138.6 119.35 138.6 118.825 138.268 118.825C135.345 118.825 132.405 118.825 129.483 118.825C129.15 118.825 129.15 119.35 129.483 119.35Z" fill="#444444"/>
<path d="M137.13 117.215C140.017 117.215 142.888 117.215 145.775 117.215C146.108 117.215 146.108 116.69 145.775 116.69C142.888 116.69 140.017 116.69 137.13 116.69C136.797 116.69 136.797 117.215 137.13 117.215Z" fill="#444444"/>
<path d="M151.865 69.7726C157.202 69.7726 162.54 69.7726 167.877 69.7726C168.21 69.7726 168.21 69.2476 167.877 69.2476C162.54 69.2476 157.202 69.2476 151.865 69.2476C151.532 69.2476 151.532 69.7726 151.865 69.7726Z" fill="#444444"/>
<path d="M146.913 70.6126C148.61 70.6126 150.308 70.6126 152.005 70.6126C152.338 70.6126 152.338 70.0876 152.005 70.0876C150.308 70.0876 148.61 70.0876 146.913 70.0876C146.563 70.0876 146.563 70.6126 146.913 70.6126Z" fill="#444444"/>
<path d="M147.893 72.0302C153.598 72.0302 159.32 72.0302 165.025 72.0302C165.358 72.0302 165.358 71.5051 165.025 71.5051C159.32 71.5051 153.598 71.5051 147.893 71.5051C147.56 71.5051 147.56 72.0302 147.893 72.0302Z" fill="#444444"/>
<path d="M169.015 70.7525C170.1 70.7525 171.185 70.7525 172.27 70.7525C172.602 70.7525 172.602 70.2275 172.27 70.2275C171.185 70.2275 170.1 70.2275 169.015 70.2275C168.665 70.2275 168.665 70.7525 169.015 70.7525Z" fill="#444444"/>
<path d="M164.763 92.1375C166.373 92.1375 167.965 92.1375 169.575 92.1375C169.907 92.1375 169.907 91.6125 169.575 91.6125C167.965 91.6125 166.373 91.6125 164.763 91.6125C164.413 91.6125 164.413 92.1375 164.763 92.1375Z" fill="#444444"/>
<path d="M161.648 93.555C163.397 93.555 165.147 93.555 166.88 93.555C167.212 93.555 167.212 93.03 166.88 93.03C165.13 93.03 163.38 93.03 161.648 93.03C161.298 93.03 161.298 93.555 161.648 93.555Z" fill="#444444"/>
<path d="M164.185 94.9725C167.633 94.9725 171.08 94.9725 174.528 94.9725C174.86 94.9725 174.86 94.4475 174.528 94.4475C171.08 94.4475 167.633 94.4475 164.185 94.4475C163.853 94.4475 163.853 94.9725 164.185 94.9725Z" fill="#444444"/>
<path d="M170.713 93.275C171.745 93.275 172.795 93.275 173.828 93.275C174.16 93.275 174.16 92.75 173.828 92.75C172.795 92.75 171.745 92.75 170.713 92.75C170.363 92.75 170.363 93.275 170.713 93.275Z" fill="#444444"/>
<path d="M98.63 71.4525C101.08 71.4525 103.513 71.4525 105.963 71.4525C106.295 71.4525 106.295 70.9275 105.963 70.9275C103.513 70.9275 101.08 70.9275 98.63 70.9275C98.2975 70.9275 98.2975 71.4525 98.63 71.4525Z" fill="#444444"/>
<path d="M103.968 72.9576C107.573 72.9576 111.195 72.9576 114.8 72.9576C115.133 72.9576 115.133 72.4326 114.8 72.4326C111.195 72.4326 107.573 72.4326 103.968 72.4326C103.635 72.4326 103.618 72.9576 103.968 72.9576Z" fill="#444444"/>
<path d="M113.47 70.9452C115.518 70.9452 117.583 70.9452 119.63 70.9452C119.963 70.9452 119.963 70.4202 119.63 70.4202C117.583 70.4202 115.518 70.4202 113.47 70.4202C113.138 70.4202 113.138 70.9452 113.47 70.9452Z" fill="#444444"/>
<path d="M50.8375 43.015C51.2225 56.2975 51.6075 69.5975 51.9925 82.88C52.0975 86.66 52.2025 90.4225 52.325 94.2025C52.3425 94.535 52.8675 94.535 52.85 94.2025C52.465 80.92 52.08 67.62 51.695 54.3375C51.59 50.5575 51.485 46.795 51.3625 43.015C51.3625 42.6825 50.8375 42.6825 50.8375 43.015Z" fill="#444444"/>
<path d="M178.045 86.4325C178.308 95.2175 178.57 103.985 178.833 112.77C178.85 113.102 179.375 113.102 179.357 112.77C179.095 103.985 178.833 95.2175 178.57 86.4325C178.57 86.1 178.045 86.1 178.045 86.4325Z" fill="#444444"/>
<path d="M141.802 82.4075C141.907 83.475 142.012 84.56 142.1 85.6275C143.115 85.365 144.112 85.085 145.127 84.8225C144.987 83.755 144.865 82.67 144.725 81.6025C143.745 81.865 142.782 82.145 141.802 82.4075Z" fill="#EC615B"/>
<path d="M141.19 90.58C142.24 90.44 143.272 90.3175 144.322 90.1775C144.462 91.455 144.585 92.7325 144.725 94.01C143.78 94.045 142.835 94.08 141.907 94.115C141.663 92.925 141.435 91.7525 141.19 90.58Z" fill="#EC615B"/>
<path d="M145.023 98.3324C145.355 99.4349 145.688 100.555 146.038 101.657C146.983 101.22 147.928 100.782 148.855 100.345C148.558 99.3649 148.243 98.4024 147.945 97.4224C146.983 97.7374 146.003 98.0349 145.023 98.3324Z" fill="#EC615B"/>
<path d="M75.845 108.762C76.0725 112.157 76.3 115.552 76.5275 118.93C82.4775 118.545 88.4275 118.177 94.3774 117.792C94.4824 114.747 94.605 111.685 94.71 108.64C88.4275 108.692 82.1275 108.727 75.845 108.762Z" fill="#12335E"/>
<path d="M149.818 39.69C150.504 39.69 151.06 39.2277 151.06 38.6575C151.06 38.0873 150.504 37.625 149.818 37.625C149.131 37.625 148.575 38.0873 148.575 38.6575C148.575 39.2277 149.131 39.69 149.818 39.69Z" fill="#12335E"/>
<path d="M65.38 47.4251C65.9503 47.4251 66.4125 47.1195 66.4125 46.7426C66.4125 46.3656 65.9503 46.0601 65.38 46.0601C64.8098 46.0601 64.3475 46.3656 64.3475 46.7426C64.3475 47.1195 64.8098 47.4251 65.38 47.4251Z" fill="#EC615B"/>
<path d="M81.8125 67.2174C82.2571 67.2174 82.6175 66.7943 82.6175 66.2724C82.6175 65.7505 82.2571 65.3274 81.8125 65.3274C81.3679 65.3274 81.0075 65.7505 81.0075 66.2724C81.0075 66.7943 81.3679 67.2174 81.8125 67.2174Z" fill="#EC615B"/>
<path opacity="0.21" d="M74.4275 43.645C74.7425 43.5925 75.355 46.515 76.86 51.8175C78.8375 58.8 80.7975 64.435 82.215 68.285C80.0625 69.615 75.25 72.1525 68.6875 72.24C64.05 72.2925 60.3925 71.1025 58.2225 70.1925C62.475 70.665 65.905 70.5425 68.3025 70.315C72.1 69.965 71.435 69.5625 74.305 69.4225C75.495 69.37 77.0525 69.37 78.645 68.4075C79.2225 68.0575 79.6425 67.6725 79.9225 67.3925C78.8025 65.0825 77.3675 61.6875 76.2125 57.435C74.375 50.5225 73.9725 43.7325 74.4275 43.645Z" fill="#6D6C6C"/>
<path opacity="0.25" d="M90.825 62.6326C91.105 64.8551 91.6125 67.3401 92.4525 70.0001C94.85 77.5601 98.8925 82.9501 101.937 86.2751C100.117 87.6226 97.86 89.0226 95.1475 90.1951C86.9225 93.7476 79.24 93.2226 75.1275 92.5926C74.97 91.6651 74.8125 90.7376 74.655 89.8101C76.405 89.8626 78.26 89.8276 80.2025 89.7226C87.1325 89.2851 93.0825 87.7276 97.825 85.9951C96.32 83.4401 95.235 81.2351 94.4825 79.5726C92.6625 75.6001 91.315 72.6076 90.8425 68.5651C90.545 66.0976 90.6675 64.0151 90.825 62.6326Z" fill="#6D6C6C"/>
<path opacity="0.14" d="M146.458 74.2175C146.633 78.2075 147.053 81.515 147.42 83.895C148.278 89.355 148.908 93.135 151.148 97.3875C152.548 100.03 154.123 101.972 155.26 103.232C153.283 104.93 150.623 106.855 147.21 108.395C138.635 112.297 130.585 111.51 126.822 110.88C126.63 110.022 126.437 109.165 126.245 108.29C126.717 108.325 127.452 108.36 128.345 108.377C131.32 108.447 137.515 108.552 144.62 106.172C146.615 105.507 149.415 104.387 152.565 102.532C151.323 100.87 150.098 98.8925 149.03 96.6C144.813 87.5525 145.653 78.7675 146.458 74.2175Z" fill="#6D6C6C"/>
<path opacity="0.18" d="M159.863 34.9648C160.213 36.5923 160.72 39.0773 161.228 42.1748C162.173 48.1598 162.103 50.3298 163.205 53.8648C163.783 55.7023 164.815 58.3098 166.758 61.2848C165.13 62.6148 163.1 63.9973 160.598 65.1523C152.408 68.9498 144.568 67.8823 140.963 67.1298C140.998 66.4298 141.033 65.7299 141.068 65.0473C141.523 65.1698 142.205 65.3273 143.045 65.4673C144.148 65.6423 148.225 66.2373 155.89 64.3123C158.008 63.7873 160.86 62.9473 164.133 61.5998C163.503 60.4798 162.575 58.7298 161.735 56.4898C159.285 49.9973 159.303 44.3623 159.338 41.4573C159.355 39.8648 159.46 37.6423 159.863 34.9648Z" fill="#6D6C6C"/>
<path d="M55.2475 42.6476C53.515 51.8176 55.265 61.0926 57.015 70.1226C57.085 70.4551 57.5925 70.3151 57.5225 69.9826C55.79 61.0576 54.0575 51.8701 55.755 42.7876C55.8075 42.4726 55.3 42.3151 55.2475 42.6476Z" fill="#444444"/>
<path d="M55.7375 42.5775C58.24 44.2575 61.2675 44.555 64.225 44.345C67.6025 44.1 70.945 43.3825 74.2875 42.8225C74.62 42.77 74.48 42.2625 74.1475 42.315C70.945 42.84 67.7425 43.5225 64.505 43.785C61.5475 44.03 58.52 43.8025 56 42.105C55.72 41.93 55.4575 42.385 55.7375 42.5775Z" fill="#444444"/>
<path d="M73.9375 43.19C74.4275 51.5551 75.6875 60.0951 79.9225 67.4451C80.0975 67.7426 80.5525 67.4801 80.3775 67.1826C76.195 59.9026 74.9525 51.4501 74.4625 43.19C74.445 42.8575 73.92 42.8575 73.9375 43.19Z" fill="#444444"/>
<path d="M57.4525 70.2625C61.425 71.4175 65.695 70.7175 69.7375 70.385C73.325 70.0875 77.175 69.9475 80.255 67.8475C80.535 67.655 80.2725 67.2 79.9925 67.3925C76.895 69.51 73.01 69.58 69.405 69.8775C65.52 70.1925 61.425 70.84 57.5925 69.7375C57.26 69.6675 57.12 70.175 57.4525 70.2625Z" fill="#444444"/>
<path d="M64.1725 46.8474C63.8225 46.6899 64.2075 46.3574 64.4175 46.3049C64.68 46.2349 65.1875 46.1999 65.31 46.4974C65.3975 46.7249 65.2575 47.0224 65.0475 47.1099C64.715 47.2674 64.3475 47.0749 64.12 46.8474C63.875 46.6024 63.5075 46.9699 63.7525 47.2149C64.19 47.6524 64.9075 47.8799 65.45 47.4774C65.8875 47.1624 66.045 46.4624 65.6775 46.0424C65.2575 45.5699 64.365 45.6224 63.8925 45.9724C63.4725 46.2874 63.385 47.0399 63.9275 47.2849C64.225 47.4424 64.4875 46.9874 64.1725 46.8474Z" fill="#444444"/>
<path d="M71.19 70.3325C69.93 76.72 71.2775 83.1775 72.6425 89.4425C72.7125 89.775 73.22 89.635 73.15 89.3025C71.8025 83.1425 70.4725 76.7725 71.6975 70.4725C71.7675 70.14 71.26 70 71.19 70.3325Z" fill="#444444"/>
<path d="M78.4175 63.6299C82.46 62.8599 86.555 62.5799 90.65 62.7374C90.5625 62.6499 90.475 62.5624 90.3875 62.4749C89.565 70.9099 93.17 78.9424 97.545 85.9249C97.72 86.2049 98.175 85.9424 98 85.6624C93.6775 78.7499 90.09 70.8224 90.9125 62.4749C90.93 62.3349 90.7725 62.2124 90.65 62.2124C86.5025 62.0549 82.355 62.3524 78.2775 63.1224C77.945 63.1924 78.085 63.6999 78.4175 63.6299Z" fill="#444444"/>
<path d="M72.9225 89.81C81.4275 90.8075 90.055 89.53 97.93 86.17C98.245 86.03 97.965 85.5925 97.6675 85.715C89.8975 89.04 81.3225 90.265 72.9225 89.285C72.59 89.25 72.59 89.775 72.9225 89.81Z" fill="#444444"/>
<path d="M81.7075 65.7824C81.7075 65.7649 81.76 65.6774 81.76 65.6424C81.7775 65.5724 81.83 65.5024 81.8825 65.4499C81.9875 65.3624 82.11 65.2924 82.25 65.2749C82.5125 65.2399 82.7575 65.3799 82.8275 65.6424C82.88 65.8524 82.7925 66.1324 82.5475 66.1674C82.32 66.2024 82.11 66.0449 82.075 65.8174C82.0225 65.4849 81.515 65.6249 81.5675 65.9574C81.655 66.5699 82.4425 66.8674 82.95 66.5699C83.51 66.2374 83.475 65.3799 83.0025 64.9774C82.4775 64.5398 81.6025 64.7674 81.305 65.3624C81.165 65.6599 81.165 66.0624 81.4975 66.2374C81.76 66.3774 82.145 66.2549 82.215 65.9224C82.2675 65.5899 81.76 65.4499 81.7075 65.7824Z" fill="#444444"/>
<path d="M56.98 52.1675C61.635 52.815 66.2551 51.8525 70.7176 50.575C71.0501 50.4875 70.9101 49.98 70.5776 50.0675C66.2025 51.31 61.67 52.29 57.12 51.66C56.7875 51.6075 56.6475 52.115 56.98 52.1675Z" fill="#444444"/>
<path d="M57.855 55.5973C60.27 55.8598 62.685 55.6148 65.0125 54.8799C65.3275 54.7749 65.205 54.2674 64.8725 54.3724C62.5975 55.0899 60.235 55.3174 57.855 55.0724C57.5225 55.0374 57.5225 55.5623 57.855 55.5973Z" fill="#444444"/>
<path d="M57.855 59.8324C62.475 60.3749 67.13 60.0424 71.61 58.8699C71.9425 58.7824 71.8025 58.2749 71.47 58.3624C67.025 59.5349 62.4225 59.8499 57.855 59.3074C57.5225 59.2549 57.5225 59.7799 57.855 59.8324Z" fill="#444444"/>
<path d="M75.145 86.6949C79.7825 86.9049 84.42 86.3449 88.865 85.0149C89.18 84.9274 89.0575 84.4199 88.725 84.5074C84.315 85.8199 79.7475 86.3799 75.145 86.1699C74.795 86.1524 74.795 86.6774 75.145 86.6949Z" fill="#444444"/>
<path d="M76.0375 82.6875C78.1025 82.6175 80.1675 82.46 82.2325 82.2325C82.565 82.1975 82.565 81.6725 82.2325 81.7075C80.1675 81.935 78.12 82.0925 76.0375 82.1625C75.705 82.18 75.705 82.705 76.0375 82.6875Z" fill="#444444"/>
<path d="M77.7175 75.4774C79.0825 75.6524 80.5 75.3024 81.8475 75.1099C83.335 74.8824 84.805 74.6724 86.2925 74.4449C86.625 74.3924 86.485 73.8849 86.1525 73.9374C84.7875 74.1474 83.405 74.3574 82.04 74.5499C80.6225 74.7599 79.1525 75.1449 77.7175 74.9524C77.385 74.8999 77.385 75.4249 77.7175 75.4774Z" fill="#444444"/>
<path d="M139.563 36.2424C137.655 45.6049 137.463 55.2299 138.985 64.6624C139.038 64.9949 139.545 64.8549 139.493 64.5224C137.988 55.1949 138.198 45.6399 140.07 36.3824C140.14 36.0499 139.633 35.9099 139.563 36.2424Z" fill="#444444"/>
<path d="M140.158 36.365C146.51 34.9125 153.073 34.615 159.548 35.49C159.88 35.5425 160.02 35.035 159.688 34.9825C153.125 34.09 146.475 34.3875 140.018 35.8575C139.703 35.945 139.843 36.4525 140.158 36.365Z" fill="#444444"/>
<path d="M159.39 35.0174C159.198 44.0299 159.32 53.5499 163.888 61.6174C164.063 61.9149 164.5 61.6524 164.343 61.3549C159.828 53.3749 159.723 43.9424 159.915 35.0174C159.933 34.6849 159.408 34.6849 159.39 35.0174Z" fill="#444444"/>
<path d="M139.387 64.9425C141.347 65.5375 143.447 65.5725 145.477 65.59C147.665 65.6075 149.852 65.4675 152.04 65.17C156.222 64.61 160.3 63.4725 164.202 61.8275C164.517 61.705 164.237 61.25 163.94 61.3725C160.037 63.0175 155.925 64.1375 151.725 64.68C149.765 64.925 147.787 65.065 145.81 65.0475C143.727 65.0475 141.54 65.03 139.545 64.4175C139.195 64.3475 139.072 64.855 139.387 64.9425Z" fill="#444444"/>
<path d="M150.098 36.925C149.503 37.135 149.24 37.8175 149.45 38.395C149.695 39.0425 150.448 39.2 151.008 38.815C151.55 38.43 151.725 37.66 151.2 37.17C150.745 36.75 149.958 36.7325 149.538 37.1875C149.31 37.4325 149.678 37.8 149.905 37.555C150.43 36.995 151.463 37.7825 150.745 38.3425C150.465 38.5525 150.063 38.5525 149.94 38.185C149.853 37.905 149.94 37.52 150.238 37.415C150.553 37.31 150.413 36.8025 150.098 36.925Z" fill="#444444"/>
<path d="M139.825 44.3799C144.603 44.5024 149.363 44.4149 154.123 44.0999C154.455 44.0824 154.455 43.5574 154.123 43.5749C149.363 43.8899 144.585 43.9949 139.825 43.8549C139.475 43.8549 139.475 44.3799 139.825 44.3799Z" fill="#444444"/>
<path d="M140.298 47.0398C142.083 47.1098 143.868 47.1798 145.635 47.2498C145.968 47.2673 145.968 46.7423 145.635 46.7248C143.85 46.6548 142.065 46.5848 140.298 46.5148C139.948 46.4973 139.948 47.0223 140.298 47.0398Z" fill="#444444"/>
<path d="M139.808 50.75C144.305 50.995 148.855 51.205 153.283 50.225C153.615 50.155 153.475 49.6475 153.143 49.7175C148.75 50.68 144.253 50.47 139.808 50.225C139.475 50.2075 139.475 50.7325 139.808 50.75Z" fill="#444444"/>
<path d="M74.5675 107.642C74.165 111.142 74.0251 114.66 74.1476 118.177C74.1651 118.51 74.6901 118.51 74.6726 118.177C74.5501 114.66 74.69 111.142 75.0925 107.642C75.1275 107.31 74.6025 107.31 74.5675 107.642Z" fill="#444444"/>
<path d="M74.7425 107.853C80.9725 107.853 87.2201 107.765 93.4501 107.573C93.7826 107.555 93.7826 107.03 93.4501 107.048C87.2201 107.24 80.9725 107.328 74.7425 107.328C74.41 107.328 74.41 107.853 74.7425 107.853Z" fill="#444444"/>
<path d="M93.3975 107.328C93.45 110.373 93.5025 113.4 93.555 116.445C93.555 116.778 94.08 116.778 94.08 116.445C94.0275 113.4 93.975 110.373 93.9225 107.328C93.9225 106.995 93.38 106.995 93.3975 107.328Z" fill="#444444"/>
<path d="M74.095 117.792C74.13 118.93 76.1075 118.422 76.755 118.387C78.61 118.265 80.465 118.142 82.3025 118.002C86.065 117.74 89.8275 117.495 93.59 117.232C93.9225 117.215 93.9225 116.69 93.59 116.707C90.3875 116.917 87.2025 117.145 84 117.355C82.4775 117.46 80.955 117.565 79.4325 117.67C78.9775 117.705 74.62 118.125 74.6025 117.792C74.62 117.46 74.095 117.46 74.095 117.792Z" fill="#444444"/>
<path d="M76.16 110.215C80.36 110.022 84.56 110.18 88.725 110.705C89.0575 110.74 89.0575 110.215 88.725 110.18C84.56 109.655 80.36 109.497 76.16 109.69C75.81 109.707 75.81 110.232 76.16 110.215Z" fill="#444444"/>
<path d="M76.3176 112.875C78.6625 112.7 81.025 112.508 83.37 112.333C83.7025 112.315 83.7025 111.79 83.37 111.808C81.025 111.983 78.6625 112.175 76.3176 112.35C75.9851 112.368 75.9851 112.893 76.3176 112.875Z" fill="#444444"/>
<path d="M77.105 115.552C80.4825 115.115 84.1575 114.222 87.5525 114.835C87.885 114.887 88.025 114.397 87.6925 114.327C84.2275 113.697 80.5525 114.572 77.105 115.027C76.79 115.08 76.7725 115.605 77.105 115.552Z" fill="#444444"/>
<path d="M122.623 77.8574C119.84 87.7623 120.19 98.3673 123.603 108.08C123.708 108.395 124.215 108.255 124.11 107.94C120.733 98.3148 120.383 87.8149 123.13 77.9974C123.218 77.6649 122.71 77.5249 122.623 77.8574Z" fill="#444444"/>
<path d="M122.973 78.0324C130.76 77.9974 138.513 76.9824 146.055 75.0049C146.388 74.9174 146.248 74.4099 145.915 74.4974C138.425 76.4574 130.725 77.4724 122.973 77.5074C122.623 77.5074 122.623 78.0324 122.973 78.0324Z" fill="#444444"/>
<path d="M145.915 74.69C145.6 79.555 145.81 84.455 146.685 89.2675C147.123 91.7 147.648 94.1325 148.61 96.4075C149.573 98.665 150.903 100.713 152.46 102.585C152.67 102.848 153.055 102.48 152.827 102.218C151.235 100.31 149.888 98.1925 148.943 95.8825C148.05 93.6775 147.56 91.315 147.158 88.9875C146.318 84.28 146.125 79.4675 146.423 74.69C146.458 74.3575 145.933 74.3575 145.915 74.69Z" fill="#444444"/>
<path d="M123.673 108.36C133.578 109.06 143.92 107.94 152.6 102.83C152.898 102.655 152.635 102.2 152.338 102.375C143.71 107.45 133.473 108.518 123.673 107.835C123.34 107.8 123.34 108.325 123.673 108.36Z" fill="#444444"/>
<path d="M134.208 79.6074C133.91 79.0999 134.505 78.4699 135.013 78.8724C135.555 79.3099 134.978 80.0099 134.4 79.7824C134.085 79.6599 133.945 80.1674 134.26 80.2899C134.733 80.4824 135.31 80.2724 135.59 79.8524C135.905 79.3799 135.765 78.7849 135.328 78.4524C134.383 77.6999 133.193 78.8724 133.753 79.8699C133.928 80.1674 134.383 79.9049 134.208 79.6074Z" fill="#444444"/>
<path d="M123.148 85.6449C128.38 85.5574 133.613 85.1899 138.828 84.5599C139.16 84.5249 139.16 83.9999 138.828 84.0349C133.63 84.6824 128.398 85.0324 123.148 85.1199C122.815 85.1374 122.815 85.6624 123.148 85.6449Z" fill="#444444"/>
<path d="M140.7 82.1275C140.858 82.9325 141.015 83.755 141.173 84.56C141.243 84.8925 141.75 84.7525 141.68 84.42C141.523 83.615 141.365 82.7925 141.208 81.9875C141.155 81.655 140.648 81.795 140.7 82.1275Z" fill="#444444"/>
<path d="M141.05 82.0575C142.013 81.9175 142.975 81.7775 143.955 81.6199C144.288 81.5674 144.148 81.0599 143.815 81.1124C142.853 81.2524 141.89 81.3924 140.91 81.5499C140.578 81.6025 140.718 82.11 141.05 82.0575Z" fill="#444444"/>
<path d="M143.798 81.4623C143.938 82.2148 144.06 82.9673 144.2 83.7023C144.253 84.0349 144.76 83.8949 144.708 83.5623C144.568 82.8098 144.445 82.0573 144.305 81.3223C144.253 81.0073 143.745 81.1473 143.798 81.4623Z" fill="#444444"/>
<path d="M141.61 84.9625C142.642 84.7525 143.622 84.4725 144.603 84.0875C144.918 83.965 144.778 83.4575 144.463 83.58C143.482 83.9475 142.485 84.245 141.47 84.455C141.137 84.525 141.277 85.0325 141.61 84.9625Z" fill="#444444"/>
<path d="M141.698 82.6524C141.89 83.0899 142.153 83.4399 142.538 83.7374C142.678 83.8424 142.94 83.8424 142.975 83.6149C143.115 82.6699 143.448 81.8299 144.008 81.0424C144.2 80.7624 143.745 80.4999 143.553 80.7799C142.975 81.5849 142.608 82.4949 142.468 83.4749C142.608 83.4399 142.765 83.4049 142.905 83.3524C142.573 83.0899 142.328 82.7749 142.153 82.3724C142.013 82.0749 141.558 82.3374 141.698 82.6524Z" fill="#444444"/>
<path d="M141.89 90.1598C141.61 91.4198 141.732 92.6448 142.24 93.8173C142.38 94.1323 142.818 93.8523 142.695 93.5548C142.24 92.5223 142.153 91.4023 142.398 90.2998C142.468 89.9673 141.96 89.8273 141.89 90.1598Z" fill="#444444"/>
<path d="M142.24 90.3349C143.29 90.1599 144.34 90.0024 145.39 89.8274C145.285 89.7224 145.18 89.6174 145.075 89.5124C144.9 90.6324 145.022 91.6999 145.46 92.7499C145.582 93.0649 146.09 92.9249 145.967 92.6099C145.565 91.6649 145.425 90.6674 145.582 89.6524C145.617 89.4424 145.477 89.3024 145.267 89.3374C144.217 89.4949 143.167 89.6699 142.117 89.8449C141.767 89.8799 141.907 90.3874 142.24 90.3349Z" fill="#444444"/>
<path d="M142.468 93.8351C143.623 93.8001 144.725 93.5726 145.81 93.1876C146.125 93.0651 145.985 92.5576 145.67 92.6801C144.638 93.0651 143.57 93.2751 142.468 93.3101C142.135 93.3101 142.135 93.8351 142.468 93.8351Z" fill="#444444"/>
<path d="M142.625 91.4024C142.783 91.8574 143.045 92.1724 143.465 92.4174C143.658 92.5224 143.833 92.3824 143.868 92.1899C143.973 91.2624 144.218 90.3699 144.603 89.5124C144.743 89.2149 144.288 88.9349 144.148 89.2499C143.728 90.1949 143.465 91.1749 143.343 92.1899C143.483 92.1199 143.605 92.0324 143.745 91.9624C143.448 91.7874 143.273 91.5774 143.15 91.2449C143.028 90.9474 142.52 91.0874 142.625 91.4024Z" fill="#444444"/>
<path d="M142.975 98.2799C143.098 99.4524 143.413 100.555 143.938 101.605C144.078 101.902 144.533 101.64 144.393 101.342C143.92 100.38 143.623 99.3474 143.518 98.2799C143.465 97.9474 142.94 97.9474 142.975 98.2799Z" fill="#444444"/>
<path d="M143.22 98.2275C144.568 98.35 145.827 98.105 147.035 97.51C146.912 97.4575 146.772 97.405 146.65 97.3525C146.877 98.42 147.35 99.3475 148.085 100.17C148.312 100.415 148.68 100.047 148.452 99.8025C147.787 99.05 147.367 98.21 147.157 97.23C147.122 97.055 146.912 97.0025 146.772 97.0725C145.652 97.615 144.463 97.825 143.22 97.72C142.888 97.685 142.888 98.21 143.22 98.2275Z" fill="#444444"/>
<path d="M144.41 101.797C145.775 101.29 147.123 100.747 148.435 100.152C148.75 100.012 148.47 99.5573 148.173 99.6973C146.895 100.275 145.583 100.8 144.27 101.29C143.955 101.412 144.095 101.92 144.41 101.797Z" fill="#444444"/>
<path d="M144.13 99.1551C144.55 99.5226 145.512 100.783 146.002 99.8551C146.23 99.4351 146.177 98.8576 146.317 98.3851C146.527 97.7201 146.877 97.1076 147.332 96.5826C147.542 96.3201 147.175 95.9526 146.965 96.2151C146.475 96.7926 146.09 97.4226 145.862 98.1576C145.757 98.4901 145.67 98.8401 145.617 99.1901C145.547 99.6276 145.425 99.5226 145.092 99.3126C144.882 99.1726 144.69 98.9626 144.497 98.7876C144.252 98.5601 143.885 98.9276 144.13 99.1551Z" fill="#444444"/>
<path d="M123.62 94.2024C128.52 94.1499 133.403 93.7474 138.233 92.9774C138.565 92.9249 138.425 92.4174 138.093 92.4699C133.298 93.2224 128.468 93.6249 123.62 93.6599C123.288 93.6774 123.288 94.2024 123.62 94.2024Z" fill="#444444"/>
<path d="M123.06 87.0975C126.228 87.185 129.378 87.08 132.528 86.8175C132.86 86.7825 132.86 86.2574 132.528 86.2924C129.378 86.5549 126.21 86.6425 123.06 86.5724C122.728 86.5549 122.728 87.08 123.06 87.0975Z" fill="#444444"/>
<path d="M123.812 95.2349C127.137 95.3925 130.462 95.2699 133.753 94.8499C134.085 94.8149 134.085 94.2899 133.753 94.3249C130.445 94.7274 127.12 94.8674 123.812 94.7099C123.48 94.6924 123.48 95.2174 123.812 95.2349Z" fill="#444444"/>
<path d="M134.873 94.6049C135.818 94.6224 136.745 94.4999 137.655 94.2024C137.97 94.0974 137.83 93.5899 137.515 93.6949C136.658 93.9749 135.783 94.0974 134.873 94.0799C134.54 94.0799 134.54 94.6049 134.873 94.6049Z" fill="#444444"/>
<path d="M125.598 101.815C129.588 101.57 133.56 101.203 137.515 100.66C137.847 100.608 137.847 100.083 137.515 100.135C133.56 100.66 129.588 101.045 125.598 101.29C125.248 101.308 125.248 101.833 125.598 101.815Z" fill="#444444"/>
<path d="M126.053 103.04C127.365 103.04 128.678 103.04 129.99 103.04C130.323 103.04 130.323 102.515 129.99 102.515C128.678 102.515 127.365 102.515 126.053 102.515C125.72 102.515 125.72 103.04 126.053 103.04Z" fill="#444444"/>
<path d="M127.19 104.212C129.238 104.09 131.285 103.897 133.333 103.652C134.978 103.442 136.745 103.355 138.163 102.392C138.443 102.2 138.18 101.745 137.9 101.937C136.413 102.952 134.418 103.005 132.685 103.197C130.865 103.407 129.028 103.565 127.208 103.687C126.858 103.705 126.84 104.23 127.19 104.212Z" fill="#444444"/>
<path d="M147.175 90.0726C150.36 89.9151 153.528 89.4951 156.66 88.8301C156.555 88.7776 156.45 88.7076 156.345 88.6551C157.815 93.0301 159.985 97.1076 162.768 100.8C162.96 101.063 163.433 100.8 163.223 100.538C160.475 96.8976 158.323 92.8551 156.853 88.5326C156.8 88.3926 156.678 88.3226 156.538 88.3576C153.458 89.0226 150.343 89.4251 147.193 89.5826C146.825 89.5651 146.825 90.0901 147.175 90.0726Z" fill="#444444"/>
<path d="M147.718 104.842C148.19 105.507 148.575 106.207 148.908 106.96C148.943 107.065 149.1 107.117 149.205 107.082C151.778 106.225 154.315 105.28 156.8 104.212C158.06 103.67 159.303 103.11 160.545 102.515C161.14 102.235 161.735 101.937 162.313 101.64C162.663 101.465 163.065 101.36 163.188 100.975C163.223 100.87 163.17 100.73 163.065 100.677C162.908 100.59 162.82 100.59 162.663 100.677C162.558 100.73 162.505 100.87 162.54 100.975C162.54 100.992 162.558 101.01 162.558 101.027C162.645 101.36 163.153 101.22 163.065 100.887C163.065 100.87 163.048 100.852 163.048 100.835C163.013 100.94 162.96 101.027 162.925 101.132C162.89 101.132 162.838 101.132 162.803 101.132C162.768 101.027 162.715 100.94 162.68 100.835C162.575 101.15 161.473 101.482 161.175 101.64C160.685 101.885 160.195 102.112 159.688 102.357C158.515 102.917 157.325 103.442 156.118 103.95C153.808 104.93 151.445 105.805 149.065 106.592C149.17 106.627 149.258 106.68 149.363 106.715C149.048 105.962 148.645 105.262 148.173 104.597C147.98 104.3 147.525 104.562 147.718 104.842Z" fill="#444444"/>
<path d="M150.763 91.4375C150.728 91.21 151.148 91 151.305 91.1575C151.515 91.3675 151.165 91.7525 150.92 91.665C150.605 91.5425 150.465 92.05 150.78 92.1725C151.533 92.4525 152.268 91.3675 151.69 90.79C151.428 90.5275 151.025 90.545 150.71 90.7025C150.378 90.8775 150.203 91.21 150.273 91.5775C150.308 91.91 150.815 91.7525 150.763 91.4375Z" fill="#444444"/>
<path d="M73.22 77.4375C75.1625 77.4725 77.1225 77.385 79.0475 77.1225C81.06 76.8425 83.055 76.265 85.1025 76.3525C85.435 76.37 85.435 75.845 85.1025 75.8275C83.23 75.7575 81.41 76.23 79.5725 76.51C77.4725 76.8425 75.3375 76.965 73.2025 76.9125C72.8875 76.9125 72.8875 77.4375 73.22 77.4375Z" fill="#444444"/>
<path d="M73.5 71.6449C76.475 71.8724 79.45 71.6099 82.3375 70.8574C82.67 70.7699 82.53 70.2624 82.1975 70.3499C79.345 71.0849 76.44 71.3474 73.5 71.1199C73.1675 71.1024 73.1675 71.6274 73.5 71.6449Z" fill="#444444"/>
<path d="M140.84 56.9098C140.543 58.8348 140.298 60.9173 141.505 62.5973C141.697 62.8773 142.152 62.6148 141.96 62.3348C140.84 60.7773 141.085 58.8348 141.348 57.0498C141.4 56.7173 140.893 56.5773 140.84 56.9098Z" fill="#444444"/>
<path d="M140.998 56.8925C145.163 57.05 149.328 56.6475 153.388 55.685C153.283 55.6325 153.178 55.5625 153.073 55.51C153.44 57.3125 154.14 58.9925 155.12 60.5325C155.295 60.8125 155.75 60.55 155.575 60.27C154.613 58.765 153.948 57.12 153.58 55.37C153.545 55.23 153.388 55.16 153.265 55.195C149.258 56.14 145.145 56.5425 141.015 56.385C140.665 56.35 140.665 56.875 140.998 56.8925Z" fill="#444444"/>
<path d="M141.942 62.58C146.458 62.44 150.92 61.775 155.26 60.585C155.593 60.4975 155.453 59.99 155.12 60.0775C150.815 61.2675 146.405 61.9325 141.942 62.055C141.592 62.0725 141.592 62.5975 141.942 62.58Z" fill="#444444"/>
<path d="M203.648 184.817C203.648 186.795 203.648 188.755 203.648 190.732C189.648 196.28 186.795 198.257 187.005 198.975C187.058 199.15 187.425 199.675 194.775 198.817C202.055 197.96 207.953 196.717 212.048 195.702C211.33 191.66 210.595 187.617 209.878 183.575C207.795 183.995 205.713 184.415 203.648 184.817Z" fill="#444444"/>
<path d="M209.93 101.115C209.527 101.867 209.387 102.48 209.352 102.62C206.85 113.26 203.577 119.542 201.442 131.88C197.365 155.645 200.883 182.647 201.215 185.185C202.335 185.675 204.487 186.41 207.235 186.305C209.65 186.2 211.522 185.482 212.59 184.975C212.187 177.222 212.59 167.65 215.267 157.097C218.54 144.165 222.687 139.877 226.415 124.757C229.18 113.557 232.382 100.52 226.852 96.6525C222.617 93.6425 212.695 95.8475 209.93 101.115Z" fill="#EC615B"/>
<path opacity="0.2" d="M219.608 106.697C216.808 119.472 214.2 133.087 211.995 147.49C209.913 161.035 208.355 174.002 207.2 186.322C208.968 185.955 210.718 185.587 212.485 185.22C212.258 179.777 212.503 175.14 212.853 171.587C213.273 167.177 214.34 156.905 218.628 146.65C219.188 145.337 219.905 143.745 221.078 140.752C223.055 135.8 224.49 131.565 225.138 129.57C228.183 120.05 229.705 109.007 230.178 105.367C226.643 105.787 223.125 106.242 219.608 106.697Z" fill="#6D6C6C"/>
<path opacity="0.19" d="M225.383 128.94C218.523 137.882 215.32 145.985 213.71 151.427C212.24 156.38 211.593 160.755 210.753 166.425C209.563 174.475 209.108 181.265 208.915 186.095C210.07 185.815 211.208 185.517 212.363 185.237C212.17 178.465 212.643 172.672 213.22 168.157C213.92 162.802 214.725 156.59 217.525 149.117C218.54 146.405 219.03 145.635 221.34 139.772C223.125 135.187 224.49 131.425 225.383 128.94Z" fill="#6D6C6C"/>
<path d="M241.447 182.805C242.427 185.237 243.425 187.67 244.405 190.12C236.18 195.352 232.295 198.397 232.732 199.29C233.275 200.392 240.38 198.205 254.047 192.762C252.595 188.037 251.142 183.33 249.69 178.605C246.942 180.005 244.195 181.405 241.447 182.805Z" fill="#444444"/>
<path d="M234.692 101.325C238.98 105.245 238.84 110.74 239.382 119.84C239.382 119.84 240.712 142.223 245.175 160.213C246.295 164.71 248.325 171.693 252.087 180.058C251.457 180.863 249.742 182.823 246.732 183.855C243.652 184.905 241.027 184.345 240.047 184.083C234.692 174.948 230.895 167.16 228.445 161.77C217.087 136.885 216.177 123.778 216.177 116.935C216.177 109.9 216.3 101.465 221.532 98.6476C225.47 96.5301 231.245 98.1751 234.692 101.325Z" fill="#EC615B"/>
<path opacity="0.15" d="M222.547 104.003C224.49 111.475 226.59 119.07 228.83 126.77C234.675 146.755 241.028 165.638 247.695 183.348C248.343 183.015 249.13 182.56 249.935 181.948C250.757 181.318 251.405 180.688 251.895 180.128C250.985 178.01 249.725 174.948 248.395 171.185C246.383 165.428 243.11 154.84 241.412 140.735C239.785 127.19 238.963 120.418 239.033 116.148C239.085 112.63 239.4 105.473 234.85 101.623C233.905 100.835 232.977 100.363 232.33 100.083C229.057 101.395 225.802 102.708 222.547 104.003Z" fill="#6D6C6C"/>
<path opacity="0.22" d="M239.242 120.698C238.437 128.835 238.175 139.738 240.135 152.338C242.112 165.008 245.7 175.35 248.938 182.875C249.935 182.053 250.933 181.23 251.93 180.39C250.74 177.573 249.183 173.653 247.625 168.858C244.632 159.635 243.337 152.443 242.217 145.985C241.08 139.37 239.89 130.813 239.242 120.698Z" fill="#6D6C6C"/>
<path d="M157.308 37.3975C156.608 37.7475 155.645 38.36 154.893 39.41C154.49 39.9525 154 40.67 153.93 41.685C153.913 42.0875 153.86 42.9625 154.42 43.54C154.578 43.715 154.998 44.0475 157.063 43.9775C158.9 43.9075 159.828 43.8725 160.3 43.3825C161.21 42.4375 160.878 40.6525 160.3 39.585C159.39 37.8875 157.605 37.4675 157.308 37.3975Z" fill="white" stroke="#444444" stroke-width="2" stroke-miterlimit="10"/>
<path d="M167.878 41.79C170.345 44.6075 174.3 46.2875 181.563 49.28C190.715 53.06 195.3 54.95 200.725 55.615C206.588 56.3325 209.72 55.58 210.805 57.4875C212.223 59.955 208.898 64.575 205.468 68.4425C202.913 67.8825 200.27 67.1825 197.54 66.2725C182.578 61.32 171.763 52.605 164.658 45.36C163.765 45.5525 162.243 45.745 160.51 45.22C159.023 44.7825 156.923 43.6625 157.045 42.77C157.203 41.685 161 41.4925 161.228 41.475C160.073 41.0025 158.41 40.1975 156.608 38.885C156.083 38.5 153.073 36.2775 153.44 35.5775C153.755 34.965 156.485 35.805 159.058 36.5925C161.403 37.31 163.03 37.8175 164.815 39.0425C166.53 40.1975 167.528 41.3875 167.878 41.79Z" fill="white" stroke="#444444" stroke-width="2" stroke-miterlimit="10"/>
<path d="M155.768 37.5899C156.188 38.0624 156.275 38.6924 156.643 39.1824C156.958 39.6199 157.413 39.9349 157.885 40.1974C159.303 40.9849 160.808 41.6324 162.26 42.3499C162.505 42.4724 162.82 42.1399 162.575 41.9299C161.823 41.2824 161.018 40.7049 160.178 40.1799C159.898 40.0049 159.618 40.4599 159.915 40.6349C160.72 41.1424 161.49 41.6849 162.208 42.2974C162.313 42.1574 162.418 42.0174 162.523 41.8774C161.14 41.2124 159.758 40.5649 158.393 39.8474C157.745 39.5149 157.168 39.1299 156.835 38.4649C156.608 38.0099 156.485 37.5724 156.135 37.1874C155.908 36.9774 155.54 37.3449 155.768 37.5899Z" fill="white"/>
<path d="M157.133 39.4275C157.938 39.7775 158.708 40.2325 159.408 40.775C159.67 40.985 160.038 40.6175 159.775 40.4075C159.04 39.83 158.253 39.3575 157.395 38.9725C157.08 38.8325 156.818 39.2875 157.133 39.4275Z" fill="white"/>
<path d="M155.067 37.275C155.732 38.3425 156.607 39.2175 157.64 39.9175C157.92 40.11 158.182 39.655 157.902 39.4625C156.94 38.815 156.135 37.9925 155.522 36.995C155.347 36.7325 154.892 36.995 155.067 37.275Z" fill="white"/>
<path d="M155.855 38.7099C156.205 39.1824 156.59 39.6199 157.028 40.0049C157.343 40.2849 158.725 41.2824 158.008 41.7899C157.868 41.8774 158.008 42.1049 158.148 42.0174C158.638 41.6849 158.445 41.0899 158.148 40.6874C157.92 40.3899 157.605 40.1624 157.308 39.8999C156.853 39.4974 156.45 39.0599 156.083 38.5874C155.978 38.4299 155.75 38.5699 155.855 38.7099Z" fill="#444444"/>
<path d="M155.487 40.53C156.012 41.2475 157.01 42.2625 157.99 41.965C158.147 41.9125 158.077 41.6675 157.92 41.72C157.08 41.9825 156.152 41.02 155.715 40.4075C155.61 40.2675 155.382 40.39 155.487 40.53Z" fill="#444444"/>
<path d="M154.718 41.7551C155.295 42.5426 156.135 42.9976 157.115 43.0501C157.29 43.0676 157.29 42.8051 157.115 42.7876C156.24 42.7351 155.47 42.3151 154.945 41.6151C154.84 41.4751 154.613 41.6151 154.718 41.7551Z" fill="#444444"/>
<path d="M154.157 43.3301C154.98 44.1876 156.345 44.2051 157.167 43.3301C157.29 43.2076 157.097 43.0151 156.975 43.1376C156.257 43.9076 155.067 43.8901 154.35 43.1376C154.227 43.0151 154.035 43.2076 154.157 43.3301Z" fill="#444444"/>
<path d="M154.333 37.2399C156.275 38.5174 157.675 40.6699 160.108 41.0899C160.265 41.1249 160.353 40.8624 160.178 40.8449C157.78 40.4424 156.38 38.2899 154.473 37.0299C154.315 36.9074 154.193 37.1349 154.333 37.2399Z" fill="#444444"/>
<path opacity="0.2" d="M154.123 42.9624C153.493 42.1049 154.018 40.2674 155.54 38.5349C157.255 39.5324 158.953 40.5474 160.668 41.5449C160.353 41.5449 157.588 41.5799 157.395 42.4374C157.36 42.5774 157.395 42.7874 157.658 43.0849C158.533 43.5049 160.003 44.0649 161.893 44.1174C162.873 44.1349 163.73 44.0124 164.395 43.8549C167.965 47.4599 174.248 52.9024 183.488 56.8574C191.608 60.3224 198.888 61.3199 203.7 61.5999C203.543 63.6649 203.385 65.7124 203.228 67.7774C195.3 65.6774 184.555 61.6874 173.88 53.6724C170.24 50.9424 167.125 48.1249 164.465 45.4124C162.015 45.8149 160.493 45.3949 159.53 44.9049C158.708 44.4849 158.183 43.9599 157.098 43.8724C156.38 43.8199 155.768 43.9949 154.98 43.6099C154.893 43.5749 154.385 43.3124 154.123 42.9624Z" fill="#6D6C6C"/>
<path opacity="0.14" d="M176.663 55.3176C179.113 56.6301 181.948 57.9601 185.185 59.0976C192.238 61.6001 198.625 62.3876 203.508 62.5626C203.438 64.3476 203.385 66.1501 203.315 67.9351C198.24 66.7451 191.87 64.6626 185.115 60.8826C181.878 59.0801 179.078 57.1726 176.663 55.3176Z" fill="#6D6C6C"/>
<path d="M204.33 60.3049C203.332 62.5624 203.28 64.4349 203.192 67.7949C203.122 70.3324 203.298 73.0625 204.663 80.2375C206.325 88.9175 207.112 90.3175 207.375 94.92C207.585 98.525 207.305 101.482 207.042 103.442C209.247 104.65 212.94 106.295 217.77 106.662C226.31 107.31 232.627 103.547 234.797 102.112C235.06 96.6175 235.322 91.105 235.602 85.61C234.64 80.92 233.502 77.245 232.68 74.83C230.09 67.2174 227.675 63.6124 229.215 59.7974C230.072 57.6799 231.77 56.3849 232.942 55.6674C232.12 55.0374 223.492 48.6499 214.077 51.9574C213.097 52.2899 206.902 54.4774 204.33 60.3049Z" fill="white" stroke="#444444" stroke-width="2" stroke-miterlimit="10"/>
<path opacity="0.19" d="M214.042 51.9399C216.667 56.1399 218.137 59.8499 218.977 62.4399C218.977 62.4399 223.09 74.9349 220.08 91.6999C219.432 95.2699 218.277 100.345 216.002 106.155C216.877 106.347 217.927 106.505 219.117 106.557C219.117 106.557 220.955 106.645 223.02 106.382C225.54 106.05 229.862 104.702 234.955 102.112C235.042 96.2499 235.13 90.4049 235.217 84.5424C233.922 79.5899 232.61 75.6174 231.63 72.8349C229.267 66.2024 227.605 63.0874 228.97 59.7974C229.862 57.6449 231.682 56.3149 233.1 55.5449C231.245 54.3199 227.815 52.4124 223.125 51.6774C219.257 51.0824 216.072 51.5024 214.042 51.9399Z" fill="#6D6C6C"/>
<path opacity="0.11" d="M216.44 51.5374C219.258 55.0024 222.548 60.0599 224.578 66.7273C230.335 85.7673 220.867 102.462 218.68 106.12C220.517 106.102 222.67 105.945 225.015 105.49C229.198 104.685 232.54 103.25 234.937 101.972C235.025 96.5124 235.112 91.0524 235.2 85.6099C233.712 80.5524 232.312 75.7574 230.405 69.2474C229.11 64.7849 228.095 61.1274 230.003 58.2049C230.93 56.7874 232.225 55.9999 233.205 55.5449C227.622 54.1974 222.023 52.8674 216.44 51.5374Z" fill="#6D6C6C"/>
<path d="M215.145 87.29C215.093 83.545 215.058 79.8175 215.005 76.0725C223.983 75.6175 232.96 75.1625 241.955 74.7075C242.27 78.1725 242.585 81.6375 242.918 85.1025C233.66 85.8375 224.403 86.555 215.145 87.29Z" fill="white" stroke="#444444" stroke-width="2" stroke-miterlimit="10"/>
<path d="M212.415 86.0651C212.415 84.7001 212.415 83.3351 212.415 81.9701C223.948 81.1126 235.48 80.2376 247.013 79.3801C247.1 81.0601 247.188 82.7576 247.293 84.4376C235.673 84.9626 224.035 85.5226 212.415 86.0651Z" fill="white" stroke="#444444" stroke-width="2" stroke-miterlimit="10"/>
<path d="M213.378 79.9049C213.518 81.9174 213.658 83.9124 213.78 85.9249C224.455 85.0674 235.113 84.1924 245.788 83.3349C245.875 81.5149 245.963 79.6949 246.068 77.8574C235.165 78.5399 224.263 79.2224 213.378 79.9049Z" fill="white" stroke="#444444" stroke-width="2" stroke-miterlimit="10"/>
<path d="M210.77 84.4199C211.085 92.4 211.4 100.38 211.733 108.36C223.633 107.03 235.533 105.717 247.433 104.387C247.8 96.5475 248.168 88.7074 248.535 80.8674C235.935 82.0574 223.353 83.2299 210.77 84.4199Z" fill="white" stroke="#444444" stroke-width="2" stroke-miterlimit="10"/>
<path d="M212.8 87.535C218.208 86.8175 223.615 86.31 229.058 85.995C229.303 85.9775 229.303 85.5925 229.058 85.5925C223.615 85.9075 218.19 86.415 212.8 87.1325C212.555 87.1675 212.555 87.57 212.8 87.535Z" fill="#444444"/>
<path d="M218.837 88.6025C222.985 88.0775 227.133 87.535 231.298 87.01C231.543 86.975 231.543 86.59 231.298 86.6075C227.15 87.1325 223.003 87.675 218.837 88.2C218.592 88.2525 218.592 88.6375 218.837 88.6025Z" fill="#444444"/>
<path d="M238.77 99.8026C238.7 100.905 238.7 102.025 238.805 103.128C238.823 103.373 239.225 103.373 239.208 103.128C239.103 102.025 239.085 100.905 239.173 99.8026C239.19 99.5576 238.788 99.5576 238.77 99.8026Z" fill="#444444"/>
<path d="M238.945 99.8375C241.115 99.89 243.267 99.7675 245.42 99.4875C245.35 99.4175 245.28 99.3475 245.227 99.295C245.192 100.31 245.227 101.308 245.297 102.305C245.315 102.55 245.717 102.55 245.7 102.305C245.612 101.308 245.595 100.293 245.63 99.295C245.63 99.19 245.542 99.085 245.437 99.1025C243.285 99.3825 241.132 99.4875 238.962 99.4525C238.682 99.435 238.682 99.82 238.945 99.8375Z" fill="#444444"/>
<path d="M239.103 103.443C241.255 103.478 243.373 103.25 245.473 102.778C245.718 102.725 245.613 102.34 245.368 102.393C243.303 102.848 241.22 103.075 239.103 103.04C238.858 103.04 238.858 103.425 239.103 103.443Z" fill="#444444"/>
<path d="M239.925 101.062C241.255 101.15 242.568 101.08 243.898 100.87C244.143 100.835 244.038 100.45 243.793 100.485C242.515 100.695 241.22 100.747 239.925 100.66C239.68 100.642 239.68 101.045 239.925 101.062Z" fill="#444444"/>
<path d="M240.765 102.165C242.148 102.13 243.477 101.868 244.79 101.395C245.017 101.308 244.93 100.923 244.685 101.01C243.425 101.483 242.113 101.728 240.765 101.78C240.52 101.763 240.503 102.165 240.765 102.165Z" fill="#444444"/>
<path opacity="0.2" d="M216.422 107.45C216.737 100.065 217.052 92.6799 217.35 85.2774C227.57 84.4549 237.807 83.6499 248.027 82.8274C247.8 89.8274 247.555 96.8274 247.327 103.827C237.02 105.035 226.73 106.242 216.422 107.45Z" fill="#6D6C6C"/>
<path opacity="0.2" d="M244.178 78.05C244.23 80.08 244.125 82.4951 243.6 85.1726C242.305 91.7525 239.19 96.495 237.073 99.1725C238.508 101.08 239.943 102.988 241.395 104.895C237.003 105.403 232.61 105.91 228.218 106.418C228.918 98.4025 229.618 90.3875 230.318 82.39C230.09 81.34 229.845 80.29 229.618 79.24C234.465 78.82 239.33 78.435 244.178 78.05Z" fill="#6D6C6C"/>
<path d="M231.998 55.1951C235.655 54.7051 240.013 63.1051 241.745 69.1426C243.74 76.0901 242.865 82.0926 242.147 85.2601C240.747 91.4726 237.842 95.8476 236.023 98.2101C236.303 99.1376 236.95 101.658 235.883 104.423C234.308 108.465 230.038 110.408 229.705 110.04C229.6 109.918 229.81 109.41 231.473 107.503C231.123 107.87 228.603 110.373 225.768 109.778C225.278 109.673 224.665 109.55 224.315 109.06C223.493 107.87 224.858 105.175 227.763 102.183C224.595 102.97 223.755 102.76 223.598 102.41C223.195 101.57 226.433 99.1901 227.605 98.3151C229.338 97.0376 230.895 96.1626 231.963 95.6201C234.955 89.4076 234.798 84.5601 234.535 82.2851C234.15 78.9251 232.89 75.2676 232.645 74.5676C231.945 72.5551 231.613 72.1001 230.213 68.4776C227.955 62.6676 227.955 61.6701 228.043 60.9001C228.358 58.5901 229.915 55.4751 231.998 55.1951Z" fill="white" stroke="#444444" stroke-width="2" stroke-miterlimit="10"/>
<path d="M224.385 108.57C226.328 107.468 228.025 106.05 229.443 104.335C229.653 104.073 229.285 103.705 229.075 103.968C227.693 105.648 226.03 107.048 224.123 108.133C223.825 108.273 224.088 108.728 224.385 108.57Z" fill="#444444"/>
<path d="M226.1 109.743C228.025 108.745 229.67 107.363 231 105.648C231.21 105.385 230.755 105.123 230.545 105.385C229.285 107.03 227.675 108.343 225.838 109.288C225.54 109.445 225.803 109.9 226.1 109.743Z" fill="#444444"/>
<path opacity="0.17" d="M230.528 56.035C227.045 59.0625 241.255 72.345 238.823 87.4301C237.16 97.7726 230.265 104.528 230.265 104.528C228.34 106.453 224.718 108.815 225.155 109.638C225.47 110.233 227.658 109.69 228.445 109.445C229.933 108.99 230.965 108.22 231.543 107.713C230.668 108.693 229.67 109.9 229.88 110.145C230.178 110.46 232.663 109.165 234.22 107.345C236.915 104.195 236.53 99.8201 236.268 98.0351C236.898 97.2126 237.72 96.0576 238.56 94.5876C239.33 93.2751 241.553 89.18 242.515 83.615C244.213 73.7625 240.73 65.9925 239.33 62.9475C238.07 60.235 235.935 55.7375 232.698 55.545C232.278 55.4925 231.21 55.44 230.528 56.035Z" fill="#6D6C6C"/>
<path opacity="0.22" d="M242.322 83.3352C241.377 86.0827 240.258 88.9702 238.928 91.9977C237.983 94.1502 237.02 96.1627 236.04 98.0702C235.55 99.6452 234.622 102.008 232.785 104.44C230.86 106.995 228.743 108.553 227.325 109.445C227.728 109.463 228.218 109.428 228.76 109.288C230.125 108.973 231.035 108.22 231.49 107.765C230.965 108.43 230.423 109.078 229.898 109.743C230.318 109.673 230.983 109.55 231.718 109.218C235.568 107.485 236.373 102.778 236.425 102.463C236.565 101.605 236.653 100.135 236.128 98.3152C237.388 96.8277 238.98 94.6052 240.258 91.6127C241.675 88.3227 242.147 85.3652 242.322 83.3352Z" fill="#6D6C6C"/>
<path d="M200.305 43.6799C197.488 46.8999 199.43 51.3974 199.693 52.0099C200.673 54.2849 203.21 57.5224 206.43 57.2599C208.775 57.0499 210.263 55.0724 210.63 54.5474C213.22 50.8199 212.363 43.6974 207.988 41.8599C205.573 40.8449 202.248 41.4399 200.305 43.6799Z" fill="#12335E"/>
<path d="M207.41 46.5499C207.533 47.9324 208.985 48.2299 209.965 50.5049C210.665 52.1499 210.665 53.7599 210.543 54.9149C211.68 55.0199 213.78 55.0724 216.16 54.1624C218.033 53.4449 219.345 52.4124 220.133 51.6949C219.765 50.8724 219.223 49.6649 218.575 48.2299C215.775 42.1224 215.32 41.5974 214.638 41.3349C211.908 40.3024 207.183 43.9774 207.41 46.5499Z" fill="white" stroke="#444444" stroke-width="2" stroke-miterlimit="10"/>
<path d="M197.33 28.4726C196.735 29.3126 196.368 30.3451 196.315 34.7726C196.28 38.5526 196.49 42.0001 196.84 45.0626C197.628 44.6076 198.415 44.1526 199.203 43.6976C199.553 44.5551 200.148 45.7276 201.163 46.8651C203.175 49.1226 205.625 49.8926 206.71 50.1726C207.848 49.8926 210.683 49.0176 212.835 46.3401C214.253 44.5551 214.708 42.7876 214.813 42.3851C215.46 39.7426 214.83 37.5551 214.498 36.6451C214.918 36.4526 215.565 36.0851 216.055 35.4201C217.088 34.0201 217.368 31.5176 216.09 30.6776C215.145 30.0476 213.465 30.4151 212.205 31.7101C211.925 31.0626 211.488 30.1701 210.788 29.2426C210.613 29.0151 209.3 27.3001 207.69 26.4076C204.593 24.6226 199.465 25.4626 197.33 28.4726Z" fill="white" stroke="#444444" stroke-width="2" stroke-miterlimit="10"/>
<path d="M196.053 33.9675C195.353 33.845 194.058 33.4775 193.445 32.41C192.395 30.6075 193.935 27.86 194.32 27.1775C194.635 26.6 195.475 25.2175 199.045 22.715C201.758 20.8075 203.123 19.8625 204.593 19.4075C209.808 17.85 214.585 20.545 215.478 21.0525C217.35 22.12 218.54 23.275 219.485 24.185C220.938 25.585 222.565 27.195 224.385 29.05C229.058 35.105 230.703 40.635 231.368 43.9425C232.12 47.6875 232.89 51.5025 230.65 53.7425C228.41 55.9825 224.315 55.5275 221.813 54.46C218.33 52.9725 216.843 49.8225 215.688 47.39C213.728 43.225 213.605 39.235 213.798 36.645C215.548 36.1375 216.44 34.4925 216.038 33.25C215.723 32.27 214.55 31.29 213.343 31.64C212.415 31.9025 211.75 32.865 211.803 33.985C210.963 33.9675 208.723 33.775 206.588 32.165C205.03 30.9925 204.243 29.5925 203.875 28.8225C202.913 28.945 200.988 29.295 199.045 30.695C197.418 31.815 196.508 33.1625 196.053 33.9675Z" fill="#12335E"/>
<path opacity="0.24" d="M207.638 37.3101C209.738 39.8476 210.403 42.5251 210.403 42.5251C211.085 45.5351 210.105 48.0901 209.668 49.1226C210.77 48.2826 211.89 47.4425 212.993 46.6025C213.763 49.1575 214.515 51.695 215.285 54.25C215.863 54.1975 217.053 53.9875 218.243 53.1475C219.153 52.5 219.695 51.7475 219.993 51.275C218.575 49.9625 215.863 47.0576 214.62 42.4901C214.025 40.2851 213.938 38.3251 214.008 36.8551C215.6 36.2076 216.423 34.6501 216.09 33.3551C215.845 32.4101 214.883 31.2726 213.64 31.4476C212.608 31.6051 211.75 32.6201 211.768 33.8626C210.98 33.8626 209.125 33.7751 207.183 32.6026C205.17 31.3951 204.208 29.7151 203.84 28.9976C203.928 32.3576 204.96 34.3001 205.888 35.4551C206.5 36.2426 206.78 36.2776 207.638 37.3101Z" fill="#6D6C6C"/>
<path d="M199.5 36.575C199.308 37.275 199.325 37.9925 199.588 38.675C199.675 38.92 200.008 38.9375 200.095 38.675C200.305 38.045 200.305 37.38 200.113 36.75C200.008 36.435 199.5 36.5575 199.605 36.89C199.78 37.45 199.763 37.9925 199.588 38.5525C199.763 38.5525 199.92 38.5525 200.095 38.5525C199.868 37.9575 199.833 37.345 200.008 36.7325C200.095 36.3825 199.605 36.2425 199.5 36.575Z" fill="#444444"/>
<path d="M198.87 35.49C199.325 35.21 199.885 35.2625 200.27 35.63C200.515 35.8575 200.882 35.49 200.637 35.2625C200.095 34.7375 199.255 34.6325 198.607 35.035C198.328 35.21 198.59 35.665 198.87 35.49Z" fill="#444444"/>
<path d="M200.76 39.9351C201.093 39.9351 201.093 39.4102 200.76 39.4102C200.41 39.4102 200.41 39.9351 200.76 39.9351Z" fill="#444444"/>
<path d="M201.915 38.4126C201.915 38.4301 201.915 38.4476 201.915 38.4651C201.915 38.6051 202.038 38.7276 202.178 38.7276C202.318 38.7276 202.44 38.6051 202.44 38.4651C202.44 38.4476 202.44 38.4301 202.44 38.4126C202.44 38.2726 202.318 38.1501 202.178 38.1501C202.038 38.1501 201.915 38.2551 201.915 38.4126Z" fill="#444444"/>
<path d="M201.968 39.7249C202.3 39.7249 202.3 39.2 201.968 39.2C201.635 39.2 201.635 39.7249 201.968 39.7249Z" fill="#444444"/>
<path d="M194.758 37.3801C194.548 38.0801 194.565 38.7976 194.81 39.4801C194.898 39.7251 195.23 39.7251 195.318 39.4801C195.528 38.8501 195.545 38.1851 195.37 37.5551C195.283 37.2226 194.775 37.3626 194.863 37.6951C195.02 38.2551 195.003 38.7976 194.81 39.3401C194.985 39.3401 195.143 39.3401 195.318 39.3401C195.108 38.7451 195.073 38.1326 195.265 37.5201C195.353 37.1876 194.845 37.0476 194.758 37.3801Z" fill="#444444"/>
<path d="M194.46 36.0674C194.828 35.8749 195.335 35.9624 195.58 36.3124C195.773 36.5749 196.228 36.3124 196.035 36.0499C195.598 35.4724 194.845 35.2799 194.198 35.6124C193.9 35.7699 194.163 36.2249 194.46 36.0674Z" fill="#444444"/>
<path d="M200.358 45.5876C201.705 45.3426 202.878 44.6251 203.753 43.5576C203.91 43.3651 203.63 43.0851 203.473 43.2776C202.65 44.2926 201.548 44.9576 200.253 45.2026C200.008 45.2551 200.113 45.6401 200.358 45.5876Z" fill="#444444"/>
<path d="M203.088 43.3124C203.403 43.4174 203.665 43.5749 203.893 43.8024C204.068 43.9774 204.348 43.6974 204.173 43.5224C203.893 43.2424 203.56 43.0499 203.193 42.9274C202.948 42.8574 202.843 43.2424 203.088 43.3124Z" fill="#444444"/>
<path opacity="0.45" d="M213.99 20.4226C216.213 23.5026 219.065 27.8601 221.778 33.4251C224.648 39.3051 226.747 43.7326 225.12 45.4826C222.968 47.8101 215.53 44.1176 214.34 43.5051C214.585 45.0976 215.198 47.6351 217 50.1726C217.91 51.4501 219.503 53.7076 222.443 54.7576C224.21 55.3876 225.785 55.3526 226.397 55.3001C227.22 55.2476 228.165 55.1776 229.197 54.6176C229.197 54.6176 230.545 53.9001 231.455 52.4301C232.837 50.1901 232.102 47.1626 231.122 43.3651C229.95 38.8151 228.375 35.7876 226.835 32.7951C226.45 32.0601 225.995 31.2026 225.26 30.2051C224.525 29.1901 223.983 28.6476 221.708 26.4601C218.33 23.1876 217.805 22.7151 216.79 22.0326C215.67 21.2626 214.673 20.7551 213.99 20.4226Z" fill="#1B395F"/>
<path opacity="0.43" d="M209.773 50.1899C209.913 50.5924 210.228 51.7299 209.773 52.9899C209.09 54.8625 207.2 55.4925 206.903 55.58C204.75 56.28 202.038 55.1775 200.218 52.7799C200.463 53.41 201.005 54.53 202.125 55.51C202.685 56 204.208 57.3125 206.36 57.155C206.728 57.12 209.09 56.945 210.175 54.8975C210.963 53.445 210.788 51.6249 209.773 50.1899Z" fill="#1B395F"/>
</svg>
