<svg xmlns="http://www.w3.org/2000/svg" width="830" height="424" fill="none" viewBox="0 0 830 424">
  <g opacity=".3">
    <path fill="#12335E" d="M728.671 393.349c19.971 0 36.16-17.605 36.16-39.321 0-21.717-16.189-39.321-36.16-39.321-19.971 0-36.161 17.604-36.161 39.321 0 21.716 16.19 39.321 36.161 39.321z"/>
    <path fill="#12335E" d="M779.36 390.426c15.333 0 27.763-13.516 27.763-30.19s-12.43-30.19-27.763-30.19c-15.334 0-27.764 13.516-27.764 30.19s12.43 30.19 27.764 30.19zM722.945 273.843c14.916 0 27.009-13.149 27.009-29.369 0-16.221-12.093-29.37-27.009-29.37-14.917 0-27.009 13.149-27.009 29.37 0 16.22 12.092 29.369 27.009 29.369z"/>
    <path fill="#7C5054" d="M718.907 355.864l3.452-112.279c.017-.567.445-1.016.965-1.016.532 0 .963.467.966 1.045l.616 112.207-5.999.043z"/>
    <path fill="#7C5054" d="M722.945 294.758l-8.23-9.306a.72.72 0 00-1.076-.026.881.881 0 00-.045 1.153l7.905 9.674 1.446-1.495zM724.541 261.592l7.065-10.377c.25-.366.181-.884-.155-1.158a.722.722 0 00-1.053.144l-7.453 10.089 1.596 1.302z"/>
    <path fill="#12335E" d="M754.447 297.959c10.531 0 19.067-9.283 19.067-20.734 0-11.451-8.536-20.734-19.067-20.734s-19.068 9.283-19.068 20.734c0 11.451 8.537 20.734 19.068 20.734z"/>
    <path fill="#7C5054" d="M751.596 355.864l2.437-79.266c.012-.4.314-.717.681-.717.376 0 .68.329.682.737l.435 79.216-4.235.03z"/>
    <path fill="#7C5054" d="M754.447 312.725l-5.811-6.57a.508.508 0 00-.759-.019.624.624 0 00-.032.815l5.581 6.829 1.021-1.055zM755.573 289.31l4.989-7.325a.621.621 0 00-.11-.818.509.509 0 00-.743.102l-5.262 7.122 1.126.919z"/>
    <path fill="#12335E" d="M140.539 369.367c19.971 0 36.16-17.605 36.16-39.321 0-21.717-16.189-39.321-36.16-39.321-19.971 0-36.161 17.604-36.161 39.321 0 21.716 16.19 39.321 36.161 39.321z"/>
    <path fill="#12335E" d="M102.129 392.353c19.971 0 36.16-17.604 36.16-39.321 0-21.716-16.189-39.321-36.16-39.321-19.971 0-36.16 17.605-36.16 39.321 0 21.717 16.189 39.321 36.16 39.321zM94.8 285.739c12.752 0 23.091-11.242 23.091-25.11 0-13.868-10.339-25.11-23.092-25.11-12.753 0-23.092 11.242-23.092 25.11 0 13.868 10.339 25.11 23.092 25.11z"/>
    <path fill="#7C5054" d="M91.347 355.864l2.951-95.996c.015-.483.38-.868.826-.868.454 0 .822.399.825.893l.527 95.933-5.129.038z"/>
    <path fill="#7C5054" d="M94.799 303.621l-7.037-7.957a.616.616 0 00-.92-.022.755.755 0 00-.038.986l6.758 8.271 1.237-1.278zM96.164 275.264l6.041-8.872a.752.752 0 00-.133-.99.616.616 0 00-.9.124l-6.372 8.626 1.364 1.112z"/>
    <path fill="#12335E" d="M131.503 301.184c11.296 0 20.453-9.958 20.453-22.241s-9.157-22.24-20.453-22.24c-11.295 0-20.452 9.957-20.452 22.24 0 12.283 9.157 22.241 20.452 22.241z"/>
    <path fill="#7C5054" d="M128.446 363.295l2.614-85.025c.013-.428.336-.769.731-.769.402 0 .729.354.731.791l.467 84.971-4.543.032z"/>
    <path fill="#7C5054" d="M131.503 317.022l-6.232-7.047a.546.546 0 00-.815-.02.668.668 0 00-.035.873l5.986 7.325 1.096-1.131zM132.712 291.906l5.35-7.858a.665.665 0 00-.117-.877.548.548 0 00-.798.109l-5.644 7.64 1.209.986z"/>
    <g>
      <path fill="#12335E" d="M48.274 310.237c9.65 0 17.472-8.507 17.472-19s-7.823-18.999-17.472-18.999c-9.65 0-17.473 8.506-17.473 18.999 0 10.493 7.823 19 17.473 19z"/>
      <path fill="#7C5054" d="M45.662 363.295l2.233-72.633c.011-.366.287-.657.624-.657.344 0 .623.302.625.676l.398 72.586-3.88.028z"/>
      <path fill="#7C5054" d="M48.274 323.766l-5.325-6.02a.467.467 0 00-.695-.017.571.571 0 00-.03.746l5.114 6.258.936-.967zM49.306 302.311l4.571-6.713a.57.57 0 00-.1-.75.467.467 0 00-.682.094l-4.82 6.526 1.032.843z"/>
    </g>
    <g>
      <path fill="#12335E" d="M809.376 399.112H20.625C9.28 399.112 0 389.02 0 376.685c0-12.335 9.281-22.427 20.625-22.427h788.75c11.344 0 20.625 10.092 20.625 22.427.001 12.335-9.281 22.427-20.624 22.427z"/>
    </g>
    <g opacity=".1">
      <path fill="#000" d="M717.26 367.279H143.11c-1.462 0-2.647-1.289-2.647-2.879v-12.503c0-1.589 1.185-2.878 2.647-2.878h574.15c1.461 0 2.646 1.289 2.646 2.878V364.4c0 1.59-1.185 2.879-2.646 2.879z" opacity=".1"/>
    </g>
    <g opacity=".5">
      <path fill="#EEE" d="M114.586 423.458H84.242c-.975 0-1.764-.858-1.764-1.918s.79-1.918 1.764-1.918h30.344c.975 0 1.765.858 1.765 1.918s-.789 1.918-1.765 1.918zM171.965 423.458h-30.344c-.975 0-1.764-.858-1.764-1.918s.789-1.918 1.764-1.918h30.344c.976 0 1.764.858 1.764 1.918s-.789 1.918-1.764 1.918zM229.346 423.458H199c-.975 0-1.764-.858-1.764-1.918s.789-1.918 1.764-1.918h30.346c.975 0 1.764.858 1.764 1.918s-.789 1.918-1.764 1.918zM286.724 423.458H256.38c-.975 0-1.764-.858-1.764-1.918s.789-1.918 1.764-1.918h30.344c.975 0 1.764.858 1.764 1.918.001 1.06-.788 1.918-1.764 1.918zM344.102 423.458h-30.344c-.975 0-1.763-.858-1.763-1.918s.789-1.918 1.763-1.918h30.344c.976 0 1.765.858 1.765 1.918s-.789 1.918-1.765 1.918zM401.483 423.458h-30.346c-.974 0-1.763-.858-1.763-1.918s.789-1.918 1.763-1.918h30.346c.976 0 1.764.858 1.764 1.918s-.789 1.918-1.764 1.918zM458.862 423.458h-30.344c-.975 0-1.765-.858-1.765-1.918s.789-1.918 1.765-1.918h30.344c.975 0 1.764.858 1.764 1.918s-.789 1.918-1.764 1.918zM516.24 423.458h-30.344c-.975 0-1.764-.858-1.764-1.918s.789-1.918 1.764-1.918h30.344c.975 0 1.765.858 1.765 1.918s-.79 1.918-1.765 1.918zM573.621 423.458h-30.347c-.974 0-1.764-.858-1.764-1.918s.789-1.918 1.764-1.918h30.347c.974 0 1.763.858 1.763 1.918.001 1.06-.788 1.918-1.763 1.918zM630.999 423.458h-30.344c-.975 0-1.764-.858-1.764-1.918s.789-1.918 1.764-1.918h30.344c.975 0 1.764.858 1.764 1.918s-.789 1.918-1.764 1.918zM688.378 423.458h-30.344c-.975 0-1.764-.858-1.764-1.918s.789-1.918 1.764-1.918h30.344c.976 0 1.764.858 1.764 1.918s-.788 1.918-1.764 1.918zM745.758 423.458h-30.346c-.975 0-1.764-.858-1.764-1.918s.789-1.918 1.764-1.918h30.346c.975 0 1.764.858 1.764 1.918s-.789 1.918-1.764 1.918z" opacity=".5"/>
    </g>
    <g>
      <path fill="#9CD2FF" d="M427.477 347.961c88.362 0 159.994-77.894 159.994-173.98C587.471 77.895 515.839.002 427.477.002S267.483 77.895 267.483 173.981c0 96.086 71.632 173.98 159.994 173.98z"/>
      <path fill="#fff" d="M526.632 73.652l-240.98 19.765a180.93 180.93 0 00-7.423 17.801l303.878 17.848c-6.448-26.309-18.422-50.164-34.49-70.008l-43.018-11.712c-3.045-.83-1.615-4.245 1.932-4.337l25.589-.659C504.069 15.963 467.496 0 427.495 0a148.165 148.165 0 00-49.993 8.665 2.653 2.653 0 01-.667.24c-29.938 10.86-55.94 31.077-75.067 57.464l226.466 4.52c2.956.227 1.447 2.703-1.602 2.763z" opacity=".2"/>
    </g>
    <g>
      <path fill="#EEE" d="M334.577 134.956h-60.803c-3.186 0-5.793-2.834-5.793-6.298 0-3.465 2.607-6.299 5.793-6.299h60.803c3.186 0 5.793 2.834 5.793 6.299 0 3.464-2.607 6.298-5.793 6.298z"/>
    </g>
    <g>
      <path fill="#EEE" d="M309.825 122.359h-60.804c-3.186 0-5.792-2.835-5.792-6.299 0-3.465 2.606-6.299 5.792-6.299h60.804c3.186 0 5.792 2.834 5.792 6.299 0 3.464-2.606 6.299-5.792 6.299z"/>
    </g>
    <g>
      <path fill="#EEE" d="M623.593 108.972h-60.804c-3.186 0-5.793-2.835-5.793-6.299 0-3.465 2.607-6.299 5.793-6.299h60.804c3.186 0 5.792 2.834 5.792 6.299 0 3.464-2.607 6.299-5.792 6.299z"/>
    </g>
    <g>
      <path fill="#EEE" d="M598.84 96.374h-60.804c-3.186 0-5.792-2.834-5.792-6.299 0-3.464 2.606-6.299 5.792-6.299h60.804c3.186 0 5.793 2.835 5.793 6.3 0 3.464-2.607 6.298-5.793 6.298z"/>
    </g>
    <g>
      <path fill="#F6EECC" d="M551.658 234.919H303.296c-7.118 0-12.887-6.273-12.887-14.013v-43.435c0-7.739 5.769-14.013 12.887-14.013h248.361c7.118 0 12.887 6.274 12.887 14.013v43.435c.001 7.74-5.769 14.013-12.886 14.013z"/>
      <path fill="#EC615B" d="M703.959 190.367H150.994V354.11h552.965V190.367z"/>
      <path fill="#12335E" d="M703.959 190.367H150.994v8.058h552.965v-8.058z"/>
      <path fill="#000" d="M353.897 247.553H150.994v22.587h202.903v-22.587zM703.96 247.553H501.057v22.587H703.96v-22.587z" opacity=".1"/>
      <path fill="#F6EECC" d="M353.897 253.806h-16.95V354.11h16.95V253.806zM709.827 242.704h-208.77v18.432h208.77v-18.432z"/>
      <path fill="#F6EECC" d="M353.897 242.704h-208.77v18.432h208.77v-18.432zM518.008 253.806h-16.951V354.11h16.951V253.806z"/>
      <path fill="#7E9AFF" d="M501.057 290.047h-147.16v64.063h147.16v-64.063z"/>
      <path fill="#000" d="M501.057 288.708h-147.16v7.082h147.16v-7.082z" opacity=".1"/>
      <path fill="#000" d="M358.709 291.597h-4.812v62.512h4.812v-62.512z" opacity=".07"/>
      <path fill="#fff" d="M385.113 354.11h-9.154l29.573-65.02h9.154l-29.573 65.02zM400.281 354.11h-9.154l29.573-65.02h9.153l-29.572 65.02zM441.031 354.11h-9.153l29.572-65.02h9.154l-29.573 65.02z" opacity=".2"/>
      <path fill="#000" d="M501.057 291.597h-4.812v62.512h4.812v-62.512z" opacity=".07"/>
      <path fill="#FF9F28" d="M501.057 283.539h-147.16v8.058h147.16v-8.058z"/>
      <g opacity=".07">
        <g opacity=".07">
          <path fill="#000" d="M390.159 291.598h-1.408v62.43h1.408v-62.43zM428.885 291.598h-1.408v62.43h1.408v-62.43zM467.612 291.598h-1.409v62.43h1.409v-62.43z" opacity=".07"/>
        </g>
        <path fill="#000" d="M501.057 325.002h-147.16v1.531h147.16v-1.531z" opacity=".07"/>
      </g>
      <path fill="#fff" d="M389.455 291.598h-1.408v62.512h1.408v-62.512zM428.181 291.598h-1.408v62.512h1.408v-62.512zM466.907 291.598h-1.408v62.512h1.408v-62.512z"/>
      <path fill="#fff" d="M501.057 323.545h-147.16v1.532h147.16v-1.532z"/>
      <path fill="#7E9AFF" d="M212.624 278.105h-21.178v57.379h21.178v-57.379z"/>
      <path fill="#fff" d="M206.129 278.82l-14.028 47.485v8.465h.971l16.527-55.95h-3.47zM192.101 317.639l11.468-38.819h-1.161l-10.307 34.889v3.93zM212.36 282.036l-15.577 52.733h3.47l12.107-40.986v-11.747z" opacity=".2"/>
      <path fill="#EEE" d="M212.624 285.673h-21.178v1.054h21.178v-1.054zM212.624 295.97h-21.178v1.054h21.178v-1.054zM212.624 306.268h-21.178v1.054h21.178v-1.054zM212.624 316.564h-21.178v1.054h21.178v-1.054zM212.624 326.862h-21.178v1.054h21.178v-1.054z"/>
      <g>
        <path fill="#EEE" d="M202.519 278.105h-.969v57.379h.969v-57.379z"/>
      </g>
      <g opacity=".1">
        <path fill="#000" d="M212.186 280.21h-18.172v54.998h-2.468v-56.724h20.64v1.726z" opacity=".1"/>
      </g>
      <g>
        <path fill="#F6EECC" d="M213.28 336.198h-22.492v-58.807h22.492v58.807zm-21.179-1.429h19.864V278.82h-19.864v55.949z"/>
      </g>
      <g>
        <path fill="#7E9AFF" d="M254.764 278.105h-21.177v57.379h21.177v-57.379z"/>
        <path fill="#fff" d="M248.27 278.82l-14.027 47.485v8.465h.97l16.527-55.95h-3.47zM234.243 317.639l11.467-38.819h-1.161l-10.306 34.889v3.93zM254.501 282.036l-15.577 52.733h3.47l12.107-40.986v-11.747z" opacity=".2"/>
        <path fill="#EEE" d="M254.764 285.673h-21.177v1.054h21.177v-1.054zM254.764 295.97h-21.177v1.054h21.177v-1.054zM254.764 306.268h-21.177v1.054h21.177v-1.054zM254.764 316.564h-21.177v1.054h21.177v-1.054zM254.764 326.862h-21.177v1.054h21.177v-1.054z"/>
        <g>
          <path fill="#EEE" d="M244.66 278.105h-.969v57.379h.969v-57.379z"/>
        </g>
        <g opacity=".1">
          <path fill="#000" d="M254.327 280.21h-18.173v54.998h-2.467v-56.724h20.64v1.726z" opacity=".1"/>
        </g>
        <g>
          <path fill="#F6EECC" d="M255.42 336.198h-22.491v-58.807h22.491v58.807zm-21.177-1.429h19.864V278.82h-19.864v55.949z"/>
        </g>
      </g>
      <g>
        <path fill="#7E9AFF" d="M296.906 278.105h-21.178v57.379h21.178v-57.379z"/>
        <path fill="#fff" d="M290.41 278.82l-14.027 47.485v8.465h.97l16.528-55.95h-3.471zM276.383 317.639l11.468-38.819h-1.161l-10.307 34.889v3.93zM296.642 282.036l-15.578 52.733h3.471l12.107-40.986v-11.747z" opacity=".2"/>
        <path fill="#EEE" d="M296.906 285.673h-21.178v1.054h21.178v-1.054zM296.906 295.97h-21.178v1.054h21.178v-1.054zM296.906 306.268h-21.178v1.054h21.178v-1.054zM296.906 316.564h-21.178v1.054h21.178v-1.054zM296.906 326.862h-21.178v1.054h21.178v-1.054z"/>
        <g>
          <path fill="#EEE" d="M286.801 278.105h-.969v57.379h.969v-57.379z"/>
        </g>
        <g opacity=".1">
          <path fill="#000" d="M296.467 280.21h-18.172v54.998h-2.468v-56.724h20.64v1.726z" opacity=".1"/>
        </g>
        <g>
          <path fill="#F6EECC" d="M297.561 336.198h-22.492v-58.807h22.492v58.807zm-21.178-1.429h19.864V278.82h-19.864v55.949z"/>
        </g>
      </g>
      <g>
        <path fill="#7E9AFF" d="M579.228 278.105h-21.177v57.379h21.177v-57.379z"/>
        <path fill="#fff" d="M572.733 278.82l-14.027 47.485v8.465h.97l16.528-55.95h-3.471zM558.706 317.639l11.467-38.819h-1.161l-10.306 34.889v3.93zM578.964 282.036l-15.577 52.733h3.471l12.106-40.986v-11.747z" opacity=".2"/>
        <path fill="#EEE" d="M579.228 285.673h-21.177v1.054h21.177v-1.054zM579.228 295.97h-21.177v1.054h21.177v-1.054zM579.228 306.268h-21.177v1.054h21.177v-1.054zM579.228 316.564h-21.177v1.054h21.177v-1.054zM579.228 326.862h-21.177v1.054h21.177v-1.054z"/>
        <g>
          <path fill="#EEE" d="M569.123 278.105h-.969v57.379h.969v-57.379z"/>
        </g>
        <g opacity=".1">
          <path fill="#000" d="M578.79 280.21h-18.172v54.998h-2.468v-56.724h20.64v1.726z" opacity=".1"/>
        </g>
        <g>
          <path fill="#F6EECC" d="M579.884 336.198h-22.491v-58.807h22.491v58.807zm-21.178-1.429h19.864V278.82h-19.864v55.949z"/>
        </g>
        <g>
          <path fill="#7E9AFF" d="M621.369 278.105h-21.178v57.379h21.178v-57.379z"/>
          <path fill="#fff" d="M614.874 278.82l-14.027 47.485v8.465h.97l16.527-55.95h-3.47zM600.847 317.639l11.467-38.819h-1.161l-10.306 34.889v3.93zM621.106 282.036l-15.578 52.733h3.47l12.108-40.986v-11.747z" opacity=".2"/>
          <path fill="#EEE" d="M621.369 285.673h-21.178v1.054h21.178v-1.054zM621.369 295.97h-21.178v1.054h21.178v-1.054zM621.369 306.268h-21.178v1.054h21.178v-1.054zM621.369 316.564h-21.178v1.054h21.178v-1.054zM621.369 326.862h-21.178v1.054h21.178v-1.054z"/>
          <g>
            <path fill="#EEE" d="M611.264 278.105h-.969v57.379h.969v-57.379z"/>
          </g>
          <g opacity=".1">
            <path fill="#000" d="M620.932 280.21h-18.173v54.998h-2.468v-56.724h20.641v1.726z" opacity=".1"/>
          </g>
          <g>
            <path fill="#F6EECC" d="M622.025 336.198h-22.492v-58.807h22.492v58.807zm-21.178-1.429h19.864V278.82h-19.864v55.949z"/>
          </g>
        </g>
        <g>
          <path fill="#7E9AFF" d="M663.51 278.105h-21.178v57.379h21.178v-57.379z"/>
          <path fill="#fff" d="M657.015 278.82l-14.027 47.485v8.465h.97l16.527-55.95h-3.47zM642.988 317.639l11.467-38.819h-1.161l-10.306 34.889v3.93zM663.246 282.036l-15.577 52.733h3.47l12.107-40.986v-11.747z" opacity=".2"/>
          <path fill="#EEE" d="M663.51 285.673h-21.178v1.054h21.178v-1.054zM663.51 295.97h-21.178v1.054h21.178v-1.054zM663.51 306.268h-21.178v1.054h21.178v-1.054zM663.51 316.564h-21.178v1.054h21.178v-1.054zM663.51 326.862h-21.178v1.054h21.178v-1.054z"/>
          <g>
            <path fill="#EEE" d="M653.405 278.105h-.969v57.379h.969v-57.379z"/>
          </g>
          <g opacity=".1">
            <path fill="#000" d="M663.072 280.21h-18.173v54.998h-2.467v-56.724h20.64v1.726z" opacity=".1"/>
          </g>
          <g>
            <path fill="#F6EECC" d="M664.166 336.198h-22.492v-58.807h22.492v58.807zm-21.178-1.429h19.864V278.82h-19.864v55.949z"/>
          </g>
        </g>
      </g>
      <g>
        <path fill="#7E9AFF" d="M472.387 229.042h-89.818v23.029h89.818v-23.029z"/>
        <path fill="#000" d="M470.451 251.594v-19.761h-87.629v-2.684h89.216v22.445h-1.587z" opacity=".1"/>
        <path fill="#F6EECC" d="M381.911 252.784v-24.457h91.132v24.457h-91.132zm1.314-23.029v21.6h88.505v-21.6h-88.505z"/>
        <path fill="#fff" d="M408.684 251.594h-1.89l9.932-21.839h1.891l-9.933 21.839zM435.265 251.594h-1.891l9.933-21.839h1.891l-9.933 21.839zM441.176 251.594h-1.891l9.933-21.839h1.891l-9.933 21.839zM414.494 251.594h-3.074l9.933-21.839h3.074l-9.933 21.839zM446.588 251.594h-3.074l9.933-21.839h3.074l-9.933 21.839z" opacity=".2"/>
      </g>
      <g>
        <path fill="#000" d="M196.654 213.29h-11.731v6.125h11.731v-6.125zM202.519 219.415h-11.731v6.125h11.731v-6.125z" opacity=".1"/>
      </g>
      <g>
        <path fill="#000" d="M175.169 302.277h-11.731v6.125h11.731v-6.125zM181.035 308.403h-11.731v6.124h11.731v-6.124z" opacity=".1"/>
      </g>
      <g>
        <path fill="#000" d="M285.182 222.916h-11.731v6.125h11.731v-6.125zM279.316 229.042h-11.731v6.125h11.731v-6.125z" opacity=".1"/>
      </g>
      <g>
        <path fill="#000" d="M548.286 320.407h-11.731v6.126h11.731v-6.126z" opacity=".1"/>
        <path fill="#000" d="M542.421 326.532H530.69v6.126h11.731v-6.126z" opacity=".1"/>
      </g>
      <g>
        <path fill="#000" d="M345.679 210.227h-11.731v6.125h11.731v-6.125z" opacity=".1"/>
      </g>
      <g>
        <path fill="#000" d="M325.612 289.186h-11.731v6.125h11.731v-6.125z" opacity=".1"/>
      </g>
      <g>
        <path fill="#000" d="M520.124 208.887h-11.731v6.125h11.731v-6.125z" opacity=".1"/>
      </g>
      <g>
        <path fill="#000" d="M689.815 326.532h-11.731v6.126h11.731v-6.126z" opacity=".1"/>
      </g>
      <g>
        <path fill="#000" d="M436.307 259.987h-11.731v6.125h11.731v-6.125zM442.173 266.113h-11.731v6.125h11.731v-6.125z" opacity=".1"/>
      </g>
      <g>
        <path fill="#000" d="M624.302 223.63H612.57v6.125h11.732v-6.125zM630.167 229.755h-11.731v6.125h11.731v-6.125z" opacity=".1"/>
      </g>
      <g opacity=".7">
        <path fill="#884C2C" d="M375.043 179.71c.255.346.6.519 1.034.519.435 0 .777-.173 1.03-.519.253-.347.379-.82.379-1.42v-4.137h1.538v4.19c0 1.086-.277 1.921-.828 2.502-.552.584-1.259.873-2.12.873-.861 0-1.567-.293-2.123-.877-.556-.587-.832-1.42-.832-2.498v-4.19h1.536v4.137c0 .599.13 1.073.386 1.42zM390.563 174.153h1.537v7.49h-1.537l-3.281-4.694v4.694h-1.537v-7.49h1.438l3.381 4.823v-4.823h-.001zM398.919 174.153h1.537v7.49h-1.537v-7.49zM409.819 178.922l1.755-4.769h1.665l-2.77 7.49h-1.301l-2.768-7.49h1.665l1.754 4.769zM424.147 174.153v1.489h-3.43v1.544h3.085v1.425h-3.085v1.554h3.539v1.478h-5.076v-7.49h4.967zM436.338 176.64c0 1.2-.436 1.976-1.311 2.326l1.746 2.678h-1.892l-1.528-2.389h-1.065v2.389h-1.537v-7.49h2.612c1.071 0 1.834.197 2.291.589.455.392.684 1.025.684 1.897zm-1.852.889c.191-.186.286-.481.286-.884 0-.404-.099-.681-.296-.83-.197-.151-.542-.226-1.035-.226h-1.153v2.219h1.123c.525 0 .883-.093 1.075-.279zM444.65 175.648a.666.666 0 00-.222.525c0 .218.09.39.271.519.181.128.597.281 1.252.456.653.175 1.16.438 1.522.788.361.35.542.86.542 1.532s-.231 1.217-.695 1.634c-.463.419-1.072.627-1.827.627-1.092 0-2.074-.439-2.947-1.318l.916-1.221c.743.707 1.429 1.06 2.06 1.06.282 0 .505-.066.665-.198a.652.652 0 00.241-.535.643.643 0 00-.256-.537c-.17-.132-.509-.266-1.015-.401-.801-.208-1.388-.477-1.758-.809-.372-.334-.557-.854-.557-1.566 0-.71.235-1.259.703-1.645.47-.386 1.056-.579 1.759-.579.461 0 .92.087 1.38.257.46.173.86.417 1.203.731l-.779 1.221c-.598-.493-1.215-.74-1.852-.74-.257 0-.46.066-.606.199zM454.449 174.153h1.537v7.49h-1.537v-7.49zM465.724 175.599v6.044h-1.537v-6.044h-1.951v-1.446h5.439v1.446h-1.951zM476.888 181.643h-1.537v-2.957l-2.385-4.533h1.666l1.487 2.786 1.488-2.786h1.666l-2.385 4.533v2.957z" opacity=".7"/>
      </g>
    </g>
    <g>
      <path fill="#000" d="M771.947 375.541c9.596 0 17.376-2.6 17.376-5.807 0-3.208-7.78-5.808-17.376-5.808-9.597 0-17.376 2.6-17.376 5.808 0 3.207 7.779 5.807 17.376 5.807z" opacity=".1"/>
      <path fill="#C8C8C8" d="M773.597 374.149c9.596 0 17.375-2.6 17.375-5.807 0-3.208-7.779-5.808-17.375-5.808s-17.376 2.6-17.376 5.808c0 3.207 7.78 5.807 17.376 5.807z"/>
      <path fill="#EC615B" d="M816.333 181.167c-19.904-11.002-28.492 13.726-42.737 0v-36.121c14.245 13.726 23.432-9.265 42.737 0v36.121z"/>
      <path fill="#C8C8C8" d="M773.598 370.04c-1.07 0-1.938-.943-1.938-2.107v-227.96c0-1.164.868-2.108 1.938-2.108 1.07 0 1.938.944 1.938 2.108v227.96c0 1.164-.869 2.107-1.938 2.107z"/>
    </g>
  </g>
</svg>
