<svg width="500" height="400" viewBox="0 0 500 400" fill="none" xmlns="http://www.w3.org/2000/svg">
<path d="M155.375 326.2C184 326.2 212.625 326.2 241.25 326.2C269.781 326.2 298.313 326.2 326.813 326.2C342.938 326.2 359.094 326.2 375.219 326.2C375.813 326.2 375.813 325.2 375.219 325.2C346.594 325.2 317.969 325.2 289.344 325.2C260.813 325.2 232.281 325.2 203.781 325.2C187.656 325.2 171.5 325.2 155.375 325.2C154.781 325.2 154.781 326.2 155.375 326.2Z" fill="#E8E8E8"/>
<path d="M381 305.467C380.75 315.067 381.656 324.667 383.719 334.033C383.844 334.667 384.75 334.4 384.625 333.767C382.594 324.5 381.688 315 381.969 305.467C381.938 304.833 381 304.833 381 305.467Z" fill="#E8E8E8"/>
<path d="M418.219 306.233C419.094 315.1 418.563 324.067 416.656 332.733C416.531 333.367 417.406 333.633 417.563 333C419.5 324.233 420.062 315.2 419.156 306.233C419.094 305.6 418.156 305.6 418.219 306.233Z" fill="#E8E8E8"/>
<path d="M384.094 334.967C394.906 337.9 406.344 337.5 416.938 333.767C417.5 333.567 417.25 332.6 416.688 332.8C406.219 336.467 395 336.9 384.344 334C383.75 333.867 383.5 334.833 384.094 334.967Z" fill="#E8E8E8"/>
<path d="M381.438 305.933C393.594 308.7 406.187 308.633 418.312 305.767C418.906 305.633 418.656 304.667 418.062 304.8C406.094 307.633 393.656 307.667 381.688 304.967C381.094 304.833 380.844 305.8 381.438 305.933Z" fill="#E8E8E8"/>
<path d="M388.844 306.3C387.219 302.4 388.687 297.633 389.906 293.8C391.156 289.833 392.937 286.067 395.125 282.6C394.875 282.633 394.625 282.667 394.375 282.7C395.094 283.567 395.875 284.167 396.844 284.667C397.219 284.833 397.625 284.567 397.531 284.1C397.156 282.3 396.5 280.533 397.25 278.733C397.781 277.467 398.531 276.2 399.156 275C398.937 275.067 398.719 275.133 398.5 275.167C399.156 275.6 399.812 276 400.469 276.433C400.906 276.733 401.281 276.167 401.125 275.733C400.469 274.2 400.031 272.667 400.937 271.133C401.469 270.2 402.156 269.367 402.75 268.5C404.062 266.633 405.437 264.767 406.812 262.933C409.437 259.433 412.156 256.033 414.969 252.7C414.719 252.667 414.469 252.633 414.219 252.6C418.219 258.2 420.75 264.9 421.437 271.9C421.781 275.267 421.687 278.733 421.125 282.067C420.844 283.767 420.437 285.433 419.937 287.067C419.844 287.4 419.719 287.733 419.625 288.033C419.281 288.967 418.719 289.367 417.812 289.567C417.187 289.7 416.844 289.6 416.312 290.033C416.062 290.233 416 290.567 416.219 290.833C416.906 291.6 417.187 291.733 416.937 292.767C416.781 293.433 416.406 294.133 416.125 294.8C415.562 296.133 414.937 297.433 414.281 298.7C412.937 301.3 411.406 303.767 409.687 306.1C409.312 306.6 409.969 307.3 410.344 306.8C413.656 302.267 416.281 297.3 418.25 291.967C418.312 291.8 418.25 291.6 418.125 291.467C417.719 291.033 417.312 290.567 416.875 290.133C416.844 290.4 416.812 290.667 416.781 290.933C417.5 290.4 418.312 290.767 419.062 290.433C419.656 290.2 419.969 289.733 420.219 289.133C420.906 287.567 421.344 285.767 421.719 284.1C422.5 280.433 422.75 276.667 422.5 272.933C421.969 265.4 419.375 258.1 415.062 252.1C414.906 251.867 414.562 251.733 414.312 252C410.844 256.1 407.5 260.333 404.312 264.667C402.875 266.6 401.344 268.533 400.094 270.633C398.969 272.533 399.5 274.333 400.281 276.267C400.5 276.033 400.719 275.8 400.937 275.567C400.281 275.133 399.625 274.733 398.969 274.3C398.75 274.167 398.437 274.233 398.312 274.467C397.531 276 396.312 277.7 395.875 279.4C395.5 280.9 396.281 282.867 396.594 284.333C396.812 284.133 397.062 283.967 397.281 283.767C396.375 283.333 395.656 282.767 395 281.967C394.781 281.7 394.406 281.8 394.25 282.067C391.812 285.933 389.906 290.167 388.594 294.633C387.469 298.5 386.375 302.9 387.969 306.767C388.281 307.367 389.094 306.867 388.844 306.3Z" fill="#E8E8E8"/>
<path d="M414.281 260.267C413.031 275.367 403.344 287.467 399.313 301.667C399.125 302.3 400.031 302.533 400.219 301.933C404.25 287.633 413.969 275.5 415.219 260.267C415.281 259.6 414.312 259.633 414.281 260.267Z" fill="#E8E8E8"/>
<path d="M402.469 268.3C403.469 273.8 404.625 279.233 405.937 284.633C406.094 285.267 407 285 406.844 284.367C405.531 278.967 404.375 273.5 403.375 268.033C403.281 267.4 402.375 267.667 402.469 268.3Z" fill="#E8E8E8"/>
<path d="M413.031 271.833C415.75 269.733 418.094 267.233 420.125 264.333C420.5 263.833 419.687 263.333 419.312 263.833C417.406 266.567 415.156 268.967 412.562 270.967C412.094 271.367 412.562 272.233 413.031 271.833Z" fill="#E8E8E8"/>
<path d="M410.125 257.567C410.969 260.433 411.469 263.933 413.531 266.1C413.969 266.567 414.625 265.833 414.188 265.4C412.281 263.367 411.781 259.933 411 257.3C410.844 256.7 409.938 256.967 410.125 257.567Z" fill="#E8E8E8"/>
<path d="M386.969 306.033C385.063 304.433 383.906 302.2 382.938 299.867C381.844 297.133 380.906 294.333 380.063 291.5C378.469 286.067 377.313 280.467 376.625 274.833C375.219 263.033 376.344 251.1 375 239.267C374.719 239.367 374.406 239.433 374.125 239.533C377.625 247.933 385.813 252.967 392.625 257.967C392.563 257.733 392.5 257.5 392.469 257.267C391.531 258.7 390.594 260.133 389.656 261.567C389.438 261.9 389.719 262.333 390.063 262.333C391.281 262.333 392.344 262.167 393.5 261.733C393.313 261.667 393.156 261.567 392.969 261.5C394.125 263.4 395.281 265.3 396.438 267.2C396.469 267 396.5 266.8 396.5 266.6C395.938 267.167 395.469 267.8 395 268.5C394.844 268.733 395 269.2 395.281 269.233C397.844 269.633 398.75 272.233 399.406 274.567C399.594 275.167 400.5 274.933 400.313 274.3C399.531 271.667 398.406 268.7 395.531 268.267C395.625 268.5 395.719 268.767 395.813 269C396.219 268.333 396.625 267.867 397.156 267.333C397.313 267.2 397.344 266.9 397.219 266.733C396.063 264.833 394.906 262.933 393.75 261.033C393.656 260.867 393.438 260.733 393.219 260.8C392.156 261.167 391.125 261.367 390.031 261.333C390.156 261.6 390.313 261.833 390.438 262.1C391.375 260.667 392.313 259.233 393.25 257.8C393.406 257.567 393.281 257.267 393.094 257.1C386.406 252.2 378.375 247.3 374.938 239.033C374.75 238.6 374 238.8 374.063 239.3C375.438 251.567 374.219 263.967 375.844 276.2C376.625 282.1 377.906 287.9 379.688 293.533C381.125 298.1 382.625 303.667 386.281 306.767C386.781 307.133 387.438 306.433 386.969 306.033Z" fill="#E8E8E8"/>
<path d="M374.313 240.267C376.844 247.733 378.969 255.6 382.375 262.7C384.063 266.2 385.906 269.633 387.5 273.2C389.219 277.067 390.75 281 392.313 284.9C392.531 285.5 393.344 284.967 393.125 284.4C391.656 280.667 390.156 276.933 388.563 273.267C387 269.667 385.188 266.233 383.438 262.733C379.938 255.6 377.781 247.6 375.188 240.033C375 239.4 374.094 239.667 374.313 240.267Z" fill="#E8E8E8"/>
<path d="M375.5 265.6C378.875 266.033 382.563 266.233 385.125 268.933C385.563 269.4 386.219 268.667 385.781 268.233C383.031 265.367 379.125 265.1 375.5 264.633C374.906 264.533 374.906 265.533 375.5 265.6Z" fill="#E8E8E8"/>
<path d="M384.531 252.1C383.969 254.267 383.594 256.5 383.438 258.767C383.313 260.7 383.094 262.967 383.719 264.833C383.906 265.433 384.812 265.167 384.625 264.567C384.031 262.8 384.25 260.6 384.375 258.733C384.531 256.567 384.906 254.433 385.437 252.333C385.594 251.733 384.687 251.467 384.531 252.1Z" fill="#E8E8E8"/>
<path d="M377.625 283.767C380.063 283.833 382.406 283.867 384.781 284.567C387.125 285.267 389.438 286 391.781 286.733C392.375 286.9 392.625 285.933 392.031 285.767C389.531 285 387.063 284.167 384.531 283.467C382.25 282.833 379.969 282.867 377.625 282.8C377.031 282.733 377.031 283.733 377.625 283.767Z" fill="#E8E8E8"/>
<path d="M411.812 305.1C413.906 304.8 415.969 304.8 418.062 305.1C417.969 304.867 417.875 304.6 417.781 304.367C417.594 304.667 415.719 304.7 415.344 304.733C414.5 304.867 413.625 305 412.781 305.2C412.656 305.233 411.812 305.333 411.781 305.433C411.844 305.267 413.094 305.3 413.281 305.3C414.187 305.3 415.094 305.4 416 305.467C416 305.133 416 304.8 416 304.467C415.219 304.433 414.531 304.533 413.75 304.767C413.25 304.9 413.344 305.733 413.875 305.733C415.094 305.733 416.187 305.467 417.375 305.133C417.969 304.967 417.719 304 417.125 304.167C416.062 304.467 415 304.733 413.875 304.733C413.906 305.067 413.969 305.4 414 305.7C414.656 305.5 415.312 305.433 416 305.433C416.594 305.433 416.594 304.467 416 304.433C414.625 304.367 412.625 303.833 411.375 304.667C410.875 305 410.156 305.867 410.812 306.4C411.094 306.633 411.406 306.5 411.75 306.467C412.687 306.267 413.594 306.033 414.531 305.867C415.625 305.667 417.812 305.967 418.562 304.867C418.719 304.633 418.562 304.167 418.281 304.133C416.094 303.8 413.969 303.8 411.781 304.1C411.219 304.167 411.219 305.167 411.812 305.1Z" fill="#E8E8E8"/>
<path d="M381.844 305.733C382.281 305.6 382.719 305.5 383.156 305.467C383.375 305.467 383.562 305.433 383.781 305.467C383.875 305.467 384.312 305.433 384.344 305.467C384.312 305.3 384.25 305.133 384.219 304.967C384.219 305 384.187 305.033 384.187 305.033C384.375 304.933 384.562 304.8 384.75 304.7C384.719 304.7 384.687 304.7 384.687 304.7C384.781 304.8 384.906 304.933 385 305.033C385 305 385 304.967 384.969 304.967C384.812 304.333 383.937 304.6 384.062 305.233C384.062 305.267 384.062 305.3 384.094 305.3C384.125 305.467 384.281 305.6 384.406 305.633C384.437 305.633 384.469 305.633 384.469 305.633C384.719 305.7 384.937 305.567 385.031 305.3C385.031 305.267 385.062 305.233 385.062 305.233C385.125 305.067 385.062 304.867 384.937 304.733C384.594 304.367 383.844 304.433 383.406 304.433C382.781 304.433 382.125 304.567 381.531 304.733C381.031 304.933 381.281 305.9 381.844 305.733Z" fill="#E8E8E8"/>
<path d="M382.563 312.433C393.969 314.533 405.813 315.533 417.063 311.933C417.625 311.733 417.406 310.8 416.813 310.967C405.75 314.5 394.063 313.533 382.813 311.467C382.219 311.367 381.969 312.333 382.563 312.433Z" fill="#E8E8E8"/>
<path d="M421.844 326.133C441.875 326.133 461.938 326.133 481.969 326.133C482.563 326.133 482.563 325.133 481.969 325.133C461.938 325.133 441.875 325.133 421.844 325.133C421.219 325.133 421.219 326.133 421.844 326.133Z" fill="#E8E8E8"/>
<path d="M406.687 347.567C425.562 347.567 444.469 347.567 463.344 347.567C463.937 347.567 463.937 346.567 463.344 346.567C444.469 346.567 425.562 346.567 406.687 346.567C406.094 346.567 406.094 347.567 406.687 347.567Z" fill="#E8E8E8"/>
<path d="M415.281 347.467C413.031 349.467 410.781 351.433 408.563 353.433C408.094 353.833 408.75 354.533 409.219 354.133C411.469 352.133 413.719 350.167 415.937 348.167C416.406 347.767 415.719 347.033 415.281 347.467Z" fill="#E8E8E8"/>
<path d="M408.844 354.5C409.438 354.5 409.438 353.5 408.844 353.5C408.25 353.5 408.25 354.5 408.844 354.5Z" fill="#E8E8E8"/>
<path d="M418.375 353.5C399.344 353.5 380.312 353.5 361.281 353.5C360.688 353.5 360.688 354.5 361.281 354.5C380.312 354.5 399.344 354.5 418.375 354.5C418.969 354.5 418.969 353.5 418.375 353.5Z" fill="#E8E8E8"/>
<path d="M361.188 363.833C364.563 360.833 368.031 357.967 371.594 355.2C372.062 354.833 371.625 353.967 371.125 354.333C367.5 357.133 363.969 360.067 360.531 363.1C360.063 363.533 360.719 364.233 361.188 363.833Z" fill="#E8E8E8"/>
<path d="M76.6875 345.633C98.75 345.633 120.813 345.633 142.875 345.633C149.125 345.633 155.375 345.633 161.625 345.633C162.219 345.633 162.219 344.633 161.625 344.633C139.563 344.633 117.5 344.633 95.4375 344.633C89.1875 344.633 82.9375 344.633 76.6875 344.633C76.0938 344.633 76.0938 345.633 76.6875 345.633Z" fill="#E8E8E8"/>
<path d="M88.2187 354.334C91.1874 351.633 94.1874 348.933 97.1562 346.233C97.6249 345.8 96.9374 345.1 96.4999 345.533C93.5312 348.233 90.5312 350.933 87.5624 353.634C87.0937 354.034 87.7812 354.767 88.2187 354.334Z" fill="#E8E8E8"/>
<path d="M77.4688 355.3C97.9688 355.3 118.469 355.3 138.969 355.3C139.563 355.3 139.563 354.3 138.969 354.3C118.469 354.3 97.9688 354.3 77.4688 354.3C76.875 354.3 76.875 355.3 77.4688 355.3Z" fill="#E8E8E8"/>
<path d="M131.813 355.1C129.469 357.9 127.063 360.633 124.625 363.367C124.219 363.833 124.875 364.533 125.281 364.067C127.719 361.333 130.094 358.6 132.469 355.8C132.906 355.333 132.219 354.633 131.813 355.1Z" fill="#E8E8E8"/>
<path d="M115.813 364.967C133.844 364.967 151.844 364.967 169.875 364.967C170.469 364.967 170.469 363.967 169.875 363.967C151.844 363.967 133.844 363.967 115.813 363.967C115.219 363.967 115.219 364.967 115.813 364.967Z" fill="#E8E8E8"/>
<path d="M103.031 328.867C110.656 328.867 118.281 328.867 125.938 328.867C126.531 328.867 126.531 327.867 125.938 327.867C118.313 327.867 110.688 327.867 103.031 327.867C102.437 327.867 102.437 328.867 103.031 328.867Z" fill="#E8E8E8"/>
<path d="M131.719 332.133C134.063 332.133 136.438 332.133 138.781 332.133C139.375 332.133 139.375 331.133 138.781 331.133C136.438 331.133 134.063 331.133 131.719 331.133C131.094 331.133 131.094 332.133 131.719 332.133Z" fill="#E8E8E8"/>
<path d="M114.75 153.9C114.75 159.333 114.75 164.8 114.75 170.233C114.75 170.867 115.688 170.867 115.688 170.233C115.688 164.8 115.688 159.333 115.688 153.9C115.688 153.267 114.75 153.267 114.75 153.9Z" fill="#E8E8E8"/>
<path d="M99.0312 171.033C111.594 171.033 124.156 171.033 136.719 171.033C137.312 171.033 137.312 170.033 136.719 170.033C124.156 170.033 111.594 170.033 99.0312 170.033C98.4375 170.033 98.4375 171.033 99.0312 171.033Z" fill="#E8E8E8"/>
<path d="M125.344 171.5C125.344 175.7 125.344 179.867 125.344 184.067C125.344 184.7 126.281 184.7 126.281 184.067C126.281 179.867 126.281 175.7 126.281 171.5C126.281 170.833 125.344 170.833 125.344 171.5Z" fill="#E8E8E8"/>
<path d="M114.937 185.8C124.937 185.8 134.969 185.8 144.969 185.8C145.562 185.8 145.562 184.8 144.969 184.8C134.969 184.8 124.937 184.8 114.937 184.8C114.313 184.8 114.313 185.8 114.937 185.8Z" fill="#E8E8E8"/>
<path d="M367.125 142.2C367.125 143.533 367.125 144.833 367.125 146.167C367.125 146.8 368.062 146.8 368.062 146.167C368.062 144.833 368.062 143.533 368.062 142.2C368.062 141.567 367.125 141.567 367.125 142.2Z" fill="#E8E8E8"/>
<path d="M367.875 143C389.375 143 410.875 143 432.375 143C432.969 143 432.969 142 432.375 142C410.875 142 389.375 142 367.875 142C367.281 142 367.281 143 367.875 143Z" fill="#E8E8E8"/>
<path d="M368.438 146.667C389.75 146.667 411.063 146.667 432.344 146.667C432.938 146.667 432.938 145.667 432.344 145.667C411.031 145.667 389.719 145.667 368.438 145.667C367.844 145.667 367.844 146.667 368.438 146.667Z" fill="#E8E8E8"/>
<path d="M432.219 142.2C432.094 143.567 432.156 144.933 432.375 146.3C432.469 146.933 433.375 146.667 433.281 146.033C433.063 144.767 433.031 143.467 433.156 142.2C433.219 141.567 432.281 141.567 432.219 142.2Z" fill="#E8E8E8"/>
<path d="M372.281 142.233C372.281 132.933 372.281 123.633 372.281 114.333C372.281 113.7 371.344 113.7 371.344 114.333C371.344 123.633 371.344 132.933 371.344 142.233C371.344 142.9 372.281 142.9 372.281 142.233Z" fill="#E8E8E8"/>
<path d="M372.281 114.5C374.938 113.367 377.75 113.533 380.219 115.1C380.75 115.433 381.219 114.567 380.688 114.233C378.031 112.567 374.875 112.3 372.031 113.533C371.469 113.767 371.719 114.733 372.281 114.5Z" fill="#E8E8E8"/>
<path d="M380.062 114.867C380.062 123.8 380.062 132.767 380.062 141.7C380.062 142.333 381 142.333 381 141.7C381 132.767 381 123.8 381 114.867C381 114.233 380.062 114.233 380.062 114.867Z" fill="#E8E8E8"/>
<path d="M381.125 122.333C383.031 121.5 385.031 121.633 386.812 122.8C387.344 123.133 387.812 122.267 387.281 121.933C385.312 120.667 383 120.433 380.875 121.367C380.312 121.6 380.562 122.567 381.125 122.333Z" fill="#E8E8E8"/>
<path d="M386.625 122.767C386.625 129.033 386.625 135.267 386.625 141.533C386.625 142.167 387.562 142.167 387.562 141.533C387.562 135.267 387.562 129.033 387.562 122.767C387.562 122.133 386.625 122.133 386.625 122.767Z" fill="#E8E8E8"/>
<path d="M372.406 122.167C375.062 121.533 377.687 121.733 380.25 122.7C380.813 122.9 381.063 121.933 380.5 121.733C377.781 120.7 374.969 120.567 372.156 121.2C371.594 121.333 371.844 122.3 372.406 122.167Z" fill="#E8E8E8"/>
<path d="M380.469 133.733C382.469 133.167 384.469 133.1 386.5 133.567C387.094 133.7 387.344 132.733 386.75 132.6C384.563 132.1 382.406 132.133 380.219 132.767C379.656 132.933 379.875 133.9 380.469 133.733Z" fill="#E8E8E8"/>
<path d="M398.437 141.9C398.437 140.033 398.437 138.167 398.437 136.3C398.437 135.667 397.5 135.667 397.5 136.3C397.5 138.167 397.5 140.033 397.5 141.9C397.5 142.533 398.437 142.533 398.437 141.9Z" fill="#E8E8E8"/>
<path d="M397.969 136.6C408.125 136.6 418.25 136.6 428.406 136.6C429 136.6 429 135.6 428.406 135.6C418.25 135.6 408.125 135.6 397.969 135.6C397.344 135.6 397.344 136.6 397.969 136.6Z" fill="#E8E8E8"/>
<path d="M428.719 137.133C429.312 137.133 429.312 136.133 428.719 136.133C428.094 136.133 428.094 137.133 428.719 137.133Z" fill="#E8E8E8"/>
<path d="M428.25 136.633C428.25 138.333 428.25 140.033 428.25 141.733C428.25 142.367 429.187 142.367 429.187 141.733C429.187 140.033 429.187 138.333 429.187 136.633C429.187 136 428.25 136 428.25 136.633Z" fill="#E8E8E8"/>
<path d="M404.344 135.933C404.344 134.167 404.344 132.433 404.344 130.667C404.344 130.033 403.406 130.033 403.406 130.667C403.406 132.433 403.406 134.167 403.406 135.933C403.406 136.567 404.344 136.567 404.344 135.933Z" fill="#E8E8E8"/>
<path d="M403.875 131C413.844 131 423.812 131 433.812 131C434.406 131 434.406 130 433.812 130C423.844 130 413.875 130 403.875 130C403.281 130 403.281 131 403.875 131Z" fill="#E8E8E8"/>
<path d="M433.5 130.5C433.5 131.967 433.5 133.433 433.5 134.9C433.5 135.533 434.437 135.533 434.437 134.9C434.437 133.433 434.437 131.967 434.437 130.5C434.437 129.833 433.5 129.833 433.5 130.5Z" fill="#E8E8E8"/>
<path d="M428.062 136.767C429.875 136.767 431.687 136.767 433.5 136.767C434.094 136.767 434.094 135.767 433.5 135.767C431.687 135.767 429.875 135.767 428.062 135.767C427.438 135.767 427.438 136.767 428.062 136.767Z" fill="#E8E8E8"/>
<path d="M433.438 134.933C433.375 135.3 433.375 135.633 433.469 135.967C433.531 136.233 433.813 136.4 434.031 136.3C434.281 136.233 434.438 135.933 434.344 135.7C434.313 135.533 434.281 135.333 434.313 135.2C434.344 134.933 434.25 134.633 434 134.6C433.781 134.533 433.469 134.667 433.438 134.933Z" fill="#E8E8E8"/>
<path d="M411 130.733C411.406 132.433 411.5 134.167 411.281 135.933C411.219 136.567 412.156 136.567 412.219 135.933C412.437 134.1 412.312 132.267 411.906 130.467C411.75 129.867 410.844 130.133 411 130.733Z" fill="#E8E8E8"/>
<path d="M418.063 136.533C418.281 138.2 418.156 139.833 417.781 141.433C417.625 142.067 418.531 142.333 418.688 141.7C419.125 139.9 419.219 138.1 418.969 136.267C418.906 135.633 418 135.9 418.063 136.533Z" fill="#E8E8E8"/>
<path d="M411.938 177.1C411.938 179.733 411.938 182.333 411.938 184.967C411.938 185.6 412.875 185.6 412.875 184.967C412.875 182.333 412.875 179.733 412.875 177.1C412.875 176.433 411.938 176.433 411.938 177.1Z" fill="#E8E8E8"/>
<path d="M404.688 185.1C410.938 185.1 417.188 185.1 423.438 185.1C424.031 185.1 424.031 184.1 423.438 184.1C417.188 184.1 410.938 184.1 404.688 184.1C404.094 184.1 404.094 185.1 404.688 185.1Z" fill="#E8E8E8"/>
<path d="M394.031 72.9666C394.031 78.9666 394.031 84.9999 394.031 90.9999C394.031 91.6332 394.969 91.6332 394.969 90.9999C394.969 84.9999 394.969 78.9666 394.969 72.9666C394.969 72.3332 394.031 72.3332 394.031 72.9666Z" fill="#E8E8E8"/>
<path d="M395.219 72.9333C402.344 72.9333 409.438 72.9333 416.563 72.9333C417.156 72.9333 417.156 71.9333 416.563 71.9333C409.438 71.9333 402.344 71.9333 395.219 71.9333C394.625 71.9333 394.625 72.9333 395.219 72.9333Z" fill="#E8E8E8"/>
<path d="M416.594 72.8009C416.594 78.6009 416.594 84.4009 416.594 90.1676C416.594 90.801 417.531 90.801 417.531 90.1676C417.531 84.3676 417.531 78.5676 417.531 72.8009C417.531 72.1676 416.594 72.1676 416.594 72.8009Z" fill="#E8E8E8"/>
<path d="M394.375 91.5667C401.938 91.5667 409.5 91.5667 417.063 91.5667C417.656 91.5667 417.656 90.5667 417.063 90.5667C409.5 90.5667 401.938 90.5667 394.375 90.5667C393.781 90.5667 393.781 91.5667 394.375 91.5667Z" fill="#E8E8E8"/>
<path d="M396.125 75.0333C396.125 79.6 396.125 84.1333 396.125 88.7C396.125 89.3333 397.062 89.3333 397.062 88.7C397.062 84.1333 397.062 79.6 397.062 75.0333C397.062 74.4 396.125 74.4 396.125 75.0333Z" fill="#E8E8E8"/>
<path d="M396.813 75.4333C402.656 75.4333 408.531 75.4333 414.375 75.4333C414.969 75.4333 414.969 74.4333 414.375 74.4333C408.531 74.4333 402.656 74.4333 396.813 74.4333C396.219 74.4333 396.219 75.4333 396.813 75.4333Z" fill="#E8E8E8"/>
<path d="M414.031 75.0333C414.031 79.2667 414.031 83.4667 414.031 87.7C414.031 88.3334 414.969 88.3334 414.969 87.7C414.969 83.4667 414.969 79.2667 414.969 75.0333C414.969 74.4 414.031 74.4 414.031 75.0333Z" fill="#E8E8E8"/>
<path d="M396.813 89.1999C402.625 89.1999 408.438 89.1999 414.281 89.1999C414.875 89.1999 414.875 88.2 414.281 88.2C408.469 88.2 402.656 88.2 396.813 88.2C396.219 88.2 396.219 89.1999 396.813 89.1999Z" fill="#E8E8E8"/>
<path d="M407.875 83.2C405.406 81.2 409.094 77.0334 410.813 79.5334C412.406 81.8 409.813 84.5334 407.594 83.2667C407.063 82.9667 406.594 83.8334 407.125 84.1334C408.563 84.9667 410.469 84.7334 411.5 83.3C412.562 81.8667 412.437 79.6 411.094 78.4C409.688 77.1667 407.688 78 406.719 79.4C405.688 80.9334 406 82.9334 407.406 84.0667C407.906 84.4334 408.344 83.5667 407.875 83.2Z" fill="#E8E8E8"/>
<path d="M404.906 88.1334C404.781 85.5 407.812 84.5 409.719 84.5C412.062 84.5 412.812 86.7334 413.781 88.6334C414.062 89.2 414.875 88.7 414.594 88.1334C413.937 86.8667 413.312 85.2 412.219 84.2667C411.219 83.4334 409.969 83.4667 408.781 83.6001C406.594 83.8667 403.812 85.3 403.969 88.1334C404 88.7667 404.937 88.7667 404.906 88.1334Z" fill="#E8E8E8"/>
<path d="M397.219 85.7333C397.906 84.3666 400.438 84.8999 401.375 85.4333C402.344 85.9999 402.906 86.9333 403.156 88.0666C403.281 88.6999 404.188 88.4333 404.063 87.7999C403.688 86.0666 402.563 84.6999 400.938 84.1333C399.563 83.6666 397.219 83.6333 396.438 85.1999C396.125 85.7999 396.938 86.2999 397.219 85.7333Z" fill="#E8E8E8"/>
<path d="M399.031 83.2668C398 83.2334 398.25 81.6001 398.688 81.0334C399.25 80.3001 400.375 80.2001 401.031 80.9001C401.562 81.4334 401.719 82.4334 401.281 83.0668C400.969 83.5334 400.5 83.6334 400 83.6334C399.813 83.6334 399.031 83.6668 398.906 83.5001C398.563 82.9668 397.75 83.4668 398.094 84.0001C398.469 84.6001 399.25 84.6334 399.875 84.6334C400.625 84.6668 401.344 84.4668 401.875 83.8668C402.875 82.7001 402.531 80.7334 401.344 79.8668C400.063 78.9667 398.281 79.4667 397.625 80.9334C397.063 82.2334 397.469 84.2001 399.031 84.2334C399.656 84.3001 399.656 83.3001 399.031 83.2668Z" fill="#E8E8E8"/>
<path d="M207.781 161.567C209.25 162.833 211.063 162.3 212.438 161.067C214.375 159.367 215.344 156.467 215.719 153.9C216.688 147.367 214.219 141.167 213.25 134.833C211.5 123.067 216.313 110.467 225.25 103.4C229.594 99.9334 236.75 96.2334 235.062 89.1334C234.906 88.5 234 88.7667 234.156 89.4C235.75 96.1667 228.375 99.6 224.344 102.867C220.719 105.833 217.781 109.667 215.688 113.967C213.625 118.133 212.375 122.767 212.031 127.467C211.625 133.167 213.031 138.467 214.188 143.967C214.875 147.3 215.313 150.8 214.719 154.2C214.438 155.767 213.938 157.3 213.156 158.667C212.281 160.133 210.188 162.4 208.438 160.9C208 160.467 207.313 161.167 207.781 161.567Z" fill="#E8E8E8"/>
<path d="M234.719 88.7334C231.187 88.9001 228.094 85.9667 228.281 82.1001C228.469 78.0667 232.937 74.3334 236.719 75.4001C240.094 76.3667 242.687 80.3334 241.844 84.0334C241 87.7334 237.094 88.5334 234.094 89.0667C233.5 89.1667 233.75 90.1334 234.344 90.0334C238.219 89.3667 242.719 87.9001 242.969 82.9001C243.156 78.8334 239.75 74.4334 235.844 74.2667C231.719 74.0667 227.562 77.6667 227.344 82.1334C227.156 86.5334 230.687 89.9334 234.719 89.7667C235.312 89.7001 235.312 88.7001 234.719 88.7334Z" fill="#E8E8E8"/>
<path d="M230.094 86.1334C231.594 82.1001 239.594 81.4334 240.531 86.2334C240.656 86.8667 241.562 86.6001 241.437 85.9667C240.281 80.1001 231 80.9668 229.187 85.8667C228.969 86.4667 229.875 86.7001 230.094 86.1334Z" fill="#E8E8E8"/>
<path d="M234.781 81.6334C234.125 81.1334 233.875 80.1667 234.312 79.4334C234.812 78.5334 235.875 78.4334 236.688 78.9C237.313 79.2667 237.437 80.1 237.062 80.7334C236.594 81.5 235.594 81.6 234.812 81.4C234.219 81.2667 233.969 82.2334 234.562 82.3667C235.812 82.6667 237.313 82.3667 237.938 81.0667C238.5 79.9 238.094 78.5 236.969 77.9334C235.719 77.3334 234.219 77.6 233.5 78.9C232.781 80.1334 233.25 81.6667 234.312 82.4667C234.812 82.9001 235.281 82.0334 234.781 81.6334Z" fill="#E8E8E8"/>
<path d="M248.031 71.3666C251.312 62.1 260.75 57.3667 269.531 56.7333C275.344 56.3 281.156 57.2667 286.844 58.4333C292.219 59.5667 297.812 61.3667 303.312 61.1667C307.844 61 312.5 59 314.625 54.5C314.906 53.9333 314.094 53.4333 313.812 54C311.344 59.2 305.656 60.5333 300.625 60.1C294.75 59.6 288.969 57.7333 283.187 56.7C273.812 55.0333 263.812 54.8 255.469 60.4333C251.687 63 248.687 66.6 247.094 71.1C246.906 71.7 247.812 71.9666 248.031 71.3666Z" fill="#E8E8E8"/>
<path d="M318.406 53.9333C326.656 53.9333 334.937 53.9333 343.187 53.9333C343.781 53.9333 343.781 52.9333 343.187 52.9333C334.937 52.9333 326.656 52.9333 318.406 52.9333C317.781 52.9333 317.781 53.9333 318.406 53.9333Z" fill="#E8E8E8"/>
<path d="M318.062 52.8667C316.594 51.3334 318.187 48.7334 319.344 47.5667C320.75 46.1 322.687 45.5334 324.562 46.3334C324.719 46.4 325.031 46.3 325.094 46.1C326.219 43.3 328.875 41.2667 331.781 41.4C334.812 41.5334 337.375 43.9667 338.125 47.0334C338.187 47.3334 338.562 47.5 338.812 47.3334C340.187 46.4334 341.594 47.5 342.156 48.8667C342.656 50.1334 342.531 51.5667 342.406 52.9334C342.344 53.5667 343.281 53.5667 343.344 52.9334C343.531 50.9334 343.656 48.5667 342.156 47.0334C341.094 45.9667 339.625 45.6334 338.375 46.4667C338.594 46.5667 338.844 46.6667 339.062 46.7667C338.219 43.4334 335.531 40.7667 332.25 40.4334C328.875 40.0667 325.625 42.3 324.312 45.6C324.5 45.5334 324.656 45.4334 324.844 45.3667C322.344 44.3 319.719 45.4334 318.094 47.6334C316.875 49.2667 315.812 51.9 317.469 53.6C317.844 54.0334 318.5 53.3334 318.062 52.8667Z" fill="#E8E8E8"/>
<path d="M335.844 57.7667C339.688 57.3001 341.938 61.6001 342.531 65.0667C343.156 68.6334 342.563 72.2001 342.219 75.7667C341.688 81.1334 342.031 87.6001 346.813 90.7334C347.313 91.0667 347.813 90.2001 347.281 89.8667C340.75 85.6001 343.469 76.1001 343.719 69.5667C343.906 64.6001 342.063 56.0334 335.844 56.7667C335.25 56.8334 335.25 57.8334 335.844 57.7667Z" fill="#E8E8E8"/>
<path d="M352 85.1C349.188 92.6667 346.406 100.233 343.594 107.767C343.375 108.367 344.281 108.633 344.5 108.033C347.313 100.467 350.094 92.9 352.906 85.3667C353.125 84.7667 352.219 84.5333 352 85.1Z" fill="#E8E8E8"/>
<path d="M352.438 85.7334C357.313 85.4667 362.156 85.6 367 86.2C366.844 86 366.688 85.7667 366.563 85.5667C364.25 93.4667 362.375 101.467 360.875 109.567C360.75 110.2 361.656 110.467 361.781 109.833C363.281 101.733 365.188 93.7334 367.469 85.8334C367.563 85.5 367.313 85.2334 367.031 85.2C362.188 84.6 357.344 84.4667 352.469 84.7334C351.844 84.7667 351.844 85.7667 352.438 85.7334Z" fill="#E8E8E8"/>
<path d="M343.813 108.733C346.688 108.867 349.531 109.033 352.406 109.233C355.188 109.4 358.156 109.333 360.781 110.467C361.344 110.7 361.594 109.733 361.031 109.5C358.531 108.4 355.688 108.467 353.031 108.3C349.969 108.1 346.906 107.933 343.813 107.767C343.219 107.7 343.219 108.7 343.813 108.733Z" fill="#E8E8E8"/>
<path d="M352.875 89.0667C355.875 89.1333 358.875 89.3667 361.844 89.8C362.438 89.9 362.688 88.9333 362.094 88.8333C359.031 88.3667 355.969 88.1 352.875 88.0333C352.25 88.0333 352.25 89.0333 352.875 89.0667Z" fill="#E8E8E8"/>
<path d="M351.969 91.3334C353.656 91.2667 355.344 91.3 357.031 91.4667C357.625 91.5334 357.625 90.5334 357.031 90.4667C355.344 90.3 353.656 90.2334 351.969 90.3334C351.375 90.3667 351.375 91.3667 351.969 91.3334Z" fill="#E8E8E8"/>
<path d="M349.906 95.8334C353.5 95.6001 356.906 95.2667 360.438 96.2001C361.031 96.3667 361.281 95.4001 360.687 95.2334C357.062 94.3001 353.594 94.6001 349.906 94.8334C349.281 94.8667 349.281 95.8667 349.906 95.8334Z" fill="#E8E8E8"/>
<path d="M350.062 98.7667C352.125 98.6001 354.188 98.6001 356.25 98.8001C356.844 98.8667 356.844 97.8667 356.25 97.8001C354.188 97.6001 352.125 97.6001 350.062 97.7667C349.469 97.8334 349.437 98.8334 350.062 98.7667Z" fill="#E8E8E8"/>
<path d="M348.438 102.633C351.25 102.433 354 102.533 356.781 102.933C357.375 103.033 357.375 102.033 356.781 101.933C354 101.533 351.219 101.433 348.438 101.633C347.844 101.667 347.844 102.667 348.438 102.633Z" fill="#E8E8E8"/>
<path d="M192.938 57.9001C194.188 59.7001 196 60.4334 197.844 61.3334C200.031 62.4001 202.031 63.8334 203.656 65.7334C207.344 69.9668 208.563 75.6668 208.656 81.3001C208.875 91.8667 205.531 102.933 210.031 112.933C210.281 113.5 211.094 113 210.844 112.433C206.125 101.9 210.313 90.1001 209.5 79.0334C209.156 74.2334 207.875 69.5334 204.969 65.8001C203.594 64.0334 201.906 62.5001 200.031 61.3668C197.938 60.1001 195.219 59.5334 193.75 57.4001C193.406 56.9001 192.594 57.4001 192.938 57.9001Z" fill="#E8E8E8"/>
<path d="M182.25 43.7999C181.437 42.6999 181.5 41.9333 182.437 41.5C182.844 41.2666 183.25 41.1 183.719 41C184.312 40.8666 184.969 40.8333 185.594 40.8666C187.469 40.9666 189.375 41.5 189.281 43.9333C189.187 46.8 188.687 49.6333 188.031 52.4C187.344 55.2333 186.5 58 185.594 60.7666C185.406 61.3666 185.25 62.0666 184.969 62.6333C184.406 63.6666 183.531 63.6333 182.594 63.6333C181.437 63.6333 179.969 63.8 178.844 63.4666C177.594 63.1 177.312 61.7666 178.531 60.9C179.094 60.5 179.875 60.4333 180.531 60.4333C181.375 60.4333 182.125 60.6333 182.844 60.0333C184.219 58.9 184.437 55.8333 184.75 54.2C185.219 51.8333 186 48.9333 185.844 46.5333C185.719 44.7 184.031 44.6333 182.812 43.8666C182.281 43.5333 181.812 44.4 182.344 44.7333C183.312 45.3333 184.719 45.4 184.906 46.7666C185.125 48.3666 184.5 50.5333 184.219 52.1333C183.937 53.6666 183.625 55.2 183.25 56.7C182.969 57.8333 182.844 59.2 181.437 59.5C180.875 59.6333 180.187 59.4333 179.594 59.5333C178.094 59.7666 176.625 60.9 176.844 62.7C177.125 64.9666 179.656 64.5666 181.219 64.6333C183.156 64.7 185.094 65 185.969 62.8C187.062 60.0666 187.844 57.0666 188.594 54.2333C189.375 51.3 189.969 48.2666 190.187 45.2333C190.375 42.8666 190.469 40.9666 188 40.3333C185.844 39.7666 182.875 39.5 181.187 41.3666C180.062 42.6 180.344 45.0333 182.281 44.8666C182.844 44.7333 182.844 43.7333 182.25 43.7999Z" fill="#E8E8E8"/>
<path d="M178.469 47.3667C178.438 47.3334 178.406 47.3 178.375 47.2667C178.25 47.1334 178.063 47.1 177.906 47.1334C177 47.4667 176.656 49.0334 176.406 49.9C175.969 51.5 175.875 53.1334 176.094 54.8C176.156 55.4334 177.094 55.4334 177.031 54.8C176.906 53.6334 176.875 52.5 177.063 51.3334C177.156 50.7334 178.125 48.4 177.781 48.0667C178.219 48.5334 178.875 47.8334 178.469 47.3667Z" fill="#E8E8E8"/>
<path d="M175.313 43.7001C172.438 47.6001 170.594 52.3001 171.813 57.3001C171.969 57.9334 172.875 57.6668 172.719 57.0334C171.594 52.4334 173.344 48.0001 175.969 44.4001C176.344 43.9001 175.688 43.2001 175.313 43.7001Z" fill="#E8E8E8"/>
<path d="M171.375 39.2C166.594 45.9 164.344 54.3667 165.156 62.7667C165.219 63.4 166.156 63.4 166.094 62.7667C165.313 54.5334 167.469 46.3 172.188 39.7C172.531 39.2 171.719 38.7 171.375 39.2Z" fill="#E8E8E8"/>
<path d="M164.719 73.2666C162.312 74.4999 160.062 76.1999 158.281 78.3333C156.469 80.5333 155.906 82.8999 155.625 85.7666C155 92.3333 152.719 99.5333 146.531 102.3C145.969 102.533 146.219 103.5 146.781 103.267C151.719 101.067 154.594 96.0666 155.812 90.6666C156.531 87.4333 156.187 83.5999 157.781 80.6999C159.406 77.7333 162.344 75.5666 165.187 74.0999C165.75 73.8666 165.281 72.9999 164.719 73.2666Z" fill="#E8E8E8"/>
<path d="M133.312 120C131.25 120.067 128.906 119.133 128.156 116.867C127.281 114.2 129.156 111.6 131.156 110.233C135.031 107.567 140.25 106.533 144.75 106.467C147.031 106.433 149.625 106.467 151.625 107.767C154.188 109.433 154.625 112.567 152.625 114.933C149.594 118.533 144.375 118.9 140.187 119.233C139.594 119.267 139.594 120.267 140.187 120.233C144.375 119.9 149.062 119.5 152.438 116.5C155.531 113.767 155.75 109.233 152.125 106.867C148.375 104.433 142.656 105.233 138.594 106.167C134.687 107.067 129.344 108.7 127.594 113C125.781 117.4 129.25 121.067 133.375 120.933C133.937 120.967 133.937 119.967 133.312 120Z" fill="#E8E8E8"/>
<path d="M133.156 120.4C132.375 121.733 131.625 123.067 130.844 124.367C130.594 124.8 131.094 125.267 131.5 125.067C133.406 123.967 135.469 123.267 137.406 122.3C138.469 121.8 139.5 121.2 140.5 120.533C140.844 120.3 141.25 120.167 141.344 119.7C141.406 119.467 141.281 119.133 141.031 119.1C141 119.1 140.969 119.1 140.938 119.067C140.719 119.033 140.406 119.133 140.375 119.4C140.375 119.433 140.375 119.433 140.375 119.467C140.25 120.1 141.156 120.367 141.281 119.733C141.281 119.7 141.281 119.7 141.281 119.667C141.094 119.767 140.906 119.9 140.719 120C140.75 120 140.781 120 140.813 120.033C140.719 119.833 140.594 119.633 140.5 119.433C140.406 119.767 138.656 120.533 138.281 120.767C137.344 121.3 136.375 121.733 135.375 122.167C133.906 122.8 132.469 123.4 131.094 124.2C131.313 124.433 131.531 124.667 131.75 124.9C132.531 123.567 133.281 122.233 134.063 120.933C134.281 120.367 133.469 119.867 133.156 120.4Z" fill="#E8E8E8"/>
<path d="M134.187 114.633C134.156 114.567 134.156 114.433 134.25 114.433C134.5 114.433 134.219 114.767 134.187 114.8C134.031 114.9 133.5 115.033 133.531 114.7C133.562 114.3 134.281 113.867 134.406 114.467C134.437 114.633 134.312 114.833 134.156 114.867C134.062 114.9 134 114.9 133.937 114.833C133.906 114.8 133.844 114.767 133.906 114.767C134.5 114.8 134.5 113.8 133.906 113.767C133.281 113.7 132.812 114.4 132.969 115.033C133.125 115.667 133.812 116 134.375 115.833C134.937 115.667 135.375 115.133 135.375 114.5C135.375 113.867 134.906 113.333 134.375 113.2C133.219 112.9 132 114.7 133 115.6C133.812 116.333 135.437 115.667 135.344 114.433C135.281 113.767 134.594 113.233 133.969 113.467C133.344 113.7 133.094 114.533 133.406 115.133C133.656 115.7 134.469 115.2 134.187 114.633Z" fill="#E8E8E8"/>
<path d="M141.094 113.733C141.062 113.533 140.969 113.267 141.156 113.1C141.25 113 141.406 113 141.531 113C141.844 113.067 141.781 113.433 141.562 113.6C141.437 113.7 141.312 113.7 141.219 113.567C141.125 113.433 141.156 113.4 141.25 113.333C141.312 113.3 141.125 113.333 141.281 113.3C141.656 113.233 141.031 113.7 141.125 113.367C140.937 114 141.844 114.233 142.031 113.633C142.187 113.033 141.656 112.433 141.094 112.533C140.437 112.667 140.281 113.5 140.687 114C141.062 114.467 141.75 114.367 142.031 113.833C142.312 113.3 142.125 112.6 141.562 112.4C141 112.2 140.375 112.567 140.25 113.167C140.094 113.833 140.531 114.5 141.156 114.667C142.281 114.933 143.219 113.3 142.406 112.4C142 111.967 141.344 111.933 140.844 112.167C140.156 112.533 140.125 113.3 140.25 114C140.281 114.633 141.187 114.367 141.094 113.733Z" fill="#E8E8E8"/>
<path d="M148.031 111.5C148.156 111.5 148.281 111.533 148.437 111.533V111.5C148.469 111.467 148.469 111.4 148.5 111.367C148.531 111.3 148.625 111.233 148.687 111.2C148.844 111.133 149 111.133 149.094 111.3C149.219 111.567 149 112.067 148.687 111.867C148.5 111.733 148.469 111.4 148.75 111.467C148.812 111.467 148.844 111.5 148.875 111.533C148.875 111.533 148.875 111.6 148.875 111.533C148.875 111.467 148.875 111.567 148.844 111.567C148.75 111.633 148.719 111.7 148.625 111.633C148.406 111.467 148.094 111.6 147.969 111.8C147.844 112.067 147.937 112.333 148.125 112.5C149.031 113.2 150.25 111.8 149.531 110.867C148.875 110.033 147.469 110.567 147.531 111.667C147.563 112.233 147.969 112.733 148.469 112.867C148.969 113 149.5 112.733 149.781 112.267C150.406 111.233 149.531 109.8 148.375 110.2C147.844 110.4 147.375 110.967 147.437 111.6C147.5 112.3 148.437 112.667 148.781 111.967C149.094 111.433 148.312 110.933 148.031 111.5Z" fill="#E8E8E8"/>
<path d="M166.906 82.4334C170.75 80.1667 174.094 77.1667 176.875 73.5334C177.25 73.0334 176.594 72.3334 176.219 72.8334C173.5 76.4001 170.219 79.3334 166.437 81.5667C165.906 81.8667 166.375 82.7334 166.906 82.4334Z" fill="#E8E8E8"/>
<path d="M213.656 83.3C212.969 87.5 212.687 91.7333 212.875 96C212.906 96.6333 213.844 96.6333 213.813 96C213.625 91.8333 213.875 87.6667 214.563 83.5667C214.656 82.9333 213.75 82.6667 213.656 83.3Z" fill="#E8E8E8"/>
<path d="M208.875 180.733C208.875 175.633 211.125 170.8 214.969 167.733C215.437 167.367 214.969 166.5 214.5 166.867C210.375 170.133 207.969 175.233 207.969 180.733C207.938 181.367 208.875 181.367 208.875 180.733Z" fill="#E8E8E8"/>
<path d="M261.219 315.333C261.719 320.133 262.5 325.4 263.75 331.1C265.437 338.8 267.594 345.533 269.75 351.2C269.156 351.767 267.375 353.267 264.75 353.467C263.094 353.6 261.781 353.167 261.031 352.867C259.906 348.7 258.812 344.367 257.812 339.867C255.75 330.6 254.25 321.767 253.156 313.533C255.875 314.133 258.563 314.733 261.219 315.333Z" fill="#191919"/>
<path d="M331.375 312.2C330.969 316.967 330.281 322.267 329.125 327.967C327.5 336.033 325.344 343.033 323.156 348.933C323.469 349.233 325.25 351.033 328 350.9C330.375 350.8 331.906 349.3 332.281 348.933C333 344.9 333.688 340.833 334.375 336.767C335.875 327.867 337.219 319.1 338.5 310.433C336.125 311 333.75 311.6 331.375 312.2Z" fill="#191919"/>
<path d="M275.5 298.9C276.219 304 277.063 309.267 278.031 314.667C279.438 322.5 281.031 329.967 282.719 337.033C282 337.5 280.563 338.267 278.594 338.4C276.938 338.5 275.625 338.1 274.875 337.8C273.938 333.067 273.031 328.267 272.125 323.467C270.469 314.567 268.938 305.8 267.469 297.133C270.156 297.7 272.813 298.3 275.5 298.9Z" fill="#191919"/>
<path d="M319.594 297.9C318.75 302.933 318 308.2 317.344 313.667C316.438 321.2 315.813 328.4 315.438 335.267C315.969 335.633 317.219 336.4 319 336.5C320.906 336.567 322.313 335.767 322.844 335.433C322.531 331.5 322.406 327.133 322.594 322.467C322.969 312.1 324.75 303.167 326.719 296.133C324.344 296.7 321.969 297.3 319.594 297.9Z" fill="#191919"/>
<path d="M375.125 186.367C380.594 196.767 376.375 208.267 366.125 236.833C361.188 250.567 352.156 275.8 339.406 311.767C326.875 316.633 306.125 322.633 280.469 320.733C265.563 319.633 253.063 316.2 243.594 312.667C242.188 309.967 237.313 299.867 240.969 290.067C243 284.633 247.094 280.733 255.781 276.133C264.344 271.6 279.438 265.233 301.375 264.067C292.781 218.433 307.5 181.033 330.406 172.4C345.438 166.767 367.594 172.067 375.125 186.367Z" fill="#BAD0E5" stroke="#191919" stroke-width="2" stroke-miterlimit="10"/>
<path d="M373.125 190.133C364.063 202.367 362 218.8 358.531 233.5C354.813 249.233 350.531 264.933 344.125 279.7C340.594 287.8 336.438 295.6 331.469 302.8C331.125 303.333 331.938 303.833 332.281 303.3C341 290.633 347.156 276.267 351.906 261.467C356.719 246.4 359.906 230.867 363.656 215.5C365.781 206.767 368.5 198.033 373.812 190.867C374.156 190.333 373.5 189.633 373.125 190.133Z" fill="#191919"/>
<path d="M243.781 305.433C264.625 313.6 287.344 316 309.281 312.367C315.563 311.333 321.781 309.8 327.875 307.8C328.438 307.6 328.219 306.633 327.625 306.833C306.375 313.833 283.563 314.9 261.813 309.967C255.781 308.6 249.813 306.733 244.031 304.467C243.469 304.233 243.219 305.2 243.781 305.433Z" fill="#191919"/>
<path d="M317.156 279.233C322.406 281.067 326.875 284.767 329.875 289.767C330.188 290.3 331 289.8 330.688 289.267C327.563 284.067 322.906 280.2 317.406 278.267C316.813 278.067 316.563 279.033 317.156 279.233Z" fill="#191919"/>
<path d="M223.156 322.4C225.656 326.4 228.156 330.433 230.625 334.433C214.625 349.767 212.562 354.133 213.75 355.2C216.125 357.3 233.156 347.967 234.906 347C241.25 343.533 246.031 340.167 249.219 337.767C248.094 334.5 246.594 330.833 244.531 326.967C241.812 321.867 238.812 317.567 235.969 314.067C231.687 316.8 227.406 319.6 223.156 322.4Z" fill="#191919"/>
<path d="M316.656 243.833C317.781 246.433 318.969 250.133 319.156 254.6C319.437 261.333 317.375 266.7 315.812 269.8C314.969 270.967 313.469 272.9 311.25 275C311.25 275 306.219 279.733 298.219 283.367C290.062 287.1 266.344 291.6 234.125 292.467C235.062 296.733 236.75 301.967 239.75 307.6C241.406 310.7 243.219 313.433 245 315.8C243.812 317.467 240.437 321.7 233.719 324.367C227.25 326.933 221.312 326.633 218.969 326.433C215.594 323.133 212.125 319.2 208.906 314.5C199.438 300.6 197.219 287.167 196.812 278.533C199.156 276.733 202.594 274.267 207.094 271.633C216.469 266.133 225.062 263.133 232.125 260.9C244.281 257.1 255.906 254.467 282.656 249.633C291.031 248.133 302.625 246.067 316.656 243.833Z" fill="#12335E" stroke="#12335E" stroke-width="2" stroke-miterlimit="10"/>
<path opacity="0.19" d="M246.031 276.783L246.031 276.783C252.427 275.13 257.268 274.513 261.322 273.997C262.148 273.892 262.941 273.791 263.708 273.686C268.245 273.067 271.881 272.313 275.834 269.752C283.803 264.599 286.453 256.366 287.412 249.989L315.47 244.53C316.973 247.632 318.671 252.373 318.376 258.14L318.376 258.141C318.252 260.622 318.005 264.982 315.044 269.77C314.074 271.321 311.313 275.422 304.367 279.604L304.367 279.604C296.056 284.614 287.334 286.371 274.619 288.137C264.069 289.602 250.178 291.134 233.634 291.866L233.035 291.893L233.169 292.478C234.177 296.881 235.942 302.327 239.22 308.176C240.886 311.181 242.696 313.811 244.454 316.096C243.616 317.392 241.691 319.852 238.026 321.405C236.567 322.015 235.188 322.338 234.067 322.508C227.103 317.432 221.657 311.834 218.47 306.437C215.253 300.99 214.382 295.836 216.419 291.617C218.382 287.574 222.935 284.576 228.496 282.222C234.037 279.877 240.461 278.219 246.031 276.783Z" fill="#12335E" fill-opacity="0.9" stroke="black"/>
<path opacity="0.19" d="M316.062 244.667C315.437 250.867 313.219 260.667 304.375 268.4C298.937 273.167 293.094 275.3 270.156 281.9C260.031 284.8 247.781 288.233 233.844 291.967C251.562 291.767 265.969 290.2 276.312 288.7C287.031 287.133 292.281 285.767 297.719 283.267C302.875 280.9 313.281 276.1 317.531 266C321.625 256.2 317.5 247.4 316.062 244.667Z" fill="#12335E"/>
<path opacity="0.22" d="M233.937 292.467C233.812 296.867 234 301.9 234.781 307.433C235.531 312.9 236.75 317.8 238.062 322.067C239.125 321.4 240.344 320.5 241.531 319.4C242.969 318.067 244.031 316.8 244.812 315.7C243 313.167 241.156 310.233 239.437 306.933C236.656 301.6 235 296.667 233.937 292.467Z" fill="#12335E"/>
<path d="M232.5 341.533C234.906 346.567 237.281 351.6 239.688 356.667C224.313 375.933 222.313 381.4 223.469 382.733C225.75 385.4 242.125 373.633 243.812 372.433C249.906 368.067 254.531 363.833 257.594 360.833C256.5 356.733 255.062 352.133 253.062 347.233C250.469 340.833 247.562 335.433 244.844 331C240.719 334.533 236.594 338.033 232.5 341.533Z" fill="#191919"/>
<path d="M322.375 242.8C323.469 246.1 324.594 250.7 324.781 256.333C325.062 264.8 323.062 271.533 321.562 275.433C320.75 276.9 319.312 279.333 317.187 282C317.187 282 312.375 287.967 304.687 292.533C296.844 297.2 274.031 302.9 243.094 303.967C244 309.333 245.594 315.9 248.5 322.967C250.094 326.867 251.844 330.3 253.562 333.267C252.437 335.367 249.187 340.667 242.719 344.033C236.5 347.267 230.812 346.9 228.531 346.6C225.281 342.467 221.937 337.5 218.875 331.6C209.75 314.133 207.625 297.233 207.25 286.4C209.5 284.167 212.812 281.033 217.125 277.733C226.156 270.833 234.375 267.033 241.187 264.233C252.844 259.467 264.062 256.167 289.781 250.067C297.719 248.167 308.906 245.6 322.375 242.8Z" fill="#12335E" stroke="#12335E" stroke-width="2" stroke-miterlimit="10"/>
<path d="M293.844 250C292.969 258 290.5 268.367 282.875 274.834C275.469 281.134 269.219 278.567 254.375 283.6C243.687 287.2 229.531 292 225.594 302.6C221.469 313.734 229.25 329.467 242.844 342.334C244 342.134 245.437 341.7 246.969 340.867C250.906 338.7 252.812 335.134 253.531 333.567C251.781 330.634 249.969 327.234 248.312 323.334C245.187 316.034 243.5 309.267 242.562 303.767C258.5 302.834 271.844 300.934 282.031 299.1C294.281 296.9 302.719 294.667 310.812 288.3C317.562 282.967 320.281 277.734 321.219 275.734C324.125 269.567 324.375 263.967 324.5 260.834C324.781 253.167 323 246.934 321.5 243C312.281 245.3 303.062 247.634 293.844 250Z" fill="#12335E"/>
<path opacity="0.19" d="M321.781 243.833C321.187 251.6 319.062 263.933 310.562 273.667C305.312 279.667 299.719 282.333 277.687 290.633C267.937 294.3 256.188 298.6 242.781 303.3C259.812 303.033 273.687 301.1 283.625 299.2C293.937 297.233 299 295.533 304.188 292.4C309.156 289.4 319.125 283.4 323.25 270.667C327.156 258.333 323.187 247.3 321.781 243.833Z" fill="#12335E"/>
<path opacity="0.22" d="M242.875 303.933C242.75 309.467 242.937 315.8 243.687 322.733C244.437 329.633 245.562 335.767 246.844 341.1C247.875 340.233 249.031 339.133 250.187 337.733C251.563 336.067 252.594 334.467 253.344 333.1C251.594 329.9 249.813 326.233 248.187 322.067C245.5 315.4 243.875 309.167 242.875 303.933Z" fill="#12335E"/>
<path d="M230.719 191C230.125 190.7 228.937 190.133 228.969 189.5C229.031 188.467 232.25 187.767 234.656 187.8C236.281 187.8 239.281 188.167 242.781 190.767C239.5 191.867 234.656 192.867 230.719 191Z" fill="white" stroke="#191919" stroke-width="2" stroke-miterlimit="10"/>
<path d="M305.875 147.767C299.938 146.933 294.594 156.433 294.094 157.3C292.281 160.6 292.063 162.8 290.813 168.833C287.781 183.533 286.156 191 281.656 195.5C277.594 199.533 272.844 200.5 271.594 200.7C266.25 201.6 261.406 199.467 251.969 195.167C244 191.533 243.031 190.2 238.688 189.667C236.469 189.4 230 188.633 225.719 193.067C222.969 195.9 221.75 200.433 222.75 201.367C224.031 202.567 229.281 198.333 229.344 198.433C229.375 198.5 227.781 199.3 226.469 201.033C225.813 201.867 224.688 203.667 225.094 204.133C225.813 205.067 230.219 199.4 235.063 200.4C238.375 201.067 239 204.267 242.844 204.867C245.094 205.233 247.063 204.5 248.313 203.867C250.5 206.4 254.063 210 259.219 212.933C262.281 214.667 273.094 220.633 286.313 217.167C300.344 213.5 307.406 201.8 309.625 198.133C310.875 196.033 320.063 180.367 315.625 162.8C314.844 159.967 312 148.633 305.875 147.767Z" fill="white" stroke="#191919" stroke-width="2" stroke-miterlimit="10"/>
<path opacity="0.25" d="M305.25 147.866C303.219 149 307.156 156.866 306.656 168.133C306.188 178.966 301.844 186.966 299.906 190.633C297.281 195.533 293.813 201.933 286.906 206.1C277.625 211.7 266.125 210.866 257.938 207.066C255.5 205.933 253.031 202.266 247.656 200.033C245.313 199.066 243.469 198.666 241.313 198.2C236.031 197.1 231.344 196.1 227 198.433C224.938 199.566 223.219 201.3 223.344 201.533C223.469 201.766 225.875 200.466 228 199.233C225.438 202.866 225.031 203.9 225.219 204.1C225.438 204.3 226.219 203.533 228.219 202.333C230.375 201.066 231.938 200.166 233.844 200.333C234.813 200.433 235.563 200.766 236 200.966C237.719 201.766 238.125 202.7 239.844 203.633C240.906 204.2 241.781 204.433 242.25 204.533C243.25 204.766 245.313 205.066 248.031 204.033C250.406 206.7 261.313 218.5 277.281 218.266C285.5 218.133 291.531 214.866 293.906 213.566C306.938 206.333 312.125 193.5 313.438 189.966C317.5 179.033 318.938 162.833 311.5 152.666C309.719 150.2 306.656 147.1 305.25 147.866Z" fill="#6C6D6D"/>
<path d="M223.313 201.367C224.532 199.433 226.126 197.9 228.032 196.8C228.438 196.567 228.063 195.933 227.688 196.167C225.688 197.333 224.001 198.967 222.72 201C222.438 201.4 223.063 201.767 223.313 201.367Z" fill="#191919"/>
<path d="M223.688 197.067C224.906 195.033 226.875 193.967 228.844 192.933C229.25 192.733 228.906 192.067 228.5 192.3C226.406 193.367 224.344 194.533 223.063 196.7C222.844 197.1 223.438 197.467 223.688 197.067Z" fill="#191919"/>
<path opacity="0.29" d="M314.219 159.867C313.75 163.233 312.906 168.1 311.406 173.833C308.469 185.167 305.813 195.367 298.875 203.467C290.281 213.467 278.625 216.2 271.938 217.033C276.906 218.267 280.813 218.033 283.281 217.667C302.031 214.867 312.156 193.367 314.906 183.967C315.375 182.3 316.375 178.867 316.5 174.167C316.719 167.9 315.281 162.867 314.219 159.867Z" fill="#6C6D6D"/>
<path opacity="0.26" d="M235.688 200C237.469 200.933 239.906 201.967 242.906 202.567C245.281 203.033 247.406 203.133 249.094 203.067C244.812 205.5 242.594 205.2 241.344 204.4C240.562 203.9 239.687 202.9 237.281 201.133C236.625 200.633 236.062 200.233 235.688 200Z" fill="#6C6D6D"/>
<path d="M172.5 254.8C172.5 270.8 172.5 286.833 172.5 302.833C172.5 304.767 175.312 304.767 175.312 302.833C175.312 286.833 175.312 270.8 175.312 254.8C175.312 252.9 172.5 252.866 172.5 254.8Z" fill="#161616"/>
<path d="M223.625 254.167C223.625 256.733 223.625 259.3 223.625 261.866C223.625 263.8 226.438 263.8 226.438 261.866C226.438 259.3 226.438 256.733 226.438 254.167C226.438 252.233 223.625 252.233 223.625 254.167Z" fill="#161616"/>
<path d="M133.688 252.833C148.844 237.6 164 222.333 179.187 207.1C203.719 207.567 228.219 208.033 252.75 208.5C248.75 223.3 244.75 238.067 240.75 252.867C205.062 252.833 169.375 252.833 133.688 252.833Z" fill="#D6E5F2" stroke="#191919" stroke-width="2" stroke-miterlimit="10"/>
<path d="M134.594 254.567C162 254.567 189.375 254.567 216.781 254.567C224.469 254.567 232.125 254.567 239.813 254.567C241.625 254.567 241.625 251.567 239.813 251.567C212.406 251.567 185.031 251.567 157.625 251.567C149.937 251.567 142.281 251.567 134.594 251.567C132.781 251.567 132.781 254.567 134.594 254.567Z" fill="#161616"/>
<path d="M142.625 254.067C142.625 287.233 142.625 320.4 142.625 353.533C142.625 362.833 142.625 372.1 142.625 381.4C142.625 383.333 145.437 383.333 145.437 381.4C145.437 348.233 145.437 315.067 145.437 281.933C145.437 272.633 145.437 263.367 145.437 254.067C145.437 252.133 142.625 252.133 142.625 254.067Z" fill="#161616"/>
<path d="M228.344 254.067C228.344 287.233 228.344 320.4 228.344 353.533C228.344 362.833 228.344 372.1 228.344 381.4C228.344 383.333 231.156 383.333 231.156 381.4C231.156 348.233 231.156 315.067 231.156 281.933C231.156 272.633 231.156 263.367 231.156 254.067C231.156 252.133 228.344 252.133 228.344 254.067Z" fill="#161616"/>
<path d="M144.031 315.966C166.094 315.966 188.156 315.966 210.219 315.966C216.469 315.966 222.719 315.966 228.969 315.966C230.781 315.966 230.781 312.967 228.969 312.967C206.906 312.967 184.844 312.967 162.781 312.967C156.531 312.967 150.281 312.967 144.031 312.967C142.219 312.967 142.219 315.966 144.031 315.966Z" fill="#161616"/>
<path d="M252.375 208.5C248.812 223.333 244.719 238.033 240.031 252.5C239.625 253.733 241.437 254.233 241.844 253.033C246.531 238.533 250.625 223.866 254.187 209.033C254.469 207.8 252.687 207.266 252.375 208.5Z" fill="#161616"/>
<path d="M102.75 384.667C119.344 384.667 135.906 384.667 152.5 384.667C154.312 384.667 154.312 381.667 152.5 381.667C135.906 381.667 119.344 381.667 102.75 381.667C100.938 381.667 100.938 384.667 102.75 384.667Z" fill="#161616"/>
<path d="M159.469 384C163.281 384 167.125 384 170.938 384C172.75 384 172.75 381 170.938 381C167.125 381 163.281 381 159.469 381C157.656 381 157.656 384 159.469 384Z" fill="#161616"/>
<path d="M209.219 384.433C224.156 384.433 239.094 384.433 254.063 384.433C255.875 384.433 255.875 381.433 254.063 381.433C239.125 381.433 224.188 381.433 209.219 381.433C207.406 381.433 207.406 384.433 209.219 384.433Z" fill="#161616"/>
<path d="M264.281 383.366C266.938 383.366 269.594 383.366 272.281 383.366C274.094 383.366 274.094 380.366 272.281 380.366C269.625 380.366 266.969 380.366 264.281 380.366C262.469 380.366 262.469 383.366 264.281 383.366Z" fill="#161616"/>
<path d="M87.6875 374.1C94.1562 374.1 100.625 374.1 107.062 374.1C108.875 374.1 108.875 371.1 107.062 371.1C100.594 371.1 94.125 371.1 87.6875 371.1C85.875 371.1 85.875 374.1 87.6875 374.1Z" fill="#161616"/>
<path d="M224.375 246.533C205.094 246 185.781 245.5 166.5 244.967C177.937 233.3 189.344 221.6 200.781 209.933C213.969 210.667 227.187 211.4 240.375 212.133C235.031 223.633 229.719 235.067 224.375 246.533Z" fill="white" stroke="#191919" stroke-width="2" stroke-miterlimit="10"/>
<path d="M200.125 209.7C188.906 221.267 177.688 232.867 166.469 244.433C165.969 225.9 165.437 207.333 164.938 188.8C176.312 181.133 187.687 173.467 199.062 165.8C199.375 180.433 199.75 195.067 200.125 209.7Z" fill="white" stroke="#191919" stroke-width="2" stroke-miterlimit="10"/>
<path d="M165.969 190.567C166.875 207.067 167.469 223.6 167.781 240.133C167.781 240.467 168.25 240.467 168.25 240.133C167.938 223.6 167.344 207.067 166.438 190.567C166.406 190.267 165.938 190.267 165.969 190.567Z" fill="#191919"/>
<path d="M166.219 190.633C176.687 183.366 187.156 176.1 197.625 168.833C197.875 168.666 197.656 168.233 197.375 168.4C186.906 175.666 176.437 182.933 165.969 190.2C165.719 190.4 165.937 190.833 166.219 190.633Z" fill="#191919"/>
<path d="M197.5 168.8C197.469 182.1 197.844 195.433 198.656 208.7C198.687 209.033 199.156 209.033 199.125 208.7C198.344 195.4 197.937 182.1 197.969 168.8C197.969 168.5 197.5 168.5 197.5 168.8Z" fill="#191919"/>
<path d="M168.094 240.833C178.344 230.267 188.625 219.7 198.875 209.167C199.094 208.933 198.75 208.6 198.531 208.8C188.281 219.367 178 229.933 167.75 240.467C167.563 240.7 167.875 241.067 168.094 240.833Z" fill="#191919"/>
<path d="M215.563 235.167C217.469 231.933 219.375 228.667 221.219 225.367C221.375 225.1 220.969 224.833 220.812 225.1C218.969 228.4 217.063 231.667 215.156 234.9C214.969 235.167 215.375 235.433 215.563 235.167Z" fill="#191919"/>
<path d="M221.094 225.266C223.563 225.366 226.031 225.367 228.5 225.233C228.813 225.233 228.813 224.733 228.5 224.733C226.031 224.833 223.563 224.833 221.094 224.766C220.781 224.766 220.781 225.266 221.094 225.266Z" fill="#191919"/>
<path d="M228.187 225.1C226.781 228.367 225.344 231.633 223.906 234.9C223.781 235.2 224.187 235.433 224.312 235.167C225.75 231.9 227.187 228.633 228.594 225.367C228.719 225.033 228.312 224.8 228.187 225.1Z" fill="#191919"/>
<path d="M215.406 235.433C218.156 235.867 221.062 235.667 223.844 235.533C224.156 235.533 224.156 235.033 223.844 235.033C221.125 235.167 218.25 235.367 215.531 234.967C215.219 234.9 215.094 235.4 215.406 235.433Z" fill="#191919"/>
<path d="M225.656 225.133C224.406 228.467 222.969 231.7 221.344 234.833C221.187 235.1 221.594 235.367 221.75 235.1C223.375 231.9 224.844 228.633 226.125 225.267C226.219 224.967 225.781 224.833 225.656 225.133Z" fill="#191919"/>
<path d="M180.375 240.233C187.25 231.167 194.375 222.3 201.719 213.633C201.906 213.4 201.594 213.033 201.375 213.267C194.031 221.9 186.906 230.767 180.031 239.867C179.844 240.133 180.188 240.467 180.375 240.233Z" fill="#191919"/>
<path d="M188.687 240.8C194.844 231.633 201.344 222.767 208.156 214.167C208.344 213.933 208.031 213.567 207.812 213.8C200.969 222.433 194.469 231.333 188.281 240.533C188.094 240.8 188.5 241.067 188.687 240.8Z" fill="#191919"/>
<path d="M197.625 242.167C202.969 232.633 208.813 223.433 215.125 214.6C215.313 214.333 214.906 214.1 214.719 214.333C208.406 223.167 202.562 232.367 197.219 241.9C197.062 242.167 197.469 242.433 197.625 242.167Z" fill="#191919"/>
<path d="M205.125 243C210.375 232.567 216.594 222.733 223.719 213.667C223.906 213.433 223.594 213.067 223.375 213.3C216.219 222.4 209.969 232.267 204.687 242.733C204.562 243.033 204.969 243.3 205.125 243Z" fill="#191919"/>
<path d="M184.375 234.833C192.375 233.933 200.375 235 208.344 236.133C208.656 236.167 208.625 235.667 208.344 235.633C200.406 234.5 192.406 233.4 184.375 234.333C184.094 234.367 184.094 234.867 184.375 234.833Z" fill="#191919"/>
<path d="M188.406 229.967C195.969 229.667 203.531 230.267 210.969 231.8C211.25 231.867 211.375 231.367 211.094 231.333C203.625 229.8 196 229.2 188.406 229.5C188.125 229.467 188.125 229.967 188.406 229.967Z" fill="#191919"/>
<path d="M192.031 225.267C199.313 224.767 206.594 225.467 213.688 227.333C213.969 227.4 214.094 226.933 213.813 226.867C206.688 224.967 199.375 224.267 192.031 224.767C191.719 224.8 191.719 225.3 192.031 225.267Z" fill="#191919"/>
<path d="M195.781 220.567C202.781 220.6 209.719 221.367 216.563 222.867C216.844 222.933 216.969 222.433 216.688 222.4C209.813 220.9 202.813 220.133 195.781 220.1C195.5 220.067 195.5 220.567 195.781 220.567Z" fill="#191919"/>
<path d="M199.5 216.2C206.156 216.333 212.781 217.167 219.25 218.733C219.531 218.8 219.656 218.333 219.375 218.267C212.844 216.7 206.187 215.833 199.5 215.733C199.188 215.7 199.188 216.2 199.5 216.2Z" fill="#191919"/>
<path d="M220.937 221.267C217.875 226.067 214.844 230.867 211.781 235.667C211.625 235.933 212.031 236.2 212.187 235.933C215.25 231.133 218.281 226.333 221.344 221.533C221.531 221.233 221.125 221 220.937 221.267Z" fill="#191919"/>
<path d="M169.187 214C173.094 212.233 177.312 213.233 181.438 213.167C184.906 213.133 188.219 212.1 191.188 210.233C191.438 210.067 191.219 209.633 190.938 209.8C187.281 212.1 183.406 212.833 179.219 212.633C175.719 212.467 172.25 212.1 168.937 213.6C168.687 213.7 168.906 214.133 169.187 214Z" fill="#191919"/>
<path d="M179.719 211.933C186.406 207.9 189.5 199.4 196.469 195.833C196.75 195.7 196.5 195.267 196.219 195.4C189.219 199 186.156 207.467 179.469 211.5C179.219 211.667 179.437 212.1 179.719 211.933Z" fill="#191919"/>
<path d="M188.219 188.167C187.062 187.2 187.25 185.633 187.906 184.4C188.219 183.8 188.687 183.167 189.219 182.8C190.187 182.133 191.094 182.667 191.844 183.367C192.062 183.567 192.406 183.233 192.187 183C190.625 181.6 189.156 181.733 187.875 183.533C186.844 185 186.312 187.2 187.875 188.533C188.125 188.733 188.469 188.367 188.219 188.167Z" fill="#191919"/>
<path d="M273.125 229.863L273.125 229.863C273.062 220.943 272.635 214.846 272.296 210.001C272.213 208.816 272.135 207.706 272.069 206.648C271.735 201.275 271.705 197.238 272.834 191.463C274.082 185.174 276.377 174.151 284.851 164.123C294.339 152.932 306.132 149.427 311.292 148.246C323.125 159.14 327.295 169.638 328.984 176.257L328.985 176.259C330.401 181.726 330.555 188.309 329.768 197.373C328.98 206.437 327.257 217.936 324.943 233.225C324.081 238.81 323.34 243.423 322.811 246.584C320.491 249.349 313.46 257.005 301.905 259.243L301.904 259.243C286.575 262.239 274.97 253.476 272.545 251.508C272.825 246.689 273.186 239.147 273.125 229.863Z" fill="#EC615B" stroke="black"/>
<path opacity="0.19" d="M293.188 157.667C296.156 167.133 297.75 175.233 298.687 181.167C301.156 196.867 304.875 220.4 294.406 243.2C291.062 250.467 287.156 255.8 284.406 259.1C288.031 260 295.219 261.233 303.781 258.867C313.969 256.067 320.344 249.767 322.969 246.9C325 234.5 326.625 223.867 327.875 215.567C330.031 200.967 330.531 196.533 330.312 190.3C330.062 182.3 329.719 173.9 325.219 164.833C320.906 156.167 314.844 150.967 311.125 148.3C308.094 148.867 303.812 150.067 299.281 152.867C296.781 154.467 294.75 156.167 293.188 157.667Z" fill="#EC615B"/>
<path opacity="0.18" d="M328.687 173.567C328.125 173.6 329.312 182.833 327.469 195.567C324.062 219.133 313.125 235.467 308.906 241.267C305.375 246.1 299.844 252.767 291.75 259.333C294.656 259.8 298.531 260 302.969 259.1C313.5 257 320.187 250.1 322.75 247.133C323.406 243.067 324.469 236.7 325.812 228.833C328.969 210.433 329.594 208.233 330.094 202.5C331.469 186.867 329.344 173.567 328.687 173.567Z" fill="#EC615B"/>
<path d="M229.406 198.333C228.812 197.9 227.625 197.1 227.75 196.433C228 195.367 231.594 195.2 234.188 195.667C235.938 195.967 239.125 196.933 242.469 200.3C238.719 200.867 233.313 201.033 229.406 198.333Z" fill="white" stroke="#191919" stroke-width="2" stroke-miterlimit="10"/>
<path d="M317.625 166.4C311.344 164.433 304 173.467 303.344 174.333C300.844 177.5 300.25 179.767 297.906 185.9C292.219 200.9 289.25 208.467 283.625 212.4C278.594 215.933 273.312 216.067 271.906 216.067C266 216.033 261.125 212.9 251.625 206.633C243.625 201.333 242.813 199.733 238.188 198.4C235.844 197.733 228.969 195.733 223.625 199.633C220.219 202.1 218.125 206.7 219.063 207.867C220.25 209.367 226.625 205.833 226.656 205.967C226.688 206.033 224.813 206.6 223.125 208.2C222.281 208.967 220.781 210.633 221.125 211.233C221.75 212.367 227.438 207.167 232.5 209.1C235.938 210.4 236.125 213.9 240.156 215.267C242.531 216.067 244.781 215.633 246.219 215.2C248.156 218.3 251.438 222.733 256.5 226.767C259.531 229.167 270.219 237.433 285.062 236.2C300.812 234.9 310.375 223.8 313.344 220.367C315.062 218.4 327.531 203.5 325.625 184.1C325.344 180.933 324.125 168.467 317.625 166.4Z" fill="white" stroke="#191919" stroke-width="2" stroke-miterlimit="10"/>
<path opacity="0.25" d="M316.937 166.4C314.562 167.234 317.531 176.267 315.125 188.1C312.844 199.467 306.844 207.134 304.125 210.634C300.469 215.334 295.687 221.467 287.531 224.6C276.594 228.8 264.312 225.834 256.094 220.334C253.656 218.667 251.594 214.367 246.125 211C243.75 209.534 241.844 208.8 239.563 207.9C234.063 205.767 229.125 203.834 224.094 205.534C221.688 206.334 219.531 207.867 219.656 208.134C219.781 208.434 222.563 207.467 225.063 206.567C221.719 209.934 221.094 210.967 221.25 211.234C221.438 211.5 222.438 210.8 224.781 209.934C227.344 208.967 229.125 208.334 231.188 208.867C232.219 209.134 232.969 209.634 233.438 209.934C235.156 211.067 235.438 212.167 237.125 213.467C238.156 214.267 239.094 214.667 239.594 214.867C240.625 215.3 242.813 216 245.906 215.4C248.031 218.667 257.875 233.134 275.156 235.8C284.062 237.167 291.094 234.834 293.875 233.867C309.125 228.6 316.844 216 318.844 212.5C325.031 201.7 329.25 184.834 322.875 172.7C321.375 169.667 318.562 165.834 316.937 166.4Z" fill="#6C6D6D"/>
<path d="M219.626 207.967C221.282 206.133 223.22 204.8 225.47 204C225.907 203.833 225.72 203.133 225.282 203.267C222.938 204.133 220.845 205.533 219.126 207.433C218.813 207.8 219.313 208.333 219.626 207.967Z" fill="#191919"/>
<path d="M220.75 203.5C222.406 201.533 224.719 200.767 227.031 200.067C227.469 199.933 227.281 199.2 226.844 199.333C224.438 200.1 222 200.933 220.281 202.967C219.938 203.333 220.438 203.833 220.75 203.5Z" fill="#191919"/>
<path opacity="0.29" d="M324.656 180.733C323.594 184.2 321.875 189.2 319.344 195C314.312 206.433 309.781 216.733 300.937 224.033C290.031 233.033 276.969 233.8 269.625 233.433C274.781 235.667 279.062 236.133 281.781 236.2C302.469 236.667 316.969 215.767 321.469 206.367C322.25 204.7 323.875 201.233 324.812 196.3C326.031 189.667 325.312 184.1 324.656 180.733Z" fill="#6C6D6D"/>
<path opacity="0.26" d="M233.25 208.767C235 210.067 237.469 211.6 240.625 212.8C243.125 213.733 245.406 214.2 247.219 214.433C242.188 216.2 239.844 215.5 238.625 214.433C237.875 213.767 237.094 212.533 234.75 210.233C234.156 209.6 233.625 209.1 233.25 208.767Z" fill="#6C6D6D"/>
<path d="M269.188 99.1667C268.844 101.3 268.5 103.433 268.219 105.667C267 114.733 266.5 123.3 266.469 131.267C268.188 131.067 269.875 130.867 271.594 130.7C271.406 132.467 270.875 138.933 274.75 145.333C278.406 151.367 283.656 153.567 285.281 154.167C285.094 157.433 284.938 160.667 284.75 163.933C288.125 160.733 292.719 156.967 298.563 153.6C303.031 151.033 307.25 149.267 310.844 148.067C306.812 142.733 305.281 137.7 304.625 134.8C303.5 129.8 303.719 125.5 303.937 121.7C304.156 117.8 304.687 114.567 305.156 112.3C306.625 105.167 302.781 93.8667 295.125 89.8C287.563 85.7667 276.281 89.1667 269.188 99.1667Z" fill="white" stroke="#161616" stroke-width="2" stroke-miterlimit="10"/>
<path d="M270.875 130.933C271.75 130.8 272.656 130.7 273.531 130.6C273.844 130.567 273.844 130.067 273.531 130.1C272.594 130.2 271.687 130.333 270.75 130.467C270.469 130.467 270.594 130.967 270.875 130.933Z" fill="#161616"/>
<path d="M299.062 104.333C295.281 105.367 294.594 108.867 289.812 116.167C284.969 123.567 281.906 128.2 276.437 130.9C272.906 132.633 271.156 132.167 269.594 134.4C266.906 138.267 268.719 144.633 270.312 147.9C272.156 151.667 274.969 153.933 277.281 155.8C279.5 157.567 281.531 158.733 282.969 159.433C281.437 156.933 281.344 156.167 281.531 155.933C282.031 155.4 284.156 158.267 286.656 157.9C287.375 157.8 288.656 157.367 291.5 152.6C293.437 149.367 294.75 147.133 295.625 143.933C297.531 137.067 294.844 135.2 295.625 126.167C295.75 124.8 296.625 114.1 300.187 113.4C301.469 113.133 302.781 114.267 303.406 115.133C304.719 116.967 304.562 119.9 302.937 122.433C303.469 122.033 308.562 118.367 308.5 112.4C308.5 111.467 308.469 108.033 306.031 105.8C303.25 103.267 299.375 104.267 299.062 104.333Z" fill="#161616" stroke="#161616" stroke-width="2" stroke-miterlimit="10"/>
<path d="M273.875 119.5C274.6 119.5 275.187 118.381 275.187 117C275.187 115.619 274.6 114.5 273.875 114.5C273.15 114.5 272.562 115.619 272.562 117C272.562 118.381 273.15 119.5 273.875 119.5Z" fill="#161616"/>
<path d="M263.875 120.667C264.6 120.667 265.188 119.547 265.188 118.167C265.188 116.786 264.6 115.667 263.875 115.667C263.15 115.667 262.562 116.786 262.562 118.167C262.562 119.547 263.15 120.667 263.875 120.667Z" fill="#161616"/>
<path d="M261.906 114.067C262.75 113.033 264.062 112.933 265 113.933C265.438 114.4 266.094 113.667 265.656 113.234C264.375 111.9 262.406 111.933 261.219 113.367C260.875 113.867 261.531 114.567 261.906 114.067Z" fill="#161616"/>
<path d="M272.156 112.333C273.25 111.367 274.687 111.5 275.625 112.6C276.031 113.067 276.688 112.367 276.281 111.9C274.969 110.4 272.937 110.333 271.469 111.633C271.031 112.033 271.687 112.733 272.156 112.333Z" fill="#161616"/>
<path d="M268.125 103.133C268.469 100.733 269.344 96.8001 271.75 92.7334C272.594 91.3001 274.406 88.2667 277.281 86.2001C282.781 82.3001 291.25 82.6001 297.406 87.4001C303.437 92.1001 306.437 100.5 305.125 108.833C292.781 106.967 280.469 105.067 268.125 103.133Z" fill="#12335E"/>
<path d="M247.937 103.433C266.906 106.033 285.906 108.633 304.875 111.2C306.656 111.433 306.656 108.433 304.875 108.2C285.906 105.6 266.906 103 247.937 100.433C246.156 100.167 246.156 103.167 247.937 103.433Z" fill="#161616"/>
<path d="M284.188 83.7661C289.063 84.8995 292.75 89.0995 293.375 94.1328C293.938 98.5328 292.125 102.999 288.688 105.733C294.094 106.499 299.531 107.299 304.938 108.066C305.219 106.533 305.469 104.199 305.125 101.466C304.313 95.0661 300.844 90.9661 299.719 89.7328C298.5 88.3995 294.188 83.9328 287.781 83.5328C286.313 83.4661 285.063 83.5995 284.188 83.7661Z" fill="#12335E"/>
</svg>
