<svg width="20" height="20" viewBox="0 0 20 20" fill="none" xmlns="http://www.w3.org/2000/svg">
<g clip-path="url(#clip0)">
<path d="M0 2.29167L0 17.7083C0 18.9725 1.0275 20 2.29167 20L17.7083 20C18.9725 20 20 18.9725 20 17.7083L20 2.29167C20 1.0275 18.9725 0 17.7083 0L2.29167 0C1.0275 0 0 1.0275 0 2.29167ZM13.5417 7.5C13.7642 7.5 13.97 7.61833 14.0817 7.81C14.1383 7.9075 14.1667 8.01583 14.1667 8.125C14.1667 8.23167 14.14 8.3375 14.085 8.43333L10.5433 14.6833C10.4333 14.8783 10.2258 15 10 15C9.77417 15 9.56667 14.8783 9.45667 14.6833L5.915 8.43333C5.805 8.23917 5.8075 8.0025 5.91833 7.81C6.03 7.61833 6.23583 7.5 6.45833 7.5H13.5417Z" fill="#AABACB"/>
</g>
<defs>
<clipPath id="clip0">
<rect width="20" height="20" fill="white" transform="translate(20) rotate(90)"/>
</clipPath>
</defs>
</svg>
