<svg width="270" height="388" viewBox="0 0 270 388" fill="none" xmlns="http://www.w3.org/2000/svg">
<path d="M124.886 85.2004C128.419 86.5204 131.993 87.8404 135.527 89.1605C139.299 98.2005 142.872 108.241 146.009 119.201C153.99 147.441 156.213 173.041 156.173 193.481C151.329 195.001 146.088 196.401 140.49 197.641C126.394 200.721 113.53 201.761 102.532 201.801C102.174 177.601 101.817 153.401 101.42 129.201C101.142 115.361 100.864 101.481 100.586 87.6405C102.055 86.4004 105.946 83.4004 111.862 82.6404C118.374 81.8804 123.258 84.3204 124.886 85.2004Z" fill="#EC615B"/>
<path opacity="0.12" d="M112.974 82.9606C116.826 84.8806 116.945 91.6006 117.064 96.6807C117.381 109.681 120.32 122.641 119.526 135.601C118.731 148.681 122.027 168.481 141.006 197.561C134.574 198.801 127.467 199.881 119.764 200.561C113.689 201.121 107.971 201.361 102.611 201.401C102.412 194.281 102.254 187.161 102.055 180.001C101.301 149.121 100.785 118.241 100.427 87.3206C102.095 86.0006 108.646 80.7605 112.974 82.9606Z" fill="#606060"/>
<path d="M141.84 349.362C140.728 355.762 139.656 362.163 138.544 368.563C142.832 370.363 146.287 371.803 148.55 372.723C157.444 376.323 161.494 377.683 167.728 380.723C170.626 382.163 172.929 383.403 174.319 384.163C172.016 384.643 168.482 385.203 164.194 385.003C160.74 384.803 158.596 384.243 155.419 383.483C151.409 382.563 153.91 383.283 131.437 379.323C129.293 378.963 126.077 378.363 122.106 377.683C122.345 373.483 122.662 369.123 123.059 364.722C123.972 354.722 125.322 345.242 126.911 336.402C131.874 340.722 136.877 345.042 141.84 349.362Z" fill="black"/>
<path d="M151.21 194.481C151.727 196.601 152.481 199.881 152.997 204.001C153.91 211.121 153.672 216.482 153.593 218.322C153.196 228.842 154.585 237.362 155.379 252.282C156.491 274.042 155.34 291.682 153.593 318.722C152.799 331.042 151.885 341.202 151.21 348.202C146.525 349.123 142.594 349.522 139.656 349.682C133.581 350.042 128.34 350.323 122.186 348.202C120.121 347.482 118.493 346.682 117.461 346.122C117.977 341.242 118.771 333.642 119.526 324.362C123.178 279.842 122.345 245.962 121.908 233.202C121.63 225.562 121.153 214.682 120.121 201.601C125.164 200.441 129.253 199.721 132.112 199.281C137.552 198.401 141.324 198.081 146.605 196.241C148.63 195.601 150.178 194.921 151.21 194.481Z" fill="white"/>
<path opacity="0.12" d="M136.956 198.761C136.758 203.841 136.48 211.362 136.202 220.522C135.368 250.002 135.606 267.802 135.447 286.362C135.328 301.442 134.891 322.962 133.422 349.403C131.199 349.563 128.022 349.563 124.369 348.643C121.67 347.963 119.486 347.003 117.818 346.123C118.414 339.563 119.248 329.842 120.081 318.002C122.027 291.082 123.218 274.042 123.099 254.202C123.02 241.402 122.345 223.242 119.565 201.281C125.402 200.441 131.159 199.601 136.956 198.761Z" fill="#606060"/>
<path d="M151.965 195.402C156.173 234.882 157.047 274.682 154.506 314.322C153.791 325.602 152.799 336.883 151.528 348.083C151.449 348.843 150.257 348.843 150.337 348.083C154.784 308.642 155.856 268.842 153.553 229.202C152.918 217.922 151.965 206.642 150.774 195.402C150.694 194.642 151.885 194.642 151.965 195.402Z" fill="#161616"/>
<path d="M151.647 195.041C150.257 196.241 148.471 196.441 146.724 196.801C144.341 197.321 141.919 197.841 139.537 198.361C134.733 199.401 129.928 200.441 125.164 201.481C124.409 201.641 124.092 200.481 124.846 200.321C129.134 199.401 133.422 198.481 137.71 197.561C139.735 197.121 141.76 196.681 143.785 196.241C145.89 195.801 149.106 195.641 150.813 194.201C151.369 193.721 152.203 194.561 151.647 195.041Z" fill="#161616"/>
<path d="M151.25 348.683C150.496 349.483 149.543 349.563 148.471 349.683C146.883 349.883 145.255 350.083 143.666 350.243C140.212 350.603 136.758 350.843 133.264 350.803C130.047 350.723 126.792 350.403 123.655 349.603C122.106 349.203 120.598 348.723 119.168 348.123C118.295 347.763 117.501 347.563 117.143 346.643C117.064 346.443 117.143 346.203 117.302 346.043C117.342 346.003 117.421 345.923 117.461 345.883C118.017 345.323 118.851 346.163 118.295 346.723C118.731 346.283 121.987 347.883 122.702 348.083C123.774 348.403 124.886 348.643 125.998 348.883C128.737 349.403 131.556 349.603 134.336 349.603C136.877 349.603 139.418 349.443 141.959 349.203C143.23 349.083 144.5 348.963 145.771 348.803C147.041 348.643 149.543 348.763 150.456 347.803C150.972 347.243 151.806 348.123 151.25 348.683Z" fill="#161616"/>
<path d="M123.099 237.162C124.965 265.442 123.179 293.762 120.518 321.923C119.764 329.923 118.93 337.923 118.136 345.923C118.057 346.683 116.865 346.683 116.945 345.923C119.843 317.763 122.742 289.562 122.702 261.242C122.702 253.202 122.424 245.202 121.908 237.202C121.829 236.402 123.02 236.402 123.099 237.162Z" fill="#161616"/>
<path d="M142.158 350.643C141.085 356.763 140.013 362.883 138.941 369.003C138.822 368.763 138.663 368.523 138.544 368.283C151.131 372.203 163.241 377.363 174.795 383.683C175.153 383.883 175.192 384.523 174.795 384.723C171.182 386.363 167.291 385.723 163.479 385.243C158.953 384.643 154.466 384.003 149.979 383.283C140.609 381.763 131.239 380.003 121.987 377.963C121.749 377.923 121.511 377.643 121.55 377.403C122.464 368.163 123.377 358.963 124.33 349.723C124.409 348.963 125.6 348.963 125.521 349.723C124.608 358.963 123.695 368.163 122.742 377.403C122.583 377.203 122.464 377.003 122.305 376.843C130.841 378.723 139.418 380.403 148.034 381.803C152.203 382.483 156.412 383.123 160.62 383.723C164.909 384.323 170.07 385.643 174.2 383.763C174.2 384.123 174.2 384.443 174.2 384.803C162.725 378.523 150.694 373.403 138.227 369.523C137.909 369.403 137.75 369.123 137.83 368.803C138.902 362.683 139.974 356.563 141.046 350.443C141.165 349.563 142.316 349.883 142.158 350.643Z" fill="#161616"/>
<path d="M105.907 345.243C103.842 352.403 101.817 359.563 99.7523 366.683C103.445 369.043 106.542 370.723 108.527 371.763C117.183 376.283 121.511 377.003 127.189 381.483C129.928 383.643 131.834 385.763 132.906 387.003C126.315 386.003 119.367 384.723 112.061 383.003C101.896 380.643 92.5656 377.923 84.1878 375.043C87.2054 362.803 90.1833 350.563 93.2009 338.323C97.4097 340.643 101.658 342.963 105.907 345.243Z" fill="black"/>
<path d="M139.418 198.001C140.093 199.041 140.966 200.721 141.165 202.841C141.562 207.721 137.869 210.881 135.328 215.481C133.264 219.201 132.509 223.042 130.961 230.762C129.095 240.162 129.809 243.842 128.777 262.522C128.539 266.842 128.3 270.282 127.784 277.162C127.07 286.562 126.117 299.442 124.846 310.282C123.695 319.842 121.63 333.282 117.62 349.642C113.212 349.922 107.376 349.882 100.705 348.522C92.0495 346.802 85.3392 343.562 80.9319 341.002C81.4481 338.202 82.3217 333.402 83.354 327.522C89.0319 294.242 91.573 267.842 93.1215 251.482C93.9553 242.802 94.3524 238.482 94.5509 234.522C95.0274 225.242 94.7494 220.521 95.8612 212.281C96.4965 207.481 97.3303 203.641 97.9259 201.121C111.704 200.081 125.561 199.041 139.418 198.001Z" fill="white"/>
<path opacity="0.1" d="M120.439 199.241C118.295 203.841 115.118 211.041 112.14 220.081C106.542 237.162 103.802 254.042 101.777 305.002C101.341 315.962 100.864 330.482 100.586 347.602C97.2906 347.082 93.32 346.202 89.0319 344.642C85.9745 343.522 83.3143 342.282 81.0511 341.082C81.6864 337.402 82.6393 331.802 83.7113 325.002C86.6495 306.482 91.4142 276.162 94.3524 238.002C95.0274 229.122 95.8612 216.801 96.417 201.961C104.477 201.041 112.458 200.121 120.439 199.241Z" fill="#606060"/>
<path d="M138.147 214.241C132.072 219.321 131.199 227.721 130.683 235.121C130.047 244.442 129.571 253.762 129.055 263.082C128.022 281.482 126.871 299.922 124.29 318.162C122.821 328.642 120.836 339.002 118.215 349.242C118.017 350.002 116.865 349.682 117.064 348.922C126.712 311.522 126.831 272.842 129.531 234.561C130.047 227.001 131.159 218.521 137.313 213.401C137.909 212.921 138.743 213.761 138.147 214.241Z" fill="#161616"/>
<path d="M117.659 349.802C110.354 350.362 103.008 349.762 95.901 347.922C92.526 347.042 89.1908 345.922 85.9747 344.482C83.7909 343.522 80.4556 342.602 80.138 339.842C80.0586 339.082 81.2497 339.082 81.3291 339.842C81.5277 341.522 84.3071 342.442 85.5776 343.002C87.1658 343.722 88.754 344.362 90.382 344.962C93.201 345.962 96.0598 346.762 98.9583 347.402C105.113 348.682 111.386 349.082 117.62 348.602C118.414 348.562 118.414 349.762 117.659 349.802Z" fill="#161616"/>
<path d="M96.9332 205.081C94.948 240.242 91.4539 275.282 86.4907 310.122C85.0613 320.002 83.5525 329.842 81.8849 339.682C81.7658 340.442 80.6143 340.122 80.7334 339.362C86.5304 304.762 90.8583 269.882 93.6774 234.922C94.4715 225.002 95.1465 215.041 95.7421 205.081C95.7818 204.281 96.9729 204.281 96.9332 205.081Z" fill="#161616"/>
<path d="M105.43 349.202C103.643 355.362 101.857 361.522 100.07 367.682C99.9905 367.442 99.8714 367.242 99.792 367.002C106.026 369.922 112.22 373.002 118.295 376.242C123.496 379.003 129.412 381.643 133.144 386.403C133.542 386.883 133.184 387.483 132.549 387.403C116.071 385.083 99.8714 381.203 84.1084 375.763C83.7907 375.643 83.6319 375.362 83.7113 375.042C85.9348 365.202 88.198 355.362 90.4215 345.522C90.5803 344.762 91.7318 345.082 91.573 345.842C89.3495 355.682 87.0863 365.522 84.8628 375.362C84.7437 375.122 84.5848 374.882 84.4657 374.642C100.189 380.083 116.429 384.003 132.906 386.283C132.708 386.603 132.509 386.963 132.311 387.283C128.539 382.403 122.345 379.762 117.024 376.922C111.148 373.802 105.232 370.842 99.1964 368.042C98.9582 367.922 98.8391 367.602 98.9185 367.362C100.705 361.202 102.492 355.042 104.279 348.882C104.477 348.162 105.629 348.442 105.43 349.202Z" fill="#161616"/>
<path d="M110.036 83.0805C110.473 84.4405 111.068 86.4006 111.743 88.8006C113.371 94.6006 115.396 102.801 117.421 116.041C118.454 122.721 120.201 134.441 121.034 150.321C121.233 154.161 121.59 162.321 120.637 193.961C120.042 214.482 119.724 224.762 119.129 233.402C117.779 252.642 115.714 268.962 113.848 284.082C112.855 291.842 111.982 298.242 111.386 302.562C108.249 302.922 103.921 303.162 98.9186 302.562C96.1789 302.242 84.3468 300.642 72.2366 291.882C69.4573 289.882 65.9632 287.002 62.3897 282.922C64.2558 277.322 66.797 269.282 69.3778 259.482C71.0851 253.122 76.5248 232.122 81.6865 192.601C83.4732 178.841 83.1159 179.041 87.5629 138.481C89.3099 122.561 90.779 109.561 91.7319 101.121C91.9305 99.1207 92.6055 94.8806 95.7025 90.8406C100.824 84.1205 108.567 83.2005 110.036 83.0805Z" fill="white"/>
<path opacity="0.12" d="M99.0773 88.0407C98.0847 91.9207 96.7347 97.7208 95.4642 104.801C91.9304 124.521 92.2877 136.321 91.4936 151.881C90.0642 180.081 87.0466 178.041 84.3069 214.762C83.0363 231.562 82.4011 240.642 82.9967 253.242C83.9099 273.202 87.3642 289.562 90.3819 300.882C86.7687 299.762 82.3614 298.042 77.7158 295.362C70.9262 291.442 66.0028 286.922 62.7866 283.362C63.6999 280.442 65.0499 276.082 66.5587 270.802C71.2836 254.122 75.81 234.282 80.932 196.121C83.9893 173.441 83.3143 173.401 87.7216 137.241C89.826 119.961 91.7318 105.801 93.0024 96.2808C93.7171 94.7607 94.7494 93.0007 96.2185 91.1207C97.1714 89.8407 98.1641 88.8407 99.0773 88.0407Z" fill="#606060"/>
<path d="M110.711 83.1189C117.262 102.679 119.962 123.239 120.915 143.799C121.908 165.4 121.352 187.12 120.757 208.72C120.399 221.36 119.923 233.96 119.367 246.6C119.327 247.36 118.136 247.36 118.176 246.6C119.208 224.28 119.883 201.96 120.161 179.64C120.399 158.839 120.28 137.959 117.421 117.359C115.793 105.879 113.332 94.519 109.599 83.5189C109.322 82.7189 110.473 82.3989 110.711 83.1189Z" fill="#161616"/>
<path d="M109.48 83.9207C104.755 85.3207 100.11 86.8807 96.973 90.8808C94.3127 94.2008 93.0024 98.4008 92.1686 102.561C91.176 107.401 90.7789 112.401 90.3025 117.321C89.7466 122.921 89.1907 128.561 88.6745 134.201C86.6098 156.281 84.1084 178.361 80.8923 200.322C79.0658 212.882 77.0409 225.402 74.8174 237.922C74.6983 238.682 73.5468 238.362 73.6659 237.602C77.7953 214.442 81.2099 191.201 83.9893 167.841C85.3393 156.241 86.5305 144.641 87.6025 133.041C88.1584 127.161 88.7143 121.281 89.3098 115.401C89.7863 110.841 90.1834 106.201 91.1363 101.681C92.0495 97.3608 93.598 93.0408 96.4965 89.6408C99.792 85.7607 104.477 84.1607 109.202 82.8007C109.917 82.5607 110.235 83.7207 109.48 83.9207Z" fill="#161616"/>
<path d="M119.804 238.282C118.493 259.882 115.793 281.362 111.783 302.602C111.624 303.362 110.473 303.042 110.632 302.282C114.642 281.122 117.302 259.762 118.612 238.282C118.652 237.482 119.843 237.482 119.804 238.282Z" fill="#161616"/>
<path d="M110.989 303.762C93.0024 304.802 74.9761 297.562 62.6675 284.282C62.1513 283.722 62.9851 282.882 63.5013 283.442C75.6115 296.482 93.2803 303.602 110.989 302.562C111.743 302.522 111.743 303.722 110.989 303.762Z" fill="#161616"/>
<path d="M75.4527 234.802C72.1968 251.322 68.0675 267.642 63.1837 283.722C62.9455 284.442 61.794 284.162 62.0322 283.402C66.9557 267.322 71.0454 251.002 74.3012 234.482C74.46 233.722 75.6115 234.042 75.4527 234.802Z" fill="#161616"/>
<path d="M109.917 209.042C110.234 214.482 109.877 219.922 108.765 225.242C107.773 229.882 106.383 234.922 103.802 238.962C101.539 242.482 98.1244 244.642 93.8759 244.322C90.7392 244.082 86.9275 242.402 86.848 238.762C86.8083 238.002 87.9995 238.002 88.0392 238.762C88.1583 243.362 95.2259 243.762 98.2832 242.482C101.857 240.962 103.723 237.162 105.033 233.722C108.051 225.882 109.242 217.442 108.726 209.082C108.686 208.282 109.877 208.282 109.917 209.042Z" fill="#161616"/>
<path d="M107.376 209.682C104.795 213.362 101.46 216.522 97.251 218.242C95.1863 219.082 92.9231 219.602 90.6996 219.642C89.1908 219.682 87.0864 219.762 86.2526 218.242C85.8952 217.562 86.9275 216.962 87.2849 217.642C88.1187 219.162 92.3275 218.402 93.598 218.162C95.3451 217.802 97.0127 217.202 98.6009 216.322C101.738 214.602 104.318 212.042 106.343 209.122C106.78 208.442 107.813 209.042 107.376 209.682Z" fill="#161616"/>
<path d="M106.542 206.162C103.088 210.122 98.4421 212.722 93.2803 213.602C92.5259 213.722 92.2083 212.562 92.9627 212.442C97.9656 211.602 102.373 209.122 105.708 205.322C106.185 204.722 107.018 205.562 106.542 206.162Z" fill="#161616"/>
<path d="M110.155 83.3606C109.56 85.5206 107.336 86.0006 106.026 87.6006C104.12 89.9606 104.676 93.4406 105.351 96.1607C106.145 99.2807 107.257 102.321 108.408 105.321C109.48 108.241 111.346 111.281 111.862 114.401C112.339 117.241 110.393 119.601 110.354 122.401C110.354 125.961 111.902 129.721 112.736 133.161C114.404 139.961 115.912 146.761 117.223 153.641C118.731 161.521 120.042 169.441 121.114 177.401C121.233 178.161 120.081 178.481 119.962 177.721C118.017 163.361 115.357 149.081 111.942 135.001C111.108 131.561 110.036 128.161 109.401 124.681C109.162 123.441 109.043 122.121 109.242 120.881C109.48 119.401 110.235 118.081 110.592 116.601C111.029 114.681 110.195 112.961 109.48 111.241C108.805 109.641 108.17 108.001 107.535 106.361C106.343 103.201 105.192 100.001 104.318 96.7607C103.643 94.2406 103.167 91.3606 104.041 88.8406C104.398 87.8406 104.954 86.9606 105.708 86.2406C106.82 85.2006 108.607 84.6406 109.043 83.0406C109.202 82.2806 110.354 82.6006 110.155 83.3606Z" fill="#161616"/>
<path d="M137.631 90.6805C138.862 91.6805 141.125 93.5205 142.753 95.4405C144.064 97.0005 145.096 98.7205 146.525 102.281C148.669 107.641 149.622 111.841 150.496 115.441C152.362 123.081 152.481 122.241 154.268 129.521C156.531 138.601 157.881 146.161 159.747 157.161C162.765 175.041 164.274 183.961 165.227 191.441C166.021 197.561 169.157 223.161 169.197 257.762C169.197 268.522 168.919 277.562 168.641 284.042C167.688 284.522 166.616 285.002 165.425 285.362C161.693 286.562 158.318 286.562 155.975 286.322C156.015 279.362 155.975 269.002 155.578 256.402C155.221 245.362 154.784 237.602 154.427 231.442C153.791 219.601 152.997 202.641 152.521 180.961C152.243 177.801 151.806 173.281 151.211 167.801C149.702 154.241 148.669 144.681 146.287 133.121C145.652 130.121 144.103 123.921 141.006 111.601C138.584 102.001 136.559 94.1205 135.13 88.7205C135.805 89.2405 136.639 89.8805 137.631 90.6805Z" fill="white"/>
<path d="M135.527 88.6798C149.106 131.52 154.109 176.4 157.047 221.081C157.881 233.921 158.556 246.761 159.191 259.601C159.231 260.361 158.04 260.361 158 259.601C155.697 214.681 153.275 169.48 143.905 125.36C141.284 113.08 138.147 100.92 134.375 88.9598C134.137 88.2798 135.288 87.9598 135.527 88.6798Z" fill="#161616"/>
<path d="M135.487 88.3205C144.143 93.4405 147.875 103.281 150.456 112.561C153.95 125.161 156.729 138.001 159.231 150.881C164.274 177.081 167.529 203.641 168.959 230.281C169.753 245.442 169.951 260.642 169.594 275.802C169.594 276.562 168.403 276.562 168.403 275.802C169.038 249.682 167.966 223.521 165.107 197.561C162.249 171.521 157.603 145.681 151.25 120.281C148.471 109.121 145.572 95.6405 134.931 89.3605C134.217 88.9605 134.812 87.9205 135.487 88.3205Z" fill="#161616"/>
<path d="M169.673 273.442C169.634 276.002 169.634 278.562 169.594 281.162C169.594 282.642 169.832 284.522 168.681 285.642C167.648 286.642 165.941 286.682 164.591 286.842C162.01 287.162 159.39 287.322 156.769 287.362C156.015 287.362 156.015 286.162 156.769 286.162C158.596 286.162 160.422 286.082 162.249 285.922C163.241 285.842 164.234 285.722 165.187 285.562C166.497 285.362 166.815 285.442 167.648 284.282C168.76 282.762 168.363 280.682 168.403 278.842C168.403 277.042 168.443 275.242 168.443 273.442C168.482 272.682 169.673 272.682 169.673 273.442Z" fill="#161616"/>
<path d="M137.036 89.7605C141.483 92.4805 143.627 97.5205 144.024 102.601C144.183 104.721 143.865 106.881 144.302 108.961C144.659 110.681 145.453 112.241 146.168 113.841C147.558 117.001 148.59 120.321 149.344 123.721C150.813 130.481 151.21 137.441 151.488 144.361C151.846 152.441 152.203 160.481 152.56 168.561C152.6 169.321 151.409 169.321 151.369 168.561C151.052 161.121 150.734 153.681 150.377 146.201C150.059 139.241 149.781 132.241 148.471 125.401C147.835 122.161 146.962 119.001 145.771 115.921C144.619 113.001 143.111 110.401 142.952 107.161C142.793 104.001 142.991 101.041 141.959 97.9605C140.966 94.9605 139.18 92.4005 136.48 90.7605C135.765 90.4005 136.4 89.3605 137.036 89.7605Z" fill="#161616"/>
<path d="M96.5362 89.5206C97.648 92.8407 98.8391 97.3607 99.1964 102.881C99.5935 109.001 98.8788 114.161 98.0847 117.801C96.8539 118.721 95.0274 120.361 93.7171 122.921C92.3275 125.681 91.9701 128.601 92.4465 133.281C93.1215 140.041 93.9157 147.641 99.4744 155.121C103.723 160.841 108.924 163.961 112.14 165.921C114.523 167.361 116.667 168.361 118.215 169.041C116.111 172.001 115.992 172.881 116.23 173.161C116.667 173.641 118.215 172.201 120.876 171.441C124.687 170.401 125.521 172.241 128.896 171.441C132.589 170.561 132.668 168.121 136.639 167.481C137.711 167.321 140.649 166.841 141.721 168.481C142.515 169.721 142.078 171.801 140.609 173.601C141.086 173.641 141.84 173.681 142.713 173.601C143.865 173.481 144.262 173.281 144.818 173.441C145.294 173.601 145.89 174.041 146.366 175.441C148.034 174.641 149.622 175.161 149.9 175.881C150.178 176.561 149.463 177.881 147.915 178.561C148.233 178.921 148.59 179.441 148.471 179.961C148.312 180.721 147.2 181.041 145.652 181.361C142.674 182.001 141.086 181.841 139.299 182.081C136.559 182.441 136.281 183.241 133.383 184.081C129.571 185.161 126.355 184.721 124.489 184.521C118.811 183.801 114.682 181.281 112.498 179.681C111.743 181.921 110.989 184.121 110.235 186.361C107.376 185.961 103.008 185.001 98.2436 182.401C93.1613 179.601 90.104 176.281 87.9599 173.881C82.8379 168.201 80.0585 162.241 78.51 157.841C77.2791 154.361 76.8424 151.721 76.2468 148.321C75.3336 142.921 74.2218 136.561 74.9762 128.721C75.2541 126.041 76.4056 116.201 82.7187 105.441C87.3643 97.8007 92.6848 92.6407 96.5362 89.5206Z" fill="white"/>
<path opacity="0.12" d="M95.4245 91.2007C92.8039 94.4008 89.3893 99.2008 86.5305 105.521C84.982 108.961 80.7732 119.161 80.8923 133.041C80.9717 142.921 81.0909 155.121 89.7863 165.401C97.37 174.361 107.614 177.201 112.736 178.161C116.151 178.561 120.081 178.801 124.409 178.601C132.867 178.201 139.934 176.361 145.136 174.481C147.994 174.641 148.788 175.241 148.947 175.761C149.146 176.361 148.51 176.841 148.51 178.161C148.51 179.241 148.947 179.481 148.788 180.001C148.55 180.841 147.121 181.241 144.421 181.561C140.252 182.081 139.219 181.761 136.956 182.281C134.534 182.841 134.614 183.481 132.43 184.121C128.578 185.281 125.124 184.321 119.883 182.841C118.017 182.321 115.436 181.481 112.418 180.161C111.704 182.081 111.029 184.041 110.314 185.961C106.86 185.361 101.499 184.001 95.9407 180.441C90.3025 176.841 87.1261 172.681 85.3791 170.361C81.0909 164.681 79.2247 159.441 78.1924 156.441C74.7777 146.561 74.9762 138.281 75.0954 133.881C75.2542 128.401 75.5321 120.241 79.7409 110.881C84.2673 101.001 90.9775 94.6808 95.4245 91.2007Z" fill="#606060"/>
<path d="M98.7597 88.9207C85.8157 97.8007 77.7159 112.121 76.2071 127.761C74.6585 143.961 77.7159 161.841 89.151 174.041C94.8686 180.121 102.254 184.481 110.512 185.761C111.267 185.881 110.949 187.041 110.195 186.921C94.4715 184.481 82.7187 171.601 77.8747 156.881C72.6733 141.121 73.2291 121.961 81.0114 107.161C85.0613 99.4407 90.9774 92.8007 98.1641 87.8806C98.7994 87.4406 99.395 88.4807 98.7597 88.9207Z" fill="#161616"/>
<path d="M98.2037 118.721C94.3523 120.921 93.5186 125.441 92.8833 129.521C92.7642 130.281 91.6127 129.961 91.7318 129.201C92.4465 124.801 93.4391 120.081 97.6082 117.681C98.2832 117.321 98.8787 118.361 98.2037 118.721Z" fill="#161616"/>
<path d="M92.4862 123.281C92.5656 136.201 95.9802 148.841 102.412 160.041C102.81 160.721 101.777 161.321 101.38 160.641C94.8287 149.281 91.3744 136.401 91.295 123.281C91.295 122.521 92.4862 122.521 92.4862 123.281Z" fill="#161616"/>
<path d="M99.2758 152.841C100.586 156.881 104.358 159.441 107.614 161.801C111.029 164.241 114.602 166.441 118.295 168.401C118.97 168.761 118.374 169.801 117.699 169.441C113.371 167.121 109.202 164.521 105.311 161.561C102.293 159.281 99.3552 156.841 98.164 153.161C97.8861 152.441 99.0375 152.121 99.2758 152.841Z" fill="#161616"/>
<path d="M118.652 169.402C116.19 175.162 112.339 180.322 111.068 186.522C110.91 187.282 109.758 186.962 109.917 186.202C111.227 179.882 115.118 174.642 117.62 168.802C117.937 168.122 118.97 168.722 118.652 169.402Z" fill="#161616"/>
<path d="M116.349 173.121C119.406 170.241 122.861 169.841 126.831 170.361C129.77 170.761 131.517 169.641 133.899 168.161C135.487 167.201 137.194 166.561 139.061 166.561C141.999 166.561 143.706 168.641 142.316 171.481C140.689 174.881 136.281 175.961 132.946 176.521C132.192 176.641 131.874 175.481 132.628 175.361C135.567 174.841 139.339 174.081 141.046 171.321C141.403 170.721 141.84 169.561 141.562 168.881C140.966 167.441 138.822 167.641 137.671 167.881C136.202 168.161 134.971 168.921 133.74 169.681C131.636 171.041 129.77 171.921 127.228 171.601C123.377 171.161 120.201 171.121 117.183 173.961C116.667 174.481 115.793 173.641 116.349 173.121Z" fill="#161616"/>
<path d="M146.922 175.721C143.984 179.161 139.656 180.681 135.249 180.041C134.494 179.921 134.812 178.761 135.567 178.881C139.577 179.481 143.468 177.921 146.049 174.881C146.605 174.321 147.438 175.161 146.922 175.721Z" fill="#161616"/>
<path d="M150.138 176.321C148.788 180.041 145.016 181.081 141.443 181.361C140.689 181.441 140.689 180.201 141.443 180.161C144.381 179.921 147.835 179.201 148.987 176.001C149.225 175.281 150.377 175.601 150.138 176.321Z" fill="#161616"/>
<path d="M149.463 179.162C148.391 181.682 145.731 182.442 143.23 182.562C141.324 182.682 139.458 182.562 137.552 183.082C135.805 183.522 134.137 184.282 132.43 184.802C125.6 186.882 119.128 183.922 113.133 180.762C112.458 180.402 113.054 179.362 113.729 179.722C119.446 182.682 125.6 185.602 132.112 183.642C134.534 182.922 136.837 181.802 139.378 181.522C142.475 181.162 146.922 182.162 148.431 178.562C148.749 177.882 149.781 178.482 149.463 179.162Z" fill="#161616"/>
<path d="M145.81 174.721C145.85 174.721 144.778 174.281 144.738 174.241C144.262 174.121 143.746 174.041 143.269 174.041C142.356 174.001 141.443 174.241 140.609 174.561C139.894 174.841 139.577 173.681 140.291 173.401C142.078 172.721 144.183 172.601 145.93 173.361C146.843 173.761 147.796 175.161 146.446 175.761C145.691 176.081 145.096 175.041 145.81 174.721Z" fill="#161616"/>
<path d="M149.066 176.281C149.424 175.641 147.756 175.881 147.557 175.881C146.962 175.921 146.446 175.881 145.89 175.601C145.215 175.241 145.81 174.201 146.485 174.561C147.399 175.041 148.55 174.281 149.503 174.881C150.218 175.281 150.496 176.161 150.099 176.881C149.702 177.521 148.669 176.921 149.066 176.281Z" fill="#161616"/>
<path d="M143.746 97.4803C145.81 99.2403 148.629 101.92 151.369 105.72C152.6 107.44 153.394 108.72 154.387 110.36C155.975 113.04 158.754 117.64 161.137 124.16C162.05 126.601 163.082 129.881 163.995 133.841C165.584 135.041 167.212 136.241 168.8 137.441C169.673 137.801 172.294 138.961 174.12 141.921C175.986 144.961 175.828 147.961 175.709 148.921C177.495 149.241 179.361 149.561 181.228 149.801C190.201 151.081 198.658 151.521 206.48 151.401C203.383 155.041 200.326 158.681 197.229 162.321C198.182 163.201 199.135 164.121 200.088 165.001C198.38 167.321 196.633 169.641 194.926 172.001C192.663 171.721 190.439 171.401 188.176 171.121C184.682 175.361 181.188 179.601 177.694 183.841C171.698 183.121 166.695 182.081 162.963 181.161C151.369 178.361 142.872 174.601 138.981 172.761C135.725 171.241 133.105 169.801 131.358 168.841C132.35 166.241 133.343 164.241 134.018 162.921C136.003 159.161 139.974 151.841 147.875 146.801C149.384 145.841 150.694 145.201 151.449 144.841C151.647 139.401 151.21 134.921 150.734 131.761C149.503 123.44 146.803 115.92 146.485 114.92C145.493 112.12 144.897 111 144.341 108.48C143.269 103.96 143.428 100.08 143.746 97.4803Z" fill="white"/>
<path opacity="0.11" d="M147.2 101.52C149.622 106.2 152.163 111.76 154.347 118.24C156.412 124.281 157.802 129.881 158.754 134.841C160.144 134.481 161.653 134.921 162.646 135.961C163.638 137.041 163.996 138.601 163.519 140.001C164.75 140.201 166.934 140.721 168.919 142.401C173.565 146.321 172.77 152.841 172.691 153.401C174.438 153.601 176.304 153.881 178.21 154.281C186.072 155.961 192.425 159.041 197.189 162.001C200.167 158.441 203.145 154.921 206.123 151.361C196.395 150.681 186.707 150.001 176.979 149.321C176.741 147.961 176.185 146.041 174.954 144.001C172.81 140.441 169.872 138.681 168.403 137.921C168.125 137.361 167.807 136.841 167.529 136.281C166.457 135.441 165.346 134.601 164.273 133.761C163.638 130.601 162.924 128.081 162.407 126.401C160.859 121.52 158.079 112.92 150.972 105.12C149.384 103.48 148.034 102.24 147.2 101.52Z" fill="#606060"/>
<path d="M143.547 96.3603C154.188 106.12 161.574 119.16 164.432 133.401C164.591 134.161 163.44 134.481 163.281 133.721C160.462 119.68 153.235 106.84 142.714 97.2003C142.158 96.6803 142.992 95.8403 143.547 96.3603Z" fill="#161616"/>
<path d="M166.775 136.92C169.872 136.72 172.135 138.96 173.882 141.32C175.987 144.16 176.662 147.561 176.265 151.081C176.026 153.121 174.478 156.281 171.897 155.281C170.706 154.801 170.15 153.441 169.634 152.361C168.84 150.641 168.125 148.881 167.45 147.121C167.172 146.401 168.323 146.081 168.601 146.801C169.038 147.921 169.475 149.081 169.951 150.201C170.309 151.001 170.626 152.281 171.182 152.881C171.262 153.041 171.381 153.201 171.46 153.361C172.453 153.281 173.445 153.161 174.438 153.081C174.875 152.681 174.994 151.601 175.073 151.041C175.193 150.041 175.153 149.041 175.113 148.041C174.835 143.96 171.619 137.88 166.815 138.16C165.981 138.16 165.981 136.96 166.775 136.92Z" fill="#161616"/>
<path d="M168.522 137.801C165.822 136.761 163.321 141.641 162.725 143.641C162.487 144.361 161.335 144.081 161.574 143.321C162.368 140.681 165.346 135.321 168.84 136.641C169.554 136.921 169.237 138.081 168.522 137.801Z" fill="#161616"/>
<path d="M167.926 137.24C165.345 135.6 162.129 133.76 159.271 135.88C158.635 136.32 158.04 135.28 158.675 134.84C161.891 132.44 165.584 134.32 168.522 136.2C169.197 136.64 168.601 137.68 167.926 137.24Z" fill="#161616"/>
<path d="M167.251 147.521C165.147 147.561 163.281 146.521 162.129 144.761C161.693 144.121 162.725 143.521 163.162 144.161C164.075 145.561 165.584 146.361 167.251 146.321C168.045 146.281 168.045 147.481 167.251 147.521Z" fill="#161616"/>
<path d="M206.838 151.761C203.82 155.441 200.842 159.081 197.825 162.761C197.348 163.361 196.514 162.521 196.991 161.921C200.008 158.241 202.986 154.601 206.004 150.921C206.52 150.321 207.354 151.201 206.838 151.761Z" fill="#161616"/>
<path d="M206.401 151.641C196.633 152.001 186.866 151.441 177.217 149.881C176.463 149.761 176.781 148.6 177.535 148.721C187.104 150.241 196.752 150.801 206.401 150.441C207.155 150.401 207.155 151.601 206.401 151.641Z" fill="#161616"/>
<path d="M167.053 148.16C163.241 146.92 159.39 145.32 155.499 144.4C152.997 143.8 151.647 145.04 149.781 146.48C148.193 147.72 146.644 149.04 145.135 150.4C139.775 155.36 135.249 161.12 131.636 167.521C131.239 168.201 130.246 167.601 130.603 166.921C134.574 159.88 139.696 153.56 145.731 148.24C147.081 147.04 148.51 145.92 149.94 144.84C151.21 143.88 152.521 142.72 154.188 142.84C156.174 142.96 158.278 144 160.144 144.64C162.566 145.4 164.948 146.2 167.37 146.96C168.085 147.24 167.767 148.4 167.053 148.16Z" fill="#161616"/>
<path d="M200.763 164.161C199.492 167.361 197.586 170.121 194.966 172.321C194.37 172.801 193.536 171.961 194.132 171.481C196.554 169.401 198.42 166.841 199.611 163.841C199.889 163.121 201.041 163.441 200.763 164.161Z" fill="#161616"/>
<path d="M199.492 164.921C198.42 164.281 197.308 163.721 196.157 163.281C194.41 162.641 193.258 163.241 192.067 164.481C191.313 165.281 190.519 166.041 189.725 166.801C189.407 167.081 187.303 168.681 187.263 168.961C187.104 168.761 186.985 168.561 186.826 168.401C186.707 168.441 186.588 168.481 186.429 168.521C186.389 168.761 186.35 169.001 186.35 169.241C186.35 169.201 186.31 169.201 186.31 169.161C185.873 168.521 186.905 167.921 187.342 168.561C187.342 168.601 187.382 168.601 187.382 168.641C187.501 168.841 187.461 169.201 187.302 169.361C187.064 169.601 186.866 169.681 186.508 169.561C186.27 169.481 186.072 169.241 186.072 169.001C186.151 167.881 187.58 167.161 188.335 166.481C189.804 165.121 191.114 163.361 192.663 162.121C194.727 160.481 198.221 162.801 200.088 163.881C200.763 164.241 200.167 165.281 199.492 164.921Z" fill="#161616"/>
<path d="M194.251 172.601C192.186 172.721 189.923 172.841 187.858 172.401C187.422 172.321 187.064 172.241 186.786 171.841C186.429 171.281 186.707 170.641 186.389 170.081C186.032 169.401 187.064 168.801 187.422 169.481C187.62 169.801 187.58 170.041 187.7 170.401C188.017 171.361 188.692 171.361 189.645 171.401C191.194 171.521 192.702 171.481 194.251 171.401C195.045 171.361 195.045 172.561 194.251 172.601Z" fill="#161616"/>
<path d="M194.251 172.281C191.67 172.001 189.208 171.441 186.786 170.561C186.072 170.281 186.389 169.121 187.104 169.401C189.407 170.281 191.789 170.841 194.251 171.081C195.005 171.121 195.045 172.361 194.251 172.281Z" fill="#161616"/>
<path d="M188.653 171.761C188.216 171.481 187.7 171.321 187.183 171.281C186.429 171.201 186.429 170.001 187.183 170.081C187.938 170.121 188.613 170.361 189.248 170.721C189.923 171.121 189.328 172.161 188.653 171.761Z" fill="#161616"/>
<path d="M188.494 172.001C185.357 176.121 182.022 180.041 178.409 183.761C177.892 184.321 177.019 183.481 177.575 182.921C181.108 179.281 184.404 175.441 187.461 171.401C187.938 170.801 188.97 171.401 188.494 172.001Z" fill="#161616"/>
<path d="M177.575 184.401C168.442 182.961 159.39 180.801 150.575 177.921C146.247 176.481 141.919 174.921 137.711 173.161C135.328 172.161 130.484 171.081 130.564 167.761C130.564 167.001 131.755 167.001 131.755 167.761C131.715 170.001 135.805 171.041 137.353 171.681C139.18 172.441 141.006 173.201 142.872 173.881C146.684 175.321 150.535 176.641 154.427 177.841C162.129 180.161 169.951 181.961 177.892 183.241C178.647 183.361 178.329 184.521 177.575 184.401Z" fill="#161616"/>
<path d="M187.223 159.361C183.292 164.881 179.362 170.361 175.391 175.881C174.954 176.521 173.922 175.921 174.359 175.281C178.289 169.761 182.22 164.281 186.191 158.761C186.628 158.161 187.66 158.721 187.223 159.361Z" fill="#161616"/>
<path d="M178.488 162.601C174.954 167.921 171.103 173.001 166.973 177.841C166.457 178.441 165.623 177.561 166.14 177.001C170.229 172.241 174.001 167.241 177.495 162.001C177.892 161.361 178.925 161.961 178.488 162.601Z" fill="#161616"/>
<path d="M169.991 158.041C165.703 163.721 161.375 169.401 157.087 175.081C156.61 175.681 155.578 175.081 156.055 174.481C160.343 168.801 164.671 163.121 168.959 157.441C169.435 156.841 170.468 157.401 169.991 158.041Z" fill="#161616"/>
<path d="M161.137 153.561C159.032 156.081 157.047 158.681 155.141 161.361C154.704 162.001 153.672 161.401 154.109 160.761C156.094 158.001 158.159 155.321 160.303 152.721C160.819 152.121 161.653 152.961 161.137 153.561Z" fill="#161616"/>
<path d="M156.213 39.8003C156.412 40.8803 156.213 42.3203 155.776 45.0803C154.546 53.4804 153.672 59.2004 150.218 65.4005C147.875 69.5605 144.381 75.8406 137.313 78.0006C133.621 79.1206 130.325 78.7206 128.3 78.3206C128.102 79.4406 127.744 80.8006 127.149 82.2406C125.759 85.5206 123.695 87.6806 122.305 88.9207C121.352 88.8407 118.612 88.4006 116.23 86.1606C114.562 84.6006 113.808 82.8806 113.49 81.9206C114.324 80.9206 115.356 79.4406 116.111 77.4806C117.461 74.1205 117.342 71.0805 117.143 69.4405C116.706 66.0405 116.309 62.6805 115.873 59.2804C115.277 59.2804 114.086 59.1604 113.054 58.3204C111.187 56.8404 110.79 53.8804 112.021 51.8804C112.696 50.7604 114.324 49.1604 116.111 49.6404C117.62 50.0804 118.215 51.7204 118.334 51.9604C118.453 48.6803 119.049 43.5603 121.392 37.8003C123.456 32.7202 124.925 29.0802 128.3 27.0002C137.155 21.6002 154.466 30.0002 156.213 39.8003Z" fill="white"/>
<path d="M156.452 42.8804C155.34 54.8404 151.965 68.9605 141.761 76.4406C136.916 80.0006 130.564 80.3606 125.203 77.7606C119.803 75.1606 116.23 69.8005 114.84 64.0005C114.681 63.2405 115.793 62.9205 115.992 63.6805C117.302 69.1605 120.637 74.2406 125.799 76.7206C131.715 79.5606 138.266 78.3206 142.991 73.8806C151.33 66.0005 154.268 53.9204 155.3 42.8804C155.3 42.1204 156.491 42.1204 156.452 42.8804Z" fill="#161616"/>
<path d="M128.777 78.6006C127.824 82.6407 126.593 86.8407 122.821 89.1207C122.146 89.5207 121.55 88.4807 122.225 88.0807C125.719 86.0007 126.752 82.0007 127.625 78.2806C127.784 77.5206 128.936 77.8406 128.777 78.6006Z" fill="#161616"/>
<path d="M117.937 70.1606C117.54 74.6407 116.984 79.2807 113.848 82.7207C113.332 83.2807 112.498 82.4407 113.014 81.8807C115.912 78.6807 116.389 74.2807 116.746 70.1606C116.826 69.4006 118.017 69.4006 117.937 70.1606Z" fill="#161616"/>
<path d="M122.265 89.4804C118.096 89.0404 114.642 86.3604 113.212 82.3604C112.934 81.6404 114.086 81.3204 114.364 82.0404C115.595 85.4804 118.692 87.8804 122.265 88.2804C123.02 88.3604 123.02 89.5604 122.265 89.4804Z" fill="#161616"/>
<path d="M117.58 52.4004C117.54 50.5204 115.634 49.5604 114.046 50.4004C113.054 50.9204 112.498 51.8804 112.299 52.9204C111.942 54.6405 113.054 59.4405 115.793 58.2805C116.508 58.0005 117.103 59.0005 116.389 59.3205C112.259 61.1205 110.076 54.5605 111.465 51.5604C113.054 48.0804 118.692 47.9604 118.811 52.4004C118.771 53.2004 117.58 53.2004 117.58 52.4004Z" fill="#161616"/>
<path d="M144.659 46.4404C145.453 50.1204 146.049 53.8805 146.247 57.6805C146.287 58.6805 146.406 59.3605 145.652 60.0805C144.58 61.0805 142.674 61.5205 141.284 61.8005C140.53 61.9605 140.212 60.8005 140.967 60.6405C142.078 60.4405 143.944 60.1605 144.739 59.2805C145.572 58.3605 144.977 56.2005 144.858 55.0805C144.58 52.2804 144.103 49.5204 143.508 46.7604C143.349 46.0004 144.5 45.6804 144.659 46.4404Z" fill="#161616"/>
<path d="M153.672 48.5605C151.727 49.6805 149.424 49.6005 147.558 48.4005C146.922 48.0005 147.518 46.9605 148.153 47.3605C149.662 48.3605 151.488 48.4005 153.077 47.5205C153.752 47.1605 154.347 48.2005 153.672 48.5605Z" fill="#161616"/>
<path d="M140.053 42.8005C138.227 40.2004 134.614 40.7604 133.383 43.6005C133.065 44.3205 132.033 43.6805 132.35 43.0005C134.018 39.2804 138.783 38.9604 141.086 42.2005C141.522 42.8405 140.49 43.4405 140.053 42.8005Z" fill="#161616"/>
<path d="M151.528 48.8003C151.925 50.6803 151.449 52.5203 150.178 53.9604C149.662 54.5204 148.828 53.6804 149.344 53.1204C150.297 52.0004 150.694 50.5603 150.377 49.1203C150.218 48.3603 151.369 48.0403 151.528 48.8003Z" fill="#161616"/>
<path d="M150.535 49.1204C150.138 50.5204 149.94 51.9204 149.94 53.3604C149.94 54.1204 148.749 54.1204 148.749 53.3604C148.749 51.8004 148.987 50.3204 149.384 48.8004C149.622 48.0804 150.774 48.4004 150.535 49.1204Z" fill="#161616"/>
<path d="M150.893 49.2403C151.171 50.5603 150.972 51.8404 150.297 53.0004C149.9 53.6404 148.868 53.0404 149.265 52.4004C149.781 51.5204 149.98 50.5603 149.741 49.5603C149.583 48.8003 150.734 48.4803 150.893 49.2403Z" fill="#161616"/>
<path d="M149.146 54.2006C148.709 53.7606 148.55 53.1606 148.669 52.5606C148.709 52.2406 149.106 52.0806 149.384 52.1606C149.702 52.2406 149.86 52.5606 149.781 52.8806C149.781 52.8006 149.781 53.0006 149.781 53.0406C149.781 52.9606 149.821 53.1206 149.821 53.1206C149.86 53.2406 149.781 53.0806 149.86 53.2006C149.9 53.2406 149.9 53.2806 149.86 53.2406C149.9 53.2806 149.9 53.3206 149.94 53.3206C150.178 53.5606 150.178 53.9606 149.94 54.1606C149.741 54.4406 149.384 54.4406 149.146 54.2006Z" fill="#161616"/>
<path d="M138.108 46.2405C138.743 47.9605 138.743 49.8005 138.108 51.5205C137.83 52.2405 136.678 51.9205 136.956 51.2005C137.552 49.6805 137.552 48.1205 136.956 46.5605C136.678 45.8405 137.83 45.5205 138.108 46.2405Z" fill="#161616"/>
<path d="M137.989 46.6805C137.671 48.2805 137.552 49.8405 137.671 51.4805C137.711 52.2405 136.52 52.2405 136.48 51.4805C136.361 49.7605 136.48 48.0405 136.837 46.3605C136.996 45.6004 138.147 45.9205 137.989 46.6805Z" fill="#161616"/>
<path d="M145.334 65.0007C142.793 64.8007 141.046 66.6407 139.497 68.4007C138.981 68.9607 138.147 68.1207 138.664 67.5607C140.45 65.6007 142.515 63.6007 145.334 63.8007C146.089 63.8407 146.089 65.0407 145.334 65.0007Z" fill="#161616"/>
<path d="M137.79 46.4803C137.472 47.4403 137.314 48.4003 137.274 49.4003C137.274 49.8003 137.274 50.2003 137.314 50.5603C137.591 51.2404 137.472 51.3604 136.956 50.9603C136.916 50.7603 136.916 50.6003 136.956 50.4003C137.036 49.6403 138.227 49.6403 138.147 50.4003C138.108 51.0004 138.266 51.6804 137.711 52.0804C137.274 52.4004 136.718 52.3204 136.44 51.8404C136.043 51.2404 136.083 50.0403 136.083 49.3603C136.083 48.2403 136.281 47.1603 136.639 46.1203C136.877 45.4403 138.028 45.7603 137.79 46.4803Z" fill="#161616"/>
<path d="M127.705 79.5205C123.854 78.9605 121.193 76.5205 119.168 73.3205C118.771 72.6805 119.804 72.0805 120.201 72.7205C122.067 75.7205 124.449 77.8405 128.023 78.3605C128.777 78.4805 128.459 79.6405 127.705 79.5205Z" fill="#161616"/>
<path d="M127.625 80.4003C123.178 80.0003 119.367 75.0803 117.501 71.4003C117.143 70.7203 118.176 70.1203 118.533 70.8003C120.161 74.0403 123.695 78.8403 127.625 79.2003C128.38 79.2403 128.38 80.4403 127.625 80.4003Z" fill="#161616"/>
<path d="M127.705 81.0007C125.045 81.0807 123.059 78.8007 121.312 77.0407C119.565 75.2807 117.58 73.3207 117.302 70.7207C117.223 69.9607 118.414 69.9607 118.493 70.7207C118.692 72.9207 120.677 74.7207 122.146 76.2007C123.615 77.7207 125.442 79.8407 127.705 79.8007C128.499 79.8007 128.499 81.0007 127.705 81.0007Z" fill="#161616"/>
<path d="M155.816 44.7202C157.007 43.1602 159.39 39.6402 159.31 35.0002C159.152 26.0801 150.019 20.8801 148.749 20.1601C144.58 17.8 141.959 18.08 132.271 16.4C125.442 15.2 120.002 13.88 116.587 13C118.096 14.72 119.605 16.44 121.114 18.16C119.129 18.76 117.064 19.4401 114.96 20.2801C109.202 22.4801 104.199 25.0801 99.9906 27.6401C102.016 28.4001 104.001 29.2001 106.026 29.9601C104.636 30.4801 99.1171 32.7602 96.973 38.3602C95.5833 42.0802 96.298 45.5602 96.6156 47.0003C98.1641 54.0803 103.246 55.7603 102.889 60.5604C102.77 62.0004 102.135 64.1204 99.395 66.6404C101.023 66.4804 102.651 66.3204 104.279 66.1604C103.842 67.5604 103.445 68.9604 103.008 70.3604C104.16 70.7204 106.224 71.2004 108.686 70.8404C109.718 70.6804 115.118 69.8404 116.905 65.3604C118.057 62.4404 117.064 59.6404 116.667 58.6803C115.754 59.0803 114.483 59.4404 113.411 58.9203C110.711 57.6003 110.433 51.3203 113.054 49.5603C113.967 48.9603 115.396 48.8003 116.667 49.3203C118.017 49.9203 118.612 51.0803 118.771 51.4403C119.923 51.0803 121.551 50.3603 122.94 48.8803C126.99 44.6002 125.164 38.0802 125.045 37.6402C126.673 37.5602 129.214 37.2802 132.112 36.2402C135.765 34.9202 136.956 33.5202 139.775 32.9602C141.522 32.6402 144.222 32.5601 147.915 34.2402C149.066 34.8002 150.734 35.7602 152.322 37.5202C154.824 40.3202 155.538 43.3202 155.816 44.7202Z" fill="#11345C"/>
<path opacity="0.13" d="M130.286 36.3603C127.943 41.0804 126.673 45.1604 125.958 48.0404C124.727 53.0404 122.742 61.8405 125.799 71.7206C126.633 74.4406 127.665 76.5206 128.38 77.8006C126.355 76.8006 124.33 75.8406 122.345 74.8406C120.717 79.0006 119.129 83.2007 117.501 87.3607C116.19 85.8007 114.84 84.2407 113.53 82.6407C114.562 81.2806 116.429 78.3206 116.984 74.1206C117.382 71.0406 116.905 68.5206 116.468 67.0005C115.595 67.5205 114.721 68.0405 113.887 68.5606C112.935 69.1606 111.465 69.8806 109.56 70.3206C106.939 70.8806 104.755 70.6006 103.524 70.3206C103.882 68.8806 104.199 67.4005 104.557 65.9605C102.889 66.2005 101.221 66.4405 99.5538 66.6405C100.229 66.2005 101.499 65.2005 102.333 63.5205C103.683 60.7605 102.889 58.1205 102.691 57.4405C101.896 54.8405 100.388 54.4805 98.72 52.0404C98.1642 51.2004 95.9804 47.6004 96.298 42.8004C96.576 38.6003 98.6009 35.7603 99.0774 35.1203C101.857 31.3603 105.668 30.2003 106.86 29.8803C104.716 29.0803 102.611 28.2403 100.467 27.4403C101.658 26.7603 109.043 22.7602 117.937 25.6803C125.918 28.4003 129.531 34.9603 130.286 36.3603Z" fill="#606060"/>
<path opacity="0.18" d="M146.168 59.6806C146.644 60.1606 146.922 60.9606 146.684 61.6006C146.168 63.0406 143.19 63.6806 141.483 62.4806C141.284 62.3206 140.331 61.6406 140.45 60.9206C140.689 59.4806 144.659 58.1206 146.168 59.6806Z" fill="#606060"/>
<path d="M9.28 261.043C14.4052 261.043 18.56 256.889 18.56 251.763C18.56 246.638 14.4052 242.483 9.28 242.483C4.1548 242.483 0 246.638 0 251.763C0 256.889 4.1548 261.043 9.28 261.043Z" fill="#11345C"/>
<path d="M25.8 280.364C28.0533 280.364 29.88 278.537 29.88 276.284C29.88 274.03 28.0533 272.204 25.8 272.204C23.5466 272.204 21.72 274.03 21.72 276.284C21.72 278.537 23.5466 280.364 25.8 280.364Z" fill="#11345C"/>
<path d="M200.16 303.804C203.209 303.804 205.68 301.332 205.68 298.284C205.68 295.235 203.209 292.764 200.16 292.764C197.111 292.764 194.64 295.235 194.64 298.284C194.64 301.332 197.111 303.804 200.16 303.804Z" fill="#EC615B"/>
<path d="M227.12 270.044C226.32 268.484 227.2 266.164 229.04 265.724C230.36 265.404 231.68 266.244 232.88 266.604C234.56 267.084 236.32 266.884 237.12 265.164C238.12 263.044 237.04 260.524 238.64 258.604C241.24 255.524 245.72 257.244 248.76 258.524C249.48 258.804 249.8 257.644 249.08 257.364C246 256.084 242.48 254.804 239.32 256.524C236.36 258.124 236.8 260.764 236.32 263.644C235.76 266.804 233.04 265.244 231.04 264.684C229.88 264.364 228.76 264.364 227.72 265.004C225.8 266.164 225.08 268.684 226.08 270.684C226.44 271.324 227.48 270.724 227.12 270.044Z" fill="#EC615B"/>
<path d="M247.68 267.364C246.08 263.884 249.52 260.084 253.12 261.804C254.72 262.564 256.04 264.284 258 263.604C259.8 263.004 260.72 260.764 261.92 259.484C263.84 257.404 266.36 256.084 269.12 255.484C269.88 255.324 269.56 254.164 268.8 254.324C265.84 254.964 263.12 256.404 261.04 258.604C260.12 259.564 259.52 260.804 258.6 261.724C256.72 263.644 254.92 261.164 253.2 260.524C248.52 258.724 244.64 263.644 246.6 267.924C246.96 268.684 248 268.084 247.68 267.364Z" fill="#EC615B"/>
<path d="M19.76 23.8435C18.44 22.9235 17.76 21.0435 18.76 19.6035C19.76 18.1235 21.2 18.2435 22.72 18.4035C24.2 18.5235 25.52 18.3235 26.12 16.8035C26.76 15.1635 25.88 13.6835 25.44 12.1635C24.4 8.40349 28.16 5.52349 31.4 7.80349C32.04 8.24349 32.64 7.20349 32 6.76349C30 5.36349 27.2 5.36349 25.44 7.16349C24.64 7.96349 24.12 9.04349 24 10.1635C23.8 11.9635 25.2 13.4835 25.08 15.2035C25.24 15.8035 24.96 16.2035 24.24 16.4835C23.92 17.2435 23.4 17.4835 22.76 17.2435C22.52 17.2435 21.96 17.1235 21.64 17.0835C21 17.0435 20.44 17.0835 19.84 17.3235C18.88 17.6835 18.04 18.3635 17.52 19.2835C16.36 21.3235 17.28 23.6835 19.08 24.9235C19.8 25.2835 20.4 24.2435 19.76 23.8435Z" fill="#EC615B"/>
<path d="M32.28 17.2836C31.28 15.3236 30.76 12.9236 31.88 10.8836C32.92 9.00362 35.28 8.00362 37.28 8.88363C37.72 9.08362 38.12 8.84362 38.2 8.36362C38.56 5.48362 39.88 3.00363 42 1.00363C42.56 0.483625 41.72 -0.356377 41.16 0.163623C38.8 2.36362 37.44 5.16362 37 8.36362C37.32 8.20362 37.6001 8.00362 37.9201 7.84362C35.5601 6.76362 32.7601 7.56363 31.2401 9.72363C29.4801 12.2036 29.9601 15.3636 31.28 17.9236C31.6 18.5636 32.64 17.9636 32.28 17.2836Z" fill="#EC615B"/>
<path d="M184.6 81.0837C184.52 78.9237 187.28 77.9637 188.64 79.6037C189.44 80.6037 189.48 82.0037 190.52 82.8437C191.56 83.7237 193.2 83.8437 193.92 82.4837C195.08 80.4037 192.8 77.6837 195.92 76.5637C199.4 75.3237 201.68 79.2437 203.04 81.7637C203.4 82.4437 204.44 81.8437 204.08 81.1637C202.72 78.6437 200.88 75.5237 197.72 75.2037C195.44 74.9637 192.96 76.2837 192.84 78.7637C192.8 79.4437 193.16 80.3237 192.96 80.9637C192.96 81.1237 192.96 81.2837 192.96 81.4037C192.2 81.3637 191.48 81.3237 190.72 81.2837C190.44 81.0837 190.2 80.1637 190.04 79.8437C189.48 78.6837 188.76 77.7237 187.4 77.5237C185.32 77.2437 183.28 78.9237 183.32 81.0437C183.44 81.8437 184.64 81.8437 184.6 81.0837Z" fill="#11345C"/>
<path d="M199.96 87.0833C199.4 86.1233 199.8 84.9233 200.76 84.3633C201.88 83.7233 203.36 84.4033 204.2 85.1633C205.44 86.2433 206 87.9633 206.52 89.4833C206.68 90.0033 207.56 90.1233 207.68 89.4833C208 87.6033 208.56 85.5633 210.04 84.2033C211.8 82.6033 216.16 83.3633 215.36 86.4033C215.16 87.1633 216.32 87.4833 216.52 86.7233C217.24 84.0033 214.52 81.8033 211.92 82.0433C208.52 82.3633 207 86.2433 206.52 89.1233C206.92 89.1233 207.28 89.1233 207.68 89.1233C206.72 86.3633 205.04 82.5633 201.44 82.9233C199.16 83.1633 197.72 85.6433 198.92 87.6433C199.28 88.3633 200.32 87.7633 199.96 87.0833Z" fill="#11345C"/>
<path d="M248.011 111.607C249.651 112.247 251.531 111.487 252.411 109.967C253.331 108.367 252.611 106.447 251.091 105.527C249.611 104.647 247.731 104.847 246.691 106.287C245.691 107.687 245.771 109.647 246.971 110.927C247.491 111.487 248.371 110.647 247.811 110.087C246.091 108.287 248.211 105.167 250.491 106.607C252.931 108.127 250.771 111.447 248.331 110.447C247.611 110.167 247.291 111.327 248.011 111.607Z" fill="#11345C"/>
<path d="M257.589 97.4317C256.429 96.1517 258.949 94.0317 259.629 96.1116C259.829 96.7916 259.629 97.7117 258.829 97.8317C257.909 97.9517 256.989 96.9916 257.229 96.0716C257.429 95.3117 256.269 94.9917 256.069 95.7517C255.669 97.3916 257.069 99.0316 258.749 99.0316C260.429 99.0316 261.229 97.2717 260.789 95.7917C260.349 94.3517 258.789 93.4717 257.389 94.3517C256.069 95.1917 255.669 97.1116 256.709 98.2716C257.269 98.8316 258.109 97.9917 257.589 97.4317Z" fill="#11345C"/>
<path d="M198.52 150.804C198.36 154.644 192.32 158.244 195.16 162.404C195.56 162.964 196.04 163.324 196.68 163.564C197.08 163.684 197.64 163.604 198 163.764C199.32 164.364 199.48 165.124 199.16 166.364C198.32 169.444 197.2 172.484 196.24 175.524C196 176.244 197.16 176.564 197.4 175.844C198.36 172.804 199.44 169.764 200.32 166.684C200.72 165.244 200.92 163.524 199.28 162.804C197.92 162.204 196.36 162.724 195.8 160.964C195.36 159.524 196.08 157.924 196.84 156.764C198.12 154.804 199.6 153.204 199.68 150.804C199.76 150.004 198.56 150.044 198.52 150.804Z" fill="#EC615B"/>
<path d="M208.12 161.004C207.6 162.724 207.08 164.444 206.56 166.204C206.2 167.444 205.76 168.604 206 169.924C206.28 171.524 207.08 172.884 207.16 174.524C207.24 176.484 206.72 178.284 205.72 179.964C205.32 180.644 206.36 181.244 206.76 180.564C208.2 178.124 208.76 175.284 208.08 172.484C207.6 170.564 206.96 169.324 207.52 167.244C208.08 165.244 208.72 163.284 209.32 161.324C209.52 160.564 208.36 160.244 208.12 161.004Z" fill="#EC615B"/>
</svg>
