<svg width="25" height="21" viewBox="0 0 25 21" fill="none" xmlns="http://www.w3.org/2000/svg">
<path d="M22.3145 2.93164H17.4225L16.9467 1.50439C16.6471 0.605713 15.8094 0.00195312 14.8622 0.00195312H10.1378C9.19063 0.00195312 8.35288 0.605713 8.05332 1.50439L7.57754 2.93164H6.39648V1.71094C6.39648 0.768604 5.62983 0.00195312 4.6875 0.00195312H3.71094C2.7686 0.00195312 2.00195 0.768604 2.00195 1.71094V3.02012C0.851172 3.32324 0 4.37256 0 5.61719V18.3125C0 19.7933 1.20474 20.998 2.68555 20.998H22.3145C23.7953 20.998 25 19.7933 25 18.3125V5.61719C25 4.13638 23.7953 2.93164 22.3145 2.93164ZM3.4668 1.71094C3.4668 1.57632 3.57632 1.4668 3.71094 1.4668H4.6875C4.82212 1.4668 4.93164 1.57632 4.93164 1.71094V2.93164H3.4668V1.71094ZM23.5352 18.3125C23.5352 18.9856 22.9875 19.5332 22.3145 19.5332H2.68555C2.01245 19.5332 1.46484 18.9856 1.46484 18.3125V5.61719C1.46484 4.94409 2.01245 4.39648 2.68555 4.39648H8.10547C8.4207 4.39648 8.70059 4.19478 8.80029 3.89565L9.44297 1.96763C9.54287 1.66807 9.82207 1.4668 10.1378 1.4668H14.8622C15.1779 1.4668 15.4572 1.66807 15.557 1.96758L16.1997 3.89565C16.2994 4.19478 16.5793 4.39648 16.8945 4.39648H22.3145C22.9875 4.39648 23.5352 4.94409 23.5352 5.61719V18.3125Z" fill="gray"/>
</svg>
