<svg width="235" height="417" viewBox="0 0 235 417" fill="none" xmlns="http://www.w3.org/2000/svg">
<path d="M46.4689 14.64C50.5116 14.64 53.7889 11.3627 53.7889 7.32C53.7889 3.27728 50.5116 0 46.4689 0C42.4262 0 39.1489 3.27728 39.1489 7.32C39.1489 11.3627 42.4262 14.64 46.4689 14.64Z" fill="#EC615B"/>
<path d="M66.709 14.6401C68.9181 14.6401 70.709 12.8493 70.709 10.6401C70.709 8.431 68.9181 6.64014 66.709 6.64014C64.4998 6.64014 62.709 8.431 62.709 10.6401C62.709 12.8493 64.4998 14.6401 66.709 14.6401Z" fill="#EC615B"/>
<path d="M142.149 255.36C139.309 252.76 143.069 248.24 146.269 250.72C147.829 251.92 148.309 253.92 147.269 255.64C146.789 256.48 146.029 257.08 145.149 257.48C144.549 257.76 141.829 258.52 141.909 257.04C141.949 256.28 140.749 256.28 140.709 257.04C140.589 260.2 145.309 259 146.789 257.92C149.069 256.24 149.829 253.16 148.069 250.8C146.549 248.76 143.429 247.88 141.429 249.8C139.669 251.48 139.469 254.52 141.309 256.2C141.869 256.72 142.709 255.88 142.149 255.36Z" fill="#EC615B"/>
<path d="M146.709 262.56C145.909 260.56 145.269 258.16 146.309 256.08C147.229 254.28 149.389 253 151.309 254.16C155.549 256.72 152.269 261.72 149.029 263.2C148.309 263.52 148.949 264.56 149.629 264.24C152.029 263.16 154.189 261.12 154.469 258.36C154.709 256.16 153.509 253.8 151.469 252.88C149.429 251.96 147.189 252.84 145.869 254.52C143.989 256.96 144.469 260.16 145.549 262.88C145.829 263.6 146.989 263.28 146.709 262.56Z" fill="#EC615B"/>
<path d="M1.58889 105.84C0.428905 104.56 2.94889 102.44 3.62889 104.52C3.82889 105.2 3.62889 106.12 2.8289 106.24C1.9089 106.36 0.988914 105.4 1.22891 104.48C1.42891 103.72 0.268911 103.4 0.068913 104.16C-0.331083 105.8 1.06891 107.44 2.74889 107.44C4.42887 107.44 5.22886 105.68 4.78886 104.2C4.34887 102.76 2.78888 101.88 1.3889 102.76C0.0689082 103.6 -0.331068 105.52 0.708921 106.68C1.26892 107.24 2.10889 106.4 1.58889 105.84Z" fill="#11345C"/>
<path d="M177.789 302.68C176.029 300.32 178.029 296.36 181.149 296.92C183.349 297.32 184.989 299.24 187.309 299.32C188.909 299.36 190.349 298.64 190.789 297C191.109 295.84 190.709 294.68 190.749 293.52C190.789 291.72 192.029 290.8 193.669 290.48C197.549 289.72 202.789 292.48 204.989 287.72C206.029 285.48 205.909 282.36 208.829 281.72C211.549 281.12 214.509 283.12 216.269 284.96C216.789 285.52 217.669 284.68 217.109 284.12C214.349 281.24 208.189 278.2 205.429 282.8C204.789 283.84 204.629 285.04 204.229 286.2C203.469 288.6 201.949 289.56 199.429 289.52C196.909 289.48 194.349 288.64 191.909 289.8C189.749 290.8 189.469 292.6 189.589 294.8C189.669 296.12 189.749 297.72 188.109 298.12C187.029 298.36 185.909 297.92 184.989 297.48C183.829 296.88 182.709 296.12 181.429 295.84C177.389 294.96 174.309 300.08 176.709 303.36C177.189 303.88 178.229 303.28 177.789 302.68Z" fill="#11345C"/>
<path d="M207.069 299.36C206.069 297.32 207.029 294.96 208.709 293.6C210.429 292.2 212.789 292 214.909 292.24C217.229 292.48 220.949 294.24 221.549 290.72C221.869 288.72 221.749 287.08 223.749 285.88C225.749 284.64 227.389 285.32 229.309 286.32C230.949 287.2 233.789 287.44 234.149 285C234.269 284.24 233.109 283.92 232.989 284.68C232.829 285.84 231.429 285.84 230.629 285.6C230.069 285.44 229.629 285.12 229.149 284.84C228.509 284.52 227.909 284.2 227.229 284.04C226.069 283.8 224.869 284 223.829 284.48C222.589 285.04 221.509 286 220.909 287.24C220.669 287.76 220.509 288.32 220.429 288.92C220.389 289.16 220.509 289.84 220.389 290.08C219.669 290.6 218.949 291.16 218.269 291.68C217.949 291.6 217.669 291.52 217.349 291.48C214.229 290.76 210.549 290.56 207.909 292.68C205.749 294.44 204.789 297.4 206.029 299.96C206.349 300.68 207.389 300.08 207.069 299.36Z" fill="#11345C"/>
<path d="M194.589 66.5601C190.549 62.8801 194.869 55.6001 199.989 58.7601C202.269 60.1601 203.349 63.0801 201.629 65.3201C200.109 67.3201 197.269 68.1201 195.029 66.8401C194.349 66.4801 193.749 67.4801 194.429 67.8801C197.189 69.4401 200.749 68.5201 202.629 66.0001C204.629 63.3201 203.629 59.8001 200.989 58.0001C198.429 56.2001 194.829 56.3601 192.949 59.0801C191.149 61.6401 191.389 65.3201 193.749 67.4401C194.349 67.9201 195.189 67.0801 194.589 66.5601Z" fill="#11345C"/>
<path d="M203.109 49.8403C202.829 47.9203 204.789 46.0003 206.709 46.2403C207.149 46.2803 207.229 46.4403 207.229 46.9203C207.229 47.3203 207.029 47.7603 206.789 48.0803C206.269 48.8003 205.309 49.3203 204.429 48.9603C203.709 48.6403 203.109 49.6803 203.829 50.0003C205.189 50.6003 206.629 50.1603 207.589 49.0003C208.309 48.1603 208.989 46.2403 207.909 45.3603C206.789 44.4403 204.669 45.2803 203.709 46.0003C202.389 47.0003 201.709 48.5203 201.949 50.1603C202.029 50.9203 203.189 50.6003 203.109 49.8403Z" fill="#11345C"/>
<path d="M83.7237 114.199C80.1637 115.519 76.5637 116.839 73.0037 118.159C69.2037 127.199 65.6037 137.239 62.4437 148.199C54.4037 176.439 52.1636 202.039 52.2036 222.479C57.0837 223.999 62.3637 225.399 68.0037 226.639C82.2037 229.719 95.1637 230.759 106.244 230.799C106.604 206.599 106.964 182.399 107.364 158.199C107.644 144.359 107.924 130.479 108.204 116.639C106.724 115.399 102.804 112.399 96.8437 111.639C90.2837 110.879 85.3637 113.319 83.7237 114.199Z" fill="#EC615B"/>
<path opacity="0.12" d="M95.7237 111.96C91.8437 113.88 91.7237 120.6 91.6037 125.68C91.2837 138.68 88.3237 151.64 89.1237 164.6C89.9237 177.68 86.6037 197.48 67.4836 226.56C73.9637 227.8 81.1237 228.88 88.8837 229.56C95.0037 230.12 100.764 230.36 106.164 230.4C106.364 223.28 106.524 216.16 106.724 209C107.484 178.12 108.004 147.24 108.364 116.32C106.684 115 100.084 109.76 95.7237 111.96Z" fill="#606060"/>
<path d="M66.6436 378.36C67.7636 384.76 68.8436 391.16 69.9636 397.56C65.6436 399.36 62.1636 400.8 59.8836 401.72C50.9236 405.32 46.8436 406.68 40.5636 409.72C37.6436 411.16 35.3236 412.4 33.9236 413.16C36.2436 413.64 39.8036 414.2 44.1236 414C47.6036 413.8 49.7636 413.24 52.9636 412.48C57.0036 411.56 54.4836 412.28 77.1236 408.32C79.2836 407.96 82.5236 407.36 86.5236 406.68C86.2836 402.48 85.9636 398.12 85.5636 393.72C84.6436 383.72 83.2836 374.24 81.6836 365.4C76.6836 369.72 71.6436 374.04 66.6436 378.36Z" fill="black"/>
<path d="M57.2037 223.48C56.6837 225.6 55.9237 228.88 55.4037 233C54.4837 240.12 54.7237 245.48 54.8037 247.32C55.2037 257.84 53.8037 266.36 53.0037 281.28C51.8837 303.04 53.0437 320.68 54.8037 347.72C55.6037 360.04 56.5237 370.2 57.2037 377.2C61.9237 378.12 65.8837 378.52 68.8437 378.68C74.9637 379.04 80.2437 379.32 86.4437 377.2C88.5237 376.48 90.1637 375.68 91.2037 375.12C90.6837 370.24 89.8837 362.64 89.1237 353.36C85.4437 308.84 86.2837 274.96 86.7237 262.2C87.0037 254.56 87.4837 243.68 88.5237 230.6C83.4437 229.44 79.3237 228.72 76.4437 228.28C70.9637 227.4 67.1637 227.08 61.8437 225.24C59.8037 224.6 58.2437 223.92 57.2037 223.48Z" fill="white"/>
<path opacity="0.12" d="M71.5637 227.76C71.7637 232.84 72.0437 240.36 72.3237 249.52C73.1637 279 72.9237 296.8 73.0837 315.36C73.2037 330.44 73.6437 351.96 75.1237 378.4C77.3637 378.56 80.5637 378.56 84.2437 377.64C86.9637 376.96 89.1637 376 90.8437 375.12C90.2437 368.56 89.4036 358.84 88.5636 347C86.6036 320.08 85.4037 303.04 85.5237 283.2C85.6037 270.4 86.2837 252.24 89.0837 230.28C83.2037 229.44 77.4037 228.6 71.5637 227.76Z" fill="#606060"/>
<path d="M56.4437 224.4C52.2037 263.88 51.3237 303.68 53.8837 343.32C54.6037 354.6 55.6037 365.88 56.8837 377.08C56.9637 377.84 58.1637 377.84 58.0837 377.08C53.6037 337.64 52.5237 297.84 54.8437 258.2C55.4837 246.92 56.4437 235.64 57.6437 224.4C57.7237 223.64 56.5237 223.64 56.4437 224.4Z" fill="#161616"/>
<path d="M56.7638 224.04C58.1638 225.24 59.9638 225.44 61.7238 225.8C64.1238 226.32 66.5638 226.84 68.9638 227.36C73.8038 228.4 78.6438 229.44 83.4438 230.48C84.2038 230.64 84.5237 229.48 83.7637 229.32C79.4437 228.4 75.1238 227.48 70.8038 226.56C68.7638 226.12 66.7238 225.68 64.6838 225.24C62.5638 224.8 59.3238 224.64 57.6038 223.2C57.0438 222.72 56.2038 223.56 56.7638 224.04Z" fill="#161616"/>
<path d="M57.1637 377.68C57.9237 378.48 58.8837 378.56 59.9637 378.68C61.5637 378.88 63.2037 379.08 64.8037 379.24C68.2837 379.6 71.7637 379.84 75.2837 379.8C78.5236 379.72 81.8036 379.4 84.9636 378.6C86.5236 378.2 88.0436 377.72 89.4836 377.12C90.3636 376.76 91.1636 376.56 91.5236 375.64C91.6036 375.44 91.5236 375.2 91.3636 375.04C91.3236 375 91.2436 374.92 91.2036 374.88C90.6436 374.32 89.8036 375.16 90.3636 375.72C89.9236 375.28 86.6436 376.88 85.9236 377.08C84.8436 377.4 83.7237 377.64 82.6037 377.88C79.8437 378.4 77.0037 378.6 74.2037 378.6C71.6437 378.6 69.0837 378.44 66.5237 378.2C65.2437 378.08 63.9637 377.96 62.6837 377.8C61.4037 377.64 58.8837 377.76 57.9637 376.8C57.4437 376.24 56.6037 377.12 57.1637 377.68Z" fill="#161616"/>
<path d="M85.5236 266.16C83.6436 294.44 85.4436 322.76 88.1235 350.92C88.8835 358.92 89.7235 366.92 90.5235 374.92C90.6035 375.68 91.8035 375.68 91.7235 374.92C88.8035 346.76 85.8836 318.56 85.9236 290.24C85.9236 282.2 86.2036 274.2 86.7236 266.2C86.8036 265.4 85.6036 265.4 85.5236 266.16Z" fill="#161616"/>
<path d="M66.3236 379.64C67.4036 385.76 68.4836 391.88 69.5636 398C69.6836 397.76 69.8436 397.52 69.9636 397.28C57.2836 401.2 45.0836 406.36 33.4436 412.68C33.0836 412.88 33.0436 413.52 33.4436 413.72C37.0836 415.36 41.0036 414.72 44.8436 414.24C49.4036 413.64 53.9236 413 58.4436 412.28C67.8836 410.76 77.3236 409 86.6436 406.96C86.8836 406.92 87.1236 406.64 87.0836 406.4C86.1636 397.16 85.2436 387.96 84.2836 378.72C84.2036 377.96 83.0036 377.96 83.0836 378.72C84.0036 387.96 84.9236 397.16 85.8836 406.4C86.0436 406.2 86.1636 406 86.3236 405.84C77.7236 407.72 69.0836 409.4 60.4036 410.8C56.2036 411.48 51.9636 412.12 47.7236 412.72C43.4036 413.32 38.2036 414.64 34.0436 412.76C34.0436 413.12 34.0436 413.44 34.0436 413.8C45.6036 407.52 57.7236 402.4 70.2836 398.52C70.6036 398.4 70.7636 398.12 70.6836 397.8C69.6036 391.68 68.5236 385.56 67.4436 379.44C67.3236 378.56 66.1636 378.88 66.3236 379.64Z" fill="#161616"/>
<path d="M102.844 374.24C104.924 381.4 106.964 388.56 109.044 395.68C105.324 398.04 102.204 399.72 100.204 400.76C91.4836 405.28 87.1236 406 81.4036 410.48C78.6436 412.64 76.7236 414.76 75.6436 416C82.2836 415 89.2836 413.72 96.6436 412C106.884 409.64 116.284 406.92 124.724 404.04C121.684 391.8 118.684 379.56 115.644 367.32C111.404 369.64 107.124 371.96 102.844 374.24Z" fill="black"/>
<path d="M69.0836 227C68.4036 228.04 67.5236 229.72 67.3236 231.84C66.9236 236.72 70.6436 239.88 73.2036 244.48C75.2836 248.2 76.0436 252.04 77.6036 259.76C79.4836 269.16 78.7636 272.84 79.8036 291.52C80.0436 295.84 80.2836 299.28 80.8036 306.16C81.5236 315.56 82.4836 328.44 83.7636 339.28C84.9236 348.84 87.0036 362.28 91.0436 378.64C95.4836 378.92 101.364 378.88 108.084 377.52C116.804 375.8 123.564 372.56 128.004 370C127.484 367.2 126.604 362.4 125.564 356.52C119.844 323.24 117.284 296.84 115.724 280.48C114.884 271.8 114.484 267.48 114.284 263.52C113.804 254.24 114.084 249.52 112.964 241.28C112.324 236.48 111.484 232.64 110.884 230.12C97.0036 229.08 83.0436 228.04 69.0836 227Z" fill="white"/>
<path opacity="0.1" d="M88.2036 228.24C90.3636 232.84 93.5636 240.04 96.5636 249.08C102.204 266.16 104.964 283.04 107.004 334C107.444 344.96 107.924 359.48 108.204 376.6C111.524 376.08 115.524 375.2 119.844 373.64C122.924 372.52 125.604 371.28 127.884 370.08C127.244 366.4 126.284 360.8 125.204 354C122.244 335.48 117.444 305.16 114.484 267C113.804 258.12 112.964 245.8 112.404 230.96C104.284 230.04 96.2436 229.12 88.2036 228.24Z" fill="#606060"/>
<path d="M70.3636 243.24C76.4837 248.32 77.3636 256.72 77.8836 264.12C78.5237 273.44 79.0036 282.76 79.5236 292.08C80.5636 310.48 81.7236 328.92 84.3236 347.16C85.8037 357.64 87.8037 368 90.4437 378.24C90.6437 379 91.8037 378.68 91.6037 377.92C81.8837 340.52 81.7637 301.84 79.0437 263.56C78.5237 256 77.4036 247.52 71.2036 242.4C70.6036 241.92 69.7636 242.76 70.3636 243.24Z" fill="#161616"/>
<path d="M91.0036 378.8C98.3636 379.36 105.764 378.76 112.924 376.92C116.324 376.04 119.684 374.92 122.923 373.48C125.123 372.52 128.484 371.6 128.804 368.84C128.884 368.08 127.684 368.08 127.604 368.84C127.404 370.52 124.603 371.44 123.323 372C121.723 372.72 120.124 373.36 118.484 373.96C115.644 374.96 112.764 375.76 109.844 376.4C103.644 377.68 97.3236 378.08 91.0436 377.6C90.2436 377.56 90.2436 378.76 91.0036 378.8Z" fill="#161616"/>
<path d="M111.884 234.08C113.884 269.24 117.404 304.28 122.404 339.12C123.844 349 125.364 358.84 127.044 368.68C127.164 369.44 128.324 369.12 128.204 368.36C122.364 333.76 118.004 298.88 115.164 263.92C114.364 254 113.684 244.04 113.084 234.08C113.044 233.28 111.844 233.28 111.884 234.08Z" fill="#161616"/>
<path d="M103.324 378.2C105.124 384.36 106.924 390.52 108.724 396.68C108.804 396.44 108.924 396.24 109.004 396C102.724 398.92 96.4835 402 90.3635 405.24C85.1235 408 79.1636 410.64 75.4036 415.4C75.0036 415.88 75.3636 416.48 76.0036 416.4C92.6036 414.08 108.924 410.2 124.804 404.76C125.124 404.64 125.284 404.36 125.204 404.04C122.964 394.2 120.684 384.36 118.444 374.52C118.284 373.76 117.124 374.08 117.284 374.84C119.524 384.68 121.804 394.52 124.044 404.36C124.164 404.12 124.324 403.88 124.444 403.64C108.604 409.08 92.2436 413 75.6435 415.28C75.8435 415.6 76.0435 415.96 76.2435 416.28C80.0435 411.4 86.2836 408.76 91.6436 405.92C97.5636 402.8 103.524 399.84 109.604 397.04C109.844 396.92 109.964 396.6 109.884 396.36C108.084 390.2 106.284 384.04 104.484 377.88C104.284 377.16 103.124 377.44 103.324 378.2Z" fill="#161616"/>
<path d="M98.6835 112.08C98.2435 113.44 97.6435 115.4 96.9635 117.8C95.3235 123.6 93.2835 131.8 91.2435 145.04C90.2035 151.72 88.4435 163.44 87.6035 179.32C87.4035 183.16 87.0435 191.32 88.0035 222.96C88.6035 243.48 88.9235 253.76 89.5235 262.4C90.8835 281.64 92.9635 297.96 94.8435 313.08C95.8435 320.84 96.7235 327.24 97.3235 331.56C100.483 331.92 104.844 332.16 109.884 331.56C112.643 331.24 124.563 329.64 136.763 320.88C139.563 318.88 143.083 316 146.683 311.92C144.803 306.32 142.243 298.28 139.643 288.48C137.923 282.12 132.443 261.12 127.243 221.6C125.443 207.84 125.803 208.04 121.323 167.48C119.563 151.56 118.083 138.56 117.123 130.12C116.923 128.12 116.243 123.88 113.123 119.84C107.963 113.12 100.164 112.2 98.6835 112.08Z" fill="white"/>
<path opacity="0.12" d="M109.724 117.04C110.724 120.92 112.084 126.72 113.363 133.8C116.923 153.52 116.563 165.32 117.363 180.88C118.803 209.08 121.844 207.04 124.604 243.76C125.884 260.56 126.524 269.64 125.924 282.24C125.004 302.2 121.524 318.56 118.484 329.88C122.124 328.76 126.564 327.04 131.244 324.36C138.084 320.44 143.044 315.92 146.284 312.36C145.364 309.44 144.004 305.08 142.484 299.8C137.724 283.12 133.164 263.28 128.004 225.12C124.924 202.44 125.603 202.4 121.163 166.24C119.043 148.96 117.124 134.8 115.844 125.28C115.124 123.76 114.084 122 112.604 120.12C111.644 118.84 110.644 117.84 109.724 117.04Z" fill="#606060"/>
<path d="M98.0035 112.119C91.4035 131.679 88.6835 152.239 87.7235 172.799C86.7235 194.399 87.2836 216.119 87.8835 237.719C88.2435 250.359 88.7235 262.959 89.2835 275.599C89.3235 276.359 90.5235 276.359 90.4835 275.599C89.4435 253.279 88.7635 230.959 88.4835 208.639C88.2435 187.839 88.3636 166.959 91.2435 146.359C92.8835 134.879 95.3635 123.519 99.1234 112.519C99.4034 111.719 98.2435 111.399 98.0035 112.119Z" fill="#161616"/>
<path d="M99.2435 112.92C104.004 114.32 108.684 115.88 111.844 119.88C114.524 123.2 115.844 127.4 116.684 131.56C117.684 136.4 118.084 141.4 118.564 146.32C119.124 151.92 119.684 157.56 120.204 163.2C122.284 185.28 124.804 207.36 128.044 229.32C129.884 241.88 131.924 254.4 134.164 266.92C134.284 267.68 135.444 267.36 135.324 266.6C131.164 243.44 127.724 220.2 124.924 196.84C123.564 185.24 122.364 173.64 121.284 162.04C120.724 156.16 120.164 150.28 119.564 144.4C119.084 139.84 118.684 135.2 117.724 130.68C116.804 126.36 115.244 122.04 112.324 118.64C109.004 114.76 104.284 113.16 99.5235 111.8C98.8035 111.56 98.4835 112.72 99.2435 112.92Z" fill="#161616"/>
<path d="M88.8435 267.28C90.1635 288.88 92.8835 310.36 96.9235 331.6C97.0835 332.36 98.2436 332.04 98.0836 331.28C94.0435 310.12 91.3635 288.76 90.0435 267.28C90.0035 266.48 88.8035 266.48 88.8435 267.28Z" fill="#161616"/>
<path d="M97.7236 332.76C115.844 333.8 134.004 326.56 146.404 313.28C146.924 312.72 146.084 311.88 145.564 312.44C133.364 325.48 115.564 332.6 97.7236 331.56C96.9636 331.52 96.9636 332.72 97.7236 332.76Z" fill="#161616"/>
<path d="M133.524 263.8C136.804 280.32 140.964 296.64 145.884 312.72C146.124 313.44 147.284 313.16 147.044 312.4C142.084 296.32 137.964 280 134.684 263.48C134.524 262.72 133.364 263.04 133.524 263.8Z" fill="#161616"/>
<path d="M98.8036 238.04C98.4836 243.48 98.8435 248.92 99.9635 254.24C100.964 258.88 102.364 263.92 104.964 267.96C107.244 271.48 110.684 273.64 114.964 273.32C118.124 273.08 121.964 271.4 122.044 267.76C122.084 267 120.884 267 120.844 267.76C120.724 272.36 113.604 272.76 110.524 271.48C106.924 269.96 105.044 266.16 103.724 262.72C100.684 254.88 99.4836 246.44 100.004 238.08C100.044 237.28 98.8436 237.28 98.8036 238.04Z" fill="#161616"/>
<path d="M101.364 238.68C103.964 242.36 107.323 245.52 111.563 247.24C113.643 248.08 115.923 248.6 118.163 248.64C119.683 248.68 121.804 248.76 122.643 247.24C123.003 246.56 121.964 245.96 121.604 246.64C120.764 248.16 116.524 247.4 115.244 247.16C113.484 246.8 111.804 246.2 110.204 245.32C107.044 243.6 104.444 241.04 102.404 238.12C101.964 237.44 100.924 238.04 101.364 238.68Z" fill="#161616"/>
<path d="M102.204 235.16C105.684 239.12 110.363 241.72 115.564 242.6C116.324 242.72 116.644 241.56 115.884 241.44C110.844 240.6 106.404 238.12 103.043 234.32C102.563 233.72 101.724 234.56 102.204 235.16Z" fill="#161616"/>
<path d="M98.5636 112.36C99.1636 114.52 101.404 115 102.724 116.6C104.644 118.96 104.084 122.44 103.404 125.16C102.604 128.28 101.484 131.32 100.324 134.32C99.2436 137.24 97.3636 140.28 96.8436 143.4C96.3636 146.24 98.3236 148.6 98.3636 151.4C98.3636 154.96 96.8036 158.72 95.9636 162.16C94.2836 168.96 92.7636 175.76 91.4436 182.64C89.9236 190.52 88.6036 198.44 87.5236 206.4C87.4036 207.16 88.5636 207.48 88.6836 206.72C90.6436 192.36 93.3236 178.08 96.7636 164C97.6036 160.56 98.6836 157.16 99.3236 153.68C99.5636 152.44 99.6836 151.12 99.4836 149.88C99.2436 148.4 98.4836 147.08 98.1236 145.6C97.6836 143.68 98.5236 141.96 99.2436 140.24C99.9236 138.64 100.564 137 101.204 135.36C102.404 132.2 103.564 129 104.444 125.76C105.124 123.24 105.604 120.36 104.724 117.84C104.364 116.84 103.804 115.96 103.044 115.24C101.924 114.2 100.124 113.64 99.6836 112.04C99.5236 111.28 98.3636 111.6 98.5636 112.36Z" fill="#161616"/>
<path d="M70.8835 119.68C69.6435 120.68 67.3635 122.52 65.7235 124.44C64.4035 126 63.3635 127.72 61.9235 131.28C59.7635 136.64 58.8035 140.84 57.9235 144.44C56.0435 152.08 55.9235 151.24 54.1235 158.52C51.8435 167.6 50.4835 175.16 48.6035 186.16C45.5635 204.04 44.0435 212.96 43.0835 220.44C42.2835 226.56 39.1235 252.16 39.0835 286.76C39.0835 297.52 39.3635 306.56 39.6435 313.04C40.6035 313.52 41.6835 314 42.8835 314.36C46.6435 315.56 50.0435 315.56 52.4035 315.32C52.3635 308.36 52.4035 298 52.8035 285.4C53.1635 274.36 53.6035 266.6 53.9635 260.44C54.6035 248.6 55.4035 231.64 55.8835 209.96C56.1635 206.8 56.6035 202.28 57.2035 196.8C58.7235 183.24 59.7635 173.68 62.1635 162.12C62.8035 159.12 64.3635 152.92 67.4835 140.6C69.9235 131 71.9636 123.12 73.4036 117.72C72.7236 118.24 71.8835 118.88 70.8835 119.68Z" fill="white"/>
<path d="M73.0037 117.68C59.3237 160.52 54.2837 205.4 51.3237 250.08C50.4837 262.92 49.8037 275.76 49.1637 288.6C49.1237 289.36 50.3237 289.36 50.3637 288.6C52.6837 243.68 55.1237 198.48 64.5637 154.36C67.2037 142.08 70.3637 129.92 74.1637 117.96C74.4037 117.28 73.2437 116.96 73.0037 117.68Z" fill="#161616"/>
<path d="M73.0437 117.32C64.3236 122.44 60.5636 132.28 57.9636 141.56C54.4436 154.16 51.6436 167 49.1236 179.88C44.0436 206.08 40.7636 232.64 39.3236 259.28C38.5236 274.44 38.3236 289.64 38.6836 304.8C38.6836 305.56 39.8836 305.56 39.8836 304.8C39.2436 278.68 40.3236 252.52 43.2036 226.56C46.0836 200.52 50.7636 174.68 57.1636 149.28C59.9636 138.12 62.8837 124.64 73.6037 118.36C74.3237 117.96 73.7237 116.92 73.0437 117.32Z" fill="#161616"/>
<path d="M38.6035 302.44C38.6435 305 38.6435 307.56 38.6835 310.16C38.6835 311.64 38.4435 313.52 39.6035 314.64C40.6435 315.64 42.3635 315.68 43.7235 315.84C46.3235 316.16 48.9636 316.32 51.6036 316.36C52.3636 316.36 52.3636 315.16 51.6036 315.16C49.7636 315.16 47.9236 315.08 46.0836 314.92C45.0836 314.84 44.0835 314.72 43.1235 314.56C41.8035 314.36 41.4835 314.44 40.6435 313.28C39.5235 311.76 39.9235 309.68 39.8835 307.84C39.8835 306.04 39.8435 304.24 39.8435 302.44C39.8035 301.68 38.6035 301.68 38.6035 302.44Z" fill="#161616"/>
<path d="M71.4835 118.76C67.0035 121.48 64.8435 126.52 64.4435 131.6C64.2835 133.72 64.6035 135.88 64.1635 137.96C63.8035 139.68 63.0035 141.24 62.2835 142.84C60.8835 146 59.8435 149.32 59.0835 152.72C57.6035 159.48 57.2035 166.44 56.9235 173.36C56.5635 181.44 56.2035 189.48 55.8435 197.56C55.8035 198.32 57.0035 198.32 57.0435 197.56C57.3635 190.12 57.6835 182.68 58.0435 175.2C58.3635 168.24 58.6435 161.24 59.9635 154.4C60.6035 151.16 61.4835 148 62.6835 144.92C63.8435 142 65.3635 139.4 65.5235 136.16C65.6835 133 65.4835 130.04 66.5235 126.96C67.5235 123.96 69.3235 121.4 72.0435 119.76C72.7635 119.4 72.1235 118.36 71.4835 118.76Z" fill="#161616"/>
<path d="M112.284 118.52C111.164 121.84 109.964 126.36 109.604 131.88C109.204 138 109.924 143.16 110.724 146.8C111.964 147.72 113.804 149.36 115.124 151.92C116.524 154.68 116.884 157.6 116.404 162.28C115.724 169.04 114.924 176.64 109.324 184.12C105.044 189.84 99.8036 192.96 96.5636 194.92C94.1636 196.36 92.0036 197.36 90.4436 198.04C92.5636 201 92.6836 201.88 92.4436 202.16C92.0036 202.64 90.4436 201.2 87.7636 200.44C83.9236 199.4 83.0836 201.24 79.6836 200.44C75.9636 199.56 75.8836 197.12 71.8836 196.48C70.8036 196.32 67.8436 195.84 66.7636 197.48C65.9636 198.72 66.4036 200.8 67.8836 202.6C67.4036 202.64 66.6436 202.68 65.7636 202.6C64.6036 202.48 64.2036 202.28 63.6436 202.44C63.1636 202.6 62.5636 203.04 62.0836 204.44C60.4036 203.64 58.8036 204.16 58.5236 204.88C58.2436 205.56 58.9636 206.88 60.5236 207.56C60.2036 207.92 59.8436 208.44 59.9636 208.96C60.1236 209.72 61.2436 210.04 62.8036 210.36C65.8036 211 67.4036 210.84 69.2036 211.08C71.9636 211.44 72.2436 212.24 75.1636 213.08C79.0036 214.16 82.2436 213.72 84.1236 213.52C89.8436 212.8 94.0036 210.28 96.2036 208.68C96.9636 210.92 97.7236 213.12 98.4836 215.36C101.364 214.96 105.764 214 110.564 211.4C115.684 208.6 118.764 205.28 120.924 202.88C126.084 197.2 128.884 191.24 130.444 186.84C131.684 183.36 132.124 180.72 132.724 177.32C133.644 171.92 134.764 165.56 134.004 157.72C133.724 155.04 132.564 145.2 126.204 134.44C121.524 126.8 116.164 121.64 112.284 118.52Z" fill="white"/>
<path opacity="0.12" d="M113.404 120.2C116.044 123.4 119.484 128.2 122.364 134.52C123.924 137.96 128.164 148.16 128.044 162.04C127.964 171.92 127.844 184.12 119.084 194.4C111.444 203.36 101.124 206.2 95.9636 207.16C92.5236 207.56 88.5636 207.8 84.2037 207.6C75.6837 207.2 68.5636 205.36 63.3236 203.48C60.4437 203.64 59.6437 204.24 59.4837 204.76C59.2837 205.36 59.9237 205.84 59.9237 207.16C59.9237 208.24 59.4837 208.48 59.6437 209C59.8837 209.84 61.3237 210.24 64.0437 210.56C68.2437 211.08 69.2837 210.76 71.5637 211.28C74.0036 211.84 73.9236 212.48 76.1236 213.12C80.0036 214.28 83.4836 213.32 88.7636 211.84C90.6436 211.32 93.2436 210.48 96.2836 209.16C97.0036 211.08 97.6836 213.04 98.4036 214.96C101.884 214.36 107.284 213 112.884 209.44C118.564 205.84 121.764 201.68 123.524 199.36C127.844 193.68 129.724 188.44 130.764 185.44C134.204 175.56 134.004 167.28 133.884 162.88C133.724 157.4 133.444 149.24 129.204 139.88C124.644 130 117.884 123.68 113.404 120.2Z" fill="#606060"/>
<path d="M110.044 117.92C123.084 126.8 131.244 141.12 132.764 156.76C134.324 172.96 131.244 190.84 119.724 203.04C113.964 209.12 106.524 213.48 98.2036 214.76C97.4436 214.88 97.7636 216.04 98.5236 215.92C114.364 213.48 126.204 200.6 131.084 185.88C136.324 170.12 135.764 150.96 127.924 136.16C123.844 128.44 117.884 121.8 110.644 116.88C110.004 116.44 109.404 117.48 110.044 117.92Z" fill="#161616"/>
<path d="M110.604 147.72C114.484 149.92 115.324 154.44 115.964 158.52C116.084 159.28 117.244 158.96 117.124 158.2C116.404 153.8 115.404 149.08 111.204 146.68C110.524 146.32 109.924 147.36 110.604 147.72Z" fill="#161616"/>
<path d="M116.364 152.28C116.284 165.2 112.844 177.84 106.364 189.04C105.964 189.72 107.004 190.32 107.404 189.64C114.004 178.28 117.484 165.4 117.564 152.28C117.564 151.52 116.364 151.52 116.364 152.28Z" fill="#161616"/>
<path d="M109.524 181.84C108.204 185.88 104.404 188.44 101.124 190.8C97.6836 193.24 94.0836 195.44 90.3636 197.4C89.6836 197.76 90.2836 198.8 90.9636 198.44C95.3236 196.12 99.5236 193.52 103.444 190.56C106.484 188.28 109.444 185.84 110.644 182.16C110.924 181.44 109.764 181.12 109.524 181.84Z" fill="#161616"/>
<path d="M90.0037 198.4C92.4836 204.16 96.3636 209.32 97.6436 215.52C97.8036 216.28 98.9636 215.96 98.8036 215.2C97.4836 208.88 93.5636 203.64 91.0436 197.8C90.7236 197.12 89.6837 197.72 90.0037 198.4Z" fill="#161616"/>
<path d="M92.3235 202.12C89.2436 199.24 85.7635 198.84 81.7635 199.36C78.8036 199.76 77.0436 198.64 74.6436 197.16C73.0436 196.2 71.3236 195.56 69.4436 195.56C66.4836 195.56 64.7636 197.64 66.1636 200.48C67.8036 203.88 72.2436 204.96 75.6036 205.52C76.3636 205.64 76.6836 204.48 75.9236 204.36C72.9636 203.84 69.1636 203.08 67.4436 200.32C67.0836 199.72 66.6436 198.56 66.9236 197.88C67.5236 196.44 69.6836 196.64 70.8436 196.88C72.3236 197.16 73.5636 197.92 74.8036 198.68C76.9236 200.04 78.8036 200.92 81.3635 200.6C85.2435 200.16 88.4436 200.12 91.4836 202.96C92.0036 203.48 92.8835 202.64 92.3235 202.12Z" fill="#161616"/>
<path d="M61.5235 204.72C64.4835 208.16 68.8435 209.68 73.2835 209.04C74.0435 208.92 73.7235 207.76 72.9635 207.88C68.9235 208.48 65.0035 206.92 62.4035 203.88C61.8435 203.32 61.0035 204.16 61.5235 204.72Z" fill="#161616"/>
<path d="M58.2836 205.32C59.6436 209.04 63.4436 210.08 67.0436 210.36C67.8036 210.44 67.8036 209.2 67.0436 209.16C64.0836 208.92 60.6036 208.2 59.4436 205C59.2036 204.28 58.0436 204.6 58.2836 205.32Z" fill="#161616"/>
<path d="M58.9636 208.16C60.0436 210.68 62.7236 211.44 65.2436 211.56C67.1636 211.68 69.0436 211.56 70.9636 212.08C72.7236 212.52 74.4036 213.28 76.1236 213.8C83.0036 215.88 89.5236 212.92 95.5636 209.76C96.2436 209.4 95.6436 208.36 94.9636 208.72C89.2036 211.68 83.0036 214.6 76.4436 212.64C74.0036 211.92 71.6836 210.8 69.1236 210.52C66.0036 210.16 61.5236 211.16 60.0036 207.56C59.6836 206.88 58.6436 207.48 58.9636 208.16Z" fill="#161616"/>
<path d="M62.6436 203.72C62.6036 203.72 63.6836 203.28 63.7236 203.24C64.2036 203.12 64.7236 203.04 65.2036 203.04C66.1236 203 67.0436 203.24 67.8836 203.56C68.6036 203.84 68.9236 202.68 68.2036 202.4C66.4036 201.72 64.2836 201.6 62.5236 202.36C61.6036 202.76 60.6436 204.16 62.0036 204.76C62.7636 205.08 63.3636 204.04 62.6436 203.72Z" fill="#161616"/>
<path d="M59.3636 205.28C59.0036 204.64 60.6836 204.88 60.8836 204.88C61.4836 204.92 62.0036 204.88 62.5636 204.6C63.2436 204.24 62.6436 203.2 61.9636 203.56C61.0436 204.04 59.8836 203.28 58.9236 203.88C58.2036 204.28 57.9236 205.16 58.3236 205.88C58.7236 206.52 59.7636 205.92 59.3636 205.28Z" fill="#161616"/>
<path d="M64.7236 126.48C62.6436 128.24 59.8036 130.92 57.0436 134.72C55.8036 136.44 55.0036 137.72 54.0036 139.36C52.4036 142.04 49.6036 146.64 47.2036 153.16C46.2836 155.6 45.2436 158.88 44.3236 162.84C42.7236 164.04 41.0836 165.24 39.4836 166.44C38.6036 166.8 35.9636 167.96 34.1236 170.92C32.2436 173.96 32.4036 176.96 32.5236 177.92C30.7236 178.24 28.8436 178.56 26.9636 178.8C17.9236 180.08 9.40357 180.52 1.52356 180.4C4.64356 184.04 7.72358 187.68 10.8436 191.32C9.88358 192.2 8.92358 193.12 7.96358 194C9.68358 196.32 11.4436 198.64 13.1636 201C15.4436 200.72 17.6836 200.4 19.9636 200.12C23.4836 204.36 27.0036 208.6 30.5236 212.84C36.5636 212.12 41.6036 211.08 45.3636 210.16C57.0436 207.36 65.6036 203.6 69.5236 201.76C72.8036 200.24 75.4436 198.8 77.2036 197.84C76.2036 195.24 75.2036 193.24 74.5236 191.92C72.5236 188.16 68.5236 180.84 60.5636 175.8C59.0436 174.84 57.7236 174.2 56.9636 173.84C56.7636 168.4 57.2036 163.92 57.6836 160.76C58.9236 152.44 61.6436 144.92 61.9636 143.92C62.9636 141.12 63.5636 140 64.1236 137.48C65.2036 132.96 65.0436 129.08 64.7236 126.48Z" fill="white"/>
<path opacity="0.11" d="M61.2436 130.52C58.8036 135.2 56.2436 140.76 54.0436 147.24C51.9636 153.28 50.5635 158.88 49.6035 163.84C48.2035 163.48 46.6835 163.92 45.6835 164.96C44.6835 166.04 44.3235 167.6 44.8035 169C43.5635 169.2 41.3636 169.72 39.3636 171.4C34.6836 175.32 35.4836 181.84 35.5636 182.4C33.8036 182.6 31.9235 182.88 30.0035 183.28C22.0835 184.96 15.6835 188.04 10.8835 191C7.88355 187.44 4.88355 183.92 1.88354 180.36C11.6835 179.68 21.4436 179 31.2436 178.32C31.4836 176.96 32.0435 175.04 33.2835 173C35.4435 169.44 38.4035 167.68 39.8835 166.92C40.1635 166.36 40.4836 165.84 40.7636 165.28C41.8436 164.44 42.9636 163.6 44.0436 162.76C44.6836 159.6 45.4035 157.08 45.9235 155.4C47.4835 150.52 50.2836 141.92 57.4436 134.12C59.0436 132.48 60.4036 131.24 61.2436 130.52Z" fill="#606060"/>
<path d="M64.9235 125.36C54.2035 135.12 46.7635 148.16 43.8835 162.4C43.7235 163.16 44.8835 163.48 45.0435 162.72C47.8835 148.68 55.1635 135.84 65.7636 126.2C66.3236 125.68 65.4835 124.84 64.9235 125.36Z" fill="#161616"/>
<path d="M41.5236 165.92C38.4036 165.72 36.1236 167.96 34.3636 170.32C32.2435 173.16 31.5635 176.56 31.9635 180.08C32.2035 182.12 33.7636 185.28 36.3636 184.28C37.5636 183.8 38.1236 182.44 38.6436 181.36C39.4436 179.64 40.1636 177.88 40.8436 176.12C41.1236 175.4 39.9636 175.08 39.6836 175.8C39.2436 176.92 38.8036 178.08 38.3236 179.2C37.9636 180 37.6436 181.28 37.0836 181.88C37.0036 182.04 36.8836 182.2 36.8036 182.36C35.8036 182.28 34.8035 182.16 33.8035 182.08C33.3635 181.68 33.2435 180.6 33.1635 180.04C33.0435 179.04 33.0835 178.04 33.1235 177.04C33.4035 172.96 36.6436 166.88 41.4836 167.16C42.3236 167.16 42.3236 165.96 41.5236 165.92Z" fill="#161616"/>
<path d="M39.7636 166.8C42.4836 165.76 45.0035 170.64 45.6035 172.64C45.8435 173.36 47.0036 173.08 46.7636 172.32C45.9636 169.68 42.9636 164.32 39.4436 165.64C38.7236 165.92 39.0436 167.08 39.7636 166.8Z" fill="#161616"/>
<path d="M40.3636 166.24C42.9636 164.6 46.2036 162.76 49.0837 164.88C49.7237 165.32 50.3237 164.28 49.6837 163.84C46.4436 161.44 42.7236 163.32 39.7636 165.2C39.0836 165.64 39.6836 166.68 40.3636 166.24Z" fill="#161616"/>
<path d="M41.0436 176.52C43.1636 176.56 45.0435 175.52 46.2035 173.76C46.6435 173.12 45.6035 172.52 45.1635 173.16C44.2435 174.56 42.7236 175.36 41.0436 175.32C40.2436 175.28 40.2436 176.48 41.0436 176.52Z" fill="#161616"/>
<path d="M1.16362 180.76C4.20361 184.44 7.2036 188.08 10.2436 191.76C10.7236 192.36 11.5636 191.52 11.0836 190.92C8.04359 187.24 5.0436 183.6 2.00361 179.92C1.48361 179.32 0.643626 180.2 1.16362 180.76Z" fill="#161616"/>
<path d="M1.60357 180.64C11.4436 181 21.2836 180.44 31.0035 178.88C31.7635 178.76 31.4436 177.6 30.6836 177.72C21.0436 179.24 11.3236 179.8 1.60357 179.44C0.843569 179.4 0.843569 180.6 1.60357 180.64Z" fill="#161616"/>
<path d="M41.2436 177.16C45.0836 175.92 48.9636 174.32 52.8836 173.4C55.4036 172.8 56.7636 174.04 58.6436 175.48C60.2436 176.72 61.8036 178.04 63.3236 179.4C68.7236 184.36 73.2836 190.12 76.9236 196.52C77.3236 197.2 78.3236 196.6 77.9636 195.92C73.9636 188.88 68.8036 182.56 62.7236 177.24C61.3636 176.04 59.9236 174.92 58.4836 173.84C57.2036 172.88 55.8836 171.72 54.2036 171.84C52.2036 171.96 50.0836 173 48.2036 173.64C45.7636 174.4 43.3635 175.2 40.9235 175.96C40.2035 176.24 40.5236 177.4 41.2436 177.16Z" fill="#161616"/>
<path d="M7.2835 193.16C8.56351 196.36 10.4835 199.12 13.1235 201.32C13.7235 201.8 14.5635 200.96 13.9635 200.48C11.5235 198.4 9.64352 195.84 8.44351 192.84C8.16351 192.12 7.0035 192.44 7.2835 193.16Z" fill="#161616"/>
<path d="M8.56368 193.92C9.64368 193.28 10.7637 192.72 11.9237 192.28C13.6837 191.64 14.8437 192.24 16.0437 193.48C16.8037 194.28 17.6037 195.04 18.4037 195.8C18.7236 196.08 20.8437 197.68 20.8837 197.96C21.0437 197.76 21.1636 197.56 21.3236 197.4C21.4436 197.44 21.5636 197.48 21.7236 197.52C21.7636 197.76 21.8036 198 21.8036 198.24C21.8036 198.2 21.8437 198.2 21.8437 198.16C22.2837 197.52 21.2436 196.92 20.8036 197.56C20.8036 197.6 20.7637 197.6 20.7637 197.64C20.6437 197.84 20.6837 198.2 20.8437 198.36C21.0837 198.6 21.2837 198.68 21.6437 198.56C21.8837 198.48 22.0836 198.24 22.0836 198C22.0036 196.88 20.5636 196.16 19.8036 195.48C18.3237 194.12 17.0037 192.36 15.4437 191.12C13.3637 189.48 9.84367 191.8 7.96368 192.88C7.28368 193.24 7.88368 194.28 8.56368 193.92Z" fill="#161616"/>
<path d="M13.8437 201.6C15.9237 201.72 18.2036 201.84 20.2836 201.4C20.7236 201.32 21.0836 201.24 21.3636 200.84C21.7236 200.28 21.4436 199.64 21.7636 199.08C22.1236 198.4 21.0836 197.8 20.7236 198.48C20.5236 198.8 20.5637 199.04 20.4437 199.4C20.1237 200.36 19.4436 200.36 18.4836 200.4C16.9236 200.52 15.4037 200.48 13.8437 200.4C13.0437 200.36 13.0437 201.56 13.8437 201.6Z" fill="#161616"/>
<path d="M13.8436 201.28C16.4436 201 18.9236 200.44 21.3636 199.56C22.0836 199.28 21.7636 198.12 21.0436 198.4C18.7236 199.28 16.3236 199.84 13.8436 200.08C13.0836 200.12 13.0436 201.36 13.8436 201.28Z" fill="#161616"/>
<path d="M19.4836 200.76C19.9236 200.48 20.4436 200.32 20.9636 200.28C21.7236 200.2 21.7236 199 20.9636 199.08C20.2036 199.12 19.5236 199.36 18.8836 199.72C18.2036 200.12 18.8036 201.16 19.4836 200.76Z" fill="#161616"/>
<path d="M19.6436 201C22.8036 205.12 26.1636 209.04 29.8036 212.76C30.3236 213.32 31.2036 212.48 30.6436 211.92C27.0836 208.28 23.7636 204.44 20.6836 200.4C20.2036 199.8 19.1636 200.4 19.6436 201Z" fill="#161616"/>
<path d="M30.6436 213.4C39.8436 211.96 48.9636 209.8 57.8436 206.92C62.2036 205.48 66.5636 203.92 70.8036 202.16C73.2036 201.16 78.0836 200.08 78.0036 196.76C78.0036 196 76.8036 196 76.8036 196.76C76.8436 199 72.7236 200.04 71.1636 200.68C69.3236 201.44 67.4836 202.2 65.6036 202.88C61.7636 204.32 57.8836 205.64 53.9636 206.84C46.2036 209.16 38.3236 210.96 30.3236 212.24C29.5636 212.36 29.8836 213.52 30.6436 213.4Z" fill="#161616"/>
<path d="M20.9236 188.36C24.8836 193.88 28.8436 199.36 32.8436 204.88C33.2836 205.52 34.3236 204.92 33.8836 204.28C29.9236 198.76 25.9636 193.28 21.9636 187.76C21.5236 187.16 20.4836 187.72 20.9236 188.36Z" fill="#161616"/>
<path d="M29.7236 191.6C33.2836 196.92 37.1636 202 41.3236 206.84C41.8436 207.44 42.6836 206.56 42.1636 206C38.0436 201.24 34.2436 196.24 30.7236 191C30.3236 190.36 29.2836 190.96 29.7236 191.6Z" fill="#161616"/>
<path d="M38.2836 187.04C42.6036 192.72 46.9636 198.4 51.2836 204.08C51.7636 204.68 52.8036 204.08 52.3236 203.48C48.0036 197.8 43.6436 192.12 39.3236 186.44C38.8436 185.84 37.8036 186.4 38.2836 187.04Z" fill="#161616"/>
<path d="M47.2035 182.56C49.3236 185.08 51.3236 187.68 53.2436 190.36C53.6836 191 54.7236 190.4 54.2836 189.76C52.2836 187 50.2036 184.32 48.0436 181.72C47.5236 181.12 46.6835 181.96 47.2035 182.56Z" fill="#161616"/>
<path d="M52.1636 68.8C51.9636 69.88 52.1636 71.32 52.6036 74.08C53.8436 82.48 54.7236 88.2 58.2036 94.4C60.5636 98.56 64.0836 104.84 71.2036 107C74.9236 108.12 78.2436 107.72 80.2836 107.32C80.4836 108.44 80.8436 109.8 81.4436 111.24C82.8436 114.52 84.9236 116.68 86.3236 117.92C87.2836 117.84 90.0436 117.4 92.4436 115.16C94.1236 113.6 94.8836 111.88 95.2036 110.92C94.3636 109.92 93.3236 108.44 92.5636 106.48C91.2036 103.12 91.3236 100.08 91.5236 98.44C91.9636 95.04 92.3636 91.68 92.8036 88.28C93.4036 88.28 94.6036 88.16 95.6436 87.32C97.5236 85.84 97.9236 82.88 96.6836 80.88C96.0036 79.76 94.3636 78.16 92.5636 78.64C91.0436 79.08 90.4436 80.72 90.3236 80.96C90.2036 77.68 89.6036 72.56 87.2436 66.8C85.1636 61.72 83.6836 58.08 80.2836 56C71.3636 50.6 53.9236 59 52.1636 68.8Z" fill="white"/>
<path d="M51.9236 71.88C53.0436 83.84 56.4436 97.96 66.7236 105.44C71.6036 109 78.0036 109.36 83.4036 106.76C88.8436 104.16 92.4436 98.8 93.8436 93C94.0036 92.24 92.8836 91.92 92.6836 92.68C91.3636 98.16 88.0036 103.24 82.8036 105.72C76.8436 108.56 70.2436 107.32 65.4836 102.88C57.0836 95 54.1236 82.92 53.0836 71.88C53.0836 71.12 51.8836 71.12 51.9236 71.88Z" fill="#161616"/>
<path d="M79.8037 107.6C80.7637 111.64 82.0037 115.84 85.8036 118.12C86.4836 118.52 87.0836 117.48 86.4036 117.08C82.8837 115 81.8436 111 80.9636 107.28C80.8036 106.52 79.6437 106.84 79.8037 107.6Z" fill="#161616"/>
<path d="M90.7236 99.16C91.1236 103.64 91.6836 108.28 94.8436 111.72C95.3636 112.28 96.2036 111.44 95.6836 110.88C92.7636 107.68 92.2836 103.28 91.9236 99.16C91.8436 98.4 90.6436 98.4 90.7236 99.16Z" fill="#161616"/>
<path d="M86.3635 118.48C90.5635 118.04 94.0435 115.36 95.4836 111.36C95.7636 110.64 94.6035 110.32 94.3235 111.04C93.0835 114.48 89.9635 116.88 86.3635 117.28C85.6035 117.36 85.6035 118.56 86.3635 118.48Z" fill="#161616"/>
<path d="M91.0836 81.4C91.1236 79.52 93.0436 78.56 94.6436 79.4C95.6436 79.92 96.2036 80.88 96.4036 81.92C96.7636 83.64 95.6436 88.44 92.8836 87.28C92.1636 87 91.5636 88 92.2836 88.32C96.4436 90.12 98.6435 83.56 97.2436 80.56C95.6436 77.08 89.9636 76.96 89.8436 81.4C89.8836 82.2 91.0836 82.2 91.0836 81.4Z" fill="#161616"/>
<path d="M63.8035 75.44C63.0036 79.12 62.4036 82.88 62.2036 86.68C62.1636 87.68 62.0436 88.36 62.8036 89.08C63.8835 90.08 65.8035 90.52 67.2035 90.8C67.9635 90.96 68.2835 89.8 67.5235 89.64C66.4035 89.44 64.5235 89.16 63.7235 88.28C62.8836 87.36 63.4836 85.2 63.6036 84.08C63.8835 81.28 64.3636 78.52 64.9635 75.76C65.1235 75 63.9635 74.68 63.8035 75.44Z" fill="#161616"/>
<path d="M54.7236 77.56C56.6836 78.68 59.0036 78.6 60.8836 77.4C61.5236 77 60.9236 75.96 60.2836 76.36C58.7636 77.36 56.9236 77.4 55.3236 76.52C54.6436 76.16 54.0436 77.2 54.7236 77.56Z" fill="#161616"/>
<path d="M68.4437 71.8C70.2837 69.2 73.9236 69.76 75.1636 72.6C75.4836 73.32 76.5236 72.68 76.2036 72C74.5236 68.28 69.7237 67.96 67.4037 71.2C66.9637 71.84 68.0037 72.44 68.4437 71.8Z" fill="#161616"/>
<path d="M56.8835 77.8C56.4835 79.68 56.9635 81.52 58.2436 82.96C58.7636 83.52 59.6036 82.68 59.0836 82.12C58.1236 81 57.7236 79.56 58.0436 78.12C58.2036 77.36 57.0435 77.04 56.8835 77.8Z" fill="#161616"/>
<path d="M57.8836 78.12C58.2836 79.52 58.4836 80.92 58.4836 82.36C58.4836 83.12 59.6836 83.12 59.6836 82.36C59.6836 80.8 59.4436 79.32 59.0436 77.8C58.8036 77.08 57.6436 77.4 57.8836 78.12Z" fill="#161616"/>
<path d="M57.5236 78.24C57.2436 79.56 57.4436 80.84 58.1236 82C58.5236 82.64 59.5635 82.04 59.1635 81.4C58.6436 80.52 58.4436 79.56 58.6836 78.56C58.8436 77.8 57.6836 77.48 57.5236 78.24Z" fill="#161616"/>
<path d="M59.2836 83.2C59.7236 82.76 59.8836 82.16 59.7636 81.56C59.7236 81.24 59.3236 81.08 59.0436 81.16C58.7236 81.24 58.5636 81.56 58.6436 81.88C58.6436 81.8 58.6436 82 58.6436 82.04C58.6436 81.96 58.6036 82.12 58.6036 82.12C58.5636 82.24 58.6436 82.08 58.5636 82.2C58.5236 82.24 58.5236 82.28 58.5636 82.24C58.5236 82.28 58.5236 82.32 58.4836 82.32C58.2436 82.56 58.2436 82.96 58.4836 83.16C58.6836 83.44 59.0436 83.44 59.2836 83.2Z" fill="#161616"/>
<path d="M70.4036 75.24C69.7636 76.96 69.7636 78.8 70.4036 80.52C70.6836 81.24 71.8436 80.92 71.5636 80.2C70.9636 78.68 70.9636 77.12 71.5636 75.56C71.8436 74.84 70.6836 74.52 70.4036 75.24Z" fill="#161616"/>
<path d="M70.5235 75.68C70.8435 77.28 70.9636 78.84 70.8436 80.48C70.8036 81.24 72.0036 81.24 72.0436 80.48C72.1636 78.76 72.0436 77.04 71.6836 75.36C71.5235 74.6 70.3635 74.92 70.5235 75.68Z" fill="#161616"/>
<path d="M63.1236 94C65.6836 93.8 67.4436 95.64 69.0035 97.4C69.5235 97.96 70.3635 97.12 69.8436 96.56C68.0436 94.6 65.9636 92.6 63.1236 92.8C62.3636 92.84 62.3636 94.04 63.1236 94Z" fill="#161616"/>
<path d="M70.7236 75.48C71.0435 76.44 71.2036 77.4 71.2436 78.4C71.2436 78.8 71.2436 79.2 71.2036 79.56C70.9236 80.24 71.0436 80.36 71.5636 79.96C71.6036 79.76 71.6036 79.6 71.5636 79.4C71.4836 78.64 70.2836 78.64 70.3636 79.4C70.4036 80 70.2436 80.68 70.8036 81.08C71.2436 81.4 71.8036 81.32 72.0836 80.84C72.4836 80.24 72.4436 79.04 72.4436 78.36C72.4436 77.24 72.2436 76.16 71.8836 75.12C71.6436 74.44 70.4836 74.76 70.7236 75.48Z" fill="#161616"/>
<path d="M80.8835 108.52C84.7635 107.96 87.4435 105.52 89.4835 102.32C89.8835 101.68 88.8435 101.08 88.4435 101.72C86.5635 104.72 84.1635 106.84 80.5635 107.36C79.8035 107.48 80.1235 108.64 80.8835 108.52Z" fill="#161616"/>
<path d="M80.9636 109.4C85.4436 109 89.2836 104.08 91.1636 100.4C91.5236 99.72 90.4836 99.12 90.1236 99.8C88.4836 103.04 84.9236 107.84 80.9636 108.2C80.2036 108.24 80.2036 109.44 80.9636 109.4Z" fill="#161616"/>
<path d="M80.8836 110C83.5636 110.08 85.5636 107.8 87.3236 106.04C89.0836 104.28 91.0836 102.32 91.3636 99.72C91.4436 98.96 90.2436 98.96 90.1636 99.72C89.9636 101.92 87.9636 103.72 86.4836 105.2C85.0036 106.72 83.1636 108.84 80.8836 108.8C80.0836 108.8 80.0836 110 80.8836 110Z" fill="#161616"/>
<path d="M52.5636 73.72C51.3636 72.16 48.9636 68.64 49.0436 64C49.2036 55.08 58.4036 49.88 59.6836 49.16C63.8836 46.8 66.5236 47.08 76.2836 45.4C83.1636 44.2 88.6436 42.88 92.0836 42C90.5636 43.72 89.0436 45.44 87.5236 47.16C89.5236 47.76 91.6036 48.44 93.7236 49.28C99.5236 51.48 104.564 54.08 108.804 56.64C106.764 57.4 104.764 58.2 102.724 58.96C104.124 59.48 109.684 61.76 111.844 67.36C113.244 71.08 112.524 74.56 112.204 76C110.644 83.08 105.524 84.76 105.884 89.56C106.004 91 106.644 93.12 109.404 95.64C107.764 95.48 106.124 95.32 104.484 95.16C104.924 96.56 105.324 97.96 105.764 99.36C104.604 99.72 102.524 100.2 100.044 99.84C99.0036 99.68 93.5635 98.84 91.7635 94.36C90.6035 91.44 91.6036 88.64 92.0036 87.68C92.9236 88.08 94.2036 88.44 95.2836 87.92C98.0036 86.6 98.2836 80.32 95.6436 78.56C94.7236 77.96 93.2836 77.8 92.0036 78.32C90.6436 78.92 90.0436 80.08 89.8836 80.44C88.7236 80.08 87.0836 79.36 85.6836 77.88C81.6036 73.6 83.4436 67.08 83.5635 66.64C81.9235 66.56 79.3636 66.28 76.4436 65.24C72.7636 63.92 71.5636 62.52 68.7236 61.96C66.9636 61.64 64.2436 61.56 60.5236 63.24C59.3636 63.8 57.6836 64.76 56.0836 66.52C53.5636 69.32 52.8436 72.32 52.5636 73.72Z" fill="#11345C"/>
<path opacity="0.13" d="M78.2836 65.36C80.6436 70.08 81.9236 74.16 82.6436 77.04C83.8836 82.04 85.8836 90.84 82.8036 100.72C81.9636 103.44 80.9236 105.52 80.2036 106.8C82.2436 105.8 84.2836 104.84 86.2836 103.84C87.9236 108 89.5235 112.2 91.1635 116.36C92.4835 114.8 93.8435 113.24 95.1635 111.64C94.1235 110.28 92.2436 107.32 91.6836 103.12C91.2836 100.04 91.7636 97.52 92.2036 96C93.0836 96.52 93.9636 97.04 94.8036 97.56C95.7636 98.16 97.2435 98.88 99.1635 99.32C101.804 99.88 104.004 99.6 105.244 99.32C104.884 97.88 104.564 96.4 104.204 94.96C105.884 95.2 107.564 95.44 109.244 95.64C108.564 95.2 107.284 94.2 106.444 92.52C105.084 89.76 105.884 87.12 106.084 86.44C106.884 83.84 108.404 83.48 110.084 81.04C110.644 80.2 112.844 76.6 112.524 71.8C112.244 67.6 110.204 64.76 109.724 64.12C106.924 60.36 103.084 59.2 101.884 58.88C104.044 58.08 106.164 57.24 108.324 56.44C107.124 55.76 99.6835 51.76 90.7236 54.68C82.6836 57.4 79.0436 63.96 78.2836 65.36Z" fill="#606060"/>
<path opacity="0.18" d="M62.2835 88.68C61.8035 89.16 61.5235 89.96 61.7635 90.6C62.2835 92.04 65.2835 92.68 67.0035 91.48C67.2035 91.32 68.1636 90.64 68.0436 89.92C67.8036 88.48 63.8035 87.12 62.2835 88.68Z" fill="#606060"/>
</svg>
