<svg width="35" height="35" viewBox="0 0 35 35" fill="none" xmlns="http://www.w3.org/2000/svg">
<g clip-path="url(#clip0)">
<path d="M24.2374 4.15301C18.7001 -1.38417 9.69025 -1.38405 4.15297 4.15301C-1.38432 9.6903 -1.38432 18.7001 4.15297 24.2373C8.8506 28.9349 15.8372 29.6463 21.293 26.3735C21.293 26.3735 21.6874 26.1385 22.0046 26.456C23.8159 28.2673 29.2503 33.7016 29.2503 33.7016C30.6924 35.1438 32.7089 35.4872 33.9881 34.2082L34.2081 33.988C35.4872 32.7091 35.144 30.6924 33.7018 29.2504C33.7018 29.2504 28.2789 23.8275 26.4714 22.0199C26.1386 21.6872 26.3737 21.2929 26.3737 21.2929C29.6464 15.8372 28.9351 8.85065 24.2374 4.15301ZM21.6154 21.6154C17.5239 25.7068 10.8667 25.7067 6.7752 21.6152C2.68383 17.5238 2.68371 10.8665 6.7752 6.77514C10.8666 2.68365 17.5239 2.68365 21.6154 6.77514C25.7067 10.8666 25.7067 17.5238 21.6154 21.6154Z" fill="#F2F9FF"/>
<path d="M13.3523 20.7102C13.3523 20.9007 13.3149 21.0943 13.2361 21.2809C12.9206 22.0263 12.0606 22.375 11.3151 22.0595C6.62926 20.0767 4.43028 14.6515 6.41311 9.96581C6.72859 9.22041 7.58865 8.87168 8.33416 9.18715C9.07966 9.50274 9.42817 10.3626 9.11281 11.1083C7.76003 14.3052 9.2604 18.0071 12.4573 19.3597C13.0165 19.5964 13.3523 20.1392 13.3523 20.7102Z" fill="#F2F9FF"/>
</g>
<defs>
<clipPath id="clip0">
<rect width="35" height="35" fill="white" transform="translate(0 35) rotate(-90)"/>
</clipPath>
</defs>
</svg>
