<?xml version="1.0" encoding="utf-8"?>
<!-- Generator: Adobe Illustrator 22.0.1, SVG Export Plug-In . SVG Version: 6.00 Build 0)  -->
<svg version="1.1" id="Layer_1" xmlns="http://www.w3.org/2000/svg" xmlns:xlink="http://www.w3.org/1999/xlink" x="0px" y="0px"
	 viewBox="0 0 68.2 70.2" style="enable-background:new 0 0 68.2 70.2;" xml:space="preserve">
<style type="text/css">
	.st0{fill:#095FA8;}
</style>
<g>
	<path class="st0" d="M0.1,70.1h68V55.2h-68V70.1z M58.1,64.5c0-0.5,0-0.8,0.1-1.1c0.1-0.2,0.2-0.5,0.4-0.6c0.2-0.2,0.6-0.3,1.1-0.4
		c-0.7,0-1.1-0.2-1.3-0.5c-0.2-0.3-0.3-0.8-0.3-1.5c0-0.6,0.1-1.1,0.3-1.5c0.2-0.4,0.4-0.6,0.8-0.8c0.3-0.2,0.7-0.2,1.2-0.3
		c0.4,0,1.2,0,2.1,0h2v9.4h-2.9V63c-0.4,0-0.6,0.1-0.7,0.2c-0.1,0.1-0.2,0.3-0.2,0.7v3.4h-2.7V64.5z M50.5,57.8h2.4v4.3l1.6-4.3h2.4
		v9.4h-2.4V63l-1.5,4.3h-2.5V57.8z M40.6,57.8h3.7c0.1,0.6,0.2,1.2,0.3,2l0.4,2.4l0.7-4.4h3.7v9.4h-2.5l0-6.4l-1,6.4h-1.8l-1-6.2
		l0,6.2h-2.5V57.8z M34.8,57.8h4.8v1.9h-1.9v1.8h1.8v1.8h-1.8v2.1h2.1v1.9h-5V57.8z M25.3,65.3h0.6c0.3-0.8,0.6-1.8,0.8-3
		c0.2-1.3,0.3-2.6,0.3-4.1v-0.3h6.4v7.4h0.6v3.6h-2v-1.6h-4.6v1.6h-2V65.3z M11.1,57.8H14l0,4c0.5,0,0.8-0.3,0.8-0.8l0.1-1.8
		c0-0.7,0.2-1.1,0.5-1.4H18c-0.3,0.2-0.4,0.7-0.4,1.4l0,1.6c0,1-0.6,1.5-1.9,1.7c1.3,0.1,1.9,0.7,1.9,1.7l0,1.5
		c0,0.7,0.1,1.1,0.3,1.4l1.5-9.3h4.1l1.6,9.4h-2.9l-0.2-1.7h-1l-0.2,1.7H18c0,0,0,0-0.1-0.1l0,0.1h-2.6c-0.3-0.2-0.5-0.7-0.5-1.4
		v-1.8c0-0.2-0.1-0.4-0.2-0.6c-0.2-0.1-0.4-0.2-0.6-0.2l0,4h-2.9V57.8z M4.9,57.8H9l1.6,9.4H7.7l-0.2-1.7h-1l-0.2,1.7h-3L4.9,57.8z"
		/>
	<polygon class="st0" points="40.1,53.9 40.1,48.9 41.3,48.9 41.3,47.6 36.9,47.6 36.9,48.9 38.1,48.9 38.1,53.9 	"/>
	<path class="st0" d="M46.4,50.9V50c0-0.6-0.1-1.1-0.2-1.4c-0.2-0.3-0.4-0.6-0.8-0.8c-0.4-0.2-0.9-0.3-1.4-0.3
		c-0.5,0-0.9,0.1-1.3,0.3c-0.4,0.2-0.6,0.4-0.8,0.7c-0.2,0.3-0.2,0.7-0.2,1.3v1.8c0,0.5,0,0.8,0.1,1.1c0.1,0.2,0.2,0.5,0.4,0.7
		c0.2,0.2,0.4,0.4,0.8,0.5c0.3,0.1,0.7,0.2,1.2,0.2c0.5,0,0.8-0.1,1.1-0.2c0.3-0.1,0.5-0.3,0.7-0.5c0.2-0.2,0.3-0.5,0.4-0.7
		c0.1-0.2,0.1-0.5,0.1-0.9v-0.5h-2v0.8c0,0.3,0,0.5-0.1,0.6c-0.1,0.1-0.2,0.2-0.3,0.2c-0.1,0-0.2,0-0.3-0.1c0-0.1-0.1-0.3-0.1-0.5
		v-1.4H46.4z M43.8,49.4c0-0.4,0-0.6,0.1-0.6c0-0.1,0.1-0.1,0.3-0.1c0.1,0,0.2,0,0.2,0.1c0,0.1,0.1,0.3,0.1,0.6v0.5h-0.6V49.4z"/>
	<path class="st0" d="M30.4,59.7h-0.9v0.1c0,1.8-0.2,3.6-0.7,5.5h1.5V59.7z"/>
	<path class="st0" d="M68.1,53.9v-6.3h-1.5c-1.3,0-2.1,0.1-2.5,0.4c-0.4,0.3-0.6,0.7-0.6,1.3c0,0.6,0.1,1,0.2,1.2
		c0.1,0.2,0.5,0.3,1,0.4c-0.4,0.1-0.7,0.2-0.8,0.3c-0.2,0.1-0.3,0.2-0.3,0.4c0,0.2-0.1,0.4-0.1,0.8v1.5h1.9v-1.7
		c0-0.3,0-0.5,0.1-0.6c0.1-0.1,0.3-0.2,0.6-0.2v2.5H68.1z M65.5,50.2c-0.1-0.1-0.1-0.3-0.1-0.6v-0.1c0-0.3,0-0.5,0.1-0.6
		c0.1-0.1,0.2-0.1,0.4-0.1H66v1.5C65.8,50.3,65.6,50.3,65.5,50.2"/>
	<polygon class="st0" points="57.4,39.3 57.4,39.3 57.5,13.2 68,13.1 68.1,6.9 49.1,6.9 49.1,40.6 49.1,40.6 49.1,44.8 57.4,44.8 	
		"/>
	<path class="st0" d="M47.1,47.6v7.1h2.1v-1.4c0.2,0.2,0.4,0.4,0.6,0.5c0.2,0.1,0.5,0.2,0.7,0.2c0.3,0,0.6-0.1,0.8-0.2
		c0.2-0.1,0.4-0.3,0.4-0.6c0.1-0.2,0.1-0.6,0.1-1.2v-2.6c0-0.5,0-0.8-0.1-1.1c-0.1-0.2-0.2-0.4-0.4-0.6c-0.2-0.2-0.5-0.2-0.8-0.2
		c-0.3,0-0.5,0.1-0.7,0.2c-0.2,0.1-0.4,0.3-0.6,0.5l0-0.6H47.1z M49.2,48.8c0-0.1,0.1-0.1,0.3-0.1c0.1,0,0.2,0,0.3,0.1
		c0,0.1,0,0.3,0,0.7v2.7c0,0.3,0,0.5,0,0.6c0,0.1-0.1,0.1-0.3,0.1c-0.1,0-0.2,0-0.3-0.1c0-0.1-0.1-0.3-0.1-0.7v-2.6
		C49.2,49.1,49.2,48.8,49.2,48.8"/>
	<path class="st0" d="M62.7,53.9v-3.1c0-1,0-1.7-0.1-2.1c-0.1-0.3-0.3-0.6-0.6-0.8c-0.4-0.2-0.9-0.3-1.6-0.3c-0.6,0-1.1,0.1-1.4,0.3
		c-0.4,0.2-0.6,0.4-0.7,0.7c-0.1,0.3-0.2,0.6-0.2,1.1V50H60v-0.7c0-0.4,0-0.6,0.1-0.7c0-0.1,0.1-0.1,0.3-0.1c0.1,0,0.2,0.1,0.3,0.2
		c0.1,0.1,0.1,0.3,0.1,0.6c0,0.3,0,0.4-0.1,0.5c0,0.1-0.4,0.2-1.1,0.5c-0.6,0.2-1,0.4-1.2,0.6c-0.2,0.2-0.2,0.5-0.2,1v0.5
		c0,0.6,0.2,1,0.5,1.2c0.3,0.2,0.6,0.3,1,0.3c0.3,0,0.5-0.1,0.7-0.2c0.2-0.1,0.4-0.3,0.5-0.5v0.6H62.7z M60.7,52.2
		c0,0.3,0,0.5-0.1,0.6c0,0.1-0.1,0.1-0.3,0.1c-0.1,0-0.2,0-0.3-0.1c0-0.1-0.1-0.3-0.1-0.6c0-0.3,0-0.5,0.1-0.7
		c0.1-0.1,0.2-0.3,0.6-0.6V52.2z"/>
	<polygon class="st0" points="57.4,53.9 57.4,47.6 55.4,47.6 55.4,49.9 54.6,49.9 54.6,47.6 52.6,47.6 52.6,53.9 54.6,53.9 
		54.6,51.6 55.4,51.6 55.4,53.9 	"/>
	<path class="st0" d="M34.4,44.8l0.5-3.3c0,0,0,0,0,0l0.7-4.6h3.8l0.5,4.4c0,0,0,0,0,0l0.3,3.4h7l-0.5-3.9c0,0,0,0,0,0l-3.4-27.8
		h-9.6l-4.6,28.4c0,0,0,0,0,0l-0.5,3.3H34.4z M37.7,18.2l0.2,0.1l1,13.8h-2.5L37.7,18.2z"/>
	<polygon class="st0" points="17.3,53.9 17.3,47.6 14.7,47.6 14.1,51.1 13.4,47.6 10.9,47.6 10.9,53.9 12.6,53.9 12.6,49.6 
		13.5,53.9 14.6,53.9 15.5,49.6 15.5,53.9 	"/>
	<path class="st0" d="M8.9,47.7c-0.3-0.1-0.7-0.2-1.2-0.2c-0.6,0-1,0.1-1.4,0.3C6,48,5.8,48.3,5.6,48.6c-0.1,0.3-0.2,0.8-0.2,1.4
		v1.6c0,0.5,0,0.9,0.1,1.2c0.1,0.3,0.2,0.5,0.4,0.7c0.2,0.2,0.4,0.3,0.7,0.4C7,53.9,7.4,54,7.8,54c0.4,0,0.8-0.1,1.1-0.2
		c0.3-0.1,0.6-0.3,0.8-0.5c0.2-0.2,0.3-0.5,0.4-0.7c0.1-0.3,0.1-0.7,0.1-1.2v-1.5c0-0.4,0-0.8-0.1-1c-0.1-0.2-0.2-0.4-0.4-0.6
		C9.5,48,9.3,47.8,8.9,47.7 M8.1,52.2c0,0.3,0,0.4-0.1,0.5c0,0.1-0.1,0.1-0.2,0.1c-0.1,0-0.2,0-0.2-0.1c0-0.1-0.1-0.3-0.1-0.6v-2.8
		c0-0.3,0-0.5,0.1-0.6c0-0.1,0.1-0.1,0.2-0.1c0.1,0,0.2,0,0.2,0.1c0,0.1,0.1,0.3,0.1,0.6V52.2z"/>
	<path class="st0" d="M3,53.9h2c-0.2-0.2-0.2-0.5-0.2-0.9v-1.1c0-0.5-0.4-0.9-1.1-1.1c-0.3-0.1-0.6-0.1-0.7-0.2
		c0.3,0,0.5-0.1,0.7-0.1c0.3-0.1,0.5-0.2,0.6-0.3c0.3-0.2,0.4-0.5,0.4-0.8v-0.9c0-0.4,0.1-0.7,0.2-0.9H3c-0.2,0.1-0.2,0.3-0.2,0.7
		v1.1c0,0.4-0.2,0.6-0.7,0.6v-2.4h-2v6.3h2v-2.7c0.4,0,0.7,0.2,0.7,0.6v1.3C2.8,53.4,2.9,53.7,3,53.9"/>
	<path class="st0" d="M21.6,59.9c-0.3,1.8-0.5,3.1-0.6,4h1C21.9,62.8,21.8,61.5,21.6,59.9"/>
	<path class="st0" d="M61.6,61.5v-2.1h-0.1c-0.2,0-0.4,0-0.5,0.1c-0.1,0.1-0.2,0.3-0.2,0.6v0.5c0,0.3,0,0.6,0.2,0.7
		C61,61.5,61.2,61.5,61.6,61.5"/>
	<polygon class="st0" points="26.5,41.4 26.5,41.4 26.5,18.7 20,18.7 20,39.8 16.6,39.8 16.6,22.7 10.1,22.7 10.1,39.2 10.1,39.8 
		6.6,39.8 6.6,38.5 6.6,38.5 6.6,26.7 0.1,26.7 0.1,36.6 0.1,36.6 0.1,44.8 26.5,44.8 	"/>
	<path class="st0" d="M25.7,49.7v-2.1h-2.1v6.3H26c0.7,0,1.2,0,1.5-0.1c0.3-0.1,0.5-0.2,0.7-0.5c0.1-0.2,0.2-0.7,0.2-1.2v-0.6
		c0-0.5-0.1-0.9-0.2-1.2c-0.2-0.2-0.4-0.4-0.7-0.5c-0.3-0.1-0.8-0.1-1.5-0.1H25.7z M26.4,51.6v0.3c0,0.3,0,0.5-0.1,0.6
		c-0.1,0.1-0.3,0.1-0.6,0.1v-1.7c0.3,0,0.5,0.1,0.6,0.1C26.3,51.1,26.4,51.3,26.4,51.6"/>
	<polygon class="st0" points="22.9,53.9 22.9,47.6 18,47.6 18,53.9 20.1,53.9 20.1,48.9 20.8,48.9 20.8,53.9 	"/>
	<path class="st0" d="M31.8,52.5c0,0.2,0.1,0.4,0.2,0.6c0.1,0.2,0.3,0.4,0.5,0.5c0.2,0.1,0.4,0.2,0.6,0.2c0.2,0,0.4,0,0.7,0
		c0.6,0,1.1,0,1.4-0.1c0.3-0.1,0.6-0.2,0.8-0.4c0.2-0.2,0.4-0.4,0.4-0.7c0.1-0.3,0.1-0.7,0.1-1.3v-1.5c0-0.4,0-0.7-0.1-0.9
		c0-0.2-0.2-0.4-0.4-0.7c-0.2-0.2-0.5-0.4-0.8-0.5c-0.3-0.1-0.7-0.2-1.2-0.2c-0.4,0-0.8,0.1-1.1,0.2c-0.3,0.1-0.6,0.3-0.8,0.5
		c-0.2,0.2-0.3,0.5-0.4,0.7c0,0.3-0.1,0.6-0.1,1V50h-0.6v-2.4h-2.1v6.3h2.1v-2.5h0.6v0.2C31.8,51.9,31.8,52.2,31.8,52.5 M33.9,49.3
		c0-0.3,0-0.5,0-0.6c0-0.1,0.1-0.2,0.3-0.2c0.1,0,0.2,0.1,0.3,0.2c0,0.1,0,0.3,0,0.6v3.2c0,0.1,0,0.2-0.1,0.2
		c-0.1,0.1-0.1,0.1-0.2,0.1c-0.2,0-0.3-0.2-0.3-0.5V49.3z"/>
	<path class="st0" d="M7.1,59.9c-0.3,1.8-0.5,3.1-0.5,4h1C7.4,62.8,7.2,61.5,7.1,59.9"/>
	<path class="st0" d="M1.5,26.3l1.1,0l0.1-0.2c0.9,0.2,2,0.5,2.8-0.2c-0.1-0.5-0.8-0.3-1.2-0.6c-0.2-0.1-0.4-0.2-0.5-0.4l-0.2,0
		c0.3-1.1,0.9-2.1,1.4-3c1.5-1.7,1.5-4.1,1.8-6.4c0.1-0.1,0.1-0.1,0.2-0.1c0.1,0,0.1,0,0.2,0c0.3,0,0.6,0,0.6-0.3
		c1.4,0.1,2.5,0.9,3.8,1.1c0,0.1-0.1,0.3-0.2,0.4c0,0.4-0.1,0.7-0.1,1l0,0.3c-0.1,1.7-0.1,2.7,0.2,4.4h1l0.1-0.2
		c0.9,0,2,0.1,2.8-0.5c-0.1-0.5-0.9-0.2-1.3-0.4c-0.2-0.1-0.5-0.2-0.6-0.5c0-1.8,0.1-3.6,0.5-5.3c-1.3-1.8-3.2-2.3-4.8-3.2
		c0.1-0.2,0-0.1,0.1-0.3c-0.4,0-0.7-0.4-1.1-0.3c-0.1-0.4-0.1-1,0-1.4c0.1,0.1,0.3,0.2,0.4,0.3c0.9,0.3,1.8,0.5,2.7,0.9l0.3-0.2
		c0.1,0,0.3,0.2,0.3,0.3c0,0,0.1,0,0.1,0c0,0,0.1,0,0.1,0c0.1-0.1,0.1-0.1,0.1-0.2c0.2-0.2,0.4-0.6,0.3-1c-0.1-0.2-0.2-0.2-0.4-0.1
		c-0.1,0-0.2,0-0.3,0V10L9,8.8C8.9,8.2,8.6,7.7,8.4,7.2c0-1.2-1.1-2-1-3.2c0.2-0.2,0.3-0.2,0.5-0.1c0.1,0,0.2,0,0.3,0
		c0.1-0.1,0.2-0.2,0.2-0.4c0.1,0,0.1-0.2,0.2-0.2c0-0.3,0-0.6,0.3-0.6C8.8,2.4,8.6,2.2,8.6,1.9c0.2-0.4,0-0.9,0-1.4
		C8.1,0.4,7.7,0.1,7.2,0.1C7,0.1,6.8,0.2,6.6,0.3C6.2,0.7,6,1.2,6,1.6C6,2.4,6.1,2.5,6.1,3C6,3.1,6,3.5,5.8,3.3
		C5.4,3.7,5.1,4.2,4.7,4.6C3.6,5.5,2.1,6.4,1.8,8c0.1,1.2,0,2.4,0,3.6c0,0,0.1,0,0.1,0c0.1,0,0.2,0,0.2,0c0,0,0,0,0,0.1h0
		c0,0.1,0,0.1,0,0.2h0.1c0.2,0.4,0,0.9,0.1,1.3c0.1,0.1,0.1,0.4,0.3,0.4c0-0.1,0-0.1,0-0.2l0.2,0.3c0.1,0.1,0.1-0.1,0.2-0.1
		c0.1,0,0,0.2,0,0.2C3,14,3.1,14.1,3.2,14l0.1-1c0.1,0.3,0.1,0.7,0.1,1h0.1c0.2-0.1,0.1-0.4,0.1-0.6c0-0.6,0.1-1.1-0.2-1.7
		c0.1-0.1,0.1-0.1,0.1-0.3c0.1,0,0.1-0.1,0.1-0.1C3.8,10.3,3.8,9.1,3.9,8l0.4-0.3c0.3,1.6,0,3.1-0.3,4.7C4,12.7,4.1,13,4,13.3l0,0.6
		h0l0-0.3c0,0.6-0.2,1.3,0.2,1.6c-0.1,1.5-0.1,3-0.4,4.4C2.9,21.8,1.4,23.9,1.5,26.3"/>
</g>
</svg>
