<svg width="24" height="24" viewBox="0 0 24 24" fill="none" xmlns="http://www.w3.org/2000/svg">
<path d="M23.5861 5.70798L20.2939 9.00018L14.9998 3.70612L18.292 0.413926C18.423 0.28271 18.5786 0.178611 18.7499 0.107585C18.9211 0.0365592 19.1047 0 19.2901 0C19.4755 0 19.6591 0.0365592 19.8304 0.107585C20.0017 0.178611 20.1572 0.28271 20.2882 0.413926L23.5861 3.71177C23.7173 3.84276 23.8214 3.99834 23.8924 4.16961C23.9634 4.34088 24 4.52447 24 4.70988C24 4.89529 23.9634 5.07888 23.8924 5.25014C23.8214 5.42141 23.7173 5.57699 23.5861 5.70798ZM0 18.7045L14.2092 4.4967L19.5033 9.79076L5.29405 23.9986H0.00141165V18.7045H0ZM19.2308 1.47556L17.0567 3.64824L20.356 6.94467L22.5273 4.77199L19.2308 1.47556ZM17.4464 9.85429L14.15 6.55644L1.41316 19.2918V22.5897H4.711L17.4464 9.85429Z" fill="#12335E"/>
</svg>
